G04 #@! TF.GenerationSoftware,KiCad,Pcbnew,5.99.0-unknown-dd374e12a~102~ubuntu20.04.1*
G04 #@! TF.CreationDate,2020-12-04T17:09:40-08:00*
G04 #@! TF.ProjectId,BLDC,424c4443-2e6b-4696-9361-645f70636258,rev?*
G04 #@! TF.SameCoordinates,Original*
G04 #@! TF.FileFunction,Soldermask,Bot*
G04 #@! TF.FilePolarity,Negative*
%FSLAX46Y46*%
G04 Gerber Fmt 4.6, Leading zero omitted, Abs format (unit mm)*
G04 Created by KiCad (PCBNEW 5.99.0-unknown-dd374e12a~102~ubuntu20.04.1) date 2020-12-04 17:09:40*
%MOMM*%
%LPD*%
G01*
G04 APERTURE LIST*
%ADD10C,3.200000*%
%ADD11C,1.400000*%
%ADD12C,1.200000*%
%ADD13O,1.900000X1.900000*%
%ADD14C,1.900000*%
%ADD15C,1.000000*%
G04 APERTURE END LIST*
G36*
X122880426Y-129087469D02*
G01*
X123246233Y-129198435D01*
X123583362Y-129378634D01*
X123878858Y-129621142D01*
X124121366Y-129916638D01*
X124301565Y-130253767D01*
X124412531Y-130619574D01*
X124450000Y-131000000D01*
X124412531Y-131380426D01*
X124301565Y-131746233D01*
X124121366Y-132083362D01*
X123878858Y-132378858D01*
X123583362Y-132621366D01*
X123246233Y-132801565D01*
X122880426Y-132912531D01*
X122500000Y-132950000D01*
X122119574Y-132912531D01*
X121753767Y-132801565D01*
X121416638Y-132621366D01*
X121121142Y-132378858D01*
X120878634Y-132083362D01*
X120698435Y-131746233D01*
X120587469Y-131380426D01*
X120550000Y-131000000D01*
X120587469Y-130619574D01*
X120698435Y-130253767D01*
X120878634Y-129916638D01*
X121121142Y-129621142D01*
X121416638Y-129378634D01*
X121753767Y-129198435D01*
X122119574Y-129087469D01*
X122500000Y-129050000D01*
X122880426Y-129087469D01*
G37*
G36*
X174880426Y-129087469D02*
G01*
X175246233Y-129198435D01*
X175583362Y-129378634D01*
X175878858Y-129621142D01*
X176121366Y-129916638D01*
X176301565Y-130253767D01*
X176412531Y-130619574D01*
X176450000Y-131000000D01*
X176412531Y-131380426D01*
X176301565Y-131746233D01*
X176121366Y-132083362D01*
X175878858Y-132378858D01*
X175583362Y-132621366D01*
X175246233Y-132801565D01*
X174880426Y-132912531D01*
X174500000Y-132950000D01*
X174119574Y-132912531D01*
X173753767Y-132801565D01*
X173416638Y-132621366D01*
X173121142Y-132378858D01*
X172878634Y-132083362D01*
X172698435Y-131746233D01*
X172587469Y-131380426D01*
X172550000Y-131000000D01*
X172587469Y-130619574D01*
X172698435Y-130253767D01*
X172878634Y-129916638D01*
X173121142Y-129621142D01*
X173416638Y-129378634D01*
X173753767Y-129198435D01*
X174119574Y-129087469D01*
X174500000Y-129050000D01*
X174880426Y-129087469D01*
G37*
G36*
X122880426Y-77087469D02*
G01*
X123246233Y-77198435D01*
X123583362Y-77378634D01*
X123878858Y-77621142D01*
X124121366Y-77916638D01*
X124301565Y-78253767D01*
X124412531Y-78619574D01*
X124450000Y-79000000D01*
X124412531Y-79380426D01*
X124301565Y-79746233D01*
X124121366Y-80083362D01*
X123878858Y-80378858D01*
X123583362Y-80621366D01*
X123246233Y-80801565D01*
X122880426Y-80912531D01*
X122500000Y-80950000D01*
X122119574Y-80912531D01*
X121753767Y-80801565D01*
X121416638Y-80621366D01*
X121121142Y-80378858D01*
X120878634Y-80083362D01*
X120698435Y-79746233D01*
X120587469Y-79380426D01*
X120550000Y-79000000D01*
X120587469Y-78619574D01*
X120698435Y-78253767D01*
X120878634Y-77916638D01*
X121121142Y-77621142D01*
X121416638Y-77378634D01*
X121753767Y-77198435D01*
X122119574Y-77087469D01*
X122500000Y-77050000D01*
X122880426Y-77087469D01*
G37*
G36*
X174880426Y-77087469D02*
G01*
X175246233Y-77198435D01*
X175583362Y-77378634D01*
X175878858Y-77621142D01*
X176121366Y-77916638D01*
X176301565Y-78253767D01*
X176412531Y-78619574D01*
X176450000Y-79000000D01*
X176412531Y-79380426D01*
X176301565Y-79746233D01*
X176121366Y-80083362D01*
X175878858Y-80378858D01*
X175583362Y-80621366D01*
X175246233Y-80801565D01*
X174880426Y-80912531D01*
X174500000Y-80950000D01*
X174119574Y-80912531D01*
X173753767Y-80801565D01*
X173416638Y-80621366D01*
X173121142Y-80378858D01*
X172878634Y-80083362D01*
X172698435Y-79746233D01*
X172587469Y-79380426D01*
X172550000Y-79000000D01*
X172587469Y-78619574D01*
X172698435Y-78253767D01*
X172878634Y-77916638D01*
X173121142Y-77621142D01*
X173416638Y-77378634D01*
X173753767Y-77198435D01*
X174119574Y-77087469D01*
X174500000Y-77050000D01*
X174880426Y-77087469D01*
G37*
G36*
X122880426Y-129087469D02*
G01*
X123246233Y-129198435D01*
X123583362Y-129378634D01*
X123878858Y-129621142D01*
X124121366Y-129916638D01*
X124301565Y-130253767D01*
X124412531Y-130619574D01*
X124450000Y-131000000D01*
X124412531Y-131380426D01*
X124301565Y-131746233D01*
X124121366Y-132083362D01*
X123878858Y-132378858D01*
X123583362Y-132621366D01*
X123246233Y-132801565D01*
X122880426Y-132912531D01*
X122500000Y-132950000D01*
X122119574Y-132912531D01*
X121753767Y-132801565D01*
X121416638Y-132621366D01*
X121121142Y-132378858D01*
X120878634Y-132083362D01*
X120698435Y-131746233D01*
X120587469Y-131380426D01*
X120550000Y-131000000D01*
X120587469Y-130619574D01*
X120698435Y-130253767D01*
X120878634Y-129916638D01*
X121121142Y-129621142D01*
X121416638Y-129378634D01*
X121753767Y-129198435D01*
X122119574Y-129087469D01*
X122500000Y-129050000D01*
X122880426Y-129087469D01*
G37*
G36*
X174880426Y-129087469D02*
G01*
X175246233Y-129198435D01*
X175583362Y-129378634D01*
X175878858Y-129621142D01*
X176121366Y-129916638D01*
X176301565Y-130253767D01*
X176412531Y-130619574D01*
X176450000Y-131000000D01*
X176412531Y-131380426D01*
X176301565Y-131746233D01*
X176121366Y-132083362D01*
X175878858Y-132378858D01*
X175583362Y-132621366D01*
X175246233Y-132801565D01*
X174880426Y-132912531D01*
X174500000Y-132950000D01*
X174119574Y-132912531D01*
X173753767Y-132801565D01*
X173416638Y-132621366D01*
X173121142Y-132378858D01*
X172878634Y-132083362D01*
X172698435Y-131746233D01*
X172587469Y-131380426D01*
X172550000Y-131000000D01*
X172587469Y-130619574D01*
X172698435Y-130253767D01*
X172878634Y-129916638D01*
X173121142Y-129621142D01*
X173416638Y-129378634D01*
X173753767Y-129198435D01*
X174119574Y-129087469D01*
X174500000Y-129050000D01*
X174880426Y-129087469D01*
G37*
G36*
X122880426Y-77087469D02*
G01*
X123246233Y-77198435D01*
X123583362Y-77378634D01*
X123878858Y-77621142D01*
X124121366Y-77916638D01*
X124301565Y-78253767D01*
X124412531Y-78619574D01*
X124450000Y-79000000D01*
X124412531Y-79380426D01*
X124301565Y-79746233D01*
X124121366Y-80083362D01*
X123878858Y-80378858D01*
X123583362Y-80621366D01*
X123246233Y-80801565D01*
X122880426Y-80912531D01*
X122500000Y-80950000D01*
X122119574Y-80912531D01*
X121753767Y-80801565D01*
X121416638Y-80621366D01*
X121121142Y-80378858D01*
X120878634Y-80083362D01*
X120698435Y-79746233D01*
X120587469Y-79380426D01*
X120550000Y-79000000D01*
X120587469Y-78619574D01*
X120698435Y-78253767D01*
X120878634Y-77916638D01*
X121121142Y-77621142D01*
X121416638Y-77378634D01*
X121753767Y-77198435D01*
X122119574Y-77087469D01*
X122500000Y-77050000D01*
X122880426Y-77087469D01*
G37*
G36*
X174880426Y-77087469D02*
G01*
X175246233Y-77198435D01*
X175583362Y-77378634D01*
X175878858Y-77621142D01*
X176121366Y-77916638D01*
X176301565Y-78253767D01*
X176412531Y-78619574D01*
X176450000Y-79000000D01*
X176412531Y-79380426D01*
X176301565Y-79746233D01*
X176121366Y-80083362D01*
X175878858Y-80378858D01*
X175583362Y-80621366D01*
X175246233Y-80801565D01*
X174880426Y-80912531D01*
X174500000Y-80950000D01*
X174119574Y-80912531D01*
X173753767Y-80801565D01*
X173416638Y-80621366D01*
X173121142Y-80378858D01*
X172878634Y-80083362D01*
X172698435Y-79746233D01*
X172587469Y-79380426D01*
X172550000Y-79000000D01*
X172587469Y-78619574D01*
X172698435Y-78253767D01*
X172878634Y-77916638D01*
X173121142Y-77621142D01*
X173416638Y-77378634D01*
X173753767Y-77198435D01*
X174119574Y-77087469D01*
X174500000Y-77050000D01*
X174880426Y-77087469D01*
G37*
G36*
G01*
X140500000Y-96925000D02*
X140500000Y-95425000D01*
G75*
G02*
X140625000Y-95300000I125000J0D01*
G01*
X140875000Y-95300000D01*
G75*
G02*
X141000000Y-95425000I0J-125000D01*
G01*
X141000000Y-96925000D01*
G75*
G02*
X140875000Y-97050000I-125000J0D01*
G01*
X140625000Y-97050000D01*
G75*
G02*
X140500000Y-96925000I0J125000D01*
G01*
G37*
G36*
G01*
X141000000Y-96925000D02*
X141000000Y-95425000D01*
G75*
G02*
X141125000Y-95300000I125000J0D01*
G01*
X141375000Y-95300000D01*
G75*
G02*
X141500000Y-95425000I0J-125000D01*
G01*
X141500000Y-96925000D01*
G75*
G02*
X141375000Y-97050000I-125000J0D01*
G01*
X141125000Y-97050000D01*
G75*
G02*
X141000000Y-96925000I0J125000D01*
G01*
G37*
G36*
G01*
X141500000Y-96925000D02*
X141500000Y-95425000D01*
G75*
G02*
X141625000Y-95300000I125000J0D01*
G01*
X141875000Y-95300000D01*
G75*
G02*
X142000000Y-95425000I0J-125000D01*
G01*
X142000000Y-96925000D01*
G75*
G02*
X141875000Y-97050000I-125000J0D01*
G01*
X141625000Y-97050000D01*
G75*
G02*
X141500000Y-96925000I0J125000D01*
G01*
G37*
G36*
G01*
X142000000Y-96925000D02*
X142000000Y-95425000D01*
G75*
G02*
X142125000Y-95300000I125000J0D01*
G01*
X142375000Y-95300000D01*
G75*
G02*
X142500000Y-95425000I0J-125000D01*
G01*
X142500000Y-96925000D01*
G75*
G02*
X142375000Y-97050000I-125000J0D01*
G01*
X142125000Y-97050000D01*
G75*
G02*
X142000000Y-96925000I0J125000D01*
G01*
G37*
G36*
G01*
X142500000Y-96925000D02*
X142500000Y-95425000D01*
G75*
G02*
X142625000Y-95300000I125000J0D01*
G01*
X142875000Y-95300000D01*
G75*
G02*
X143000000Y-95425000I0J-125000D01*
G01*
X143000000Y-96925000D01*
G75*
G02*
X142875000Y-97050000I-125000J0D01*
G01*
X142625000Y-97050000D01*
G75*
G02*
X142500000Y-96925000I0J125000D01*
G01*
G37*
G36*
G01*
X143000000Y-96925000D02*
X143000000Y-95425000D01*
G75*
G02*
X143125000Y-95300000I125000J0D01*
G01*
X143375000Y-95300000D01*
G75*
G02*
X143500000Y-95425000I0J-125000D01*
G01*
X143500000Y-96925000D01*
G75*
G02*
X143375000Y-97050000I-125000J0D01*
G01*
X143125000Y-97050000D01*
G75*
G02*
X143000000Y-96925000I0J125000D01*
G01*
G37*
G36*
G01*
X143500000Y-96925000D02*
X143500000Y-95425000D01*
G75*
G02*
X143625000Y-95300000I125000J0D01*
G01*
X143875000Y-95300000D01*
G75*
G02*
X144000000Y-95425000I0J-125000D01*
G01*
X144000000Y-96925000D01*
G75*
G02*
X143875000Y-97050000I-125000J0D01*
G01*
X143625000Y-97050000D01*
G75*
G02*
X143500000Y-96925000I0J125000D01*
G01*
G37*
G36*
G01*
X144000000Y-96925000D02*
X144000000Y-95425000D01*
G75*
G02*
X144125000Y-95300000I125000J0D01*
G01*
X144375000Y-95300000D01*
G75*
G02*
X144500000Y-95425000I0J-125000D01*
G01*
X144500000Y-96925000D01*
G75*
G02*
X144375000Y-97050000I-125000J0D01*
G01*
X144125000Y-97050000D01*
G75*
G02*
X144000000Y-96925000I0J125000D01*
G01*
G37*
G36*
G01*
X144500000Y-96925000D02*
X144500000Y-95425000D01*
G75*
G02*
X144625000Y-95300000I125000J0D01*
G01*
X144875000Y-95300000D01*
G75*
G02*
X145000000Y-95425000I0J-125000D01*
G01*
X145000000Y-96925000D01*
G75*
G02*
X144875000Y-97050000I-125000J0D01*
G01*
X144625000Y-97050000D01*
G75*
G02*
X144500000Y-96925000I0J125000D01*
G01*
G37*
G36*
G01*
X145000000Y-96925000D02*
X145000000Y-95425000D01*
G75*
G02*
X145125000Y-95300000I125000J0D01*
G01*
X145375000Y-95300000D01*
G75*
G02*
X145500000Y-95425000I0J-125000D01*
G01*
X145500000Y-96925000D01*
G75*
G02*
X145375000Y-97050000I-125000J0D01*
G01*
X145125000Y-97050000D01*
G75*
G02*
X145000000Y-96925000I0J125000D01*
G01*
G37*
G36*
G01*
X145500000Y-96925000D02*
X145500000Y-95425000D01*
G75*
G02*
X145625000Y-95300000I125000J0D01*
G01*
X145875000Y-95300000D01*
G75*
G02*
X146000000Y-95425000I0J-125000D01*
G01*
X146000000Y-96925000D01*
G75*
G02*
X145875000Y-97050000I-125000J0D01*
G01*
X145625000Y-97050000D01*
G75*
G02*
X145500000Y-96925000I0J125000D01*
G01*
G37*
G36*
G01*
X146000000Y-96925000D02*
X146000000Y-95425000D01*
G75*
G02*
X146125000Y-95300000I125000J0D01*
G01*
X146375000Y-95300000D01*
G75*
G02*
X146500000Y-95425000I0J-125000D01*
G01*
X146500000Y-96925000D01*
G75*
G02*
X146375000Y-97050000I-125000J0D01*
G01*
X146125000Y-97050000D01*
G75*
G02*
X146000000Y-96925000I0J125000D01*
G01*
G37*
G36*
G01*
X146500000Y-96925000D02*
X146500000Y-95425000D01*
G75*
G02*
X146625000Y-95300000I125000J0D01*
G01*
X146875000Y-95300000D01*
G75*
G02*
X147000000Y-95425000I0J-125000D01*
G01*
X147000000Y-96925000D01*
G75*
G02*
X146875000Y-97050000I-125000J0D01*
G01*
X146625000Y-97050000D01*
G75*
G02*
X146500000Y-96925000I0J125000D01*
G01*
G37*
G36*
G01*
X147000000Y-96925000D02*
X147000000Y-95425000D01*
G75*
G02*
X147125000Y-95300000I125000J0D01*
G01*
X147375000Y-95300000D01*
G75*
G02*
X147500000Y-95425000I0J-125000D01*
G01*
X147500000Y-96925000D01*
G75*
G02*
X147375000Y-97050000I-125000J0D01*
G01*
X147125000Y-97050000D01*
G75*
G02*
X147000000Y-96925000I0J125000D01*
G01*
G37*
G36*
G01*
X147500000Y-96925000D02*
X147500000Y-95425000D01*
G75*
G02*
X147625000Y-95300000I125000J0D01*
G01*
X147875000Y-95300000D01*
G75*
G02*
X148000000Y-95425000I0J-125000D01*
G01*
X148000000Y-96925000D01*
G75*
G02*
X147875000Y-97050000I-125000J0D01*
G01*
X147625000Y-97050000D01*
G75*
G02*
X147500000Y-96925000I0J125000D01*
G01*
G37*
G36*
G01*
X148000000Y-96925000D02*
X148000000Y-95425000D01*
G75*
G02*
X148125000Y-95300000I125000J0D01*
G01*
X148375000Y-95300000D01*
G75*
G02*
X148500000Y-95425000I0J-125000D01*
G01*
X148500000Y-96925000D01*
G75*
G02*
X148375000Y-97050000I-125000J0D01*
G01*
X148125000Y-97050000D01*
G75*
G02*
X148000000Y-96925000I0J125000D01*
G01*
G37*
G36*
G01*
X149300000Y-94375000D02*
X149300000Y-94125000D01*
G75*
G02*
X149425000Y-94000000I125000J0D01*
G01*
X150925000Y-94000000D01*
G75*
G02*
X151050000Y-94125000I0J-125000D01*
G01*
X151050000Y-94375000D01*
G75*
G02*
X150925000Y-94500000I-125000J0D01*
G01*
X149425000Y-94500000D01*
G75*
G02*
X149300000Y-94375000I0J125000D01*
G01*
G37*
G36*
G01*
X149300000Y-93875000D02*
X149300000Y-93625000D01*
G75*
G02*
X149425000Y-93500000I125000J0D01*
G01*
X150925000Y-93500000D01*
G75*
G02*
X151050000Y-93625000I0J-125000D01*
G01*
X151050000Y-93875000D01*
G75*
G02*
X150925000Y-94000000I-125000J0D01*
G01*
X149425000Y-94000000D01*
G75*
G02*
X149300000Y-93875000I0J125000D01*
G01*
G37*
G36*
G01*
X149300000Y-93375000D02*
X149300000Y-93125000D01*
G75*
G02*
X149425000Y-93000000I125000J0D01*
G01*
X150925000Y-93000000D01*
G75*
G02*
X151050000Y-93125000I0J-125000D01*
G01*
X151050000Y-93375000D01*
G75*
G02*
X150925000Y-93500000I-125000J0D01*
G01*
X149425000Y-93500000D01*
G75*
G02*
X149300000Y-93375000I0J125000D01*
G01*
G37*
G36*
G01*
X149300000Y-92875000D02*
X149300000Y-92625000D01*
G75*
G02*
X149425000Y-92500000I125000J0D01*
G01*
X150925000Y-92500000D01*
G75*
G02*
X151050000Y-92625000I0J-125000D01*
G01*
X151050000Y-92875000D01*
G75*
G02*
X150925000Y-93000000I-125000J0D01*
G01*
X149425000Y-93000000D01*
G75*
G02*
X149300000Y-92875000I0J125000D01*
G01*
G37*
G36*
G01*
X149300000Y-92375000D02*
X149300000Y-92125000D01*
G75*
G02*
X149425000Y-92000000I125000J0D01*
G01*
X150925000Y-92000000D01*
G75*
G02*
X151050000Y-92125000I0J-125000D01*
G01*
X151050000Y-92375000D01*
G75*
G02*
X150925000Y-92500000I-125000J0D01*
G01*
X149425000Y-92500000D01*
G75*
G02*
X149300000Y-92375000I0J125000D01*
G01*
G37*
G36*
G01*
X149300000Y-91875000D02*
X149300000Y-91625000D01*
G75*
G02*
X149425000Y-91500000I125000J0D01*
G01*
X150925000Y-91500000D01*
G75*
G02*
X151050000Y-91625000I0J-125000D01*
G01*
X151050000Y-91875000D01*
G75*
G02*
X150925000Y-92000000I-125000J0D01*
G01*
X149425000Y-92000000D01*
G75*
G02*
X149300000Y-91875000I0J125000D01*
G01*
G37*
G36*
G01*
X149300000Y-91375000D02*
X149300000Y-91125000D01*
G75*
G02*
X149425000Y-91000000I125000J0D01*
G01*
X150925000Y-91000000D01*
G75*
G02*
X151050000Y-91125000I0J-125000D01*
G01*
X151050000Y-91375000D01*
G75*
G02*
X150925000Y-91500000I-125000J0D01*
G01*
X149425000Y-91500000D01*
G75*
G02*
X149300000Y-91375000I0J125000D01*
G01*
G37*
G36*
G01*
X149300000Y-90875000D02*
X149300000Y-90625000D01*
G75*
G02*
X149425000Y-90500000I125000J0D01*
G01*
X150925000Y-90500000D01*
G75*
G02*
X151050000Y-90625000I0J-125000D01*
G01*
X151050000Y-90875000D01*
G75*
G02*
X150925000Y-91000000I-125000J0D01*
G01*
X149425000Y-91000000D01*
G75*
G02*
X149300000Y-90875000I0J125000D01*
G01*
G37*
G36*
G01*
X149300000Y-90375000D02*
X149300000Y-90125000D01*
G75*
G02*
X149425000Y-90000000I125000J0D01*
G01*
X150925000Y-90000000D01*
G75*
G02*
X151050000Y-90125000I0J-125000D01*
G01*
X151050000Y-90375000D01*
G75*
G02*
X150925000Y-90500000I-125000J0D01*
G01*
X149425000Y-90500000D01*
G75*
G02*
X149300000Y-90375000I0J125000D01*
G01*
G37*
G36*
G01*
X149300000Y-89875000D02*
X149300000Y-89625000D01*
G75*
G02*
X149425000Y-89500000I125000J0D01*
G01*
X150925000Y-89500000D01*
G75*
G02*
X151050000Y-89625000I0J-125000D01*
G01*
X151050000Y-89875000D01*
G75*
G02*
X150925000Y-90000000I-125000J0D01*
G01*
X149425000Y-90000000D01*
G75*
G02*
X149300000Y-89875000I0J125000D01*
G01*
G37*
G36*
G01*
X149300000Y-89375000D02*
X149300000Y-89125000D01*
G75*
G02*
X149425000Y-89000000I125000J0D01*
G01*
X150925000Y-89000000D01*
G75*
G02*
X151050000Y-89125000I0J-125000D01*
G01*
X151050000Y-89375000D01*
G75*
G02*
X150925000Y-89500000I-125000J0D01*
G01*
X149425000Y-89500000D01*
G75*
G02*
X149300000Y-89375000I0J125000D01*
G01*
G37*
G36*
G01*
X149300000Y-88875000D02*
X149300000Y-88625000D01*
G75*
G02*
X149425000Y-88500000I125000J0D01*
G01*
X150925000Y-88500000D01*
G75*
G02*
X151050000Y-88625000I0J-125000D01*
G01*
X151050000Y-88875000D01*
G75*
G02*
X150925000Y-89000000I-125000J0D01*
G01*
X149425000Y-89000000D01*
G75*
G02*
X149300000Y-88875000I0J125000D01*
G01*
G37*
G36*
G01*
X149300000Y-88375000D02*
X149300000Y-88125000D01*
G75*
G02*
X149425000Y-88000000I125000J0D01*
G01*
X150925000Y-88000000D01*
G75*
G02*
X151050000Y-88125000I0J-125000D01*
G01*
X151050000Y-88375000D01*
G75*
G02*
X150925000Y-88500000I-125000J0D01*
G01*
X149425000Y-88500000D01*
G75*
G02*
X149300000Y-88375000I0J125000D01*
G01*
G37*
G36*
G01*
X149300000Y-87875000D02*
X149300000Y-87625000D01*
G75*
G02*
X149425000Y-87500000I125000J0D01*
G01*
X150925000Y-87500000D01*
G75*
G02*
X151050000Y-87625000I0J-125000D01*
G01*
X151050000Y-87875000D01*
G75*
G02*
X150925000Y-88000000I-125000J0D01*
G01*
X149425000Y-88000000D01*
G75*
G02*
X149300000Y-87875000I0J125000D01*
G01*
G37*
G36*
G01*
X149300000Y-87375000D02*
X149300000Y-87125000D01*
G75*
G02*
X149425000Y-87000000I125000J0D01*
G01*
X150925000Y-87000000D01*
G75*
G02*
X151050000Y-87125000I0J-125000D01*
G01*
X151050000Y-87375000D01*
G75*
G02*
X150925000Y-87500000I-125000J0D01*
G01*
X149425000Y-87500000D01*
G75*
G02*
X149300000Y-87375000I0J125000D01*
G01*
G37*
G36*
G01*
X149300000Y-86875000D02*
X149300000Y-86625000D01*
G75*
G02*
X149425000Y-86500000I125000J0D01*
G01*
X150925000Y-86500000D01*
G75*
G02*
X151050000Y-86625000I0J-125000D01*
G01*
X151050000Y-86875000D01*
G75*
G02*
X150925000Y-87000000I-125000J0D01*
G01*
X149425000Y-87000000D01*
G75*
G02*
X149300000Y-86875000I0J125000D01*
G01*
G37*
G36*
G01*
X148000000Y-85575000D02*
X148000000Y-84075000D01*
G75*
G02*
X148125000Y-83950000I125000J0D01*
G01*
X148375000Y-83950000D01*
G75*
G02*
X148500000Y-84075000I0J-125000D01*
G01*
X148500000Y-85575000D01*
G75*
G02*
X148375000Y-85700000I-125000J0D01*
G01*
X148125000Y-85700000D01*
G75*
G02*
X148000000Y-85575000I0J125000D01*
G01*
G37*
G36*
G01*
X147500000Y-85575000D02*
X147500000Y-84075000D01*
G75*
G02*
X147625000Y-83950000I125000J0D01*
G01*
X147875000Y-83950000D01*
G75*
G02*
X148000000Y-84075000I0J-125000D01*
G01*
X148000000Y-85575000D01*
G75*
G02*
X147875000Y-85700000I-125000J0D01*
G01*
X147625000Y-85700000D01*
G75*
G02*
X147500000Y-85575000I0J125000D01*
G01*
G37*
G36*
G01*
X147000000Y-85575000D02*
X147000000Y-84075000D01*
G75*
G02*
X147125000Y-83950000I125000J0D01*
G01*
X147375000Y-83950000D01*
G75*
G02*
X147500000Y-84075000I0J-125000D01*
G01*
X147500000Y-85575000D01*
G75*
G02*
X147375000Y-85700000I-125000J0D01*
G01*
X147125000Y-85700000D01*
G75*
G02*
X147000000Y-85575000I0J125000D01*
G01*
G37*
G36*
G01*
X146500000Y-85575000D02*
X146500000Y-84075000D01*
G75*
G02*
X146625000Y-83950000I125000J0D01*
G01*
X146875000Y-83950000D01*
G75*
G02*
X147000000Y-84075000I0J-125000D01*
G01*
X147000000Y-85575000D01*
G75*
G02*
X146875000Y-85700000I-125000J0D01*
G01*
X146625000Y-85700000D01*
G75*
G02*
X146500000Y-85575000I0J125000D01*
G01*
G37*
G36*
G01*
X146000000Y-85575000D02*
X146000000Y-84075000D01*
G75*
G02*
X146125000Y-83950000I125000J0D01*
G01*
X146375000Y-83950000D01*
G75*
G02*
X146500000Y-84075000I0J-125000D01*
G01*
X146500000Y-85575000D01*
G75*
G02*
X146375000Y-85700000I-125000J0D01*
G01*
X146125000Y-85700000D01*
G75*
G02*
X146000000Y-85575000I0J125000D01*
G01*
G37*
G36*
G01*
X145500000Y-85575000D02*
X145500000Y-84075000D01*
G75*
G02*
X145625000Y-83950000I125000J0D01*
G01*
X145875000Y-83950000D01*
G75*
G02*
X146000000Y-84075000I0J-125000D01*
G01*
X146000000Y-85575000D01*
G75*
G02*
X145875000Y-85700000I-125000J0D01*
G01*
X145625000Y-85700000D01*
G75*
G02*
X145500000Y-85575000I0J125000D01*
G01*
G37*
G36*
G01*
X145000000Y-85575000D02*
X145000000Y-84075000D01*
G75*
G02*
X145125000Y-83950000I125000J0D01*
G01*
X145375000Y-83950000D01*
G75*
G02*
X145500000Y-84075000I0J-125000D01*
G01*
X145500000Y-85575000D01*
G75*
G02*
X145375000Y-85700000I-125000J0D01*
G01*
X145125000Y-85700000D01*
G75*
G02*
X145000000Y-85575000I0J125000D01*
G01*
G37*
G36*
G01*
X144500000Y-85575000D02*
X144500000Y-84075000D01*
G75*
G02*
X144625000Y-83950000I125000J0D01*
G01*
X144875000Y-83950000D01*
G75*
G02*
X145000000Y-84075000I0J-125000D01*
G01*
X145000000Y-85575000D01*
G75*
G02*
X144875000Y-85700000I-125000J0D01*
G01*
X144625000Y-85700000D01*
G75*
G02*
X144500000Y-85575000I0J125000D01*
G01*
G37*
G36*
G01*
X144000000Y-85575000D02*
X144000000Y-84075000D01*
G75*
G02*
X144125000Y-83950000I125000J0D01*
G01*
X144375000Y-83950000D01*
G75*
G02*
X144500000Y-84075000I0J-125000D01*
G01*
X144500000Y-85575000D01*
G75*
G02*
X144375000Y-85700000I-125000J0D01*
G01*
X144125000Y-85700000D01*
G75*
G02*
X144000000Y-85575000I0J125000D01*
G01*
G37*
G36*
G01*
X143500000Y-85575000D02*
X143500000Y-84075000D01*
G75*
G02*
X143625000Y-83950000I125000J0D01*
G01*
X143875000Y-83950000D01*
G75*
G02*
X144000000Y-84075000I0J-125000D01*
G01*
X144000000Y-85575000D01*
G75*
G02*
X143875000Y-85700000I-125000J0D01*
G01*
X143625000Y-85700000D01*
G75*
G02*
X143500000Y-85575000I0J125000D01*
G01*
G37*
G36*
G01*
X143000000Y-85575000D02*
X143000000Y-84075000D01*
G75*
G02*
X143125000Y-83950000I125000J0D01*
G01*
X143375000Y-83950000D01*
G75*
G02*
X143500000Y-84075000I0J-125000D01*
G01*
X143500000Y-85575000D01*
G75*
G02*
X143375000Y-85700000I-125000J0D01*
G01*
X143125000Y-85700000D01*
G75*
G02*
X143000000Y-85575000I0J125000D01*
G01*
G37*
G36*
G01*
X142500000Y-85575000D02*
X142500000Y-84075000D01*
G75*
G02*
X142625000Y-83950000I125000J0D01*
G01*
X142875000Y-83950000D01*
G75*
G02*
X143000000Y-84075000I0J-125000D01*
G01*
X143000000Y-85575000D01*
G75*
G02*
X142875000Y-85700000I-125000J0D01*
G01*
X142625000Y-85700000D01*
G75*
G02*
X142500000Y-85575000I0J125000D01*
G01*
G37*
G36*
G01*
X142000000Y-85575000D02*
X142000000Y-84075000D01*
G75*
G02*
X142125000Y-83950000I125000J0D01*
G01*
X142375000Y-83950000D01*
G75*
G02*
X142500000Y-84075000I0J-125000D01*
G01*
X142500000Y-85575000D01*
G75*
G02*
X142375000Y-85700000I-125000J0D01*
G01*
X142125000Y-85700000D01*
G75*
G02*
X142000000Y-85575000I0J125000D01*
G01*
G37*
G36*
G01*
X141500000Y-85575000D02*
X141500000Y-84075000D01*
G75*
G02*
X141625000Y-83950000I125000J0D01*
G01*
X141875000Y-83950000D01*
G75*
G02*
X142000000Y-84075000I0J-125000D01*
G01*
X142000000Y-85575000D01*
G75*
G02*
X141875000Y-85700000I-125000J0D01*
G01*
X141625000Y-85700000D01*
G75*
G02*
X141500000Y-85575000I0J125000D01*
G01*
G37*
G36*
G01*
X141000000Y-85575000D02*
X141000000Y-84075000D01*
G75*
G02*
X141125000Y-83950000I125000J0D01*
G01*
X141375000Y-83950000D01*
G75*
G02*
X141500000Y-84075000I0J-125000D01*
G01*
X141500000Y-85575000D01*
G75*
G02*
X141375000Y-85700000I-125000J0D01*
G01*
X141125000Y-85700000D01*
G75*
G02*
X141000000Y-85575000I0J125000D01*
G01*
G37*
G36*
G01*
X140500000Y-85575000D02*
X140500000Y-84075000D01*
G75*
G02*
X140625000Y-83950000I125000J0D01*
G01*
X140875000Y-83950000D01*
G75*
G02*
X141000000Y-84075000I0J-125000D01*
G01*
X141000000Y-85575000D01*
G75*
G02*
X140875000Y-85700000I-125000J0D01*
G01*
X140625000Y-85700000D01*
G75*
G02*
X140500000Y-85575000I0J125000D01*
G01*
G37*
G36*
G01*
X137950000Y-86875000D02*
X137950000Y-86625000D01*
G75*
G02*
X138075000Y-86500000I125000J0D01*
G01*
X139575000Y-86500000D01*
G75*
G02*
X139700000Y-86625000I0J-125000D01*
G01*
X139700000Y-86875000D01*
G75*
G02*
X139575000Y-87000000I-125000J0D01*
G01*
X138075000Y-87000000D01*
G75*
G02*
X137950000Y-86875000I0J125000D01*
G01*
G37*
G36*
G01*
X137950000Y-87375000D02*
X137950000Y-87125000D01*
G75*
G02*
X138075000Y-87000000I125000J0D01*
G01*
X139575000Y-87000000D01*
G75*
G02*
X139700000Y-87125000I0J-125000D01*
G01*
X139700000Y-87375000D01*
G75*
G02*
X139575000Y-87500000I-125000J0D01*
G01*
X138075000Y-87500000D01*
G75*
G02*
X137950000Y-87375000I0J125000D01*
G01*
G37*
G36*
G01*
X137950000Y-87875000D02*
X137950000Y-87625000D01*
G75*
G02*
X138075000Y-87500000I125000J0D01*
G01*
X139575000Y-87500000D01*
G75*
G02*
X139700000Y-87625000I0J-125000D01*
G01*
X139700000Y-87875000D01*
G75*
G02*
X139575000Y-88000000I-125000J0D01*
G01*
X138075000Y-88000000D01*
G75*
G02*
X137950000Y-87875000I0J125000D01*
G01*
G37*
G36*
G01*
X137950000Y-88375000D02*
X137950000Y-88125000D01*
G75*
G02*
X138075000Y-88000000I125000J0D01*
G01*
X139575000Y-88000000D01*
G75*
G02*
X139700000Y-88125000I0J-125000D01*
G01*
X139700000Y-88375000D01*
G75*
G02*
X139575000Y-88500000I-125000J0D01*
G01*
X138075000Y-88500000D01*
G75*
G02*
X137950000Y-88375000I0J125000D01*
G01*
G37*
G36*
G01*
X137950000Y-88875000D02*
X137950000Y-88625000D01*
G75*
G02*
X138075000Y-88500000I125000J0D01*
G01*
X139575000Y-88500000D01*
G75*
G02*
X139700000Y-88625000I0J-125000D01*
G01*
X139700000Y-88875000D01*
G75*
G02*
X139575000Y-89000000I-125000J0D01*
G01*
X138075000Y-89000000D01*
G75*
G02*
X137950000Y-88875000I0J125000D01*
G01*
G37*
G36*
G01*
X137950000Y-89375000D02*
X137950000Y-89125000D01*
G75*
G02*
X138075000Y-89000000I125000J0D01*
G01*
X139575000Y-89000000D01*
G75*
G02*
X139700000Y-89125000I0J-125000D01*
G01*
X139700000Y-89375000D01*
G75*
G02*
X139575000Y-89500000I-125000J0D01*
G01*
X138075000Y-89500000D01*
G75*
G02*
X137950000Y-89375000I0J125000D01*
G01*
G37*
G36*
G01*
X137950000Y-89875000D02*
X137950000Y-89625000D01*
G75*
G02*
X138075000Y-89500000I125000J0D01*
G01*
X139575000Y-89500000D01*
G75*
G02*
X139700000Y-89625000I0J-125000D01*
G01*
X139700000Y-89875000D01*
G75*
G02*
X139575000Y-90000000I-125000J0D01*
G01*
X138075000Y-90000000D01*
G75*
G02*
X137950000Y-89875000I0J125000D01*
G01*
G37*
G36*
G01*
X137950000Y-90375000D02*
X137950000Y-90125000D01*
G75*
G02*
X138075000Y-90000000I125000J0D01*
G01*
X139575000Y-90000000D01*
G75*
G02*
X139700000Y-90125000I0J-125000D01*
G01*
X139700000Y-90375000D01*
G75*
G02*
X139575000Y-90500000I-125000J0D01*
G01*
X138075000Y-90500000D01*
G75*
G02*
X137950000Y-90375000I0J125000D01*
G01*
G37*
G36*
G01*
X137950000Y-90875000D02*
X137950000Y-90625000D01*
G75*
G02*
X138075000Y-90500000I125000J0D01*
G01*
X139575000Y-90500000D01*
G75*
G02*
X139700000Y-90625000I0J-125000D01*
G01*
X139700000Y-90875000D01*
G75*
G02*
X139575000Y-91000000I-125000J0D01*
G01*
X138075000Y-91000000D01*
G75*
G02*
X137950000Y-90875000I0J125000D01*
G01*
G37*
G36*
G01*
X137950000Y-91375000D02*
X137950000Y-91125000D01*
G75*
G02*
X138075000Y-91000000I125000J0D01*
G01*
X139575000Y-91000000D01*
G75*
G02*
X139700000Y-91125000I0J-125000D01*
G01*
X139700000Y-91375000D01*
G75*
G02*
X139575000Y-91500000I-125000J0D01*
G01*
X138075000Y-91500000D01*
G75*
G02*
X137950000Y-91375000I0J125000D01*
G01*
G37*
G36*
G01*
X137950000Y-91875000D02*
X137950000Y-91625000D01*
G75*
G02*
X138075000Y-91500000I125000J0D01*
G01*
X139575000Y-91500000D01*
G75*
G02*
X139700000Y-91625000I0J-125000D01*
G01*
X139700000Y-91875000D01*
G75*
G02*
X139575000Y-92000000I-125000J0D01*
G01*
X138075000Y-92000000D01*
G75*
G02*
X137950000Y-91875000I0J125000D01*
G01*
G37*
G36*
G01*
X137950000Y-92375000D02*
X137950000Y-92125000D01*
G75*
G02*
X138075000Y-92000000I125000J0D01*
G01*
X139575000Y-92000000D01*
G75*
G02*
X139700000Y-92125000I0J-125000D01*
G01*
X139700000Y-92375000D01*
G75*
G02*
X139575000Y-92500000I-125000J0D01*
G01*
X138075000Y-92500000D01*
G75*
G02*
X137950000Y-92375000I0J125000D01*
G01*
G37*
G36*
G01*
X137950000Y-92875000D02*
X137950000Y-92625000D01*
G75*
G02*
X138075000Y-92500000I125000J0D01*
G01*
X139575000Y-92500000D01*
G75*
G02*
X139700000Y-92625000I0J-125000D01*
G01*
X139700000Y-92875000D01*
G75*
G02*
X139575000Y-93000000I-125000J0D01*
G01*
X138075000Y-93000000D01*
G75*
G02*
X137950000Y-92875000I0J125000D01*
G01*
G37*
G36*
G01*
X137950000Y-93375000D02*
X137950000Y-93125000D01*
G75*
G02*
X138075000Y-93000000I125000J0D01*
G01*
X139575000Y-93000000D01*
G75*
G02*
X139700000Y-93125000I0J-125000D01*
G01*
X139700000Y-93375000D01*
G75*
G02*
X139575000Y-93500000I-125000J0D01*
G01*
X138075000Y-93500000D01*
G75*
G02*
X137950000Y-93375000I0J125000D01*
G01*
G37*
G36*
G01*
X137950000Y-93875000D02*
X137950000Y-93625000D01*
G75*
G02*
X138075000Y-93500000I125000J0D01*
G01*
X139575000Y-93500000D01*
G75*
G02*
X139700000Y-93625000I0J-125000D01*
G01*
X139700000Y-93875000D01*
G75*
G02*
X139575000Y-94000000I-125000J0D01*
G01*
X138075000Y-94000000D01*
G75*
G02*
X137950000Y-93875000I0J125000D01*
G01*
G37*
G36*
G01*
X137950000Y-94375000D02*
X137950000Y-94125000D01*
G75*
G02*
X138075000Y-94000000I125000J0D01*
G01*
X139575000Y-94000000D01*
G75*
G02*
X139700000Y-94125000I0J-125000D01*
G01*
X139700000Y-94375000D01*
G75*
G02*
X139575000Y-94500000I-125000J0D01*
G01*
X138075000Y-94500000D01*
G75*
G02*
X137950000Y-94375000I0J125000D01*
G01*
G37*
G36*
G01*
X147393750Y-111875000D02*
X148406250Y-111875000D01*
G75*
G02*
X148700000Y-112168750I0J-293750D01*
G01*
X148700000Y-112756250D01*
G75*
G02*
X148406250Y-113050000I-293750J0D01*
G01*
X147393750Y-113050000D01*
G75*
G02*
X147100000Y-112756250I0J293750D01*
G01*
X147100000Y-112168750D01*
G75*
G02*
X147393750Y-111875000I293750J0D01*
G01*
G37*
G36*
G01*
X147393750Y-113750000D02*
X148406250Y-113750000D01*
G75*
G02*
X148700000Y-114043750I0J-293750D01*
G01*
X148700000Y-114631250D01*
G75*
G02*
X148406250Y-114925000I-293750J0D01*
G01*
X147393750Y-114925000D01*
G75*
G02*
X147100000Y-114631250I0J293750D01*
G01*
X147100000Y-114043750D01*
G75*
G02*
X147393750Y-113750000I293750J0D01*
G01*
G37*
G36*
G01*
X164777500Y-108520000D02*
X165222500Y-108520000D01*
G75*
G02*
X165420000Y-108717500I0J-197500D01*
G01*
X165420000Y-109112500D01*
G75*
G02*
X165222500Y-109310000I-197500J0D01*
G01*
X164777500Y-109310000D01*
G75*
G02*
X164580000Y-109112500I0J197500D01*
G01*
X164580000Y-108717500D01*
G75*
G02*
X164777500Y-108520000I197500J0D01*
G01*
G37*
G36*
G01*
X164777500Y-109490000D02*
X165222500Y-109490000D01*
G75*
G02*
X165420000Y-109687500I0J-197500D01*
G01*
X165420000Y-110082500D01*
G75*
G02*
X165222500Y-110280000I-197500J0D01*
G01*
X164777500Y-110280000D01*
G75*
G02*
X164580000Y-110082500I0J197500D01*
G01*
X164580000Y-109687500D01*
G75*
G02*
X164777500Y-109490000I197500J0D01*
G01*
G37*
G36*
G01*
X166222500Y-110280000D02*
X165777500Y-110280000D01*
G75*
G02*
X165580000Y-110082500I0J197500D01*
G01*
X165580000Y-109687500D01*
G75*
G02*
X165777500Y-109490000I197500J0D01*
G01*
X166222500Y-109490000D01*
G75*
G02*
X166420000Y-109687500I0J-197500D01*
G01*
X166420000Y-110082500D01*
G75*
G02*
X166222500Y-110280000I-197500J0D01*
G01*
G37*
G36*
G01*
X166222500Y-109310000D02*
X165777500Y-109310000D01*
G75*
G02*
X165580000Y-109112500I0J197500D01*
G01*
X165580000Y-108717500D01*
G75*
G02*
X165777500Y-108520000I197500J0D01*
G01*
X166222500Y-108520000D01*
G75*
G02*
X166420000Y-108717500I0J-197500D01*
G01*
X166420000Y-109112500D01*
G75*
G02*
X166222500Y-109310000I-197500J0D01*
G01*
G37*
G36*
G01*
X155280000Y-82477500D02*
X155280000Y-82922500D01*
G75*
G02*
X155082500Y-83120000I-197500J0D01*
G01*
X154687500Y-83120000D01*
G75*
G02*
X154490000Y-82922500I0J197500D01*
G01*
X154490000Y-82477500D01*
G75*
G02*
X154687500Y-82280000I197500J0D01*
G01*
X155082500Y-82280000D01*
G75*
G02*
X155280000Y-82477500I0J-197500D01*
G01*
G37*
G36*
G01*
X154310000Y-82477500D02*
X154310000Y-82922500D01*
G75*
G02*
X154112500Y-83120000I-197500J0D01*
G01*
X153717500Y-83120000D01*
G75*
G02*
X153520000Y-82922500I0J197500D01*
G01*
X153520000Y-82477500D01*
G75*
G02*
X153717500Y-82280000I197500J0D01*
G01*
X154112500Y-82280000D01*
G75*
G02*
X154310000Y-82477500I0J-197500D01*
G01*
G37*
G36*
G01*
X154920000Y-81922500D02*
X154920000Y-81477500D01*
G75*
G02*
X155117500Y-81280000I197500J0D01*
G01*
X155512500Y-81280000D01*
G75*
G02*
X155710000Y-81477500I0J-197500D01*
G01*
X155710000Y-81922500D01*
G75*
G02*
X155512500Y-82120000I-197500J0D01*
G01*
X155117500Y-82120000D01*
G75*
G02*
X154920000Y-81922500I0J197500D01*
G01*
G37*
G36*
G01*
X155890000Y-81922500D02*
X155890000Y-81477500D01*
G75*
G02*
X156087500Y-81280000I197500J0D01*
G01*
X156482500Y-81280000D01*
G75*
G02*
X156680000Y-81477500I0J-197500D01*
G01*
X156680000Y-81922500D01*
G75*
G02*
X156482500Y-82120000I-197500J0D01*
G01*
X156087500Y-82120000D01*
G75*
G02*
X155890000Y-81922500I0J197500D01*
G01*
G37*
G36*
G01*
X150922500Y-120380000D02*
X150477500Y-120380000D01*
G75*
G02*
X150280000Y-120182500I0J197500D01*
G01*
X150280000Y-119787500D01*
G75*
G02*
X150477500Y-119590000I197500J0D01*
G01*
X150922500Y-119590000D01*
G75*
G02*
X151120000Y-119787500I0J-197500D01*
G01*
X151120000Y-120182500D01*
G75*
G02*
X150922500Y-120380000I-197500J0D01*
G01*
G37*
G36*
G01*
X150922500Y-119410000D02*
X150477500Y-119410000D01*
G75*
G02*
X150280000Y-119212500I0J197500D01*
G01*
X150280000Y-118817500D01*
G75*
G02*
X150477500Y-118620000I197500J0D01*
G01*
X150922500Y-118620000D01*
G75*
G02*
X151120000Y-118817500I0J-197500D01*
G01*
X151120000Y-119212500D01*
G75*
G02*
X150922500Y-119410000I-197500J0D01*
G01*
G37*
G36*
G01*
X148222500Y-99680000D02*
X147777500Y-99680000D01*
G75*
G02*
X147580000Y-99482500I0J197500D01*
G01*
X147580000Y-99087500D01*
G75*
G02*
X147777500Y-98890000I197500J0D01*
G01*
X148222500Y-98890000D01*
G75*
G02*
X148420000Y-99087500I0J-197500D01*
G01*
X148420000Y-99482500D01*
G75*
G02*
X148222500Y-99680000I-197500J0D01*
G01*
G37*
G36*
G01*
X148222500Y-98710000D02*
X147777500Y-98710000D01*
G75*
G02*
X147580000Y-98512500I0J197500D01*
G01*
X147580000Y-98117500D01*
G75*
G02*
X147777500Y-97920000I197500J0D01*
G01*
X148222500Y-97920000D01*
G75*
G02*
X148420000Y-98117500I0J-197500D01*
G01*
X148420000Y-98512500D01*
G75*
G02*
X148222500Y-98710000I-197500J0D01*
G01*
G37*
G36*
G01*
X148590000Y-109822500D02*
X148590000Y-109377500D01*
G75*
G02*
X148787500Y-109180000I197500J0D01*
G01*
X149182500Y-109180000D01*
G75*
G02*
X149380000Y-109377500I0J-197500D01*
G01*
X149380000Y-109822500D01*
G75*
G02*
X149182500Y-110020000I-197500J0D01*
G01*
X148787500Y-110020000D01*
G75*
G02*
X148590000Y-109822500I0J197500D01*
G01*
G37*
G36*
G01*
X147620000Y-109822500D02*
X147620000Y-109377500D01*
G75*
G02*
X147817500Y-109180000I197500J0D01*
G01*
X148212500Y-109180000D01*
G75*
G02*
X148410000Y-109377500I0J-197500D01*
G01*
X148410000Y-109822500D01*
G75*
G02*
X148212500Y-110020000I-197500J0D01*
G01*
X147817500Y-110020000D01*
G75*
G02*
X147620000Y-109822500I0J197500D01*
G01*
G37*
G36*
G01*
X136130000Y-88310000D02*
X135685000Y-88310000D01*
G75*
G02*
X135487500Y-88112500I0J197500D01*
G01*
X135487500Y-87717500D01*
G75*
G02*
X135685000Y-87520000I197500J0D01*
G01*
X136130000Y-87520000D01*
G75*
G02*
X136327500Y-87717500I0J-197500D01*
G01*
X136327500Y-88112500D01*
G75*
G02*
X136130000Y-88310000I-197500J0D01*
G01*
G37*
G36*
G01*
X136130000Y-89280000D02*
X135685000Y-89280000D01*
G75*
G02*
X135487500Y-89082500I0J197500D01*
G01*
X135487500Y-88687500D01*
G75*
G02*
X135685000Y-88490000I197500J0D01*
G01*
X136130000Y-88490000D01*
G75*
G02*
X136327500Y-88687500I0J-197500D01*
G01*
X136327500Y-89082500D01*
G75*
G02*
X136130000Y-89280000I-197500J0D01*
G01*
G37*
G36*
G01*
X149525000Y-83377500D02*
X149525000Y-83822500D01*
G75*
G02*
X149327500Y-84020000I-197500J0D01*
G01*
X148932500Y-84020000D01*
G75*
G02*
X148735000Y-83822500I0J197500D01*
G01*
X148735000Y-83377500D01*
G75*
G02*
X148932500Y-83180000I197500J0D01*
G01*
X149327500Y-83180000D01*
G75*
G02*
X149525000Y-83377500I0J-197500D01*
G01*
G37*
G36*
G01*
X150495000Y-83377500D02*
X150495000Y-83822500D01*
G75*
G02*
X150297500Y-84020000I-197500J0D01*
G01*
X149902500Y-84020000D01*
G75*
G02*
X149705000Y-83822500I0J197500D01*
G01*
X149705000Y-83377500D01*
G75*
G02*
X149902500Y-83180000I197500J0D01*
G01*
X150297500Y-83180000D01*
G75*
G02*
X150495000Y-83377500I0J-197500D01*
G01*
G37*
G36*
G01*
X143690000Y-107022500D02*
X143690000Y-106577500D01*
G75*
G02*
X143887500Y-106380000I197500J0D01*
G01*
X144282500Y-106380000D01*
G75*
G02*
X144480000Y-106577500I0J-197500D01*
G01*
X144480000Y-107022500D01*
G75*
G02*
X144282500Y-107220000I-197500J0D01*
G01*
X143887500Y-107220000D01*
G75*
G02*
X143690000Y-107022500I0J197500D01*
G01*
G37*
G36*
G01*
X142720000Y-107022500D02*
X142720000Y-106577500D01*
G75*
G02*
X142917500Y-106380000I197500J0D01*
G01*
X143312500Y-106380000D01*
G75*
G02*
X143510000Y-106577500I0J-197500D01*
G01*
X143510000Y-107022500D01*
G75*
G02*
X143312500Y-107220000I-197500J0D01*
G01*
X142917500Y-107220000D01*
G75*
G02*
X142720000Y-107022500I0J197500D01*
G01*
G37*
G36*
G01*
X142620000Y-122422500D02*
X142620000Y-121977500D01*
G75*
G02*
X142817500Y-121780000I197500J0D01*
G01*
X143212500Y-121780000D01*
G75*
G02*
X143410000Y-121977500I0J-197500D01*
G01*
X143410000Y-122422500D01*
G75*
G02*
X143212500Y-122620000I-197500J0D01*
G01*
X142817500Y-122620000D01*
G75*
G02*
X142620000Y-122422500I0J197500D01*
G01*
G37*
G36*
G01*
X143590000Y-122422500D02*
X143590000Y-121977500D01*
G75*
G02*
X143787500Y-121780000I197500J0D01*
G01*
X144182500Y-121780000D01*
G75*
G02*
X144380000Y-121977500I0J-197500D01*
G01*
X144380000Y-122422500D01*
G75*
G02*
X144182500Y-122620000I-197500J0D01*
G01*
X143787500Y-122620000D01*
G75*
G02*
X143590000Y-122422500I0J197500D01*
G01*
G37*
G36*
G01*
X141290000Y-83422500D02*
X141290000Y-82977500D01*
G75*
G02*
X141487500Y-82780000I197500J0D01*
G01*
X141882500Y-82780000D01*
G75*
G02*
X142080000Y-82977500I0J-197500D01*
G01*
X142080000Y-83422500D01*
G75*
G02*
X141882500Y-83620000I-197500J0D01*
G01*
X141487500Y-83620000D01*
G75*
G02*
X141290000Y-83422500I0J197500D01*
G01*
G37*
G36*
G01*
X140320000Y-83422500D02*
X140320000Y-82977500D01*
G75*
G02*
X140517500Y-82780000I197500J0D01*
G01*
X140912500Y-82780000D01*
G75*
G02*
X141110000Y-82977500I0J-197500D01*
G01*
X141110000Y-83422500D01*
G75*
G02*
X140912500Y-83620000I-197500J0D01*
G01*
X140517500Y-83620000D01*
G75*
G02*
X140320000Y-83422500I0J197500D01*
G01*
G37*
G36*
G01*
X140910000Y-97577500D02*
X140910000Y-98022500D01*
G75*
G02*
X140712500Y-98220000I-197500J0D01*
G01*
X140317500Y-98220000D01*
G75*
G02*
X140120000Y-98022500I0J197500D01*
G01*
X140120000Y-97577500D01*
G75*
G02*
X140317500Y-97380000I197500J0D01*
G01*
X140712500Y-97380000D01*
G75*
G02*
X140910000Y-97577500I0J-197500D01*
G01*
G37*
G36*
G01*
X141880000Y-97577500D02*
X141880000Y-98022500D01*
G75*
G02*
X141682500Y-98220000I-197500J0D01*
G01*
X141287500Y-98220000D01*
G75*
G02*
X141090000Y-98022500I0J197500D01*
G01*
X141090000Y-97577500D01*
G75*
G02*
X141287500Y-97380000I197500J0D01*
G01*
X141682500Y-97380000D01*
G75*
G02*
X141880000Y-97577500I0J-197500D01*
G01*
G37*
G36*
G01*
X141290000Y-82422500D02*
X141290000Y-81977500D01*
G75*
G02*
X141487500Y-81780000I197500J0D01*
G01*
X141882500Y-81780000D01*
G75*
G02*
X142080000Y-81977500I0J-197500D01*
G01*
X142080000Y-82422500D01*
G75*
G02*
X141882500Y-82620000I-197500J0D01*
G01*
X141487500Y-82620000D01*
G75*
G02*
X141290000Y-82422500I0J197500D01*
G01*
G37*
G36*
G01*
X140320000Y-82422500D02*
X140320000Y-81977500D01*
G75*
G02*
X140517500Y-81780000I197500J0D01*
G01*
X140912500Y-81780000D01*
G75*
G02*
X141110000Y-81977500I0J-197500D01*
G01*
X141110000Y-82422500D01*
G75*
G02*
X140912500Y-82620000I-197500J0D01*
G01*
X140517500Y-82620000D01*
G75*
G02*
X140320000Y-82422500I0J197500D01*
G01*
G37*
G36*
G01*
X140910000Y-98577500D02*
X140910000Y-99022500D01*
G75*
G02*
X140712500Y-99220000I-197500J0D01*
G01*
X140317500Y-99220000D01*
G75*
G02*
X140120000Y-99022500I0J197500D01*
G01*
X140120000Y-98577500D01*
G75*
G02*
X140317500Y-98380000I197500J0D01*
G01*
X140712500Y-98380000D01*
G75*
G02*
X140910000Y-98577500I0J-197500D01*
G01*
G37*
G36*
G01*
X141880000Y-98577500D02*
X141880000Y-99022500D01*
G75*
G02*
X141682500Y-99220000I-197500J0D01*
G01*
X141287500Y-99220000D01*
G75*
G02*
X141090000Y-99022500I0J197500D01*
G01*
X141090000Y-98577500D01*
G75*
G02*
X141287500Y-98380000I197500J0D01*
G01*
X141682500Y-98380000D01*
G75*
G02*
X141880000Y-98577500I0J-197500D01*
G01*
G37*
G36*
G01*
X160777500Y-110590000D02*
X161222500Y-110590000D01*
G75*
G02*
X161420000Y-110787500I0J-197500D01*
G01*
X161420000Y-111182500D01*
G75*
G02*
X161222500Y-111380000I-197500J0D01*
G01*
X160777500Y-111380000D01*
G75*
G02*
X160580000Y-111182500I0J197500D01*
G01*
X160580000Y-110787500D01*
G75*
G02*
X160777500Y-110590000I197500J0D01*
G01*
G37*
G36*
G01*
X160777500Y-109620000D02*
X161222500Y-109620000D01*
G75*
G02*
X161420000Y-109817500I0J-197500D01*
G01*
X161420000Y-110212500D01*
G75*
G02*
X161222500Y-110410000I-197500J0D01*
G01*
X160777500Y-110410000D01*
G75*
G02*
X160580000Y-110212500I0J197500D01*
G01*
X160580000Y-109817500D01*
G75*
G02*
X160777500Y-109620000I197500J0D01*
G01*
G37*
G36*
G01*
X159802500Y-110590000D02*
X160247500Y-110590000D01*
G75*
G02*
X160445000Y-110787500I0J-197500D01*
G01*
X160445000Y-111182500D01*
G75*
G02*
X160247500Y-111380000I-197500J0D01*
G01*
X159802500Y-111380000D01*
G75*
G02*
X159605000Y-111182500I0J197500D01*
G01*
X159605000Y-110787500D01*
G75*
G02*
X159802500Y-110590000I197500J0D01*
G01*
G37*
G36*
G01*
X159802500Y-109620000D02*
X160247500Y-109620000D01*
G75*
G02*
X160445000Y-109817500I0J-197500D01*
G01*
X160445000Y-110212500D01*
G75*
G02*
X160247500Y-110410000I-197500J0D01*
G01*
X159802500Y-110410000D01*
G75*
G02*
X159605000Y-110212500I0J197500D01*
G01*
X159605000Y-109817500D01*
G75*
G02*
X159802500Y-109620000I197500J0D01*
G01*
G37*
G36*
G01*
X152622500Y-85780000D02*
X152177500Y-85780000D01*
G75*
G02*
X151980000Y-85582500I0J197500D01*
G01*
X151980000Y-85187500D01*
G75*
G02*
X152177500Y-84990000I197500J0D01*
G01*
X152622500Y-84990000D01*
G75*
G02*
X152820000Y-85187500I0J-197500D01*
G01*
X152820000Y-85582500D01*
G75*
G02*
X152622500Y-85780000I-197500J0D01*
G01*
G37*
G36*
G01*
X152622500Y-84810000D02*
X152177500Y-84810000D01*
G75*
G02*
X151980000Y-84612500I0J197500D01*
G01*
X151980000Y-84217500D01*
G75*
G02*
X152177500Y-84020000I197500J0D01*
G01*
X152622500Y-84020000D01*
G75*
G02*
X152820000Y-84217500I0J-197500D01*
G01*
X152820000Y-84612500D01*
G75*
G02*
X152622500Y-84810000I-197500J0D01*
G01*
G37*
G36*
G01*
X137130000Y-88310000D02*
X136685000Y-88310000D01*
G75*
G02*
X136487500Y-88112500I0J197500D01*
G01*
X136487500Y-87717500D01*
G75*
G02*
X136685000Y-87520000I197500J0D01*
G01*
X137130000Y-87520000D01*
G75*
G02*
X137327500Y-87717500I0J-197500D01*
G01*
X137327500Y-88112500D01*
G75*
G02*
X137130000Y-88310000I-197500J0D01*
G01*
G37*
G36*
G01*
X137130000Y-89280000D02*
X136685000Y-89280000D01*
G75*
G02*
X136487500Y-89082500I0J197500D01*
G01*
X136487500Y-88687500D01*
G75*
G02*
X136685000Y-88490000I197500J0D01*
G01*
X137130000Y-88490000D01*
G75*
G02*
X137327500Y-88687500I0J-197500D01*
G01*
X137327500Y-89082500D01*
G75*
G02*
X137130000Y-89280000I-197500J0D01*
G01*
G37*
G36*
G01*
X145922500Y-113410000D02*
X145477500Y-113410000D01*
G75*
G02*
X145280000Y-113212500I0J197500D01*
G01*
X145280000Y-112817500D01*
G75*
G02*
X145477500Y-112620000I197500J0D01*
G01*
X145922500Y-112620000D01*
G75*
G02*
X146120000Y-112817500I0J-197500D01*
G01*
X146120000Y-113212500D01*
G75*
G02*
X145922500Y-113410000I-197500J0D01*
G01*
G37*
G36*
G01*
X145922500Y-114380000D02*
X145477500Y-114380000D01*
G75*
G02*
X145280000Y-114182500I0J197500D01*
G01*
X145280000Y-113787500D01*
G75*
G02*
X145477500Y-113590000I197500J0D01*
G01*
X145922500Y-113590000D01*
G75*
G02*
X146120000Y-113787500I0J-197500D01*
G01*
X146120000Y-114182500D01*
G75*
G02*
X145922500Y-114380000I-197500J0D01*
G01*
G37*
G36*
G01*
X147577500Y-82890000D02*
X148022500Y-82890000D01*
G75*
G02*
X148220000Y-83087500I0J-197500D01*
G01*
X148220000Y-83482500D01*
G75*
G02*
X148022500Y-83680000I-197500J0D01*
G01*
X147577500Y-83680000D01*
G75*
G02*
X147380000Y-83482500I0J197500D01*
G01*
X147380000Y-83087500D01*
G75*
G02*
X147577500Y-82890000I197500J0D01*
G01*
G37*
G36*
G01*
X147577500Y-81920000D02*
X148022500Y-81920000D01*
G75*
G02*
X148220000Y-82117500I0J-197500D01*
G01*
X148220000Y-82512500D01*
G75*
G02*
X148022500Y-82710000I-197500J0D01*
G01*
X147577500Y-82710000D01*
G75*
G02*
X147380000Y-82512500I0J197500D01*
G01*
X147380000Y-82117500D01*
G75*
G02*
X147577500Y-81920000I197500J0D01*
G01*
G37*
G36*
G01*
X152210000Y-94077500D02*
X152210000Y-94522500D01*
G75*
G02*
X152012500Y-94720000I-197500J0D01*
G01*
X151617500Y-94720000D01*
G75*
G02*
X151420000Y-94522500I0J197500D01*
G01*
X151420000Y-94077500D01*
G75*
G02*
X151617500Y-93880000I197500J0D01*
G01*
X152012500Y-93880000D01*
G75*
G02*
X152210000Y-94077500I0J-197500D01*
G01*
G37*
G36*
G01*
X153180000Y-94077500D02*
X153180000Y-94522500D01*
G75*
G02*
X152982500Y-94720000I-197500J0D01*
G01*
X152587500Y-94720000D01*
G75*
G02*
X152390000Y-94522500I0J197500D01*
G01*
X152390000Y-94077500D01*
G75*
G02*
X152587500Y-93880000I197500J0D01*
G01*
X152982500Y-93880000D01*
G75*
G02*
X153180000Y-94077500I0J-197500D01*
G01*
G37*
G36*
G01*
X134090000Y-122922500D02*
X134090000Y-122477500D01*
G75*
G02*
X134287500Y-122280000I197500J0D01*
G01*
X134682500Y-122280000D01*
G75*
G02*
X134880000Y-122477500I0J-197500D01*
G01*
X134880000Y-122922500D01*
G75*
G02*
X134682500Y-123120000I-197500J0D01*
G01*
X134287500Y-123120000D01*
G75*
G02*
X134090000Y-122922500I0J197500D01*
G01*
G37*
G36*
G01*
X133120000Y-122922500D02*
X133120000Y-122477500D01*
G75*
G02*
X133317500Y-122280000I197500J0D01*
G01*
X133712500Y-122280000D01*
G75*
G02*
X133910000Y-122477500I0J-197500D01*
G01*
X133910000Y-122922500D01*
G75*
G02*
X133712500Y-123120000I-197500J0D01*
G01*
X133317500Y-123120000D01*
G75*
G02*
X133120000Y-122922500I0J197500D01*
G01*
G37*
G36*
G01*
X131820000Y-112222500D02*
X131820000Y-111777500D01*
G75*
G02*
X132017500Y-111580000I197500J0D01*
G01*
X132412500Y-111580000D01*
G75*
G02*
X132610000Y-111777500I0J-197500D01*
G01*
X132610000Y-112222500D01*
G75*
G02*
X132412500Y-112420000I-197500J0D01*
G01*
X132017500Y-112420000D01*
G75*
G02*
X131820000Y-112222500I0J197500D01*
G01*
G37*
G36*
G01*
X132790000Y-112222500D02*
X132790000Y-111777500D01*
G75*
G02*
X132987500Y-111580000I197500J0D01*
G01*
X133382500Y-111580000D01*
G75*
G02*
X133580000Y-111777500I0J-197500D01*
G01*
X133580000Y-112222500D01*
G75*
G02*
X133382500Y-112420000I-197500J0D01*
G01*
X132987500Y-112420000D01*
G75*
G02*
X132790000Y-112222500I0J197500D01*
G01*
G37*
G36*
G01*
X136477500Y-95290000D02*
X136922500Y-95290000D01*
G75*
G02*
X137120000Y-95487500I0J-197500D01*
G01*
X137120000Y-95882500D01*
G75*
G02*
X136922500Y-96080000I-197500J0D01*
G01*
X136477500Y-96080000D01*
G75*
G02*
X136280000Y-95882500I0J197500D01*
G01*
X136280000Y-95487500D01*
G75*
G02*
X136477500Y-95290000I197500J0D01*
G01*
G37*
G36*
G01*
X136477500Y-94320000D02*
X136922500Y-94320000D01*
G75*
G02*
X137120000Y-94517500I0J-197500D01*
G01*
X137120000Y-94912500D01*
G75*
G02*
X136922500Y-95110000I-197500J0D01*
G01*
X136477500Y-95110000D01*
G75*
G02*
X136280000Y-94912500I0J197500D01*
G01*
X136280000Y-94517500D01*
G75*
G02*
X136477500Y-94320000I197500J0D01*
G01*
G37*
G36*
G01*
X133390000Y-106422500D02*
X133390000Y-105977500D01*
G75*
G02*
X133587500Y-105780000I197500J0D01*
G01*
X133982500Y-105780000D01*
G75*
G02*
X134180000Y-105977500I0J-197500D01*
G01*
X134180000Y-106422500D01*
G75*
G02*
X133982500Y-106620000I-197500J0D01*
G01*
X133587500Y-106620000D01*
G75*
G02*
X133390000Y-106422500I0J197500D01*
G01*
G37*
G36*
G01*
X132420000Y-106422500D02*
X132420000Y-105977500D01*
G75*
G02*
X132617500Y-105780000I197500J0D01*
G01*
X133012500Y-105780000D01*
G75*
G02*
X133210000Y-105977500I0J-197500D01*
G01*
X133210000Y-106422500D01*
G75*
G02*
X133012500Y-106620000I-197500J0D01*
G01*
X132617500Y-106620000D01*
G75*
G02*
X132420000Y-106422500I0J197500D01*
G01*
G37*
G36*
G01*
X136922500Y-92210000D02*
X136477500Y-92210000D01*
G75*
G02*
X136280000Y-92012500I0J197500D01*
G01*
X136280000Y-91617500D01*
G75*
G02*
X136477500Y-91420000I197500J0D01*
G01*
X136922500Y-91420000D01*
G75*
G02*
X137120000Y-91617500I0J-197500D01*
G01*
X137120000Y-92012500D01*
G75*
G02*
X136922500Y-92210000I-197500J0D01*
G01*
G37*
G36*
G01*
X136922500Y-93180000D02*
X136477500Y-93180000D01*
G75*
G02*
X136280000Y-92982500I0J197500D01*
G01*
X136280000Y-92587500D01*
G75*
G02*
X136477500Y-92390000I197500J0D01*
G01*
X136922500Y-92390000D01*
G75*
G02*
X137120000Y-92587500I0J-197500D01*
G01*
X137120000Y-92982500D01*
G75*
G02*
X136922500Y-93180000I-197500J0D01*
G01*
G37*
G36*
G01*
X143690000Y-106022500D02*
X143690000Y-105577500D01*
G75*
G02*
X143887500Y-105380000I197500J0D01*
G01*
X144282500Y-105380000D01*
G75*
G02*
X144480000Y-105577500I0J-197500D01*
G01*
X144480000Y-106022500D01*
G75*
G02*
X144282500Y-106220000I-197500J0D01*
G01*
X143887500Y-106220000D01*
G75*
G02*
X143690000Y-106022500I0J197500D01*
G01*
G37*
G36*
G01*
X142720000Y-106022500D02*
X142720000Y-105577500D01*
G75*
G02*
X142917500Y-105380000I197500J0D01*
G01*
X143312500Y-105380000D01*
G75*
G02*
X143510000Y-105577500I0J-197500D01*
G01*
X143510000Y-106022500D01*
G75*
G02*
X143312500Y-106220000I-197500J0D01*
G01*
X142917500Y-106220000D01*
G75*
G02*
X142720000Y-106022500I0J197500D01*
G01*
G37*
G36*
G01*
X135895000Y-106577500D02*
X135895000Y-107022500D01*
G75*
G02*
X135697500Y-107220000I-197500J0D01*
G01*
X135302500Y-107220000D01*
G75*
G02*
X135105000Y-107022500I0J197500D01*
G01*
X135105000Y-106577500D01*
G75*
G02*
X135302500Y-106380000I197500J0D01*
G01*
X135697500Y-106380000D01*
G75*
G02*
X135895000Y-106577500I0J-197500D01*
G01*
G37*
G36*
G01*
X136865000Y-106577500D02*
X136865000Y-107022500D01*
G75*
G02*
X136667500Y-107220000I-197500J0D01*
G01*
X136272500Y-107220000D01*
G75*
G02*
X136075000Y-107022500I0J197500D01*
G01*
X136075000Y-106577500D01*
G75*
G02*
X136272500Y-106380000I197500J0D01*
G01*
X136667500Y-106380000D01*
G75*
G02*
X136865000Y-106577500I0J-197500D01*
G01*
G37*
G36*
G01*
X149525000Y-84377500D02*
X149525000Y-84822500D01*
G75*
G02*
X149327500Y-85020000I-197500J0D01*
G01*
X148932500Y-85020000D01*
G75*
G02*
X148735000Y-84822500I0J197500D01*
G01*
X148735000Y-84377500D01*
G75*
G02*
X148932500Y-84180000I197500J0D01*
G01*
X149327500Y-84180000D01*
G75*
G02*
X149525000Y-84377500I0J-197500D01*
G01*
G37*
G36*
G01*
X150495000Y-84377500D02*
X150495000Y-84822500D01*
G75*
G02*
X150297500Y-85020000I-197500J0D01*
G01*
X149902500Y-85020000D01*
G75*
G02*
X149705000Y-84822500I0J197500D01*
G01*
X149705000Y-84377500D01*
G75*
G02*
X149902500Y-84180000I197500J0D01*
G01*
X150297500Y-84180000D01*
G75*
G02*
X150495000Y-84377500I0J-197500D01*
G01*
G37*
G36*
G01*
X150622500Y-95660000D02*
X150177500Y-95660000D01*
G75*
G02*
X149980000Y-95462500I0J197500D01*
G01*
X149980000Y-95067500D01*
G75*
G02*
X150177500Y-94870000I197500J0D01*
G01*
X150622500Y-94870000D01*
G75*
G02*
X150820000Y-95067500I0J-197500D01*
G01*
X150820000Y-95462500D01*
G75*
G02*
X150622500Y-95660000I-197500J0D01*
G01*
G37*
G36*
G01*
X150622500Y-96630000D02*
X150177500Y-96630000D01*
G75*
G02*
X149980000Y-96432500I0J197500D01*
G01*
X149980000Y-96037500D01*
G75*
G02*
X150177500Y-95840000I197500J0D01*
G01*
X150622500Y-95840000D01*
G75*
G02*
X150820000Y-96037500I0J-197500D01*
G01*
X150820000Y-96432500D01*
G75*
G02*
X150622500Y-96630000I-197500J0D01*
G01*
G37*
G36*
G01*
X151622500Y-95660000D02*
X151177500Y-95660000D01*
G75*
G02*
X150980000Y-95462500I0J197500D01*
G01*
X150980000Y-95067500D01*
G75*
G02*
X151177500Y-94870000I197500J0D01*
G01*
X151622500Y-94870000D01*
G75*
G02*
X151820000Y-95067500I0J-197500D01*
G01*
X151820000Y-95462500D01*
G75*
G02*
X151622500Y-95660000I-197500J0D01*
G01*
G37*
G36*
G01*
X151622500Y-96630000D02*
X151177500Y-96630000D01*
G75*
G02*
X150980000Y-96432500I0J197500D01*
G01*
X150980000Y-96037500D01*
G75*
G02*
X151177500Y-95840000I197500J0D01*
G01*
X151622500Y-95840000D01*
G75*
G02*
X151820000Y-96037500I0J-197500D01*
G01*
X151820000Y-96432500D01*
G75*
G02*
X151622500Y-96630000I-197500J0D01*
G01*
G37*
G36*
G01*
X136410000Y-121977500D02*
X136410000Y-122422500D01*
G75*
G02*
X136212500Y-122620000I-197500J0D01*
G01*
X135817500Y-122620000D01*
G75*
G02*
X135620000Y-122422500I0J197500D01*
G01*
X135620000Y-121977500D01*
G75*
G02*
X135817500Y-121780000I197500J0D01*
G01*
X136212500Y-121780000D01*
G75*
G02*
X136410000Y-121977500I0J-197500D01*
G01*
G37*
G36*
G01*
X137380000Y-121977500D02*
X137380000Y-122422500D01*
G75*
G02*
X137182500Y-122620000I-197500J0D01*
G01*
X136787500Y-122620000D01*
G75*
G02*
X136590000Y-122422500I0J197500D01*
G01*
X136590000Y-121977500D01*
G75*
G02*
X136787500Y-121780000I197500J0D01*
G01*
X137182500Y-121780000D01*
G75*
G02*
X137380000Y-121977500I0J-197500D01*
G01*
G37*
G36*
G01*
X166244231Y-108230000D02*
X165655769Y-108230000D01*
G75*
G02*
X165525000Y-108099231I0J130769D01*
G01*
X165525000Y-107100769D01*
G75*
G02*
X165655769Y-106970000I130769J0D01*
G01*
X166244231Y-106970000D01*
G75*
G02*
X166375000Y-107100769I0J-130769D01*
G01*
X166375000Y-108099231D01*
G75*
G02*
X166244231Y-108230000I-130769J0D01*
G01*
G37*
G36*
G01*
X165294231Y-108230000D02*
X164705769Y-108230000D01*
G75*
G02*
X164575000Y-108099231I0J130769D01*
G01*
X164575000Y-107100769D01*
G75*
G02*
X164705769Y-106970000I130769J0D01*
G01*
X165294231Y-106970000D01*
G75*
G02*
X165425000Y-107100769I0J-130769D01*
G01*
X165425000Y-108099231D01*
G75*
G02*
X165294231Y-108230000I-130769J0D01*
G01*
G37*
G36*
G01*
X164344231Y-108230000D02*
X163755769Y-108230000D01*
G75*
G02*
X163625000Y-108099231I0J130769D01*
G01*
X163625000Y-107100769D01*
G75*
G02*
X163755769Y-106970000I130769J0D01*
G01*
X164344231Y-106970000D01*
G75*
G02*
X164475000Y-107100769I0J-130769D01*
G01*
X164475000Y-108099231D01*
G75*
G02*
X164344231Y-108230000I-130769J0D01*
G01*
G37*
G36*
G01*
X164344231Y-106030000D02*
X163755769Y-106030000D01*
G75*
G02*
X163625000Y-105899231I0J130769D01*
G01*
X163625000Y-104900769D01*
G75*
G02*
X163755769Y-104770000I130769J0D01*
G01*
X164344231Y-104770000D01*
G75*
G02*
X164475000Y-104900769I0J-130769D01*
G01*
X164475000Y-105899231D01*
G75*
G02*
X164344231Y-106030000I-130769J0D01*
G01*
G37*
G36*
G01*
X166244231Y-106030000D02*
X165655769Y-106030000D01*
G75*
G02*
X165525000Y-105899231I0J130769D01*
G01*
X165525000Y-104900769D01*
G75*
G02*
X165655769Y-104770000I130769J0D01*
G01*
X166244231Y-104770000D01*
G75*
G02*
X166375000Y-104900769I0J-130769D01*
G01*
X166375000Y-105899231D01*
G75*
G02*
X166244231Y-106030000I-130769J0D01*
G01*
G37*
G36*
G01*
X159125000Y-84144444D02*
X159125000Y-84505556D01*
G75*
G02*
X158980556Y-84650000I-144444J0D01*
G01*
X157619444Y-84650000D01*
G75*
G02*
X157475000Y-84505556I0J144444D01*
G01*
X157475000Y-84144444D01*
G75*
G02*
X157619444Y-84000000I144444J0D01*
G01*
X158980556Y-84000000D01*
G75*
G02*
X159125000Y-84144444I0J-144444D01*
G01*
G37*
G36*
G01*
X159125000Y-84794444D02*
X159125000Y-85155556D01*
G75*
G02*
X158980556Y-85300000I-144444J0D01*
G01*
X157619444Y-85300000D01*
G75*
G02*
X157475000Y-85155556I0J144444D01*
G01*
X157475000Y-84794444D01*
G75*
G02*
X157619444Y-84650000I144444J0D01*
G01*
X158980556Y-84650000D01*
G75*
G02*
X159125000Y-84794444I0J-144444D01*
G01*
G37*
G36*
G01*
X159125000Y-85444444D02*
X159125000Y-85805556D01*
G75*
G02*
X158980556Y-85950000I-144444J0D01*
G01*
X157619444Y-85950000D01*
G75*
G02*
X157475000Y-85805556I0J144444D01*
G01*
X157475000Y-85444444D01*
G75*
G02*
X157619444Y-85300000I144444J0D01*
G01*
X158980556Y-85300000D01*
G75*
G02*
X159125000Y-85444444I0J-144444D01*
G01*
G37*
G36*
G01*
X159125000Y-86094444D02*
X159125000Y-86455556D01*
G75*
G02*
X158980556Y-86600000I-144444J0D01*
G01*
X157619444Y-86600000D01*
G75*
G02*
X157475000Y-86455556I0J144444D01*
G01*
X157475000Y-86094444D01*
G75*
G02*
X157619444Y-85950000I144444J0D01*
G01*
X158980556Y-85950000D01*
G75*
G02*
X159125000Y-86094444I0J-144444D01*
G01*
G37*
G36*
G01*
X154725000Y-86094444D02*
X154725000Y-86455556D01*
G75*
G02*
X154580556Y-86600000I-144444J0D01*
G01*
X153219444Y-86600000D01*
G75*
G02*
X153075000Y-86455556I0J144444D01*
G01*
X153075000Y-86094444D01*
G75*
G02*
X153219444Y-85950000I144444J0D01*
G01*
X154580556Y-85950000D01*
G75*
G02*
X154725000Y-86094444I0J-144444D01*
G01*
G37*
G36*
G01*
X154725000Y-85444444D02*
X154725000Y-85805556D01*
G75*
G02*
X154580556Y-85950000I-144444J0D01*
G01*
X153219444Y-85950000D01*
G75*
G02*
X153075000Y-85805556I0J144444D01*
G01*
X153075000Y-85444444D01*
G75*
G02*
X153219444Y-85300000I144444J0D01*
G01*
X154580556Y-85300000D01*
G75*
G02*
X154725000Y-85444444I0J-144444D01*
G01*
G37*
G36*
G01*
X154725000Y-84794444D02*
X154725000Y-85155556D01*
G75*
G02*
X154580556Y-85300000I-144444J0D01*
G01*
X153219444Y-85300000D01*
G75*
G02*
X153075000Y-85155556I0J144444D01*
G01*
X153075000Y-84794444D01*
G75*
G02*
X153219444Y-84650000I144444J0D01*
G01*
X154580556Y-84650000D01*
G75*
G02*
X154725000Y-84794444I0J-144444D01*
G01*
G37*
G36*
G01*
X154725000Y-84144444D02*
X154725000Y-84505556D01*
G75*
G02*
X154580556Y-84650000I-144444J0D01*
G01*
X153219444Y-84650000D01*
G75*
G02*
X153075000Y-84505556I0J144444D01*
G01*
X153075000Y-84144444D01*
G75*
G02*
X153219444Y-84000000I144444J0D01*
G01*
X154580556Y-84000000D01*
G75*
G02*
X154725000Y-84144444I0J-144444D01*
G01*
G37*
G36*
G01*
X163800000Y-110995000D02*
X163800000Y-111395000D01*
G75*
G02*
X163600000Y-111595000I-200000J0D01*
G01*
X161850000Y-111595000D01*
G75*
G02*
X161650000Y-111395000I0J200000D01*
G01*
X161650000Y-110995000D01*
G75*
G02*
X161850000Y-110795000I200000J0D01*
G01*
X163600000Y-110795000D01*
G75*
G02*
X163800000Y-110995000I0J-200000D01*
G01*
G37*
G36*
G01*
X163800000Y-112265000D02*
X163800000Y-112665000D01*
G75*
G02*
X163600000Y-112865000I-200000J0D01*
G01*
X161850000Y-112865000D01*
G75*
G02*
X161650000Y-112665000I0J200000D01*
G01*
X161650000Y-112265000D01*
G75*
G02*
X161850000Y-112065000I200000J0D01*
G01*
X163600000Y-112065000D01*
G75*
G02*
X163800000Y-112265000I0J-200000D01*
G01*
G37*
G36*
G01*
X163800000Y-113535000D02*
X163800000Y-113935000D01*
G75*
G02*
X163600000Y-114135000I-200000J0D01*
G01*
X161850000Y-114135000D01*
G75*
G02*
X161650000Y-113935000I0J200000D01*
G01*
X161650000Y-113535000D01*
G75*
G02*
X161850000Y-113335000I200000J0D01*
G01*
X163600000Y-113335000D01*
G75*
G02*
X163800000Y-113535000I0J-200000D01*
G01*
G37*
G36*
G01*
X163800000Y-114805000D02*
X163800000Y-115205000D01*
G75*
G02*
X163600000Y-115405000I-200000J0D01*
G01*
X161850000Y-115405000D01*
G75*
G02*
X161650000Y-115205000I0J200000D01*
G01*
X161650000Y-114805000D01*
G75*
G02*
X161850000Y-114605000I200000J0D01*
G01*
X163600000Y-114605000D01*
G75*
G02*
X163800000Y-114805000I0J-200000D01*
G01*
G37*
G36*
G01*
X168750000Y-114805000D02*
X168750000Y-115205000D01*
G75*
G02*
X168550000Y-115405000I-200000J0D01*
G01*
X166800000Y-115405000D01*
G75*
G02*
X166600000Y-115205000I0J200000D01*
G01*
X166600000Y-114805000D01*
G75*
G02*
X166800000Y-114605000I200000J0D01*
G01*
X168550000Y-114605000D01*
G75*
G02*
X168750000Y-114805000I0J-200000D01*
G01*
G37*
G36*
G01*
X168750000Y-113535000D02*
X168750000Y-113935000D01*
G75*
G02*
X168550000Y-114135000I-200000J0D01*
G01*
X166800000Y-114135000D01*
G75*
G02*
X166600000Y-113935000I0J200000D01*
G01*
X166600000Y-113535000D01*
G75*
G02*
X166800000Y-113335000I200000J0D01*
G01*
X168550000Y-113335000D01*
G75*
G02*
X168750000Y-113535000I0J-200000D01*
G01*
G37*
G36*
G01*
X168750000Y-112265000D02*
X168750000Y-112665000D01*
G75*
G02*
X168550000Y-112865000I-200000J0D01*
G01*
X166800000Y-112865000D01*
G75*
G02*
X166600000Y-112665000I0J200000D01*
G01*
X166600000Y-112265000D01*
G75*
G02*
X166800000Y-112065000I200000J0D01*
G01*
X168550000Y-112065000D01*
G75*
G02*
X168750000Y-112265000I0J-200000D01*
G01*
G37*
G36*
G01*
X168750000Y-110995000D02*
X168750000Y-111395000D01*
G75*
G02*
X168550000Y-111595000I-200000J0D01*
G01*
X166800000Y-111595000D01*
G75*
G02*
X166600000Y-111395000I0J200000D01*
G01*
X166600000Y-110995000D01*
G75*
G02*
X166800000Y-110795000I200000J0D01*
G01*
X168550000Y-110795000D01*
G75*
G02*
X168750000Y-110995000I0J-200000D01*
G01*
G37*
G36*
G01*
X142250000Y-110354651D02*
X142250000Y-118645349D01*
G75*
G02*
X142145349Y-118750000I-104651J0D01*
G01*
X137854651Y-118750000D01*
G75*
G02*
X137750000Y-118645349I0J104651D01*
G01*
X137750000Y-110354651D01*
G75*
G02*
X137854651Y-110250000I104651J0D01*
G01*
X142145349Y-110250000D01*
G75*
G02*
X142250000Y-110354651I0J-104651D01*
G01*
G37*
G36*
G01*
X136883333Y-108082500D02*
X135116667Y-108082500D01*
G75*
G02*
X134950000Y-107915833I0J166667D01*
G01*
X134950000Y-107749167D01*
G75*
G02*
X135116667Y-107582500I166667J0D01*
G01*
X136883333Y-107582500D01*
G75*
G02*
X137050000Y-107749167I0J-166667D01*
G01*
X137050000Y-107915833D01*
G75*
G02*
X136883333Y-108082500I-166667J0D01*
G01*
G37*
G36*
G01*
X136883333Y-108717500D02*
X135116667Y-108717500D01*
G75*
G02*
X134950000Y-108550833I0J166667D01*
G01*
X134950000Y-108384167D01*
G75*
G02*
X135116667Y-108217500I166667J0D01*
G01*
X136883333Y-108217500D01*
G75*
G02*
X137050000Y-108384167I0J-166667D01*
G01*
X137050000Y-108550833D01*
G75*
G02*
X136883333Y-108717500I-166667J0D01*
G01*
G37*
G36*
G01*
X136883333Y-109352500D02*
X135116667Y-109352500D01*
G75*
G02*
X134950000Y-109185833I0J166667D01*
G01*
X134950000Y-109019167D01*
G75*
G02*
X135116667Y-108852500I166667J0D01*
G01*
X136883333Y-108852500D01*
G75*
G02*
X137050000Y-109019167I0J-166667D01*
G01*
X137050000Y-109185833D01*
G75*
G02*
X136883333Y-109352500I-166667J0D01*
G01*
G37*
G36*
G01*
X136883333Y-109987500D02*
X135116667Y-109987500D01*
G75*
G02*
X134950000Y-109820833I0J166667D01*
G01*
X134950000Y-109654167D01*
G75*
G02*
X135116667Y-109487500I166667J0D01*
G01*
X136883333Y-109487500D01*
G75*
G02*
X137050000Y-109654167I0J-166667D01*
G01*
X137050000Y-109820833D01*
G75*
G02*
X136883333Y-109987500I-166667J0D01*
G01*
G37*
G36*
G01*
X136883333Y-110622500D02*
X135116667Y-110622500D01*
G75*
G02*
X134950000Y-110455833I0J166667D01*
G01*
X134950000Y-110289167D01*
G75*
G02*
X135116667Y-110122500I166667J0D01*
G01*
X136883333Y-110122500D01*
G75*
G02*
X137050000Y-110289167I0J-166667D01*
G01*
X137050000Y-110455833D01*
G75*
G02*
X136883333Y-110622500I-166667J0D01*
G01*
G37*
G36*
G01*
X136883333Y-111257500D02*
X135116667Y-111257500D01*
G75*
G02*
X134950000Y-111090833I0J166667D01*
G01*
X134950000Y-110924167D01*
G75*
G02*
X135116667Y-110757500I166667J0D01*
G01*
X136883333Y-110757500D01*
G75*
G02*
X137050000Y-110924167I0J-166667D01*
G01*
X137050000Y-111090833D01*
G75*
G02*
X136883333Y-111257500I-166667J0D01*
G01*
G37*
G36*
G01*
X136883333Y-111892500D02*
X135116667Y-111892500D01*
G75*
G02*
X134950000Y-111725833I0J166667D01*
G01*
X134950000Y-111559167D01*
G75*
G02*
X135116667Y-111392500I166667J0D01*
G01*
X136883333Y-111392500D01*
G75*
G02*
X137050000Y-111559167I0J-166667D01*
G01*
X137050000Y-111725833D01*
G75*
G02*
X136883333Y-111892500I-166667J0D01*
G01*
G37*
G36*
G01*
X136883333Y-112527500D02*
X135116667Y-112527500D01*
G75*
G02*
X134950000Y-112360833I0J166667D01*
G01*
X134950000Y-112194167D01*
G75*
G02*
X135116667Y-112027500I166667J0D01*
G01*
X136883333Y-112027500D01*
G75*
G02*
X137050000Y-112194167I0J-166667D01*
G01*
X137050000Y-112360833D01*
G75*
G02*
X136883333Y-112527500I-166667J0D01*
G01*
G37*
G36*
G01*
X136883333Y-113162500D02*
X135116667Y-113162500D01*
G75*
G02*
X134950000Y-112995833I0J166667D01*
G01*
X134950000Y-112829167D01*
G75*
G02*
X135116667Y-112662500I166667J0D01*
G01*
X136883333Y-112662500D01*
G75*
G02*
X137050000Y-112829167I0J-166667D01*
G01*
X137050000Y-112995833D01*
G75*
G02*
X136883333Y-113162500I-166667J0D01*
G01*
G37*
G36*
G01*
X136883333Y-113797500D02*
X135116667Y-113797500D01*
G75*
G02*
X134950000Y-113630833I0J166667D01*
G01*
X134950000Y-113464167D01*
G75*
G02*
X135116667Y-113297500I166667J0D01*
G01*
X136883333Y-113297500D01*
G75*
G02*
X137050000Y-113464167I0J-166667D01*
G01*
X137050000Y-113630833D01*
G75*
G02*
X136883333Y-113797500I-166667J0D01*
G01*
G37*
G36*
G01*
X136883333Y-114432500D02*
X135116667Y-114432500D01*
G75*
G02*
X134950000Y-114265833I0J166667D01*
G01*
X134950000Y-114099167D01*
G75*
G02*
X135116667Y-113932500I166667J0D01*
G01*
X136883333Y-113932500D01*
G75*
G02*
X137050000Y-114099167I0J-166667D01*
G01*
X137050000Y-114265833D01*
G75*
G02*
X136883333Y-114432500I-166667J0D01*
G01*
G37*
G36*
G01*
X136883333Y-115067500D02*
X135116667Y-115067500D01*
G75*
G02*
X134950000Y-114900833I0J166667D01*
G01*
X134950000Y-114734167D01*
G75*
G02*
X135116667Y-114567500I166667J0D01*
G01*
X136883333Y-114567500D01*
G75*
G02*
X137050000Y-114734167I0J-166667D01*
G01*
X137050000Y-114900833D01*
G75*
G02*
X136883333Y-115067500I-166667J0D01*
G01*
G37*
G36*
G01*
X136883333Y-115702500D02*
X135116667Y-115702500D01*
G75*
G02*
X134950000Y-115535833I0J166667D01*
G01*
X134950000Y-115369167D01*
G75*
G02*
X135116667Y-115202500I166667J0D01*
G01*
X136883333Y-115202500D01*
G75*
G02*
X137050000Y-115369167I0J-166667D01*
G01*
X137050000Y-115535833D01*
G75*
G02*
X136883333Y-115702500I-166667J0D01*
G01*
G37*
G36*
G01*
X136883333Y-116337500D02*
X135116667Y-116337500D01*
G75*
G02*
X134950000Y-116170833I0J166667D01*
G01*
X134950000Y-116004167D01*
G75*
G02*
X135116667Y-115837500I166667J0D01*
G01*
X136883333Y-115837500D01*
G75*
G02*
X137050000Y-116004167I0J-166667D01*
G01*
X137050000Y-116170833D01*
G75*
G02*
X136883333Y-116337500I-166667J0D01*
G01*
G37*
G36*
G01*
X136883333Y-116972500D02*
X135116667Y-116972500D01*
G75*
G02*
X134950000Y-116805833I0J166667D01*
G01*
X134950000Y-116639167D01*
G75*
G02*
X135116667Y-116472500I166667J0D01*
G01*
X136883333Y-116472500D01*
G75*
G02*
X137050000Y-116639167I0J-166667D01*
G01*
X137050000Y-116805833D01*
G75*
G02*
X136883333Y-116972500I-166667J0D01*
G01*
G37*
G36*
G01*
X136883333Y-117607500D02*
X135116667Y-117607500D01*
G75*
G02*
X134950000Y-117440833I0J166667D01*
G01*
X134950000Y-117274167D01*
G75*
G02*
X135116667Y-117107500I166667J0D01*
G01*
X136883333Y-117107500D01*
G75*
G02*
X137050000Y-117274167I0J-166667D01*
G01*
X137050000Y-117440833D01*
G75*
G02*
X136883333Y-117607500I-166667J0D01*
G01*
G37*
G36*
G01*
X136883333Y-118242500D02*
X135116667Y-118242500D01*
G75*
G02*
X134950000Y-118075833I0J166667D01*
G01*
X134950000Y-117909167D01*
G75*
G02*
X135116667Y-117742500I166667J0D01*
G01*
X136883333Y-117742500D01*
G75*
G02*
X137050000Y-117909167I0J-166667D01*
G01*
X137050000Y-118075833D01*
G75*
G02*
X136883333Y-118242500I-166667J0D01*
G01*
G37*
G36*
G01*
X136883333Y-118877500D02*
X135116667Y-118877500D01*
G75*
G02*
X134950000Y-118710833I0J166667D01*
G01*
X134950000Y-118544167D01*
G75*
G02*
X135116667Y-118377500I166667J0D01*
G01*
X136883333Y-118377500D01*
G75*
G02*
X137050000Y-118544167I0J-166667D01*
G01*
X137050000Y-118710833D01*
G75*
G02*
X136883333Y-118877500I-166667J0D01*
G01*
G37*
G36*
G01*
X136883333Y-119512500D02*
X135116667Y-119512500D01*
G75*
G02*
X134950000Y-119345833I0J166667D01*
G01*
X134950000Y-119179167D01*
G75*
G02*
X135116667Y-119012500I166667J0D01*
G01*
X136883333Y-119012500D01*
G75*
G02*
X137050000Y-119179167I0J-166667D01*
G01*
X137050000Y-119345833D01*
G75*
G02*
X136883333Y-119512500I-166667J0D01*
G01*
G37*
G36*
G01*
X136883333Y-120147500D02*
X135116667Y-120147500D01*
G75*
G02*
X134950000Y-119980833I0J166667D01*
G01*
X134950000Y-119814167D01*
G75*
G02*
X135116667Y-119647500I166667J0D01*
G01*
X136883333Y-119647500D01*
G75*
G02*
X137050000Y-119814167I0J-166667D01*
G01*
X137050000Y-119980833D01*
G75*
G02*
X136883333Y-120147500I-166667J0D01*
G01*
G37*
G36*
G01*
X136883333Y-120782500D02*
X135116667Y-120782500D01*
G75*
G02*
X134950000Y-120615833I0J166667D01*
G01*
X134950000Y-120449167D01*
G75*
G02*
X135116667Y-120282500I166667J0D01*
G01*
X136883333Y-120282500D01*
G75*
G02*
X137050000Y-120449167I0J-166667D01*
G01*
X137050000Y-120615833D01*
G75*
G02*
X136883333Y-120782500I-166667J0D01*
G01*
G37*
G36*
G01*
X136883333Y-121417500D02*
X135116667Y-121417500D01*
G75*
G02*
X134950000Y-121250833I0J166667D01*
G01*
X134950000Y-121084167D01*
G75*
G02*
X135116667Y-120917500I166667J0D01*
G01*
X136883333Y-120917500D01*
G75*
G02*
X137050000Y-121084167I0J-166667D01*
G01*
X137050000Y-121250833D01*
G75*
G02*
X136883333Y-121417500I-166667J0D01*
G01*
G37*
G36*
G01*
X143116667Y-120917500D02*
X144883333Y-120917500D01*
G75*
G02*
X145050000Y-121084167I0J-166667D01*
G01*
X145050000Y-121250833D01*
G75*
G02*
X144883333Y-121417500I-166667J0D01*
G01*
X143116667Y-121417500D01*
G75*
G02*
X142950000Y-121250833I0J166667D01*
G01*
X142950000Y-121084167D01*
G75*
G02*
X143116667Y-120917500I166667J0D01*
G01*
G37*
G36*
G01*
X143116667Y-120282500D02*
X144883333Y-120282500D01*
G75*
G02*
X145050000Y-120449167I0J-166667D01*
G01*
X145050000Y-120615833D01*
G75*
G02*
X144883333Y-120782500I-166667J0D01*
G01*
X143116667Y-120782500D01*
G75*
G02*
X142950000Y-120615833I0J166667D01*
G01*
X142950000Y-120449167D01*
G75*
G02*
X143116667Y-120282500I166667J0D01*
G01*
G37*
G36*
G01*
X143116667Y-119647500D02*
X144883333Y-119647500D01*
G75*
G02*
X145050000Y-119814167I0J-166667D01*
G01*
X145050000Y-119980833D01*
G75*
G02*
X144883333Y-120147500I-166667J0D01*
G01*
X143116667Y-120147500D01*
G75*
G02*
X142950000Y-119980833I0J166667D01*
G01*
X142950000Y-119814167D01*
G75*
G02*
X143116667Y-119647500I166667J0D01*
G01*
G37*
G36*
G01*
X143116667Y-119012500D02*
X144883333Y-119012500D01*
G75*
G02*
X145050000Y-119179167I0J-166667D01*
G01*
X145050000Y-119345833D01*
G75*
G02*
X144883333Y-119512500I-166667J0D01*
G01*
X143116667Y-119512500D01*
G75*
G02*
X142950000Y-119345833I0J166667D01*
G01*
X142950000Y-119179167D01*
G75*
G02*
X143116667Y-119012500I166667J0D01*
G01*
G37*
G36*
G01*
X143116667Y-118377500D02*
X144883333Y-118377500D01*
G75*
G02*
X145050000Y-118544167I0J-166667D01*
G01*
X145050000Y-118710833D01*
G75*
G02*
X144883333Y-118877500I-166667J0D01*
G01*
X143116667Y-118877500D01*
G75*
G02*
X142950000Y-118710833I0J166667D01*
G01*
X142950000Y-118544167D01*
G75*
G02*
X143116667Y-118377500I166667J0D01*
G01*
G37*
G36*
G01*
X143116667Y-117742500D02*
X144883333Y-117742500D01*
G75*
G02*
X145050000Y-117909167I0J-166667D01*
G01*
X145050000Y-118075833D01*
G75*
G02*
X144883333Y-118242500I-166667J0D01*
G01*
X143116667Y-118242500D01*
G75*
G02*
X142950000Y-118075833I0J166667D01*
G01*
X142950000Y-117909167D01*
G75*
G02*
X143116667Y-117742500I166667J0D01*
G01*
G37*
G36*
G01*
X143116667Y-117107500D02*
X144883333Y-117107500D01*
G75*
G02*
X145050000Y-117274167I0J-166667D01*
G01*
X145050000Y-117440833D01*
G75*
G02*
X144883333Y-117607500I-166667J0D01*
G01*
X143116667Y-117607500D01*
G75*
G02*
X142950000Y-117440833I0J166667D01*
G01*
X142950000Y-117274167D01*
G75*
G02*
X143116667Y-117107500I166667J0D01*
G01*
G37*
G36*
G01*
X143116667Y-116472500D02*
X144883333Y-116472500D01*
G75*
G02*
X145050000Y-116639167I0J-166667D01*
G01*
X145050000Y-116805833D01*
G75*
G02*
X144883333Y-116972500I-166667J0D01*
G01*
X143116667Y-116972500D01*
G75*
G02*
X142950000Y-116805833I0J166667D01*
G01*
X142950000Y-116639167D01*
G75*
G02*
X143116667Y-116472500I166667J0D01*
G01*
G37*
G36*
G01*
X143116667Y-115837500D02*
X144883333Y-115837500D01*
G75*
G02*
X145050000Y-116004167I0J-166667D01*
G01*
X145050000Y-116170833D01*
G75*
G02*
X144883333Y-116337500I-166667J0D01*
G01*
X143116667Y-116337500D01*
G75*
G02*
X142950000Y-116170833I0J166667D01*
G01*
X142950000Y-116004167D01*
G75*
G02*
X143116667Y-115837500I166667J0D01*
G01*
G37*
G36*
G01*
X143116667Y-115202500D02*
X144883333Y-115202500D01*
G75*
G02*
X145050000Y-115369167I0J-166667D01*
G01*
X145050000Y-115535833D01*
G75*
G02*
X144883333Y-115702500I-166667J0D01*
G01*
X143116667Y-115702500D01*
G75*
G02*
X142950000Y-115535833I0J166667D01*
G01*
X142950000Y-115369167D01*
G75*
G02*
X143116667Y-115202500I166667J0D01*
G01*
G37*
G36*
G01*
X143116667Y-114567500D02*
X144883333Y-114567500D01*
G75*
G02*
X145050000Y-114734167I0J-166667D01*
G01*
X145050000Y-114900833D01*
G75*
G02*
X144883333Y-115067500I-166667J0D01*
G01*
X143116667Y-115067500D01*
G75*
G02*
X142950000Y-114900833I0J166667D01*
G01*
X142950000Y-114734167D01*
G75*
G02*
X143116667Y-114567500I166667J0D01*
G01*
G37*
G36*
G01*
X143116667Y-113932500D02*
X144883333Y-113932500D01*
G75*
G02*
X145050000Y-114099167I0J-166667D01*
G01*
X145050000Y-114265833D01*
G75*
G02*
X144883333Y-114432500I-166667J0D01*
G01*
X143116667Y-114432500D01*
G75*
G02*
X142950000Y-114265833I0J166667D01*
G01*
X142950000Y-114099167D01*
G75*
G02*
X143116667Y-113932500I166667J0D01*
G01*
G37*
G36*
G01*
X143116667Y-113297500D02*
X144883333Y-113297500D01*
G75*
G02*
X145050000Y-113464167I0J-166667D01*
G01*
X145050000Y-113630833D01*
G75*
G02*
X144883333Y-113797500I-166667J0D01*
G01*
X143116667Y-113797500D01*
G75*
G02*
X142950000Y-113630833I0J166667D01*
G01*
X142950000Y-113464167D01*
G75*
G02*
X143116667Y-113297500I166667J0D01*
G01*
G37*
G36*
G01*
X143116667Y-112662500D02*
X144883333Y-112662500D01*
G75*
G02*
X145050000Y-112829167I0J-166667D01*
G01*
X145050000Y-112995833D01*
G75*
G02*
X144883333Y-113162500I-166667J0D01*
G01*
X143116667Y-113162500D01*
G75*
G02*
X142950000Y-112995833I0J166667D01*
G01*
X142950000Y-112829167D01*
G75*
G02*
X143116667Y-112662500I166667J0D01*
G01*
G37*
G36*
G01*
X143116667Y-112027500D02*
X144883333Y-112027500D01*
G75*
G02*
X145050000Y-112194167I0J-166667D01*
G01*
X145050000Y-112360833D01*
G75*
G02*
X144883333Y-112527500I-166667J0D01*
G01*
X143116667Y-112527500D01*
G75*
G02*
X142950000Y-112360833I0J166667D01*
G01*
X142950000Y-112194167D01*
G75*
G02*
X143116667Y-112027500I166667J0D01*
G01*
G37*
G36*
G01*
X143116667Y-111392500D02*
X144883333Y-111392500D01*
G75*
G02*
X145050000Y-111559167I0J-166667D01*
G01*
X145050000Y-111725833D01*
G75*
G02*
X144883333Y-111892500I-166667J0D01*
G01*
X143116667Y-111892500D01*
G75*
G02*
X142950000Y-111725833I0J166667D01*
G01*
X142950000Y-111559167D01*
G75*
G02*
X143116667Y-111392500I166667J0D01*
G01*
G37*
G36*
G01*
X143116667Y-110757500D02*
X144883333Y-110757500D01*
G75*
G02*
X145050000Y-110924167I0J-166667D01*
G01*
X145050000Y-111090833D01*
G75*
G02*
X144883333Y-111257500I-166667J0D01*
G01*
X143116667Y-111257500D01*
G75*
G02*
X142950000Y-111090833I0J166667D01*
G01*
X142950000Y-110924167D01*
G75*
G02*
X143116667Y-110757500I166667J0D01*
G01*
G37*
G36*
G01*
X143116667Y-110122500D02*
X144883333Y-110122500D01*
G75*
G02*
X145050000Y-110289167I0J-166667D01*
G01*
X145050000Y-110455833D01*
G75*
G02*
X144883333Y-110622500I-166667J0D01*
G01*
X143116667Y-110622500D01*
G75*
G02*
X142950000Y-110455833I0J166667D01*
G01*
X142950000Y-110289167D01*
G75*
G02*
X143116667Y-110122500I166667J0D01*
G01*
G37*
G36*
G01*
X143116667Y-109487500D02*
X144883333Y-109487500D01*
G75*
G02*
X145050000Y-109654167I0J-166667D01*
G01*
X145050000Y-109820833D01*
G75*
G02*
X144883333Y-109987500I-166667J0D01*
G01*
X143116667Y-109987500D01*
G75*
G02*
X142950000Y-109820833I0J166667D01*
G01*
X142950000Y-109654167D01*
G75*
G02*
X143116667Y-109487500I166667J0D01*
G01*
G37*
G36*
G01*
X143116667Y-108852500D02*
X144883333Y-108852500D01*
G75*
G02*
X145050000Y-109019167I0J-166667D01*
G01*
X145050000Y-109185833D01*
G75*
G02*
X144883333Y-109352500I-166667J0D01*
G01*
X143116667Y-109352500D01*
G75*
G02*
X142950000Y-109185833I0J166667D01*
G01*
X142950000Y-109019167D01*
G75*
G02*
X143116667Y-108852500I166667J0D01*
G01*
G37*
G36*
G01*
X143116667Y-108217500D02*
X144883333Y-108217500D01*
G75*
G02*
X145050000Y-108384167I0J-166667D01*
G01*
X145050000Y-108550833D01*
G75*
G02*
X144883333Y-108717500I-166667J0D01*
G01*
X143116667Y-108717500D01*
G75*
G02*
X142950000Y-108550833I0J166667D01*
G01*
X142950000Y-108384167D01*
G75*
G02*
X143116667Y-108217500I166667J0D01*
G01*
G37*
G36*
G01*
X143116667Y-107582500D02*
X144883333Y-107582500D01*
G75*
G02*
X145050000Y-107749167I0J-166667D01*
G01*
X145050000Y-107915833D01*
G75*
G02*
X144883333Y-108082500I-166667J0D01*
G01*
X143116667Y-108082500D01*
G75*
G02*
X142950000Y-107915833I0J166667D01*
G01*
X142950000Y-107749167D01*
G75*
G02*
X143116667Y-107582500I166667J0D01*
G01*
G37*
G36*
G01*
X132800000Y-93289474D02*
X132800000Y-91410526D01*
G75*
G02*
X132910526Y-91300000I110526J0D01*
G01*
X135489474Y-91300000D01*
G75*
G02*
X135600000Y-91410526I0J-110526D01*
G01*
X135600000Y-93289474D01*
G75*
G02*
X135489474Y-93400000I-110526J0D01*
G01*
X132910526Y-93400000D01*
G75*
G02*
X132800000Y-93289474I0J110526D01*
G01*
G37*
G36*
G01*
X135600000Y-95910526D02*
X135600000Y-97789474D01*
G75*
G02*
X135489474Y-97900000I-110526J0D01*
G01*
X132910526Y-97900000D01*
G75*
G02*
X132800000Y-97789474I0J110526D01*
G01*
X132800000Y-95910526D01*
G75*
G02*
X132910526Y-95800000I110526J0D01*
G01*
X135489474Y-95800000D01*
G75*
G02*
X135600000Y-95910526I0J-110526D01*
G01*
G37*
G36*
G01*
X146369444Y-101225000D02*
X146730556Y-101225000D01*
G75*
G02*
X146875000Y-101369444I0J-144444D01*
G01*
X146875000Y-102730556D01*
G75*
G02*
X146730556Y-102875000I-144444J0D01*
G01*
X146369444Y-102875000D01*
G75*
G02*
X146225000Y-102730556I0J144444D01*
G01*
X146225000Y-101369444D01*
G75*
G02*
X146369444Y-101225000I144444J0D01*
G01*
G37*
G36*
G01*
X147019444Y-101225000D02*
X147380556Y-101225000D01*
G75*
G02*
X147525000Y-101369444I0J-144444D01*
G01*
X147525000Y-102730556D01*
G75*
G02*
X147380556Y-102875000I-144444J0D01*
G01*
X147019444Y-102875000D01*
G75*
G02*
X146875000Y-102730556I0J144444D01*
G01*
X146875000Y-101369444D01*
G75*
G02*
X147019444Y-101225000I144444J0D01*
G01*
G37*
G36*
G01*
X147669444Y-101225000D02*
X148030556Y-101225000D01*
G75*
G02*
X148175000Y-101369444I0J-144444D01*
G01*
X148175000Y-102730556D01*
G75*
G02*
X148030556Y-102875000I-144444J0D01*
G01*
X147669444Y-102875000D01*
G75*
G02*
X147525000Y-102730556I0J144444D01*
G01*
X147525000Y-101369444D01*
G75*
G02*
X147669444Y-101225000I144444J0D01*
G01*
G37*
G36*
G01*
X148319444Y-101225000D02*
X148680556Y-101225000D01*
G75*
G02*
X148825000Y-101369444I0J-144444D01*
G01*
X148825000Y-102730556D01*
G75*
G02*
X148680556Y-102875000I-144444J0D01*
G01*
X148319444Y-102875000D01*
G75*
G02*
X148175000Y-102730556I0J144444D01*
G01*
X148175000Y-101369444D01*
G75*
G02*
X148319444Y-101225000I144444J0D01*
G01*
G37*
G36*
G01*
X148969444Y-101225000D02*
X149330556Y-101225000D01*
G75*
G02*
X149475000Y-101369444I0J-144444D01*
G01*
X149475000Y-102730556D01*
G75*
G02*
X149330556Y-102875000I-144444J0D01*
G01*
X148969444Y-102875000D01*
G75*
G02*
X148825000Y-102730556I0J144444D01*
G01*
X148825000Y-101369444D01*
G75*
G02*
X148969444Y-101225000I144444J0D01*
G01*
G37*
G36*
G01*
X149619444Y-101225000D02*
X149980556Y-101225000D01*
G75*
G02*
X150125000Y-101369444I0J-144444D01*
G01*
X150125000Y-102730556D01*
G75*
G02*
X149980556Y-102875000I-144444J0D01*
G01*
X149619444Y-102875000D01*
G75*
G02*
X149475000Y-102730556I0J144444D01*
G01*
X149475000Y-101369444D01*
G75*
G02*
X149619444Y-101225000I144444J0D01*
G01*
G37*
G36*
G01*
X150269444Y-101225000D02*
X150630556Y-101225000D01*
G75*
G02*
X150775000Y-101369444I0J-144444D01*
G01*
X150775000Y-102730556D01*
G75*
G02*
X150630556Y-102875000I-144444J0D01*
G01*
X150269444Y-102875000D01*
G75*
G02*
X150125000Y-102730556I0J144444D01*
G01*
X150125000Y-101369444D01*
G75*
G02*
X150269444Y-101225000I144444J0D01*
G01*
G37*
G36*
G01*
X150269444Y-107125000D02*
X150630556Y-107125000D01*
G75*
G02*
X150775000Y-107269444I0J-144444D01*
G01*
X150775000Y-108630556D01*
G75*
G02*
X150630556Y-108775000I-144444J0D01*
G01*
X150269444Y-108775000D01*
G75*
G02*
X150125000Y-108630556I0J144444D01*
G01*
X150125000Y-107269444D01*
G75*
G02*
X150269444Y-107125000I144444J0D01*
G01*
G37*
G36*
G01*
X149619444Y-107125000D02*
X149980556Y-107125000D01*
G75*
G02*
X150125000Y-107269444I0J-144444D01*
G01*
X150125000Y-108630556D01*
G75*
G02*
X149980556Y-108775000I-144444J0D01*
G01*
X149619444Y-108775000D01*
G75*
G02*
X149475000Y-108630556I0J144444D01*
G01*
X149475000Y-107269444D01*
G75*
G02*
X149619444Y-107125000I144444J0D01*
G01*
G37*
G36*
G01*
X148969444Y-107125000D02*
X149330556Y-107125000D01*
G75*
G02*
X149475000Y-107269444I0J-144444D01*
G01*
X149475000Y-108630556D01*
G75*
G02*
X149330556Y-108775000I-144444J0D01*
G01*
X148969444Y-108775000D01*
G75*
G02*
X148825000Y-108630556I0J144444D01*
G01*
X148825000Y-107269444D01*
G75*
G02*
X148969444Y-107125000I144444J0D01*
G01*
G37*
G36*
G01*
X148319444Y-107125000D02*
X148680556Y-107125000D01*
G75*
G02*
X148825000Y-107269444I0J-144444D01*
G01*
X148825000Y-108630556D01*
G75*
G02*
X148680556Y-108775000I-144444J0D01*
G01*
X148319444Y-108775000D01*
G75*
G02*
X148175000Y-108630556I0J144444D01*
G01*
X148175000Y-107269444D01*
G75*
G02*
X148319444Y-107125000I144444J0D01*
G01*
G37*
G36*
G01*
X147669444Y-107125000D02*
X148030556Y-107125000D01*
G75*
G02*
X148175000Y-107269444I0J-144444D01*
G01*
X148175000Y-108630556D01*
G75*
G02*
X148030556Y-108775000I-144444J0D01*
G01*
X147669444Y-108775000D01*
G75*
G02*
X147525000Y-108630556I0J144444D01*
G01*
X147525000Y-107269444D01*
G75*
G02*
X147669444Y-107125000I144444J0D01*
G01*
G37*
G36*
G01*
X147019444Y-107125000D02*
X147380556Y-107125000D01*
G75*
G02*
X147525000Y-107269444I0J-144444D01*
G01*
X147525000Y-108630556D01*
G75*
G02*
X147380556Y-108775000I-144444J0D01*
G01*
X147019444Y-108775000D01*
G75*
G02*
X146875000Y-108630556I0J144444D01*
G01*
X146875000Y-107269444D01*
G75*
G02*
X147019444Y-107125000I144444J0D01*
G01*
G37*
G36*
G01*
X146369444Y-107125000D02*
X146730556Y-107125000D01*
G75*
G02*
X146875000Y-107269444I0J-144444D01*
G01*
X146875000Y-108630556D01*
G75*
G02*
X146730556Y-108775000I-144444J0D01*
G01*
X146369444Y-108775000D01*
G75*
G02*
X146225000Y-108630556I0J144444D01*
G01*
X146225000Y-107269444D01*
G75*
G02*
X146369444Y-107125000I144444J0D01*
G01*
G37*
G36*
G01*
X133806250Y-122037500D02*
X133193750Y-122037500D01*
G75*
G02*
X132925000Y-121768750I0J268750D01*
G01*
X132925000Y-121231250D01*
G75*
G02*
X133193750Y-120962500I268750J0D01*
G01*
X133806250Y-120962500D01*
G75*
G02*
X134075000Y-121231250I0J-268750D01*
G01*
X134075000Y-121768750D01*
G75*
G02*
X133806250Y-122037500I-268750J0D01*
G01*
G37*
G36*
G01*
X133806250Y-120462500D02*
X133193750Y-120462500D01*
G75*
G02*
X132925000Y-120193750I0J268750D01*
G01*
X132925000Y-119656250D01*
G75*
G02*
X133193750Y-119387500I268750J0D01*
G01*
X133806250Y-119387500D01*
G75*
G02*
X134075000Y-119656250I0J-268750D01*
G01*
X134075000Y-120193750D01*
G75*
G02*
X133806250Y-120462500I-268750J0D01*
G01*
G37*
G36*
G01*
X132443750Y-114300000D02*
X133056250Y-114300000D01*
G75*
G02*
X133325000Y-114568750I0J-268750D01*
G01*
X133325000Y-115106250D01*
G75*
G02*
X133056250Y-115375000I-268750J0D01*
G01*
X132443750Y-115375000D01*
G75*
G02*
X132175000Y-115106250I0J268750D01*
G01*
X132175000Y-114568750D01*
G75*
G02*
X132443750Y-114300000I268750J0D01*
G01*
G37*
G36*
G01*
X132443750Y-112725000D02*
X133056250Y-112725000D01*
G75*
G02*
X133325000Y-112993750I0J-268750D01*
G01*
X133325000Y-113531250D01*
G75*
G02*
X133056250Y-113800000I-268750J0D01*
G01*
X132443750Y-113800000D01*
G75*
G02*
X132175000Y-113531250I0J268750D01*
G01*
X132175000Y-112993750D01*
G75*
G02*
X132443750Y-112725000I268750J0D01*
G01*
G37*
G36*
G01*
X133093750Y-108550000D02*
X133706250Y-108550000D01*
G75*
G02*
X133975000Y-108818750I0J-268750D01*
G01*
X133975000Y-109356250D01*
G75*
G02*
X133706250Y-109625000I-268750J0D01*
G01*
X133093750Y-109625000D01*
G75*
G02*
X132825000Y-109356250I0J268750D01*
G01*
X132825000Y-108818750D01*
G75*
G02*
X133093750Y-108550000I268750J0D01*
G01*
G37*
G36*
G01*
X133093750Y-106975000D02*
X133706250Y-106975000D01*
G75*
G02*
X133975000Y-107243750I0J-268750D01*
G01*
X133975000Y-107781250D01*
G75*
G02*
X133706250Y-108050000I-268750J0D01*
G01*
X133093750Y-108050000D01*
G75*
G02*
X132825000Y-107781250I0J268750D01*
G01*
X132825000Y-107243750D01*
G75*
G02*
X133093750Y-106975000I268750J0D01*
G01*
G37*
G36*
G01*
X122122500Y-119695000D02*
X121677500Y-119695000D01*
G75*
G02*
X121480000Y-119497500I0J197500D01*
G01*
X121480000Y-119102500D01*
G75*
G02*
X121677500Y-118905000I197500J0D01*
G01*
X122122500Y-118905000D01*
G75*
G02*
X122320000Y-119102500I0J-197500D01*
G01*
X122320000Y-119497500D01*
G75*
G02*
X122122500Y-119695000I-197500J0D01*
G01*
G37*
G36*
G01*
X122122500Y-120665000D02*
X121677500Y-120665000D01*
G75*
G02*
X121480000Y-120467500I0J197500D01*
G01*
X121480000Y-120072500D01*
G75*
G02*
X121677500Y-119875000I197500J0D01*
G01*
X122122500Y-119875000D01*
G75*
G02*
X122320000Y-120072500I0J-197500D01*
G01*
X122320000Y-120467500D01*
G75*
G02*
X122122500Y-120665000I-197500J0D01*
G01*
G37*
G36*
G01*
X122122500Y-112510000D02*
X121677500Y-112510000D01*
G75*
G02*
X121480000Y-112312500I0J197500D01*
G01*
X121480000Y-111917500D01*
G75*
G02*
X121677500Y-111720000I197500J0D01*
G01*
X122122500Y-111720000D01*
G75*
G02*
X122320000Y-111917500I0J-197500D01*
G01*
X122320000Y-112312500D01*
G75*
G02*
X122122500Y-112510000I-197500J0D01*
G01*
G37*
G36*
G01*
X122122500Y-113480000D02*
X121677500Y-113480000D01*
G75*
G02*
X121480000Y-113282500I0J197500D01*
G01*
X121480000Y-112887500D01*
G75*
G02*
X121677500Y-112690000I197500J0D01*
G01*
X122122500Y-112690000D01*
G75*
G02*
X122320000Y-112887500I0J-197500D01*
G01*
X122320000Y-113282500D01*
G75*
G02*
X122122500Y-113480000I-197500J0D01*
G01*
G37*
G36*
G01*
X122122500Y-105410000D02*
X121677500Y-105410000D01*
G75*
G02*
X121480000Y-105212500I0J197500D01*
G01*
X121480000Y-104817500D01*
G75*
G02*
X121677500Y-104620000I197500J0D01*
G01*
X122122500Y-104620000D01*
G75*
G02*
X122320000Y-104817500I0J-197500D01*
G01*
X122320000Y-105212500D01*
G75*
G02*
X122122500Y-105410000I-197500J0D01*
G01*
G37*
G36*
G01*
X122122500Y-106380000D02*
X121677500Y-106380000D01*
G75*
G02*
X121480000Y-106182500I0J197500D01*
G01*
X121480000Y-105787500D01*
G75*
G02*
X121677500Y-105590000I197500J0D01*
G01*
X122122500Y-105590000D01*
G75*
G02*
X122320000Y-105787500I0J-197500D01*
G01*
X122320000Y-106182500D01*
G75*
G02*
X122122500Y-106380000I-197500J0D01*
G01*
G37*
D10*
X155380000Y-130290000D03*
X139080000Y-130290000D03*
X173790000Y-106620000D03*
X173790000Y-122920000D03*
D11*
X134500000Y-78100000D03*
X129420000Y-77084000D03*
X129420000Y-79116000D03*
G36*
G01*
X148350000Y-119293750D02*
X148350000Y-119906250D01*
G75*
G02*
X148081250Y-120175000I-268750J0D01*
G01*
X147543750Y-120175000D01*
G75*
G02*
X147275000Y-119906250I0J268750D01*
G01*
X147275000Y-119293750D01*
G75*
G02*
X147543750Y-119025000I268750J0D01*
G01*
X148081250Y-119025000D01*
G75*
G02*
X148350000Y-119293750I0J-268750D01*
G01*
G37*
G36*
G01*
X149925000Y-119293750D02*
X149925000Y-119906250D01*
G75*
G02*
X149656250Y-120175000I-268750J0D01*
G01*
X149118750Y-120175000D01*
G75*
G02*
X148850000Y-119906250I0J268750D01*
G01*
X148850000Y-119293750D01*
G75*
G02*
X149118750Y-119025000I268750J0D01*
G01*
X149656250Y-119025000D01*
G75*
G02*
X149925000Y-119293750I0J-268750D01*
G01*
G37*
G36*
G01*
X146950000Y-115593750D02*
X146950000Y-116206250D01*
G75*
G02*
X146681250Y-116475000I-268750J0D01*
G01*
X146143750Y-116475000D01*
G75*
G02*
X145875000Y-116206250I0J268750D01*
G01*
X145875000Y-115593750D01*
G75*
G02*
X146143750Y-115325000I268750J0D01*
G01*
X146681250Y-115325000D01*
G75*
G02*
X146950000Y-115593750I0J-268750D01*
G01*
G37*
G36*
G01*
X148525000Y-115593750D02*
X148525000Y-116206250D01*
G75*
G02*
X148256250Y-116475000I-268750J0D01*
G01*
X147718750Y-116475000D01*
G75*
G02*
X147450000Y-116206250I0J268750D01*
G01*
X147450000Y-115593750D01*
G75*
G02*
X147718750Y-115325000I268750J0D01*
G01*
X148256250Y-115325000D01*
G75*
G02*
X148525000Y-115593750I0J-268750D01*
G01*
G37*
D12*
X151100000Y-99900000D03*
X149500000Y-98600000D03*
X143000000Y-100600000D03*
X146500000Y-98400000D03*
X127800000Y-102700000D03*
X125700000Y-102700000D03*
X126800000Y-101300000D03*
X153500000Y-106295000D03*
G36*
G01*
X147250000Y-121068182D02*
X147250000Y-122131818D01*
G75*
G02*
X147131818Y-122250000I-118182J0D01*
G01*
X146068182Y-122250000D01*
G75*
G02*
X145950000Y-122131818I0J118182D01*
G01*
X145950000Y-121068182D01*
G75*
G02*
X146068182Y-120950000I118182J0D01*
G01*
X147131818Y-120950000D01*
G75*
G02*
X147250000Y-121068182I0J-118182D01*
G01*
G37*
G36*
G01*
X150050000Y-121068182D02*
X150050000Y-122131818D01*
G75*
G02*
X149931818Y-122250000I-118182J0D01*
G01*
X148868182Y-122250000D01*
G75*
G02*
X148750000Y-122131818I0J118182D01*
G01*
X148750000Y-121068182D01*
G75*
G02*
X148868182Y-120950000I118182J0D01*
G01*
X149931818Y-120950000D01*
G75*
G02*
X150050000Y-121068182I0J-118182D01*
G01*
G37*
G36*
G01*
X168531818Y-103850000D02*
X167468182Y-103850000D01*
G75*
G02*
X167350000Y-103731818I0J118182D01*
G01*
X167350000Y-102668182D01*
G75*
G02*
X167468182Y-102550000I118182J0D01*
G01*
X168531818Y-102550000D01*
G75*
G02*
X168650000Y-102668182I0J-118182D01*
G01*
X168650000Y-103731818D01*
G75*
G02*
X168531818Y-103850000I-118182J0D01*
G01*
G37*
G36*
G01*
X168531818Y-106650000D02*
X167468182Y-106650000D01*
G75*
G02*
X167350000Y-106531818I0J118182D01*
G01*
X167350000Y-105468182D01*
G75*
G02*
X167468182Y-105350000I118182J0D01*
G01*
X168531818Y-105350000D01*
G75*
G02*
X168650000Y-105468182I0J-118182D01*
G01*
X168650000Y-106531818D01*
G75*
G02*
X168531818Y-106650000I-118182J0D01*
G01*
G37*
D13*
X156280000Y-76860000D03*
X156280000Y-79400000D03*
X153740000Y-76860000D03*
X153740000Y-79400000D03*
X151200000Y-76860000D03*
X151200000Y-79400000D03*
X148660000Y-76860000D03*
X148660000Y-79400000D03*
X146120000Y-76860000D03*
X146120000Y-79400000D03*
X143580000Y-76860000D03*
X143580000Y-79400000D03*
X141040000Y-76860000D03*
X141040000Y-79400000D03*
X138500000Y-76860000D03*
D14*
X138500000Y-79400000D03*
D15*
X122630000Y-88130000D03*
X121530000Y-88130000D03*
G36*
G01*
X128475000Y-124755556D02*
X128475000Y-124394444D01*
G75*
G02*
X128619444Y-124250000I144444J0D01*
G01*
X129980556Y-124250000D01*
G75*
G02*
X130125000Y-124394444I0J-144444D01*
G01*
X130125000Y-124755556D01*
G75*
G02*
X129980556Y-124900000I-144444J0D01*
G01*
X128619444Y-124900000D01*
G75*
G02*
X128475000Y-124755556I0J144444D01*
G01*
G37*
G36*
G01*
X128475000Y-124105556D02*
X128475000Y-123744444D01*
G75*
G02*
X128619444Y-123600000I144444J0D01*
G01*
X129980556Y-123600000D01*
G75*
G02*
X130125000Y-123744444I0J-144444D01*
G01*
X130125000Y-124105556D01*
G75*
G02*
X129980556Y-124250000I-144444J0D01*
G01*
X128619444Y-124250000D01*
G75*
G02*
X128475000Y-124105556I0J144444D01*
G01*
G37*
G36*
G01*
X128475000Y-123455556D02*
X128475000Y-123094444D01*
G75*
G02*
X128619444Y-122950000I144444J0D01*
G01*
X129980556Y-122950000D01*
G75*
G02*
X130125000Y-123094444I0J-144444D01*
G01*
X130125000Y-123455556D01*
G75*
G02*
X129980556Y-123600000I-144444J0D01*
G01*
X128619444Y-123600000D01*
G75*
G02*
X128475000Y-123455556I0J144444D01*
G01*
G37*
G36*
G01*
X128475000Y-122805556D02*
X128475000Y-122444444D01*
G75*
G02*
X128619444Y-122300000I144444J0D01*
G01*
X129980556Y-122300000D01*
G75*
G02*
X130125000Y-122444444I0J-144444D01*
G01*
X130125000Y-122805556D01*
G75*
G02*
X129980556Y-122950000I-144444J0D01*
G01*
X128619444Y-122950000D01*
G75*
G02*
X128475000Y-122805556I0J144444D01*
G01*
G37*
G36*
G01*
X128475000Y-122155556D02*
X128475000Y-121794444D01*
G75*
G02*
X128619444Y-121650000I144444J0D01*
G01*
X129980556Y-121650000D01*
G75*
G02*
X130125000Y-121794444I0J-144444D01*
G01*
X130125000Y-122155556D01*
G75*
G02*
X129980556Y-122300000I-144444J0D01*
G01*
X128619444Y-122300000D01*
G75*
G02*
X128475000Y-122155556I0J144444D01*
G01*
G37*
G36*
G01*
X128475000Y-121505556D02*
X128475000Y-121144444D01*
G75*
G02*
X128619444Y-121000000I144444J0D01*
G01*
X129980556Y-121000000D01*
G75*
G02*
X130125000Y-121144444I0J-144444D01*
G01*
X130125000Y-121505556D01*
G75*
G02*
X129980556Y-121650000I-144444J0D01*
G01*
X128619444Y-121650000D01*
G75*
G02*
X128475000Y-121505556I0J144444D01*
G01*
G37*
G36*
G01*
X128475000Y-120855556D02*
X128475000Y-120494444D01*
G75*
G02*
X128619444Y-120350000I144444J0D01*
G01*
X129980556Y-120350000D01*
G75*
G02*
X130125000Y-120494444I0J-144444D01*
G01*
X130125000Y-120855556D01*
G75*
G02*
X129980556Y-121000000I-144444J0D01*
G01*
X128619444Y-121000000D01*
G75*
G02*
X128475000Y-120855556I0J144444D01*
G01*
G37*
G36*
G01*
X128475000Y-120205556D02*
X128475000Y-119844444D01*
G75*
G02*
X128619444Y-119700000I144444J0D01*
G01*
X129980556Y-119700000D01*
G75*
G02*
X130125000Y-119844444I0J-144444D01*
G01*
X130125000Y-120205556D01*
G75*
G02*
X129980556Y-120350000I-144444J0D01*
G01*
X128619444Y-120350000D01*
G75*
G02*
X128475000Y-120205556I0J144444D01*
G01*
G37*
G36*
G01*
X128475000Y-119555556D02*
X128475000Y-119194444D01*
G75*
G02*
X128619444Y-119050000I144444J0D01*
G01*
X129980556Y-119050000D01*
G75*
G02*
X130125000Y-119194444I0J-144444D01*
G01*
X130125000Y-119555556D01*
G75*
G02*
X129980556Y-119700000I-144444J0D01*
G01*
X128619444Y-119700000D01*
G75*
G02*
X128475000Y-119555556I0J144444D01*
G01*
G37*
G36*
G01*
X128475000Y-118905556D02*
X128475000Y-118544444D01*
G75*
G02*
X128619444Y-118400000I144444J0D01*
G01*
X129980556Y-118400000D01*
G75*
G02*
X130125000Y-118544444I0J-144444D01*
G01*
X130125000Y-118905556D01*
G75*
G02*
X129980556Y-119050000I-144444J0D01*
G01*
X128619444Y-119050000D01*
G75*
G02*
X128475000Y-118905556I0J144444D01*
G01*
G37*
G36*
G01*
X122575000Y-118905556D02*
X122575000Y-118544444D01*
G75*
G02*
X122719444Y-118400000I144444J0D01*
G01*
X124080556Y-118400000D01*
G75*
G02*
X124225000Y-118544444I0J-144444D01*
G01*
X124225000Y-118905556D01*
G75*
G02*
X124080556Y-119050000I-144444J0D01*
G01*
X122719444Y-119050000D01*
G75*
G02*
X122575000Y-118905556I0J144444D01*
G01*
G37*
G36*
G01*
X122575000Y-119555556D02*
X122575000Y-119194444D01*
G75*
G02*
X122719444Y-119050000I144444J0D01*
G01*
X124080556Y-119050000D01*
G75*
G02*
X124225000Y-119194444I0J-144444D01*
G01*
X124225000Y-119555556D01*
G75*
G02*
X124080556Y-119700000I-144444J0D01*
G01*
X122719444Y-119700000D01*
G75*
G02*
X122575000Y-119555556I0J144444D01*
G01*
G37*
G36*
G01*
X122575000Y-120205556D02*
X122575000Y-119844444D01*
G75*
G02*
X122719444Y-119700000I144444J0D01*
G01*
X124080556Y-119700000D01*
G75*
G02*
X124225000Y-119844444I0J-144444D01*
G01*
X124225000Y-120205556D01*
G75*
G02*
X124080556Y-120350000I-144444J0D01*
G01*
X122719444Y-120350000D01*
G75*
G02*
X122575000Y-120205556I0J144444D01*
G01*
G37*
G36*
G01*
X122575000Y-120855556D02*
X122575000Y-120494444D01*
G75*
G02*
X122719444Y-120350000I144444J0D01*
G01*
X124080556Y-120350000D01*
G75*
G02*
X124225000Y-120494444I0J-144444D01*
G01*
X124225000Y-120855556D01*
G75*
G02*
X124080556Y-121000000I-144444J0D01*
G01*
X122719444Y-121000000D01*
G75*
G02*
X122575000Y-120855556I0J144444D01*
G01*
G37*
G36*
G01*
X122575000Y-121505556D02*
X122575000Y-121144444D01*
G75*
G02*
X122719444Y-121000000I144444J0D01*
G01*
X124080556Y-121000000D01*
G75*
G02*
X124225000Y-121144444I0J-144444D01*
G01*
X124225000Y-121505556D01*
G75*
G02*
X124080556Y-121650000I-144444J0D01*
G01*
X122719444Y-121650000D01*
G75*
G02*
X122575000Y-121505556I0J144444D01*
G01*
G37*
G36*
G01*
X122575000Y-122155556D02*
X122575000Y-121794444D01*
G75*
G02*
X122719444Y-121650000I144444J0D01*
G01*
X124080556Y-121650000D01*
G75*
G02*
X124225000Y-121794444I0J-144444D01*
G01*
X124225000Y-122155556D01*
G75*
G02*
X124080556Y-122300000I-144444J0D01*
G01*
X122719444Y-122300000D01*
G75*
G02*
X122575000Y-122155556I0J144444D01*
G01*
G37*
G36*
G01*
X122575000Y-122805556D02*
X122575000Y-122444444D01*
G75*
G02*
X122719444Y-122300000I144444J0D01*
G01*
X124080556Y-122300000D01*
G75*
G02*
X124225000Y-122444444I0J-144444D01*
G01*
X124225000Y-122805556D01*
G75*
G02*
X124080556Y-122950000I-144444J0D01*
G01*
X122719444Y-122950000D01*
G75*
G02*
X122575000Y-122805556I0J144444D01*
G01*
G37*
G36*
G01*
X122575000Y-123455556D02*
X122575000Y-123094444D01*
G75*
G02*
X122719444Y-122950000I144444J0D01*
G01*
X124080556Y-122950000D01*
G75*
G02*
X124225000Y-123094444I0J-144444D01*
G01*
X124225000Y-123455556D01*
G75*
G02*
X124080556Y-123600000I-144444J0D01*
G01*
X122719444Y-123600000D01*
G75*
G02*
X122575000Y-123455556I0J144444D01*
G01*
G37*
G36*
G01*
X122575000Y-124105556D02*
X122575000Y-123744444D01*
G75*
G02*
X122719444Y-123600000I144444J0D01*
G01*
X124080556Y-123600000D01*
G75*
G02*
X124225000Y-123744444I0J-144444D01*
G01*
X124225000Y-124105556D01*
G75*
G02*
X124080556Y-124250000I-144444J0D01*
G01*
X122719444Y-124250000D01*
G75*
G02*
X122575000Y-124105556I0J144444D01*
G01*
G37*
G36*
G01*
X122575000Y-124755556D02*
X122575000Y-124394444D01*
G75*
G02*
X122719444Y-124250000I144444J0D01*
G01*
X124080556Y-124250000D01*
G75*
G02*
X124225000Y-124394444I0J-144444D01*
G01*
X124225000Y-124755556D01*
G75*
G02*
X124080556Y-124900000I-144444J0D01*
G01*
X122719444Y-124900000D01*
G75*
G02*
X122575000Y-124755556I0J144444D01*
G01*
G37*
G36*
G01*
X128475000Y-117605556D02*
X128475000Y-117244444D01*
G75*
G02*
X128619444Y-117100000I144444J0D01*
G01*
X129980556Y-117100000D01*
G75*
G02*
X130125000Y-117244444I0J-144444D01*
G01*
X130125000Y-117605556D01*
G75*
G02*
X129980556Y-117750000I-144444J0D01*
G01*
X128619444Y-117750000D01*
G75*
G02*
X128475000Y-117605556I0J144444D01*
G01*
G37*
G36*
G01*
X128475000Y-116955556D02*
X128475000Y-116594444D01*
G75*
G02*
X128619444Y-116450000I144444J0D01*
G01*
X129980556Y-116450000D01*
G75*
G02*
X130125000Y-116594444I0J-144444D01*
G01*
X130125000Y-116955556D01*
G75*
G02*
X129980556Y-117100000I-144444J0D01*
G01*
X128619444Y-117100000D01*
G75*
G02*
X128475000Y-116955556I0J144444D01*
G01*
G37*
G36*
G01*
X128475000Y-116305556D02*
X128475000Y-115944444D01*
G75*
G02*
X128619444Y-115800000I144444J0D01*
G01*
X129980556Y-115800000D01*
G75*
G02*
X130125000Y-115944444I0J-144444D01*
G01*
X130125000Y-116305556D01*
G75*
G02*
X129980556Y-116450000I-144444J0D01*
G01*
X128619444Y-116450000D01*
G75*
G02*
X128475000Y-116305556I0J144444D01*
G01*
G37*
G36*
G01*
X128475000Y-115655556D02*
X128475000Y-115294444D01*
G75*
G02*
X128619444Y-115150000I144444J0D01*
G01*
X129980556Y-115150000D01*
G75*
G02*
X130125000Y-115294444I0J-144444D01*
G01*
X130125000Y-115655556D01*
G75*
G02*
X129980556Y-115800000I-144444J0D01*
G01*
X128619444Y-115800000D01*
G75*
G02*
X128475000Y-115655556I0J144444D01*
G01*
G37*
G36*
G01*
X128475000Y-115005556D02*
X128475000Y-114644444D01*
G75*
G02*
X128619444Y-114500000I144444J0D01*
G01*
X129980556Y-114500000D01*
G75*
G02*
X130125000Y-114644444I0J-144444D01*
G01*
X130125000Y-115005556D01*
G75*
G02*
X129980556Y-115150000I-144444J0D01*
G01*
X128619444Y-115150000D01*
G75*
G02*
X128475000Y-115005556I0J144444D01*
G01*
G37*
G36*
G01*
X128475000Y-114355556D02*
X128475000Y-113994444D01*
G75*
G02*
X128619444Y-113850000I144444J0D01*
G01*
X129980556Y-113850000D01*
G75*
G02*
X130125000Y-113994444I0J-144444D01*
G01*
X130125000Y-114355556D01*
G75*
G02*
X129980556Y-114500000I-144444J0D01*
G01*
X128619444Y-114500000D01*
G75*
G02*
X128475000Y-114355556I0J144444D01*
G01*
G37*
G36*
G01*
X128475000Y-113705556D02*
X128475000Y-113344444D01*
G75*
G02*
X128619444Y-113200000I144444J0D01*
G01*
X129980556Y-113200000D01*
G75*
G02*
X130125000Y-113344444I0J-144444D01*
G01*
X130125000Y-113705556D01*
G75*
G02*
X129980556Y-113850000I-144444J0D01*
G01*
X128619444Y-113850000D01*
G75*
G02*
X128475000Y-113705556I0J144444D01*
G01*
G37*
G36*
G01*
X128475000Y-113055556D02*
X128475000Y-112694444D01*
G75*
G02*
X128619444Y-112550000I144444J0D01*
G01*
X129980556Y-112550000D01*
G75*
G02*
X130125000Y-112694444I0J-144444D01*
G01*
X130125000Y-113055556D01*
G75*
G02*
X129980556Y-113200000I-144444J0D01*
G01*
X128619444Y-113200000D01*
G75*
G02*
X128475000Y-113055556I0J144444D01*
G01*
G37*
G36*
G01*
X128475000Y-112405556D02*
X128475000Y-112044444D01*
G75*
G02*
X128619444Y-111900000I144444J0D01*
G01*
X129980556Y-111900000D01*
G75*
G02*
X130125000Y-112044444I0J-144444D01*
G01*
X130125000Y-112405556D01*
G75*
G02*
X129980556Y-112550000I-144444J0D01*
G01*
X128619444Y-112550000D01*
G75*
G02*
X128475000Y-112405556I0J144444D01*
G01*
G37*
G36*
G01*
X128475000Y-111755556D02*
X128475000Y-111394444D01*
G75*
G02*
X128619444Y-111250000I144444J0D01*
G01*
X129980556Y-111250000D01*
G75*
G02*
X130125000Y-111394444I0J-144444D01*
G01*
X130125000Y-111755556D01*
G75*
G02*
X129980556Y-111900000I-144444J0D01*
G01*
X128619444Y-111900000D01*
G75*
G02*
X128475000Y-111755556I0J144444D01*
G01*
G37*
G36*
G01*
X122575000Y-111755556D02*
X122575000Y-111394444D01*
G75*
G02*
X122719444Y-111250000I144444J0D01*
G01*
X124080556Y-111250000D01*
G75*
G02*
X124225000Y-111394444I0J-144444D01*
G01*
X124225000Y-111755556D01*
G75*
G02*
X124080556Y-111900000I-144444J0D01*
G01*
X122719444Y-111900000D01*
G75*
G02*
X122575000Y-111755556I0J144444D01*
G01*
G37*
G36*
G01*
X122575000Y-112405556D02*
X122575000Y-112044444D01*
G75*
G02*
X122719444Y-111900000I144444J0D01*
G01*
X124080556Y-111900000D01*
G75*
G02*
X124225000Y-112044444I0J-144444D01*
G01*
X124225000Y-112405556D01*
G75*
G02*
X124080556Y-112550000I-144444J0D01*
G01*
X122719444Y-112550000D01*
G75*
G02*
X122575000Y-112405556I0J144444D01*
G01*
G37*
G36*
G01*
X122575000Y-113055556D02*
X122575000Y-112694444D01*
G75*
G02*
X122719444Y-112550000I144444J0D01*
G01*
X124080556Y-112550000D01*
G75*
G02*
X124225000Y-112694444I0J-144444D01*
G01*
X124225000Y-113055556D01*
G75*
G02*
X124080556Y-113200000I-144444J0D01*
G01*
X122719444Y-113200000D01*
G75*
G02*
X122575000Y-113055556I0J144444D01*
G01*
G37*
G36*
G01*
X122575000Y-113705556D02*
X122575000Y-113344444D01*
G75*
G02*
X122719444Y-113200000I144444J0D01*
G01*
X124080556Y-113200000D01*
G75*
G02*
X124225000Y-113344444I0J-144444D01*
G01*
X124225000Y-113705556D01*
G75*
G02*
X124080556Y-113850000I-144444J0D01*
G01*
X122719444Y-113850000D01*
G75*
G02*
X122575000Y-113705556I0J144444D01*
G01*
G37*
G36*
G01*
X122575000Y-114355556D02*
X122575000Y-113994444D01*
G75*
G02*
X122719444Y-113850000I144444J0D01*
G01*
X124080556Y-113850000D01*
G75*
G02*
X124225000Y-113994444I0J-144444D01*
G01*
X124225000Y-114355556D01*
G75*
G02*
X124080556Y-114500000I-144444J0D01*
G01*
X122719444Y-114500000D01*
G75*
G02*
X122575000Y-114355556I0J144444D01*
G01*
G37*
G36*
G01*
X122575000Y-115005556D02*
X122575000Y-114644444D01*
G75*
G02*
X122719444Y-114500000I144444J0D01*
G01*
X124080556Y-114500000D01*
G75*
G02*
X124225000Y-114644444I0J-144444D01*
G01*
X124225000Y-115005556D01*
G75*
G02*
X124080556Y-115150000I-144444J0D01*
G01*
X122719444Y-115150000D01*
G75*
G02*
X122575000Y-115005556I0J144444D01*
G01*
G37*
G36*
G01*
X122575000Y-115655556D02*
X122575000Y-115294444D01*
G75*
G02*
X122719444Y-115150000I144444J0D01*
G01*
X124080556Y-115150000D01*
G75*
G02*
X124225000Y-115294444I0J-144444D01*
G01*
X124225000Y-115655556D01*
G75*
G02*
X124080556Y-115800000I-144444J0D01*
G01*
X122719444Y-115800000D01*
G75*
G02*
X122575000Y-115655556I0J144444D01*
G01*
G37*
G36*
G01*
X122575000Y-116305556D02*
X122575000Y-115944444D01*
G75*
G02*
X122719444Y-115800000I144444J0D01*
G01*
X124080556Y-115800000D01*
G75*
G02*
X124225000Y-115944444I0J-144444D01*
G01*
X124225000Y-116305556D01*
G75*
G02*
X124080556Y-116450000I-144444J0D01*
G01*
X122719444Y-116450000D01*
G75*
G02*
X122575000Y-116305556I0J144444D01*
G01*
G37*
G36*
G01*
X122575000Y-116955556D02*
X122575000Y-116594444D01*
G75*
G02*
X122719444Y-116450000I144444J0D01*
G01*
X124080556Y-116450000D01*
G75*
G02*
X124225000Y-116594444I0J-144444D01*
G01*
X124225000Y-116955556D01*
G75*
G02*
X124080556Y-117100000I-144444J0D01*
G01*
X122719444Y-117100000D01*
G75*
G02*
X122575000Y-116955556I0J144444D01*
G01*
G37*
G36*
G01*
X122575000Y-117605556D02*
X122575000Y-117244444D01*
G75*
G02*
X122719444Y-117100000I144444J0D01*
G01*
X124080556Y-117100000D01*
G75*
G02*
X124225000Y-117244444I0J-144444D01*
G01*
X124225000Y-117605556D01*
G75*
G02*
X124080556Y-117750000I-144444J0D01*
G01*
X122719444Y-117750000D01*
G75*
G02*
X122575000Y-117605556I0J144444D01*
G01*
G37*
G36*
G01*
X128475000Y-110455556D02*
X128475000Y-110094444D01*
G75*
G02*
X128619444Y-109950000I144444J0D01*
G01*
X129980556Y-109950000D01*
G75*
G02*
X130125000Y-110094444I0J-144444D01*
G01*
X130125000Y-110455556D01*
G75*
G02*
X129980556Y-110600000I-144444J0D01*
G01*
X128619444Y-110600000D01*
G75*
G02*
X128475000Y-110455556I0J144444D01*
G01*
G37*
G36*
G01*
X128475000Y-109805556D02*
X128475000Y-109444444D01*
G75*
G02*
X128619444Y-109300000I144444J0D01*
G01*
X129980556Y-109300000D01*
G75*
G02*
X130125000Y-109444444I0J-144444D01*
G01*
X130125000Y-109805556D01*
G75*
G02*
X129980556Y-109950000I-144444J0D01*
G01*
X128619444Y-109950000D01*
G75*
G02*
X128475000Y-109805556I0J144444D01*
G01*
G37*
G36*
G01*
X128475000Y-109155556D02*
X128475000Y-108794444D01*
G75*
G02*
X128619444Y-108650000I144444J0D01*
G01*
X129980556Y-108650000D01*
G75*
G02*
X130125000Y-108794444I0J-144444D01*
G01*
X130125000Y-109155556D01*
G75*
G02*
X129980556Y-109300000I-144444J0D01*
G01*
X128619444Y-109300000D01*
G75*
G02*
X128475000Y-109155556I0J144444D01*
G01*
G37*
G36*
G01*
X128475000Y-108505556D02*
X128475000Y-108144444D01*
G75*
G02*
X128619444Y-108000000I144444J0D01*
G01*
X129980556Y-108000000D01*
G75*
G02*
X130125000Y-108144444I0J-144444D01*
G01*
X130125000Y-108505556D01*
G75*
G02*
X129980556Y-108650000I-144444J0D01*
G01*
X128619444Y-108650000D01*
G75*
G02*
X128475000Y-108505556I0J144444D01*
G01*
G37*
G36*
G01*
X128475000Y-107855556D02*
X128475000Y-107494444D01*
G75*
G02*
X128619444Y-107350000I144444J0D01*
G01*
X129980556Y-107350000D01*
G75*
G02*
X130125000Y-107494444I0J-144444D01*
G01*
X130125000Y-107855556D01*
G75*
G02*
X129980556Y-108000000I-144444J0D01*
G01*
X128619444Y-108000000D01*
G75*
G02*
X128475000Y-107855556I0J144444D01*
G01*
G37*
G36*
G01*
X128475000Y-107205556D02*
X128475000Y-106844444D01*
G75*
G02*
X128619444Y-106700000I144444J0D01*
G01*
X129980556Y-106700000D01*
G75*
G02*
X130125000Y-106844444I0J-144444D01*
G01*
X130125000Y-107205556D01*
G75*
G02*
X129980556Y-107350000I-144444J0D01*
G01*
X128619444Y-107350000D01*
G75*
G02*
X128475000Y-107205556I0J144444D01*
G01*
G37*
G36*
G01*
X128475000Y-106555556D02*
X128475000Y-106194444D01*
G75*
G02*
X128619444Y-106050000I144444J0D01*
G01*
X129980556Y-106050000D01*
G75*
G02*
X130125000Y-106194444I0J-144444D01*
G01*
X130125000Y-106555556D01*
G75*
G02*
X129980556Y-106700000I-144444J0D01*
G01*
X128619444Y-106700000D01*
G75*
G02*
X128475000Y-106555556I0J144444D01*
G01*
G37*
G36*
G01*
X128475000Y-105905556D02*
X128475000Y-105544444D01*
G75*
G02*
X128619444Y-105400000I144444J0D01*
G01*
X129980556Y-105400000D01*
G75*
G02*
X130125000Y-105544444I0J-144444D01*
G01*
X130125000Y-105905556D01*
G75*
G02*
X129980556Y-106050000I-144444J0D01*
G01*
X128619444Y-106050000D01*
G75*
G02*
X128475000Y-105905556I0J144444D01*
G01*
G37*
G36*
G01*
X128475000Y-105255556D02*
X128475000Y-104894444D01*
G75*
G02*
X128619444Y-104750000I144444J0D01*
G01*
X129980556Y-104750000D01*
G75*
G02*
X130125000Y-104894444I0J-144444D01*
G01*
X130125000Y-105255556D01*
G75*
G02*
X129980556Y-105400000I-144444J0D01*
G01*
X128619444Y-105400000D01*
G75*
G02*
X128475000Y-105255556I0J144444D01*
G01*
G37*
G36*
G01*
X128475000Y-104605556D02*
X128475000Y-104244444D01*
G75*
G02*
X128619444Y-104100000I144444J0D01*
G01*
X129980556Y-104100000D01*
G75*
G02*
X130125000Y-104244444I0J-144444D01*
G01*
X130125000Y-104605556D01*
G75*
G02*
X129980556Y-104750000I-144444J0D01*
G01*
X128619444Y-104750000D01*
G75*
G02*
X128475000Y-104605556I0J144444D01*
G01*
G37*
G36*
G01*
X122575000Y-104605556D02*
X122575000Y-104244444D01*
G75*
G02*
X122719444Y-104100000I144444J0D01*
G01*
X124080556Y-104100000D01*
G75*
G02*
X124225000Y-104244444I0J-144444D01*
G01*
X124225000Y-104605556D01*
G75*
G02*
X124080556Y-104750000I-144444J0D01*
G01*
X122719444Y-104750000D01*
G75*
G02*
X122575000Y-104605556I0J144444D01*
G01*
G37*
G36*
G01*
X122575000Y-105255556D02*
X122575000Y-104894444D01*
G75*
G02*
X122719444Y-104750000I144444J0D01*
G01*
X124080556Y-104750000D01*
G75*
G02*
X124225000Y-104894444I0J-144444D01*
G01*
X124225000Y-105255556D01*
G75*
G02*
X124080556Y-105400000I-144444J0D01*
G01*
X122719444Y-105400000D01*
G75*
G02*
X122575000Y-105255556I0J144444D01*
G01*
G37*
G36*
G01*
X122575000Y-105905556D02*
X122575000Y-105544444D01*
G75*
G02*
X122719444Y-105400000I144444J0D01*
G01*
X124080556Y-105400000D01*
G75*
G02*
X124225000Y-105544444I0J-144444D01*
G01*
X124225000Y-105905556D01*
G75*
G02*
X124080556Y-106050000I-144444J0D01*
G01*
X122719444Y-106050000D01*
G75*
G02*
X122575000Y-105905556I0J144444D01*
G01*
G37*
G36*
G01*
X122575000Y-106555556D02*
X122575000Y-106194444D01*
G75*
G02*
X122719444Y-106050000I144444J0D01*
G01*
X124080556Y-106050000D01*
G75*
G02*
X124225000Y-106194444I0J-144444D01*
G01*
X124225000Y-106555556D01*
G75*
G02*
X124080556Y-106700000I-144444J0D01*
G01*
X122719444Y-106700000D01*
G75*
G02*
X122575000Y-106555556I0J144444D01*
G01*
G37*
G36*
G01*
X122575000Y-107205556D02*
X122575000Y-106844444D01*
G75*
G02*
X122719444Y-106700000I144444J0D01*
G01*
X124080556Y-106700000D01*
G75*
G02*
X124225000Y-106844444I0J-144444D01*
G01*
X124225000Y-107205556D01*
G75*
G02*
X124080556Y-107350000I-144444J0D01*
G01*
X122719444Y-107350000D01*
G75*
G02*
X122575000Y-107205556I0J144444D01*
G01*
G37*
G36*
G01*
X122575000Y-107855556D02*
X122575000Y-107494444D01*
G75*
G02*
X122719444Y-107350000I144444J0D01*
G01*
X124080556Y-107350000D01*
G75*
G02*
X124225000Y-107494444I0J-144444D01*
G01*
X124225000Y-107855556D01*
G75*
G02*
X124080556Y-108000000I-144444J0D01*
G01*
X122719444Y-108000000D01*
G75*
G02*
X122575000Y-107855556I0J144444D01*
G01*
G37*
G36*
G01*
X122575000Y-108505556D02*
X122575000Y-108144444D01*
G75*
G02*
X122719444Y-108000000I144444J0D01*
G01*
X124080556Y-108000000D01*
G75*
G02*
X124225000Y-108144444I0J-144444D01*
G01*
X124225000Y-108505556D01*
G75*
G02*
X124080556Y-108650000I-144444J0D01*
G01*
X122719444Y-108650000D01*
G75*
G02*
X122575000Y-108505556I0J144444D01*
G01*
G37*
G36*
G01*
X122575000Y-109155556D02*
X122575000Y-108794444D01*
G75*
G02*
X122719444Y-108650000I144444J0D01*
G01*
X124080556Y-108650000D01*
G75*
G02*
X124225000Y-108794444I0J-144444D01*
G01*
X124225000Y-109155556D01*
G75*
G02*
X124080556Y-109300000I-144444J0D01*
G01*
X122719444Y-109300000D01*
G75*
G02*
X122575000Y-109155556I0J144444D01*
G01*
G37*
G36*
G01*
X122575000Y-109805556D02*
X122575000Y-109444444D01*
G75*
G02*
X122719444Y-109300000I144444J0D01*
G01*
X124080556Y-109300000D01*
G75*
G02*
X124225000Y-109444444I0J-144444D01*
G01*
X124225000Y-109805556D01*
G75*
G02*
X124080556Y-109950000I-144444J0D01*
G01*
X122719444Y-109950000D01*
G75*
G02*
X122575000Y-109805556I0J144444D01*
G01*
G37*
G36*
G01*
X122575000Y-110455556D02*
X122575000Y-110094444D01*
G75*
G02*
X122719444Y-109950000I144444J0D01*
G01*
X124080556Y-109950000D01*
G75*
G02*
X124225000Y-110094444I0J-144444D01*
G01*
X124225000Y-110455556D01*
G75*
G02*
X124080556Y-110600000I-144444J0D01*
G01*
X122719444Y-110600000D01*
G75*
G02*
X122575000Y-110455556I0J144444D01*
G01*
G37*
G36*
X133894293Y-122439441D02*
G01*
X133926451Y-122479603D01*
X133985731Y-122502733D01*
X134048561Y-122493137D01*
X134105640Y-122440592D01*
X134107592Y-122440154D01*
X134108957Y-122442453D01*
X134092000Y-122527699D01*
X134092000Y-122872301D01*
X134109230Y-122958919D01*
X134108587Y-122960813D01*
X134106625Y-122961203D01*
X134105707Y-122960559D01*
X134073549Y-122920397D01*
X134014269Y-122897267D01*
X133951439Y-122906863D01*
X133894360Y-122959408D01*
X133892408Y-122959846D01*
X133891043Y-122957547D01*
X133908000Y-122872301D01*
X133908000Y-122527699D01*
X133890770Y-122441081D01*
X133891413Y-122439187D01*
X133893375Y-122438797D01*
X133894293Y-122439441D01*
G37*
G36*
X136394293Y-121939441D02*
G01*
X136426451Y-121979603D01*
X136485731Y-122002733D01*
X136548561Y-121993137D01*
X136605640Y-121940592D01*
X136607592Y-121940154D01*
X136608957Y-121942453D01*
X136592000Y-122027699D01*
X136592000Y-122372301D01*
X136609230Y-122458919D01*
X136608587Y-122460813D01*
X136606625Y-122461203D01*
X136605707Y-122460559D01*
X136573549Y-122420397D01*
X136514269Y-122397267D01*
X136451439Y-122406863D01*
X136394360Y-122459408D01*
X136392408Y-122459846D01*
X136391043Y-122457547D01*
X136408000Y-122372301D01*
X136408000Y-122027699D01*
X136390770Y-121941081D01*
X136391413Y-121939187D01*
X136393375Y-121938797D01*
X136394293Y-121939441D01*
G37*
G36*
X143394293Y-121939441D02*
G01*
X143426451Y-121979603D01*
X143485731Y-122002733D01*
X143548561Y-121993137D01*
X143605640Y-121940592D01*
X143607592Y-121940154D01*
X143608957Y-121942453D01*
X143592000Y-122027699D01*
X143592000Y-122372301D01*
X143609230Y-122458919D01*
X143608587Y-122460813D01*
X143606625Y-122461203D01*
X143605707Y-122460559D01*
X143573549Y-122420397D01*
X143514269Y-122397267D01*
X143451439Y-122406863D01*
X143394360Y-122459408D01*
X143392408Y-122459846D01*
X143391043Y-122457547D01*
X143408000Y-122372301D01*
X143408000Y-122027699D01*
X143390770Y-121941081D01*
X143391413Y-121939187D01*
X143393375Y-121938797D01*
X143394293Y-121939441D01*
G37*
G36*
X133709165Y-122036500D02*
G01*
X133709165Y-122038500D01*
X133707951Y-122039432D01*
X133645968Y-122056041D01*
X133600975Y-122101034D01*
X133584505Y-122162499D01*
X133600975Y-122223965D01*
X133646030Y-122269019D01*
X133681606Y-122281783D01*
X133682899Y-122283310D01*
X133682224Y-122285192D01*
X133680541Y-122285628D01*
X133662301Y-122282000D01*
X133367699Y-122282000D01*
X133296074Y-122296247D01*
X133294180Y-122295604D01*
X133293790Y-122293642D01*
X133294881Y-122292453D01*
X133308788Y-122286353D01*
X133309344Y-122286200D01*
X133322299Y-122284586D01*
X133381507Y-122260538D01*
X133420589Y-122210324D01*
X133429330Y-122147294D01*
X133405385Y-122088338D01*
X133355119Y-122049215D01*
X133306949Y-122039460D01*
X133305450Y-122038136D01*
X133305847Y-122036176D01*
X133307346Y-122035500D01*
X133707433Y-122035500D01*
X133709165Y-122036500D01*
G37*
G36*
X134985621Y-120755036D02*
G01*
X135012511Y-120773003D01*
X135050199Y-120780500D01*
X136949801Y-120780500D01*
X136987489Y-120773003D01*
X137014379Y-120755036D01*
X137016375Y-120754905D01*
X137017486Y-120756568D01*
X137017153Y-120757810D01*
X137009910Y-120768650D01*
X137009751Y-120768858D01*
X136986272Y-120795632D01*
X136973859Y-120858043D01*
X136994336Y-120918364D01*
X137014982Y-120939010D01*
X137015231Y-120939313D01*
X137017153Y-120942190D01*
X137017284Y-120944186D01*
X137015621Y-120945297D01*
X137014379Y-120944964D01*
X136987489Y-120926997D01*
X136949801Y-120919500D01*
X135050199Y-120919500D01*
X135012511Y-120926997D01*
X134985621Y-120944964D01*
X134983625Y-120945095D01*
X134982514Y-120943432D01*
X134982847Y-120942190D01*
X134990090Y-120931350D01*
X134990249Y-120931142D01*
X135013728Y-120904368D01*
X135026141Y-120841957D01*
X135005664Y-120781636D01*
X134985018Y-120760990D01*
X134984769Y-120760687D01*
X134982847Y-120757810D01*
X134982716Y-120755814D01*
X134984379Y-120754703D01*
X134985621Y-120755036D01*
G37*
G36*
X142985621Y-120755036D02*
G01*
X143012511Y-120773003D01*
X143050199Y-120780500D01*
X144949801Y-120780500D01*
X144987489Y-120773003D01*
X145014379Y-120755036D01*
X145016375Y-120754905D01*
X145017486Y-120756568D01*
X145017153Y-120757810D01*
X145009910Y-120768650D01*
X145009751Y-120768858D01*
X144986272Y-120795632D01*
X144973859Y-120858043D01*
X144994336Y-120918364D01*
X145014982Y-120939010D01*
X145015231Y-120939313D01*
X145017153Y-120942190D01*
X145017284Y-120944186D01*
X145015621Y-120945297D01*
X145014379Y-120944964D01*
X144987489Y-120926997D01*
X144949801Y-120919500D01*
X143050199Y-120919500D01*
X143012511Y-120926997D01*
X142985621Y-120944964D01*
X142983625Y-120945095D01*
X142982514Y-120943432D01*
X142982847Y-120942190D01*
X142990090Y-120931350D01*
X142990249Y-120931142D01*
X143013728Y-120904368D01*
X143026141Y-120841957D01*
X143005664Y-120781636D01*
X142985018Y-120760990D01*
X142984769Y-120760687D01*
X142982847Y-120757810D01*
X142982716Y-120755814D01*
X142984379Y-120754703D01*
X142985621Y-120755036D01*
G37*
G36*
X134985621Y-120120036D02*
G01*
X135012511Y-120138003D01*
X135050199Y-120145500D01*
X136949801Y-120145500D01*
X136987489Y-120138003D01*
X137014379Y-120120036D01*
X137016375Y-120119905D01*
X137017486Y-120121568D01*
X137017153Y-120122810D01*
X137009910Y-120133650D01*
X137009751Y-120133858D01*
X136986272Y-120160632D01*
X136973859Y-120223043D01*
X136994336Y-120283364D01*
X137014982Y-120304010D01*
X137015231Y-120304313D01*
X137017153Y-120307190D01*
X137017284Y-120309186D01*
X137015621Y-120310297D01*
X137014379Y-120309964D01*
X136987489Y-120291997D01*
X136949801Y-120284500D01*
X135050199Y-120284500D01*
X135012511Y-120291997D01*
X134985621Y-120309964D01*
X134983625Y-120310095D01*
X134982514Y-120308432D01*
X134982847Y-120307190D01*
X134990090Y-120296350D01*
X134990249Y-120296142D01*
X135013728Y-120269368D01*
X135026141Y-120206957D01*
X135005664Y-120146636D01*
X134985018Y-120125990D01*
X134984769Y-120125687D01*
X134982847Y-120122810D01*
X134982716Y-120120814D01*
X134984379Y-120119703D01*
X134985621Y-120120036D01*
G37*
G36*
X142985621Y-120120036D02*
G01*
X143012511Y-120138003D01*
X143050199Y-120145500D01*
X144949801Y-120145500D01*
X144987489Y-120138003D01*
X145014379Y-120120036D01*
X145016375Y-120119905D01*
X145017486Y-120121568D01*
X145017153Y-120122810D01*
X145009910Y-120133650D01*
X145009751Y-120133858D01*
X144986272Y-120160632D01*
X144973859Y-120223043D01*
X144994336Y-120283364D01*
X145014982Y-120304010D01*
X145015231Y-120304313D01*
X145017153Y-120307190D01*
X145017284Y-120309186D01*
X145015621Y-120310297D01*
X145014379Y-120309964D01*
X144987489Y-120291997D01*
X144949801Y-120284500D01*
X143050199Y-120284500D01*
X143012511Y-120291997D01*
X142985621Y-120309964D01*
X142983625Y-120310095D01*
X142982514Y-120308432D01*
X142982847Y-120307190D01*
X142990090Y-120296350D01*
X142990249Y-120296142D01*
X143013728Y-120269368D01*
X143026141Y-120206957D01*
X143005664Y-120146636D01*
X142985018Y-120125990D01*
X142984769Y-120125687D01*
X142982847Y-120122810D01*
X142982716Y-120120814D01*
X142984379Y-120119703D01*
X142985621Y-120120036D01*
G37*
G36*
X122160813Y-119676413D02*
G01*
X122161203Y-119678375D01*
X122160559Y-119679293D01*
X122120397Y-119711451D01*
X122097267Y-119770731D01*
X122106863Y-119833561D01*
X122159408Y-119890640D01*
X122159846Y-119892592D01*
X122157547Y-119893957D01*
X122072301Y-119877000D01*
X121727699Y-119877000D01*
X121641081Y-119894230D01*
X121639187Y-119893587D01*
X121638797Y-119891625D01*
X121639441Y-119890707D01*
X121679603Y-119858549D01*
X121702733Y-119799269D01*
X121693137Y-119736439D01*
X121640592Y-119679360D01*
X121640154Y-119677408D01*
X121642453Y-119676043D01*
X121727699Y-119693000D01*
X122072301Y-119693000D01*
X122158919Y-119675770D01*
X122160813Y-119676413D01*
G37*
G36*
X134985621Y-119485036D02*
G01*
X135012511Y-119503003D01*
X135050199Y-119510500D01*
X136949801Y-119510500D01*
X136987489Y-119503003D01*
X137014379Y-119485036D01*
X137016375Y-119484905D01*
X137017486Y-119486568D01*
X137017153Y-119487810D01*
X137009910Y-119498650D01*
X137009751Y-119498858D01*
X136986272Y-119525632D01*
X136973859Y-119588043D01*
X136994336Y-119648364D01*
X137014982Y-119669010D01*
X137015231Y-119669313D01*
X137017153Y-119672190D01*
X137017284Y-119674186D01*
X137015621Y-119675297D01*
X137014379Y-119674964D01*
X136987489Y-119656997D01*
X136949801Y-119649500D01*
X135050199Y-119649500D01*
X135012511Y-119656997D01*
X134985621Y-119674964D01*
X134983625Y-119675095D01*
X134982514Y-119673432D01*
X134982847Y-119672190D01*
X134990090Y-119661350D01*
X134990249Y-119661142D01*
X135013728Y-119634368D01*
X135026141Y-119571957D01*
X135005664Y-119511636D01*
X134985018Y-119490990D01*
X134984769Y-119490687D01*
X134982847Y-119487810D01*
X134982716Y-119485814D01*
X134984379Y-119484703D01*
X134985621Y-119485036D01*
G37*
G36*
X142985621Y-119485036D02*
G01*
X143012511Y-119503003D01*
X143050199Y-119510500D01*
X144949801Y-119510500D01*
X144987489Y-119503003D01*
X145014379Y-119485036D01*
X145016375Y-119484905D01*
X145017486Y-119486568D01*
X145017153Y-119487810D01*
X145009910Y-119498650D01*
X145009751Y-119498858D01*
X144986272Y-119525632D01*
X144973859Y-119588043D01*
X144994336Y-119648364D01*
X145014982Y-119669010D01*
X145015231Y-119669313D01*
X145017153Y-119672190D01*
X145017284Y-119674186D01*
X145015621Y-119675297D01*
X145014379Y-119674964D01*
X144987489Y-119656997D01*
X144949801Y-119649500D01*
X143050199Y-119649500D01*
X143012511Y-119656997D01*
X142985621Y-119674964D01*
X142983625Y-119675095D01*
X142982514Y-119673432D01*
X142982847Y-119672190D01*
X142990090Y-119661350D01*
X142990249Y-119661142D01*
X143013728Y-119634368D01*
X143026141Y-119571957D01*
X143005664Y-119511636D01*
X142985018Y-119490990D01*
X142984769Y-119490687D01*
X142982847Y-119487810D01*
X142982716Y-119485814D01*
X142984379Y-119484703D01*
X142985621Y-119485036D01*
G37*
G36*
X150960813Y-119391413D02*
G01*
X150961203Y-119393375D01*
X150960559Y-119394293D01*
X150920397Y-119426451D01*
X150897267Y-119485731D01*
X150906863Y-119548561D01*
X150959408Y-119605640D01*
X150959846Y-119607592D01*
X150957547Y-119608957D01*
X150872301Y-119592000D01*
X150527699Y-119592000D01*
X150441081Y-119609230D01*
X150439187Y-119608587D01*
X150438797Y-119606625D01*
X150439441Y-119605707D01*
X150479603Y-119573549D01*
X150502733Y-119514269D01*
X150493137Y-119451439D01*
X150440592Y-119394360D01*
X150440154Y-119392408D01*
X150442453Y-119391043D01*
X150527699Y-119408000D01*
X150872301Y-119408000D01*
X150958919Y-119390770D01*
X150960813Y-119391413D01*
G37*
G36*
X134985621Y-118850036D02*
G01*
X135012511Y-118868003D01*
X135050199Y-118875500D01*
X136949801Y-118875500D01*
X136987489Y-118868003D01*
X137014379Y-118850036D01*
X137016375Y-118849905D01*
X137017486Y-118851568D01*
X137017153Y-118852810D01*
X137009910Y-118863650D01*
X137009751Y-118863858D01*
X136986272Y-118890632D01*
X136973859Y-118953043D01*
X136994336Y-119013364D01*
X137014982Y-119034010D01*
X137015231Y-119034313D01*
X137017153Y-119037190D01*
X137017284Y-119039186D01*
X137015621Y-119040297D01*
X137014379Y-119039964D01*
X136987489Y-119021997D01*
X136949801Y-119014500D01*
X135050199Y-119014500D01*
X135012511Y-119021997D01*
X134985621Y-119039964D01*
X134983625Y-119040095D01*
X134982514Y-119038432D01*
X134982847Y-119037190D01*
X134990090Y-119026350D01*
X134990249Y-119026142D01*
X135013728Y-118999368D01*
X135026141Y-118936957D01*
X135005664Y-118876636D01*
X134985018Y-118855990D01*
X134984769Y-118855687D01*
X134982847Y-118852810D01*
X134982716Y-118850814D01*
X134984379Y-118849703D01*
X134985621Y-118850036D01*
G37*
G36*
X142985621Y-118850036D02*
G01*
X143012511Y-118868003D01*
X143050199Y-118875500D01*
X144949801Y-118875500D01*
X144987489Y-118868003D01*
X145014379Y-118850036D01*
X145016375Y-118849905D01*
X145017486Y-118851568D01*
X145017153Y-118852810D01*
X145009910Y-118863650D01*
X145009751Y-118863858D01*
X144986272Y-118890632D01*
X144973859Y-118953043D01*
X144994336Y-119013364D01*
X145014982Y-119034010D01*
X145015231Y-119034313D01*
X145017153Y-119037190D01*
X145017284Y-119039186D01*
X145015621Y-119040297D01*
X145014379Y-119039964D01*
X144987489Y-119021997D01*
X144949801Y-119014500D01*
X143050199Y-119014500D01*
X143012511Y-119021997D01*
X142985621Y-119039964D01*
X142983625Y-119040095D01*
X142982514Y-119038432D01*
X142982847Y-119037190D01*
X142990090Y-119026350D01*
X142990249Y-119026142D01*
X143013728Y-118999368D01*
X143026141Y-118936957D01*
X143005664Y-118876636D01*
X142985018Y-118855990D01*
X142984769Y-118855687D01*
X142982847Y-118852810D01*
X142982716Y-118850814D01*
X142984379Y-118849703D01*
X142985621Y-118850036D01*
G37*
G36*
X134985621Y-118215036D02*
G01*
X135012511Y-118233003D01*
X135050199Y-118240500D01*
X136949801Y-118240500D01*
X136987489Y-118233003D01*
X137014379Y-118215036D01*
X137016375Y-118214905D01*
X137017486Y-118216568D01*
X137017153Y-118217810D01*
X137009910Y-118228650D01*
X137009751Y-118228858D01*
X136986272Y-118255632D01*
X136973859Y-118318043D01*
X136994336Y-118378364D01*
X137014982Y-118399010D01*
X137015231Y-118399313D01*
X137017153Y-118402190D01*
X137017284Y-118404186D01*
X137015621Y-118405297D01*
X137014379Y-118404964D01*
X136987489Y-118386997D01*
X136949801Y-118379500D01*
X135050199Y-118379500D01*
X135012511Y-118386997D01*
X134985621Y-118404964D01*
X134983625Y-118405095D01*
X134982514Y-118403432D01*
X134982847Y-118402190D01*
X134990090Y-118391350D01*
X134990249Y-118391142D01*
X135013728Y-118364368D01*
X135026141Y-118301957D01*
X135005664Y-118241636D01*
X134985018Y-118220990D01*
X134984769Y-118220687D01*
X134982847Y-118217810D01*
X134982716Y-118215814D01*
X134984379Y-118214703D01*
X134985621Y-118215036D01*
G37*
G36*
X142985621Y-118215036D02*
G01*
X143012511Y-118233003D01*
X143050199Y-118240500D01*
X144949801Y-118240500D01*
X144987489Y-118233003D01*
X145014379Y-118215036D01*
X145016375Y-118214905D01*
X145017486Y-118216568D01*
X145017153Y-118217810D01*
X145009910Y-118228650D01*
X145009751Y-118228858D01*
X144986272Y-118255632D01*
X144973859Y-118318043D01*
X144994336Y-118378364D01*
X145014982Y-118399010D01*
X145015231Y-118399313D01*
X145017153Y-118402190D01*
X145017284Y-118404186D01*
X145015621Y-118405297D01*
X145014379Y-118404964D01*
X144987489Y-118386997D01*
X144949801Y-118379500D01*
X143050199Y-118379500D01*
X143012511Y-118386997D01*
X142985621Y-118404964D01*
X142983625Y-118405095D01*
X142982514Y-118403432D01*
X142982847Y-118402190D01*
X142990090Y-118391350D01*
X142990249Y-118391142D01*
X143013728Y-118364368D01*
X143026141Y-118301957D01*
X143005664Y-118241636D01*
X142985018Y-118220990D01*
X142984769Y-118220687D01*
X142982847Y-118217810D01*
X142982716Y-118215814D01*
X142984379Y-118214703D01*
X142985621Y-118215036D01*
G37*
G36*
X142985621Y-117580036D02*
G01*
X143012511Y-117598003D01*
X143050199Y-117605500D01*
X144949801Y-117605500D01*
X144987489Y-117598003D01*
X145014379Y-117580036D01*
X145016375Y-117579905D01*
X145017486Y-117581568D01*
X145017153Y-117582810D01*
X145009910Y-117593650D01*
X145009751Y-117593858D01*
X144986272Y-117620632D01*
X144973859Y-117683043D01*
X144994336Y-117743364D01*
X145014982Y-117764010D01*
X145015231Y-117764313D01*
X145017153Y-117767190D01*
X145017284Y-117769186D01*
X145015621Y-117770297D01*
X145014379Y-117769964D01*
X144987489Y-117751997D01*
X144949801Y-117744500D01*
X143050199Y-117744500D01*
X143012511Y-117751997D01*
X142985621Y-117769964D01*
X142983625Y-117770095D01*
X142982514Y-117768432D01*
X142982847Y-117767190D01*
X142990090Y-117756350D01*
X142990249Y-117756142D01*
X143013728Y-117729368D01*
X143026141Y-117666957D01*
X143005664Y-117606636D01*
X142985018Y-117585990D01*
X142984769Y-117585687D01*
X142982847Y-117582810D01*
X142982716Y-117580814D01*
X142984379Y-117579703D01*
X142985621Y-117580036D01*
G37*
G36*
X134985621Y-117580036D02*
G01*
X135012511Y-117598003D01*
X135050199Y-117605500D01*
X136949801Y-117605500D01*
X136987489Y-117598003D01*
X137014379Y-117580036D01*
X137016375Y-117579905D01*
X137017486Y-117581568D01*
X137017153Y-117582810D01*
X137009910Y-117593650D01*
X137009751Y-117593858D01*
X136986272Y-117620632D01*
X136973859Y-117683043D01*
X136994336Y-117743364D01*
X137014982Y-117764010D01*
X137015231Y-117764313D01*
X137017153Y-117767190D01*
X137017284Y-117769186D01*
X137015621Y-117770297D01*
X137014379Y-117769964D01*
X136987489Y-117751997D01*
X136949801Y-117744500D01*
X135050199Y-117744500D01*
X135012511Y-117751997D01*
X134985621Y-117769964D01*
X134983625Y-117770095D01*
X134982514Y-117768432D01*
X134982847Y-117767190D01*
X134990090Y-117756350D01*
X134990249Y-117756142D01*
X135013728Y-117729368D01*
X135026141Y-117666957D01*
X135005664Y-117606636D01*
X134985018Y-117585990D01*
X134984769Y-117585687D01*
X134982847Y-117582810D01*
X134982716Y-117580814D01*
X134984379Y-117579703D01*
X134985621Y-117580036D01*
G37*
G36*
X142985621Y-116945036D02*
G01*
X143012511Y-116963003D01*
X143050199Y-116970500D01*
X144949801Y-116970500D01*
X144987489Y-116963003D01*
X145014379Y-116945036D01*
X145016375Y-116944905D01*
X145017486Y-116946568D01*
X145017153Y-116947810D01*
X145009910Y-116958650D01*
X145009751Y-116958858D01*
X144986272Y-116985632D01*
X144973859Y-117048043D01*
X144994336Y-117108364D01*
X145014982Y-117129010D01*
X145015231Y-117129313D01*
X145017153Y-117132190D01*
X145017284Y-117134186D01*
X145015621Y-117135297D01*
X145014379Y-117134964D01*
X144987489Y-117116997D01*
X144949801Y-117109500D01*
X143050199Y-117109500D01*
X143012511Y-117116997D01*
X142985621Y-117134964D01*
X142983625Y-117135095D01*
X142982514Y-117133432D01*
X142982847Y-117132190D01*
X142990090Y-117121350D01*
X142990249Y-117121142D01*
X143013728Y-117094368D01*
X143026141Y-117031957D01*
X143005664Y-116971636D01*
X142985018Y-116950990D01*
X142984769Y-116950687D01*
X142982847Y-116947810D01*
X142982716Y-116945814D01*
X142984379Y-116944703D01*
X142985621Y-116945036D01*
G37*
G36*
X134985621Y-116945036D02*
G01*
X135012511Y-116963003D01*
X135050199Y-116970500D01*
X136949801Y-116970500D01*
X136987489Y-116963003D01*
X137014379Y-116945036D01*
X137016375Y-116944905D01*
X137017486Y-116946568D01*
X137017153Y-116947810D01*
X137009910Y-116958650D01*
X137009751Y-116958858D01*
X136986272Y-116985632D01*
X136973859Y-117048043D01*
X136994336Y-117108364D01*
X137014982Y-117129010D01*
X137015231Y-117129313D01*
X137017153Y-117132190D01*
X137017284Y-117134186D01*
X137015621Y-117135297D01*
X137014379Y-117134964D01*
X136987489Y-117116997D01*
X136949801Y-117109500D01*
X135050199Y-117109500D01*
X135012511Y-117116997D01*
X134985621Y-117134964D01*
X134983625Y-117135095D01*
X134982514Y-117133432D01*
X134982847Y-117132190D01*
X134990090Y-117121350D01*
X134990249Y-117121142D01*
X135013728Y-117094368D01*
X135026141Y-117031957D01*
X135005664Y-116971636D01*
X134985018Y-116950990D01*
X134984769Y-116950687D01*
X134982847Y-116947810D01*
X134982716Y-116945814D01*
X134984379Y-116944703D01*
X134985621Y-116945036D01*
G37*
G36*
X134985621Y-116310036D02*
G01*
X135012511Y-116328003D01*
X135050199Y-116335500D01*
X136949801Y-116335500D01*
X136987489Y-116328003D01*
X137014379Y-116310036D01*
X137016375Y-116309905D01*
X137017486Y-116311568D01*
X137017153Y-116312810D01*
X137009910Y-116323650D01*
X137009751Y-116323858D01*
X136986272Y-116350632D01*
X136973859Y-116413043D01*
X136994336Y-116473364D01*
X137014982Y-116494010D01*
X137015231Y-116494313D01*
X137017153Y-116497190D01*
X137017284Y-116499186D01*
X137015621Y-116500297D01*
X137014379Y-116499964D01*
X136987489Y-116481997D01*
X136949801Y-116474500D01*
X135050199Y-116474500D01*
X135012511Y-116481997D01*
X134985621Y-116499964D01*
X134983625Y-116500095D01*
X134982514Y-116498432D01*
X134982847Y-116497190D01*
X134990090Y-116486350D01*
X134990249Y-116486142D01*
X135013728Y-116459368D01*
X135026141Y-116396957D01*
X135005664Y-116336636D01*
X134985018Y-116315990D01*
X134984769Y-116315687D01*
X134982847Y-116312810D01*
X134982716Y-116310814D01*
X134984379Y-116309703D01*
X134985621Y-116310036D01*
G37*
G36*
X142985621Y-116310036D02*
G01*
X143012511Y-116328003D01*
X143050199Y-116335500D01*
X144949801Y-116335500D01*
X144987489Y-116328003D01*
X145014379Y-116310036D01*
X145016375Y-116309905D01*
X145017486Y-116311568D01*
X145017153Y-116312810D01*
X145009910Y-116323650D01*
X145009751Y-116323858D01*
X144986272Y-116350632D01*
X144973859Y-116413043D01*
X144994336Y-116473364D01*
X145014982Y-116494010D01*
X145015231Y-116494313D01*
X145017153Y-116497190D01*
X145017284Y-116499186D01*
X145015621Y-116500297D01*
X145014379Y-116499964D01*
X144987489Y-116481997D01*
X144949801Y-116474500D01*
X143050199Y-116474500D01*
X143012511Y-116481997D01*
X142985621Y-116499964D01*
X142983625Y-116500095D01*
X142982514Y-116498432D01*
X142982847Y-116497190D01*
X142990090Y-116486350D01*
X142990249Y-116486142D01*
X143013728Y-116459368D01*
X143026141Y-116396957D01*
X143005664Y-116336636D01*
X142985018Y-116315990D01*
X142984769Y-116315687D01*
X142982847Y-116312810D01*
X142982716Y-116310814D01*
X142984379Y-116309703D01*
X142985621Y-116310036D01*
G37*
G36*
X142985621Y-115675036D02*
G01*
X143012511Y-115693003D01*
X143050199Y-115700500D01*
X144949801Y-115700500D01*
X144987489Y-115693003D01*
X145014379Y-115675036D01*
X145016375Y-115674905D01*
X145017486Y-115676568D01*
X145017153Y-115677810D01*
X145009910Y-115688650D01*
X145009751Y-115688858D01*
X144986272Y-115715632D01*
X144973859Y-115778043D01*
X144994336Y-115838364D01*
X145014982Y-115859010D01*
X145015231Y-115859313D01*
X145017153Y-115862190D01*
X145017284Y-115864186D01*
X145015621Y-115865297D01*
X145014379Y-115864964D01*
X144987489Y-115846997D01*
X144949801Y-115839500D01*
X143050199Y-115839500D01*
X143012511Y-115846997D01*
X142985621Y-115864964D01*
X142983625Y-115865095D01*
X142982514Y-115863432D01*
X142982847Y-115862190D01*
X142990090Y-115851350D01*
X142990249Y-115851142D01*
X143013728Y-115824368D01*
X143026141Y-115761957D01*
X143005664Y-115701636D01*
X142985018Y-115680990D01*
X142984769Y-115680687D01*
X142982847Y-115677810D01*
X142982716Y-115675814D01*
X142984379Y-115674703D01*
X142985621Y-115675036D01*
G37*
G36*
X134985621Y-115675036D02*
G01*
X135012511Y-115693003D01*
X135050199Y-115700500D01*
X136949801Y-115700500D01*
X136987489Y-115693003D01*
X137014379Y-115675036D01*
X137016375Y-115674905D01*
X137017486Y-115676568D01*
X137017153Y-115677810D01*
X137009910Y-115688650D01*
X137009751Y-115688858D01*
X136986272Y-115715632D01*
X136973859Y-115778043D01*
X136994336Y-115838364D01*
X137014982Y-115859010D01*
X137015231Y-115859313D01*
X137017153Y-115862190D01*
X137017284Y-115864186D01*
X137015621Y-115865297D01*
X137014379Y-115864964D01*
X136987489Y-115846997D01*
X136949801Y-115839500D01*
X135050199Y-115839500D01*
X135012511Y-115846997D01*
X134985621Y-115864964D01*
X134983625Y-115865095D01*
X134982514Y-115863432D01*
X134982847Y-115862190D01*
X134990090Y-115851350D01*
X134990249Y-115851142D01*
X135013728Y-115824368D01*
X135026141Y-115761957D01*
X135005664Y-115701636D01*
X134985018Y-115680990D01*
X134984769Y-115680687D01*
X134982847Y-115677810D01*
X134982716Y-115675814D01*
X134984379Y-115674703D01*
X134985621Y-115675036D01*
G37*
G36*
X142985621Y-115040036D02*
G01*
X143012511Y-115058003D01*
X143050199Y-115065500D01*
X144949801Y-115065500D01*
X144987489Y-115058003D01*
X145014379Y-115040036D01*
X145016375Y-115039905D01*
X145017486Y-115041568D01*
X145017153Y-115042810D01*
X145009910Y-115053650D01*
X145009751Y-115053858D01*
X144986272Y-115080632D01*
X144973859Y-115143043D01*
X144994336Y-115203364D01*
X145014982Y-115224010D01*
X145015231Y-115224313D01*
X145017153Y-115227190D01*
X145017284Y-115229186D01*
X145015621Y-115230297D01*
X145014379Y-115229964D01*
X144987489Y-115211997D01*
X144949801Y-115204500D01*
X143050199Y-115204500D01*
X143012511Y-115211997D01*
X142985621Y-115229964D01*
X142983625Y-115230095D01*
X142982514Y-115228432D01*
X142982847Y-115227190D01*
X142990090Y-115216350D01*
X142990249Y-115216142D01*
X143013728Y-115189368D01*
X143026141Y-115126957D01*
X143005664Y-115066636D01*
X142985018Y-115045990D01*
X142984769Y-115045687D01*
X142982847Y-115042810D01*
X142982716Y-115040814D01*
X142984379Y-115039703D01*
X142985621Y-115040036D01*
G37*
G36*
X134985621Y-115040036D02*
G01*
X135012511Y-115058003D01*
X135050199Y-115065500D01*
X136949801Y-115065500D01*
X136987489Y-115058003D01*
X137014379Y-115040036D01*
X137016375Y-115039905D01*
X137017486Y-115041568D01*
X137017153Y-115042810D01*
X137009910Y-115053650D01*
X137009751Y-115053858D01*
X136986272Y-115080632D01*
X136973859Y-115143043D01*
X136994336Y-115203364D01*
X137014982Y-115224010D01*
X137015231Y-115224313D01*
X137017153Y-115227190D01*
X137017284Y-115229186D01*
X137015621Y-115230297D01*
X137014379Y-115229964D01*
X136987489Y-115211997D01*
X136949801Y-115204500D01*
X135050199Y-115204500D01*
X135012511Y-115211997D01*
X134985621Y-115229964D01*
X134983625Y-115230095D01*
X134982514Y-115228432D01*
X134982847Y-115227190D01*
X134990090Y-115216350D01*
X134990249Y-115216142D01*
X135013728Y-115189368D01*
X135026141Y-115126957D01*
X135005664Y-115066636D01*
X134985018Y-115045990D01*
X134984769Y-115045687D01*
X134982847Y-115042810D01*
X134982716Y-115040814D01*
X134984379Y-115039703D01*
X134985621Y-115040036D01*
G37*
G36*
X134985621Y-114405036D02*
G01*
X135012511Y-114423003D01*
X135050199Y-114430500D01*
X136949801Y-114430500D01*
X136987489Y-114423003D01*
X137014379Y-114405036D01*
X137016375Y-114404905D01*
X137017486Y-114406568D01*
X137017153Y-114407810D01*
X137009910Y-114418650D01*
X137009751Y-114418858D01*
X136986272Y-114445632D01*
X136973859Y-114508043D01*
X136994336Y-114568364D01*
X137014982Y-114589010D01*
X137015231Y-114589313D01*
X137017153Y-114592190D01*
X137017284Y-114594186D01*
X137015621Y-114595297D01*
X137014379Y-114594964D01*
X136987489Y-114576997D01*
X136949801Y-114569500D01*
X135050199Y-114569500D01*
X135012511Y-114576997D01*
X134985621Y-114594964D01*
X134983625Y-114595095D01*
X134982514Y-114593432D01*
X134982847Y-114592190D01*
X134990090Y-114581350D01*
X134990249Y-114581142D01*
X135013728Y-114554368D01*
X135026141Y-114491957D01*
X135005664Y-114431636D01*
X134985018Y-114410990D01*
X134984769Y-114410687D01*
X134982847Y-114407810D01*
X134982716Y-114405814D01*
X134984379Y-114404703D01*
X134985621Y-114405036D01*
G37*
G36*
X142985621Y-114405036D02*
G01*
X143012511Y-114423003D01*
X143050199Y-114430500D01*
X144949801Y-114430500D01*
X144987489Y-114423003D01*
X145014379Y-114405036D01*
X145016375Y-114404905D01*
X145017486Y-114406568D01*
X145017153Y-114407810D01*
X145009910Y-114418650D01*
X145009751Y-114418858D01*
X144986272Y-114445632D01*
X144973859Y-114508043D01*
X144994336Y-114568364D01*
X145014982Y-114589010D01*
X145015231Y-114589313D01*
X145017153Y-114592190D01*
X145017284Y-114594186D01*
X145015621Y-114595297D01*
X145014379Y-114594964D01*
X144987489Y-114576997D01*
X144949801Y-114569500D01*
X143050199Y-114569500D01*
X143012511Y-114576997D01*
X142985621Y-114594964D01*
X142983625Y-114595095D01*
X142982514Y-114593432D01*
X142982847Y-114592190D01*
X142990090Y-114581350D01*
X142990249Y-114581142D01*
X143013728Y-114554368D01*
X143026141Y-114491957D01*
X143005664Y-114431636D01*
X142985018Y-114410990D01*
X142984769Y-114410687D01*
X142982847Y-114407810D01*
X142982716Y-114405814D01*
X142984379Y-114404703D01*
X142985621Y-114405036D01*
G37*
G36*
X145281367Y-113940640D02*
G01*
X145282000Y-113942100D01*
X145282000Y-114132301D01*
X145296247Y-114203926D01*
X145295604Y-114205820D01*
X145293642Y-114206210D01*
X145292453Y-114205119D01*
X145287743Y-114194381D01*
X145247802Y-114144497D01*
X145188522Y-114121367D01*
X145125619Y-114130974D01*
X145075993Y-114170709D01*
X145051900Y-114244172D01*
X145050410Y-114245506D01*
X145048510Y-114244883D01*
X145048000Y-114243549D01*
X145048000Y-114032699D01*
X145041651Y-114000778D01*
X145042294Y-113998884D01*
X145044256Y-113998494D01*
X145045276Y-113999277D01*
X145052584Y-114010214D01*
X145100632Y-114052351D01*
X145163042Y-114064765D01*
X145223296Y-114044311D01*
X145265275Y-113996442D01*
X145278052Y-113941646D01*
X145279419Y-113940186D01*
X145281367Y-113940640D01*
G37*
G36*
X142985621Y-113770036D02*
G01*
X143012511Y-113788003D01*
X143050199Y-113795500D01*
X144949801Y-113795500D01*
X144987489Y-113788003D01*
X145014379Y-113770036D01*
X145016375Y-113769905D01*
X145017486Y-113771568D01*
X145017153Y-113772810D01*
X145009910Y-113783650D01*
X145009751Y-113783858D01*
X144986272Y-113810632D01*
X144973859Y-113873043D01*
X144994336Y-113933364D01*
X145014982Y-113954010D01*
X145015231Y-113954313D01*
X145017153Y-113957190D01*
X145017284Y-113959186D01*
X145015621Y-113960297D01*
X145014379Y-113959964D01*
X144987489Y-113941997D01*
X144949801Y-113934500D01*
X143050199Y-113934500D01*
X143012511Y-113941997D01*
X142985621Y-113959964D01*
X142983625Y-113960095D01*
X142982514Y-113958432D01*
X142982847Y-113957190D01*
X142990090Y-113946350D01*
X142990249Y-113946142D01*
X143013728Y-113919368D01*
X143026141Y-113856957D01*
X143005664Y-113796636D01*
X142985018Y-113775990D01*
X142984769Y-113775687D01*
X142982847Y-113772810D01*
X142982716Y-113770814D01*
X142984379Y-113769703D01*
X142985621Y-113770036D01*
G37*
G36*
X134985621Y-113770036D02*
G01*
X135012511Y-113788003D01*
X135050199Y-113795500D01*
X136949801Y-113795500D01*
X136987489Y-113788003D01*
X137014379Y-113770036D01*
X137016375Y-113769905D01*
X137017486Y-113771568D01*
X137017153Y-113772810D01*
X137009910Y-113783650D01*
X137009751Y-113783858D01*
X136986272Y-113810632D01*
X136973859Y-113873043D01*
X136994336Y-113933364D01*
X137014982Y-113954010D01*
X137015231Y-113954313D01*
X137017153Y-113957190D01*
X137017284Y-113959186D01*
X137015621Y-113960297D01*
X137014379Y-113959964D01*
X136987489Y-113941997D01*
X136949801Y-113934500D01*
X135050199Y-113934500D01*
X135012511Y-113941997D01*
X134985621Y-113959964D01*
X134983625Y-113960095D01*
X134982514Y-113958432D01*
X134982847Y-113957190D01*
X134990090Y-113946350D01*
X134990249Y-113946142D01*
X135013728Y-113919368D01*
X135026141Y-113856957D01*
X135005664Y-113796636D01*
X134985018Y-113775990D01*
X134984769Y-113775687D01*
X134982847Y-113772810D01*
X134982716Y-113770814D01*
X134984379Y-113769703D01*
X134985621Y-113770036D01*
G37*
G36*
X145960813Y-113391413D02*
G01*
X145961203Y-113393375D01*
X145960559Y-113394293D01*
X145920397Y-113426451D01*
X145897267Y-113485731D01*
X145906863Y-113548561D01*
X145959408Y-113605640D01*
X145959846Y-113607592D01*
X145957547Y-113608957D01*
X145872301Y-113592000D01*
X145527699Y-113592000D01*
X145441081Y-113609230D01*
X145439187Y-113608587D01*
X145438797Y-113606625D01*
X145439441Y-113605707D01*
X145479603Y-113573549D01*
X145502733Y-113514269D01*
X145493137Y-113451439D01*
X145440592Y-113394360D01*
X145440154Y-113392408D01*
X145442453Y-113391043D01*
X145527699Y-113408000D01*
X145872301Y-113408000D01*
X145958919Y-113390770D01*
X145960813Y-113391413D01*
G37*
G36*
X134985621Y-113135036D02*
G01*
X135012511Y-113153003D01*
X135050199Y-113160500D01*
X136949801Y-113160500D01*
X136987489Y-113153003D01*
X137014379Y-113135036D01*
X137016375Y-113134905D01*
X137017486Y-113136568D01*
X137017153Y-113137810D01*
X137009910Y-113148650D01*
X137009751Y-113148858D01*
X136986272Y-113175632D01*
X136973859Y-113238043D01*
X136994336Y-113298364D01*
X137014982Y-113319010D01*
X137015231Y-113319313D01*
X137017153Y-113322190D01*
X137017284Y-113324186D01*
X137015621Y-113325297D01*
X137014379Y-113324964D01*
X136987489Y-113306997D01*
X136949801Y-113299500D01*
X135050199Y-113299500D01*
X135012511Y-113306997D01*
X134985621Y-113324964D01*
X134983625Y-113325095D01*
X134982514Y-113323432D01*
X134982847Y-113322190D01*
X134990090Y-113311350D01*
X134990249Y-113311142D01*
X135013728Y-113284368D01*
X135026141Y-113221957D01*
X135005664Y-113161636D01*
X134985018Y-113140990D01*
X134984769Y-113140687D01*
X134982847Y-113137810D01*
X134982716Y-113135814D01*
X134984379Y-113134703D01*
X134985621Y-113135036D01*
G37*
G36*
X142985621Y-113135036D02*
G01*
X143012511Y-113153003D01*
X143050199Y-113160500D01*
X144949801Y-113160500D01*
X144987489Y-113153003D01*
X145014379Y-113135037D01*
X145016375Y-113134906D01*
X145017486Y-113136569D01*
X145017153Y-113137811D01*
X145009910Y-113148650D01*
X145009751Y-113148858D01*
X144986272Y-113175632D01*
X144973859Y-113238043D01*
X144994336Y-113298364D01*
X145014982Y-113319010D01*
X145015231Y-113319313D01*
X145017153Y-113322190D01*
X145017284Y-113324186D01*
X145015621Y-113325297D01*
X145014379Y-113324964D01*
X144987489Y-113306997D01*
X144949801Y-113299500D01*
X143050199Y-113299500D01*
X143012511Y-113306997D01*
X142985621Y-113324964D01*
X142983625Y-113325095D01*
X142982514Y-113323432D01*
X142982847Y-113322190D01*
X142990090Y-113311350D01*
X142990249Y-113311142D01*
X143013728Y-113284368D01*
X143026141Y-113221957D01*
X143005664Y-113161636D01*
X142985018Y-113140990D01*
X142984769Y-113140687D01*
X142982847Y-113137810D01*
X142982716Y-113135814D01*
X142984379Y-113134703D01*
X142985621Y-113135036D01*
G37*
G36*
X145051962Y-112774420D02*
G01*
X145052966Y-112779466D01*
X145081230Y-112836781D01*
X145134137Y-112872133D01*
X145197634Y-112876295D01*
X145254626Y-112848189D01*
X145279735Y-112803103D01*
X145282434Y-112802317D01*
X145284310Y-112803332D01*
X145294597Y-112784324D01*
X145296301Y-112783277D01*
X145298060Y-112784229D01*
X145298318Y-112785666D01*
X145282000Y-112867699D01*
X145282000Y-113152900D01*
X145281000Y-113154632D01*
X145279000Y-113154632D01*
X145278068Y-113153418D01*
X145277639Y-113151817D01*
X145277586Y-113151546D01*
X145277151Y-113148058D01*
X145276517Y-113147631D01*
X145261459Y-113091435D01*
X145216467Y-113046442D01*
X145155001Y-113029972D01*
X145093503Y-113046450D01*
X145052603Y-113084757D01*
X145045276Y-113095723D01*
X145043482Y-113096608D01*
X145041819Y-113095497D01*
X145041651Y-113094222D01*
X145048000Y-113062301D01*
X145048000Y-112774810D01*
X145049000Y-112773078D01*
X145051000Y-112773078D01*
X145051962Y-112774420D01*
G37*
G36*
X122160813Y-112491413D02*
G01*
X122161203Y-112493375D01*
X122160559Y-112494293D01*
X122120397Y-112526451D01*
X122097267Y-112585731D01*
X122106863Y-112648561D01*
X122159408Y-112705640D01*
X122159846Y-112707592D01*
X122157547Y-112708957D01*
X122072301Y-112692000D01*
X121727699Y-112692000D01*
X121641081Y-112709230D01*
X121639187Y-112708587D01*
X121638797Y-112706625D01*
X121639441Y-112705707D01*
X121679603Y-112673549D01*
X121702733Y-112614269D01*
X121693137Y-112551439D01*
X121640592Y-112494360D01*
X121640154Y-112492408D01*
X121642453Y-112491043D01*
X121727699Y-112508000D01*
X122072301Y-112508000D01*
X122158919Y-112490770D01*
X122160813Y-112491413D01*
G37*
G36*
X134985621Y-112500036D02*
G01*
X135012511Y-112518003D01*
X135050199Y-112525500D01*
X136949801Y-112525500D01*
X136987489Y-112518003D01*
X137014379Y-112500036D01*
X137016375Y-112499905D01*
X137017486Y-112501568D01*
X137017153Y-112502810D01*
X137009910Y-112513650D01*
X137009751Y-112513858D01*
X136986272Y-112540632D01*
X136973859Y-112603043D01*
X136994336Y-112663364D01*
X137014982Y-112684010D01*
X137015231Y-112684313D01*
X137017153Y-112687190D01*
X137017284Y-112689186D01*
X137015621Y-112690297D01*
X137014379Y-112689964D01*
X136987489Y-112671997D01*
X136949801Y-112664500D01*
X135050199Y-112664500D01*
X135012511Y-112671997D01*
X134985621Y-112689964D01*
X134983625Y-112690095D01*
X134982514Y-112688432D01*
X134982847Y-112687190D01*
X134990090Y-112676350D01*
X134990249Y-112676142D01*
X135013728Y-112649368D01*
X135026141Y-112586957D01*
X135005664Y-112526636D01*
X134985018Y-112505990D01*
X134984769Y-112505687D01*
X134982847Y-112502810D01*
X134982716Y-112500814D01*
X134984379Y-112499703D01*
X134985621Y-112500036D01*
G37*
G36*
X142985621Y-112500036D02*
G01*
X143012511Y-112518003D01*
X143050199Y-112525500D01*
X144949801Y-112525500D01*
X144987489Y-112518003D01*
X145014379Y-112500036D01*
X145016375Y-112499905D01*
X145017486Y-112501568D01*
X145017153Y-112502810D01*
X145009910Y-112513650D01*
X145009751Y-112513858D01*
X144986272Y-112540632D01*
X144973859Y-112603043D01*
X144994336Y-112663364D01*
X145014982Y-112684010D01*
X145015231Y-112684313D01*
X145017153Y-112687190D01*
X145017284Y-112689186D01*
X145015621Y-112690297D01*
X145014379Y-112689964D01*
X144987489Y-112671997D01*
X144949801Y-112664500D01*
X143050199Y-112664500D01*
X143012511Y-112671997D01*
X142985621Y-112689964D01*
X142983625Y-112690095D01*
X142982514Y-112688432D01*
X142982847Y-112687190D01*
X142990090Y-112676350D01*
X142990249Y-112676142D01*
X143013728Y-112649368D01*
X143026141Y-112586957D01*
X143005664Y-112526636D01*
X142985018Y-112505990D01*
X142984769Y-112505687D01*
X142982847Y-112502810D01*
X142982716Y-112500814D01*
X142984379Y-112499703D01*
X142985621Y-112500036D01*
G37*
G36*
X132594293Y-111739441D02*
G01*
X132626451Y-111779603D01*
X132685731Y-111802733D01*
X132748561Y-111793137D01*
X132805640Y-111740592D01*
X132807592Y-111740154D01*
X132808957Y-111742453D01*
X132792000Y-111827699D01*
X132792000Y-112172301D01*
X132809230Y-112258919D01*
X132808587Y-112260813D01*
X132806625Y-112261203D01*
X132805707Y-112260559D01*
X132773549Y-112220397D01*
X132714269Y-112197267D01*
X132651439Y-112206863D01*
X132594360Y-112259408D01*
X132592408Y-112259846D01*
X132591043Y-112257547D01*
X132608000Y-112172301D01*
X132608000Y-111827699D01*
X132590770Y-111741081D01*
X132591413Y-111739187D01*
X132593375Y-111738797D01*
X132594293Y-111739441D01*
G37*
G36*
X142985621Y-111865036D02*
G01*
X143012511Y-111883003D01*
X143050199Y-111890500D01*
X144949801Y-111890500D01*
X144987489Y-111883003D01*
X145014379Y-111865036D01*
X145016375Y-111864905D01*
X145017486Y-111866568D01*
X145017153Y-111867810D01*
X145009910Y-111878650D01*
X145009751Y-111878858D01*
X144986272Y-111905632D01*
X144973859Y-111968043D01*
X144994336Y-112028364D01*
X145014982Y-112049010D01*
X145015231Y-112049313D01*
X145017153Y-112052190D01*
X145017284Y-112054186D01*
X145015621Y-112055297D01*
X145014379Y-112054964D01*
X144987489Y-112036997D01*
X144949801Y-112029500D01*
X143050199Y-112029500D01*
X143012511Y-112036997D01*
X142985621Y-112054964D01*
X142983625Y-112055095D01*
X142982514Y-112053432D01*
X142982847Y-112052190D01*
X142990090Y-112041350D01*
X142990249Y-112041142D01*
X143013728Y-112014368D01*
X143026141Y-111951957D01*
X143005664Y-111891636D01*
X142985018Y-111870990D01*
X142984769Y-111870687D01*
X142982847Y-111867810D01*
X142982716Y-111865814D01*
X142984379Y-111864703D01*
X142985621Y-111865036D01*
G37*
G36*
X134985621Y-111865036D02*
G01*
X135012511Y-111883003D01*
X135050199Y-111890500D01*
X136949801Y-111890500D01*
X136987489Y-111883003D01*
X137014379Y-111865036D01*
X137016375Y-111864905D01*
X137017486Y-111866568D01*
X137017153Y-111867810D01*
X137009910Y-111878650D01*
X137009751Y-111878858D01*
X136986272Y-111905632D01*
X136973859Y-111968043D01*
X136994336Y-112028364D01*
X137014982Y-112049010D01*
X137015231Y-112049313D01*
X137017153Y-112052190D01*
X137017284Y-112054186D01*
X137015621Y-112055297D01*
X137014379Y-112054964D01*
X136987489Y-112036997D01*
X136949801Y-112029500D01*
X135050199Y-112029500D01*
X135012511Y-112036997D01*
X134985621Y-112054964D01*
X134983625Y-112055095D01*
X134982514Y-112053432D01*
X134982847Y-112052190D01*
X134990090Y-112041350D01*
X134990249Y-112041142D01*
X135013728Y-112014368D01*
X135026141Y-111951957D01*
X135005664Y-111891636D01*
X134985018Y-111870990D01*
X134984769Y-111870687D01*
X134982847Y-111867810D01*
X134982716Y-111865814D01*
X134984379Y-111864703D01*
X134985621Y-111865036D01*
G37*
G36*
X142985621Y-111230036D02*
G01*
X143012511Y-111248003D01*
X143050199Y-111255500D01*
X144949801Y-111255500D01*
X144987489Y-111248003D01*
X145014379Y-111230036D01*
X145016375Y-111229905D01*
X145017486Y-111231568D01*
X145017153Y-111232810D01*
X145009910Y-111243650D01*
X145009751Y-111243858D01*
X144986272Y-111270632D01*
X144973859Y-111333043D01*
X144994336Y-111393364D01*
X145014982Y-111414010D01*
X145015231Y-111414313D01*
X145017153Y-111417190D01*
X145017284Y-111419186D01*
X145015621Y-111420297D01*
X145014379Y-111419964D01*
X144987489Y-111401997D01*
X144949801Y-111394500D01*
X143050199Y-111394500D01*
X143012511Y-111401997D01*
X142985621Y-111419964D01*
X142983625Y-111420095D01*
X142982514Y-111418432D01*
X142982847Y-111417190D01*
X142990090Y-111406350D01*
X142990249Y-111406142D01*
X143013728Y-111379368D01*
X143026141Y-111316957D01*
X143005664Y-111256636D01*
X142985018Y-111235990D01*
X142984769Y-111235687D01*
X142982847Y-111232810D01*
X142982716Y-111230814D01*
X142984379Y-111229703D01*
X142985621Y-111230036D01*
G37*
G36*
X134985621Y-111230036D02*
G01*
X135012511Y-111248003D01*
X135050199Y-111255500D01*
X136949801Y-111255500D01*
X136987489Y-111248003D01*
X137014379Y-111230036D01*
X137016375Y-111229905D01*
X137017486Y-111231568D01*
X137017153Y-111232810D01*
X137009910Y-111243650D01*
X137009751Y-111243858D01*
X136986272Y-111270632D01*
X136973859Y-111333043D01*
X136994336Y-111393364D01*
X137014982Y-111414010D01*
X137015231Y-111414313D01*
X137017153Y-111417190D01*
X137017284Y-111419186D01*
X137015621Y-111420297D01*
X137014379Y-111419964D01*
X136987489Y-111401997D01*
X136949801Y-111394500D01*
X135050199Y-111394500D01*
X135012511Y-111401997D01*
X134985621Y-111419964D01*
X134983625Y-111420095D01*
X134982514Y-111418432D01*
X134982847Y-111417190D01*
X134990090Y-111406350D01*
X134990249Y-111406142D01*
X135013728Y-111379368D01*
X135026141Y-111316957D01*
X135005664Y-111256636D01*
X134985018Y-111235990D01*
X134984769Y-111235687D01*
X134982847Y-111232810D01*
X134982716Y-111230814D01*
X134984379Y-111229703D01*
X134985621Y-111230036D01*
G37*
G36*
X160642954Y-110679249D02*
G01*
X160642665Y-110680797D01*
X160600725Y-110743565D01*
X160582000Y-110837699D01*
X160582000Y-111132301D01*
X160600725Y-111226435D01*
X160636633Y-111280176D01*
X160636764Y-111282172D01*
X160635101Y-111283283D01*
X160633499Y-111282642D01*
X160607072Y-111253935D01*
X160606366Y-111254093D01*
X160605402Y-111253434D01*
X160583699Y-111226327D01*
X160524420Y-111203194D01*
X160461590Y-111212788D01*
X160402559Y-111267128D01*
X160393209Y-111284406D01*
X160392805Y-111284925D01*
X160385353Y-111291785D01*
X160383401Y-111292223D01*
X160382046Y-111290751D01*
X160382335Y-111289203D01*
X160424275Y-111226435D01*
X160443000Y-111132301D01*
X160443000Y-110837699D01*
X160424275Y-110743565D01*
X160388367Y-110689824D01*
X160388236Y-110687828D01*
X160389899Y-110686717D01*
X160391501Y-110687358D01*
X160417928Y-110716065D01*
X160418634Y-110715907D01*
X160419598Y-110716566D01*
X160441301Y-110743673D01*
X160500580Y-110766806D01*
X160563410Y-110757212D01*
X160622441Y-110702872D01*
X160631791Y-110685594D01*
X160632195Y-110685075D01*
X160639647Y-110678215D01*
X160641599Y-110677777D01*
X160642954Y-110679249D01*
G37*
G36*
X161421932Y-110924638D02*
G01*
X161438541Y-110986622D01*
X161483534Y-111031614D01*
X161544999Y-111048084D01*
X161606465Y-111031614D01*
X161651519Y-110986560D01*
X161653173Y-110981950D01*
X161653593Y-110981594D01*
X161664773Y-110960936D01*
X161666477Y-110959889D01*
X161668236Y-110960841D01*
X161668494Y-110962278D01*
X161652000Y-111045199D01*
X161652000Y-111252341D01*
X161651000Y-111254073D01*
X161649000Y-111254073D01*
X161648068Y-111252859D01*
X161631459Y-111190876D01*
X161586467Y-111145883D01*
X161525001Y-111129413D01*
X161463536Y-111145883D01*
X161418479Y-111190940D01*
X161417091Y-111194809D01*
X161416362Y-111195427D01*
X161405403Y-111215676D01*
X161403699Y-111216723D01*
X161401940Y-111215771D01*
X161401682Y-111214334D01*
X161418000Y-111132301D01*
X161418000Y-110925156D01*
X161419000Y-110923424D01*
X161421000Y-110923424D01*
X161421932Y-110924638D01*
G37*
G36*
X134985621Y-110595036D02*
G01*
X135012511Y-110613003D01*
X135050199Y-110620500D01*
X136949801Y-110620500D01*
X136987489Y-110613003D01*
X137014379Y-110595036D01*
X137016375Y-110594905D01*
X137017486Y-110596568D01*
X137017153Y-110597810D01*
X137009910Y-110608650D01*
X137009751Y-110608858D01*
X136986272Y-110635632D01*
X136973859Y-110698043D01*
X136994336Y-110758364D01*
X137014982Y-110779010D01*
X137015231Y-110779313D01*
X137017153Y-110782190D01*
X137017284Y-110784186D01*
X137015621Y-110785297D01*
X137014379Y-110784964D01*
X136987489Y-110766997D01*
X136949801Y-110759500D01*
X135050199Y-110759500D01*
X135012511Y-110766997D01*
X134985621Y-110784964D01*
X134983625Y-110785095D01*
X134982514Y-110783432D01*
X134982847Y-110782190D01*
X134990090Y-110771350D01*
X134990249Y-110771142D01*
X135013728Y-110744368D01*
X135026141Y-110681957D01*
X135005664Y-110621636D01*
X134985018Y-110600990D01*
X134984769Y-110600687D01*
X134982847Y-110597810D01*
X134982716Y-110595814D01*
X134984379Y-110594703D01*
X134985621Y-110595036D01*
G37*
G36*
X142985621Y-110595036D02*
G01*
X143012511Y-110613003D01*
X143050199Y-110620500D01*
X144949801Y-110620500D01*
X144987489Y-110613003D01*
X145014379Y-110595036D01*
X145016375Y-110594905D01*
X145017486Y-110596568D01*
X145017153Y-110597810D01*
X145009910Y-110608650D01*
X145009751Y-110608858D01*
X144986272Y-110635632D01*
X144973859Y-110698043D01*
X144994336Y-110758364D01*
X145014982Y-110779010D01*
X145015231Y-110779313D01*
X145017153Y-110782190D01*
X145017284Y-110784186D01*
X145015621Y-110785297D01*
X145014379Y-110784964D01*
X144987489Y-110766997D01*
X144949801Y-110759500D01*
X143050199Y-110759500D01*
X143012511Y-110766997D01*
X142985621Y-110784964D01*
X142983625Y-110785095D01*
X142982514Y-110783432D01*
X142982847Y-110782190D01*
X142990090Y-110771350D01*
X142990249Y-110771142D01*
X143013728Y-110744368D01*
X143026141Y-110681957D01*
X143005664Y-110621636D01*
X142985018Y-110600990D01*
X142984769Y-110600687D01*
X142982847Y-110597810D01*
X142982716Y-110595814D01*
X142984379Y-110594703D01*
X142985621Y-110595036D01*
G37*
G36*
X160285813Y-110391413D02*
G01*
X160286203Y-110393375D01*
X160285559Y-110394293D01*
X160245397Y-110426451D01*
X160222267Y-110485731D01*
X160231863Y-110548561D01*
X160284408Y-110605640D01*
X160284846Y-110607592D01*
X160282547Y-110608957D01*
X160197301Y-110592000D01*
X159852699Y-110592000D01*
X159766081Y-110609230D01*
X159764187Y-110608587D01*
X159763797Y-110606625D01*
X159764441Y-110605707D01*
X159804603Y-110573549D01*
X159827733Y-110514269D01*
X159818137Y-110451439D01*
X159765592Y-110394360D01*
X159765154Y-110392408D01*
X159767453Y-110391043D01*
X159852699Y-110408000D01*
X160197301Y-110408000D01*
X160283919Y-110390770D01*
X160285813Y-110391413D01*
G37*
G36*
X161260813Y-110391413D02*
G01*
X161261203Y-110393375D01*
X161260559Y-110394293D01*
X161220397Y-110426451D01*
X161197267Y-110485731D01*
X161206863Y-110548561D01*
X161259408Y-110605640D01*
X161259846Y-110607592D01*
X161257547Y-110608957D01*
X161172301Y-110592000D01*
X160827699Y-110592000D01*
X160741081Y-110609230D01*
X160739187Y-110608587D01*
X160738797Y-110606625D01*
X160739441Y-110605707D01*
X160779603Y-110573549D01*
X160802733Y-110514269D01*
X160793137Y-110451439D01*
X160740592Y-110394360D01*
X160740154Y-110392408D01*
X160742453Y-110391043D01*
X160827699Y-110408000D01*
X161172301Y-110408000D01*
X161258919Y-110390770D01*
X161260813Y-110391413D01*
G37*
G36*
X160642954Y-109709249D02*
G01*
X160642665Y-109710797D01*
X160600725Y-109773565D01*
X160582000Y-109867699D01*
X160582000Y-110162301D01*
X160600725Y-110256435D01*
X160636633Y-110310176D01*
X160636764Y-110312172D01*
X160635101Y-110313283D01*
X160633499Y-110312642D01*
X160607072Y-110283935D01*
X160606366Y-110284093D01*
X160605402Y-110283434D01*
X160583699Y-110256327D01*
X160524420Y-110233194D01*
X160461590Y-110242788D01*
X160402559Y-110297128D01*
X160393209Y-110314406D01*
X160392805Y-110314925D01*
X160385353Y-110321785D01*
X160383401Y-110322223D01*
X160382046Y-110320751D01*
X160382335Y-110319203D01*
X160424275Y-110256435D01*
X160443000Y-110162301D01*
X160443000Y-109867699D01*
X160424275Y-109773565D01*
X160388367Y-109719824D01*
X160388236Y-109717828D01*
X160389899Y-109716717D01*
X160391501Y-109717358D01*
X160417928Y-109746065D01*
X160418634Y-109745907D01*
X160419598Y-109746566D01*
X160441301Y-109773673D01*
X160500580Y-109796806D01*
X160563410Y-109787212D01*
X160622441Y-109732872D01*
X160631791Y-109715594D01*
X160632195Y-109715075D01*
X160639647Y-109708215D01*
X160641599Y-109707777D01*
X160642954Y-109709249D01*
G37*
G36*
X142985621Y-109960036D02*
G01*
X143012511Y-109978003D01*
X143050199Y-109985500D01*
X144949801Y-109985500D01*
X144987489Y-109978003D01*
X145014379Y-109960036D01*
X145016375Y-109959905D01*
X145017486Y-109961568D01*
X145017153Y-109962810D01*
X145009910Y-109973650D01*
X145009751Y-109973858D01*
X144986272Y-110000632D01*
X144973859Y-110063043D01*
X144994336Y-110123364D01*
X145014982Y-110144010D01*
X145015231Y-110144313D01*
X145017153Y-110147190D01*
X145017284Y-110149186D01*
X145015621Y-110150297D01*
X145014379Y-110149964D01*
X144987489Y-110131997D01*
X144949801Y-110124500D01*
X143050199Y-110124500D01*
X143012511Y-110131997D01*
X142985621Y-110149964D01*
X142983625Y-110150095D01*
X142982514Y-110148432D01*
X142982847Y-110147190D01*
X142990090Y-110136350D01*
X142990249Y-110136142D01*
X143013728Y-110109368D01*
X143026141Y-110046957D01*
X143005664Y-109986636D01*
X142985018Y-109965990D01*
X142984769Y-109965687D01*
X142982847Y-109962810D01*
X142982716Y-109960814D01*
X142984379Y-109959703D01*
X142985621Y-109960036D01*
G37*
G36*
X134985621Y-109960036D02*
G01*
X135012511Y-109978003D01*
X135050199Y-109985500D01*
X136949801Y-109985500D01*
X136987489Y-109978003D01*
X137014379Y-109960036D01*
X137016375Y-109959905D01*
X137017486Y-109961568D01*
X137017153Y-109962810D01*
X137009910Y-109973650D01*
X137009751Y-109973858D01*
X136986272Y-110000632D01*
X136973859Y-110063043D01*
X136994336Y-110123364D01*
X137014982Y-110144010D01*
X137015231Y-110144313D01*
X137017153Y-110147190D01*
X137017284Y-110149186D01*
X137015621Y-110150297D01*
X137014379Y-110149964D01*
X136987489Y-110131997D01*
X136949801Y-110124500D01*
X135050199Y-110124500D01*
X135012511Y-110131997D01*
X134985621Y-110149964D01*
X134983625Y-110150095D01*
X134982514Y-110148432D01*
X134982847Y-110147190D01*
X134990090Y-110136350D01*
X134990249Y-110136142D01*
X135013728Y-110109368D01*
X135026141Y-110046957D01*
X135005664Y-109986636D01*
X134985018Y-109965990D01*
X134984769Y-109965687D01*
X134982847Y-109962810D01*
X134982716Y-109960814D01*
X134984379Y-109959703D01*
X134985621Y-109960036D01*
G37*
G36*
X165389440Y-109621659D02*
G01*
X165427496Y-109669190D01*
X165486776Y-109692321D01*
X165549605Y-109682725D01*
X165602113Y-109634388D01*
X165604065Y-109633950D01*
X165605420Y-109635422D01*
X165605131Y-109636970D01*
X165600725Y-109643565D01*
X165582000Y-109737699D01*
X165582000Y-110032301D01*
X165600725Y-110126435D01*
X165613784Y-110145980D01*
X165613915Y-110147976D01*
X165612252Y-110149087D01*
X165610560Y-110148341D01*
X165572504Y-110100810D01*
X165513224Y-110077679D01*
X165450395Y-110087275D01*
X165397887Y-110135612D01*
X165395935Y-110136050D01*
X165394580Y-110134578D01*
X165394869Y-110133030D01*
X165399275Y-110126435D01*
X165418000Y-110032301D01*
X165418000Y-109737699D01*
X165399275Y-109643565D01*
X165386216Y-109624020D01*
X165386085Y-109622024D01*
X165387748Y-109620913D01*
X165389440Y-109621659D01*
G37*
G36*
X148394293Y-109339441D02*
G01*
X148426451Y-109379603D01*
X148485731Y-109402733D01*
X148548561Y-109393137D01*
X148605640Y-109340592D01*
X148607592Y-109340154D01*
X148608957Y-109342453D01*
X148592000Y-109427699D01*
X148592000Y-109772301D01*
X148609230Y-109858919D01*
X148608587Y-109860813D01*
X148606625Y-109861203D01*
X148605707Y-109860559D01*
X148573549Y-109820397D01*
X148514269Y-109797267D01*
X148451439Y-109806863D01*
X148394360Y-109859408D01*
X148392408Y-109859846D01*
X148391043Y-109857547D01*
X148408000Y-109772301D01*
X148408000Y-109427699D01*
X148390770Y-109341081D01*
X148391413Y-109339187D01*
X148393375Y-109338797D01*
X148394293Y-109339441D01*
G37*
G36*
X134985621Y-109325036D02*
G01*
X135012511Y-109343003D01*
X135050199Y-109350500D01*
X136949801Y-109350500D01*
X136987489Y-109343003D01*
X137014379Y-109325036D01*
X137016375Y-109324905D01*
X137017486Y-109326568D01*
X137017153Y-109327810D01*
X137009910Y-109338650D01*
X137009751Y-109338858D01*
X136986272Y-109365632D01*
X136973859Y-109428043D01*
X136994336Y-109488364D01*
X137014982Y-109509010D01*
X137015231Y-109509313D01*
X137017153Y-109512190D01*
X137017284Y-109514186D01*
X137015621Y-109515297D01*
X137014379Y-109514964D01*
X136987489Y-109496997D01*
X136949801Y-109489500D01*
X135050199Y-109489500D01*
X135012511Y-109496997D01*
X134985621Y-109514964D01*
X134983625Y-109515095D01*
X134982514Y-109513432D01*
X134982847Y-109512190D01*
X134990090Y-109501350D01*
X134990249Y-109501142D01*
X135013728Y-109474368D01*
X135026141Y-109411957D01*
X135005664Y-109351636D01*
X134985018Y-109330990D01*
X134984769Y-109330687D01*
X134982847Y-109327810D01*
X134982716Y-109325814D01*
X134984379Y-109324703D01*
X134985621Y-109325036D01*
G37*
G36*
X142985621Y-109325036D02*
G01*
X143012511Y-109343003D01*
X143050199Y-109350500D01*
X144949801Y-109350500D01*
X144987489Y-109343003D01*
X145014379Y-109325036D01*
X145016375Y-109324905D01*
X145017486Y-109326568D01*
X145017153Y-109327810D01*
X145009910Y-109338650D01*
X145009751Y-109338858D01*
X144986272Y-109365632D01*
X144973859Y-109428043D01*
X144994336Y-109488364D01*
X145014982Y-109509010D01*
X145015231Y-109509313D01*
X145017153Y-109512190D01*
X145017284Y-109514186D01*
X145015621Y-109515297D01*
X145014379Y-109514964D01*
X144987489Y-109496997D01*
X144949801Y-109489500D01*
X143050199Y-109489500D01*
X143012511Y-109496997D01*
X142985621Y-109514964D01*
X142983625Y-109515095D01*
X142982514Y-109513432D01*
X142982847Y-109512190D01*
X142990090Y-109501350D01*
X142990249Y-109501142D01*
X143013728Y-109474368D01*
X143026141Y-109411957D01*
X143005664Y-109351636D01*
X142985018Y-109330990D01*
X142984769Y-109330687D01*
X142982847Y-109327810D01*
X142982716Y-109325814D01*
X142984379Y-109324703D01*
X142985621Y-109325036D01*
G37*
G36*
X166260813Y-109291413D02*
G01*
X166261203Y-109293375D01*
X166260559Y-109294293D01*
X166220397Y-109326451D01*
X166197267Y-109385731D01*
X166206863Y-109448561D01*
X166259408Y-109505640D01*
X166259846Y-109507592D01*
X166257547Y-109508957D01*
X166172301Y-109492000D01*
X165827699Y-109492000D01*
X165741081Y-109509230D01*
X165739187Y-109508587D01*
X165738797Y-109506625D01*
X165739441Y-109505707D01*
X165779603Y-109473549D01*
X165802733Y-109414269D01*
X165793137Y-109351439D01*
X165740592Y-109294360D01*
X165740154Y-109292408D01*
X165742453Y-109291043D01*
X165827699Y-109308000D01*
X166172301Y-109308000D01*
X166258919Y-109290770D01*
X166260813Y-109291413D01*
G37*
G36*
X165260813Y-109291413D02*
G01*
X165261203Y-109293375D01*
X165260559Y-109294293D01*
X165220397Y-109326451D01*
X165197267Y-109385731D01*
X165206863Y-109448561D01*
X165259408Y-109505640D01*
X165259846Y-109507592D01*
X165257547Y-109508957D01*
X165172301Y-109492000D01*
X164827699Y-109492000D01*
X164741081Y-109509230D01*
X164739187Y-109508587D01*
X164738797Y-109506625D01*
X164739441Y-109505707D01*
X164779603Y-109473549D01*
X164802733Y-109414269D01*
X164793137Y-109351439D01*
X164740592Y-109294360D01*
X164740154Y-109292408D01*
X164742453Y-109291043D01*
X164827699Y-109308000D01*
X165172301Y-109308000D01*
X165258919Y-109290770D01*
X165260813Y-109291413D01*
G37*
G36*
X165389440Y-108651659D02*
G01*
X165427496Y-108699190D01*
X165486776Y-108722321D01*
X165549605Y-108712725D01*
X165602113Y-108664388D01*
X165604065Y-108663950D01*
X165605420Y-108665422D01*
X165605131Y-108666970D01*
X165600725Y-108673565D01*
X165582000Y-108767699D01*
X165582000Y-109062301D01*
X165600725Y-109156435D01*
X165613784Y-109175980D01*
X165613915Y-109177976D01*
X165612252Y-109179087D01*
X165610560Y-109178341D01*
X165572504Y-109130810D01*
X165513224Y-109107679D01*
X165450395Y-109117275D01*
X165397887Y-109165612D01*
X165395935Y-109166050D01*
X165394580Y-109164578D01*
X165394869Y-109163030D01*
X165399275Y-109156435D01*
X165418000Y-109062301D01*
X165418000Y-108767699D01*
X165399275Y-108673565D01*
X165386216Y-108654020D01*
X165386085Y-108652024D01*
X165387748Y-108650913D01*
X165389440Y-108651659D01*
G37*
G36*
X134985621Y-108690036D02*
G01*
X135012511Y-108708003D01*
X135050199Y-108715500D01*
X136949801Y-108715500D01*
X136987489Y-108708003D01*
X137014379Y-108690036D01*
X137016375Y-108689905D01*
X137017486Y-108691568D01*
X137017153Y-108692810D01*
X137009910Y-108703650D01*
X137009751Y-108703858D01*
X136986272Y-108730632D01*
X136973859Y-108793043D01*
X136994336Y-108853364D01*
X137014982Y-108874010D01*
X137015231Y-108874313D01*
X137017153Y-108877190D01*
X137017284Y-108879186D01*
X137015621Y-108880297D01*
X137014379Y-108879964D01*
X136987489Y-108861997D01*
X136949801Y-108854500D01*
X135050199Y-108854500D01*
X135012511Y-108861997D01*
X134985621Y-108879964D01*
X134983625Y-108880095D01*
X134982514Y-108878432D01*
X134982847Y-108877190D01*
X134990090Y-108866350D01*
X134990249Y-108866142D01*
X135013728Y-108839368D01*
X135026141Y-108776957D01*
X135005664Y-108716636D01*
X134985018Y-108695990D01*
X134984769Y-108695687D01*
X134982847Y-108692810D01*
X134982716Y-108690814D01*
X134984379Y-108689703D01*
X134985621Y-108690036D01*
G37*
G36*
X142985621Y-108690036D02*
G01*
X143012511Y-108708003D01*
X143050199Y-108715500D01*
X144949801Y-108715500D01*
X144987489Y-108708003D01*
X145014379Y-108690036D01*
X145016375Y-108689905D01*
X145017486Y-108691568D01*
X145017153Y-108692810D01*
X145009910Y-108703650D01*
X145009751Y-108703858D01*
X144986272Y-108730632D01*
X144973859Y-108793043D01*
X144994336Y-108853364D01*
X145014982Y-108874010D01*
X145015231Y-108874313D01*
X145017153Y-108877190D01*
X145017284Y-108879186D01*
X145015621Y-108880297D01*
X145014379Y-108879964D01*
X144987489Y-108861997D01*
X144949801Y-108854500D01*
X143050199Y-108854500D01*
X143012511Y-108861997D01*
X142985621Y-108879964D01*
X142983625Y-108880095D01*
X142982514Y-108878432D01*
X142982847Y-108877190D01*
X142990090Y-108866350D01*
X142990249Y-108866142D01*
X143013728Y-108839368D01*
X143026141Y-108776957D01*
X143005664Y-108716636D01*
X142985018Y-108695990D01*
X142984769Y-108695687D01*
X142982847Y-108692810D01*
X142982716Y-108690814D01*
X142984379Y-108689703D01*
X142985621Y-108690036D01*
G37*
G36*
X134985621Y-108055036D02*
G01*
X135012511Y-108073003D01*
X135050199Y-108080500D01*
X136949801Y-108080500D01*
X136987489Y-108073003D01*
X137014379Y-108055036D01*
X137016375Y-108054905D01*
X137017486Y-108056568D01*
X137017153Y-108057810D01*
X137009910Y-108068650D01*
X137009751Y-108068858D01*
X136986272Y-108095632D01*
X136973859Y-108158043D01*
X136994336Y-108218364D01*
X137014982Y-108239010D01*
X137015231Y-108239313D01*
X137017153Y-108242190D01*
X137017284Y-108244186D01*
X137015621Y-108245297D01*
X137014379Y-108244964D01*
X136987489Y-108226997D01*
X136949801Y-108219500D01*
X135050199Y-108219500D01*
X135012511Y-108226997D01*
X134985621Y-108244964D01*
X134983625Y-108245095D01*
X134982514Y-108243432D01*
X134982847Y-108242190D01*
X134990090Y-108231350D01*
X134990249Y-108231142D01*
X135013728Y-108204368D01*
X135026141Y-108141957D01*
X135005664Y-108081636D01*
X134985018Y-108060990D01*
X134984769Y-108060687D01*
X134982847Y-108057810D01*
X134982716Y-108055814D01*
X134984379Y-108054703D01*
X134985621Y-108055036D01*
G37*
G36*
X142985621Y-108055036D02*
G01*
X143012511Y-108073003D01*
X143050199Y-108080500D01*
X144949801Y-108080500D01*
X144987489Y-108073003D01*
X145014379Y-108055036D01*
X145016375Y-108054905D01*
X145017486Y-108056568D01*
X145017153Y-108057810D01*
X145009910Y-108068650D01*
X145009751Y-108068858D01*
X144986272Y-108095632D01*
X144973859Y-108158043D01*
X144994336Y-108218364D01*
X145014982Y-108239010D01*
X145015231Y-108239313D01*
X145017153Y-108242190D01*
X145017284Y-108244186D01*
X145015621Y-108245297D01*
X145014379Y-108244964D01*
X144987489Y-108226997D01*
X144949801Y-108219500D01*
X143050199Y-108219500D01*
X143012511Y-108226997D01*
X142985621Y-108244964D01*
X142983625Y-108245095D01*
X142982514Y-108243432D01*
X142982847Y-108242190D01*
X142990090Y-108231350D01*
X142990249Y-108231142D01*
X143013728Y-108204368D01*
X143026141Y-108141957D01*
X143005664Y-108081636D01*
X142985018Y-108060990D01*
X142984769Y-108060687D01*
X142982847Y-108057810D01*
X142982716Y-108055814D01*
X142984379Y-108054703D01*
X142985621Y-108055036D01*
G37*
G36*
X165400310Y-107002847D02*
G01*
X165406446Y-107006946D01*
X165466892Y-107027465D01*
X165543610Y-107006909D01*
X165549690Y-107002847D01*
X165551686Y-107002716D01*
X165552797Y-107004379D01*
X165552464Y-107005621D01*
X165534497Y-107032511D01*
X165527000Y-107070199D01*
X165527000Y-108129801D01*
X165534497Y-108167489D01*
X165552464Y-108194379D01*
X165552595Y-108196375D01*
X165550932Y-108197486D01*
X165549690Y-108197153D01*
X165543554Y-108193054D01*
X165483108Y-108172535D01*
X165406390Y-108193091D01*
X165400310Y-108197153D01*
X165398314Y-108197284D01*
X165397203Y-108195621D01*
X165397536Y-108194379D01*
X165415503Y-108167489D01*
X165423000Y-108129801D01*
X165423000Y-107070199D01*
X165415503Y-107032511D01*
X165397536Y-107005621D01*
X165397405Y-107003625D01*
X165399068Y-107002514D01*
X165400310Y-107002847D01*
G37*
G36*
X164450310Y-107002847D02*
G01*
X164456446Y-107006946D01*
X164516892Y-107027465D01*
X164593610Y-107006909D01*
X164599690Y-107002847D01*
X164601686Y-107002716D01*
X164602797Y-107004379D01*
X164602464Y-107005621D01*
X164584497Y-107032511D01*
X164577000Y-107070199D01*
X164577000Y-108129801D01*
X164584497Y-108167489D01*
X164602464Y-108194379D01*
X164602595Y-108196375D01*
X164600932Y-108197486D01*
X164599690Y-108197153D01*
X164593554Y-108193054D01*
X164533108Y-108172535D01*
X164456390Y-108193091D01*
X164450310Y-108197153D01*
X164448314Y-108197284D01*
X164447203Y-108195621D01*
X164447536Y-108194379D01*
X164465503Y-108167489D01*
X164473000Y-108129801D01*
X164473000Y-107070199D01*
X164465503Y-107032511D01*
X164447536Y-107005621D01*
X164447405Y-107003625D01*
X164449068Y-107002514D01*
X164450310Y-107002847D01*
G37*
G36*
X135879293Y-106539441D02*
G01*
X135911451Y-106579603D01*
X135970731Y-106602733D01*
X136033561Y-106593137D01*
X136090640Y-106540592D01*
X136092592Y-106540154D01*
X136093957Y-106542453D01*
X136077000Y-106627699D01*
X136077000Y-106972301D01*
X136094230Y-107058919D01*
X136093587Y-107060813D01*
X136091625Y-107061203D01*
X136090707Y-107060559D01*
X136058549Y-107020397D01*
X135999269Y-106997267D01*
X135936439Y-107006863D01*
X135879360Y-107059408D01*
X135877408Y-107059846D01*
X135876043Y-107057547D01*
X135893000Y-106972301D01*
X135893000Y-106627699D01*
X135875770Y-106541081D01*
X135876413Y-106539187D01*
X135878375Y-106538797D01*
X135879293Y-106539441D01*
G37*
G36*
X143494293Y-106539441D02*
G01*
X143526451Y-106579603D01*
X143585731Y-106602733D01*
X143648561Y-106593137D01*
X143705640Y-106540592D01*
X143707592Y-106540154D01*
X143708957Y-106542453D01*
X143692000Y-106627699D01*
X143692000Y-106972301D01*
X143709230Y-107058919D01*
X143708587Y-107060813D01*
X143706625Y-107061203D01*
X143705707Y-107060559D01*
X143673549Y-107020397D01*
X143614269Y-106997267D01*
X143551439Y-107006863D01*
X143494360Y-107059408D01*
X143492408Y-107059846D01*
X143491043Y-107057547D01*
X143508000Y-106972301D01*
X143508000Y-106627699D01*
X143490770Y-106541081D01*
X143491413Y-106539187D01*
X143493375Y-106538797D01*
X143494293Y-106539441D01*
G37*
G36*
X133194293Y-105939441D02*
G01*
X133226451Y-105979603D01*
X133285731Y-106002733D01*
X133348561Y-105993137D01*
X133405640Y-105940592D01*
X133407592Y-105940154D01*
X133408957Y-105942453D01*
X133392000Y-106027699D01*
X133392000Y-106372301D01*
X133409230Y-106458919D01*
X133408587Y-106460813D01*
X133406625Y-106461203D01*
X133405707Y-106460559D01*
X133373549Y-106420397D01*
X133314269Y-106397267D01*
X133251439Y-106406863D01*
X133194360Y-106459408D01*
X133192408Y-106459846D01*
X133191043Y-106457547D01*
X133208000Y-106372301D01*
X133208000Y-106027699D01*
X133190770Y-105941081D01*
X133191413Y-105939187D01*
X133193375Y-105938797D01*
X133194293Y-105939441D01*
G37*
G36*
X144349087Y-106187748D02*
G01*
X144348341Y-106189440D01*
X144300810Y-106227496D01*
X144277679Y-106286776D01*
X144287275Y-106349605D01*
X144335612Y-106402113D01*
X144336050Y-106404065D01*
X144334578Y-106405420D01*
X144333030Y-106405131D01*
X144326435Y-106400725D01*
X144232301Y-106382000D01*
X143937699Y-106382000D01*
X143843565Y-106400725D01*
X143824020Y-106413784D01*
X143822024Y-106413915D01*
X143820913Y-106412252D01*
X143821659Y-106410560D01*
X143869190Y-106372504D01*
X143892321Y-106313224D01*
X143882725Y-106250395D01*
X143834388Y-106197887D01*
X143833950Y-106195935D01*
X143835422Y-106194580D01*
X143836970Y-106194869D01*
X143843565Y-106199275D01*
X143937699Y-106218000D01*
X144232301Y-106218000D01*
X144326435Y-106199275D01*
X144345980Y-106186216D01*
X144347976Y-106186085D01*
X144349087Y-106187748D01*
G37*
G36*
X143379087Y-106187748D02*
G01*
X143378341Y-106189440D01*
X143330810Y-106227496D01*
X143307679Y-106286776D01*
X143317275Y-106349605D01*
X143365612Y-106402113D01*
X143366050Y-106404065D01*
X143364578Y-106405420D01*
X143363030Y-106405131D01*
X143356435Y-106400725D01*
X143262301Y-106382000D01*
X142967699Y-106382000D01*
X142873565Y-106400725D01*
X142854020Y-106413784D01*
X142852024Y-106413915D01*
X142850913Y-106412252D01*
X142851659Y-106410560D01*
X142899190Y-106372504D01*
X142922321Y-106313224D01*
X142912725Y-106250395D01*
X142864388Y-106197887D01*
X142863950Y-106195935D01*
X142865422Y-106194580D01*
X142866970Y-106194869D01*
X142873565Y-106199275D01*
X142967699Y-106218000D01*
X143262301Y-106218000D01*
X143356435Y-106199275D01*
X143375980Y-106186216D01*
X143377976Y-106186085D01*
X143379087Y-106187748D01*
G37*
G36*
X143494293Y-105539441D02*
G01*
X143526451Y-105579603D01*
X143585731Y-105602733D01*
X143648561Y-105593137D01*
X143705640Y-105540592D01*
X143707592Y-105540154D01*
X143708957Y-105542453D01*
X143692000Y-105627699D01*
X143692000Y-105972301D01*
X143709230Y-106058919D01*
X143708587Y-106060813D01*
X143706625Y-106061203D01*
X143705707Y-106060559D01*
X143673549Y-106020397D01*
X143614269Y-105997267D01*
X143551439Y-106006863D01*
X143494360Y-106059408D01*
X143492408Y-106059846D01*
X143491043Y-106057547D01*
X143508000Y-105972301D01*
X143508000Y-105627699D01*
X143490770Y-105541081D01*
X143491413Y-105539187D01*
X143493375Y-105538797D01*
X143494293Y-105539441D01*
G37*
G36*
X122160813Y-105391413D02*
G01*
X122161203Y-105393375D01*
X122160559Y-105394293D01*
X122120397Y-105426451D01*
X122097267Y-105485731D01*
X122106863Y-105548561D01*
X122159408Y-105605640D01*
X122159846Y-105607592D01*
X122157547Y-105608957D01*
X122072301Y-105592000D01*
X121727699Y-105592000D01*
X121641081Y-105609230D01*
X121639187Y-105608587D01*
X121638797Y-105606625D01*
X121639441Y-105605707D01*
X121679603Y-105573549D01*
X121702733Y-105514269D01*
X121693137Y-105451439D01*
X121640592Y-105394360D01*
X121640154Y-105392408D01*
X121642453Y-105391043D01*
X121727699Y-105408000D01*
X122072301Y-105408000D01*
X122158919Y-105390770D01*
X122160813Y-105391413D01*
G37*
G36*
X140894293Y-98539441D02*
G01*
X140926451Y-98579603D01*
X140985731Y-98602733D01*
X141048561Y-98593137D01*
X141105640Y-98540592D01*
X141107592Y-98540154D01*
X141108957Y-98542453D01*
X141092000Y-98627699D01*
X141092000Y-98972301D01*
X141109230Y-99058919D01*
X141108587Y-99060813D01*
X141106625Y-99061203D01*
X141105707Y-99060559D01*
X141073549Y-99020397D01*
X141014269Y-98997267D01*
X140951439Y-99006863D01*
X140894360Y-99059408D01*
X140892408Y-99059846D01*
X140891043Y-99057547D01*
X140908000Y-98972301D01*
X140908000Y-98627699D01*
X140890770Y-98541081D01*
X140891413Y-98539187D01*
X140893375Y-98538797D01*
X140894293Y-98539441D01*
G37*
G36*
X148260813Y-98691413D02*
G01*
X148261203Y-98693375D01*
X148260559Y-98694293D01*
X148220397Y-98726451D01*
X148197267Y-98785731D01*
X148206863Y-98848561D01*
X148259408Y-98905640D01*
X148259846Y-98907592D01*
X148257547Y-98908957D01*
X148172301Y-98892000D01*
X147827699Y-98892000D01*
X147741081Y-98909230D01*
X147739187Y-98908587D01*
X147738797Y-98906625D01*
X147739441Y-98905707D01*
X147779603Y-98873549D01*
X147802733Y-98814269D01*
X147793137Y-98751439D01*
X147740592Y-98694360D01*
X147740154Y-98692408D01*
X147742453Y-98691043D01*
X147827699Y-98708000D01*
X148172301Y-98708000D01*
X148258919Y-98690770D01*
X148260813Y-98691413D01*
G37*
G36*
X140779087Y-98187748D02*
G01*
X140778341Y-98189440D01*
X140730810Y-98227496D01*
X140707679Y-98286776D01*
X140717275Y-98349605D01*
X140765612Y-98402113D01*
X140766050Y-98404065D01*
X140764578Y-98405420D01*
X140763030Y-98405131D01*
X140756435Y-98400725D01*
X140662301Y-98382000D01*
X140367699Y-98382000D01*
X140273565Y-98400725D01*
X140254020Y-98413784D01*
X140252024Y-98413915D01*
X140250913Y-98412252D01*
X140251659Y-98410560D01*
X140299190Y-98372504D01*
X140322321Y-98313224D01*
X140312725Y-98250395D01*
X140264388Y-98197887D01*
X140263950Y-98195935D01*
X140265422Y-98194580D01*
X140266970Y-98194869D01*
X140273565Y-98199275D01*
X140367699Y-98218000D01*
X140662301Y-98218000D01*
X140756435Y-98199275D01*
X140775980Y-98186216D01*
X140777976Y-98186085D01*
X140779087Y-98187748D01*
G37*
G36*
X141749087Y-98187748D02*
G01*
X141748341Y-98189440D01*
X141700810Y-98227496D01*
X141677679Y-98286776D01*
X141687275Y-98349605D01*
X141735612Y-98402113D01*
X141736050Y-98404065D01*
X141734578Y-98405420D01*
X141733030Y-98405131D01*
X141726435Y-98400725D01*
X141632301Y-98382000D01*
X141337699Y-98382000D01*
X141243565Y-98400725D01*
X141224020Y-98413784D01*
X141222024Y-98413915D01*
X141220913Y-98412252D01*
X141221659Y-98410560D01*
X141269190Y-98372504D01*
X141292321Y-98313224D01*
X141282725Y-98250395D01*
X141234388Y-98197887D01*
X141233950Y-98195935D01*
X141235422Y-98194580D01*
X141236970Y-98194869D01*
X141243565Y-98199275D01*
X141337699Y-98218000D01*
X141632301Y-98218000D01*
X141726435Y-98199275D01*
X141745980Y-98186216D01*
X141747976Y-98186085D01*
X141749087Y-98187748D01*
G37*
G36*
X140894293Y-97539441D02*
G01*
X140926451Y-97579603D01*
X140985731Y-97602733D01*
X141048561Y-97593137D01*
X141105640Y-97540592D01*
X141107592Y-97540154D01*
X141108957Y-97542453D01*
X141092000Y-97627699D01*
X141092000Y-97972301D01*
X141109230Y-98058919D01*
X141108587Y-98060813D01*
X141106625Y-98061203D01*
X141105707Y-98060559D01*
X141073549Y-98020397D01*
X141014269Y-97997267D01*
X140951439Y-98006863D01*
X140894360Y-98059408D01*
X140892408Y-98059846D01*
X140891043Y-98057547D01*
X140908000Y-97972301D01*
X140908000Y-97627699D01*
X140890770Y-97541081D01*
X140891413Y-97539187D01*
X140893375Y-97538797D01*
X140894293Y-97539441D01*
G37*
G36*
X150789440Y-95971659D02*
G01*
X150827496Y-96019190D01*
X150886776Y-96042321D01*
X150949605Y-96032725D01*
X151002113Y-95984388D01*
X151004065Y-95983950D01*
X151005420Y-95985422D01*
X151005131Y-95986970D01*
X151000725Y-95993565D01*
X150982000Y-96087699D01*
X150982000Y-96382301D01*
X151000725Y-96476435D01*
X151013784Y-96495980D01*
X151013915Y-96497976D01*
X151012252Y-96499087D01*
X151010560Y-96498341D01*
X150972504Y-96450810D01*
X150913224Y-96427679D01*
X150850395Y-96437275D01*
X150797887Y-96485612D01*
X150795935Y-96486050D01*
X150794580Y-96484578D01*
X150794869Y-96483030D01*
X150799275Y-96476435D01*
X150818000Y-96382301D01*
X150818000Y-96087699D01*
X150799275Y-95993565D01*
X150786216Y-95974020D01*
X150786085Y-95972024D01*
X150787748Y-95970913D01*
X150789440Y-95971659D01*
G37*
G36*
X150660813Y-95641413D02*
G01*
X150661203Y-95643375D01*
X150660559Y-95644293D01*
X150620397Y-95676451D01*
X150597267Y-95735731D01*
X150606863Y-95798561D01*
X150659408Y-95855640D01*
X150659846Y-95857592D01*
X150657547Y-95858957D01*
X150572301Y-95842000D01*
X150227699Y-95842000D01*
X150141081Y-95859230D01*
X150139187Y-95858587D01*
X150138797Y-95856625D01*
X150139441Y-95855707D01*
X150179603Y-95823549D01*
X150202733Y-95764269D01*
X150193137Y-95701439D01*
X150140592Y-95644360D01*
X150140154Y-95642408D01*
X150142453Y-95641043D01*
X150227699Y-95658000D01*
X150572301Y-95658000D01*
X150658919Y-95640770D01*
X150660813Y-95641413D01*
G37*
G36*
X151660813Y-95641413D02*
G01*
X151661203Y-95643375D01*
X151660559Y-95644293D01*
X151620397Y-95676451D01*
X151597267Y-95735731D01*
X151606863Y-95798561D01*
X151659408Y-95855640D01*
X151659846Y-95857592D01*
X151657547Y-95858957D01*
X151572301Y-95842000D01*
X151227699Y-95842000D01*
X151141081Y-95859230D01*
X151139187Y-95858587D01*
X151138797Y-95856625D01*
X151139441Y-95855707D01*
X151179603Y-95823549D01*
X151202733Y-95764269D01*
X151193137Y-95701439D01*
X151140592Y-95644360D01*
X151140154Y-95642408D01*
X151142453Y-95641043D01*
X151227699Y-95658000D01*
X151572301Y-95658000D01*
X151658919Y-95640770D01*
X151660813Y-95641413D01*
G37*
G36*
X150789440Y-95001659D02*
G01*
X150827496Y-95049190D01*
X150886776Y-95072321D01*
X150949605Y-95062725D01*
X151002113Y-95014388D01*
X151004065Y-95013950D01*
X151005420Y-95015422D01*
X151005131Y-95016970D01*
X151000725Y-95023565D01*
X150982000Y-95117699D01*
X150982000Y-95412301D01*
X151000725Y-95506435D01*
X151013784Y-95525980D01*
X151013915Y-95527976D01*
X151012252Y-95529087D01*
X151010560Y-95528341D01*
X150972504Y-95480810D01*
X150913224Y-95457679D01*
X150850395Y-95467275D01*
X150797887Y-95515612D01*
X150795935Y-95516050D01*
X150794580Y-95514578D01*
X150794869Y-95513030D01*
X150799275Y-95506435D01*
X150818000Y-95412301D01*
X150818000Y-95117699D01*
X150799275Y-95023565D01*
X150786216Y-95004020D01*
X150786085Y-95002024D01*
X150787748Y-95000913D01*
X150789440Y-95001659D01*
G37*
G36*
X136960813Y-95091413D02*
G01*
X136961203Y-95093375D01*
X136960559Y-95094293D01*
X136920397Y-95126451D01*
X136897267Y-95185731D01*
X136906863Y-95248561D01*
X136959408Y-95305640D01*
X136959846Y-95307592D01*
X136957547Y-95308957D01*
X136872301Y-95292000D01*
X136527699Y-95292000D01*
X136441081Y-95309230D01*
X136439187Y-95308587D01*
X136438797Y-95306625D01*
X136439441Y-95305707D01*
X136479603Y-95273549D01*
X136502733Y-95214269D01*
X136493137Y-95151439D01*
X136440592Y-95094360D01*
X136440154Y-95092408D01*
X136442453Y-95091043D01*
X136527699Y-95108000D01*
X136872301Y-95108000D01*
X136958919Y-95090770D01*
X136960813Y-95091413D01*
G37*
G36*
X151510797Y-94657335D02*
G01*
X151573565Y-94699275D01*
X151667699Y-94718000D01*
X151821043Y-94718000D01*
X151822775Y-94719000D01*
X151822775Y-94721000D01*
X151821561Y-94721932D01*
X151759578Y-94738541D01*
X151714585Y-94783534D01*
X151698146Y-94844884D01*
X151730804Y-94928581D01*
X151731786Y-94929648D01*
X151732223Y-94931599D01*
X151730751Y-94932954D01*
X151729203Y-94932665D01*
X151666435Y-94890725D01*
X151572301Y-94872000D01*
X151418957Y-94872000D01*
X151417225Y-94871000D01*
X151417225Y-94869000D01*
X151418439Y-94868068D01*
X151480423Y-94851459D01*
X151525415Y-94806467D01*
X151541854Y-94745116D01*
X151509196Y-94661419D01*
X151508214Y-94660352D01*
X151507777Y-94658401D01*
X151509249Y-94657046D01*
X151510797Y-94657335D01*
G37*
G36*
X152194293Y-94039441D02*
G01*
X152226451Y-94079603D01*
X152285731Y-94102733D01*
X152348561Y-94093137D01*
X152405640Y-94040592D01*
X152407592Y-94040154D01*
X152408957Y-94042453D01*
X152392000Y-94127699D01*
X152392000Y-94472301D01*
X152409230Y-94558919D01*
X152408587Y-94560813D01*
X152406625Y-94561203D01*
X152405707Y-94560559D01*
X152373549Y-94520397D01*
X152314269Y-94497267D01*
X152251439Y-94506863D01*
X152194360Y-94559408D01*
X152192408Y-94559846D01*
X152191043Y-94557547D01*
X152208000Y-94472301D01*
X152208000Y-94127699D01*
X152190770Y-94041081D01*
X152191413Y-94039187D01*
X152193375Y-94038797D01*
X152194293Y-94039441D01*
G37*
G36*
X136960813Y-92191413D02*
G01*
X136961203Y-92193375D01*
X136960559Y-92194293D01*
X136920397Y-92226451D01*
X136897267Y-92285731D01*
X136906863Y-92348561D01*
X136959408Y-92405640D01*
X136959846Y-92407592D01*
X136957547Y-92408957D01*
X136872301Y-92392000D01*
X136527699Y-92392000D01*
X136441081Y-92409230D01*
X136439187Y-92408587D01*
X136438797Y-92406625D01*
X136439441Y-92405707D01*
X136479603Y-92373549D01*
X136502733Y-92314269D01*
X136493137Y-92251439D01*
X136440592Y-92194360D01*
X136440154Y-92192408D01*
X136442453Y-92191043D01*
X136527699Y-92208000D01*
X136872301Y-92208000D01*
X136958919Y-92190770D01*
X136960813Y-92191413D01*
G37*
G36*
X136296940Y-88621659D02*
G01*
X136334996Y-88669190D01*
X136394276Y-88692321D01*
X136457105Y-88682725D01*
X136509613Y-88634388D01*
X136511565Y-88633950D01*
X136512920Y-88635422D01*
X136512631Y-88636970D01*
X136508225Y-88643565D01*
X136489500Y-88737699D01*
X136489500Y-89032301D01*
X136508225Y-89126435D01*
X136521284Y-89145980D01*
X136521415Y-89147976D01*
X136519752Y-89149087D01*
X136518060Y-89148341D01*
X136480004Y-89100810D01*
X136420724Y-89077679D01*
X136357895Y-89087275D01*
X136305387Y-89135612D01*
X136303435Y-89136050D01*
X136302080Y-89134578D01*
X136302369Y-89133030D01*
X136306775Y-89126435D01*
X136325500Y-89032301D01*
X136325500Y-88737699D01*
X136306775Y-88643565D01*
X136293716Y-88624020D01*
X136293585Y-88622024D01*
X136295248Y-88620913D01*
X136296940Y-88621659D01*
G37*
G36*
X137168313Y-88291413D02*
G01*
X137168703Y-88293375D01*
X137168059Y-88294293D01*
X137127897Y-88326451D01*
X137104767Y-88385731D01*
X137114363Y-88448561D01*
X137166908Y-88505640D01*
X137167346Y-88507592D01*
X137165047Y-88508957D01*
X137079801Y-88492000D01*
X136735199Y-88492000D01*
X136648581Y-88509230D01*
X136646687Y-88508587D01*
X136646297Y-88506625D01*
X136646941Y-88505707D01*
X136687103Y-88473549D01*
X136710233Y-88414269D01*
X136700637Y-88351439D01*
X136648092Y-88294360D01*
X136647654Y-88292408D01*
X136649953Y-88291043D01*
X136735199Y-88308000D01*
X137079801Y-88308000D01*
X137166419Y-88290770D01*
X137168313Y-88291413D01*
G37*
G36*
X136168313Y-88291413D02*
G01*
X136168703Y-88293375D01*
X136168059Y-88294293D01*
X136127897Y-88326451D01*
X136104767Y-88385731D01*
X136114363Y-88448561D01*
X136166908Y-88505640D01*
X136167346Y-88507592D01*
X136165047Y-88508957D01*
X136079801Y-88492000D01*
X135735199Y-88492000D01*
X135648581Y-88509230D01*
X135646687Y-88508587D01*
X135646297Y-88506625D01*
X135646941Y-88505707D01*
X135687103Y-88473549D01*
X135710233Y-88414269D01*
X135700637Y-88351439D01*
X135648092Y-88294360D01*
X135647654Y-88292408D01*
X135649953Y-88291043D01*
X135735199Y-88308000D01*
X136079801Y-88308000D01*
X136166419Y-88290770D01*
X136168313Y-88291413D01*
G37*
G36*
X122225965Y-87845541D02*
G01*
X122225810Y-87847452D01*
X122179230Y-87918363D01*
X122137949Y-88053388D01*
X122136224Y-88194569D01*
X122174193Y-88330558D01*
X122221759Y-88406977D01*
X122221825Y-88408976D01*
X122220127Y-88410033D01*
X122218443Y-88409210D01*
X122182549Y-88359806D01*
X122180828Y-88359543D01*
X122154379Y-88323928D01*
X122095983Y-88298655D01*
X122032861Y-88305958D01*
X121978110Y-88354225D01*
X121976149Y-88354621D01*
X121974826Y-88353120D01*
X121975129Y-88351607D01*
X121978151Y-88347127D01*
X122021075Y-88212632D01*
X122022946Y-88059392D01*
X121983322Y-87923888D01*
X121972522Y-87907001D01*
X121972431Y-87905003D01*
X121974116Y-87903925D01*
X121975651Y-87904539D01*
X122014340Y-87944883D01*
X122075448Y-87962637D01*
X122137154Y-87947481D01*
X122179587Y-87899348D01*
X122182263Y-87899053D01*
X122182993Y-87899583D01*
X122222520Y-87845178D01*
X122224347Y-87844365D01*
X122225965Y-87845541D01*
G37*
G36*
X136296940Y-87651659D02*
G01*
X136334996Y-87699190D01*
X136394276Y-87722321D01*
X136457105Y-87712725D01*
X136509613Y-87664388D01*
X136511565Y-87663950D01*
X136512920Y-87665422D01*
X136512631Y-87666970D01*
X136508225Y-87673565D01*
X136489500Y-87767699D01*
X136489500Y-88062301D01*
X136508225Y-88156435D01*
X136521284Y-88175980D01*
X136521415Y-88177976D01*
X136519752Y-88179087D01*
X136518060Y-88178341D01*
X136480004Y-88130810D01*
X136420724Y-88107679D01*
X136357895Y-88117275D01*
X136305387Y-88165612D01*
X136303435Y-88166050D01*
X136302080Y-88164578D01*
X136302369Y-88163030D01*
X136306775Y-88156435D01*
X136325500Y-88062301D01*
X136325500Y-87767699D01*
X136306775Y-87673565D01*
X136293716Y-87654020D01*
X136293585Y-87652024D01*
X136295248Y-87650913D01*
X136296940Y-87651659D01*
G37*
G36*
X152660813Y-84791413D02*
G01*
X152661203Y-84793375D01*
X152660559Y-84794293D01*
X152620397Y-84826451D01*
X152597267Y-84885731D01*
X152606863Y-84948561D01*
X152659408Y-85005640D01*
X152659846Y-85007592D01*
X152657547Y-85008957D01*
X152572301Y-84992000D01*
X152227699Y-84992000D01*
X152141081Y-85009230D01*
X152139187Y-85008587D01*
X152138797Y-85006625D01*
X152139441Y-85005707D01*
X152179603Y-84973549D01*
X152202733Y-84914269D01*
X152193137Y-84851439D01*
X152140592Y-84794360D01*
X152140154Y-84792408D01*
X152142453Y-84791043D01*
X152227699Y-84808000D01*
X152572301Y-84808000D01*
X152658919Y-84790770D01*
X152660813Y-84791413D01*
G37*
G36*
X148501932Y-84337104D02*
G01*
X148518541Y-84399088D01*
X148563534Y-84444080D01*
X148624999Y-84460550D01*
X148686465Y-84444080D01*
X148731519Y-84399026D01*
X148746350Y-84357689D01*
X148748072Y-84347369D01*
X148748286Y-84346747D01*
X148749596Y-84344325D01*
X148751299Y-84343277D01*
X148753059Y-84344228D01*
X148753317Y-84345666D01*
X148737000Y-84427699D01*
X148737000Y-84772301D01*
X148751247Y-84843926D01*
X148750604Y-84845820D01*
X148748642Y-84846210D01*
X148747453Y-84845119D01*
X148737743Y-84822982D01*
X148697802Y-84773098D01*
X148638522Y-84749968D01*
X148575619Y-84759575D01*
X148525993Y-84799310D01*
X148501900Y-84872773D01*
X148500410Y-84874107D01*
X148498510Y-84873484D01*
X148498000Y-84872150D01*
X148498000Y-84337622D01*
X148499000Y-84335890D01*
X148501000Y-84335890D01*
X148501932Y-84337104D01*
G37*
G36*
X149509293Y-84339441D02*
G01*
X149541451Y-84379603D01*
X149600731Y-84402733D01*
X149663561Y-84393137D01*
X149720640Y-84340592D01*
X149722592Y-84340154D01*
X149723957Y-84342453D01*
X149707000Y-84427699D01*
X149707000Y-84772301D01*
X149724230Y-84858919D01*
X149723587Y-84860813D01*
X149721625Y-84861203D01*
X149720707Y-84860559D01*
X149688549Y-84820397D01*
X149629269Y-84797267D01*
X149566439Y-84806863D01*
X149509360Y-84859408D01*
X149507408Y-84859846D01*
X149506043Y-84857547D01*
X149523000Y-84772301D01*
X149523000Y-84427699D01*
X149505770Y-84341081D01*
X149506413Y-84339187D01*
X149508375Y-84338797D01*
X149509293Y-84339441D01*
G37*
G36*
X149394087Y-83987748D02*
G01*
X149393341Y-83989440D01*
X149345810Y-84027496D01*
X149322679Y-84086776D01*
X149332275Y-84149605D01*
X149380612Y-84202113D01*
X149381050Y-84204065D01*
X149379578Y-84205420D01*
X149378030Y-84205131D01*
X149371435Y-84200725D01*
X149277301Y-84182000D01*
X148982699Y-84182000D01*
X148888565Y-84200725D01*
X148869020Y-84213784D01*
X148867024Y-84213915D01*
X148865913Y-84212252D01*
X148866659Y-84210560D01*
X148914190Y-84172504D01*
X148937321Y-84113224D01*
X148927725Y-84050395D01*
X148879388Y-83997887D01*
X148878950Y-83995935D01*
X148880422Y-83994580D01*
X148881970Y-83994869D01*
X148888565Y-83999275D01*
X148982699Y-84018000D01*
X149277301Y-84018000D01*
X149371435Y-83999275D01*
X149390980Y-83986216D01*
X149392976Y-83986085D01*
X149394087Y-83987748D01*
G37*
G36*
X150364087Y-83987748D02*
G01*
X150363341Y-83989440D01*
X150315810Y-84027496D01*
X150292679Y-84086776D01*
X150302275Y-84149605D01*
X150350612Y-84202113D01*
X150351050Y-84204065D01*
X150349578Y-84205420D01*
X150348030Y-84205131D01*
X150341435Y-84200725D01*
X150247301Y-84182000D01*
X149952699Y-84182000D01*
X149858565Y-84200725D01*
X149839020Y-84213784D01*
X149837024Y-84213915D01*
X149835913Y-84212252D01*
X149836659Y-84210560D01*
X149884190Y-84172504D01*
X149907321Y-84113224D01*
X149897725Y-84050395D01*
X149849388Y-83997887D01*
X149848950Y-83995935D01*
X149850422Y-83994580D01*
X149851970Y-83994869D01*
X149858565Y-83999275D01*
X149952699Y-84018000D01*
X150247301Y-84018000D01*
X150341435Y-83999275D01*
X150360980Y-83986216D01*
X150362976Y-83986085D01*
X150364087Y-83987748D01*
G37*
G36*
X149509293Y-83339441D02*
G01*
X149541451Y-83379603D01*
X149600731Y-83402733D01*
X149663561Y-83393137D01*
X149720640Y-83340592D01*
X149722592Y-83340154D01*
X149723957Y-83342453D01*
X149707000Y-83427699D01*
X149707000Y-83772301D01*
X149724230Y-83858919D01*
X149723587Y-83860813D01*
X149721625Y-83861203D01*
X149720707Y-83860559D01*
X149688549Y-83820397D01*
X149629269Y-83797267D01*
X149566439Y-83806863D01*
X149509360Y-83859408D01*
X149507408Y-83859846D01*
X149506043Y-83857547D01*
X149523000Y-83772301D01*
X149523000Y-83427699D01*
X149505770Y-83341081D01*
X149506413Y-83339187D01*
X149508375Y-83338797D01*
X149509293Y-83339441D01*
G37*
G36*
X141094293Y-82939441D02*
G01*
X141126451Y-82979603D01*
X141185731Y-83002733D01*
X141248561Y-82993137D01*
X141305640Y-82940592D01*
X141307592Y-82940154D01*
X141308957Y-82942453D01*
X141292000Y-83027699D01*
X141292000Y-83372301D01*
X141309230Y-83458919D01*
X141308587Y-83460813D01*
X141306625Y-83461203D01*
X141305707Y-83460559D01*
X141273549Y-83420397D01*
X141214269Y-83397267D01*
X141151439Y-83406863D01*
X141094360Y-83459408D01*
X141092408Y-83459846D01*
X141091043Y-83457547D01*
X141108000Y-83372301D01*
X141108000Y-83027699D01*
X141090770Y-82941081D01*
X141091413Y-82939187D01*
X141093375Y-82938797D01*
X141094293Y-82939441D01*
G37*
G36*
X154294293Y-82439441D02*
G01*
X154326451Y-82479603D01*
X154385731Y-82502733D01*
X154448561Y-82493137D01*
X154505640Y-82440592D01*
X154507592Y-82440154D01*
X154508957Y-82442453D01*
X154492000Y-82527699D01*
X154492000Y-82872301D01*
X154509230Y-82958919D01*
X154508587Y-82960813D01*
X154506625Y-82961203D01*
X154505707Y-82960559D01*
X154473549Y-82920397D01*
X154414269Y-82897267D01*
X154351439Y-82906863D01*
X154294360Y-82959408D01*
X154292408Y-82959846D01*
X154291043Y-82957547D01*
X154308000Y-82872301D01*
X154308000Y-82527699D01*
X154290770Y-82441081D01*
X154291413Y-82439187D01*
X154293375Y-82438797D01*
X154294293Y-82439441D01*
G37*
G36*
X148060813Y-82691413D02*
G01*
X148061203Y-82693375D01*
X148060559Y-82694293D01*
X148020397Y-82726451D01*
X147997267Y-82785731D01*
X148006863Y-82848561D01*
X148059408Y-82905640D01*
X148059846Y-82907592D01*
X148057547Y-82908957D01*
X147972301Y-82892000D01*
X147627699Y-82892000D01*
X147541081Y-82909230D01*
X147539187Y-82908587D01*
X147538797Y-82906625D01*
X147539441Y-82905707D01*
X147579603Y-82873549D01*
X147602733Y-82814269D01*
X147593137Y-82751439D01*
X147540592Y-82694360D01*
X147540154Y-82692408D01*
X147542453Y-82691043D01*
X147627699Y-82708000D01*
X147972301Y-82708000D01*
X148058919Y-82690770D01*
X148060813Y-82691413D01*
G37*
G36*
X141949087Y-82587748D02*
G01*
X141948341Y-82589440D01*
X141900810Y-82627496D01*
X141877679Y-82686776D01*
X141887275Y-82749605D01*
X141935612Y-82802113D01*
X141936050Y-82804065D01*
X141934578Y-82805420D01*
X141933030Y-82805131D01*
X141926435Y-82800725D01*
X141832301Y-82782000D01*
X141537699Y-82782000D01*
X141443565Y-82800725D01*
X141424020Y-82813784D01*
X141422024Y-82813915D01*
X141420913Y-82812252D01*
X141421659Y-82810560D01*
X141469190Y-82772504D01*
X141492321Y-82713224D01*
X141482725Y-82650395D01*
X141434388Y-82597887D01*
X141433950Y-82595935D01*
X141435422Y-82594580D01*
X141436970Y-82594869D01*
X141443565Y-82599275D01*
X141537699Y-82618000D01*
X141832301Y-82618000D01*
X141926435Y-82599275D01*
X141945980Y-82586216D01*
X141947976Y-82586085D01*
X141949087Y-82587748D01*
G37*
G36*
X140979087Y-82587748D02*
G01*
X140978341Y-82589440D01*
X140930810Y-82627496D01*
X140907679Y-82686776D01*
X140917275Y-82749605D01*
X140965612Y-82802113D01*
X140966050Y-82804065D01*
X140964578Y-82805420D01*
X140963030Y-82805131D01*
X140956435Y-82800725D01*
X140862301Y-82782000D01*
X140567699Y-82782000D01*
X140473565Y-82800725D01*
X140454020Y-82813784D01*
X140452024Y-82813915D01*
X140450913Y-82812252D01*
X140451659Y-82810560D01*
X140499190Y-82772504D01*
X140522321Y-82713224D01*
X140512725Y-82650395D01*
X140464388Y-82597887D01*
X140463950Y-82595935D01*
X140465422Y-82594580D01*
X140466970Y-82594869D01*
X140473565Y-82599275D01*
X140567699Y-82618000D01*
X140862301Y-82618000D01*
X140956435Y-82599275D01*
X140975980Y-82586216D01*
X140977976Y-82586085D01*
X140979087Y-82587748D01*
G37*
G36*
X141094293Y-81939441D02*
G01*
X141126451Y-81979603D01*
X141185731Y-82002733D01*
X141248561Y-81993137D01*
X141305640Y-81940592D01*
X141307592Y-81940154D01*
X141308957Y-81942453D01*
X141292000Y-82027699D01*
X141292000Y-82372301D01*
X141309230Y-82458919D01*
X141308587Y-82460813D01*
X141306625Y-82461203D01*
X141305707Y-82460559D01*
X141273549Y-82420397D01*
X141214269Y-82397267D01*
X141151439Y-82406863D01*
X141094360Y-82459408D01*
X141092408Y-82459846D01*
X141091043Y-82457547D01*
X141108000Y-82372301D01*
X141108000Y-82027699D01*
X141090770Y-81941081D01*
X141091413Y-81939187D01*
X141093375Y-81938797D01*
X141094293Y-81939441D01*
G37*
G36*
X155010795Y-82057334D02*
G01*
X155073565Y-82099275D01*
X155167699Y-82118000D01*
X155271837Y-82118000D01*
X155273569Y-82119000D01*
X155273569Y-82121000D01*
X155272355Y-82121932D01*
X155210372Y-82138541D01*
X155165379Y-82183534D01*
X155148940Y-82244884D01*
X155181599Y-82328581D01*
X155191787Y-82339648D01*
X155192225Y-82341600D01*
X155190753Y-82342955D01*
X155189205Y-82342666D01*
X155126435Y-82300725D01*
X155032301Y-82282000D01*
X154928163Y-82282000D01*
X154926431Y-82281000D01*
X154926431Y-82279000D01*
X154927645Y-82278068D01*
X154989629Y-82261459D01*
X155034621Y-82216467D01*
X155051060Y-82155116D01*
X155018401Y-82071419D01*
X155008213Y-82060352D01*
X155007775Y-82058400D01*
X155009247Y-82057045D01*
X155010795Y-82057334D01*
G37*
G36*
X155694293Y-81439441D02*
G01*
X155726451Y-81479603D01*
X155785731Y-81502733D01*
X155848561Y-81493137D01*
X155905640Y-81440592D01*
X155907592Y-81440154D01*
X155908957Y-81442453D01*
X155892000Y-81527699D01*
X155892000Y-81872301D01*
X155909230Y-81958919D01*
X155908587Y-81960813D01*
X155906625Y-81961203D01*
X155905707Y-81960559D01*
X155873549Y-81920397D01*
X155814269Y-81897267D01*
X155751439Y-81906863D01*
X155694360Y-81959408D01*
X155692408Y-81959846D01*
X155691043Y-81957547D01*
X155708000Y-81872301D01*
X155708000Y-81527699D01*
X155690770Y-81441081D01*
X155691413Y-81439187D01*
X155693375Y-81438797D01*
X155694293Y-81439441D01*
G37*
M02*
