G04 #@! TF.GenerationSoftware,KiCad,Pcbnew,5.99.0-unknown-dd374e12a~102~ubuntu20.04.1*
G04 #@! TF.CreationDate,2020-12-05T09:27:30-08:00*
G04 #@! TF.ProjectId,BLDC,424c4443-2e6b-4696-9361-645f70636258,rev?*
G04 #@! TF.SameCoordinates,Original*
G04 #@! TF.FileFunction,AssemblyDrawing,Bot*
%FSLAX46Y46*%
G04 Gerber Fmt 4.6, Leading zero omitted, Abs format (unit mm)*
G04 Created by KiCad (PCBNEW 5.99.0-unknown-dd374e12a~102~ubuntu20.04.1) date 2020-12-05 09:27:30*
%MOMM*%
%LPD*%
G01*
G04 APERTURE LIST*
%ADD10C,0.150000*%
%ADD11C,0.060000*%
%ADD12C,0.100000*%
G04 APERTURE END LIST*
D10*
X165361904Y-109266666D02*
X164980952Y-109000000D01*
X165361904Y-108809523D02*
X164561904Y-108809523D01*
X164561904Y-109114285D01*
X164600000Y-109190476D01*
X164638095Y-109228571D01*
X164714285Y-109266666D01*
X164828571Y-109266666D01*
X164904761Y-109228571D01*
X164942857Y-109190476D01*
X164980952Y-109114285D01*
X164980952Y-108809523D01*
X164828571Y-109952380D02*
X165361904Y-109952380D01*
X164523809Y-109761904D02*
X165095238Y-109571428D01*
X165095238Y-110066666D01*
X166361904Y-109266666D02*
X165980952Y-109000000D01*
X166361904Y-108809523D02*
X165561904Y-108809523D01*
X165561904Y-109114285D01*
X165600000Y-109190476D01*
X165638095Y-109228571D01*
X165714285Y-109266666D01*
X165828571Y-109266666D01*
X165904761Y-109228571D01*
X165942857Y-109190476D01*
X165980952Y-109114285D01*
X165980952Y-108809523D01*
X165561904Y-109952380D02*
X165561904Y-109800000D01*
X165600000Y-109723809D01*
X165638095Y-109685714D01*
X165752380Y-109609523D01*
X165904761Y-109571428D01*
X166209523Y-109571428D01*
X166285714Y-109609523D01*
X166323809Y-109647619D01*
X166361904Y-109723809D01*
X166361904Y-109876190D01*
X166323809Y-109952380D01*
X166285714Y-109990476D01*
X166209523Y-110028571D01*
X166019047Y-110028571D01*
X165942857Y-109990476D01*
X165904761Y-109952380D01*
X165866666Y-109876190D01*
X165866666Y-109723809D01*
X165904761Y-109647619D01*
X165942857Y-109609523D01*
X166019047Y-109571428D01*
X151685714Y-95235714D02*
X151723809Y-95197619D01*
X151761904Y-95083333D01*
X151761904Y-95007142D01*
X151723809Y-94892857D01*
X151647619Y-94816666D01*
X151571428Y-94778571D01*
X151419047Y-94740476D01*
X151304761Y-94740476D01*
X151152380Y-94778571D01*
X151076190Y-94816666D01*
X151000000Y-94892857D01*
X150961904Y-95007142D01*
X150961904Y-95083333D01*
X151000000Y-95197619D01*
X151038095Y-95235714D01*
X151228571Y-95921428D02*
X151761904Y-95921428D01*
X150923809Y-95730952D02*
X151495238Y-95540476D01*
X151495238Y-96035714D01*
X151304761Y-96454761D02*
X151266666Y-96378571D01*
X151228571Y-96340476D01*
X151152380Y-96302380D01*
X151114285Y-96302380D01*
X151038095Y-96340476D01*
X151000000Y-96378571D01*
X150961904Y-96454761D01*
X150961904Y-96607142D01*
X151000000Y-96683333D01*
X151038095Y-96721428D01*
X151114285Y-96759523D01*
X151152380Y-96759523D01*
X151228571Y-96721428D01*
X151266666Y-96683333D01*
X151304761Y-96607142D01*
X151304761Y-96454761D01*
X151342857Y-96378571D01*
X151380952Y-96340476D01*
X151457142Y-96302380D01*
X151609523Y-96302380D01*
X151685714Y-96340476D01*
X151723809Y-96378571D01*
X151761904Y-96454761D01*
X151761904Y-96607142D01*
X151723809Y-96683333D01*
X151685714Y-96721428D01*
X151609523Y-96759523D01*
X151457142Y-96759523D01*
X151380952Y-96721428D01*
X151342857Y-96683333D01*
X151304761Y-96607142D01*
X165609523Y-106061904D02*
X165609523Y-106709523D01*
X165571428Y-106785714D01*
X165533333Y-106823809D01*
X165457142Y-106861904D01*
X165304761Y-106861904D01*
X165228571Y-106823809D01*
X165190476Y-106785714D01*
X165152380Y-106709523D01*
X165152380Y-106061904D01*
X164847619Y-106061904D02*
X164314285Y-106061904D01*
X164657142Y-106861904D01*
X148061904Y-104009523D02*
X148709523Y-104009523D01*
X148785714Y-104047619D01*
X148823809Y-104085714D01*
X148861904Y-104161904D01*
X148861904Y-104314285D01*
X148823809Y-104390476D01*
X148785714Y-104428571D01*
X148709523Y-104466666D01*
X148061904Y-104466666D01*
X148861904Y-105266666D02*
X148861904Y-104809523D01*
X148861904Y-105038095D02*
X148061904Y-105038095D01*
X148176190Y-104961904D01*
X148252380Y-104885714D01*
X148290476Y-104809523D01*
X148061904Y-105533333D02*
X148061904Y-106028571D01*
X148366666Y-105761904D01*
X148366666Y-105876190D01*
X148404761Y-105952380D01*
X148442857Y-105990476D01*
X148519047Y-106028571D01*
X148709523Y-106028571D01*
X148785714Y-105990476D01*
X148823809Y-105952380D01*
X148861904Y-105876190D01*
X148861904Y-105647619D01*
X148823809Y-105571428D01*
X148785714Y-105533333D01*
X133814285Y-106485714D02*
X133852380Y-106523809D01*
X133966666Y-106561904D01*
X134042857Y-106561904D01*
X134157142Y-106523809D01*
X134233333Y-106447619D01*
X134271428Y-106371428D01*
X134309523Y-106219047D01*
X134309523Y-106104761D01*
X134271428Y-105952380D01*
X134233333Y-105876190D01*
X134157142Y-105800000D01*
X134042857Y-105761904D01*
X133966666Y-105761904D01*
X133852380Y-105800000D01*
X133814285Y-105838095D01*
X133090476Y-105761904D02*
X133471428Y-105761904D01*
X133509523Y-106142857D01*
X133471428Y-106104761D01*
X133395238Y-106066666D01*
X133204761Y-106066666D01*
X133128571Y-106104761D01*
X133090476Y-106142857D01*
X133052380Y-106219047D01*
X133052380Y-106409523D01*
X133090476Y-106485714D01*
X133128571Y-106523809D01*
X133204761Y-106561904D01*
X133395238Y-106561904D01*
X133471428Y-106523809D01*
X133509523Y-106485714D01*
X132366666Y-105761904D02*
X132519047Y-105761904D01*
X132595238Y-105800000D01*
X132633333Y-105838095D01*
X132709523Y-105952380D01*
X132747619Y-106104761D01*
X132747619Y-106409523D01*
X132709523Y-106485714D01*
X132671428Y-106523809D01*
X132595238Y-106561904D01*
X132442857Y-106561904D01*
X132366666Y-106523809D01*
X132328571Y-106485714D01*
X132290476Y-106409523D01*
X132290476Y-106219047D01*
X132328571Y-106142857D01*
X132366666Y-106104761D01*
X132442857Y-106066666D01*
X132595238Y-106066666D01*
X132671428Y-106104761D01*
X132709523Y-106142857D01*
X132747619Y-106219047D01*
X133785714Y-120579166D02*
X133823809Y-120541071D01*
X133861904Y-120426785D01*
X133861904Y-120350595D01*
X133823809Y-120236309D01*
X133747619Y-120160119D01*
X133671428Y-120122023D01*
X133519047Y-120083928D01*
X133404761Y-120083928D01*
X133252380Y-120122023D01*
X133176190Y-120160119D01*
X133100000Y-120236309D01*
X133061904Y-120350595D01*
X133061904Y-120426785D01*
X133100000Y-120541071D01*
X133138095Y-120579166D01*
X133861904Y-121341071D02*
X133861904Y-120883928D01*
X133861904Y-121112500D02*
X133061904Y-121112500D01*
X133176190Y-121036309D01*
X133252380Y-120960119D01*
X133290476Y-120883928D01*
X137014285Y-122485714D02*
X137052380Y-122523809D01*
X137166666Y-122561904D01*
X137242857Y-122561904D01*
X137357142Y-122523809D01*
X137433333Y-122447619D01*
X137471428Y-122371428D01*
X137509523Y-122219047D01*
X137509523Y-122104761D01*
X137471428Y-121952380D01*
X137433333Y-121876190D01*
X137357142Y-121800000D01*
X137242857Y-121761904D01*
X137166666Y-121761904D01*
X137052380Y-121800000D01*
X137014285Y-121838095D01*
X136290476Y-121761904D02*
X136671428Y-121761904D01*
X136709523Y-122142857D01*
X136671428Y-122104761D01*
X136595238Y-122066666D01*
X136404761Y-122066666D01*
X136328571Y-122104761D01*
X136290476Y-122142857D01*
X136252380Y-122219047D01*
X136252380Y-122409523D01*
X136290476Y-122485714D01*
X136328571Y-122523809D01*
X136404761Y-122561904D01*
X136595238Y-122561904D01*
X136671428Y-122523809D01*
X136709523Y-122485714D01*
X135947619Y-121838095D02*
X135909523Y-121800000D01*
X135833333Y-121761904D01*
X135642857Y-121761904D01*
X135566666Y-121800000D01*
X135528571Y-121838095D01*
X135490476Y-121914285D01*
X135490476Y-121990476D01*
X135528571Y-122104761D01*
X135985714Y-122561904D01*
X135490476Y-122561904D01*
X134514285Y-122985714D02*
X134552380Y-123023809D01*
X134666666Y-123061904D01*
X134742857Y-123061904D01*
X134857142Y-123023809D01*
X134933333Y-122947619D01*
X134971428Y-122871428D01*
X135009523Y-122719047D01*
X135009523Y-122604761D01*
X134971428Y-122452380D01*
X134933333Y-122376190D01*
X134857142Y-122300000D01*
X134742857Y-122261904D01*
X134666666Y-122261904D01*
X134552380Y-122300000D01*
X134514285Y-122338095D01*
X133790476Y-122261904D02*
X134171428Y-122261904D01*
X134209523Y-122642857D01*
X134171428Y-122604761D01*
X134095238Y-122566666D01*
X133904761Y-122566666D01*
X133828571Y-122604761D01*
X133790476Y-122642857D01*
X133752380Y-122719047D01*
X133752380Y-122909523D01*
X133790476Y-122985714D01*
X133828571Y-123023809D01*
X133904761Y-123061904D01*
X134095238Y-123061904D01*
X134171428Y-123023809D01*
X134209523Y-122985714D01*
X133257142Y-122261904D02*
X133180952Y-122261904D01*
X133104761Y-122300000D01*
X133066666Y-122338095D01*
X133028571Y-122414285D01*
X132990476Y-122566666D01*
X132990476Y-122757142D01*
X133028571Y-122909523D01*
X133066666Y-122985714D01*
X133104761Y-123023809D01*
X133180952Y-123061904D01*
X133257142Y-123061904D01*
X133333333Y-123023809D01*
X133371428Y-122985714D01*
X133409523Y-122909523D01*
X133447619Y-122757142D01*
X133447619Y-122566666D01*
X133409523Y-122414285D01*
X133371428Y-122338095D01*
X133333333Y-122300000D01*
X133257142Y-122261904D01*
X122185714Y-104985714D02*
X122223809Y-104947619D01*
X122261904Y-104833333D01*
X122261904Y-104757142D01*
X122223809Y-104642857D01*
X122147619Y-104566666D01*
X122071428Y-104528571D01*
X121919047Y-104490476D01*
X121804761Y-104490476D01*
X121652380Y-104528571D01*
X121576190Y-104566666D01*
X121500000Y-104642857D01*
X121461904Y-104757142D01*
X121461904Y-104833333D01*
X121500000Y-104947619D01*
X121538095Y-104985714D01*
X122261904Y-105747619D02*
X122261904Y-105290476D01*
X122261904Y-105519047D02*
X121461904Y-105519047D01*
X121576190Y-105442857D01*
X121652380Y-105366666D01*
X121690476Y-105290476D01*
X121461904Y-106014285D02*
X121461904Y-106509523D01*
X121766666Y-106242857D01*
X121766666Y-106357142D01*
X121804761Y-106433333D01*
X121842857Y-106471428D01*
X121919047Y-106509523D01*
X122109523Y-106509523D01*
X122185714Y-106471428D01*
X122223809Y-106433333D01*
X122261904Y-106357142D01*
X122261904Y-106128571D01*
X122223809Y-106052380D01*
X122185714Y-106014285D01*
D11*
X147266666Y-116080952D02*
X147400000Y-115890476D01*
X147495238Y-116080952D02*
X147495238Y-115680952D01*
X147342857Y-115680952D01*
X147304761Y-115700000D01*
X147285714Y-115719047D01*
X147266666Y-115757142D01*
X147266666Y-115814285D01*
X147285714Y-115852380D01*
X147304761Y-115871428D01*
X147342857Y-115890476D01*
X147495238Y-115890476D01*
X147019047Y-115680952D02*
X146980952Y-115680952D01*
X146942857Y-115700000D01*
X146923809Y-115719047D01*
X146904761Y-115757142D01*
X146885714Y-115833333D01*
X146885714Y-115928571D01*
X146904761Y-116004761D01*
X146923809Y-116042857D01*
X146942857Y-116061904D01*
X146980952Y-116080952D01*
X147019047Y-116080952D01*
X147057142Y-116061904D01*
X147076190Y-116042857D01*
X147095238Y-116004761D01*
X147114285Y-115928571D01*
X147114285Y-115833333D01*
X147095238Y-115757142D01*
X147076190Y-115719047D01*
X147057142Y-115700000D01*
X147019047Y-115680952D01*
D10*
X150129285Y-83885714D02*
X150167380Y-83923809D01*
X150281666Y-83961904D01*
X150357857Y-83961904D01*
X150472142Y-83923809D01*
X150548333Y-83847619D01*
X150586428Y-83771428D01*
X150624523Y-83619047D01*
X150624523Y-83504761D01*
X150586428Y-83352380D01*
X150548333Y-83276190D01*
X150472142Y-83200000D01*
X150357857Y-83161904D01*
X150281666Y-83161904D01*
X150167380Y-83200000D01*
X150129285Y-83238095D01*
X149443571Y-83161904D02*
X149595952Y-83161904D01*
X149672142Y-83200000D01*
X149710238Y-83238095D01*
X149786428Y-83352380D01*
X149824523Y-83504761D01*
X149824523Y-83809523D01*
X149786428Y-83885714D01*
X149748333Y-83923809D01*
X149672142Y-83961904D01*
X149519761Y-83961904D01*
X149443571Y-83923809D01*
X149405476Y-83885714D01*
X149367380Y-83809523D01*
X149367380Y-83619047D01*
X149405476Y-83542857D01*
X149443571Y-83504761D01*
X149519761Y-83466666D01*
X149672142Y-83466666D01*
X149748333Y-83504761D01*
X149786428Y-83542857D01*
X149824523Y-83619047D01*
X149100714Y-83161904D02*
X148567380Y-83161904D01*
X148910238Y-83961904D01*
X165809523Y-112661904D02*
X165809523Y-113309523D01*
X165771428Y-113385714D01*
X165733333Y-113423809D01*
X165657142Y-113461904D01*
X165504761Y-113461904D01*
X165428571Y-113423809D01*
X165390476Y-113385714D01*
X165352380Y-113309523D01*
X165352380Y-112661904D01*
X164628571Y-112661904D02*
X164780952Y-112661904D01*
X164857142Y-112700000D01*
X164895238Y-112738095D01*
X164971428Y-112852380D01*
X165009523Y-113004761D01*
X165009523Y-113309523D01*
X164971428Y-113385714D01*
X164933333Y-113423809D01*
X164857142Y-113461904D01*
X164704761Y-113461904D01*
X164628571Y-113423809D01*
X164590476Y-113385714D01*
X164552380Y-113309523D01*
X164552380Y-113119047D01*
X164590476Y-113042857D01*
X164628571Y-113004761D01*
X164704761Y-112966666D01*
X164857142Y-112966666D01*
X164933333Y-113004761D01*
X164971428Y-113042857D01*
X165009523Y-113119047D01*
X137193214Y-87885714D02*
X137231309Y-87847619D01*
X137269404Y-87733333D01*
X137269404Y-87657142D01*
X137231309Y-87542857D01*
X137155119Y-87466666D01*
X137078928Y-87428571D01*
X136926547Y-87390476D01*
X136812261Y-87390476D01*
X136659880Y-87428571D01*
X136583690Y-87466666D01*
X136507500Y-87542857D01*
X136469404Y-87657142D01*
X136469404Y-87733333D01*
X136507500Y-87847619D01*
X136545595Y-87885714D01*
X136736071Y-88571428D02*
X137269404Y-88571428D01*
X136431309Y-88380952D02*
X137002738Y-88190476D01*
X137002738Y-88685714D01*
X136469404Y-89142857D02*
X136469404Y-89219047D01*
X136507500Y-89295238D01*
X136545595Y-89333333D01*
X136621785Y-89371428D01*
X136774166Y-89409523D01*
X136964642Y-89409523D01*
X137117023Y-89371428D01*
X137193214Y-89333333D01*
X137231309Y-89295238D01*
X137269404Y-89219047D01*
X137269404Y-89142857D01*
X137231309Y-89066666D01*
X137193214Y-89028571D01*
X137117023Y-88990476D01*
X136964642Y-88952380D01*
X136774166Y-88952380D01*
X136621785Y-88990476D01*
X136545595Y-89028571D01*
X136507500Y-89066666D01*
X136469404Y-89142857D01*
X136193214Y-87885714D02*
X136231309Y-87847619D01*
X136269404Y-87733333D01*
X136269404Y-87657142D01*
X136231309Y-87542857D01*
X136155119Y-87466666D01*
X136078928Y-87428571D01*
X135926547Y-87390476D01*
X135812261Y-87390476D01*
X135659880Y-87428571D01*
X135583690Y-87466666D01*
X135507500Y-87542857D01*
X135469404Y-87657142D01*
X135469404Y-87733333D01*
X135507500Y-87847619D01*
X135545595Y-87885714D01*
X135469404Y-88152380D02*
X135469404Y-88647619D01*
X135774166Y-88380952D01*
X135774166Y-88495238D01*
X135812261Y-88571428D01*
X135850357Y-88609523D01*
X135926547Y-88647619D01*
X136117023Y-88647619D01*
X136193214Y-88609523D01*
X136231309Y-88571428D01*
X136269404Y-88495238D01*
X136269404Y-88266666D01*
X136231309Y-88190476D01*
X136193214Y-88152380D01*
X135812261Y-89104761D02*
X135774166Y-89028571D01*
X135736071Y-88990476D01*
X135659880Y-88952380D01*
X135621785Y-88952380D01*
X135545595Y-88990476D01*
X135507500Y-89028571D01*
X135469404Y-89104761D01*
X135469404Y-89257142D01*
X135507500Y-89333333D01*
X135545595Y-89371428D01*
X135621785Y-89409523D01*
X135659880Y-89409523D01*
X135736071Y-89371428D01*
X135774166Y-89333333D01*
X135812261Y-89257142D01*
X135812261Y-89104761D01*
X135850357Y-89028571D01*
X135888452Y-88990476D01*
X135964642Y-88952380D01*
X136117023Y-88952380D01*
X136193214Y-88990476D01*
X136231309Y-89028571D01*
X136269404Y-89104761D01*
X136269404Y-89257142D01*
X136231309Y-89333333D01*
X136193214Y-89371428D01*
X136117023Y-89409523D01*
X135964642Y-89409523D01*
X135888452Y-89371428D01*
X135850357Y-89333333D01*
X135812261Y-89257142D01*
X148361904Y-98285714D02*
X147980952Y-98019047D01*
X148361904Y-97828571D02*
X147561904Y-97828571D01*
X147561904Y-98133333D01*
X147600000Y-98209523D01*
X147638095Y-98247619D01*
X147714285Y-98285714D01*
X147828571Y-98285714D01*
X147904761Y-98247619D01*
X147942857Y-98209523D01*
X147980952Y-98133333D01*
X147980952Y-97828571D01*
X147561904Y-98971428D02*
X147561904Y-98819047D01*
X147600000Y-98742857D01*
X147638095Y-98704761D01*
X147752380Y-98628571D01*
X147904761Y-98590476D01*
X148209523Y-98590476D01*
X148285714Y-98628571D01*
X148323809Y-98666666D01*
X148361904Y-98742857D01*
X148361904Y-98895238D01*
X148323809Y-98971428D01*
X148285714Y-99009523D01*
X148209523Y-99047619D01*
X148019047Y-99047619D01*
X147942857Y-99009523D01*
X147904761Y-98971428D01*
X147866666Y-98895238D01*
X147866666Y-98742857D01*
X147904761Y-98666666D01*
X147942857Y-98628571D01*
X148019047Y-98590476D01*
X147561904Y-99314285D02*
X147561904Y-99809523D01*
X147866666Y-99542857D01*
X147866666Y-99657142D01*
X147904761Y-99733333D01*
X147942857Y-99771428D01*
X148019047Y-99809523D01*
X148209523Y-99809523D01*
X148285714Y-99771428D01*
X148323809Y-99733333D01*
X148361904Y-99657142D01*
X148361904Y-99428571D01*
X148323809Y-99352380D01*
X148285714Y-99314285D01*
X150129285Y-84885714D02*
X150167380Y-84923809D01*
X150281666Y-84961904D01*
X150357857Y-84961904D01*
X150472142Y-84923809D01*
X150548333Y-84847619D01*
X150586428Y-84771428D01*
X150624523Y-84619047D01*
X150624523Y-84504761D01*
X150586428Y-84352380D01*
X150548333Y-84276190D01*
X150472142Y-84200000D01*
X150357857Y-84161904D01*
X150281666Y-84161904D01*
X150167380Y-84200000D01*
X150129285Y-84238095D01*
X149443571Y-84161904D02*
X149595952Y-84161904D01*
X149672142Y-84200000D01*
X149710238Y-84238095D01*
X149786428Y-84352380D01*
X149824523Y-84504761D01*
X149824523Y-84809523D01*
X149786428Y-84885714D01*
X149748333Y-84923809D01*
X149672142Y-84961904D01*
X149519761Y-84961904D01*
X149443571Y-84923809D01*
X149405476Y-84885714D01*
X149367380Y-84809523D01*
X149367380Y-84619047D01*
X149405476Y-84542857D01*
X149443571Y-84504761D01*
X149519761Y-84466666D01*
X149672142Y-84466666D01*
X149748333Y-84504761D01*
X149786428Y-84542857D01*
X149824523Y-84619047D01*
X149100714Y-84161904D02*
X148605476Y-84161904D01*
X148872142Y-84466666D01*
X148757857Y-84466666D01*
X148681666Y-84504761D01*
X148643571Y-84542857D01*
X148605476Y-84619047D01*
X148605476Y-84809523D01*
X148643571Y-84885714D01*
X148681666Y-84923809D01*
X148757857Y-84961904D01*
X148986428Y-84961904D01*
X149062619Y-84923809D01*
X149100714Y-84885714D01*
X150685714Y-95235714D02*
X150723809Y-95197619D01*
X150761904Y-95083333D01*
X150761904Y-95007142D01*
X150723809Y-94892857D01*
X150647619Y-94816666D01*
X150571428Y-94778571D01*
X150419047Y-94740476D01*
X150304761Y-94740476D01*
X150152380Y-94778571D01*
X150076190Y-94816666D01*
X150000000Y-94892857D01*
X149961904Y-95007142D01*
X149961904Y-95083333D01*
X150000000Y-95197619D01*
X150038095Y-95235714D01*
X150761904Y-95997619D02*
X150761904Y-95540476D01*
X150761904Y-95769047D02*
X149961904Y-95769047D01*
X150076190Y-95692857D01*
X150152380Y-95616666D01*
X150190476Y-95540476D01*
X150761904Y-96378571D02*
X150761904Y-96530952D01*
X150723809Y-96607142D01*
X150685714Y-96645238D01*
X150571428Y-96721428D01*
X150419047Y-96759523D01*
X150114285Y-96759523D01*
X150038095Y-96721428D01*
X150000000Y-96683333D01*
X149961904Y-96607142D01*
X149961904Y-96454761D01*
X150000000Y-96378571D01*
X150038095Y-96340476D01*
X150114285Y-96302380D01*
X150304761Y-96302380D01*
X150380952Y-96340476D01*
X150419047Y-96378571D01*
X150457142Y-96454761D01*
X150457142Y-96607142D01*
X150419047Y-96683333D01*
X150380952Y-96721428D01*
X150304761Y-96759523D01*
X141514285Y-99085714D02*
X141552380Y-99123809D01*
X141666666Y-99161904D01*
X141742857Y-99161904D01*
X141857142Y-99123809D01*
X141933333Y-99047619D01*
X141971428Y-98971428D01*
X142009523Y-98819047D01*
X142009523Y-98704761D01*
X141971428Y-98552380D01*
X141933333Y-98476190D01*
X141857142Y-98400000D01*
X141742857Y-98361904D01*
X141666666Y-98361904D01*
X141552380Y-98400000D01*
X141514285Y-98438095D01*
X141247619Y-98361904D02*
X140752380Y-98361904D01*
X141019047Y-98666666D01*
X140904761Y-98666666D01*
X140828571Y-98704761D01*
X140790476Y-98742857D01*
X140752380Y-98819047D01*
X140752380Y-99009523D01*
X140790476Y-99085714D01*
X140828571Y-99123809D01*
X140904761Y-99161904D01*
X141133333Y-99161904D01*
X141209523Y-99123809D01*
X141247619Y-99085714D01*
X140257142Y-98361904D02*
X140180952Y-98361904D01*
X140104761Y-98400000D01*
X140066666Y-98438095D01*
X140028571Y-98514285D01*
X139990476Y-98666666D01*
X139990476Y-98857142D01*
X140028571Y-99009523D01*
X140066666Y-99085714D01*
X140104761Y-99123809D01*
X140180952Y-99161904D01*
X140257142Y-99161904D01*
X140333333Y-99123809D01*
X140371428Y-99085714D01*
X140409523Y-99009523D01*
X140447619Y-98857142D01*
X140447619Y-98666666D01*
X140409523Y-98514285D01*
X140371428Y-98438095D01*
X140333333Y-98400000D01*
X140257142Y-98361904D01*
X141514285Y-98085714D02*
X141552380Y-98123809D01*
X141666666Y-98161904D01*
X141742857Y-98161904D01*
X141857142Y-98123809D01*
X141933333Y-98047619D01*
X141971428Y-97971428D01*
X142009523Y-97819047D01*
X142009523Y-97704761D01*
X141971428Y-97552380D01*
X141933333Y-97476190D01*
X141857142Y-97400000D01*
X141742857Y-97361904D01*
X141666666Y-97361904D01*
X141552380Y-97400000D01*
X141514285Y-97438095D01*
X141209523Y-97438095D02*
X141171428Y-97400000D01*
X141095238Y-97361904D01*
X140904761Y-97361904D01*
X140828571Y-97400000D01*
X140790476Y-97438095D01*
X140752380Y-97514285D01*
X140752380Y-97590476D01*
X140790476Y-97704761D01*
X141247619Y-98161904D01*
X140752380Y-98161904D01*
X140066666Y-97361904D02*
X140219047Y-97361904D01*
X140295238Y-97400000D01*
X140333333Y-97438095D01*
X140409523Y-97552380D01*
X140447619Y-97704761D01*
X140447619Y-98009523D01*
X140409523Y-98085714D01*
X140371428Y-98123809D01*
X140295238Y-98161904D01*
X140142857Y-98161904D01*
X140066666Y-98123809D01*
X140028571Y-98085714D01*
X139990476Y-98009523D01*
X139990476Y-97819047D01*
X140028571Y-97742857D01*
X140066666Y-97704761D01*
X140142857Y-97666666D01*
X140295238Y-97666666D01*
X140371428Y-97704761D01*
X140409523Y-97742857D01*
X140447619Y-97819047D01*
X141714285Y-82485714D02*
X141752380Y-82523809D01*
X141866666Y-82561904D01*
X141942857Y-82561904D01*
X142057142Y-82523809D01*
X142133333Y-82447619D01*
X142171428Y-82371428D01*
X142209523Y-82219047D01*
X142209523Y-82104761D01*
X142171428Y-81952380D01*
X142133333Y-81876190D01*
X142057142Y-81800000D01*
X141942857Y-81761904D01*
X141866666Y-81761904D01*
X141752380Y-81800000D01*
X141714285Y-81838095D01*
X141409523Y-81838095D02*
X141371428Y-81800000D01*
X141295238Y-81761904D01*
X141104761Y-81761904D01*
X141028571Y-81800000D01*
X140990476Y-81838095D01*
X140952380Y-81914285D01*
X140952380Y-81990476D01*
X140990476Y-82104761D01*
X141447619Y-82561904D01*
X140952380Y-82561904D01*
X140685714Y-81761904D02*
X140152380Y-81761904D01*
X140495238Y-82561904D01*
X141714285Y-83485714D02*
X141752380Y-83523809D01*
X141866666Y-83561904D01*
X141942857Y-83561904D01*
X142057142Y-83523809D01*
X142133333Y-83447619D01*
X142171428Y-83371428D01*
X142209523Y-83219047D01*
X142209523Y-83104761D01*
X142171428Y-82952380D01*
X142133333Y-82876190D01*
X142057142Y-82800000D01*
X141942857Y-82761904D01*
X141866666Y-82761904D01*
X141752380Y-82800000D01*
X141714285Y-82838095D01*
X141409523Y-82838095D02*
X141371428Y-82800000D01*
X141295238Y-82761904D01*
X141104761Y-82761904D01*
X141028571Y-82800000D01*
X140990476Y-82838095D01*
X140952380Y-82914285D01*
X140952380Y-82990476D01*
X140990476Y-83104761D01*
X141447619Y-83561904D01*
X140952380Y-83561904D01*
X140266666Y-83028571D02*
X140266666Y-83561904D01*
X140457142Y-82723809D02*
X140647619Y-83295238D01*
X140152380Y-83295238D01*
X145109523Y-90061904D02*
X145109523Y-90709523D01*
X145071428Y-90785714D01*
X145033333Y-90823809D01*
X144957142Y-90861904D01*
X144804761Y-90861904D01*
X144728571Y-90823809D01*
X144690476Y-90785714D01*
X144652380Y-90709523D01*
X144652380Y-90061904D01*
X144233333Y-90861904D02*
X144080952Y-90861904D01*
X144004761Y-90823809D01*
X143966666Y-90785714D01*
X143890476Y-90671428D01*
X143852380Y-90519047D01*
X143852380Y-90214285D01*
X143890476Y-90138095D01*
X143928571Y-90100000D01*
X144004761Y-90061904D01*
X144157142Y-90061904D01*
X144233333Y-90100000D01*
X144271428Y-90138095D01*
X144309523Y-90214285D01*
X144309523Y-90404761D01*
X144271428Y-90480952D01*
X144233333Y-90519047D01*
X144157142Y-90557142D01*
X144004761Y-90557142D01*
X143928571Y-90519047D01*
X143890476Y-90480952D01*
X143852380Y-90404761D01*
X144114285Y-107085714D02*
X144152380Y-107123809D01*
X144266666Y-107161904D01*
X144342857Y-107161904D01*
X144457142Y-107123809D01*
X144533333Y-107047619D01*
X144571428Y-106971428D01*
X144609523Y-106819047D01*
X144609523Y-106704761D01*
X144571428Y-106552380D01*
X144533333Y-106476190D01*
X144457142Y-106400000D01*
X144342857Y-106361904D01*
X144266666Y-106361904D01*
X144152380Y-106400000D01*
X144114285Y-106438095D01*
X143352380Y-107161904D02*
X143809523Y-107161904D01*
X143580952Y-107161904D02*
X143580952Y-106361904D01*
X143657142Y-106476190D01*
X143733333Y-106552380D01*
X143809523Y-106590476D01*
X142628571Y-106361904D02*
X143009523Y-106361904D01*
X143047619Y-106742857D01*
X143009523Y-106704761D01*
X142933333Y-106666666D01*
X142742857Y-106666666D01*
X142666666Y-106704761D01*
X142628571Y-106742857D01*
X142590476Y-106819047D01*
X142590476Y-107009523D01*
X142628571Y-107085714D01*
X142666666Y-107123809D01*
X142742857Y-107161904D01*
X142933333Y-107161904D01*
X143009523Y-107123809D01*
X143047619Y-107085714D01*
X145985714Y-112985714D02*
X146023809Y-112947619D01*
X146061904Y-112833333D01*
X146061904Y-112757142D01*
X146023809Y-112642857D01*
X145947619Y-112566666D01*
X145871428Y-112528571D01*
X145719047Y-112490476D01*
X145604761Y-112490476D01*
X145452380Y-112528571D01*
X145376190Y-112566666D01*
X145300000Y-112642857D01*
X145261904Y-112757142D01*
X145261904Y-112833333D01*
X145300000Y-112947619D01*
X145338095Y-112985714D01*
X145528571Y-113671428D02*
X146061904Y-113671428D01*
X145223809Y-113480952D02*
X145795238Y-113290476D01*
X145795238Y-113785714D01*
X145338095Y-114052380D02*
X145300000Y-114090476D01*
X145261904Y-114166666D01*
X145261904Y-114357142D01*
X145300000Y-114433333D01*
X145338095Y-114471428D01*
X145414285Y-114509523D01*
X145490476Y-114509523D01*
X145604761Y-114471428D01*
X146061904Y-114014285D01*
X146061904Y-114509523D01*
X133035714Y-113535714D02*
X133073809Y-113497619D01*
X133111904Y-113383333D01*
X133111904Y-113307142D01*
X133073809Y-113192857D01*
X132997619Y-113116666D01*
X132921428Y-113078571D01*
X132769047Y-113040476D01*
X132654761Y-113040476D01*
X132502380Y-113078571D01*
X132426190Y-113116666D01*
X132350000Y-113192857D01*
X132311904Y-113307142D01*
X132311904Y-113383333D01*
X132350000Y-113497619D01*
X132388095Y-113535714D01*
X132311904Y-114221428D02*
X132311904Y-114069047D01*
X132350000Y-113992857D01*
X132388095Y-113954761D01*
X132502380Y-113878571D01*
X132654761Y-113840476D01*
X132959523Y-113840476D01*
X133035714Y-113878571D01*
X133073809Y-113916666D01*
X133111904Y-113992857D01*
X133111904Y-114145238D01*
X133073809Y-114221428D01*
X133035714Y-114259523D01*
X132959523Y-114297619D01*
X132769047Y-114297619D01*
X132692857Y-114259523D01*
X132654761Y-114221428D01*
X132616666Y-114145238D01*
X132616666Y-113992857D01*
X132654761Y-113916666D01*
X132692857Y-113878571D01*
X132769047Y-113840476D01*
X132578571Y-114983333D02*
X133111904Y-114983333D01*
X132273809Y-114792857D02*
X132845238Y-114602380D01*
X132845238Y-115097619D01*
X133685714Y-107785714D02*
X133723809Y-107747619D01*
X133761904Y-107633333D01*
X133761904Y-107557142D01*
X133723809Y-107442857D01*
X133647619Y-107366666D01*
X133571428Y-107328571D01*
X133419047Y-107290476D01*
X133304761Y-107290476D01*
X133152380Y-107328571D01*
X133076190Y-107366666D01*
X133000000Y-107442857D01*
X132961904Y-107557142D01*
X132961904Y-107633333D01*
X133000000Y-107747619D01*
X133038095Y-107785714D01*
X132961904Y-108471428D02*
X132961904Y-108319047D01*
X133000000Y-108242857D01*
X133038095Y-108204761D01*
X133152380Y-108128571D01*
X133304761Y-108090476D01*
X133609523Y-108090476D01*
X133685714Y-108128571D01*
X133723809Y-108166666D01*
X133761904Y-108242857D01*
X133761904Y-108395238D01*
X133723809Y-108471428D01*
X133685714Y-108509523D01*
X133609523Y-108547619D01*
X133419047Y-108547619D01*
X133342857Y-108509523D01*
X133304761Y-108471428D01*
X133266666Y-108395238D01*
X133266666Y-108242857D01*
X133304761Y-108166666D01*
X133342857Y-108128571D01*
X133419047Y-108090476D01*
X133304761Y-109004761D02*
X133266666Y-108928571D01*
X133228571Y-108890476D01*
X133152380Y-108852380D01*
X133114285Y-108852380D01*
X133038095Y-108890476D01*
X133000000Y-108928571D01*
X132961904Y-109004761D01*
X132961904Y-109157142D01*
X133000000Y-109233333D01*
X133038095Y-109271428D01*
X133114285Y-109309523D01*
X133152380Y-109309523D01*
X133228571Y-109271428D01*
X133266666Y-109233333D01*
X133304761Y-109157142D01*
X133304761Y-109004761D01*
X133342857Y-108928571D01*
X133380952Y-108890476D01*
X133457142Y-108852380D01*
X133609523Y-108852380D01*
X133685714Y-108890476D01*
X133723809Y-108928571D01*
X133761904Y-109004761D01*
X133761904Y-109157142D01*
X133723809Y-109233333D01*
X133685714Y-109271428D01*
X133609523Y-109309523D01*
X133457142Y-109309523D01*
X133380952Y-109271428D01*
X133342857Y-109233333D01*
X133304761Y-109157142D01*
X152685714Y-84385714D02*
X152723809Y-84347619D01*
X152761904Y-84233333D01*
X152761904Y-84157142D01*
X152723809Y-84042857D01*
X152647619Y-83966666D01*
X152571428Y-83928571D01*
X152419047Y-83890476D01*
X152304761Y-83890476D01*
X152152380Y-83928571D01*
X152076190Y-83966666D01*
X152000000Y-84042857D01*
X151961904Y-84157142D01*
X151961904Y-84233333D01*
X152000000Y-84347619D01*
X152038095Y-84385714D01*
X151961904Y-84652380D02*
X151961904Y-85147619D01*
X152266666Y-84880952D01*
X152266666Y-84995238D01*
X152304761Y-85071428D01*
X152342857Y-85109523D01*
X152419047Y-85147619D01*
X152609523Y-85147619D01*
X152685714Y-85109523D01*
X152723809Y-85071428D01*
X152761904Y-84995238D01*
X152761904Y-84766666D01*
X152723809Y-84690476D01*
X152685714Y-84652380D01*
X152761904Y-85528571D02*
X152761904Y-85680952D01*
X152723809Y-85757142D01*
X152685714Y-85795238D01*
X152571428Y-85871428D01*
X152419047Y-85909523D01*
X152114285Y-85909523D01*
X152038095Y-85871428D01*
X152000000Y-85833333D01*
X151961904Y-85757142D01*
X151961904Y-85604761D01*
X152000000Y-85528571D01*
X152038095Y-85490476D01*
X152114285Y-85452380D01*
X152304761Y-85452380D01*
X152380952Y-85490476D01*
X152419047Y-85528571D01*
X152457142Y-85604761D01*
X152457142Y-85757142D01*
X152419047Y-85833333D01*
X152380952Y-85871428D01*
X152304761Y-85909523D01*
X160310714Y-109985714D02*
X160348809Y-109947619D01*
X160386904Y-109833333D01*
X160386904Y-109757142D01*
X160348809Y-109642857D01*
X160272619Y-109566666D01*
X160196428Y-109528571D01*
X160044047Y-109490476D01*
X159929761Y-109490476D01*
X159777380Y-109528571D01*
X159701190Y-109566666D01*
X159625000Y-109642857D01*
X159586904Y-109757142D01*
X159586904Y-109833333D01*
X159625000Y-109947619D01*
X159663095Y-109985714D01*
X159586904Y-110252380D02*
X159586904Y-110747619D01*
X159891666Y-110480952D01*
X159891666Y-110595238D01*
X159929761Y-110671428D01*
X159967857Y-110709523D01*
X160044047Y-110747619D01*
X160234523Y-110747619D01*
X160310714Y-110709523D01*
X160348809Y-110671428D01*
X160386904Y-110595238D01*
X160386904Y-110366666D01*
X160348809Y-110290476D01*
X160310714Y-110252380D01*
X159586904Y-111433333D02*
X159586904Y-111280952D01*
X159625000Y-111204761D01*
X159663095Y-111166666D01*
X159777380Y-111090476D01*
X159929761Y-111052380D01*
X160234523Y-111052380D01*
X160310714Y-111090476D01*
X160348809Y-111128571D01*
X160386904Y-111204761D01*
X160386904Y-111357142D01*
X160348809Y-111433333D01*
X160310714Y-111471428D01*
X160234523Y-111509523D01*
X160044047Y-111509523D01*
X159967857Y-111471428D01*
X159929761Y-111433333D01*
X159891666Y-111357142D01*
X159891666Y-111204761D01*
X159929761Y-111128571D01*
X159967857Y-111090476D01*
X160044047Y-111052380D01*
X161285714Y-109985714D02*
X161323809Y-109947619D01*
X161361904Y-109833333D01*
X161361904Y-109757142D01*
X161323809Y-109642857D01*
X161247619Y-109566666D01*
X161171428Y-109528571D01*
X161019047Y-109490476D01*
X160904761Y-109490476D01*
X160752380Y-109528571D01*
X160676190Y-109566666D01*
X160600000Y-109642857D01*
X160561904Y-109757142D01*
X160561904Y-109833333D01*
X160600000Y-109947619D01*
X160638095Y-109985714D01*
X160561904Y-110252380D02*
X160561904Y-110747619D01*
X160866666Y-110480952D01*
X160866666Y-110595238D01*
X160904761Y-110671428D01*
X160942857Y-110709523D01*
X161019047Y-110747619D01*
X161209523Y-110747619D01*
X161285714Y-110709523D01*
X161323809Y-110671428D01*
X161361904Y-110595238D01*
X161361904Y-110366666D01*
X161323809Y-110290476D01*
X161285714Y-110252380D01*
X160638095Y-111052380D02*
X160600000Y-111090476D01*
X160561904Y-111166666D01*
X160561904Y-111357142D01*
X160600000Y-111433333D01*
X160638095Y-111471428D01*
X160714285Y-111509523D01*
X160790476Y-111509523D01*
X160904761Y-111471428D01*
X161361904Y-111014285D01*
X161361904Y-111509523D01*
X157090476Y-84861904D02*
X157090476Y-85509523D01*
X157052380Y-85585714D01*
X157014285Y-85623809D01*
X156938095Y-85661904D01*
X156785714Y-85661904D01*
X156709523Y-85623809D01*
X156671428Y-85585714D01*
X156633333Y-85509523D01*
X156633333Y-84861904D01*
X155833333Y-85661904D02*
X156290476Y-85661904D01*
X156061904Y-85661904D02*
X156061904Y-84861904D01*
X156138095Y-84976190D01*
X156214285Y-85052380D01*
X156290476Y-85090476D01*
X155528571Y-84938095D02*
X155490476Y-84900000D01*
X155414285Y-84861904D01*
X155223809Y-84861904D01*
X155147619Y-84900000D01*
X155109523Y-84938095D01*
X155071428Y-85014285D01*
X155071428Y-85090476D01*
X155109523Y-85204761D01*
X155566666Y-85661904D01*
X155071428Y-85661904D01*
X122185714Y-112085714D02*
X122223809Y-112047619D01*
X122261904Y-111933333D01*
X122261904Y-111857142D01*
X122223809Y-111742857D01*
X122147619Y-111666666D01*
X122071428Y-111628571D01*
X121919047Y-111590476D01*
X121804761Y-111590476D01*
X121652380Y-111628571D01*
X121576190Y-111666666D01*
X121500000Y-111742857D01*
X121461904Y-111857142D01*
X121461904Y-111933333D01*
X121500000Y-112047619D01*
X121538095Y-112085714D01*
X122261904Y-112847619D02*
X122261904Y-112390476D01*
X122261904Y-112619047D02*
X121461904Y-112619047D01*
X121576190Y-112542857D01*
X121652380Y-112466666D01*
X121690476Y-112390476D01*
X121728571Y-113533333D02*
X122261904Y-113533333D01*
X121423809Y-113342857D02*
X121995238Y-113152380D01*
X121995238Y-113647619D01*
X148261904Y-112885714D02*
X147880952Y-112619047D01*
X148261904Y-112428571D02*
X147461904Y-112428571D01*
X147461904Y-112733333D01*
X147500000Y-112809523D01*
X147538095Y-112847619D01*
X147614285Y-112885714D01*
X147728571Y-112885714D01*
X147804761Y-112847619D01*
X147842857Y-112809523D01*
X147880952Y-112733333D01*
X147880952Y-112428571D01*
X147461904Y-113152380D02*
X147461904Y-113647619D01*
X147766666Y-113380952D01*
X147766666Y-113495238D01*
X147804761Y-113571428D01*
X147842857Y-113609523D01*
X147919047Y-113647619D01*
X148109523Y-113647619D01*
X148185714Y-113609523D01*
X148223809Y-113571428D01*
X148261904Y-113495238D01*
X148261904Y-113266666D01*
X148223809Y-113190476D01*
X148185714Y-113152380D01*
X147538095Y-113952380D02*
X147500000Y-113990476D01*
X147461904Y-114066666D01*
X147461904Y-114257142D01*
X147500000Y-114333333D01*
X147538095Y-114371428D01*
X147614285Y-114409523D01*
X147690476Y-114409523D01*
X147804761Y-114371428D01*
X148261904Y-113914285D01*
X148261904Y-114409523D01*
X144114285Y-106085714D02*
X144152380Y-106123809D01*
X144266666Y-106161904D01*
X144342857Y-106161904D01*
X144457142Y-106123809D01*
X144533333Y-106047619D01*
X144571428Y-105971428D01*
X144609523Y-105819047D01*
X144609523Y-105704761D01*
X144571428Y-105552380D01*
X144533333Y-105476190D01*
X144457142Y-105400000D01*
X144342857Y-105361904D01*
X144266666Y-105361904D01*
X144152380Y-105400000D01*
X144114285Y-105438095D01*
X143428571Y-105361904D02*
X143580952Y-105361904D01*
X143657142Y-105400000D01*
X143695238Y-105438095D01*
X143771428Y-105552380D01*
X143809523Y-105704761D01*
X143809523Y-106009523D01*
X143771428Y-106085714D01*
X143733333Y-106123809D01*
X143657142Y-106161904D01*
X143504761Y-106161904D01*
X143428571Y-106123809D01*
X143390476Y-106085714D01*
X143352380Y-106009523D01*
X143352380Y-105819047D01*
X143390476Y-105742857D01*
X143428571Y-105704761D01*
X143504761Y-105666666D01*
X143657142Y-105666666D01*
X143733333Y-105704761D01*
X143771428Y-105742857D01*
X143809523Y-105819047D01*
X142857142Y-105361904D02*
X142780952Y-105361904D01*
X142704761Y-105400000D01*
X142666666Y-105438095D01*
X142628571Y-105514285D01*
X142590476Y-105666666D01*
X142590476Y-105857142D01*
X142628571Y-106009523D01*
X142666666Y-106085714D01*
X142704761Y-106123809D01*
X142780952Y-106161904D01*
X142857142Y-106161904D01*
X142933333Y-106123809D01*
X142971428Y-106085714D01*
X143009523Y-106009523D01*
X143047619Y-105857142D01*
X143047619Y-105666666D01*
X143009523Y-105514285D01*
X142971428Y-105438095D01*
X142933333Y-105400000D01*
X142857142Y-105361904D01*
X122185714Y-119270714D02*
X122223809Y-119232619D01*
X122261904Y-119118333D01*
X122261904Y-119042142D01*
X122223809Y-118927857D01*
X122147619Y-118851666D01*
X122071428Y-118813571D01*
X121919047Y-118775476D01*
X121804761Y-118775476D01*
X121652380Y-118813571D01*
X121576190Y-118851666D01*
X121500000Y-118927857D01*
X121461904Y-119042142D01*
X121461904Y-119118333D01*
X121500000Y-119232619D01*
X121538095Y-119270714D01*
X122261904Y-120032619D02*
X122261904Y-119575476D01*
X122261904Y-119804047D02*
X121461904Y-119804047D01*
X121576190Y-119727857D01*
X121652380Y-119651666D01*
X121690476Y-119575476D01*
X121461904Y-120718333D02*
X121461904Y-120565952D01*
X121500000Y-120489761D01*
X121538095Y-120451666D01*
X121652380Y-120375476D01*
X121804761Y-120337380D01*
X122109523Y-120337380D01*
X122185714Y-120375476D01*
X122223809Y-120413571D01*
X122261904Y-120489761D01*
X122261904Y-120642142D01*
X122223809Y-120718333D01*
X122185714Y-120756428D01*
X122109523Y-120794523D01*
X121919047Y-120794523D01*
X121842857Y-120756428D01*
X121804761Y-120718333D01*
X121766666Y-120642142D01*
X121766666Y-120489761D01*
X121804761Y-120413571D01*
X121842857Y-120375476D01*
X121919047Y-120337380D01*
X155238095Y-107197380D02*
X154666666Y-107197380D01*
X154952380Y-108197380D02*
X154952380Y-107197380D01*
X154333333Y-108197380D02*
X154333333Y-107197380D01*
X153952380Y-107197380D01*
X153857142Y-107245000D01*
X153809523Y-107292619D01*
X153761904Y-107387857D01*
X153761904Y-107530714D01*
X153809523Y-107625952D01*
X153857142Y-107673571D01*
X153952380Y-107721190D01*
X154333333Y-107721190D01*
X152809523Y-108197380D02*
X153380952Y-108197380D01*
X153095238Y-108197380D02*
X153095238Y-107197380D01*
X153190476Y-107340238D01*
X153285714Y-107435476D01*
X153380952Y-107483095D01*
X151904761Y-107197380D02*
X152380952Y-107197380D01*
X152428571Y-107673571D01*
X152380952Y-107625952D01*
X152285714Y-107578333D01*
X152047619Y-107578333D01*
X151952380Y-107625952D01*
X151904761Y-107673571D01*
X151857142Y-107768809D01*
X151857142Y-108006904D01*
X151904761Y-108102142D01*
X151952380Y-108149761D01*
X152047619Y-108197380D01*
X152285714Y-108197380D01*
X152380952Y-108149761D01*
X152428571Y-108102142D01*
X148865095Y-120147380D02*
X148865095Y-119147380D01*
X148627000Y-119147380D01*
X148484142Y-119195000D01*
X148388904Y-119290238D01*
X148341285Y-119385476D01*
X148293666Y-119575952D01*
X148293666Y-119718809D01*
X148341285Y-119909285D01*
X148388904Y-120004523D01*
X148484142Y-120099761D01*
X148627000Y-120147380D01*
X148865095Y-120147380D01*
X147341285Y-120147380D02*
X147912714Y-120147380D01*
X147627000Y-120147380D02*
X147627000Y-119147380D01*
X147722238Y-119290238D01*
X147817476Y-119385476D01*
X147912714Y-119433095D01*
X129538095Y-103602380D02*
X128966666Y-103602380D01*
X129252380Y-104602380D02*
X129252380Y-103602380D01*
X128633333Y-104602380D02*
X128633333Y-103602380D01*
X128252380Y-103602380D01*
X128157142Y-103650000D01*
X128109523Y-103697619D01*
X128061904Y-103792857D01*
X128061904Y-103935714D01*
X128109523Y-104030952D01*
X128157142Y-104078571D01*
X128252380Y-104126190D01*
X128633333Y-104126190D01*
X127109523Y-104602380D02*
X127680952Y-104602380D01*
X127395238Y-104602380D02*
X127395238Y-103602380D01*
X127490476Y-103745238D01*
X127585714Y-103840476D01*
X127680952Y-103888095D01*
X126490476Y-103602380D02*
X126395238Y-103602380D01*
X126300000Y-103650000D01*
X126252380Y-103697619D01*
X126204761Y-103792857D01*
X126157142Y-103983333D01*
X126157142Y-104221428D01*
X126204761Y-104411904D01*
X126252380Y-104507142D01*
X126300000Y-104554761D01*
X126395238Y-104602380D01*
X126490476Y-104602380D01*
X126585714Y-104554761D01*
X126633333Y-104507142D01*
X126680952Y-104411904D01*
X126728571Y-104221428D01*
X126728571Y-103983333D01*
X126680952Y-103792857D01*
X126633333Y-103697619D01*
X126585714Y-103650000D01*
X126490476Y-103602380D01*
X127438095Y-103602380D02*
X126866666Y-103602380D01*
X127152380Y-104602380D02*
X127152380Y-103602380D01*
X126533333Y-104602380D02*
X126533333Y-103602380D01*
X126152380Y-103602380D01*
X126057142Y-103650000D01*
X126009523Y-103697619D01*
X125961904Y-103792857D01*
X125961904Y-103935714D01*
X126009523Y-104030952D01*
X126057142Y-104078571D01*
X126152380Y-104126190D01*
X126533333Y-104126190D01*
X125009523Y-104602380D02*
X125580952Y-104602380D01*
X125295238Y-104602380D02*
X125295238Y-103602380D01*
X125390476Y-103745238D01*
X125485714Y-103840476D01*
X125580952Y-103888095D01*
X124057142Y-104602380D02*
X124628571Y-104602380D01*
X124342857Y-104602380D02*
X124342857Y-103602380D01*
X124438095Y-103745238D01*
X124533333Y-103840476D01*
X124628571Y-103888095D01*
X150761904Y-99502380D02*
X150190476Y-99502380D01*
X150476190Y-100502380D02*
X150476190Y-99502380D01*
X149857142Y-100502380D02*
X149857142Y-99502380D01*
X149476190Y-99502380D01*
X149380952Y-99550000D01*
X149333333Y-99597619D01*
X149285714Y-99692857D01*
X149285714Y-99835714D01*
X149333333Y-99930952D01*
X149380952Y-99978571D01*
X149476190Y-100026190D01*
X149857142Y-100026190D01*
X148428571Y-99835714D02*
X148428571Y-100502380D01*
X148666666Y-99454761D02*
X148904761Y-100169047D01*
X148285714Y-100169047D01*
X144261904Y-101502380D02*
X143690476Y-101502380D01*
X143976190Y-102502380D02*
X143976190Y-101502380D01*
X143357142Y-102502380D02*
X143357142Y-101502380D01*
X142976190Y-101502380D01*
X142880952Y-101550000D01*
X142833333Y-101597619D01*
X142785714Y-101692857D01*
X142785714Y-101835714D01*
X142833333Y-101930952D01*
X142880952Y-101978571D01*
X142976190Y-102026190D01*
X143357142Y-102026190D01*
X141880952Y-101502380D02*
X142357142Y-101502380D01*
X142404761Y-101978571D01*
X142357142Y-101930952D01*
X142261904Y-101883333D01*
X142023809Y-101883333D01*
X141928571Y-101930952D01*
X141880952Y-101978571D01*
X141833333Y-102073809D01*
X141833333Y-102311904D01*
X141880952Y-102407142D01*
X141928571Y-102454761D01*
X142023809Y-102502380D01*
X142261904Y-102502380D01*
X142357142Y-102454761D01*
X142404761Y-102407142D01*
X147761904Y-99302380D02*
X147190476Y-99302380D01*
X147476190Y-100302380D02*
X147476190Y-99302380D01*
X146857142Y-100302380D02*
X146857142Y-99302380D01*
X146476190Y-99302380D01*
X146380952Y-99350000D01*
X146333333Y-99397619D01*
X146285714Y-99492857D01*
X146285714Y-99635714D01*
X146333333Y-99730952D01*
X146380952Y-99778571D01*
X146476190Y-99826190D01*
X146857142Y-99826190D01*
X145428571Y-99302380D02*
X145619047Y-99302380D01*
X145714285Y-99350000D01*
X145761904Y-99397619D01*
X145857142Y-99540476D01*
X145904761Y-99730952D01*
X145904761Y-100111904D01*
X145857142Y-100207142D01*
X145809523Y-100254761D01*
X145714285Y-100302380D01*
X145523809Y-100302380D01*
X145428571Y-100254761D01*
X145380952Y-100207142D01*
X145333333Y-100111904D01*
X145333333Y-99873809D01*
X145380952Y-99778571D01*
X145428571Y-99730952D01*
X145523809Y-99683333D01*
X145714285Y-99683333D01*
X145809523Y-99730952D01*
X145857142Y-99778571D01*
X145904761Y-99873809D01*
X152361904Y-100802380D02*
X151790476Y-100802380D01*
X152076190Y-101802380D02*
X152076190Y-100802380D01*
X151457142Y-101802380D02*
X151457142Y-100802380D01*
X151076190Y-100802380D01*
X150980952Y-100850000D01*
X150933333Y-100897619D01*
X150885714Y-100992857D01*
X150885714Y-101135714D01*
X150933333Y-101230952D01*
X150980952Y-101278571D01*
X151076190Y-101326190D01*
X151457142Y-101326190D01*
X150552380Y-100802380D02*
X149933333Y-100802380D01*
X150266666Y-101183333D01*
X150123809Y-101183333D01*
X150028571Y-101230952D01*
X149980952Y-101278571D01*
X149933333Y-101373809D01*
X149933333Y-101611904D01*
X149980952Y-101707142D01*
X150028571Y-101754761D01*
X150123809Y-101802380D01*
X150409523Y-101802380D01*
X150504761Y-101754761D01*
X150552380Y-101707142D01*
X170357380Y-103988904D02*
X169357380Y-103988904D01*
X169357380Y-104227000D01*
X169405000Y-104369857D01*
X169500238Y-104465095D01*
X169595476Y-104512714D01*
X169785952Y-104560333D01*
X169928809Y-104560333D01*
X170119285Y-104512714D01*
X170214523Y-104465095D01*
X170309761Y-104369857D01*
X170357380Y-104227000D01*
X170357380Y-103988904D01*
X169690714Y-105417476D02*
X170357380Y-105417476D01*
X169309761Y-105179380D02*
X170024047Y-104941285D01*
X170024047Y-105560333D01*
D11*
X148857142Y-119780952D02*
X148990476Y-119590476D01*
X149085714Y-119780952D02*
X149085714Y-119380952D01*
X148933333Y-119380952D01*
X148895238Y-119400000D01*
X148876190Y-119419047D01*
X148857142Y-119457142D01*
X148857142Y-119514285D01*
X148876190Y-119552380D01*
X148895238Y-119571428D01*
X148933333Y-119590476D01*
X149085714Y-119590476D01*
X148514285Y-119380952D02*
X148590476Y-119380952D01*
X148628571Y-119400000D01*
X148647619Y-119419047D01*
X148685714Y-119476190D01*
X148704761Y-119552380D01*
X148704761Y-119704761D01*
X148685714Y-119742857D01*
X148666666Y-119761904D01*
X148628571Y-119780952D01*
X148552380Y-119780952D01*
X148514285Y-119761904D01*
X148495238Y-119742857D01*
X148476190Y-119704761D01*
X148476190Y-119609523D01*
X148495238Y-119571428D01*
X148514285Y-119552380D01*
X148552380Y-119533333D01*
X148628571Y-119533333D01*
X148666666Y-119552380D01*
X148685714Y-119571428D01*
X148704761Y-119609523D01*
X148323809Y-119419047D02*
X148304761Y-119400000D01*
X148266666Y-119380952D01*
X148171428Y-119380952D01*
X148133333Y-119400000D01*
X148114285Y-119419047D01*
X148095238Y-119457142D01*
X148095238Y-119495238D01*
X148114285Y-119552380D01*
X148342857Y-119780952D01*
X148095238Y-119780952D01*
D10*
X151061904Y-118985714D02*
X150680952Y-118719047D01*
X151061904Y-118528571D02*
X150261904Y-118528571D01*
X150261904Y-118833333D01*
X150300000Y-118909523D01*
X150338095Y-118947619D01*
X150414285Y-118985714D01*
X150528571Y-118985714D01*
X150604761Y-118947619D01*
X150642857Y-118909523D01*
X150680952Y-118833333D01*
X150680952Y-118528571D01*
X150261904Y-119671428D02*
X150261904Y-119519047D01*
X150300000Y-119442857D01*
X150338095Y-119404761D01*
X150452380Y-119328571D01*
X150604761Y-119290476D01*
X150909523Y-119290476D01*
X150985714Y-119328571D01*
X151023809Y-119366666D01*
X151061904Y-119442857D01*
X151061904Y-119595238D01*
X151023809Y-119671428D01*
X150985714Y-119709523D01*
X150909523Y-119747619D01*
X150719047Y-119747619D01*
X150642857Y-119709523D01*
X150604761Y-119671428D01*
X150566666Y-119595238D01*
X150566666Y-119442857D01*
X150604761Y-119366666D01*
X150642857Y-119328571D01*
X150719047Y-119290476D01*
X151061904Y-120509523D02*
X151061904Y-120052380D01*
X151061904Y-120280952D02*
X150261904Y-120280952D01*
X150376190Y-120204761D01*
X150452380Y-120128571D01*
X150490476Y-120052380D01*
X127340476Y-114061904D02*
X127340476Y-114709523D01*
X127302380Y-114785714D01*
X127264285Y-114823809D01*
X127188095Y-114861904D01*
X127035714Y-114861904D01*
X126959523Y-114823809D01*
X126921428Y-114785714D01*
X126883333Y-114709523D01*
X126883333Y-114061904D01*
X126083333Y-114861904D02*
X126540476Y-114861904D01*
X126311904Y-114861904D02*
X126311904Y-114061904D01*
X126388095Y-114176190D01*
X126464285Y-114252380D01*
X126540476Y-114290476D01*
X125321428Y-114861904D02*
X125778571Y-114861904D01*
X125550000Y-114861904D02*
X125550000Y-114061904D01*
X125626190Y-114176190D01*
X125702380Y-114252380D01*
X125778571Y-114290476D01*
X127340476Y-106911904D02*
X127340476Y-107559523D01*
X127302380Y-107635714D01*
X127264285Y-107673809D01*
X127188095Y-107711904D01*
X127035714Y-107711904D01*
X126959523Y-107673809D01*
X126921428Y-107635714D01*
X126883333Y-107559523D01*
X126883333Y-106911904D01*
X126083333Y-107711904D02*
X126540476Y-107711904D01*
X126311904Y-107711904D02*
X126311904Y-106911904D01*
X126388095Y-107026190D01*
X126464285Y-107102380D01*
X126540476Y-107140476D01*
X125397619Y-107178571D02*
X125397619Y-107711904D01*
X125588095Y-106873809D02*
X125778571Y-107445238D01*
X125283333Y-107445238D01*
X133214285Y-112285714D02*
X133252380Y-112323809D01*
X133366666Y-112361904D01*
X133442857Y-112361904D01*
X133557142Y-112323809D01*
X133633333Y-112247619D01*
X133671428Y-112171428D01*
X133709523Y-112019047D01*
X133709523Y-111904761D01*
X133671428Y-111752380D01*
X133633333Y-111676190D01*
X133557142Y-111600000D01*
X133442857Y-111561904D01*
X133366666Y-111561904D01*
X133252380Y-111600000D01*
X133214285Y-111638095D01*
X132490476Y-111561904D02*
X132871428Y-111561904D01*
X132909523Y-111942857D01*
X132871428Y-111904761D01*
X132795238Y-111866666D01*
X132604761Y-111866666D01*
X132528571Y-111904761D01*
X132490476Y-111942857D01*
X132452380Y-112019047D01*
X132452380Y-112209523D01*
X132490476Y-112285714D01*
X132528571Y-112323809D01*
X132604761Y-112361904D01*
X132795238Y-112361904D01*
X132871428Y-112323809D01*
X132909523Y-112285714D01*
X132185714Y-111561904D02*
X131690476Y-111561904D01*
X131957142Y-111866666D01*
X131842857Y-111866666D01*
X131766666Y-111904761D01*
X131728571Y-111942857D01*
X131690476Y-112019047D01*
X131690476Y-112209523D01*
X131728571Y-112285714D01*
X131766666Y-112323809D01*
X131842857Y-112361904D01*
X132071428Y-112361904D01*
X132147619Y-112323809D01*
X132185714Y-112285714D01*
X127340476Y-121211904D02*
X127340476Y-121859523D01*
X127302380Y-121935714D01*
X127264285Y-121973809D01*
X127188095Y-122011904D01*
X127035714Y-122011904D01*
X126959523Y-121973809D01*
X126921428Y-121935714D01*
X126883333Y-121859523D01*
X126883333Y-121211904D01*
X126083333Y-122011904D02*
X126540476Y-122011904D01*
X126311904Y-122011904D02*
X126311904Y-121211904D01*
X126388095Y-121326190D01*
X126464285Y-121402380D01*
X126540476Y-121440476D01*
X125588095Y-121211904D02*
X125511904Y-121211904D01*
X125435714Y-121250000D01*
X125397619Y-121288095D01*
X125359523Y-121364285D01*
X125321428Y-121516666D01*
X125321428Y-121707142D01*
X125359523Y-121859523D01*
X125397619Y-121935714D01*
X125435714Y-121973809D01*
X125511904Y-122011904D01*
X125588095Y-122011904D01*
X125664285Y-121973809D01*
X125702380Y-121935714D01*
X125740476Y-121859523D01*
X125778571Y-121707142D01*
X125778571Y-121516666D01*
X125740476Y-121364285D01*
X125702380Y-121288095D01*
X125664285Y-121250000D01*
X125588095Y-121211904D01*
X128538095Y-102202380D02*
X127966666Y-102202380D01*
X128252380Y-103202380D02*
X128252380Y-102202380D01*
X127633333Y-103202380D02*
X127633333Y-102202380D01*
X127252380Y-102202380D01*
X127157142Y-102250000D01*
X127109523Y-102297619D01*
X127061904Y-102392857D01*
X127061904Y-102535714D01*
X127109523Y-102630952D01*
X127157142Y-102678571D01*
X127252380Y-102726190D01*
X127633333Y-102726190D01*
X126109523Y-103202380D02*
X126680952Y-103202380D01*
X126395238Y-103202380D02*
X126395238Y-102202380D01*
X126490476Y-102345238D01*
X126585714Y-102440476D01*
X126680952Y-102488095D01*
X125728571Y-102297619D02*
X125680952Y-102250000D01*
X125585714Y-102202380D01*
X125347619Y-102202380D01*
X125252380Y-102250000D01*
X125204761Y-102297619D01*
X125157142Y-102392857D01*
X125157142Y-102488095D01*
X125204761Y-102630952D01*
X125776190Y-103202380D01*
X125157142Y-103202380D01*
X156314285Y-82061904D02*
X156580952Y-81680952D01*
X156771428Y-82061904D02*
X156771428Y-81261904D01*
X156466666Y-81261904D01*
X156390476Y-81300000D01*
X156352380Y-81338095D01*
X156314285Y-81414285D01*
X156314285Y-81528571D01*
X156352380Y-81604761D01*
X156390476Y-81642857D01*
X156466666Y-81680952D01*
X156771428Y-81680952D01*
X156047619Y-81261904D02*
X155552380Y-81261904D01*
X155819047Y-81566666D01*
X155704761Y-81566666D01*
X155628571Y-81604761D01*
X155590476Y-81642857D01*
X155552380Y-81719047D01*
X155552380Y-81909523D01*
X155590476Y-81985714D01*
X155628571Y-82023809D01*
X155704761Y-82061904D01*
X155933333Y-82061904D01*
X156009523Y-82023809D01*
X156047619Y-81985714D01*
X155171428Y-82061904D02*
X155019047Y-82061904D01*
X154942857Y-82023809D01*
X154904761Y-81985714D01*
X154828571Y-81871428D01*
X154790476Y-81719047D01*
X154790476Y-81414285D01*
X154828571Y-81338095D01*
X154866666Y-81300000D01*
X154942857Y-81261904D01*
X155095238Y-81261904D01*
X155171428Y-81300000D01*
X155209523Y-81338095D01*
X155247619Y-81414285D01*
X155247619Y-81604761D01*
X155209523Y-81680952D01*
X155171428Y-81719047D01*
X155095238Y-81757142D01*
X154942857Y-81757142D01*
X154866666Y-81719047D01*
X154828571Y-81680952D01*
X154790476Y-81604761D01*
X154533333Y-83061904D02*
X154800000Y-82680952D01*
X154990476Y-83061904D02*
X154990476Y-82261904D01*
X154685714Y-82261904D01*
X154609523Y-82300000D01*
X154571428Y-82338095D01*
X154533333Y-82414285D01*
X154533333Y-82528571D01*
X154571428Y-82604761D01*
X154609523Y-82642857D01*
X154685714Y-82680952D01*
X154990476Y-82680952D01*
X154152380Y-83061904D02*
X154000000Y-83061904D01*
X153923809Y-83023809D01*
X153885714Y-82985714D01*
X153809523Y-82871428D01*
X153771428Y-82719047D01*
X153771428Y-82414285D01*
X153809523Y-82338095D01*
X153847619Y-82300000D01*
X153923809Y-82261904D01*
X154076190Y-82261904D01*
X154152380Y-82300000D01*
X154190476Y-82338095D01*
X154228571Y-82414285D01*
X154228571Y-82604761D01*
X154190476Y-82680952D01*
X154152380Y-82719047D01*
X154076190Y-82757142D01*
X153923809Y-82757142D01*
X153847619Y-82719047D01*
X153809523Y-82680952D01*
X153771428Y-82604761D01*
X148085714Y-82285714D02*
X148123809Y-82247619D01*
X148161904Y-82133333D01*
X148161904Y-82057142D01*
X148123809Y-81942857D01*
X148047619Y-81866666D01*
X147971428Y-81828571D01*
X147819047Y-81790476D01*
X147704761Y-81790476D01*
X147552380Y-81828571D01*
X147476190Y-81866666D01*
X147400000Y-81942857D01*
X147361904Y-82057142D01*
X147361904Y-82133333D01*
X147400000Y-82247619D01*
X147438095Y-82285714D01*
X147628571Y-82971428D02*
X148161904Y-82971428D01*
X147323809Y-82780952D02*
X147895238Y-82590476D01*
X147895238Y-83085714D01*
X147361904Y-83314285D02*
X147361904Y-83847619D01*
X148161904Y-83504761D01*
X152814285Y-94585714D02*
X152852380Y-94623809D01*
X152966666Y-94661904D01*
X153042857Y-94661904D01*
X153157142Y-94623809D01*
X153233333Y-94547619D01*
X153271428Y-94471428D01*
X153309523Y-94319047D01*
X153309523Y-94204761D01*
X153271428Y-94052380D01*
X153233333Y-93976190D01*
X153157142Y-93900000D01*
X153042857Y-93861904D01*
X152966666Y-93861904D01*
X152852380Y-93900000D01*
X152814285Y-93938095D01*
X152128571Y-94128571D02*
X152128571Y-94661904D01*
X152319047Y-93823809D02*
X152509523Y-94395238D01*
X152014285Y-94395238D01*
X151671428Y-94661904D02*
X151519047Y-94661904D01*
X151442857Y-94623809D01*
X151404761Y-94585714D01*
X151328571Y-94471428D01*
X151290476Y-94319047D01*
X151290476Y-94014285D01*
X151328571Y-93938095D01*
X151366666Y-93900000D01*
X151442857Y-93861904D01*
X151595238Y-93861904D01*
X151671428Y-93900000D01*
X151709523Y-93938095D01*
X151747619Y-94014285D01*
X151747619Y-94204761D01*
X151709523Y-94280952D01*
X151671428Y-94319047D01*
X151595238Y-94357142D01*
X151442857Y-94357142D01*
X151366666Y-94319047D01*
X151328571Y-94280952D01*
X151290476Y-94204761D01*
X149014285Y-109885714D02*
X149052380Y-109923809D01*
X149166666Y-109961904D01*
X149242857Y-109961904D01*
X149357142Y-109923809D01*
X149433333Y-109847619D01*
X149471428Y-109771428D01*
X149509523Y-109619047D01*
X149509523Y-109504761D01*
X149471428Y-109352380D01*
X149433333Y-109276190D01*
X149357142Y-109200000D01*
X149242857Y-109161904D01*
X149166666Y-109161904D01*
X149052380Y-109200000D01*
X149014285Y-109238095D01*
X148328571Y-109161904D02*
X148480952Y-109161904D01*
X148557142Y-109200000D01*
X148595238Y-109238095D01*
X148671428Y-109352380D01*
X148709523Y-109504761D01*
X148709523Y-109809523D01*
X148671428Y-109885714D01*
X148633333Y-109923809D01*
X148557142Y-109961904D01*
X148404761Y-109961904D01*
X148328571Y-109923809D01*
X148290476Y-109885714D01*
X148252380Y-109809523D01*
X148252380Y-109619047D01*
X148290476Y-109542857D01*
X148328571Y-109504761D01*
X148404761Y-109466666D01*
X148557142Y-109466666D01*
X148633333Y-109504761D01*
X148671428Y-109542857D01*
X148709523Y-109619047D01*
X147947619Y-109238095D02*
X147909523Y-109200000D01*
X147833333Y-109161904D01*
X147642857Y-109161904D01*
X147566666Y-109200000D01*
X147528571Y-109238095D01*
X147490476Y-109314285D01*
X147490476Y-109390476D01*
X147528571Y-109504761D01*
X147985714Y-109961904D01*
X147490476Y-109961904D01*
X136985714Y-94685714D02*
X137023809Y-94647619D01*
X137061904Y-94533333D01*
X137061904Y-94457142D01*
X137023809Y-94342857D01*
X136947619Y-94266666D01*
X136871428Y-94228571D01*
X136719047Y-94190476D01*
X136604761Y-94190476D01*
X136452380Y-94228571D01*
X136376190Y-94266666D01*
X136300000Y-94342857D01*
X136261904Y-94457142D01*
X136261904Y-94533333D01*
X136300000Y-94647619D01*
X136338095Y-94685714D01*
X136261904Y-95409523D02*
X136261904Y-95028571D01*
X136642857Y-94990476D01*
X136604761Y-95028571D01*
X136566666Y-95104761D01*
X136566666Y-95295238D01*
X136604761Y-95371428D01*
X136642857Y-95409523D01*
X136719047Y-95447619D01*
X136909523Y-95447619D01*
X136985714Y-95409523D01*
X137023809Y-95371428D01*
X137061904Y-95295238D01*
X137061904Y-95104761D01*
X137023809Y-95028571D01*
X136985714Y-94990476D01*
X136528571Y-96133333D02*
X137061904Y-96133333D01*
X136223809Y-95942857D02*
X136795238Y-95752380D01*
X136795238Y-96247619D01*
X144014285Y-122485714D02*
X144052380Y-122523809D01*
X144166666Y-122561904D01*
X144242857Y-122561904D01*
X144357142Y-122523809D01*
X144433333Y-122447619D01*
X144471428Y-122371428D01*
X144509523Y-122219047D01*
X144509523Y-122104761D01*
X144471428Y-121952380D01*
X144433333Y-121876190D01*
X144357142Y-121800000D01*
X144242857Y-121761904D01*
X144166666Y-121761904D01*
X144052380Y-121800000D01*
X144014285Y-121838095D01*
X143252380Y-122561904D02*
X143709523Y-122561904D01*
X143480952Y-122561904D02*
X143480952Y-121761904D01*
X143557142Y-121876190D01*
X143633333Y-121952380D01*
X143709523Y-121990476D01*
X142795238Y-122104761D02*
X142871428Y-122066666D01*
X142909523Y-122028571D01*
X142947619Y-121952380D01*
X142947619Y-121914285D01*
X142909523Y-121838095D01*
X142871428Y-121800000D01*
X142795238Y-121761904D01*
X142642857Y-121761904D01*
X142566666Y-121800000D01*
X142528571Y-121838095D01*
X142490476Y-121914285D01*
X142490476Y-121952380D01*
X142528571Y-122028571D01*
X142566666Y-122066666D01*
X142642857Y-122104761D01*
X142795238Y-122104761D01*
X142871428Y-122142857D01*
X142909523Y-122180952D01*
X142947619Y-122257142D01*
X142947619Y-122409523D01*
X142909523Y-122485714D01*
X142871428Y-122523809D01*
X142795238Y-122561904D01*
X142642857Y-122561904D01*
X142566666Y-122523809D01*
X142528571Y-122485714D01*
X142490476Y-122409523D01*
X142490476Y-122257142D01*
X142528571Y-122180952D01*
X142566666Y-122142857D01*
X142642857Y-122104761D01*
X136985714Y-91785714D02*
X137023809Y-91747619D01*
X137061904Y-91633333D01*
X137061904Y-91557142D01*
X137023809Y-91442857D01*
X136947619Y-91366666D01*
X136871428Y-91328571D01*
X136719047Y-91290476D01*
X136604761Y-91290476D01*
X136452380Y-91328571D01*
X136376190Y-91366666D01*
X136300000Y-91442857D01*
X136261904Y-91557142D01*
X136261904Y-91633333D01*
X136300000Y-91747619D01*
X136338095Y-91785714D01*
X136261904Y-92509523D02*
X136261904Y-92128571D01*
X136642857Y-92090476D01*
X136604761Y-92128571D01*
X136566666Y-92204761D01*
X136566666Y-92395238D01*
X136604761Y-92471428D01*
X136642857Y-92509523D01*
X136719047Y-92547619D01*
X136909523Y-92547619D01*
X136985714Y-92509523D01*
X137023809Y-92471428D01*
X137061904Y-92395238D01*
X137061904Y-92204761D01*
X137023809Y-92128571D01*
X136985714Y-92090476D01*
X136261904Y-92814285D02*
X136261904Y-93347619D01*
X137061904Y-93004761D01*
X136499285Y-107085714D02*
X136537380Y-107123809D01*
X136651666Y-107161904D01*
X136727857Y-107161904D01*
X136842142Y-107123809D01*
X136918333Y-107047619D01*
X136956428Y-106971428D01*
X136994523Y-106819047D01*
X136994523Y-106704761D01*
X136956428Y-106552380D01*
X136918333Y-106476190D01*
X136842142Y-106400000D01*
X136727857Y-106361904D01*
X136651666Y-106361904D01*
X136537380Y-106400000D01*
X136499285Y-106438095D01*
X135813571Y-106361904D02*
X135965952Y-106361904D01*
X136042142Y-106400000D01*
X136080238Y-106438095D01*
X136156428Y-106552380D01*
X136194523Y-106704761D01*
X136194523Y-107009523D01*
X136156428Y-107085714D01*
X136118333Y-107123809D01*
X136042142Y-107161904D01*
X135889761Y-107161904D01*
X135813571Y-107123809D01*
X135775476Y-107085714D01*
X135737380Y-107009523D01*
X135737380Y-106819047D01*
X135775476Y-106742857D01*
X135813571Y-106704761D01*
X135889761Y-106666666D01*
X136042142Y-106666666D01*
X136118333Y-106704761D01*
X136156428Y-106742857D01*
X136194523Y-106819047D01*
X134975476Y-107161904D02*
X135432619Y-107161904D01*
X135204047Y-107161904D02*
X135204047Y-106361904D01*
X135280238Y-106476190D01*
X135356428Y-106552380D01*
X135432619Y-106590476D01*
D12*
X164750000Y-109900000D02*
X165250000Y-109900000D01*
X165250000Y-108900000D02*
X164750000Y-108900000D01*
X164750000Y-108900000D02*
X164750000Y-109900000D01*
X165250000Y-109900000D02*
X165250000Y-108900000D01*
X166250000Y-109900000D02*
X166250000Y-108900000D01*
X165750000Y-109900000D02*
X166250000Y-109900000D01*
X165750000Y-108900000D02*
X165750000Y-109900000D01*
X166250000Y-108900000D02*
X165750000Y-108900000D01*
X151150000Y-96250000D02*
X151650000Y-96250000D01*
X151650000Y-95250000D02*
X151150000Y-95250000D01*
X151650000Y-96250000D02*
X151650000Y-95250000D01*
X151150000Y-95250000D02*
X151150000Y-96250000D01*
X166550000Y-105600000D02*
X166550000Y-106750000D01*
X166550000Y-105600000D02*
X163450000Y-105600000D01*
X165900000Y-107400000D02*
X163450000Y-107400000D01*
X165900000Y-107400000D02*
X166550000Y-106750000D01*
X163450000Y-105600000D02*
X163450000Y-107400000D01*
D10*
X151000000Y-102800000D02*
X147000000Y-102800000D01*
X147000000Y-102800000D02*
X146000000Y-103800000D01*
X146000000Y-103800000D02*
X146000000Y-107200000D01*
X151000000Y-107200000D02*
X151000000Y-102800000D01*
X146000000Y-107200000D02*
X151000000Y-107200000D01*
D12*
X132800000Y-105950000D02*
X132800000Y-106450000D01*
X132800000Y-106450000D02*
X133800000Y-106450000D01*
X133800000Y-105950000D02*
X132800000Y-105950000D01*
X133800000Y-106450000D02*
X133800000Y-105950000D01*
X133900000Y-121512500D02*
X133900000Y-119912500D01*
X133900000Y-119912500D02*
X133100000Y-119912500D01*
X133100000Y-121512500D02*
X133900000Y-121512500D01*
X133100000Y-119912500D02*
X133100000Y-121512500D01*
X136000000Y-122450000D02*
X137000000Y-122450000D01*
X136000000Y-121950000D02*
X136000000Y-122450000D01*
X137000000Y-121950000D02*
X136000000Y-121950000D01*
X137000000Y-122450000D02*
X137000000Y-121950000D01*
X133500000Y-122950000D02*
X134500000Y-122950000D01*
X134500000Y-122450000D02*
X133500000Y-122450000D01*
X133500000Y-122450000D02*
X133500000Y-122950000D01*
X134500000Y-122950000D02*
X134500000Y-122450000D01*
X122150000Y-106000000D02*
X122150000Y-105000000D01*
X122150000Y-105000000D02*
X121650000Y-105000000D01*
X121650000Y-105000000D02*
X121650000Y-106000000D01*
X121650000Y-106000000D02*
X122150000Y-106000000D01*
X146400000Y-116300000D02*
X148000000Y-116300000D01*
X146400000Y-115500000D02*
X146400000Y-116300000D01*
X148000000Y-116300000D02*
X148000000Y-115500000D01*
X148000000Y-115500000D02*
X146400000Y-115500000D01*
X150115000Y-83850000D02*
X150115000Y-83350000D01*
X149115000Y-83350000D02*
X149115000Y-83850000D01*
X149115000Y-83850000D02*
X150115000Y-83850000D01*
X150115000Y-83350000D02*
X149115000Y-83350000D01*
X167150000Y-115550000D02*
X167150000Y-111625000D01*
X163250000Y-110650000D02*
X163250000Y-115550000D01*
X163250000Y-115550000D02*
X167150000Y-115550000D01*
X167150000Y-111625000D02*
X166175000Y-110650000D01*
X166175000Y-110650000D02*
X163250000Y-110650000D01*
X136657500Y-87900000D02*
X136657500Y-88900000D01*
X137157500Y-88900000D02*
X137157500Y-87900000D01*
X137157500Y-87900000D02*
X136657500Y-87900000D01*
X136657500Y-88900000D02*
X137157500Y-88900000D01*
X135657500Y-87900000D02*
X135657500Y-88900000D01*
X135657500Y-88900000D02*
X136157500Y-88900000D01*
X136157500Y-88900000D02*
X136157500Y-87900000D01*
X136157500Y-87900000D02*
X135657500Y-87900000D01*
X148250000Y-99300000D02*
X148250000Y-98300000D01*
X147750000Y-98300000D02*
X147750000Y-99300000D01*
X147750000Y-99300000D02*
X148250000Y-99300000D01*
X148250000Y-98300000D02*
X147750000Y-98300000D01*
X150115000Y-84850000D02*
X150115000Y-84350000D01*
X149115000Y-84850000D02*
X150115000Y-84850000D01*
X150115000Y-84350000D02*
X149115000Y-84350000D01*
X149115000Y-84350000D02*
X149115000Y-84850000D01*
X150650000Y-96250000D02*
X150650000Y-95250000D01*
X150150000Y-95250000D02*
X150150000Y-96250000D01*
X150650000Y-95250000D02*
X150150000Y-95250000D01*
X150150000Y-96250000D02*
X150650000Y-96250000D01*
X141500000Y-99050000D02*
X141500000Y-98550000D01*
X141500000Y-98550000D02*
X140500000Y-98550000D01*
X140500000Y-98550000D02*
X140500000Y-99050000D01*
X140500000Y-99050000D02*
X141500000Y-99050000D01*
X140500000Y-98050000D02*
X141500000Y-98050000D01*
X141500000Y-98050000D02*
X141500000Y-97550000D01*
X140500000Y-97550000D02*
X140500000Y-98050000D01*
X141500000Y-97550000D02*
X140500000Y-97550000D01*
X140700000Y-82450000D02*
X141700000Y-82450000D01*
X141700000Y-81950000D02*
X140700000Y-81950000D01*
X140700000Y-81950000D02*
X140700000Y-82450000D01*
X141700000Y-82450000D02*
X141700000Y-81950000D01*
X140700000Y-83450000D02*
X141700000Y-83450000D01*
X140700000Y-82950000D02*
X140700000Y-83450000D01*
X141700000Y-82950000D02*
X140700000Y-82950000D01*
X141700000Y-83450000D02*
X141700000Y-82950000D01*
X139500000Y-94500000D02*
X140500000Y-95500000D01*
X140500000Y-95500000D02*
X149500000Y-95500000D01*
X139500000Y-85500000D02*
X139500000Y-94500000D01*
X149500000Y-85500000D02*
X139500000Y-85500000D01*
X149500000Y-95500000D02*
X149500000Y-85500000D01*
X144100000Y-107050000D02*
X144100000Y-106550000D01*
X143100000Y-106550000D02*
X143100000Y-107050000D01*
X144100000Y-106550000D02*
X143100000Y-106550000D01*
X143100000Y-107050000D02*
X144100000Y-107050000D01*
X145950000Y-113000000D02*
X145450000Y-113000000D01*
X145450000Y-114000000D02*
X145950000Y-114000000D01*
X145450000Y-113000000D02*
X145450000Y-114000000D01*
X145950000Y-114000000D02*
X145950000Y-113000000D01*
X132350000Y-113250000D02*
X132350000Y-114850000D01*
X132350000Y-114850000D02*
X133150000Y-114850000D01*
X133150000Y-114850000D02*
X133150000Y-113250000D01*
X133150000Y-113250000D02*
X132350000Y-113250000D01*
X133000000Y-109100000D02*
X133800000Y-109100000D01*
X133800000Y-107500000D02*
X133000000Y-107500000D01*
X133000000Y-107500000D02*
X133000000Y-109100000D01*
X133800000Y-109100000D02*
X133800000Y-107500000D01*
X152150000Y-84400000D02*
X152150000Y-85400000D01*
X152650000Y-84400000D02*
X152150000Y-84400000D01*
X152150000Y-85400000D02*
X152650000Y-85400000D01*
X152650000Y-85400000D02*
X152650000Y-84400000D01*
X159775000Y-110000000D02*
X159775000Y-111000000D01*
X160275000Y-110000000D02*
X159775000Y-110000000D01*
X160275000Y-111000000D02*
X160275000Y-110000000D01*
X159775000Y-111000000D02*
X160275000Y-111000000D01*
X160750000Y-111000000D02*
X161250000Y-111000000D01*
X161250000Y-110000000D02*
X160750000Y-110000000D01*
X161250000Y-111000000D02*
X161250000Y-110000000D01*
X160750000Y-110000000D02*
X160750000Y-111000000D01*
D10*
X157600000Y-84800000D02*
X156600000Y-83800000D01*
X154600000Y-83800000D02*
X154600000Y-86800000D01*
X157600000Y-86800000D02*
X157600000Y-84800000D01*
X156600000Y-83800000D02*
X154600000Y-83800000D01*
X154600000Y-86800000D02*
X157600000Y-86800000D01*
D12*
X122150000Y-112100000D02*
X121650000Y-112100000D01*
X122150000Y-113100000D02*
X122150000Y-112100000D01*
X121650000Y-113100000D02*
X122150000Y-113100000D01*
X121650000Y-112100000D02*
X121650000Y-113100000D01*
X147300000Y-114400000D02*
X148500000Y-114400000D01*
X148500000Y-112400000D02*
X147300000Y-112400000D01*
X147300000Y-112400000D02*
X147300000Y-114400000D01*
X148500000Y-114400000D02*
X148500000Y-112400000D01*
X144100000Y-106050000D02*
X144100000Y-105550000D01*
X144100000Y-105550000D02*
X143100000Y-105550000D01*
X143100000Y-105550000D02*
X143100000Y-106050000D01*
X143100000Y-106050000D02*
X144100000Y-106050000D01*
X121650000Y-120285000D02*
X122150000Y-120285000D01*
X122150000Y-120285000D02*
X122150000Y-119285000D01*
X122150000Y-119285000D02*
X121650000Y-119285000D01*
X121650000Y-119285000D02*
X121650000Y-120285000D01*
X148750000Y-121600000D02*
X148350000Y-121600000D01*
X148350000Y-121600000D02*
X147750000Y-121200000D01*
X147750000Y-121200000D02*
X147750000Y-122000000D01*
X149400000Y-122500000D02*
X149400000Y-120700000D01*
X147750000Y-121600000D02*
X147250000Y-121600000D01*
X148350000Y-121600000D02*
X148350000Y-121050000D01*
X147750000Y-122000000D02*
X148350000Y-121600000D01*
X146600000Y-122500000D02*
X149400000Y-122500000D01*
X146600000Y-120700000D02*
X146600000Y-122500000D01*
X149400000Y-120700000D02*
X146600000Y-120700000D01*
X148350000Y-121600000D02*
X148350000Y-122150000D01*
X167100000Y-106000000D02*
X168900000Y-106000000D01*
X168000000Y-104950000D02*
X168400000Y-104350000D01*
X168000000Y-105350000D02*
X168000000Y-104950000D01*
X168900000Y-103200000D02*
X167100000Y-103200000D01*
X167100000Y-103200000D02*
X167100000Y-106000000D01*
X168900000Y-106000000D02*
X168900000Y-103200000D01*
X167600000Y-104350000D02*
X168000000Y-104950000D01*
X168000000Y-104950000D02*
X167450000Y-104950000D01*
X168000000Y-104350000D02*
X168000000Y-103850000D01*
X168000000Y-104950000D02*
X168550000Y-104950000D01*
X168400000Y-104350000D02*
X167600000Y-104350000D01*
X147800000Y-119200000D02*
X147800000Y-120000000D01*
X149400000Y-119200000D02*
X147800000Y-119200000D01*
X149400000Y-120000000D02*
X149400000Y-119200000D01*
X147800000Y-120000000D02*
X149400000Y-120000000D01*
X150450000Y-119000000D02*
X150450000Y-120000000D01*
X150950000Y-120000000D02*
X150950000Y-119000000D01*
X150450000Y-120000000D02*
X150950000Y-120000000D01*
X150950000Y-119000000D02*
X150450000Y-119000000D01*
D10*
X124150000Y-116750000D02*
X125150000Y-117750000D01*
X128550000Y-111250000D02*
X124150000Y-111250000D01*
X128550000Y-117750000D02*
X128550000Y-111250000D01*
X125150000Y-117750000D02*
X128550000Y-117750000D01*
X124150000Y-111250000D02*
X124150000Y-116750000D01*
X128550000Y-110600000D02*
X128550000Y-104100000D01*
X125150000Y-110600000D02*
X128550000Y-110600000D01*
X124150000Y-109600000D02*
X125150000Y-110600000D01*
X124150000Y-104100000D02*
X124150000Y-109600000D01*
X128550000Y-104100000D02*
X124150000Y-104100000D01*
D12*
X133200000Y-111750000D02*
X132200000Y-111750000D01*
X132200000Y-111750000D02*
X132200000Y-112250000D01*
X133200000Y-112250000D02*
X133200000Y-111750000D01*
X132200000Y-112250000D02*
X133200000Y-112250000D01*
D10*
X128550000Y-118400000D02*
X124150000Y-118400000D01*
X128550000Y-124900000D02*
X128550000Y-118400000D01*
X124150000Y-123900000D02*
X125150000Y-124900000D01*
X125150000Y-124900000D02*
X128550000Y-124900000D01*
X124150000Y-118400000D02*
X124150000Y-123900000D01*
D12*
X155300000Y-81450000D02*
X155300000Y-81950000D01*
X155300000Y-81950000D02*
X156300000Y-81950000D01*
X156300000Y-81950000D02*
X156300000Y-81450000D01*
X156300000Y-81450000D02*
X155300000Y-81450000D01*
X153900000Y-82450000D02*
X153900000Y-82950000D01*
X154900000Y-82950000D02*
X154900000Y-82450000D01*
X153900000Y-82950000D02*
X154900000Y-82950000D01*
X154900000Y-82450000D02*
X153900000Y-82450000D01*
X148050000Y-82300000D02*
X147550000Y-82300000D01*
X147550000Y-82300000D02*
X147550000Y-83300000D01*
X148050000Y-83300000D02*
X148050000Y-82300000D01*
X147550000Y-83300000D02*
X148050000Y-83300000D01*
X151800000Y-94050000D02*
X151800000Y-94550000D01*
X152800000Y-94050000D02*
X151800000Y-94050000D01*
X151800000Y-94550000D02*
X152800000Y-94550000D01*
X152800000Y-94550000D02*
X152800000Y-94050000D01*
X148000000Y-109850000D02*
X149000000Y-109850000D01*
X149000000Y-109350000D02*
X148000000Y-109350000D01*
X149000000Y-109850000D02*
X149000000Y-109350000D01*
X148000000Y-109350000D02*
X148000000Y-109850000D01*
X136950000Y-95700000D02*
X136950000Y-94700000D01*
X136950000Y-94700000D02*
X136450000Y-94700000D01*
X136450000Y-95700000D02*
X136950000Y-95700000D01*
X136450000Y-94700000D02*
X136450000Y-95700000D01*
X144000000Y-122450000D02*
X144000000Y-121950000D01*
X143000000Y-121950000D02*
X143000000Y-122450000D01*
X143000000Y-122450000D02*
X144000000Y-122450000D01*
X144000000Y-121950000D02*
X143000000Y-121950000D01*
X136450000Y-91800000D02*
X136450000Y-92800000D01*
X136450000Y-92800000D02*
X136950000Y-92800000D01*
X136950000Y-91800000D02*
X136450000Y-91800000D01*
X136950000Y-92800000D02*
X136950000Y-91800000D01*
X136485000Y-107050000D02*
X136485000Y-106550000D01*
X136485000Y-106550000D02*
X135485000Y-106550000D01*
X135485000Y-107050000D02*
X136485000Y-107050000D01*
X135485000Y-106550000D02*
X135485000Y-107050000D01*
M02*
