G04 #@! TF.GenerationSoftware,KiCad,Pcbnew,5.99.0-unknown-dd374e12a~102~ubuntu20.04.1*
G04 #@! TF.CreationDate,2020-12-04T17:09:39-08:00*
G04 #@! TF.ProjectId,BLDC,424c4443-2e6b-4696-9361-645f70636258,rev?*
G04 #@! TF.SameCoordinates,Original*
G04 #@! TF.FileFunction,Legend,Top*
G04 #@! TF.FilePolarity,Positive*
%FSLAX46Y46*%
G04 Gerber Fmt 4.6, Leading zero omitted, Abs format (unit mm)*
G04 Created by KiCad (PCBNEW 5.99.0-unknown-dd374e12a~102~ubuntu20.04.1) date 2020-12-04 17:09:39*
%MOMM*%
%LPD*%
G01*
G04 APERTURE LIST*
%ADD10C,0.300000*%
%ADD11C,0.150000*%
%ADD12C,0.200000*%
%ADD13C,0.120000*%
%ADD14C,0.254000*%
G04 APERTURE END LIST*
D10*
X161500000Y-92700000D02*
G75*
G03*
X161500000Y-92700000I-100000J0D01*
G01*
D11*
X143100000Y-97600000D02*
X143100000Y-96800000D01*
X142200000Y-96800000D02*
X143100000Y-97200000D01*
X143100000Y-97200000D02*
X142200000Y-97600000D01*
X142200000Y-97600000D02*
X142200000Y-96800000D01*
X131500000Y-94700000D02*
X131100000Y-95600000D01*
X130700000Y-94700000D02*
X131500000Y-94700000D01*
X131100000Y-95600000D02*
X130700000Y-94700000D01*
X130700000Y-95600000D02*
X131500000Y-95600000D01*
D10*
X170100000Y-88300000D02*
G75*
G03*
X170100000Y-88300000I-100000J0D01*
G01*
D11*
X137566666Y-82661904D02*
X137566666Y-81861904D01*
X137871428Y-81861904D01*
X137947619Y-81900000D01*
X137985714Y-81938095D01*
X138023809Y-82014285D01*
X138023809Y-82128571D01*
X137985714Y-82204761D01*
X137947619Y-82242857D01*
X137871428Y-82280952D01*
X137566666Y-82280952D01*
X138328571Y-82433333D02*
X138709523Y-82433333D01*
X138252380Y-82661904D02*
X138519047Y-81861904D01*
X138785714Y-82661904D01*
X138976190Y-81861904D02*
X139471428Y-81861904D01*
X139204761Y-82166666D01*
X139319047Y-82166666D01*
X139395238Y-82204761D01*
X139433333Y-82242857D01*
X139471428Y-82319047D01*
X139471428Y-82509523D01*
X139433333Y-82585714D01*
X139395238Y-82623809D01*
X139319047Y-82661904D01*
X139090476Y-82661904D01*
X139014285Y-82623809D01*
X138976190Y-82585714D01*
X137890476Y-80700000D02*
X137814285Y-80661904D01*
X137700000Y-80661904D01*
X137585714Y-80700000D01*
X137509523Y-80776190D01*
X137471428Y-80852380D01*
X137433333Y-81004761D01*
X137433333Y-81119047D01*
X137471428Y-81271428D01*
X137509523Y-81347619D01*
X137585714Y-81423809D01*
X137700000Y-81461904D01*
X137776190Y-81461904D01*
X137890476Y-81423809D01*
X137928571Y-81385714D01*
X137928571Y-81119047D01*
X137776190Y-81119047D01*
X138271428Y-81461904D02*
X138271428Y-80661904D01*
X138728571Y-81461904D01*
X138728571Y-80661904D01*
X139109523Y-81461904D02*
X139109523Y-80661904D01*
X139300000Y-80661904D01*
X139414285Y-80700000D01*
X139490476Y-80776190D01*
X139528571Y-80852380D01*
X139566666Y-81004761D01*
X139566666Y-81119047D01*
X139528571Y-81271428D01*
X139490476Y-81347619D01*
X139414285Y-81423809D01*
X139300000Y-81461904D01*
X139109523Y-81461904D01*
X140066666Y-82661904D02*
X140066666Y-81861904D01*
X140371428Y-81861904D01*
X140447619Y-81900000D01*
X140485714Y-81938095D01*
X140523809Y-82014285D01*
X140523809Y-82128571D01*
X140485714Y-82204761D01*
X140447619Y-82242857D01*
X140371428Y-82280952D01*
X140066666Y-82280952D01*
X140828571Y-82433333D02*
X141209523Y-82433333D01*
X140752380Y-82661904D02*
X141019047Y-81861904D01*
X141285714Y-82661904D01*
X141933333Y-81861904D02*
X141552380Y-81861904D01*
X141514285Y-82242857D01*
X141552380Y-82204761D01*
X141628571Y-82166666D01*
X141819047Y-82166666D01*
X141895238Y-82204761D01*
X141933333Y-82242857D01*
X141971428Y-82319047D01*
X141971428Y-82509523D01*
X141933333Y-82585714D01*
X141895238Y-82623809D01*
X141819047Y-82661904D01*
X141628571Y-82661904D01*
X141552380Y-82623809D01*
X141514285Y-82585714D01*
X140066666Y-81461904D02*
X140066666Y-80661904D01*
X140371428Y-80661904D01*
X140447619Y-80700000D01*
X140485714Y-80738095D01*
X140523809Y-80814285D01*
X140523809Y-80928571D01*
X140485714Y-81004761D01*
X140447619Y-81042857D01*
X140371428Y-81080952D01*
X140066666Y-81080952D01*
X140828571Y-81233333D02*
X141209523Y-81233333D01*
X140752380Y-81461904D02*
X141019047Y-80661904D01*
X141285714Y-81461904D01*
X141895238Y-80928571D02*
X141895238Y-81461904D01*
X141704761Y-80623809D02*
X141514285Y-81195238D01*
X142009523Y-81195238D01*
X142666666Y-81461904D02*
X142666666Y-80661904D01*
X142971428Y-80661904D01*
X143047619Y-80700000D01*
X143085714Y-80738095D01*
X143123809Y-80814285D01*
X143123809Y-80928571D01*
X143085714Y-81004761D01*
X143047619Y-81042857D01*
X142971428Y-81080952D01*
X142666666Y-81080952D01*
X143428571Y-81233333D02*
X143809523Y-81233333D01*
X143352380Y-81461904D02*
X143619047Y-80661904D01*
X143885714Y-81461904D01*
X144495238Y-80661904D02*
X144342857Y-80661904D01*
X144266666Y-80700000D01*
X144228571Y-80738095D01*
X144152380Y-80852380D01*
X144114285Y-81004761D01*
X144114285Y-81309523D01*
X144152380Y-81385714D01*
X144190476Y-81423809D01*
X144266666Y-81461904D01*
X144419047Y-81461904D01*
X144495238Y-81423809D01*
X144533333Y-81385714D01*
X144571428Y-81309523D01*
X144571428Y-81119047D01*
X144533333Y-81042857D01*
X144495238Y-81004761D01*
X144419047Y-80966666D01*
X144266666Y-80966666D01*
X144190476Y-81004761D01*
X144152380Y-81042857D01*
X144114285Y-81119047D01*
X142666666Y-82661904D02*
X142666666Y-81861904D01*
X142971428Y-81861904D01*
X143047619Y-81900000D01*
X143085714Y-81938095D01*
X143123809Y-82014285D01*
X143123809Y-82128571D01*
X143085714Y-82204761D01*
X143047619Y-82242857D01*
X142971428Y-82280952D01*
X142666666Y-82280952D01*
X143428571Y-82433333D02*
X143809523Y-82433333D01*
X143352380Y-82661904D02*
X143619047Y-81861904D01*
X143885714Y-82661904D01*
X144076190Y-81861904D02*
X144609523Y-81861904D01*
X144266666Y-82661904D01*
X145109523Y-81461904D02*
X145109523Y-80661904D01*
X145414285Y-80661904D01*
X145490476Y-80700000D01*
X145528571Y-80738095D01*
X145566666Y-80814285D01*
X145566666Y-80928571D01*
X145528571Y-81004761D01*
X145490476Y-81042857D01*
X145414285Y-81080952D01*
X145109523Y-81080952D01*
X146366666Y-81385714D02*
X146328571Y-81423809D01*
X146214285Y-81461904D01*
X146138095Y-81461904D01*
X146023809Y-81423809D01*
X145947619Y-81347619D01*
X145909523Y-81271428D01*
X145871428Y-81119047D01*
X145871428Y-81004761D01*
X145909523Y-80852380D01*
X145947619Y-80776190D01*
X146023809Y-80700000D01*
X146138095Y-80661904D01*
X146214285Y-80661904D01*
X146328571Y-80700000D01*
X146366666Y-80738095D01*
X147052380Y-80928571D02*
X147052380Y-81461904D01*
X146861904Y-80623809D02*
X146671428Y-81195238D01*
X147166666Y-81195238D01*
X145109523Y-82661904D02*
X145109523Y-81861904D01*
X145414285Y-81861904D01*
X145490476Y-81900000D01*
X145528571Y-81938095D01*
X145566666Y-82014285D01*
X145566666Y-82128571D01*
X145528571Y-82204761D01*
X145490476Y-82242857D01*
X145414285Y-82280952D01*
X145109523Y-82280952D01*
X146366666Y-82585714D02*
X146328571Y-82623809D01*
X146214285Y-82661904D01*
X146138095Y-82661904D01*
X146023809Y-82623809D01*
X145947619Y-82547619D01*
X145909523Y-82471428D01*
X145871428Y-82319047D01*
X145871428Y-82204761D01*
X145909523Y-82052380D01*
X145947619Y-81976190D01*
X146023809Y-81900000D01*
X146138095Y-81861904D01*
X146214285Y-81861904D01*
X146328571Y-81900000D01*
X146366666Y-81938095D01*
X147090476Y-81861904D02*
X146709523Y-81861904D01*
X146671428Y-82242857D01*
X146709523Y-82204761D01*
X146785714Y-82166666D01*
X146976190Y-82166666D01*
X147052380Y-82204761D01*
X147090476Y-82242857D01*
X147128571Y-82319047D01*
X147128571Y-82509523D01*
X147090476Y-82585714D01*
X147052380Y-82623809D01*
X146976190Y-82661904D01*
X146785714Y-82661904D01*
X146709523Y-82623809D01*
X146671428Y-82585714D01*
X147709523Y-82661904D02*
X147709523Y-81861904D01*
X148014285Y-81861904D01*
X148090476Y-81900000D01*
X148128571Y-81938095D01*
X148166666Y-82014285D01*
X148166666Y-82128571D01*
X148128571Y-82204761D01*
X148090476Y-82242857D01*
X148014285Y-82280952D01*
X147709523Y-82280952D01*
X148776190Y-82242857D02*
X148890476Y-82280952D01*
X148928571Y-82319047D01*
X148966666Y-82395238D01*
X148966666Y-82509523D01*
X148928571Y-82585714D01*
X148890476Y-82623809D01*
X148814285Y-82661904D01*
X148509523Y-82661904D01*
X148509523Y-81861904D01*
X148776190Y-81861904D01*
X148852380Y-81900000D01*
X148890476Y-81938095D01*
X148928571Y-82014285D01*
X148928571Y-82090476D01*
X148890476Y-82166666D01*
X148852380Y-82204761D01*
X148776190Y-82242857D01*
X148509523Y-82242857D01*
X149728571Y-82661904D02*
X149271428Y-82661904D01*
X149500000Y-82661904D02*
X149500000Y-81861904D01*
X149423809Y-81976190D01*
X149347619Y-82052380D01*
X149271428Y-82090476D01*
X147709523Y-81461904D02*
X147709523Y-80661904D01*
X148014285Y-80661904D01*
X148090476Y-80700000D01*
X148128571Y-80738095D01*
X148166666Y-80814285D01*
X148166666Y-80928571D01*
X148128571Y-81004761D01*
X148090476Y-81042857D01*
X148014285Y-81080952D01*
X147709523Y-81080952D01*
X148776190Y-81042857D02*
X148890476Y-81080952D01*
X148928571Y-81119047D01*
X148966666Y-81195238D01*
X148966666Y-81309523D01*
X148928571Y-81385714D01*
X148890476Y-81423809D01*
X148814285Y-81461904D01*
X148509523Y-81461904D01*
X148509523Y-80661904D01*
X148776190Y-80661904D01*
X148852380Y-80700000D01*
X148890476Y-80738095D01*
X148928571Y-80814285D01*
X148928571Y-80890476D01*
X148890476Y-80966666D01*
X148852380Y-81004761D01*
X148776190Y-81042857D01*
X148509523Y-81042857D01*
X149461904Y-80661904D02*
X149538095Y-80661904D01*
X149614285Y-80700000D01*
X149652380Y-80738095D01*
X149690476Y-80814285D01*
X149728571Y-80966666D01*
X149728571Y-81157142D01*
X149690476Y-81309523D01*
X149652380Y-81385714D01*
X149614285Y-81423809D01*
X149538095Y-81461904D01*
X149461904Y-81461904D01*
X149385714Y-81423809D01*
X149347619Y-81385714D01*
X149309523Y-81309523D01*
X149271428Y-81157142D01*
X149271428Y-80966666D01*
X149309523Y-80814285D01*
X149347619Y-80738095D01*
X149385714Y-80700000D01*
X149461904Y-80661904D01*
X150228571Y-82623809D02*
X150342857Y-82661904D01*
X150533333Y-82661904D01*
X150609523Y-82623809D01*
X150647619Y-82585714D01*
X150685714Y-82509523D01*
X150685714Y-82433333D01*
X150647619Y-82357142D01*
X150609523Y-82319047D01*
X150533333Y-82280952D01*
X150380952Y-82242857D01*
X150304761Y-82204761D01*
X150266666Y-82166666D01*
X150228571Y-82090476D01*
X150228571Y-82014285D01*
X150266666Y-81938095D01*
X150304761Y-81900000D01*
X150380952Y-81861904D01*
X150571428Y-81861904D01*
X150685714Y-81900000D01*
X151028571Y-82661904D02*
X151028571Y-81861904D01*
X151219047Y-81861904D01*
X151333333Y-81900000D01*
X151409523Y-81976190D01*
X151447619Y-82052380D01*
X151485714Y-82204761D01*
X151485714Y-82319047D01*
X151447619Y-82471428D01*
X151409523Y-82547619D01*
X151333333Y-82623809D01*
X151219047Y-82661904D01*
X151028571Y-82661904D01*
X151790476Y-82433333D02*
X152171428Y-82433333D01*
X151714285Y-82661904D02*
X151980952Y-81861904D01*
X152247619Y-82661904D01*
X150590476Y-80700000D02*
X150514285Y-80661904D01*
X150400000Y-80661904D01*
X150285714Y-80700000D01*
X150209523Y-80776190D01*
X150171428Y-80852380D01*
X150133333Y-81004761D01*
X150133333Y-81119047D01*
X150171428Y-81271428D01*
X150209523Y-81347619D01*
X150285714Y-81423809D01*
X150400000Y-81461904D01*
X150476190Y-81461904D01*
X150590476Y-81423809D01*
X150628571Y-81385714D01*
X150628571Y-81119047D01*
X150476190Y-81119047D01*
X150971428Y-81461904D02*
X150971428Y-80661904D01*
X151428571Y-81461904D01*
X151428571Y-80661904D01*
X151809523Y-81461904D02*
X151809523Y-80661904D01*
X152000000Y-80661904D01*
X152114285Y-80700000D01*
X152190476Y-80776190D01*
X152228571Y-80852380D01*
X152266666Y-81004761D01*
X152266666Y-81119047D01*
X152228571Y-81271428D01*
X152190476Y-81347619D01*
X152114285Y-81423809D01*
X152000000Y-81461904D01*
X151809523Y-81461904D01*
X152771428Y-82623809D02*
X152885714Y-82661904D01*
X153076190Y-82661904D01*
X153152380Y-82623809D01*
X153190476Y-82585714D01*
X153228571Y-82509523D01*
X153228571Y-82433333D01*
X153190476Y-82357142D01*
X153152380Y-82319047D01*
X153076190Y-82280952D01*
X152923809Y-82242857D01*
X152847619Y-82204761D01*
X152809523Y-82166666D01*
X152771428Y-82090476D01*
X152771428Y-82014285D01*
X152809523Y-81938095D01*
X152847619Y-81900000D01*
X152923809Y-81861904D01*
X153114285Y-81861904D01*
X153228571Y-81900000D01*
X153571428Y-82661904D02*
X153571428Y-81861904D01*
X153761904Y-81861904D01*
X153876190Y-81900000D01*
X153952380Y-81976190D01*
X153990476Y-82052380D01*
X154028571Y-82204761D01*
X154028571Y-82319047D01*
X153990476Y-82471428D01*
X153952380Y-82547619D01*
X153876190Y-82623809D01*
X153761904Y-82661904D01*
X153571428Y-82661904D01*
X154828571Y-82585714D02*
X154790476Y-82623809D01*
X154676190Y-82661904D01*
X154600000Y-82661904D01*
X154485714Y-82623809D01*
X154409523Y-82547619D01*
X154371428Y-82471428D01*
X154333333Y-82319047D01*
X154333333Y-82204761D01*
X154371428Y-82052380D01*
X154409523Y-81976190D01*
X154485714Y-81900000D01*
X154600000Y-81861904D01*
X154676190Y-81861904D01*
X154790476Y-81900000D01*
X154828571Y-81938095D01*
X153190476Y-80700000D02*
X153114285Y-80661904D01*
X153000000Y-80661904D01*
X152885714Y-80700000D01*
X152809523Y-80776190D01*
X152771428Y-80852380D01*
X152733333Y-81004761D01*
X152733333Y-81119047D01*
X152771428Y-81271428D01*
X152809523Y-81347619D01*
X152885714Y-81423809D01*
X153000000Y-81461904D01*
X153076190Y-81461904D01*
X153190476Y-81423809D01*
X153228571Y-81385714D01*
X153228571Y-81119047D01*
X153076190Y-81119047D01*
X153571428Y-81461904D02*
X153571428Y-80661904D01*
X154028571Y-81461904D01*
X154028571Y-80661904D01*
X154409523Y-81461904D02*
X154409523Y-80661904D01*
X154600000Y-80661904D01*
X154714285Y-80700000D01*
X154790476Y-80776190D01*
X154828571Y-80852380D01*
X154866666Y-81004761D01*
X154866666Y-81119047D01*
X154828571Y-81271428D01*
X154790476Y-81347619D01*
X154714285Y-81423809D01*
X154600000Y-81461904D01*
X154409523Y-81461904D01*
X155309523Y-81861904D02*
X155804761Y-81861904D01*
X155538095Y-82166666D01*
X155652380Y-82166666D01*
X155728571Y-82204761D01*
X155766666Y-82242857D01*
X155804761Y-82319047D01*
X155804761Y-82509523D01*
X155766666Y-82585714D01*
X155728571Y-82623809D01*
X155652380Y-82661904D01*
X155423809Y-82661904D01*
X155347619Y-82623809D01*
X155309523Y-82585714D01*
X156033333Y-81861904D02*
X156300000Y-82661904D01*
X156566666Y-81861904D01*
X156757142Y-81861904D02*
X157252380Y-81861904D01*
X156985714Y-82166666D01*
X157100000Y-82166666D01*
X157176190Y-82204761D01*
X157214285Y-82242857D01*
X157252380Y-82319047D01*
X157252380Y-82509523D01*
X157214285Y-82585714D01*
X157176190Y-82623809D01*
X157100000Y-82661904D01*
X156871428Y-82661904D01*
X156795238Y-82623809D01*
X156757142Y-82585714D01*
X155309523Y-80622904D02*
X155804761Y-80622904D01*
X155538095Y-80927666D01*
X155652380Y-80927666D01*
X155728571Y-80965761D01*
X155766666Y-81003857D01*
X155804761Y-81080047D01*
X155804761Y-81270523D01*
X155766666Y-81346714D01*
X155728571Y-81384809D01*
X155652380Y-81422904D01*
X155423809Y-81422904D01*
X155347619Y-81384809D01*
X155309523Y-81346714D01*
X156033333Y-80622904D02*
X156300000Y-81422904D01*
X156566666Y-80622904D01*
X156757142Y-80622904D02*
X157252380Y-80622904D01*
X156985714Y-80927666D01*
X157100000Y-80927666D01*
X157176190Y-80965761D01*
X157214285Y-81003857D01*
X157252380Y-81080047D01*
X157252380Y-81270523D01*
X157214285Y-81346714D01*
X157176190Y-81384809D01*
X157100000Y-81422904D01*
X156871428Y-81422904D01*
X156795238Y-81384809D01*
X156757142Y-81346714D01*
X132861904Y-97047619D02*
X132061904Y-97047619D01*
X132061904Y-96742857D01*
X132100000Y-96666666D01*
X132138095Y-96628571D01*
X132214285Y-96590476D01*
X132328571Y-96590476D01*
X132404761Y-96628571D01*
X132442857Y-96666666D01*
X132480952Y-96742857D01*
X132480952Y-97047619D01*
X132061904Y-96095238D02*
X132061904Y-95942857D01*
X132100000Y-95866666D01*
X132176190Y-95790476D01*
X132328571Y-95752380D01*
X132595238Y-95752380D01*
X132747619Y-95790476D01*
X132823809Y-95866666D01*
X132861904Y-95942857D01*
X132861904Y-96095238D01*
X132823809Y-96171428D01*
X132747619Y-96247619D01*
X132595238Y-96285714D01*
X132328571Y-96285714D01*
X132176190Y-96247619D01*
X132100000Y-96171428D01*
X132061904Y-96095238D01*
X132061904Y-95485714D02*
X132861904Y-95295238D01*
X132290476Y-95142857D01*
X132861904Y-94990476D01*
X132061904Y-94800000D01*
X132442857Y-94495238D02*
X132442857Y-94228571D01*
X132861904Y-94114285D02*
X132861904Y-94495238D01*
X132061904Y-94495238D01*
X132061904Y-94114285D01*
X132861904Y-93314285D02*
X132480952Y-93580952D01*
X132861904Y-93771428D02*
X132061904Y-93771428D01*
X132061904Y-93466666D01*
X132100000Y-93390476D01*
X132138095Y-93352380D01*
X132214285Y-93314285D01*
X132328571Y-93314285D01*
X132404761Y-93352380D01*
X132442857Y-93390476D01*
X132480952Y-93466666D01*
X132480952Y-93771428D01*
X140719047Y-98723809D02*
X140833333Y-98761904D01*
X141023809Y-98761904D01*
X141100000Y-98723809D01*
X141138095Y-98685714D01*
X141176190Y-98609523D01*
X141176190Y-98533333D01*
X141138095Y-98457142D01*
X141100000Y-98419047D01*
X141023809Y-98380952D01*
X140871428Y-98342857D01*
X140795238Y-98304761D01*
X140757142Y-98266666D01*
X140719047Y-98190476D01*
X140719047Y-98114285D01*
X140757142Y-98038095D01*
X140795238Y-98000000D01*
X140871428Y-97961904D01*
X141061904Y-97961904D01*
X141176190Y-98000000D01*
X141404761Y-97961904D02*
X141861904Y-97961904D01*
X141633333Y-98761904D02*
X141633333Y-97961904D01*
X142090476Y-98533333D02*
X142471428Y-98533333D01*
X142014285Y-98761904D02*
X142280952Y-97961904D01*
X142547619Y-98761904D01*
X142700000Y-97961904D02*
X143157142Y-97961904D01*
X142928571Y-98761904D02*
X142928571Y-97961904D01*
X143423809Y-97961904D02*
X143423809Y-98609523D01*
X143461904Y-98685714D01*
X143500000Y-98723809D01*
X143576190Y-98761904D01*
X143728571Y-98761904D01*
X143804761Y-98723809D01*
X143842857Y-98685714D01*
X143880952Y-98609523D01*
X143880952Y-97961904D01*
X144223809Y-98723809D02*
X144338095Y-98761904D01*
X144528571Y-98761904D01*
X144604761Y-98723809D01*
X144642857Y-98685714D01*
X144680952Y-98609523D01*
X144680952Y-98533333D01*
X144642857Y-98457142D01*
X144604761Y-98419047D01*
X144528571Y-98380952D01*
X144376190Y-98342857D01*
X144300000Y-98304761D01*
X144261904Y-98266666D01*
X144223809Y-98190476D01*
X144223809Y-98114285D01*
X144261904Y-98038095D01*
X144300000Y-98000000D01*
X144376190Y-97961904D01*
X144566666Y-97961904D01*
X144680952Y-98000000D01*
D10*
X120100000Y-87200000D02*
G75*
G03*
X120100000Y-87200000I-100000J0D01*
G01*
D11*
X153433333Y-94461904D02*
X153433333Y-93661904D01*
X153738095Y-93661904D01*
X153814285Y-93700000D01*
X153852380Y-93738095D01*
X153890476Y-93814285D01*
X153890476Y-93928571D01*
X153852380Y-94004761D01*
X153814285Y-94042857D01*
X153738095Y-94080952D01*
X153433333Y-94080952D01*
X154157142Y-93661904D02*
X154347619Y-94461904D01*
X154500000Y-93890476D01*
X154652380Y-94461904D01*
X154842857Y-93661904D01*
X155147619Y-94461904D02*
X155147619Y-93661904D01*
X155414285Y-94233333D01*
X155680952Y-93661904D01*
X155680952Y-94461904D01*
X156023809Y-94233333D02*
X156404761Y-94233333D01*
X155947619Y-94461904D02*
X156214285Y-93661904D01*
X156480952Y-94461904D01*
X151876190Y-89761904D02*
X151876190Y-88961904D01*
X152180952Y-88961904D01*
X152257142Y-89000000D01*
X152295238Y-89038095D01*
X152333333Y-89114285D01*
X152333333Y-89228571D01*
X152295238Y-89304761D01*
X152257142Y-89342857D01*
X152180952Y-89380952D01*
X151876190Y-89380952D01*
X152600000Y-88961904D02*
X152790476Y-89761904D01*
X152942857Y-89190476D01*
X153095238Y-89761904D01*
X153285714Y-88961904D01*
X153590476Y-89761904D02*
X153590476Y-88961904D01*
X153857142Y-89533333D01*
X154123809Y-88961904D01*
X154123809Y-89761904D01*
X154771428Y-89342857D02*
X154885714Y-89380952D01*
X154923809Y-89419047D01*
X154961904Y-89495238D01*
X154961904Y-89609523D01*
X154923809Y-89685714D01*
X154885714Y-89723809D01*
X154809523Y-89761904D01*
X154504761Y-89761904D01*
X154504761Y-88961904D01*
X154771428Y-88961904D01*
X154847619Y-89000000D01*
X154885714Y-89038095D01*
X154923809Y-89114285D01*
X154923809Y-89190476D01*
X154885714Y-89266666D01*
X154847619Y-89304761D01*
X154771428Y-89342857D01*
X154504761Y-89342857D01*
X163390476Y-103361904D02*
X163847619Y-103361904D01*
X163619047Y-104161904D02*
X163619047Y-103361904D01*
X164038095Y-103361904D02*
X164571428Y-104161904D01*
X164571428Y-103361904D02*
X164038095Y-104161904D01*
X160100000Y-100261904D02*
X160100000Y-99461904D01*
X160290476Y-99461904D01*
X160404761Y-99500000D01*
X160480952Y-99576190D01*
X160519047Y-99652380D01*
X160557142Y-99804761D01*
X160557142Y-99919047D01*
X160519047Y-100071428D01*
X160480952Y-100147619D01*
X160404761Y-100223809D01*
X160290476Y-100261904D01*
X160100000Y-100261904D01*
X160900000Y-100261904D02*
X160900000Y-99461904D01*
X161738095Y-100261904D02*
X161471428Y-99880952D01*
X161280952Y-100261904D02*
X161280952Y-99461904D01*
X161585714Y-99461904D01*
X161661904Y-99500000D01*
X161700000Y-99538095D01*
X161738095Y-99614285D01*
X161738095Y-99728571D01*
X161700000Y-99804761D01*
X161661904Y-99842857D01*
X161585714Y-99880952D01*
X161280952Y-99880952D01*
X144366666Y-101722904D02*
X144100000Y-101341952D01*
X143909523Y-101722904D02*
X143909523Y-100922904D01*
X144214285Y-100922904D01*
X144290476Y-100961000D01*
X144328571Y-100999095D01*
X144366666Y-101075285D01*
X144366666Y-101189571D01*
X144328571Y-101265761D01*
X144290476Y-101303857D01*
X144214285Y-101341952D01*
X143909523Y-101341952D01*
X144633333Y-100922904D02*
X145166666Y-101722904D01*
X145166666Y-100922904D02*
X144633333Y-101722904D01*
X138138095Y-90561904D02*
X137871428Y-90180952D01*
X137680952Y-90561904D02*
X137680952Y-89761904D01*
X137985714Y-89761904D01*
X138061904Y-89800000D01*
X138100000Y-89838095D01*
X138138095Y-89914285D01*
X138138095Y-90028571D01*
X138100000Y-90104761D01*
X138061904Y-90142857D01*
X137985714Y-90180952D01*
X137680952Y-90180952D01*
X138480952Y-90142857D02*
X138747619Y-90142857D01*
X138861904Y-90561904D02*
X138480952Y-90561904D01*
X138480952Y-89761904D01*
X138861904Y-89761904D01*
X139166666Y-90523809D02*
X139280952Y-90561904D01*
X139471428Y-90561904D01*
X139547619Y-90523809D01*
X139585714Y-90485714D01*
X139623809Y-90409523D01*
X139623809Y-90333333D01*
X139585714Y-90257142D01*
X139547619Y-90219047D01*
X139471428Y-90180952D01*
X139319047Y-90142857D01*
X139242857Y-90104761D01*
X139204761Y-90066666D01*
X139166666Y-89990476D01*
X139166666Y-89914285D01*
X139204761Y-89838095D01*
X139242857Y-89800000D01*
X139319047Y-89761904D01*
X139509523Y-89761904D01*
X139623809Y-89800000D01*
X139966666Y-90142857D02*
X140233333Y-90142857D01*
X140347619Y-90561904D02*
X139966666Y-90561904D01*
X139966666Y-89761904D01*
X140347619Y-89761904D01*
X140576190Y-89761904D02*
X141033333Y-89761904D01*
X140804761Y-90561904D02*
X140804761Y-89761904D01*
X154880952Y-124591904D02*
X154880952Y-123791904D01*
X155261904Y-124591904D02*
X155261904Y-123791904D01*
X155719047Y-124591904D01*
X155719047Y-123791904D01*
X167021904Y-107620000D02*
X167021904Y-107467619D01*
X167060000Y-107391428D01*
X167136190Y-107315238D01*
X167288571Y-107277142D01*
X167555238Y-107277142D01*
X167707619Y-107315238D01*
X167783809Y-107391428D01*
X167821904Y-107467619D01*
X167821904Y-107620000D01*
X167783809Y-107696190D01*
X167707619Y-107772380D01*
X167555238Y-107810476D01*
X167288571Y-107810476D01*
X167136190Y-107772380D01*
X167060000Y-107696190D01*
X167021904Y-107620000D01*
X167021904Y-106934285D02*
X167669523Y-106934285D01*
X167745714Y-106896190D01*
X167783809Y-106858095D01*
X167821904Y-106781904D01*
X167821904Y-106629523D01*
X167783809Y-106553333D01*
X167745714Y-106515238D01*
X167669523Y-106477142D01*
X167021904Y-106477142D01*
X167021904Y-106210476D02*
X167021904Y-105753333D01*
X167821904Y-105981904D02*
X167021904Y-105981904D01*
X130509523Y-117733333D02*
X130890476Y-117733333D01*
X130433333Y-117961904D02*
X130700000Y-117161904D01*
X130966666Y-117961904D01*
X130757142Y-114042857D02*
X130871428Y-114080952D01*
X130909523Y-114119047D01*
X130947619Y-114195238D01*
X130947619Y-114309523D01*
X130909523Y-114385714D01*
X130871428Y-114423809D01*
X130795238Y-114461904D01*
X130490476Y-114461904D01*
X130490476Y-113661904D01*
X130757142Y-113661904D01*
X130833333Y-113700000D01*
X130871428Y-113738095D01*
X130909523Y-113814285D01*
X130909523Y-113890476D01*
X130871428Y-113966666D01*
X130833333Y-114004761D01*
X130757142Y-114042857D01*
X130490476Y-114042857D01*
X130947619Y-112185714D02*
X130909523Y-112223809D01*
X130795238Y-112261904D01*
X130719047Y-112261904D01*
X130604761Y-112223809D01*
X130528571Y-112147619D01*
X130490476Y-112071428D01*
X130452380Y-111919047D01*
X130452380Y-111804761D01*
X130490476Y-111652380D01*
X130528571Y-111576190D01*
X130604761Y-111500000D01*
X130719047Y-111461904D01*
X130795238Y-111461904D01*
X130909523Y-111500000D01*
X130947619Y-111538095D01*
X166461904Y-109900000D02*
X165661904Y-109900000D01*
X165661904Y-109709523D01*
X165700000Y-109595238D01*
X165776190Y-109519047D01*
X165852380Y-109480952D01*
X166004761Y-109442857D01*
X166119047Y-109442857D01*
X166271428Y-109480952D01*
X166347619Y-109519047D01*
X166423809Y-109595238D01*
X166461904Y-109709523D01*
X166461904Y-109900000D01*
X166461904Y-109100000D02*
X165661904Y-109100000D01*
X166423809Y-108757142D02*
X166461904Y-108642857D01*
X166461904Y-108452380D01*
X166423809Y-108376190D01*
X166385714Y-108338095D01*
X166309523Y-108300000D01*
X166233333Y-108300000D01*
X166157142Y-108338095D01*
X166119047Y-108376190D01*
X166080952Y-108452380D01*
X166042857Y-108604761D01*
X166004761Y-108680952D01*
X165966666Y-108719047D01*
X165890476Y-108757142D01*
X165814285Y-108757142D01*
X165738095Y-108719047D01*
X165700000Y-108680952D01*
X165661904Y-108604761D01*
X165661904Y-108414285D01*
X165700000Y-108300000D01*
X166385714Y-107500000D02*
X166423809Y-107538095D01*
X166461904Y-107652380D01*
X166461904Y-107728571D01*
X166423809Y-107842857D01*
X166347619Y-107919047D01*
X166271428Y-107957142D01*
X166119047Y-107995238D01*
X166004761Y-107995238D01*
X165852380Y-107957142D01*
X165776190Y-107919047D01*
X165700000Y-107842857D01*
X165661904Y-107728571D01*
X165661904Y-107652380D01*
X165700000Y-107538095D01*
X165738095Y-107500000D01*
X165661904Y-107004761D02*
X165661904Y-106852380D01*
X165700000Y-106776190D01*
X165776190Y-106700000D01*
X165928571Y-106661904D01*
X166195238Y-106661904D01*
X166347619Y-106700000D01*
X166423809Y-106776190D01*
X166461904Y-106852380D01*
X166461904Y-107004761D01*
X166423809Y-107080952D01*
X166347619Y-107157142D01*
X166195238Y-107195238D01*
X165928571Y-107195238D01*
X165776190Y-107157142D01*
X165700000Y-107080952D01*
X165661904Y-107004761D01*
X166461904Y-112404761D02*
X165661904Y-112404761D01*
X165661904Y-112214285D01*
X165700000Y-112100000D01*
X165776190Y-112023809D01*
X165852380Y-111985714D01*
X166004761Y-111947619D01*
X166119047Y-111947619D01*
X166271428Y-111985714D01*
X166347619Y-112023809D01*
X166423809Y-112100000D01*
X166461904Y-112214285D01*
X166461904Y-112404761D01*
X166157142Y-111604761D02*
X166157142Y-110995238D01*
X166461904Y-115504761D02*
X165661904Y-115504761D01*
X165661904Y-115314285D01*
X165700000Y-115200000D01*
X165776190Y-115123809D01*
X165852380Y-115085714D01*
X166004761Y-115047619D01*
X166119047Y-115047619D01*
X166271428Y-115085714D01*
X166347619Y-115123809D01*
X166423809Y-115200000D01*
X166461904Y-115314285D01*
X166461904Y-115504761D01*
X166157142Y-114704761D02*
X166157142Y-114095238D01*
X166461904Y-114400000D02*
X165852380Y-114400000D01*
X165000000Y-118409523D02*
X164961904Y-118485714D01*
X164961904Y-118600000D01*
X165000000Y-118714285D01*
X165076190Y-118790476D01*
X165152380Y-118828571D01*
X165304761Y-118866666D01*
X165419047Y-118866666D01*
X165571428Y-118828571D01*
X165647619Y-118790476D01*
X165723809Y-118714285D01*
X165761904Y-118600000D01*
X165761904Y-118523809D01*
X165723809Y-118409523D01*
X165685714Y-118371428D01*
X165419047Y-118371428D01*
X165419047Y-118523809D01*
X165761904Y-118028571D02*
X164961904Y-118028571D01*
X165761904Y-117571428D01*
X164961904Y-117571428D01*
X165761904Y-117190476D02*
X164961904Y-117190476D01*
X164961904Y-117000000D01*
X165000000Y-116885714D01*
X165076190Y-116809523D01*
X165152380Y-116771428D01*
X165304761Y-116733333D01*
X165419047Y-116733333D01*
X165571428Y-116771428D01*
X165647619Y-116809523D01*
X165723809Y-116885714D01*
X165761904Y-117000000D01*
X165761904Y-117190476D01*
X165928571Y-121271428D02*
X166461904Y-121271428D01*
X165623809Y-121461904D02*
X166195238Y-121652380D01*
X166195238Y-121157142D01*
X166004761Y-120738095D02*
X165966666Y-120814285D01*
X165928571Y-120852380D01*
X165852380Y-120890476D01*
X165814285Y-120890476D01*
X165738095Y-120852380D01*
X165700000Y-120814285D01*
X165661904Y-120738095D01*
X165661904Y-120585714D01*
X165700000Y-120509523D01*
X165738095Y-120471428D01*
X165814285Y-120433333D01*
X165852380Y-120433333D01*
X165928571Y-120471428D01*
X165966666Y-120509523D01*
X166004761Y-120585714D01*
X166004761Y-120738095D01*
X166042857Y-120814285D01*
X166080952Y-120852380D01*
X166157142Y-120890476D01*
X166309523Y-120890476D01*
X166385714Y-120852380D01*
X166423809Y-120814285D01*
X166461904Y-120738095D01*
X166461904Y-120585714D01*
X166423809Y-120509523D01*
X166385714Y-120471428D01*
X166309523Y-120433333D01*
X166157142Y-120433333D01*
X166080952Y-120471428D01*
X166042857Y-120509523D01*
X166004761Y-120585714D01*
X165661904Y-120204761D02*
X166461904Y-119938095D01*
X165661904Y-119671428D01*
X152100000Y-121861904D02*
X152100000Y-121061904D01*
X152290476Y-121061904D01*
X152404761Y-121100000D01*
X152480952Y-121176190D01*
X152519047Y-121252380D01*
X152557142Y-121404761D01*
X152557142Y-121519047D01*
X152519047Y-121671428D01*
X152480952Y-121747619D01*
X152404761Y-121823809D01*
X152290476Y-121861904D01*
X152100000Y-121861904D01*
X152900000Y-121861904D02*
X152900000Y-121061904D01*
X153242857Y-121823809D02*
X153357142Y-121861904D01*
X153547619Y-121861904D01*
X153623809Y-121823809D01*
X153661904Y-121785714D01*
X153700000Y-121709523D01*
X153700000Y-121633333D01*
X153661904Y-121557142D01*
X153623809Y-121519047D01*
X153547619Y-121480952D01*
X153395238Y-121442857D01*
X153319047Y-121404761D01*
X153280952Y-121366666D01*
X153242857Y-121290476D01*
X153242857Y-121214285D01*
X153280952Y-121138095D01*
X153319047Y-121100000D01*
X153395238Y-121061904D01*
X153585714Y-121061904D01*
X153700000Y-121100000D01*
X154500000Y-121785714D02*
X154461904Y-121823809D01*
X154347619Y-121861904D01*
X154271428Y-121861904D01*
X154157142Y-121823809D01*
X154080952Y-121747619D01*
X154042857Y-121671428D01*
X154004761Y-121519047D01*
X154004761Y-121404761D01*
X154042857Y-121252380D01*
X154080952Y-121176190D01*
X154157142Y-121100000D01*
X154271428Y-121061904D01*
X154347619Y-121061904D01*
X154461904Y-121100000D01*
X154500000Y-121138095D01*
X154995238Y-121061904D02*
X155147619Y-121061904D01*
X155223809Y-121100000D01*
X155300000Y-121176190D01*
X155338095Y-121328571D01*
X155338095Y-121595238D01*
X155300000Y-121747619D01*
X155223809Y-121823809D01*
X155147619Y-121861904D01*
X154995238Y-121861904D01*
X154919047Y-121823809D01*
X154842857Y-121747619D01*
X154804761Y-121595238D01*
X154804761Y-121328571D01*
X154842857Y-121176190D01*
X154919047Y-121100000D01*
X154995238Y-121061904D01*
X149595238Y-121861904D02*
X149595238Y-121061904D01*
X149785714Y-121061904D01*
X149900000Y-121100000D01*
X149976190Y-121176190D01*
X150014285Y-121252380D01*
X150052380Y-121404761D01*
X150052380Y-121519047D01*
X150014285Y-121671428D01*
X149976190Y-121747619D01*
X149900000Y-121823809D01*
X149785714Y-121861904D01*
X149595238Y-121861904D01*
X150395238Y-121557142D02*
X151004761Y-121557142D01*
X146595238Y-121861904D02*
X146595238Y-121061904D01*
X146785714Y-121061904D01*
X146900000Y-121100000D01*
X146976190Y-121176190D01*
X147014285Y-121252380D01*
X147052380Y-121404761D01*
X147052380Y-121519047D01*
X147014285Y-121671428D01*
X146976190Y-121747619D01*
X146900000Y-121823809D01*
X146785714Y-121861904D01*
X146595238Y-121861904D01*
X147395238Y-121557142D02*
X148004761Y-121557142D01*
X147700000Y-121861904D02*
X147700000Y-121252380D01*
X143490476Y-120400000D02*
X143414285Y-120361904D01*
X143300000Y-120361904D01*
X143185714Y-120400000D01*
X143109523Y-120476190D01*
X143071428Y-120552380D01*
X143033333Y-120704761D01*
X143033333Y-120819047D01*
X143071428Y-120971428D01*
X143109523Y-121047619D01*
X143185714Y-121123809D01*
X143300000Y-121161904D01*
X143376190Y-121161904D01*
X143490476Y-121123809D01*
X143528571Y-121085714D01*
X143528571Y-120819047D01*
X143376190Y-120819047D01*
X143871428Y-121161904D02*
X143871428Y-120361904D01*
X144328571Y-121161904D01*
X144328571Y-120361904D01*
X144709523Y-121161904D02*
X144709523Y-120361904D01*
X144900000Y-120361904D01*
X145014285Y-120400000D01*
X145090476Y-120476190D01*
X145128571Y-120552380D01*
X145166666Y-120704761D01*
X145166666Y-120819047D01*
X145128571Y-120971428D01*
X145090476Y-121047619D01*
X145014285Y-121123809D01*
X144900000Y-121161904D01*
X144709523Y-121161904D01*
X140728571Y-121328571D02*
X140728571Y-121861904D01*
X140538095Y-121023809D02*
X140347619Y-121595238D01*
X140842857Y-121595238D01*
X141261904Y-121404761D02*
X141185714Y-121366666D01*
X141147619Y-121328571D01*
X141109523Y-121252380D01*
X141109523Y-121214285D01*
X141147619Y-121138095D01*
X141185714Y-121100000D01*
X141261904Y-121061904D01*
X141414285Y-121061904D01*
X141490476Y-121100000D01*
X141528571Y-121138095D01*
X141566666Y-121214285D01*
X141566666Y-121252380D01*
X141528571Y-121328571D01*
X141490476Y-121366666D01*
X141414285Y-121404761D01*
X141261904Y-121404761D01*
X141185714Y-121442857D01*
X141147619Y-121480952D01*
X141109523Y-121557142D01*
X141109523Y-121709523D01*
X141147619Y-121785714D01*
X141185714Y-121823809D01*
X141261904Y-121861904D01*
X141414285Y-121861904D01*
X141490476Y-121823809D01*
X141528571Y-121785714D01*
X141566666Y-121709523D01*
X141566666Y-121557142D01*
X141528571Y-121480952D01*
X141490476Y-121442857D01*
X141414285Y-121404761D01*
X141795238Y-121061904D02*
X142061904Y-121861904D01*
X142328571Y-121061904D01*
D10*
X130650000Y-85079690D02*
X130835714Y-85141595D01*
X131145238Y-85141595D01*
X131269047Y-85079690D01*
X131330952Y-85017785D01*
X131392857Y-84893976D01*
X131392857Y-84770166D01*
X131330952Y-84646357D01*
X131269047Y-84584452D01*
X131145238Y-84522547D01*
X130897619Y-84460642D01*
X130773809Y-84398738D01*
X130711904Y-84336833D01*
X130650000Y-84213023D01*
X130650000Y-84089214D01*
X130711904Y-83965404D01*
X130773809Y-83903500D01*
X130897619Y-83841595D01*
X131207142Y-83841595D01*
X131392857Y-83903500D01*
X131950000Y-83841595D02*
X131950000Y-84893976D01*
X132011904Y-85017785D01*
X132073809Y-85079690D01*
X132197619Y-85141595D01*
X132445238Y-85141595D01*
X132569047Y-85079690D01*
X132630952Y-85017785D01*
X132692857Y-84893976D01*
X132692857Y-83841595D01*
X133311904Y-85141595D02*
X133311904Y-83841595D01*
X133807142Y-83841595D01*
X133930952Y-83903500D01*
X133992857Y-83965404D01*
X134054761Y-84089214D01*
X134054761Y-84274928D01*
X133992857Y-84398738D01*
X133930952Y-84460642D01*
X133807142Y-84522547D01*
X133311904Y-84522547D01*
X134611904Y-84460642D02*
X135045238Y-84460642D01*
X135230952Y-85141595D02*
X134611904Y-85141595D01*
X134611904Y-83841595D01*
X135230952Y-83841595D01*
X136530952Y-85141595D02*
X136097619Y-84522547D01*
X135788095Y-85141595D02*
X135788095Y-83841595D01*
X136283333Y-83841595D01*
X136407142Y-83903500D01*
X136469047Y-83965404D01*
X136530952Y-84089214D01*
X136530952Y-84274928D01*
X136469047Y-84398738D01*
X136407142Y-84460642D01*
X136283333Y-84522547D01*
X135788095Y-84522547D01*
X138016666Y-84770166D02*
X138635714Y-84770166D01*
X137892857Y-85141595D02*
X138326190Y-83841595D01*
X138759523Y-85141595D01*
X139069047Y-83841595D02*
X139378571Y-85141595D01*
X139626190Y-84213023D01*
X139873809Y-85141595D01*
X140183333Y-83841595D01*
X140678571Y-84460642D02*
X141111904Y-84460642D01*
X141297619Y-85141595D02*
X140678571Y-85141595D01*
X140678571Y-83841595D01*
X141297619Y-83841595D01*
X141792857Y-85079690D02*
X141978571Y-85141595D01*
X142288095Y-85141595D01*
X142411904Y-85079690D01*
X142473809Y-85017785D01*
X142535714Y-84893976D01*
X142535714Y-84770166D01*
X142473809Y-84646357D01*
X142411904Y-84584452D01*
X142288095Y-84522547D01*
X142040476Y-84460642D01*
X141916666Y-84398738D01*
X141854761Y-84336833D01*
X141792857Y-84213023D01*
X141792857Y-84089214D01*
X141854761Y-83965404D01*
X141916666Y-83903500D01*
X142040476Y-83841595D01*
X142350000Y-83841595D01*
X142535714Y-83903500D01*
X143340476Y-83841595D02*
X143588095Y-83841595D01*
X143711904Y-83903500D01*
X143835714Y-84027309D01*
X143897619Y-84274928D01*
X143897619Y-84708261D01*
X143835714Y-84955880D01*
X143711904Y-85079690D01*
X143588095Y-85141595D01*
X143340476Y-85141595D01*
X143216666Y-85079690D01*
X143092857Y-84955880D01*
X143030952Y-84708261D01*
X143030952Y-84274928D01*
X143092857Y-84027309D01*
X143216666Y-83903500D01*
X143340476Y-83841595D01*
X144454761Y-85141595D02*
X144454761Y-83841595D01*
X144888095Y-84770166D01*
X145321428Y-83841595D01*
X145321428Y-85141595D01*
X145940476Y-84460642D02*
X146373809Y-84460642D01*
X146559523Y-85141595D02*
X145940476Y-85141595D01*
X145940476Y-83841595D01*
X146559523Y-83841595D01*
X148540476Y-84460642D02*
X148726190Y-84522547D01*
X148788095Y-84584452D01*
X148850000Y-84708261D01*
X148850000Y-84893976D01*
X148788095Y-85017785D01*
X148726190Y-85079690D01*
X148602380Y-85141595D01*
X148107142Y-85141595D01*
X148107142Y-83841595D01*
X148540476Y-83841595D01*
X148664285Y-83903500D01*
X148726190Y-83965404D01*
X148788095Y-84089214D01*
X148788095Y-84213023D01*
X148726190Y-84336833D01*
X148664285Y-84398738D01*
X148540476Y-84460642D01*
X148107142Y-84460642D01*
X150026190Y-85141595D02*
X149407142Y-85141595D01*
X149407142Y-83841595D01*
X150459523Y-85141595D02*
X150459523Y-83841595D01*
X150769047Y-83841595D01*
X150954761Y-83903500D01*
X151078571Y-84027309D01*
X151140476Y-84151119D01*
X151202380Y-84398738D01*
X151202380Y-84584452D01*
X151140476Y-84832071D01*
X151078571Y-84955880D01*
X150954761Y-85079690D01*
X150769047Y-85141595D01*
X150459523Y-85141595D01*
X152502380Y-85017785D02*
X152440476Y-85079690D01*
X152254761Y-85141595D01*
X152130952Y-85141595D01*
X151945238Y-85079690D01*
X151821428Y-84955880D01*
X151759523Y-84832071D01*
X151697619Y-84584452D01*
X151697619Y-84398738D01*
X151759523Y-84151119D01*
X151821428Y-84027309D01*
X151945238Y-83903500D01*
X152130952Y-83841595D01*
X152254761Y-83841595D01*
X152440476Y-83903500D01*
X152502380Y-83965404D01*
X154792857Y-85017785D02*
X154730952Y-85079690D01*
X154545238Y-85141595D01*
X154421428Y-85141595D01*
X154235714Y-85079690D01*
X154111904Y-84955880D01*
X154050000Y-84832071D01*
X153988095Y-84584452D01*
X153988095Y-84398738D01*
X154050000Y-84151119D01*
X154111904Y-84027309D01*
X154235714Y-83903500D01*
X154421428Y-83841595D01*
X154545238Y-83841595D01*
X154730952Y-83903500D01*
X154792857Y-83965404D01*
X155597619Y-83841595D02*
X155845238Y-83841595D01*
X155969047Y-83903500D01*
X156092857Y-84027309D01*
X156154761Y-84274928D01*
X156154761Y-84708261D01*
X156092857Y-84955880D01*
X155969047Y-85079690D01*
X155845238Y-85141595D01*
X155597619Y-85141595D01*
X155473809Y-85079690D01*
X155350000Y-84955880D01*
X155288095Y-84708261D01*
X155288095Y-84274928D01*
X155350000Y-84027309D01*
X155473809Y-83903500D01*
X155597619Y-83841595D01*
X156711904Y-85141595D02*
X156711904Y-83841595D01*
X157454761Y-85141595D01*
X157454761Y-83841595D01*
X157888095Y-83841595D02*
X158630952Y-83841595D01*
X158259523Y-85141595D02*
X158259523Y-83841595D01*
X159807142Y-85141595D02*
X159373809Y-84522547D01*
X159064285Y-85141595D02*
X159064285Y-83841595D01*
X159559523Y-83841595D01*
X159683333Y-83903500D01*
X159745238Y-83965404D01*
X159807142Y-84089214D01*
X159807142Y-84274928D01*
X159745238Y-84398738D01*
X159683333Y-84460642D01*
X159559523Y-84522547D01*
X159064285Y-84522547D01*
X160611904Y-83841595D02*
X160859523Y-83841595D01*
X160983333Y-83903500D01*
X161107142Y-84027309D01*
X161169047Y-84274928D01*
X161169047Y-84708261D01*
X161107142Y-84955880D01*
X160983333Y-85079690D01*
X160859523Y-85141595D01*
X160611904Y-85141595D01*
X160488095Y-85079690D01*
X160364285Y-84955880D01*
X160302380Y-84708261D01*
X160302380Y-84274928D01*
X160364285Y-84027309D01*
X160488095Y-83903500D01*
X160611904Y-83841595D01*
X162345238Y-85141595D02*
X161726190Y-85141595D01*
X161726190Y-83841595D01*
X163397619Y-85141595D02*
X162778571Y-85141595D01*
X162778571Y-83841595D01*
X163830952Y-84460642D02*
X164264285Y-84460642D01*
X164450000Y-85141595D02*
X163830952Y-85141595D01*
X163830952Y-83841595D01*
X164450000Y-83841595D01*
X165750000Y-85141595D02*
X165316666Y-84522547D01*
X165007142Y-85141595D02*
X165007142Y-83841595D01*
X165502380Y-83841595D01*
X165626190Y-83903500D01*
X165688095Y-83965404D01*
X165750000Y-84089214D01*
X165750000Y-84274928D01*
X165688095Y-84398738D01*
X165626190Y-84460642D01*
X165502380Y-84522547D01*
X165007142Y-84522547D01*
X139038095Y-87234595D02*
X138604761Y-86615547D01*
X138295238Y-87234595D02*
X138295238Y-85934595D01*
X138790476Y-85934595D01*
X138914285Y-85996500D01*
X138976190Y-86058404D01*
X139038095Y-86182214D01*
X139038095Y-86367928D01*
X138976190Y-86491738D01*
X138914285Y-86553642D01*
X138790476Y-86615547D01*
X138295238Y-86615547D01*
X139595238Y-86553642D02*
X140028571Y-86553642D01*
X140214285Y-87234595D02*
X139595238Y-87234595D01*
X139595238Y-85934595D01*
X140214285Y-85934595D01*
X140585714Y-85934595D02*
X141019047Y-87234595D01*
X141452380Y-85934595D01*
X142814285Y-86058404D02*
X142876190Y-85996500D01*
X143000000Y-85934595D01*
X143309523Y-85934595D01*
X143433333Y-85996500D01*
X143495238Y-86058404D01*
X143557142Y-86182214D01*
X143557142Y-86306023D01*
X143495238Y-86491738D01*
X142752380Y-87234595D01*
X143557142Y-87234595D01*
X144114285Y-87110785D02*
X144176190Y-87172690D01*
X144114285Y-87234595D01*
X144052380Y-87172690D01*
X144114285Y-87110785D01*
X144114285Y-87234595D01*
X144609523Y-85934595D02*
X145414285Y-85934595D01*
X144980952Y-86429833D01*
X145166666Y-86429833D01*
X145290476Y-86491738D01*
X145352380Y-86553642D01*
X145414285Y-86677452D01*
X145414285Y-86986976D01*
X145352380Y-87110785D01*
X145290476Y-87172690D01*
X145166666Y-87234595D01*
X144795238Y-87234595D01*
X144671428Y-87172690D01*
X144609523Y-87110785D01*
X150614285Y-87234595D02*
X149871428Y-87234595D01*
X150242857Y-87234595D02*
X150242857Y-85934595D01*
X150119047Y-86120309D01*
X149995238Y-86244119D01*
X149871428Y-86306023D01*
X151109523Y-86058404D02*
X151171428Y-85996500D01*
X151295238Y-85934595D01*
X151604761Y-85934595D01*
X151728571Y-85996500D01*
X151790476Y-86058404D01*
X151852380Y-86182214D01*
X151852380Y-86306023D01*
X151790476Y-86491738D01*
X151047619Y-87234595D01*
X151852380Y-87234595D01*
X153338095Y-85872690D02*
X152223809Y-87544119D01*
X153709523Y-86058404D02*
X153771428Y-85996500D01*
X153895238Y-85934595D01*
X154204761Y-85934595D01*
X154328571Y-85996500D01*
X154390476Y-86058404D01*
X154452380Y-86182214D01*
X154452380Y-86306023D01*
X154390476Y-86491738D01*
X153647619Y-87234595D01*
X154452380Y-87234595D01*
X155257142Y-85934595D02*
X155380952Y-85934595D01*
X155504761Y-85996500D01*
X155566666Y-86058404D01*
X155628571Y-86182214D01*
X155690476Y-86429833D01*
X155690476Y-86739357D01*
X155628571Y-86986976D01*
X155566666Y-87110785D01*
X155504761Y-87172690D01*
X155380952Y-87234595D01*
X155257142Y-87234595D01*
X155133333Y-87172690D01*
X155071428Y-87110785D01*
X155009523Y-86986976D01*
X154947619Y-86739357D01*
X154947619Y-86429833D01*
X155009523Y-86182214D01*
X155071428Y-86058404D01*
X155133333Y-85996500D01*
X155257142Y-85934595D01*
X156185714Y-86058404D02*
X156247619Y-85996500D01*
X156371428Y-85934595D01*
X156680952Y-85934595D01*
X156804761Y-85996500D01*
X156866666Y-86058404D01*
X156928571Y-86182214D01*
X156928571Y-86306023D01*
X156866666Y-86491738D01*
X156123809Y-87234595D01*
X156928571Y-87234595D01*
X157733333Y-85934595D02*
X157857142Y-85934595D01*
X157980952Y-85996500D01*
X158042857Y-86058404D01*
X158104761Y-86182214D01*
X158166666Y-86429833D01*
X158166666Y-86739357D01*
X158104761Y-86986976D01*
X158042857Y-87110785D01*
X157980952Y-87172690D01*
X157857142Y-87234595D01*
X157733333Y-87234595D01*
X157609523Y-87172690D01*
X157547619Y-87110785D01*
X157485714Y-86986976D01*
X157423809Y-86739357D01*
X157423809Y-86429833D01*
X157485714Y-86182214D01*
X157547619Y-86058404D01*
X157609523Y-85996500D01*
X157733333Y-85934595D01*
D12*
X125500000Y-79000000D02*
G75*
G03*
X125500000Y-79000000I-3000000J0D01*
G01*
X177500000Y-131000000D02*
G75*
G03*
X177500000Y-131000000I-3000000J0D01*
G01*
X177500000Y-79000000D02*
G75*
G03*
X177500000Y-79000000I-3000000J0D01*
G01*
X125500000Y-79000000D02*
G75*
G03*
X125500000Y-79000000I-3000000J0D01*
G01*
X125500000Y-131000000D02*
G75*
G03*
X125500000Y-131000000I-3000000J0D01*
G01*
D11*
X160472380Y-93996666D02*
X159996190Y-94330000D01*
X160472380Y-94568095D02*
X159472380Y-94568095D01*
X159472380Y-94187142D01*
X159520000Y-94091904D01*
X159567619Y-94044285D01*
X159662857Y-93996666D01*
X159805714Y-93996666D01*
X159900952Y-94044285D01*
X159948571Y-94091904D01*
X159996190Y-94187142D01*
X159996190Y-94568095D01*
X159472380Y-93663333D02*
X159472380Y-93044285D01*
X159853333Y-93377619D01*
X159853333Y-93234761D01*
X159900952Y-93139523D01*
X159948571Y-93091904D01*
X160043809Y-93044285D01*
X160281904Y-93044285D01*
X160377142Y-93091904D01*
X160424761Y-93139523D01*
X160472380Y-93234761D01*
X160472380Y-93520476D01*
X160424761Y-93615714D01*
X160377142Y-93663333D01*
X161742380Y-93926666D02*
X161266190Y-94260000D01*
X161742380Y-94498095D02*
X160742380Y-94498095D01*
X160742380Y-94117142D01*
X160790000Y-94021904D01*
X160837619Y-93974285D01*
X160932857Y-93926666D01*
X161075714Y-93926666D01*
X161170952Y-93974285D01*
X161218571Y-94021904D01*
X161266190Y-94117142D01*
X161266190Y-94498095D01*
X161742380Y-92974285D02*
X161742380Y-93545714D01*
X161742380Y-93260000D02*
X160742380Y-93260000D01*
X160885238Y-93355238D01*
X160980476Y-93450476D01*
X161028095Y-93545714D01*
X144409523Y-96361904D02*
X144409523Y-95561904D01*
X144600000Y-95561904D01*
X144714285Y-95600000D01*
X144790476Y-95676190D01*
X144828571Y-95752380D01*
X144866666Y-95904761D01*
X144866666Y-96019047D01*
X144828571Y-96171428D01*
X144790476Y-96247619D01*
X144714285Y-96323809D01*
X144600000Y-96361904D01*
X144409523Y-96361904D01*
X145171428Y-95638095D02*
X145209523Y-95600000D01*
X145285714Y-95561904D01*
X145476190Y-95561904D01*
X145552380Y-95600000D01*
X145590476Y-95638095D01*
X145628571Y-95714285D01*
X145628571Y-95790476D01*
X145590476Y-95904761D01*
X145133333Y-96361904D01*
X145628571Y-96361904D01*
X129861904Y-93490476D02*
X129061904Y-93490476D01*
X129061904Y-93300000D01*
X129100000Y-93185714D01*
X129176190Y-93109523D01*
X129252380Y-93071428D01*
X129404761Y-93033333D01*
X129519047Y-93033333D01*
X129671428Y-93071428D01*
X129747619Y-93109523D01*
X129823809Y-93185714D01*
X129861904Y-93300000D01*
X129861904Y-93490476D01*
X129061904Y-92538095D02*
X129061904Y-92461904D01*
X129100000Y-92385714D01*
X129138095Y-92347619D01*
X129214285Y-92309523D01*
X129366666Y-92271428D01*
X129557142Y-92271428D01*
X129709523Y-92309523D01*
X129785714Y-92347619D01*
X129823809Y-92385714D01*
X129861904Y-92461904D01*
X129861904Y-92538095D01*
X129823809Y-92614285D01*
X129785714Y-92652380D01*
X129709523Y-92690476D01*
X129557142Y-92728571D01*
X129366666Y-92728571D01*
X129214285Y-92690476D01*
X129138095Y-92652380D01*
X129100000Y-92614285D01*
X129061904Y-92538095D01*
X169990476Y-91361904D02*
X169990476Y-92009523D01*
X170028571Y-92085714D01*
X170066666Y-92123809D01*
X170142857Y-92161904D01*
X170295238Y-92161904D01*
X170371428Y-92123809D01*
X170409523Y-92085714D01*
X170447619Y-92009523D01*
X170447619Y-91361904D01*
X171171428Y-91628571D02*
X171171428Y-92161904D01*
X170980952Y-91323809D02*
X170790476Y-91895238D01*
X171285714Y-91895238D01*
X170966666Y-82861904D02*
X170585714Y-82861904D01*
X170585714Y-82061904D01*
X171195238Y-82138095D02*
X171233333Y-82100000D01*
X171309523Y-82061904D01*
X171500000Y-82061904D01*
X171576190Y-82100000D01*
X171614285Y-82138095D01*
X171652380Y-82214285D01*
X171652380Y-82290476D01*
X171614285Y-82404761D01*
X171157142Y-82861904D01*
X171652380Y-82861904D01*
X139485714Y-117385714D02*
X139447619Y-117423809D01*
X139333333Y-117461904D01*
X139257142Y-117461904D01*
X139142857Y-117423809D01*
X139066666Y-117347619D01*
X139028571Y-117271428D01*
X138990476Y-117119047D01*
X138990476Y-117004761D01*
X139028571Y-116852380D01*
X139066666Y-116776190D01*
X139142857Y-116700000D01*
X139257142Y-116661904D01*
X139333333Y-116661904D01*
X139447619Y-116700000D01*
X139485714Y-116738095D01*
X139790476Y-116738095D02*
X139828571Y-116700000D01*
X139904761Y-116661904D01*
X140095238Y-116661904D01*
X140171428Y-116700000D01*
X140209523Y-116738095D01*
X140247619Y-116814285D01*
X140247619Y-116890476D01*
X140209523Y-117004761D01*
X139752380Y-117461904D01*
X140247619Y-117461904D01*
X140552380Y-116738095D02*
X140590476Y-116700000D01*
X140666666Y-116661904D01*
X140857142Y-116661904D01*
X140933333Y-116700000D01*
X140971428Y-116738095D01*
X141009523Y-116814285D01*
X141009523Y-116890476D01*
X140971428Y-117004761D01*
X140514285Y-117461904D01*
X141009523Y-117461904D01*
X151416666Y-117385714D02*
X151378571Y-117423809D01*
X151264285Y-117461904D01*
X151188095Y-117461904D01*
X151073809Y-117423809D01*
X150997619Y-117347619D01*
X150959523Y-117271428D01*
X150921428Y-117119047D01*
X150921428Y-117004761D01*
X150959523Y-116852380D01*
X150997619Y-116776190D01*
X151073809Y-116700000D01*
X151188095Y-116661904D01*
X151264285Y-116661904D01*
X151378571Y-116700000D01*
X151416666Y-116738095D01*
X151797619Y-117461904D02*
X151950000Y-117461904D01*
X152026190Y-117423809D01*
X152064285Y-117385714D01*
X152140476Y-117271428D01*
X152178571Y-117119047D01*
X152178571Y-116814285D01*
X152140476Y-116738095D01*
X152102380Y-116700000D01*
X152026190Y-116661904D01*
X151873809Y-116661904D01*
X151797619Y-116700000D01*
X151759523Y-116738095D01*
X151721428Y-116814285D01*
X151721428Y-117004761D01*
X151759523Y-117080952D01*
X151797619Y-117119047D01*
X151873809Y-117157142D01*
X152026190Y-117157142D01*
X152102380Y-117119047D01*
X152140476Y-117080952D01*
X152178571Y-117004761D01*
X162366666Y-117385714D02*
X162328571Y-117423809D01*
X162214285Y-117461904D01*
X162138095Y-117461904D01*
X162023809Y-117423809D01*
X161947619Y-117347619D01*
X161909523Y-117271428D01*
X161871428Y-117119047D01*
X161871428Y-117004761D01*
X161909523Y-116852380D01*
X161947619Y-116776190D01*
X162023809Y-116700000D01*
X162138095Y-116661904D01*
X162214285Y-116661904D01*
X162328571Y-116700000D01*
X162366666Y-116738095D01*
X163090476Y-116661904D02*
X162709523Y-116661904D01*
X162671428Y-117042857D01*
X162709523Y-117004761D01*
X162785714Y-116966666D01*
X162976190Y-116966666D01*
X163052380Y-117004761D01*
X163090476Y-117042857D01*
X163128571Y-117119047D01*
X163128571Y-117309523D01*
X163090476Y-117385714D01*
X163052380Y-117423809D01*
X162976190Y-117461904D01*
X162785714Y-117461904D01*
X162709523Y-117423809D01*
X162671428Y-117385714D01*
X136385714Y-122735714D02*
X136347619Y-122773809D01*
X136233333Y-122811904D01*
X136157142Y-122811904D01*
X136042857Y-122773809D01*
X135966666Y-122697619D01*
X135928571Y-122621428D01*
X135890476Y-122469047D01*
X135890476Y-122354761D01*
X135928571Y-122202380D01*
X135966666Y-122126190D01*
X136042857Y-122050000D01*
X136157142Y-122011904D01*
X136233333Y-122011904D01*
X136347619Y-122050000D01*
X136385714Y-122088095D01*
X136690476Y-122088095D02*
X136728571Y-122050000D01*
X136804761Y-122011904D01*
X136995238Y-122011904D01*
X137071428Y-122050000D01*
X137109523Y-122088095D01*
X137147619Y-122164285D01*
X137147619Y-122240476D01*
X137109523Y-122354761D01*
X136652380Y-122811904D01*
X137147619Y-122811904D01*
X137871428Y-122011904D02*
X137490476Y-122011904D01*
X137452380Y-122392857D01*
X137490476Y-122354761D01*
X137566666Y-122316666D01*
X137757142Y-122316666D01*
X137833333Y-122354761D01*
X137871428Y-122392857D01*
X137909523Y-122469047D01*
X137909523Y-122659523D01*
X137871428Y-122735714D01*
X137833333Y-122773809D01*
X137757142Y-122811904D01*
X137566666Y-122811904D01*
X137490476Y-122773809D01*
X137452380Y-122735714D01*
X169335714Y-129783333D02*
X169373809Y-129821428D01*
X169411904Y-129935714D01*
X169411904Y-130011904D01*
X169373809Y-130126190D01*
X169297619Y-130202380D01*
X169221428Y-130240476D01*
X169069047Y-130278571D01*
X168954761Y-130278571D01*
X168802380Y-130240476D01*
X168726190Y-130202380D01*
X168650000Y-130126190D01*
X168611904Y-130011904D01*
X168611904Y-129935714D01*
X168650000Y-129821428D01*
X168688095Y-129783333D01*
X168611904Y-129516666D02*
X168611904Y-129021428D01*
X168916666Y-129288095D01*
X168916666Y-129173809D01*
X168954761Y-129097619D01*
X168992857Y-129059523D01*
X169069047Y-129021428D01*
X169259523Y-129021428D01*
X169335714Y-129059523D01*
X169373809Y-129097619D01*
X169411904Y-129173809D01*
X169411904Y-129402380D01*
X169373809Y-129478571D01*
X169335714Y-129516666D01*
X128288214Y-84861904D02*
X128021547Y-84480952D01*
X127831071Y-84861904D02*
X127831071Y-84061904D01*
X128135833Y-84061904D01*
X128212023Y-84100000D01*
X128250119Y-84138095D01*
X128288214Y-84214285D01*
X128288214Y-84328571D01*
X128250119Y-84404761D01*
X128212023Y-84442857D01*
X128135833Y-84480952D01*
X127831071Y-84480952D01*
X128592976Y-84138095D02*
X128631071Y-84100000D01*
X128707261Y-84061904D01*
X128897738Y-84061904D01*
X128973928Y-84100000D01*
X129012023Y-84138095D01*
X129050119Y-84214285D01*
X129050119Y-84290476D01*
X129012023Y-84404761D01*
X128554880Y-84861904D01*
X129050119Y-84861904D01*
X128326309Y-86061904D02*
X128059642Y-85680952D01*
X127869166Y-86061904D02*
X127869166Y-85261904D01*
X128173928Y-85261904D01*
X128250119Y-85300000D01*
X128288214Y-85338095D01*
X128326309Y-85414285D01*
X128326309Y-85528571D01*
X128288214Y-85604761D01*
X128250119Y-85642857D01*
X128173928Y-85680952D01*
X127869166Y-85680952D01*
X129088214Y-86061904D02*
X128631071Y-86061904D01*
X128859642Y-86061904D02*
X128859642Y-85261904D01*
X128783452Y-85376190D01*
X128707261Y-85452380D01*
X128631071Y-85490476D01*
X129583452Y-85261904D02*
X129659642Y-85261904D01*
X129735833Y-85300000D01*
X129773928Y-85338095D01*
X129812023Y-85414285D01*
X129850119Y-85566666D01*
X129850119Y-85757142D01*
X129812023Y-85909523D01*
X129773928Y-85985714D01*
X129735833Y-86023809D01*
X129659642Y-86061904D01*
X129583452Y-86061904D01*
X129507261Y-86023809D01*
X129469166Y-85985714D01*
X129431071Y-85909523D01*
X129392976Y-85757142D01*
X129392976Y-85566666D01*
X129431071Y-85414285D01*
X129469166Y-85338095D01*
X129507261Y-85300000D01*
X129583452Y-85261904D01*
X130561904Y-100914285D02*
X130180952Y-101180952D01*
X130561904Y-101371428D02*
X129761904Y-101371428D01*
X129761904Y-101066666D01*
X129800000Y-100990476D01*
X129838095Y-100952380D01*
X129914285Y-100914285D01*
X130028571Y-100914285D01*
X130104761Y-100952380D01*
X130142857Y-100990476D01*
X130180952Y-101066666D01*
X130180952Y-101371428D01*
X130561904Y-100152380D02*
X130561904Y-100609523D01*
X130561904Y-100380952D02*
X129761904Y-100380952D01*
X129876190Y-100457142D01*
X129952380Y-100533333D01*
X129990476Y-100609523D01*
X130561904Y-99771428D02*
X130561904Y-99619047D01*
X130523809Y-99542857D01*
X130485714Y-99504761D01*
X130371428Y-99428571D01*
X130219047Y-99390476D01*
X129914285Y-99390476D01*
X129838095Y-99428571D01*
X129800000Y-99466666D01*
X129761904Y-99542857D01*
X129761904Y-99695238D01*
X129800000Y-99771428D01*
X129838095Y-99809523D01*
X129914285Y-99847619D01*
X130104761Y-99847619D01*
X130180952Y-99809523D01*
X130219047Y-99771428D01*
X130257142Y-99695238D01*
X130257142Y-99542857D01*
X130219047Y-99466666D01*
X130180952Y-99428571D01*
X130104761Y-99390476D01*
X140661904Y-94414285D02*
X140280952Y-94680952D01*
X140661904Y-94871428D02*
X139861904Y-94871428D01*
X139861904Y-94566666D01*
X139900000Y-94490476D01*
X139938095Y-94452380D01*
X140014285Y-94414285D01*
X140128571Y-94414285D01*
X140204761Y-94452380D01*
X140242857Y-94490476D01*
X140280952Y-94566666D01*
X140280952Y-94871428D01*
X139938095Y-94109523D02*
X139900000Y-94071428D01*
X139861904Y-93995238D01*
X139861904Y-93804761D01*
X139900000Y-93728571D01*
X139938095Y-93690476D01*
X140014285Y-93652380D01*
X140090476Y-93652380D01*
X140204761Y-93690476D01*
X140661904Y-94147619D01*
X140661904Y-93652380D01*
X140661904Y-92890476D02*
X140661904Y-93347619D01*
X140661904Y-93119047D02*
X139861904Y-93119047D01*
X139976190Y-93195238D01*
X140052380Y-93271428D01*
X140090476Y-93347619D01*
X128345119Y-83661904D02*
X128078452Y-83280952D01*
X127887976Y-83661904D02*
X127887976Y-82861904D01*
X128192738Y-82861904D01*
X128268928Y-82900000D01*
X128307023Y-82938095D01*
X128345119Y-83014285D01*
X128345119Y-83128571D01*
X128307023Y-83204761D01*
X128268928Y-83242857D01*
X128192738Y-83280952D01*
X127887976Y-83280952D01*
X128649880Y-82938095D02*
X128687976Y-82900000D01*
X128764166Y-82861904D01*
X128954642Y-82861904D01*
X129030833Y-82900000D01*
X129068928Y-82938095D01*
X129107023Y-83014285D01*
X129107023Y-83090476D01*
X129068928Y-83204761D01*
X128611785Y-83661904D01*
X129107023Y-83661904D01*
X129373690Y-82861904D02*
X129907023Y-82861904D01*
X129564166Y-83661904D01*
X145761904Y-94714285D02*
X145380952Y-94980952D01*
X145761904Y-95171428D02*
X144961904Y-95171428D01*
X144961904Y-94866666D01*
X145000000Y-94790476D01*
X145038095Y-94752380D01*
X145114285Y-94714285D01*
X145228571Y-94714285D01*
X145304761Y-94752380D01*
X145342857Y-94790476D01*
X145380952Y-94866666D01*
X145380952Y-95171428D01*
X144961904Y-93990476D02*
X144961904Y-94371428D01*
X145342857Y-94409523D01*
X145304761Y-94371428D01*
X145266666Y-94295238D01*
X145266666Y-94104761D01*
X145304761Y-94028571D01*
X145342857Y-93990476D01*
X145419047Y-93952380D01*
X145609523Y-93952380D01*
X145685714Y-93990476D01*
X145723809Y-94028571D01*
X145761904Y-94104761D01*
X145761904Y-94295238D01*
X145723809Y-94371428D01*
X145685714Y-94409523D01*
X144961904Y-93457142D02*
X144961904Y-93380952D01*
X145000000Y-93304761D01*
X145038095Y-93266666D01*
X145114285Y-93228571D01*
X145266666Y-93190476D01*
X145457142Y-93190476D01*
X145609523Y-93228571D01*
X145685714Y-93266666D01*
X145723809Y-93304761D01*
X145761904Y-93380952D01*
X145761904Y-93457142D01*
X145723809Y-93533333D01*
X145685714Y-93571428D01*
X145609523Y-93609523D01*
X145457142Y-93647619D01*
X145266666Y-93647619D01*
X145114285Y-93609523D01*
X145038095Y-93571428D01*
X145000000Y-93533333D01*
X144961904Y-93457142D01*
X148685714Y-92461904D02*
X148419047Y-92080952D01*
X148228571Y-92461904D02*
X148228571Y-91661904D01*
X148533333Y-91661904D01*
X148609523Y-91700000D01*
X148647619Y-91738095D01*
X148685714Y-91814285D01*
X148685714Y-91928571D01*
X148647619Y-92004761D01*
X148609523Y-92042857D01*
X148533333Y-92080952D01*
X148228571Y-92080952D01*
X149409523Y-91661904D02*
X149028571Y-91661904D01*
X148990476Y-92042857D01*
X149028571Y-92004761D01*
X149104761Y-91966666D01*
X149295238Y-91966666D01*
X149371428Y-92004761D01*
X149409523Y-92042857D01*
X149447619Y-92119047D01*
X149447619Y-92309523D01*
X149409523Y-92385714D01*
X149371428Y-92423809D01*
X149295238Y-92461904D01*
X149104761Y-92461904D01*
X149028571Y-92423809D01*
X148990476Y-92385714D01*
X150171428Y-91661904D02*
X149790476Y-91661904D01*
X149752380Y-92042857D01*
X149790476Y-92004761D01*
X149866666Y-91966666D01*
X150057142Y-91966666D01*
X150133333Y-92004761D01*
X150171428Y-92042857D01*
X150209523Y-92119047D01*
X150209523Y-92309523D01*
X150171428Y-92385714D01*
X150133333Y-92423809D01*
X150057142Y-92461904D01*
X149866666Y-92461904D01*
X149790476Y-92423809D01*
X149752380Y-92385714D01*
X119785714Y-95533333D02*
X119823809Y-95571428D01*
X119861904Y-95685714D01*
X119861904Y-95761904D01*
X119823809Y-95876190D01*
X119747619Y-95952380D01*
X119671428Y-95990476D01*
X119519047Y-96028571D01*
X119404761Y-96028571D01*
X119252380Y-95990476D01*
X119176190Y-95952380D01*
X119100000Y-95876190D01*
X119061904Y-95761904D01*
X119061904Y-95685714D01*
X119100000Y-95571428D01*
X119138095Y-95533333D01*
X119138095Y-95228571D02*
X119100000Y-95190476D01*
X119061904Y-95114285D01*
X119061904Y-94923809D01*
X119100000Y-94847619D01*
X119138095Y-94809523D01*
X119214285Y-94771428D01*
X119290476Y-94771428D01*
X119404761Y-94809523D01*
X119861904Y-95266666D01*
X119861904Y-94771428D01*
X148585714Y-91285714D02*
X148547619Y-91323809D01*
X148433333Y-91361904D01*
X148357142Y-91361904D01*
X148242857Y-91323809D01*
X148166666Y-91247619D01*
X148128571Y-91171428D01*
X148090476Y-91019047D01*
X148090476Y-90904761D01*
X148128571Y-90752380D01*
X148166666Y-90676190D01*
X148242857Y-90600000D01*
X148357142Y-90561904D01*
X148433333Y-90561904D01*
X148547619Y-90600000D01*
X148585714Y-90638095D01*
X148852380Y-90561904D02*
X149385714Y-90561904D01*
X149042857Y-91361904D01*
X149614285Y-90561904D02*
X150109523Y-90561904D01*
X149842857Y-90866666D01*
X149957142Y-90866666D01*
X150033333Y-90904761D01*
X150071428Y-90942857D01*
X150109523Y-91019047D01*
X150109523Y-91209523D01*
X150071428Y-91285714D01*
X150033333Y-91323809D01*
X149957142Y-91361904D01*
X149728571Y-91361904D01*
X149652380Y-91323809D01*
X149614285Y-91285714D01*
X163795714Y-91524285D02*
X163833809Y-91562380D01*
X163871904Y-91676666D01*
X163871904Y-91752857D01*
X163833809Y-91867142D01*
X163757619Y-91943333D01*
X163681428Y-91981428D01*
X163529047Y-92019523D01*
X163414761Y-92019523D01*
X163262380Y-91981428D01*
X163186190Y-91943333D01*
X163110000Y-91867142D01*
X163071904Y-91752857D01*
X163071904Y-91676666D01*
X163110000Y-91562380D01*
X163148095Y-91524285D01*
X163148095Y-91219523D02*
X163110000Y-91181428D01*
X163071904Y-91105238D01*
X163071904Y-90914761D01*
X163110000Y-90838571D01*
X163148095Y-90800476D01*
X163224285Y-90762380D01*
X163300476Y-90762380D01*
X163414761Y-90800476D01*
X163871904Y-91257619D01*
X163871904Y-90762380D01*
X163071904Y-90267142D02*
X163071904Y-90190952D01*
X163110000Y-90114761D01*
X163148095Y-90076666D01*
X163224285Y-90038571D01*
X163376666Y-90000476D01*
X163567142Y-90000476D01*
X163719523Y-90038571D01*
X163795714Y-90076666D01*
X163833809Y-90114761D01*
X163871904Y-90190952D01*
X163871904Y-90267142D01*
X163833809Y-90343333D01*
X163795714Y-90381428D01*
X163719523Y-90419523D01*
X163567142Y-90457619D01*
X163376666Y-90457619D01*
X163224285Y-90419523D01*
X163148095Y-90381428D01*
X163110000Y-90343333D01*
X163071904Y-90267142D01*
X162715714Y-91534285D02*
X162753809Y-91572380D01*
X162791904Y-91686666D01*
X162791904Y-91762857D01*
X162753809Y-91877142D01*
X162677619Y-91953333D01*
X162601428Y-91991428D01*
X162449047Y-92029523D01*
X162334761Y-92029523D01*
X162182380Y-91991428D01*
X162106190Y-91953333D01*
X162030000Y-91877142D01*
X161991904Y-91762857D01*
X161991904Y-91686666D01*
X162030000Y-91572380D01*
X162068095Y-91534285D01*
X162068095Y-91229523D02*
X162030000Y-91191428D01*
X161991904Y-91115238D01*
X161991904Y-90924761D01*
X162030000Y-90848571D01*
X162068095Y-90810476D01*
X162144285Y-90772380D01*
X162220476Y-90772380D01*
X162334761Y-90810476D01*
X162791904Y-91267619D01*
X162791904Y-90772380D01*
X162791904Y-90010476D02*
X162791904Y-90467619D01*
X162791904Y-90239047D02*
X161991904Y-90239047D01*
X162106190Y-90315238D01*
X162182380Y-90391428D01*
X162220476Y-90467619D01*
X143985714Y-88885714D02*
X143947619Y-88923809D01*
X143833333Y-88961904D01*
X143757142Y-88961904D01*
X143642857Y-88923809D01*
X143566666Y-88847619D01*
X143528571Y-88771428D01*
X143490476Y-88619047D01*
X143490476Y-88504761D01*
X143528571Y-88352380D01*
X143566666Y-88276190D01*
X143642857Y-88200000D01*
X143757142Y-88161904D01*
X143833333Y-88161904D01*
X143947619Y-88200000D01*
X143985714Y-88238095D01*
X144671428Y-88428571D02*
X144671428Y-88961904D01*
X144480952Y-88123809D02*
X144290476Y-88695238D01*
X144785714Y-88695238D01*
X145433333Y-88161904D02*
X145280952Y-88161904D01*
X145204761Y-88200000D01*
X145166666Y-88238095D01*
X145090476Y-88352380D01*
X145052380Y-88504761D01*
X145052380Y-88809523D01*
X145090476Y-88885714D01*
X145128571Y-88923809D01*
X145204761Y-88961904D01*
X145357142Y-88961904D01*
X145433333Y-88923809D01*
X145471428Y-88885714D01*
X145509523Y-88809523D01*
X145509523Y-88619047D01*
X145471428Y-88542857D01*
X145433333Y-88504761D01*
X145357142Y-88466666D01*
X145204761Y-88466666D01*
X145128571Y-88504761D01*
X145090476Y-88542857D01*
X145052380Y-88619047D01*
X125009523Y-84361904D02*
X125009523Y-83561904D01*
X125200000Y-83561904D01*
X125314285Y-83600000D01*
X125390476Y-83676190D01*
X125428571Y-83752380D01*
X125466666Y-83904761D01*
X125466666Y-84019047D01*
X125428571Y-84171428D01*
X125390476Y-84247619D01*
X125314285Y-84323809D01*
X125200000Y-84361904D01*
X125009523Y-84361904D01*
X125733333Y-83561904D02*
X126228571Y-83561904D01*
X125961904Y-83866666D01*
X126076190Y-83866666D01*
X126152380Y-83904761D01*
X126190476Y-83942857D01*
X126228571Y-84019047D01*
X126228571Y-84209523D01*
X126190476Y-84285714D01*
X126152380Y-84323809D01*
X126076190Y-84361904D01*
X125847619Y-84361904D01*
X125771428Y-84323809D01*
X125733333Y-84285714D01*
X119790476Y-97361904D02*
X119790476Y-98009523D01*
X119828571Y-98085714D01*
X119866666Y-98123809D01*
X119942857Y-98161904D01*
X120095238Y-98161904D01*
X120171428Y-98123809D01*
X120209523Y-98085714D01*
X120247619Y-98009523D01*
X120247619Y-97361904D01*
X120552380Y-97361904D02*
X121047619Y-97361904D01*
X120780952Y-97666666D01*
X120895238Y-97666666D01*
X120971428Y-97704761D01*
X121009523Y-97742857D01*
X121047619Y-97819047D01*
X121047619Y-98009523D01*
X121009523Y-98085714D01*
X120971428Y-98123809D01*
X120895238Y-98161904D01*
X120666666Y-98161904D01*
X120590476Y-98123809D01*
X120552380Y-98085714D01*
X120208333Y-107061904D02*
X120208333Y-107633333D01*
X120170238Y-107747619D01*
X120094047Y-107823809D01*
X119979761Y-107861904D01*
X119903571Y-107861904D01*
X120551190Y-107138095D02*
X120589285Y-107100000D01*
X120665476Y-107061904D01*
X120855952Y-107061904D01*
X120932142Y-107100000D01*
X120970238Y-107138095D01*
X121008333Y-107214285D01*
X121008333Y-107290476D01*
X120970238Y-107404761D01*
X120513095Y-107861904D01*
X121008333Y-107861904D01*
X139690476Y-92523809D02*
X139804761Y-92561904D01*
X139995238Y-92561904D01*
X140071428Y-92523809D01*
X140109523Y-92485714D01*
X140147619Y-92409523D01*
X140147619Y-92333333D01*
X140109523Y-92257142D01*
X140071428Y-92219047D01*
X139995238Y-92180952D01*
X139842857Y-92142857D01*
X139766666Y-92104761D01*
X139728571Y-92066666D01*
X139690476Y-91990476D01*
X139690476Y-91914285D01*
X139728571Y-91838095D01*
X139766666Y-91800000D01*
X139842857Y-91761904D01*
X140033333Y-91761904D01*
X140147619Y-91800000D01*
X140909523Y-92561904D02*
X140452380Y-92561904D01*
X140680952Y-92561904D02*
X140680952Y-91761904D01*
X140604761Y-91876190D01*
X140528571Y-91952380D01*
X140452380Y-91990476D01*
D13*
X119571428Y-84985714D02*
X119285714Y-85185714D01*
X119571428Y-85328571D02*
X118971428Y-85328571D01*
X118971428Y-85100000D01*
X119000000Y-85042857D01*
X119028571Y-85014285D01*
X119085714Y-84985714D01*
X119171428Y-84985714D01*
X119228571Y-85014285D01*
X119257142Y-85042857D01*
X119285714Y-85100000D01*
X119285714Y-85328571D01*
X119571428Y-84414285D02*
X119571428Y-84757142D01*
X119571428Y-84585714D02*
X118971428Y-84585714D01*
X119057142Y-84642857D01*
X119114285Y-84700000D01*
X119142857Y-84757142D01*
X118971428Y-83900000D02*
X118971428Y-84014285D01*
X119000000Y-84071428D01*
X119028571Y-84100000D01*
X119114285Y-84157142D01*
X119228571Y-84185714D01*
X119457142Y-84185714D01*
X119514285Y-84157142D01*
X119542857Y-84128571D01*
X119571428Y-84071428D01*
X119571428Y-83957142D01*
X119542857Y-83900000D01*
X119514285Y-83871428D01*
X119457142Y-83842857D01*
X119314285Y-83842857D01*
X119257142Y-83871428D01*
X119228571Y-83900000D01*
X119200000Y-83957142D01*
X119200000Y-84071428D01*
X119228571Y-84128571D01*
X119257142Y-84157142D01*
X119314285Y-84185714D01*
X119571428Y-82885714D02*
X119285714Y-83085714D01*
X119571428Y-83228571D02*
X118971428Y-83228571D01*
X118971428Y-83000000D01*
X119000000Y-82942857D01*
X119028571Y-82914285D01*
X119085714Y-82885714D01*
X119171428Y-82885714D01*
X119228571Y-82914285D01*
X119257142Y-82942857D01*
X119285714Y-83000000D01*
X119285714Y-83228571D01*
X119571428Y-82314285D02*
X119571428Y-82657142D01*
X119571428Y-82485714D02*
X118971428Y-82485714D01*
X119057142Y-82542857D01*
X119114285Y-82600000D01*
X119142857Y-82657142D01*
X118971428Y-82114285D02*
X118971428Y-81714285D01*
X119571428Y-81971428D01*
D11*
X168585714Y-102385714D02*
X168547619Y-102423809D01*
X168433333Y-102461904D01*
X168357142Y-102461904D01*
X168242857Y-102423809D01*
X168166666Y-102347619D01*
X168128571Y-102271428D01*
X168090476Y-102119047D01*
X168090476Y-102004761D01*
X168128571Y-101852380D01*
X168166666Y-101776190D01*
X168242857Y-101700000D01*
X168357142Y-101661904D01*
X168433333Y-101661904D01*
X168547619Y-101700000D01*
X168585714Y-101738095D01*
X169271428Y-101928571D02*
X169271428Y-102461904D01*
X169080952Y-101623809D02*
X168890476Y-102195238D01*
X169385714Y-102195238D01*
X170071428Y-101661904D02*
X169690476Y-101661904D01*
X169652380Y-102042857D01*
X169690476Y-102004761D01*
X169766666Y-101966666D01*
X169957142Y-101966666D01*
X170033333Y-102004761D01*
X170071428Y-102042857D01*
X170109523Y-102119047D01*
X170109523Y-102309523D01*
X170071428Y-102385714D01*
X170033333Y-102423809D01*
X169957142Y-102461904D01*
X169766666Y-102461904D01*
X169690476Y-102423809D01*
X169652380Y-102385714D01*
X138933333Y-122061904D02*
X138933333Y-122633333D01*
X138895238Y-122747619D01*
X138819047Y-122823809D01*
X138704761Y-122861904D01*
X138628571Y-122861904D01*
X139733333Y-122861904D02*
X139276190Y-122861904D01*
X139504761Y-122861904D02*
X139504761Y-122061904D01*
X139428571Y-122176190D01*
X139352380Y-122252380D01*
X139276190Y-122290476D01*
X175633333Y-124461904D02*
X175633333Y-125033333D01*
X175595238Y-125147619D01*
X175519047Y-125223809D01*
X175404761Y-125261904D01*
X175328571Y-125261904D01*
X176357142Y-124728571D02*
X176357142Y-125261904D01*
X176166666Y-124423809D02*
X175976190Y-124995238D01*
X176471428Y-124995238D01*
X127433333Y-77761904D02*
X127433333Y-78333333D01*
X127395238Y-78447619D01*
X127319047Y-78523809D01*
X127204761Y-78561904D01*
X127128571Y-78561904D01*
X127738095Y-77761904D02*
X128233333Y-77761904D01*
X127966666Y-78066666D01*
X128080952Y-78066666D01*
X128157142Y-78104761D01*
X128195238Y-78142857D01*
X128233333Y-78219047D01*
X128233333Y-78409523D01*
X128195238Y-78485714D01*
X128157142Y-78523809D01*
X128080952Y-78561904D01*
X127852380Y-78561904D01*
X127776190Y-78523809D01*
X127738095Y-78485714D01*
X138885714Y-119733333D02*
X138923809Y-119771428D01*
X138961904Y-119885714D01*
X138961904Y-119961904D01*
X138923809Y-120076190D01*
X138847619Y-120152380D01*
X138771428Y-120190476D01*
X138619047Y-120228571D01*
X138504761Y-120228571D01*
X138352380Y-120190476D01*
X138276190Y-120152380D01*
X138200000Y-120076190D01*
X138161904Y-119961904D01*
X138161904Y-119885714D01*
X138200000Y-119771428D01*
X138238095Y-119733333D01*
X138428571Y-119047619D02*
X138961904Y-119047619D01*
X138123809Y-119238095D02*
X138695238Y-119428571D01*
X138695238Y-118933333D01*
X127985714Y-106233333D02*
X128023809Y-106271428D01*
X128061904Y-106385714D01*
X128061904Y-106461904D01*
X128023809Y-106576190D01*
X127947619Y-106652380D01*
X127871428Y-106690476D01*
X127719047Y-106728571D01*
X127604761Y-106728571D01*
X127452380Y-106690476D01*
X127376190Y-106652380D01*
X127300000Y-106576190D01*
X127261904Y-106461904D01*
X127261904Y-106385714D01*
X127300000Y-106271428D01*
X127338095Y-106233333D01*
X127261904Y-105547619D02*
X127261904Y-105700000D01*
X127300000Y-105776190D01*
X127338095Y-105814285D01*
X127452380Y-105890476D01*
X127604761Y-105928571D01*
X127909523Y-105928571D01*
X127985714Y-105890476D01*
X128023809Y-105852380D01*
X128061904Y-105776190D01*
X128061904Y-105623809D01*
X128023809Y-105547619D01*
X127985714Y-105509523D01*
X127909523Y-105471428D01*
X127719047Y-105471428D01*
X127642857Y-105509523D01*
X127604761Y-105547619D01*
X127566666Y-105623809D01*
X127566666Y-105776190D01*
X127604761Y-105852380D01*
X127642857Y-105890476D01*
X127719047Y-105928571D01*
X157600476Y-92881904D02*
X157600476Y-93529523D01*
X157638571Y-93605714D01*
X157676666Y-93643809D01*
X157752857Y-93681904D01*
X157905238Y-93681904D01*
X157981428Y-93643809D01*
X158019523Y-93605714D01*
X158057619Y-93529523D01*
X158057619Y-92881904D01*
X158400476Y-92958095D02*
X158438571Y-92920000D01*
X158514761Y-92881904D01*
X158705238Y-92881904D01*
X158781428Y-92920000D01*
X158819523Y-92958095D01*
X158857619Y-93034285D01*
X158857619Y-93110476D01*
X158819523Y-93224761D01*
X158362380Y-93681904D01*
X158857619Y-93681904D01*
X177485714Y-96514285D02*
X177523809Y-96552380D01*
X177561904Y-96666666D01*
X177561904Y-96742857D01*
X177523809Y-96857142D01*
X177447619Y-96933333D01*
X177371428Y-96971428D01*
X177219047Y-97009523D01*
X177104761Y-97009523D01*
X176952380Y-96971428D01*
X176876190Y-96933333D01*
X176800000Y-96857142D01*
X176761904Y-96742857D01*
X176761904Y-96666666D01*
X176800000Y-96552380D01*
X176838095Y-96514285D01*
X177561904Y-95752380D02*
X177561904Y-96209523D01*
X177561904Y-95980952D02*
X176761904Y-95980952D01*
X176876190Y-96057142D01*
X176952380Y-96133333D01*
X176990476Y-96209523D01*
X176838095Y-95447619D02*
X176800000Y-95409523D01*
X176761904Y-95333333D01*
X176761904Y-95142857D01*
X176800000Y-95066666D01*
X176838095Y-95028571D01*
X176914285Y-94990476D01*
X176990476Y-94990476D01*
X177104761Y-95028571D01*
X177561904Y-95485714D01*
X177561904Y-94990476D01*
X128885714Y-89014285D02*
X128923809Y-89052380D01*
X128961904Y-89166666D01*
X128961904Y-89242857D01*
X128923809Y-89357142D01*
X128847619Y-89433333D01*
X128771428Y-89471428D01*
X128619047Y-89509523D01*
X128504761Y-89509523D01*
X128352380Y-89471428D01*
X128276190Y-89433333D01*
X128200000Y-89357142D01*
X128161904Y-89242857D01*
X128161904Y-89166666D01*
X128200000Y-89052380D01*
X128238095Y-89014285D01*
X128161904Y-88747619D02*
X128161904Y-88252380D01*
X128466666Y-88519047D01*
X128466666Y-88404761D01*
X128504761Y-88328571D01*
X128542857Y-88290476D01*
X128619047Y-88252380D01*
X128809523Y-88252380D01*
X128885714Y-88290476D01*
X128923809Y-88328571D01*
X128961904Y-88404761D01*
X128961904Y-88633333D01*
X128923809Y-88709523D01*
X128885714Y-88747619D01*
X128961904Y-87490476D02*
X128961904Y-87947619D01*
X128961904Y-87719047D02*
X128161904Y-87719047D01*
X128276190Y-87795238D01*
X128352380Y-87871428D01*
X128390476Y-87947619D01*
X127085714Y-93714285D02*
X127123809Y-93752380D01*
X127161904Y-93866666D01*
X127161904Y-93942857D01*
X127123809Y-94057142D01*
X127047619Y-94133333D01*
X126971428Y-94171428D01*
X126819047Y-94209523D01*
X126704761Y-94209523D01*
X126552380Y-94171428D01*
X126476190Y-94133333D01*
X126400000Y-94057142D01*
X126361904Y-93942857D01*
X126361904Y-93866666D01*
X126400000Y-93752380D01*
X126438095Y-93714285D01*
X126361904Y-93447619D02*
X126361904Y-92952380D01*
X126666666Y-93219047D01*
X126666666Y-93104761D01*
X126704761Y-93028571D01*
X126742857Y-92990476D01*
X126819047Y-92952380D01*
X127009523Y-92952380D01*
X127085714Y-92990476D01*
X127123809Y-93028571D01*
X127161904Y-93104761D01*
X127161904Y-93333333D01*
X127123809Y-93409523D01*
X127085714Y-93447619D01*
X126361904Y-92228571D02*
X126361904Y-92609523D01*
X126742857Y-92647619D01*
X126704761Y-92609523D01*
X126666666Y-92533333D01*
X126666666Y-92342857D01*
X126704761Y-92266666D01*
X126742857Y-92228571D01*
X126819047Y-92190476D01*
X127009523Y-92190476D01*
X127085714Y-92228571D01*
X127123809Y-92266666D01*
X127161904Y-92342857D01*
X127161904Y-92533333D01*
X127123809Y-92609523D01*
X127085714Y-92647619D01*
X124385714Y-92385714D02*
X124347619Y-92423809D01*
X124233333Y-92461904D01*
X124157142Y-92461904D01*
X124042857Y-92423809D01*
X123966666Y-92347619D01*
X123928571Y-92271428D01*
X123890476Y-92119047D01*
X123890476Y-92004761D01*
X123928571Y-91852380D01*
X123966666Y-91776190D01*
X124042857Y-91700000D01*
X124157142Y-91661904D01*
X124233333Y-91661904D01*
X124347619Y-91700000D01*
X124385714Y-91738095D01*
X125071428Y-91928571D02*
X125071428Y-92461904D01*
X124880952Y-91623809D02*
X124690476Y-92195238D01*
X125185714Y-92195238D01*
X125909523Y-92461904D02*
X125452380Y-92461904D01*
X125680952Y-92461904D02*
X125680952Y-91661904D01*
X125604761Y-91776190D01*
X125528571Y-91852380D01*
X125452380Y-91890476D01*
X164961904Y-101414285D02*
X164580952Y-101680952D01*
X164961904Y-101871428D02*
X164161904Y-101871428D01*
X164161904Y-101566666D01*
X164200000Y-101490476D01*
X164238095Y-101452380D01*
X164314285Y-101414285D01*
X164428571Y-101414285D01*
X164504761Y-101452380D01*
X164542857Y-101490476D01*
X164580952Y-101566666D01*
X164580952Y-101871428D01*
X164961904Y-100652380D02*
X164961904Y-101109523D01*
X164961904Y-100880952D02*
X164161904Y-100880952D01*
X164276190Y-100957142D01*
X164352380Y-101033333D01*
X164390476Y-101109523D01*
X164161904Y-99928571D02*
X164161904Y-100309523D01*
X164542857Y-100347619D01*
X164504761Y-100309523D01*
X164466666Y-100233333D01*
X164466666Y-100042857D01*
X164504761Y-99966666D01*
X164542857Y-99928571D01*
X164619047Y-99890476D01*
X164809523Y-99890476D01*
X164885714Y-99928571D01*
X164923809Y-99966666D01*
X164961904Y-100042857D01*
X164961904Y-100233333D01*
X164923809Y-100309523D01*
X164885714Y-100347619D01*
X129361904Y-100133333D02*
X128980952Y-100400000D01*
X129361904Y-100590476D02*
X128561904Y-100590476D01*
X128561904Y-100285714D01*
X128600000Y-100209523D01*
X128638095Y-100171428D01*
X128714285Y-100133333D01*
X128828571Y-100133333D01*
X128904761Y-100171428D01*
X128942857Y-100209523D01*
X128980952Y-100285714D01*
X128980952Y-100590476D01*
X128561904Y-99409523D02*
X128561904Y-99790476D01*
X128942857Y-99828571D01*
X128904761Y-99790476D01*
X128866666Y-99714285D01*
X128866666Y-99523809D01*
X128904761Y-99447619D01*
X128942857Y-99409523D01*
X129019047Y-99371428D01*
X129209523Y-99371428D01*
X129285714Y-99409523D01*
X129323809Y-99447619D01*
X129361904Y-99523809D01*
X129361904Y-99714285D01*
X129323809Y-99790476D01*
X129285714Y-99828571D01*
X125485714Y-85985714D02*
X125447619Y-86023809D01*
X125333333Y-86061904D01*
X125257142Y-86061904D01*
X125142857Y-86023809D01*
X125066666Y-85947619D01*
X125028571Y-85871428D01*
X124990476Y-85719047D01*
X124990476Y-85604761D01*
X125028571Y-85452380D01*
X125066666Y-85376190D01*
X125142857Y-85300000D01*
X125257142Y-85261904D01*
X125333333Y-85261904D01*
X125447619Y-85300000D01*
X125485714Y-85338095D01*
X125752380Y-85261904D02*
X126247619Y-85261904D01*
X125980952Y-85566666D01*
X126095238Y-85566666D01*
X126171428Y-85604761D01*
X126209523Y-85642857D01*
X126247619Y-85719047D01*
X126247619Y-85909523D01*
X126209523Y-85985714D01*
X126171428Y-86023809D01*
X126095238Y-86061904D01*
X125866666Y-86061904D01*
X125790476Y-86023809D01*
X125752380Y-85985714D01*
X126933333Y-85528571D02*
X126933333Y-86061904D01*
X126742857Y-85223809D02*
X126552380Y-85795238D01*
X127047619Y-85795238D01*
X158733333Y-76361904D02*
X158733333Y-76933333D01*
X158695238Y-77047619D01*
X158619047Y-77123809D01*
X158504761Y-77161904D01*
X158428571Y-77161904D01*
X159495238Y-76361904D02*
X159114285Y-76361904D01*
X159076190Y-76742857D01*
X159114285Y-76704761D01*
X159190476Y-76666666D01*
X159380952Y-76666666D01*
X159457142Y-76704761D01*
X159495238Y-76742857D01*
X159533333Y-76819047D01*
X159533333Y-77009523D01*
X159495238Y-77085714D01*
X159457142Y-77123809D01*
X159380952Y-77161904D01*
X159190476Y-77161904D01*
X159114285Y-77123809D01*
X159076190Y-77085714D01*
X121490476Y-90061904D02*
X121490476Y-90709523D01*
X121528571Y-90785714D01*
X121566666Y-90823809D01*
X121642857Y-90861904D01*
X121795238Y-90861904D01*
X121871428Y-90823809D01*
X121909523Y-90785714D01*
X121947619Y-90709523D01*
X121947619Y-90061904D01*
X122747619Y-90861904D02*
X122290476Y-90861904D01*
X122519047Y-90861904D02*
X122519047Y-90061904D01*
X122442857Y-90176190D01*
X122366666Y-90252380D01*
X122290476Y-90290476D01*
X168185714Y-85785714D02*
X168147619Y-85823809D01*
X168033333Y-85861904D01*
X167957142Y-85861904D01*
X167842857Y-85823809D01*
X167766666Y-85747619D01*
X167728571Y-85671428D01*
X167690476Y-85519047D01*
X167690476Y-85404761D01*
X167728571Y-85252380D01*
X167766666Y-85176190D01*
X167842857Y-85100000D01*
X167957142Y-85061904D01*
X168033333Y-85061904D01*
X168147619Y-85100000D01*
X168185714Y-85138095D01*
X168947619Y-85861904D02*
X168490476Y-85861904D01*
X168719047Y-85861904D02*
X168719047Y-85061904D01*
X168642857Y-85176190D01*
X168566666Y-85252380D01*
X168490476Y-85290476D01*
X169214285Y-85061904D02*
X169747619Y-85061904D01*
X169404761Y-85861904D01*
X168666666Y-103685714D02*
X168628571Y-103723809D01*
X168514285Y-103761904D01*
X168438095Y-103761904D01*
X168323809Y-103723809D01*
X168247619Y-103647619D01*
X168209523Y-103571428D01*
X168171428Y-103419047D01*
X168171428Y-103304761D01*
X168209523Y-103152380D01*
X168247619Y-103076190D01*
X168323809Y-103000000D01*
X168438095Y-102961904D01*
X168514285Y-102961904D01*
X168628571Y-103000000D01*
X168666666Y-103038095D01*
X168933333Y-102961904D02*
X169466666Y-102961904D01*
X169123809Y-103761904D01*
X163385714Y-97614285D02*
X163423809Y-97652380D01*
X163461904Y-97766666D01*
X163461904Y-97842857D01*
X163423809Y-97957142D01*
X163347619Y-98033333D01*
X163271428Y-98071428D01*
X163119047Y-98109523D01*
X163004761Y-98109523D01*
X162852380Y-98071428D01*
X162776190Y-98033333D01*
X162700000Y-97957142D01*
X162661904Y-97842857D01*
X162661904Y-97766666D01*
X162700000Y-97652380D01*
X162738095Y-97614285D01*
X163461904Y-96852380D02*
X163461904Y-97309523D01*
X163461904Y-97080952D02*
X162661904Y-97080952D01*
X162776190Y-97157142D01*
X162852380Y-97233333D01*
X162890476Y-97309523D01*
X163461904Y-96090476D02*
X163461904Y-96547619D01*
X163461904Y-96319047D02*
X162661904Y-96319047D01*
X162776190Y-96395238D01*
X162852380Y-96471428D01*
X162890476Y-96547619D01*
X177485714Y-93314285D02*
X177523809Y-93352380D01*
X177561904Y-93466666D01*
X177561904Y-93542857D01*
X177523809Y-93657142D01*
X177447619Y-93733333D01*
X177371428Y-93771428D01*
X177219047Y-93809523D01*
X177104761Y-93809523D01*
X176952380Y-93771428D01*
X176876190Y-93733333D01*
X176800000Y-93657142D01*
X176761904Y-93542857D01*
X176761904Y-93466666D01*
X176800000Y-93352380D01*
X176838095Y-93314285D01*
X176838095Y-93009523D02*
X176800000Y-92971428D01*
X176761904Y-92895238D01*
X176761904Y-92704761D01*
X176800000Y-92628571D01*
X176838095Y-92590476D01*
X176914285Y-92552380D01*
X176990476Y-92552380D01*
X177104761Y-92590476D01*
X177561904Y-93047619D01*
X177561904Y-92552380D01*
X176761904Y-92285714D02*
X176761904Y-91790476D01*
X177066666Y-92057142D01*
X177066666Y-91942857D01*
X177104761Y-91866666D01*
X177142857Y-91828571D01*
X177219047Y-91790476D01*
X177409523Y-91790476D01*
X177485714Y-91828571D01*
X177523809Y-91866666D01*
X177561904Y-91942857D01*
X177561904Y-92171428D01*
X177523809Y-92247619D01*
X177485714Y-92285714D01*
X164661904Y-97633333D02*
X164280952Y-97900000D01*
X164661904Y-98090476D02*
X163861904Y-98090476D01*
X163861904Y-97785714D01*
X163900000Y-97709523D01*
X163938095Y-97671428D01*
X164014285Y-97633333D01*
X164128571Y-97633333D01*
X164204761Y-97671428D01*
X164242857Y-97709523D01*
X164280952Y-97785714D01*
X164280952Y-98090476D01*
X164204761Y-97176190D02*
X164166666Y-97252380D01*
X164128571Y-97290476D01*
X164052380Y-97328571D01*
X164014285Y-97328571D01*
X163938095Y-97290476D01*
X163900000Y-97252380D01*
X163861904Y-97176190D01*
X163861904Y-97023809D01*
X163900000Y-96947619D01*
X163938095Y-96909523D01*
X164014285Y-96871428D01*
X164052380Y-96871428D01*
X164128571Y-96909523D01*
X164166666Y-96947619D01*
X164204761Y-97023809D01*
X164204761Y-97176190D01*
X164242857Y-97252380D01*
X164280952Y-97290476D01*
X164357142Y-97328571D01*
X164509523Y-97328571D01*
X164585714Y-97290476D01*
X164623809Y-97252380D01*
X164661904Y-97176190D01*
X164661904Y-97023809D01*
X164623809Y-96947619D01*
X164585714Y-96909523D01*
X164509523Y-96871428D01*
X164357142Y-96871428D01*
X164280952Y-96909523D01*
X164242857Y-96947619D01*
X164204761Y-97023809D01*
X162285714Y-95561904D02*
X162019047Y-95180952D01*
X161828571Y-95561904D02*
X161828571Y-94761904D01*
X162133333Y-94761904D01*
X162209523Y-94800000D01*
X162247619Y-94838095D01*
X162285714Y-94914285D01*
X162285714Y-95028571D01*
X162247619Y-95104761D01*
X162209523Y-95142857D01*
X162133333Y-95180952D01*
X161828571Y-95180952D01*
X163047619Y-95561904D02*
X162590476Y-95561904D01*
X162819047Y-95561904D02*
X162819047Y-94761904D01*
X162742857Y-94876190D01*
X162666666Y-94952380D01*
X162590476Y-94990476D01*
X163809523Y-95561904D02*
X163352380Y-95561904D01*
X163580952Y-95561904D02*
X163580952Y-94761904D01*
X163504761Y-94876190D01*
X163428571Y-94952380D01*
X163352380Y-94990476D01*
X163566666Y-86885714D02*
X163528571Y-86923809D01*
X163414285Y-86961904D01*
X163338095Y-86961904D01*
X163223809Y-86923809D01*
X163147619Y-86847619D01*
X163109523Y-86771428D01*
X163071428Y-86619047D01*
X163071428Y-86504761D01*
X163109523Y-86352380D01*
X163147619Y-86276190D01*
X163223809Y-86200000D01*
X163338095Y-86161904D01*
X163414285Y-86161904D01*
X163528571Y-86200000D01*
X163566666Y-86238095D01*
X164023809Y-86504761D02*
X163947619Y-86466666D01*
X163909523Y-86428571D01*
X163871428Y-86352380D01*
X163871428Y-86314285D01*
X163909523Y-86238095D01*
X163947619Y-86200000D01*
X164023809Y-86161904D01*
X164176190Y-86161904D01*
X164252380Y-86200000D01*
X164290476Y-86238095D01*
X164328571Y-86314285D01*
X164328571Y-86352380D01*
X164290476Y-86428571D01*
X164252380Y-86466666D01*
X164176190Y-86504761D01*
X164023809Y-86504761D01*
X163947619Y-86542857D01*
X163909523Y-86580952D01*
X163871428Y-86657142D01*
X163871428Y-86809523D01*
X163909523Y-86885714D01*
X163947619Y-86923809D01*
X164023809Y-86961904D01*
X164176190Y-86961904D01*
X164252380Y-86923809D01*
X164290476Y-86885714D01*
X164328571Y-86809523D01*
X164328571Y-86657142D01*
X164290476Y-86580952D01*
X164252380Y-86542857D01*
X164176190Y-86504761D01*
X167385714Y-84214285D02*
X167423809Y-84252380D01*
X167461904Y-84366666D01*
X167461904Y-84442857D01*
X167423809Y-84557142D01*
X167347619Y-84633333D01*
X167271428Y-84671428D01*
X167119047Y-84709523D01*
X167004761Y-84709523D01*
X166852380Y-84671428D01*
X166776190Y-84633333D01*
X166700000Y-84557142D01*
X166661904Y-84442857D01*
X166661904Y-84366666D01*
X166700000Y-84252380D01*
X166738095Y-84214285D01*
X167461904Y-83452380D02*
X167461904Y-83909523D01*
X167461904Y-83680952D02*
X166661904Y-83680952D01*
X166776190Y-83757142D01*
X166852380Y-83833333D01*
X166890476Y-83909523D01*
X166661904Y-82957142D02*
X166661904Y-82880952D01*
X166700000Y-82804761D01*
X166738095Y-82766666D01*
X166814285Y-82728571D01*
X166966666Y-82690476D01*
X167157142Y-82690476D01*
X167309523Y-82728571D01*
X167385714Y-82766666D01*
X167423809Y-82804761D01*
X167461904Y-82880952D01*
X167461904Y-82957142D01*
X167423809Y-83033333D01*
X167385714Y-83071428D01*
X167309523Y-83109523D01*
X167157142Y-83147619D01*
X166966666Y-83147619D01*
X166814285Y-83109523D01*
X166738095Y-83071428D01*
X166700000Y-83033333D01*
X166661904Y-82957142D01*
D13*
X141600000Y-96535000D02*
X143885000Y-96535000D01*
X143885000Y-95065000D02*
X141600000Y-95065000D01*
X128765000Y-94015000D02*
X128765000Y-96300000D01*
X130235000Y-96300000D02*
X130235000Y-94015000D01*
X169651329Y-87000000D02*
X169651329Y-89300000D01*
X164051329Y-89300000D02*
X164051329Y-88200000D01*
X164051329Y-92100000D02*
X164051329Y-93200000D01*
X169651329Y-93200000D02*
X169651329Y-92100000D01*
X177710000Y-83290000D02*
X177710000Y-85322000D01*
X170090000Y-83290000D02*
X177710000Y-83290000D01*
X170090000Y-85322000D02*
X170090000Y-83290000D01*
X170090000Y-90910000D02*
X170090000Y-88878000D01*
X177710000Y-90910000D02*
X170090000Y-90910000D01*
X177710000Y-88878000D02*
X177710000Y-90910000D01*
X133615000Y-117125000D02*
X134865000Y-117125000D01*
X134240000Y-117750000D02*
X134240000Y-116500000D01*
X141195563Y-116260000D02*
X142260000Y-115195563D01*
X132804437Y-116260000D02*
X131740000Y-115195563D01*
X132804437Y-116260000D02*
X135490000Y-116260000D01*
X141195563Y-116260000D02*
X138510000Y-116260000D01*
X142260000Y-115195563D02*
X142260000Y-105740000D01*
X131740000Y-115195563D02*
X131740000Y-105740000D01*
X131740000Y-105740000D02*
X135490000Y-105740000D01*
X142260000Y-105740000D02*
X138510000Y-105740000D01*
X145115000Y-117125000D02*
X146365000Y-117125000D01*
X145740000Y-117750000D02*
X145740000Y-116500000D01*
X152695563Y-116260000D02*
X153760000Y-115195563D01*
X144304437Y-116260000D02*
X143240000Y-115195563D01*
X144304437Y-116260000D02*
X146990000Y-116260000D01*
X152695563Y-116260000D02*
X150010000Y-116260000D01*
X153760000Y-115195563D02*
X153760000Y-105740000D01*
X143240000Y-115195563D02*
X143240000Y-105740000D01*
X143240000Y-105740000D02*
X146990000Y-105740000D01*
X153760000Y-105740000D02*
X150010000Y-105740000D01*
X156615000Y-117125000D02*
X157865000Y-117125000D01*
X157240000Y-117750000D02*
X157240000Y-116500000D01*
X164195563Y-116260000D02*
X165260000Y-115195563D01*
X155804437Y-116260000D02*
X154740000Y-115195563D01*
X155804437Y-116260000D02*
X158490000Y-116260000D01*
X164195563Y-116260000D02*
X161510000Y-116260000D01*
X165260000Y-115195563D02*
X165260000Y-105740000D01*
X154740000Y-115195563D02*
X154740000Y-105740000D01*
X154740000Y-105740000D02*
X158490000Y-105740000D01*
X165260000Y-105740000D02*
X161510000Y-105740000D01*
X135385000Y-122375000D02*
X134135000Y-122375000D01*
X134760000Y-121750000D02*
X134760000Y-123000000D01*
X127804437Y-123240000D02*
X126740000Y-124304437D01*
X136195563Y-123240000D02*
X137260000Y-124304437D01*
X136195563Y-123240000D02*
X133510000Y-123240000D01*
X127804437Y-123240000D02*
X130490000Y-123240000D01*
X126740000Y-124304437D02*
X126740000Y-133760000D01*
X137260000Y-124304437D02*
X137260000Y-133760000D01*
X137260000Y-133760000D02*
X133510000Y-133760000D01*
X126740000Y-133760000D02*
X130490000Y-133760000D01*
X165985000Y-122375000D02*
X164735000Y-122375000D01*
X165360000Y-121750000D02*
X165360000Y-123000000D01*
X158404437Y-123240000D02*
X157340000Y-124304437D01*
X166795563Y-123240000D02*
X167860000Y-124304437D01*
X166795563Y-123240000D02*
X164110000Y-123240000D01*
X158404437Y-123240000D02*
X161090000Y-123240000D01*
X157340000Y-124304437D02*
X157340000Y-133760000D01*
X167860000Y-124304437D02*
X167860000Y-133760000D01*
X167860000Y-133760000D02*
X164110000Y-133760000D01*
X157340000Y-133760000D02*
X161090000Y-133760000D01*
D12*
X121700000Y-84725000D02*
X121700000Y-83125000D01*
X121700000Y-83125000D02*
X120100000Y-83125000D01*
X120100000Y-83125000D02*
X120100000Y-84725000D01*
X120100000Y-84725000D02*
X121700000Y-84725000D01*
D10*
X120541421Y-82725000D02*
G75*
G03*
X120541421Y-82725000I-141421J0D01*
G01*
D13*
X124100000Y-94390000D02*
X121650000Y-94390000D01*
X122300000Y-97610000D02*
X124100000Y-97610000D01*
D14*
X128400000Y-108575000D02*
X118500000Y-108575000D01*
X128400000Y-121225000D02*
X128400000Y-108575000D01*
X118500000Y-121225000D02*
X128400000Y-121225000D01*
X118500000Y-108575000D02*
X118500000Y-121225000D01*
D10*
X128406000Y-119472000D02*
X127390000Y-119980000D01*
X127390000Y-119980000D02*
X128406000Y-120488000D01*
X128660000Y-119980000D02*
G75*
G03*
X128660000Y-119980000I-254000J0D01*
G01*
D14*
X145200000Y-92850000D02*
X145200000Y-90350000D01*
X141200000Y-92850000D02*
X145200000Y-92850000D01*
X141200000Y-90350000D02*
X141200000Y-92850000D01*
X145200000Y-90350000D02*
X141200000Y-90350000D01*
D13*
X169702064Y-97960000D02*
X168497936Y-97960000D01*
X169702064Y-95240000D02*
X168497936Y-95240000D01*
X156620000Y-123290000D02*
X156620000Y-134910000D01*
X137980000Y-123290000D02*
X137980000Y-134910000D01*
X137980000Y-123290000D02*
X156620000Y-123290000D01*
X137980000Y-134910000D02*
X156620000Y-134910000D01*
X166790000Y-105380000D02*
X178410000Y-105380000D01*
X166790000Y-124020000D02*
X178410000Y-124020000D01*
X166790000Y-124020000D02*
X166790000Y-105380000D01*
X178410000Y-124020000D02*
X178410000Y-105380000D01*
X134840000Y-118997936D02*
X134840000Y-120202064D01*
X137560000Y-118997936D02*
X137560000Y-120202064D01*
X128540000Y-105297936D02*
X128540000Y-106502064D01*
X131260000Y-105297936D02*
X131260000Y-106502064D01*
X157565000Y-92110000D02*
X157090000Y-92110000D01*
X157090000Y-92110000D02*
X157090000Y-91635000D01*
X160835000Y-87890000D02*
X161310000Y-87890000D01*
X161310000Y-87890000D02*
X161310000Y-88365000D01*
X157565000Y-87890000D02*
X157090000Y-87890000D01*
X157090000Y-87890000D02*
X157090000Y-88365000D01*
X160835000Y-92110000D02*
X161310000Y-92110000D01*
X174402064Y-97360000D02*
X173197936Y-97360000D01*
X174402064Y-94640000D02*
X173197936Y-94640000D01*
X124640000Y-89102064D02*
X124640000Y-87897936D01*
X127360000Y-89102064D02*
X127360000Y-87897936D01*
X125540000Y-97202064D02*
X125540000Y-95997936D01*
X128260000Y-97202064D02*
X128260000Y-95997936D01*
X120697936Y-93660000D02*
X121902064Y-93660000D01*
X120697936Y-90940000D02*
X121902064Y-90940000D01*
X165490000Y-100737221D02*
X165490000Y-101062779D01*
X166510000Y-100737221D02*
X166510000Y-101062779D01*
X166500000Y-103700000D02*
G75*
G03*
X166500000Y-103700000I-700000J0D01*
G01*
X161200000Y-98300000D02*
G75*
G03*
X161200000Y-98300000I-700000J0D01*
G01*
X145200000Y-99700000D02*
G75*
G03*
X145200000Y-99700000I-700000J0D01*
G01*
X154100000Y-90900000D02*
G75*
G03*
X154100000Y-90900000I-700000J0D01*
G01*
X155600000Y-92400000D02*
G75*
G03*
X155600000Y-92400000I-700000J0D01*
G01*
X120113240Y-86453600D02*
G75*
G03*
X120113240Y-86453600I-50000J0D01*
G01*
X123780000Y-89830000D02*
X120380000Y-89830000D01*
X123780000Y-86430000D02*
X120380000Y-86430000D01*
X169702064Y-98440000D02*
X168497936Y-98440000D01*
X169702064Y-101160000D02*
X168497936Y-101160000D01*
X174402064Y-91440000D02*
X173197936Y-91440000D01*
X174402064Y-94160000D02*
X173197936Y-94160000D01*
M02*
