G04 #@! TF.GenerationSoftware,KiCad,Pcbnew,5.99.0-unknown-dd374e12a~102~ubuntu20.04.1*
G04 #@! TF.CreationDate,2020-12-04T17:09:39-08:00*
G04 #@! TF.ProjectId,BLDC,424c4443-2e6b-4696-9361-645f70636258,rev?*
G04 #@! TF.SameCoordinates,Original*
G04 #@! TF.FileFunction,Legend,Bot*
G04 #@! TF.FilePolarity,Positive*
%FSLAX46Y46*%
G04 Gerber Fmt 4.6, Leading zero omitted, Abs format (unit mm)*
G04 Created by KiCad (PCBNEW 5.99.0-unknown-dd374e12a~102~ubuntu20.04.1) date 2020-12-04 17:09:39*
%MOMM*%
%LPD*%
G01*
G04 APERTURE LIST*
%ADD10C,0.300000*%
%ADD11C,0.150000*%
%ADD12C,0.120000*%
%ADD13C,0.200000*%
%ADD14C,0.254000*%
G04 APERTURE END LIST*
D10*
X157600000Y-83000000D02*
G75*
G03*
X157600000Y-83000000I-200000J0D01*
G01*
D11*
X169400000Y-104100000D02*
X170400000Y-104100000D01*
X169400000Y-105100000D02*
X170400000Y-105100000D01*
X169900000Y-105100000D02*
X169400000Y-104100000D01*
X170400000Y-105100000D02*
X169900000Y-105100000D01*
X169400000Y-105100000D02*
X169400000Y-104900000D01*
X170400000Y-104100000D02*
X169900000Y-105100000D01*
X148500000Y-124000000D02*
X148300000Y-124000000D01*
X147500000Y-123000000D02*
X148500000Y-123500000D01*
X147500000Y-124000000D02*
X147500000Y-123000000D01*
X148500000Y-123500000D02*
X147500000Y-124000000D01*
X148500000Y-123000000D02*
X148500000Y-123500000D01*
X148500000Y-124000000D02*
X148500000Y-123000000D01*
D10*
X169700000Y-111200000D02*
G75*
G03*
X169700000Y-111200000I-200000J0D01*
G01*
X145500000Y-102000000D02*
G75*
G03*
X145500000Y-102000000I-200000J0D01*
G01*
X122000000Y-124600000D02*
G75*
G03*
X122000000Y-124600000I-200000J0D01*
G01*
X122000000Y-117400000D02*
G75*
G03*
X122000000Y-117400000I-200000J0D01*
G01*
X122000000Y-110200000D02*
G75*
G03*
X122000000Y-110200000I-200000J0D01*
G01*
X138900000Y-95300000D02*
G75*
G03*
X138900000Y-95300000I-200000J0D01*
G01*
X145700000Y-107800000D02*
G75*
G03*
X145700000Y-107800000I-200000J0D01*
G01*
D11*
X149690476Y-81461904D02*
X149690476Y-80661904D01*
X149385714Y-80661904D01*
X149309523Y-80700000D01*
X149271428Y-80738095D01*
X149233333Y-80814285D01*
X149233333Y-80928571D01*
X149271428Y-81004761D01*
X149309523Y-81042857D01*
X149385714Y-81080952D01*
X149690476Y-81080952D01*
X148623809Y-81042857D02*
X148509523Y-81080952D01*
X148471428Y-81119047D01*
X148433333Y-81195238D01*
X148433333Y-81309523D01*
X148471428Y-81385714D01*
X148509523Y-81423809D01*
X148585714Y-81461904D01*
X148890476Y-81461904D01*
X148890476Y-80661904D01*
X148623809Y-80661904D01*
X148547619Y-80700000D01*
X148509523Y-80738095D01*
X148471428Y-80814285D01*
X148471428Y-80890476D01*
X148509523Y-80966666D01*
X148547619Y-81004761D01*
X148623809Y-81042857D01*
X148890476Y-81042857D01*
X147938095Y-80661904D02*
X147861904Y-80661904D01*
X147785714Y-80700000D01*
X147747619Y-80738095D01*
X147709523Y-80814285D01*
X147671428Y-80966666D01*
X147671428Y-81157142D01*
X147709523Y-81309523D01*
X147747619Y-81385714D01*
X147785714Y-81423809D01*
X147861904Y-81461904D01*
X147938095Y-81461904D01*
X148014285Y-81423809D01*
X148052380Y-81385714D01*
X148090476Y-81309523D01*
X148128571Y-81157142D01*
X148128571Y-80966666D01*
X148090476Y-80814285D01*
X148052380Y-80738095D01*
X148014285Y-80700000D01*
X147938095Y-80661904D01*
X144333333Y-82661904D02*
X144333333Y-81861904D01*
X144028571Y-81861904D01*
X143952380Y-81900000D01*
X143914285Y-81938095D01*
X143876190Y-82014285D01*
X143876190Y-82128571D01*
X143914285Y-82204761D01*
X143952380Y-82242857D01*
X144028571Y-82280952D01*
X144333333Y-82280952D01*
X143571428Y-82433333D02*
X143190476Y-82433333D01*
X143647619Y-82661904D02*
X143380952Y-81861904D01*
X143114285Y-82661904D01*
X142923809Y-81861904D02*
X142390476Y-81861904D01*
X142733333Y-82661904D01*
D12*
X140100000Y-82471428D02*
X140100000Y-81871428D01*
X139871428Y-81871428D01*
X139814285Y-81900000D01*
X139785714Y-81928571D01*
X139757142Y-81985714D01*
X139757142Y-82071428D01*
X139785714Y-82128571D01*
X139814285Y-82157142D01*
X139871428Y-82185714D01*
X140100000Y-82185714D01*
X139528571Y-82300000D02*
X139242857Y-82300000D01*
X139585714Y-82471428D02*
X139385714Y-81871428D01*
X139185714Y-82471428D01*
X138700000Y-81871428D02*
X138985714Y-81871428D01*
X139014285Y-82157142D01*
X138985714Y-82128571D01*
X138928571Y-82100000D01*
X138785714Y-82100000D01*
X138728571Y-82128571D01*
X138700000Y-82157142D01*
X138671428Y-82214285D01*
X138671428Y-82357142D01*
X138700000Y-82414285D01*
X138728571Y-82442857D01*
X138785714Y-82471428D01*
X138928571Y-82471428D01*
X138985714Y-82442857D01*
X139014285Y-82414285D01*
X140100000Y-81371428D02*
X140100000Y-80771428D01*
X139871428Y-80771428D01*
X139814285Y-80800000D01*
X139785714Y-80828571D01*
X139757142Y-80885714D01*
X139757142Y-80971428D01*
X139785714Y-81028571D01*
X139814285Y-81057142D01*
X139871428Y-81085714D01*
X140100000Y-81085714D01*
X139528571Y-81200000D02*
X139242857Y-81200000D01*
X139585714Y-81371428D02*
X139385714Y-80771428D01*
X139185714Y-81371428D01*
X138728571Y-80971428D02*
X138728571Y-81371428D01*
X138871428Y-80742857D02*
X139014285Y-81171428D01*
X138642857Y-81171428D01*
D11*
X138133333Y-82661904D02*
X138133333Y-81861904D01*
X137828571Y-81861904D01*
X137752380Y-81900000D01*
X137714285Y-81938095D01*
X137676190Y-82014285D01*
X137676190Y-82128571D01*
X137714285Y-82204761D01*
X137752380Y-82242857D01*
X137828571Y-82280952D01*
X138133333Y-82280952D01*
X137371428Y-82433333D02*
X136990476Y-82433333D01*
X137447619Y-82661904D02*
X137180952Y-81861904D01*
X136914285Y-82661904D01*
X136723809Y-81861904D02*
X136228571Y-81861904D01*
X136495238Y-82166666D01*
X136380952Y-82166666D01*
X136304761Y-82204761D01*
X136266666Y-82242857D01*
X136228571Y-82319047D01*
X136228571Y-82509523D01*
X136266666Y-82585714D01*
X136304761Y-82623809D01*
X136380952Y-82661904D01*
X136609523Y-82661904D01*
X136685714Y-82623809D01*
X136723809Y-82585714D01*
X147090476Y-81461904D02*
X147090476Y-80661904D01*
X146785714Y-80661904D01*
X146709523Y-80700000D01*
X146671428Y-80738095D01*
X146633333Y-80814285D01*
X146633333Y-80928571D01*
X146671428Y-81004761D01*
X146709523Y-81042857D01*
X146785714Y-81080952D01*
X147090476Y-81080952D01*
X145833333Y-81385714D02*
X145871428Y-81423809D01*
X145985714Y-81461904D01*
X146061904Y-81461904D01*
X146176190Y-81423809D01*
X146252380Y-81347619D01*
X146290476Y-81271428D01*
X146328571Y-81119047D01*
X146328571Y-81004761D01*
X146290476Y-80852380D01*
X146252380Y-80776190D01*
X146176190Y-80700000D01*
X146061904Y-80661904D01*
X145985714Y-80661904D01*
X145871428Y-80700000D01*
X145833333Y-80738095D01*
X145147619Y-80928571D02*
X145147619Y-81461904D01*
X145338095Y-80623809D02*
X145528571Y-81195238D01*
X145033333Y-81195238D01*
X144333333Y-81461904D02*
X144333333Y-80661904D01*
X144028571Y-80661904D01*
X143952380Y-80700000D01*
X143914285Y-80738095D01*
X143876190Y-80814285D01*
X143876190Y-80928571D01*
X143914285Y-81004761D01*
X143952380Y-81042857D01*
X144028571Y-81080952D01*
X144333333Y-81080952D01*
X143571428Y-81233333D02*
X143190476Y-81233333D01*
X143647619Y-81461904D02*
X143380952Y-80661904D01*
X143114285Y-81461904D01*
X142504761Y-80661904D02*
X142657142Y-80661904D01*
X142733333Y-80700000D01*
X142771428Y-80738095D01*
X142847619Y-80852380D01*
X142885714Y-81004761D01*
X142885714Y-81309523D01*
X142847619Y-81385714D01*
X142809523Y-81423809D01*
X142733333Y-81461904D01*
X142580952Y-81461904D01*
X142504761Y-81423809D01*
X142466666Y-81385714D01*
X142428571Y-81309523D01*
X142428571Y-81119047D01*
X142466666Y-81042857D01*
X142504761Y-81004761D01*
X142580952Y-80966666D01*
X142733333Y-80966666D01*
X142809523Y-81004761D01*
X142847619Y-81042857D01*
X142885714Y-81119047D01*
D12*
X149842857Y-82571428D02*
X149842857Y-81971428D01*
X149614285Y-81971428D01*
X149557142Y-82000000D01*
X149528571Y-82028571D01*
X149500000Y-82085714D01*
X149500000Y-82171428D01*
X149528571Y-82228571D01*
X149557142Y-82257142D01*
X149614285Y-82285714D01*
X149842857Y-82285714D01*
X149042857Y-82257142D02*
X148957142Y-82285714D01*
X148928571Y-82314285D01*
X148900000Y-82371428D01*
X148900000Y-82457142D01*
X148928571Y-82514285D01*
X148957142Y-82542857D01*
X149014285Y-82571428D01*
X149242857Y-82571428D01*
X149242857Y-81971428D01*
X149042857Y-81971428D01*
X148985714Y-82000000D01*
X148957142Y-82028571D01*
X148928571Y-82085714D01*
X148928571Y-82142857D01*
X148957142Y-82200000D01*
X148985714Y-82228571D01*
X149042857Y-82257142D01*
X149242857Y-82257142D01*
X148328571Y-82571428D02*
X148671428Y-82571428D01*
X148500000Y-82571428D02*
X148500000Y-81971428D01*
X148557142Y-82057142D01*
X148614285Y-82114285D01*
X148671428Y-82142857D01*
D11*
X147090476Y-82661904D02*
X147090476Y-81861904D01*
X146785714Y-81861904D01*
X146709523Y-81900000D01*
X146671428Y-81938095D01*
X146633333Y-82014285D01*
X146633333Y-82128571D01*
X146671428Y-82204761D01*
X146709523Y-82242857D01*
X146785714Y-82280952D01*
X147090476Y-82280952D01*
X145833333Y-82585714D02*
X145871428Y-82623809D01*
X145985714Y-82661904D01*
X146061904Y-82661904D01*
X146176190Y-82623809D01*
X146252380Y-82547619D01*
X146290476Y-82471428D01*
X146328571Y-82319047D01*
X146328571Y-82204761D01*
X146290476Y-82052380D01*
X146252380Y-81976190D01*
X146176190Y-81900000D01*
X146061904Y-81861904D01*
X145985714Y-81861904D01*
X145871428Y-81900000D01*
X145833333Y-81938095D01*
X145109523Y-81861904D02*
X145490476Y-81861904D01*
X145528571Y-82242857D01*
X145490476Y-82204761D01*
X145414285Y-82166666D01*
X145223809Y-82166666D01*
X145147619Y-82204761D01*
X145109523Y-82242857D01*
X145071428Y-82319047D01*
X145071428Y-82509523D01*
X145109523Y-82585714D01*
X145147619Y-82623809D01*
X145223809Y-82661904D01*
X145414285Y-82661904D01*
X145490476Y-82623809D01*
X145528571Y-82585714D01*
X137809523Y-80700000D02*
X137885714Y-80661904D01*
X138000000Y-80661904D01*
X138114285Y-80700000D01*
X138190476Y-80776190D01*
X138228571Y-80852380D01*
X138266666Y-81004761D01*
X138266666Y-81119047D01*
X138228571Y-81271428D01*
X138190476Y-81347619D01*
X138114285Y-81423809D01*
X138000000Y-81461904D01*
X137923809Y-81461904D01*
X137809523Y-81423809D01*
X137771428Y-81385714D01*
X137771428Y-81119047D01*
X137923809Y-81119047D01*
X137428571Y-81461904D02*
X137428571Y-80661904D01*
X136971428Y-81461904D01*
X136971428Y-80661904D01*
X136590476Y-81461904D02*
X136590476Y-80661904D01*
X136400000Y-80661904D01*
X136285714Y-80700000D01*
X136209523Y-80776190D01*
X136171428Y-80852380D01*
X136133333Y-81004761D01*
X136133333Y-81119047D01*
X136171428Y-81271428D01*
X136209523Y-81347619D01*
X136285714Y-81423809D01*
X136400000Y-81461904D01*
X136590476Y-81461904D01*
D12*
X158442857Y-81471428D02*
X158071428Y-81471428D01*
X158271428Y-81700000D01*
X158185714Y-81700000D01*
X158128571Y-81728571D01*
X158100000Y-81757142D01*
X158071428Y-81814285D01*
X158071428Y-81957142D01*
X158100000Y-82014285D01*
X158128571Y-82042857D01*
X158185714Y-82071428D01*
X158357142Y-82071428D01*
X158414285Y-82042857D01*
X158442857Y-82014285D01*
X157900000Y-81471428D02*
X157700000Y-82071428D01*
X157500000Y-81471428D01*
X157357142Y-81471428D02*
X156985714Y-81471428D01*
X157185714Y-81700000D01*
X157100000Y-81700000D01*
X157042857Y-81728571D01*
X157014285Y-81757142D01*
X156985714Y-81814285D01*
X156985714Y-81957142D01*
X157014285Y-82014285D01*
X157042857Y-82042857D01*
X157100000Y-82071428D01*
X157271428Y-82071428D01*
X157328571Y-82042857D01*
X157357142Y-82014285D01*
X158442857Y-80571428D02*
X158071428Y-80571428D01*
X158271428Y-80800000D01*
X158185714Y-80800000D01*
X158128571Y-80828571D01*
X158100000Y-80857142D01*
X158071428Y-80914285D01*
X158071428Y-81057142D01*
X158100000Y-81114285D01*
X158128571Y-81142857D01*
X158185714Y-81171428D01*
X158357142Y-81171428D01*
X158414285Y-81142857D01*
X158442857Y-81114285D01*
X157900000Y-80571428D02*
X157700000Y-81171428D01*
X157500000Y-80571428D01*
X157357142Y-80571428D02*
X156985714Y-80571428D01*
X157185714Y-80800000D01*
X157100000Y-80800000D01*
X157042857Y-80828571D01*
X157014285Y-80857142D01*
X156985714Y-80914285D01*
X156985714Y-81057142D01*
X157014285Y-81114285D01*
X157042857Y-81142857D01*
X157100000Y-81171428D01*
X157271428Y-81171428D01*
X157328571Y-81142857D01*
X157357142Y-81114285D01*
X153757142Y-80600000D02*
X153814285Y-80571428D01*
X153900000Y-80571428D01*
X153985714Y-80600000D01*
X154042857Y-80657142D01*
X154071428Y-80714285D01*
X154100000Y-80828571D01*
X154100000Y-80914285D01*
X154071428Y-81028571D01*
X154042857Y-81085714D01*
X153985714Y-81142857D01*
X153900000Y-81171428D01*
X153842857Y-81171428D01*
X153757142Y-81142857D01*
X153728571Y-81114285D01*
X153728571Y-80914285D01*
X153842857Y-80914285D01*
X153471428Y-81171428D02*
X153471428Y-80571428D01*
X153128571Y-81171428D01*
X153128571Y-80571428D01*
X152842857Y-81171428D02*
X152842857Y-80571428D01*
X152700000Y-80571428D01*
X152614285Y-80600000D01*
X152557142Y-80657142D01*
X152528571Y-80714285D01*
X152500000Y-80828571D01*
X152500000Y-80914285D01*
X152528571Y-81028571D01*
X152557142Y-81085714D01*
X152614285Y-81142857D01*
X152700000Y-81171428D01*
X152842857Y-81171428D01*
X154014285Y-81942857D02*
X153928571Y-81971428D01*
X153785714Y-81971428D01*
X153728571Y-81942857D01*
X153700000Y-81914285D01*
X153671428Y-81857142D01*
X153671428Y-81800000D01*
X153700000Y-81742857D01*
X153728571Y-81714285D01*
X153785714Y-81685714D01*
X153900000Y-81657142D01*
X153957142Y-81628571D01*
X153985714Y-81600000D01*
X154014285Y-81542857D01*
X154014285Y-81485714D01*
X153985714Y-81428571D01*
X153957142Y-81400000D01*
X153900000Y-81371428D01*
X153757142Y-81371428D01*
X153671428Y-81400000D01*
X153071428Y-81914285D02*
X153100000Y-81942857D01*
X153185714Y-81971428D01*
X153242857Y-81971428D01*
X153328571Y-81942857D01*
X153385714Y-81885714D01*
X153414285Y-81828571D01*
X153442857Y-81714285D01*
X153442857Y-81628571D01*
X153414285Y-81514285D01*
X153385714Y-81457142D01*
X153328571Y-81400000D01*
X153242857Y-81371428D01*
X153185714Y-81371428D01*
X153100000Y-81400000D01*
X153071428Y-81428571D01*
X152528571Y-81971428D02*
X152814285Y-81971428D01*
X152814285Y-81371428D01*
X151657142Y-80700000D02*
X151714285Y-80671428D01*
X151800000Y-80671428D01*
X151885714Y-80700000D01*
X151942857Y-80757142D01*
X151971428Y-80814285D01*
X152000000Y-80928571D01*
X152000000Y-81014285D01*
X151971428Y-81128571D01*
X151942857Y-81185714D01*
X151885714Y-81242857D01*
X151800000Y-81271428D01*
X151742857Y-81271428D01*
X151657142Y-81242857D01*
X151628571Y-81214285D01*
X151628571Y-81014285D01*
X151742857Y-81014285D01*
X151371428Y-81271428D02*
X151371428Y-80671428D01*
X151028571Y-81271428D01*
X151028571Y-80671428D01*
X150742857Y-81271428D02*
X150742857Y-80671428D01*
X150600000Y-80671428D01*
X150514285Y-80700000D01*
X150457142Y-80757142D01*
X150428571Y-80814285D01*
X150400000Y-80928571D01*
X150400000Y-81014285D01*
X150428571Y-81128571D01*
X150457142Y-81185714D01*
X150514285Y-81242857D01*
X150600000Y-81271428D01*
X150742857Y-81271428D01*
D11*
X155023809Y-108222904D02*
X155023809Y-107422904D01*
X154719047Y-107422904D01*
X154642857Y-107461000D01*
X154604761Y-107499095D01*
X154566666Y-107575285D01*
X154566666Y-107689571D01*
X154604761Y-107765761D01*
X154642857Y-107803857D01*
X154719047Y-107841952D01*
X155023809Y-107841952D01*
X154300000Y-107422904D02*
X154109523Y-108222904D01*
X153957142Y-107651476D01*
X153804761Y-108222904D01*
X153614285Y-107422904D01*
X153309523Y-108222904D02*
X153309523Y-107422904D01*
X153042857Y-107994333D01*
X152776190Y-107422904D01*
X152776190Y-108222904D01*
X151938095Y-108146714D02*
X151976190Y-108184809D01*
X152090476Y-108222904D01*
X152166666Y-108222904D01*
X152280952Y-108184809D01*
X152357142Y-108108619D01*
X152395238Y-108032428D01*
X152433333Y-107880047D01*
X152433333Y-107765761D01*
X152395238Y-107613380D01*
X152357142Y-107537190D01*
X152280952Y-107461000D01*
X152166666Y-107422904D01*
X152090476Y-107422904D01*
X151976190Y-107461000D01*
X151938095Y-107499095D01*
X129800000Y-103061904D02*
X129800000Y-102261904D01*
X128961904Y-102985714D02*
X129000000Y-103023809D01*
X129114285Y-103061904D01*
X129190476Y-103061904D01*
X129304761Y-103023809D01*
X129380952Y-102947619D01*
X129419047Y-102871428D01*
X129457142Y-102719047D01*
X129457142Y-102604761D01*
X129419047Y-102452380D01*
X129380952Y-102376190D01*
X129304761Y-102300000D01*
X129190476Y-102261904D01*
X129114285Y-102261904D01*
X129000000Y-102300000D01*
X128961904Y-102338095D01*
X124542857Y-103161904D02*
X124542857Y-102361904D01*
X124200000Y-102933333D02*
X123819047Y-102933333D01*
X124276190Y-103161904D02*
X124009523Y-102361904D01*
X123742857Y-103161904D01*
X127100000Y-100161904D02*
X127100000Y-99361904D01*
X126452380Y-99742857D02*
X126338095Y-99780952D01*
X126300000Y-99819047D01*
X126261904Y-99895238D01*
X126261904Y-100009523D01*
X126300000Y-100085714D01*
X126338095Y-100123809D01*
X126414285Y-100161904D01*
X126719047Y-100161904D01*
X126719047Y-99361904D01*
X126452380Y-99361904D01*
X126376190Y-99400000D01*
X126338095Y-99438095D01*
X126300000Y-99514285D01*
X126300000Y-99590476D01*
X126338095Y-99666666D01*
X126376190Y-99704761D01*
X126452380Y-99742857D01*
X126719047Y-99742857D01*
X145428571Y-98823809D02*
X145314285Y-98861904D01*
X145123809Y-98861904D01*
X145047619Y-98823809D01*
X145009523Y-98785714D01*
X144971428Y-98709523D01*
X144971428Y-98633333D01*
X145009523Y-98557142D01*
X145047619Y-98519047D01*
X145123809Y-98480952D01*
X145276190Y-98442857D01*
X145352380Y-98404761D01*
X145390476Y-98366666D01*
X145428571Y-98290476D01*
X145428571Y-98214285D01*
X145390476Y-98138095D01*
X145352380Y-98100000D01*
X145276190Y-98061904D01*
X145085714Y-98061904D01*
X144971428Y-98100000D01*
X144171428Y-98785714D02*
X144209523Y-98823809D01*
X144323809Y-98861904D01*
X144400000Y-98861904D01*
X144514285Y-98823809D01*
X144590476Y-98747619D01*
X144628571Y-98671428D01*
X144666666Y-98519047D01*
X144666666Y-98404761D01*
X144628571Y-98252380D01*
X144590476Y-98176190D01*
X144514285Y-98100000D01*
X144400000Y-98061904D01*
X144323809Y-98061904D01*
X144209523Y-98100000D01*
X144171428Y-98138095D01*
X143828571Y-98861904D02*
X143828571Y-98061904D01*
X143371428Y-98861904D02*
X143714285Y-98404761D01*
X143371428Y-98061904D02*
X143828571Y-98519047D01*
X153157142Y-98861904D02*
X153157142Y-98061904D01*
X152890476Y-98633333D01*
X152623809Y-98061904D01*
X152623809Y-98861904D01*
X152242857Y-98861904D02*
X152242857Y-98061904D01*
X151900000Y-98823809D02*
X151785714Y-98861904D01*
X151595238Y-98861904D01*
X151519047Y-98823809D01*
X151480952Y-98785714D01*
X151442857Y-98709523D01*
X151442857Y-98633333D01*
X151480952Y-98557142D01*
X151519047Y-98519047D01*
X151595238Y-98480952D01*
X151747619Y-98442857D01*
X151823809Y-98404761D01*
X151861904Y-98366666D01*
X151900000Y-98290476D01*
X151900000Y-98214285D01*
X151861904Y-98138095D01*
X151823809Y-98100000D01*
X151747619Y-98061904D01*
X151557142Y-98061904D01*
X151442857Y-98100000D01*
X150947619Y-98061904D02*
X150795238Y-98061904D01*
X150719047Y-98100000D01*
X150642857Y-98176190D01*
X150604761Y-98328571D01*
X150604761Y-98595238D01*
X150642857Y-98747619D01*
X150719047Y-98823809D01*
X150795238Y-98861904D01*
X150947619Y-98861904D01*
X151023809Y-98823809D01*
X151100000Y-98747619D01*
X151138095Y-98595238D01*
X151138095Y-98328571D01*
X151100000Y-98176190D01*
X151023809Y-98100000D01*
X150947619Y-98061904D01*
X154657142Y-100361904D02*
X154657142Y-99561904D01*
X154390476Y-100133333D01*
X154123809Y-99561904D01*
X154123809Y-100361904D01*
X153590476Y-99561904D02*
X153438095Y-99561904D01*
X153361904Y-99600000D01*
X153285714Y-99676190D01*
X153247619Y-99828571D01*
X153247619Y-100095238D01*
X153285714Y-100247619D01*
X153361904Y-100323809D01*
X153438095Y-100361904D01*
X153590476Y-100361904D01*
X153666666Y-100323809D01*
X153742857Y-100247619D01*
X153780952Y-100095238D01*
X153780952Y-99828571D01*
X153742857Y-99676190D01*
X153666666Y-99600000D01*
X153590476Y-99561904D01*
X152942857Y-100323809D02*
X152828571Y-100361904D01*
X152638095Y-100361904D01*
X152561904Y-100323809D01*
X152523809Y-100285714D01*
X152485714Y-100209523D01*
X152485714Y-100133333D01*
X152523809Y-100057142D01*
X152561904Y-100019047D01*
X152638095Y-99980952D01*
X152790476Y-99942857D01*
X152866666Y-99904761D01*
X152904761Y-99866666D01*
X152942857Y-99790476D01*
X152942857Y-99714285D01*
X152904761Y-99638095D01*
X152866666Y-99600000D01*
X152790476Y-99561904D01*
X152600000Y-99561904D01*
X152485714Y-99600000D01*
X152142857Y-100361904D02*
X152142857Y-99561904D01*
X141433333Y-101085714D02*
X141471428Y-101123809D01*
X141585714Y-101161904D01*
X141661904Y-101161904D01*
X141776190Y-101123809D01*
X141852380Y-101047619D01*
X141890476Y-100971428D01*
X141928571Y-100819047D01*
X141928571Y-100704761D01*
X141890476Y-100552380D01*
X141852380Y-100476190D01*
X141776190Y-100400000D01*
X141661904Y-100361904D01*
X141585714Y-100361904D01*
X141471428Y-100400000D01*
X141433333Y-100438095D01*
X141128571Y-101123809D02*
X141014285Y-101161904D01*
X140823809Y-101161904D01*
X140747619Y-101123809D01*
X140709523Y-101085714D01*
X140671428Y-101009523D01*
X140671428Y-100933333D01*
X140709523Y-100857142D01*
X140747619Y-100819047D01*
X140823809Y-100780952D01*
X140976190Y-100742857D01*
X141052380Y-100704761D01*
X141090476Y-100666666D01*
X141128571Y-100590476D01*
X141128571Y-100514285D01*
X141090476Y-100438095D01*
X141052380Y-100400000D01*
X140976190Y-100361904D01*
X140785714Y-100361904D01*
X140671428Y-100400000D01*
D12*
X151928571Y-82042857D02*
X151842857Y-82071428D01*
X151700000Y-82071428D01*
X151642857Y-82042857D01*
X151614285Y-82014285D01*
X151585714Y-81957142D01*
X151585714Y-81900000D01*
X151614285Y-81842857D01*
X151642857Y-81814285D01*
X151700000Y-81785714D01*
X151814285Y-81757142D01*
X151871428Y-81728571D01*
X151900000Y-81700000D01*
X151928571Y-81642857D01*
X151928571Y-81585714D01*
X151900000Y-81528571D01*
X151871428Y-81500000D01*
X151814285Y-81471428D01*
X151671428Y-81471428D01*
X151585714Y-81500000D01*
X151328571Y-82071428D02*
X151328571Y-81471428D01*
X151185714Y-81471428D01*
X151100000Y-81500000D01*
X151042857Y-81557142D01*
X151014285Y-81614285D01*
X150985714Y-81728571D01*
X150985714Y-81814285D01*
X151014285Y-81928571D01*
X151042857Y-81985714D01*
X151100000Y-82042857D01*
X151185714Y-82071428D01*
X151328571Y-82071428D01*
X150757142Y-81900000D02*
X150471428Y-81900000D01*
X150814285Y-82071428D02*
X150614285Y-81471428D01*
X150414285Y-82071428D01*
D13*
X178500000Y-79000000D02*
G75*
G03*
X178500000Y-79000000I-4000000J0D01*
G01*
X126500000Y-79000000D02*
G75*
G03*
X126500000Y-79000000I-4000000J0D01*
G01*
X178500000Y-131000000D02*
G75*
G03*
X178500000Y-131000000I-4000000J0D01*
G01*
X126500000Y-79000000D02*
G75*
G03*
X126500000Y-79000000I-4000000J0D01*
G01*
X126500000Y-131000000D02*
G75*
G03*
X126500000Y-131000000I-4000000J0D01*
G01*
D11*
X139859523Y-96061904D02*
X139859523Y-96709523D01*
X139821428Y-96785714D01*
X139783333Y-96823809D01*
X139707142Y-96861904D01*
X139554761Y-96861904D01*
X139478571Y-96823809D01*
X139440476Y-96785714D01*
X139402380Y-96709523D01*
X139402380Y-96061904D01*
X138983333Y-96861904D02*
X138830952Y-96861904D01*
X138754761Y-96823809D01*
X138716666Y-96785714D01*
X138640476Y-96671428D01*
X138602380Y-96519047D01*
X138602380Y-96214285D01*
X138640476Y-96138095D01*
X138678571Y-96100000D01*
X138754761Y-96061904D01*
X138907142Y-96061904D01*
X138983333Y-96100000D01*
X139021428Y-96138095D01*
X139059523Y-96214285D01*
X139059523Y-96404761D01*
X139021428Y-96480952D01*
X138983333Y-96519047D01*
X138907142Y-96557142D01*
X138754761Y-96557142D01*
X138678571Y-96519047D01*
X138640476Y-96480952D01*
X138602380Y-96404761D01*
X150061904Y-112885714D02*
X149680952Y-112619047D01*
X150061904Y-112428571D02*
X149261904Y-112428571D01*
X149261904Y-112733333D01*
X149300000Y-112809523D01*
X149338095Y-112847619D01*
X149414285Y-112885714D01*
X149528571Y-112885714D01*
X149604761Y-112847619D01*
X149642857Y-112809523D01*
X149680952Y-112733333D01*
X149680952Y-112428571D01*
X149261904Y-113152380D02*
X149261904Y-113647619D01*
X149566666Y-113380952D01*
X149566666Y-113495238D01*
X149604761Y-113571428D01*
X149642857Y-113609523D01*
X149719047Y-113647619D01*
X149909523Y-113647619D01*
X149985714Y-113609523D01*
X150023809Y-113571428D01*
X150061904Y-113495238D01*
X150061904Y-113266666D01*
X150023809Y-113190476D01*
X149985714Y-113152380D01*
X149338095Y-113952380D02*
X149300000Y-113990476D01*
X149261904Y-114066666D01*
X149261904Y-114257142D01*
X149300000Y-114333333D01*
X149338095Y-114371428D01*
X149414285Y-114409523D01*
X149490476Y-114409523D01*
X149604761Y-114371428D01*
X150061904Y-113914285D01*
X150061904Y-114409523D01*
X164361904Y-109266666D02*
X163980952Y-109000000D01*
X164361904Y-108809523D02*
X163561904Y-108809523D01*
X163561904Y-109114285D01*
X163600000Y-109190476D01*
X163638095Y-109228571D01*
X163714285Y-109266666D01*
X163828571Y-109266666D01*
X163904761Y-109228571D01*
X163942857Y-109190476D01*
X163980952Y-109114285D01*
X163980952Y-108809523D01*
X163828571Y-109952380D02*
X164361904Y-109952380D01*
X163523809Y-109761904D02*
X164095238Y-109571428D01*
X164095238Y-110066666D01*
X167861904Y-109266666D02*
X167480952Y-109000000D01*
X167861904Y-108809523D02*
X167061904Y-108809523D01*
X167061904Y-109114285D01*
X167100000Y-109190476D01*
X167138095Y-109228571D01*
X167214285Y-109266666D01*
X167328571Y-109266666D01*
X167404761Y-109228571D01*
X167442857Y-109190476D01*
X167480952Y-109114285D01*
X167480952Y-108809523D01*
X167061904Y-109952380D02*
X167061904Y-109800000D01*
X167100000Y-109723809D01*
X167138095Y-109685714D01*
X167252380Y-109609523D01*
X167404761Y-109571428D01*
X167709523Y-109571428D01*
X167785714Y-109609523D01*
X167823809Y-109647619D01*
X167861904Y-109723809D01*
X167861904Y-109876190D01*
X167823809Y-109952380D01*
X167785714Y-109990476D01*
X167709523Y-110028571D01*
X167519047Y-110028571D01*
X167442857Y-109990476D01*
X167404761Y-109952380D01*
X167366666Y-109876190D01*
X167366666Y-109723809D01*
X167404761Y-109647619D01*
X167442857Y-109609523D01*
X167519047Y-109571428D01*
X152833333Y-83061904D02*
X153100000Y-82680952D01*
X153290476Y-83061904D02*
X153290476Y-82261904D01*
X152985714Y-82261904D01*
X152909523Y-82300000D01*
X152871428Y-82338095D01*
X152833333Y-82414285D01*
X152833333Y-82528571D01*
X152871428Y-82604761D01*
X152909523Y-82642857D01*
X152985714Y-82680952D01*
X153290476Y-82680952D01*
X152452380Y-83061904D02*
X152300000Y-83061904D01*
X152223809Y-83023809D01*
X152185714Y-82985714D01*
X152109523Y-82871428D01*
X152071428Y-82719047D01*
X152071428Y-82414285D01*
X152109523Y-82338095D01*
X152147619Y-82300000D01*
X152223809Y-82261904D01*
X152376190Y-82261904D01*
X152452380Y-82300000D01*
X152490476Y-82338095D01*
X152528571Y-82414285D01*
X152528571Y-82604761D01*
X152490476Y-82680952D01*
X152452380Y-82719047D01*
X152376190Y-82757142D01*
X152223809Y-82757142D01*
X152147619Y-82719047D01*
X152109523Y-82680952D01*
X152071428Y-82604761D01*
D12*
X156185714Y-81171428D02*
X156385714Y-80885714D01*
X156528571Y-81171428D02*
X156528571Y-80571428D01*
X156300000Y-80571428D01*
X156242857Y-80600000D01*
X156214285Y-80628571D01*
X156185714Y-80685714D01*
X156185714Y-80771428D01*
X156214285Y-80828571D01*
X156242857Y-80857142D01*
X156300000Y-80885714D01*
X156528571Y-80885714D01*
X155985714Y-80571428D02*
X155614285Y-80571428D01*
X155814285Y-80800000D01*
X155728571Y-80800000D01*
X155671428Y-80828571D01*
X155642857Y-80857142D01*
X155614285Y-80914285D01*
X155614285Y-81057142D01*
X155642857Y-81114285D01*
X155671428Y-81142857D01*
X155728571Y-81171428D01*
X155900000Y-81171428D01*
X155957142Y-81142857D01*
X155985714Y-81114285D01*
X155328571Y-81171428D02*
X155214285Y-81171428D01*
X155157142Y-81142857D01*
X155128571Y-81114285D01*
X155071428Y-81028571D01*
X155042857Y-80914285D01*
X155042857Y-80685714D01*
X155071428Y-80628571D01*
X155100000Y-80600000D01*
X155157142Y-80571428D01*
X155271428Y-80571428D01*
X155328571Y-80600000D01*
X155357142Y-80628571D01*
X155385714Y-80685714D01*
X155385714Y-80828571D01*
X155357142Y-80885714D01*
X155328571Y-80914285D01*
X155271428Y-80942857D01*
X155157142Y-80942857D01*
X155100000Y-80914285D01*
X155071428Y-80885714D01*
X155042857Y-80828571D01*
D11*
X152361904Y-118985714D02*
X151980952Y-118719047D01*
X152361904Y-118528571D02*
X151561904Y-118528571D01*
X151561904Y-118833333D01*
X151600000Y-118909523D01*
X151638095Y-118947619D01*
X151714285Y-118985714D01*
X151828571Y-118985714D01*
X151904761Y-118947619D01*
X151942857Y-118909523D01*
X151980952Y-118833333D01*
X151980952Y-118528571D01*
X151561904Y-119671428D02*
X151561904Y-119519047D01*
X151600000Y-119442857D01*
X151638095Y-119404761D01*
X151752380Y-119328571D01*
X151904761Y-119290476D01*
X152209523Y-119290476D01*
X152285714Y-119328571D01*
X152323809Y-119366666D01*
X152361904Y-119442857D01*
X152361904Y-119595238D01*
X152323809Y-119671428D01*
X152285714Y-119709523D01*
X152209523Y-119747619D01*
X152019047Y-119747619D01*
X151942857Y-119709523D01*
X151904761Y-119671428D01*
X151866666Y-119595238D01*
X151866666Y-119442857D01*
X151904761Y-119366666D01*
X151942857Y-119328571D01*
X152019047Y-119290476D01*
X152361904Y-120509523D02*
X152361904Y-120052380D01*
X152361904Y-120280952D02*
X151561904Y-120280952D01*
X151676190Y-120204761D01*
X151752380Y-120128571D01*
X151790476Y-120052380D01*
D12*
X147371428Y-99714285D02*
X147085714Y-99514285D01*
X147371428Y-99371428D02*
X146771428Y-99371428D01*
X146771428Y-99600000D01*
X146800000Y-99657142D01*
X146828571Y-99685714D01*
X146885714Y-99714285D01*
X146971428Y-99714285D01*
X147028571Y-99685714D01*
X147057142Y-99657142D01*
X147085714Y-99600000D01*
X147085714Y-99371428D01*
X146771428Y-100228571D02*
X146771428Y-100114285D01*
X146800000Y-100057142D01*
X146828571Y-100028571D01*
X146914285Y-99971428D01*
X147028571Y-99942857D01*
X147257142Y-99942857D01*
X147314285Y-99971428D01*
X147342857Y-100000000D01*
X147371428Y-100057142D01*
X147371428Y-100171428D01*
X147342857Y-100228571D01*
X147314285Y-100257142D01*
X147257142Y-100285714D01*
X147114285Y-100285714D01*
X147057142Y-100257142D01*
X147028571Y-100228571D01*
X147000000Y-100171428D01*
X147000000Y-100057142D01*
X147028571Y-100000000D01*
X147057142Y-99971428D01*
X147114285Y-99942857D01*
X146771428Y-100485714D02*
X146771428Y-100857142D01*
X147000000Y-100657142D01*
X147000000Y-100742857D01*
X147028571Y-100800000D01*
X147057142Y-100828571D01*
X147114285Y-100857142D01*
X147257142Y-100857142D01*
X147314285Y-100828571D01*
X147342857Y-100800000D01*
X147371428Y-100742857D01*
X147371428Y-100571428D01*
X147342857Y-100514285D01*
X147314285Y-100485714D01*
D11*
X152014285Y-109885714D02*
X152052380Y-109923809D01*
X152166666Y-109961904D01*
X152242857Y-109961904D01*
X152357142Y-109923809D01*
X152433333Y-109847619D01*
X152471428Y-109771428D01*
X152509523Y-109619047D01*
X152509523Y-109504761D01*
X152471428Y-109352380D01*
X152433333Y-109276190D01*
X152357142Y-109200000D01*
X152242857Y-109161904D01*
X152166666Y-109161904D01*
X152052380Y-109200000D01*
X152014285Y-109238095D01*
X151328571Y-109161904D02*
X151480952Y-109161904D01*
X151557142Y-109200000D01*
X151595238Y-109238095D01*
X151671428Y-109352380D01*
X151709523Y-109504761D01*
X151709523Y-109809523D01*
X151671428Y-109885714D01*
X151633333Y-109923809D01*
X151557142Y-109961904D01*
X151404761Y-109961904D01*
X151328571Y-109923809D01*
X151290476Y-109885714D01*
X151252380Y-109809523D01*
X151252380Y-109619047D01*
X151290476Y-109542857D01*
X151328571Y-109504761D01*
X151404761Y-109466666D01*
X151557142Y-109466666D01*
X151633333Y-109504761D01*
X151671428Y-109542857D01*
X151709523Y-109619047D01*
X150947619Y-109238095D02*
X150909523Y-109200000D01*
X150833333Y-109161904D01*
X150642857Y-109161904D01*
X150566666Y-109200000D01*
X150528571Y-109238095D01*
X150490476Y-109314285D01*
X150490476Y-109390476D01*
X150528571Y-109504761D01*
X150985714Y-109961904D01*
X150490476Y-109961904D01*
X136085714Y-85685714D02*
X136123809Y-85647619D01*
X136161904Y-85533333D01*
X136161904Y-85457142D01*
X136123809Y-85342857D01*
X136047619Y-85266666D01*
X135971428Y-85228571D01*
X135819047Y-85190476D01*
X135704761Y-85190476D01*
X135552380Y-85228571D01*
X135476190Y-85266666D01*
X135400000Y-85342857D01*
X135361904Y-85457142D01*
X135361904Y-85533333D01*
X135400000Y-85647619D01*
X135438095Y-85685714D01*
X135361904Y-85952380D02*
X135361904Y-86447619D01*
X135666666Y-86180952D01*
X135666666Y-86295238D01*
X135704761Y-86371428D01*
X135742857Y-86409523D01*
X135819047Y-86447619D01*
X136009523Y-86447619D01*
X136085714Y-86409523D01*
X136123809Y-86371428D01*
X136161904Y-86295238D01*
X136161904Y-86066666D01*
X136123809Y-85990476D01*
X136085714Y-85952380D01*
X135704761Y-86904761D02*
X135666666Y-86828571D01*
X135628571Y-86790476D01*
X135552380Y-86752380D01*
X135514285Y-86752380D01*
X135438095Y-86790476D01*
X135400000Y-86828571D01*
X135361904Y-86904761D01*
X135361904Y-87057142D01*
X135400000Y-87133333D01*
X135438095Y-87171428D01*
X135514285Y-87209523D01*
X135552380Y-87209523D01*
X135628571Y-87171428D01*
X135666666Y-87133333D01*
X135704761Y-87057142D01*
X135704761Y-86904761D01*
X135742857Y-86828571D01*
X135780952Y-86790476D01*
X135857142Y-86752380D01*
X136009523Y-86752380D01*
X136085714Y-86790476D01*
X136123809Y-86828571D01*
X136161904Y-86904761D01*
X136161904Y-87057142D01*
X136123809Y-87133333D01*
X136085714Y-87171428D01*
X136009523Y-87209523D01*
X135857142Y-87209523D01*
X135780952Y-87171428D01*
X135742857Y-87133333D01*
X135704761Y-87057142D01*
D12*
X151800714Y-83814285D02*
X151829285Y-83842857D01*
X151915000Y-83871428D01*
X151972142Y-83871428D01*
X152057857Y-83842857D01*
X152115000Y-83785714D01*
X152143571Y-83728571D01*
X152172142Y-83614285D01*
X152172142Y-83528571D01*
X152143571Y-83414285D01*
X152115000Y-83357142D01*
X152057857Y-83300000D01*
X151972142Y-83271428D01*
X151915000Y-83271428D01*
X151829285Y-83300000D01*
X151800714Y-83328571D01*
X151286428Y-83271428D02*
X151400714Y-83271428D01*
X151457857Y-83300000D01*
X151486428Y-83328571D01*
X151543571Y-83414285D01*
X151572142Y-83528571D01*
X151572142Y-83757142D01*
X151543571Y-83814285D01*
X151515000Y-83842857D01*
X151457857Y-83871428D01*
X151343571Y-83871428D01*
X151286428Y-83842857D01*
X151257857Y-83814285D01*
X151229285Y-83757142D01*
X151229285Y-83614285D01*
X151257857Y-83557142D01*
X151286428Y-83528571D01*
X151343571Y-83500000D01*
X151457857Y-83500000D01*
X151515000Y-83528571D01*
X151543571Y-83557142D01*
X151572142Y-83614285D01*
X151029285Y-83271428D02*
X150629285Y-83271428D01*
X150886428Y-83871428D01*
D11*
X141914285Y-107085714D02*
X141952380Y-107123809D01*
X142066666Y-107161904D01*
X142142857Y-107161904D01*
X142257142Y-107123809D01*
X142333333Y-107047619D01*
X142371428Y-106971428D01*
X142409523Y-106819047D01*
X142409523Y-106704761D01*
X142371428Y-106552380D01*
X142333333Y-106476190D01*
X142257142Y-106400000D01*
X142142857Y-106361904D01*
X142066666Y-106361904D01*
X141952380Y-106400000D01*
X141914285Y-106438095D01*
X141152380Y-107161904D02*
X141609523Y-107161904D01*
X141380952Y-107161904D02*
X141380952Y-106361904D01*
X141457142Y-106476190D01*
X141533333Y-106552380D01*
X141609523Y-106590476D01*
X140428571Y-106361904D02*
X140809523Y-106361904D01*
X140847619Y-106742857D01*
X140809523Y-106704761D01*
X140733333Y-106666666D01*
X140542857Y-106666666D01*
X140466666Y-106704761D01*
X140428571Y-106742857D01*
X140390476Y-106819047D01*
X140390476Y-107009523D01*
X140428571Y-107085714D01*
X140466666Y-107123809D01*
X140542857Y-107161904D01*
X140733333Y-107161904D01*
X140809523Y-107123809D01*
X140847619Y-107085714D01*
X141914285Y-122585714D02*
X141952380Y-122623809D01*
X142066666Y-122661904D01*
X142142857Y-122661904D01*
X142257142Y-122623809D01*
X142333333Y-122547619D01*
X142371428Y-122471428D01*
X142409523Y-122319047D01*
X142409523Y-122204761D01*
X142371428Y-122052380D01*
X142333333Y-121976190D01*
X142257142Y-121900000D01*
X142142857Y-121861904D01*
X142066666Y-121861904D01*
X141952380Y-121900000D01*
X141914285Y-121938095D01*
X141152380Y-122661904D02*
X141609523Y-122661904D01*
X141380952Y-122661904D02*
X141380952Y-121861904D01*
X141457142Y-121976190D01*
X141533333Y-122052380D01*
X141609523Y-122090476D01*
X140695238Y-122204761D02*
X140771428Y-122166666D01*
X140809523Y-122128571D01*
X140847619Y-122052380D01*
X140847619Y-122014285D01*
X140809523Y-121938095D01*
X140771428Y-121900000D01*
X140695238Y-121861904D01*
X140542857Y-121861904D01*
X140466666Y-121900000D01*
X140428571Y-121938095D01*
X140390476Y-122014285D01*
X140390476Y-122052380D01*
X140428571Y-122128571D01*
X140466666Y-122166666D01*
X140542857Y-122204761D01*
X140695238Y-122204761D01*
X140771428Y-122242857D01*
X140809523Y-122280952D01*
X140847619Y-122357142D01*
X140847619Y-122509523D01*
X140809523Y-122585714D01*
X140771428Y-122623809D01*
X140695238Y-122661904D01*
X140542857Y-122661904D01*
X140466666Y-122623809D01*
X140428571Y-122585714D01*
X140390476Y-122509523D01*
X140390476Y-122357142D01*
X140428571Y-122280952D01*
X140466666Y-122242857D01*
X140542857Y-122204761D01*
D12*
X139085714Y-84614285D02*
X139114285Y-84642857D01*
X139200000Y-84671428D01*
X139257142Y-84671428D01*
X139342857Y-84642857D01*
X139400000Y-84585714D01*
X139428571Y-84528571D01*
X139457142Y-84414285D01*
X139457142Y-84328571D01*
X139428571Y-84214285D01*
X139400000Y-84157142D01*
X139342857Y-84100000D01*
X139257142Y-84071428D01*
X139200000Y-84071428D01*
X139114285Y-84100000D01*
X139085714Y-84128571D01*
X138857142Y-84128571D02*
X138828571Y-84100000D01*
X138771428Y-84071428D01*
X138628571Y-84071428D01*
X138571428Y-84100000D01*
X138542857Y-84128571D01*
X138514285Y-84185714D01*
X138514285Y-84242857D01*
X138542857Y-84328571D01*
X138885714Y-84671428D01*
X138514285Y-84671428D01*
X138000000Y-84271428D02*
X138000000Y-84671428D01*
X138142857Y-84042857D02*
X138285714Y-84471428D01*
X137914285Y-84471428D01*
D11*
X139214285Y-98785714D02*
X139252380Y-98823809D01*
X139366666Y-98861904D01*
X139442857Y-98861904D01*
X139557142Y-98823809D01*
X139633333Y-98747619D01*
X139671428Y-98671428D01*
X139709523Y-98519047D01*
X139709523Y-98404761D01*
X139671428Y-98252380D01*
X139633333Y-98176190D01*
X139557142Y-98100000D01*
X139442857Y-98061904D01*
X139366666Y-98061904D01*
X139252380Y-98100000D01*
X139214285Y-98138095D01*
X138909523Y-98138095D02*
X138871428Y-98100000D01*
X138795238Y-98061904D01*
X138604761Y-98061904D01*
X138528571Y-98100000D01*
X138490476Y-98138095D01*
X138452380Y-98214285D01*
X138452380Y-98290476D01*
X138490476Y-98404761D01*
X138947619Y-98861904D01*
X138452380Y-98861904D01*
X137766666Y-98061904D02*
X137919047Y-98061904D01*
X137995238Y-98100000D01*
X138033333Y-98138095D01*
X138109523Y-98252380D01*
X138147619Y-98404761D01*
X138147619Y-98709523D01*
X138109523Y-98785714D01*
X138071428Y-98823809D01*
X137995238Y-98861904D01*
X137842857Y-98861904D01*
X137766666Y-98823809D01*
X137728571Y-98785714D01*
X137690476Y-98709523D01*
X137690476Y-98519047D01*
X137728571Y-98442857D01*
X137766666Y-98404761D01*
X137842857Y-98366666D01*
X137995238Y-98366666D01*
X138071428Y-98404761D01*
X138109523Y-98442857D01*
X138147619Y-98519047D01*
D12*
X139085714Y-83714285D02*
X139114285Y-83742857D01*
X139200000Y-83771428D01*
X139257142Y-83771428D01*
X139342857Y-83742857D01*
X139400000Y-83685714D01*
X139428571Y-83628571D01*
X139457142Y-83514285D01*
X139457142Y-83428571D01*
X139428571Y-83314285D01*
X139400000Y-83257142D01*
X139342857Y-83200000D01*
X139257142Y-83171428D01*
X139200000Y-83171428D01*
X139114285Y-83200000D01*
X139085714Y-83228571D01*
X138857142Y-83228571D02*
X138828571Y-83200000D01*
X138771428Y-83171428D01*
X138628571Y-83171428D01*
X138571428Y-83200000D01*
X138542857Y-83228571D01*
X138514285Y-83285714D01*
X138514285Y-83342857D01*
X138542857Y-83428571D01*
X138885714Y-83771428D01*
X138514285Y-83771428D01*
X138314285Y-83171428D02*
X137914285Y-83171428D01*
X138171428Y-83771428D01*
D11*
X139214285Y-99985714D02*
X139252380Y-100023809D01*
X139366666Y-100061904D01*
X139442857Y-100061904D01*
X139557142Y-100023809D01*
X139633333Y-99947619D01*
X139671428Y-99871428D01*
X139709523Y-99719047D01*
X139709523Y-99604761D01*
X139671428Y-99452380D01*
X139633333Y-99376190D01*
X139557142Y-99300000D01*
X139442857Y-99261904D01*
X139366666Y-99261904D01*
X139252380Y-99300000D01*
X139214285Y-99338095D01*
X138947619Y-99261904D02*
X138452380Y-99261904D01*
X138719047Y-99566666D01*
X138604761Y-99566666D01*
X138528571Y-99604761D01*
X138490476Y-99642857D01*
X138452380Y-99719047D01*
X138452380Y-99909523D01*
X138490476Y-99985714D01*
X138528571Y-100023809D01*
X138604761Y-100061904D01*
X138833333Y-100061904D01*
X138909523Y-100023809D01*
X138947619Y-99985714D01*
X137957142Y-99261904D02*
X137880952Y-99261904D01*
X137804761Y-99300000D01*
X137766666Y-99338095D01*
X137728571Y-99414285D01*
X137690476Y-99566666D01*
X137690476Y-99757142D01*
X137728571Y-99909523D01*
X137766666Y-99985714D01*
X137804761Y-100023809D01*
X137880952Y-100061904D01*
X137957142Y-100061904D01*
X138033333Y-100023809D01*
X138071428Y-99985714D01*
X138109523Y-99909523D01*
X138147619Y-99757142D01*
X138147619Y-99566666D01*
X138109523Y-99414285D01*
X138071428Y-99338095D01*
X138033333Y-99300000D01*
X137957142Y-99261904D01*
X161035714Y-112335714D02*
X161073809Y-112297619D01*
X161111904Y-112183333D01*
X161111904Y-112107142D01*
X161073809Y-111992857D01*
X160997619Y-111916666D01*
X160921428Y-111878571D01*
X160769047Y-111840476D01*
X160654761Y-111840476D01*
X160502380Y-111878571D01*
X160426190Y-111916666D01*
X160350000Y-111992857D01*
X160311904Y-112107142D01*
X160311904Y-112183333D01*
X160350000Y-112297619D01*
X160388095Y-112335714D01*
X160311904Y-112602380D02*
X160311904Y-113097619D01*
X160616666Y-112830952D01*
X160616666Y-112945238D01*
X160654761Y-113021428D01*
X160692857Y-113059523D01*
X160769047Y-113097619D01*
X160959523Y-113097619D01*
X161035714Y-113059523D01*
X161073809Y-113021428D01*
X161111904Y-112945238D01*
X161111904Y-112716666D01*
X161073809Y-112640476D01*
X161035714Y-112602380D01*
X160388095Y-113402380D02*
X160350000Y-113440476D01*
X160311904Y-113516666D01*
X160311904Y-113707142D01*
X160350000Y-113783333D01*
X160388095Y-113821428D01*
X160464285Y-113859523D01*
X160540476Y-113859523D01*
X160654761Y-113821428D01*
X161111904Y-113364285D01*
X161111904Y-113859523D01*
X159885714Y-112335714D02*
X159923809Y-112297619D01*
X159961904Y-112183333D01*
X159961904Y-112107142D01*
X159923809Y-111992857D01*
X159847619Y-111916666D01*
X159771428Y-111878571D01*
X159619047Y-111840476D01*
X159504761Y-111840476D01*
X159352380Y-111878571D01*
X159276190Y-111916666D01*
X159200000Y-111992857D01*
X159161904Y-112107142D01*
X159161904Y-112183333D01*
X159200000Y-112297619D01*
X159238095Y-112335714D01*
X159161904Y-112602380D02*
X159161904Y-113097619D01*
X159466666Y-112830952D01*
X159466666Y-112945238D01*
X159504761Y-113021428D01*
X159542857Y-113059523D01*
X159619047Y-113097619D01*
X159809523Y-113097619D01*
X159885714Y-113059523D01*
X159923809Y-113021428D01*
X159961904Y-112945238D01*
X159961904Y-112716666D01*
X159923809Y-112640476D01*
X159885714Y-112602380D01*
X159161904Y-113783333D02*
X159161904Y-113630952D01*
X159200000Y-113554761D01*
X159238095Y-113516666D01*
X159352380Y-113440476D01*
X159504761Y-113402380D01*
X159809523Y-113402380D01*
X159885714Y-113440476D01*
X159923809Y-113478571D01*
X159961904Y-113554761D01*
X159961904Y-113707142D01*
X159923809Y-113783333D01*
X159885714Y-113821428D01*
X159809523Y-113859523D01*
X159619047Y-113859523D01*
X159542857Y-113821428D01*
X159504761Y-113783333D01*
X159466666Y-113707142D01*
X159466666Y-113554761D01*
X159504761Y-113478571D01*
X159542857Y-113440476D01*
X159619047Y-113402380D01*
X152685714Y-86885714D02*
X152723809Y-86847619D01*
X152761904Y-86733333D01*
X152761904Y-86657142D01*
X152723809Y-86542857D01*
X152647619Y-86466666D01*
X152571428Y-86428571D01*
X152419047Y-86390476D01*
X152304761Y-86390476D01*
X152152380Y-86428571D01*
X152076190Y-86466666D01*
X152000000Y-86542857D01*
X151961904Y-86657142D01*
X151961904Y-86733333D01*
X152000000Y-86847619D01*
X152038095Y-86885714D01*
X151961904Y-87152380D02*
X151961904Y-87647619D01*
X152266666Y-87380952D01*
X152266666Y-87495238D01*
X152304761Y-87571428D01*
X152342857Y-87609523D01*
X152419047Y-87647619D01*
X152609523Y-87647619D01*
X152685714Y-87609523D01*
X152723809Y-87571428D01*
X152761904Y-87495238D01*
X152761904Y-87266666D01*
X152723809Y-87190476D01*
X152685714Y-87152380D01*
X152761904Y-88028571D02*
X152761904Y-88180952D01*
X152723809Y-88257142D01*
X152685714Y-88295238D01*
X152571428Y-88371428D01*
X152419047Y-88409523D01*
X152114285Y-88409523D01*
X152038095Y-88371428D01*
X152000000Y-88333333D01*
X151961904Y-88257142D01*
X151961904Y-88104761D01*
X152000000Y-88028571D01*
X152038095Y-87990476D01*
X152114285Y-87952380D01*
X152304761Y-87952380D01*
X152380952Y-87990476D01*
X152419047Y-88028571D01*
X152457142Y-88104761D01*
X152457142Y-88257142D01*
X152419047Y-88333333D01*
X152380952Y-88371428D01*
X152304761Y-88409523D01*
X137335714Y-85685714D02*
X137373809Y-85647619D01*
X137411904Y-85533333D01*
X137411904Y-85457142D01*
X137373809Y-85342857D01*
X137297619Y-85266666D01*
X137221428Y-85228571D01*
X137069047Y-85190476D01*
X136954761Y-85190476D01*
X136802380Y-85228571D01*
X136726190Y-85266666D01*
X136650000Y-85342857D01*
X136611904Y-85457142D01*
X136611904Y-85533333D01*
X136650000Y-85647619D01*
X136688095Y-85685714D01*
X136878571Y-86371428D02*
X137411904Y-86371428D01*
X136573809Y-86180952D02*
X137145238Y-85990476D01*
X137145238Y-86485714D01*
X136611904Y-86942857D02*
X136611904Y-87019047D01*
X136650000Y-87095238D01*
X136688095Y-87133333D01*
X136764285Y-87171428D01*
X136916666Y-87209523D01*
X137107142Y-87209523D01*
X137259523Y-87171428D01*
X137335714Y-87133333D01*
X137373809Y-87095238D01*
X137411904Y-87019047D01*
X137411904Y-86942857D01*
X137373809Y-86866666D01*
X137335714Y-86828571D01*
X137259523Y-86790476D01*
X137107142Y-86752380D01*
X136916666Y-86752380D01*
X136764285Y-86790476D01*
X136688095Y-86828571D01*
X136650000Y-86866666D01*
X136611904Y-86942857D01*
X145985714Y-110585714D02*
X146023809Y-110547619D01*
X146061904Y-110433333D01*
X146061904Y-110357142D01*
X146023809Y-110242857D01*
X145947619Y-110166666D01*
X145871428Y-110128571D01*
X145719047Y-110090476D01*
X145604761Y-110090476D01*
X145452380Y-110128571D01*
X145376190Y-110166666D01*
X145300000Y-110242857D01*
X145261904Y-110357142D01*
X145261904Y-110433333D01*
X145300000Y-110547619D01*
X145338095Y-110585714D01*
X145528571Y-111271428D02*
X146061904Y-111271428D01*
X145223809Y-111080952D02*
X145795238Y-110890476D01*
X145795238Y-111385714D01*
X145338095Y-111652380D02*
X145300000Y-111690476D01*
X145261904Y-111766666D01*
X145261904Y-111957142D01*
X145300000Y-112033333D01*
X145338095Y-112071428D01*
X145414285Y-112109523D01*
X145490476Y-112109523D01*
X145604761Y-112071428D01*
X146061904Y-111614285D01*
X146061904Y-112109523D01*
D12*
X146785714Y-83614285D02*
X146814285Y-83642857D01*
X146900000Y-83671428D01*
X146957142Y-83671428D01*
X147042857Y-83642857D01*
X147100000Y-83585714D01*
X147128571Y-83528571D01*
X147157142Y-83414285D01*
X147157142Y-83328571D01*
X147128571Y-83214285D01*
X147100000Y-83157142D01*
X147042857Y-83100000D01*
X146957142Y-83071428D01*
X146900000Y-83071428D01*
X146814285Y-83100000D01*
X146785714Y-83128571D01*
X146271428Y-83271428D02*
X146271428Y-83671428D01*
X146414285Y-83042857D02*
X146557142Y-83471428D01*
X146185714Y-83471428D01*
X146014285Y-83071428D02*
X145614285Y-83071428D01*
X145871428Y-83671428D01*
D11*
X155214285Y-94585714D02*
X155252380Y-94623809D01*
X155366666Y-94661904D01*
X155442857Y-94661904D01*
X155557142Y-94623809D01*
X155633333Y-94547619D01*
X155671428Y-94471428D01*
X155709523Y-94319047D01*
X155709523Y-94204761D01*
X155671428Y-94052380D01*
X155633333Y-93976190D01*
X155557142Y-93900000D01*
X155442857Y-93861904D01*
X155366666Y-93861904D01*
X155252380Y-93900000D01*
X155214285Y-93938095D01*
X154528571Y-94128571D02*
X154528571Y-94661904D01*
X154719047Y-93823809D02*
X154909523Y-94395238D01*
X154414285Y-94395238D01*
X154071428Y-94661904D02*
X153919047Y-94661904D01*
X153842857Y-94623809D01*
X153804761Y-94585714D01*
X153728571Y-94471428D01*
X153690476Y-94319047D01*
X153690476Y-94014285D01*
X153728571Y-93938095D01*
X153766666Y-93900000D01*
X153842857Y-93861904D01*
X153995238Y-93861904D01*
X154071428Y-93900000D01*
X154109523Y-93938095D01*
X154147619Y-94014285D01*
X154147619Y-94204761D01*
X154109523Y-94280952D01*
X154071428Y-94319047D01*
X153995238Y-94357142D01*
X153842857Y-94357142D01*
X153766666Y-94319047D01*
X153728571Y-94280952D01*
X153690476Y-94204761D01*
X134514285Y-124185714D02*
X134552380Y-124223809D01*
X134666666Y-124261904D01*
X134742857Y-124261904D01*
X134857142Y-124223809D01*
X134933333Y-124147619D01*
X134971428Y-124071428D01*
X135009523Y-123919047D01*
X135009523Y-123804761D01*
X134971428Y-123652380D01*
X134933333Y-123576190D01*
X134857142Y-123500000D01*
X134742857Y-123461904D01*
X134666666Y-123461904D01*
X134552380Y-123500000D01*
X134514285Y-123538095D01*
X133790476Y-123461904D02*
X134171428Y-123461904D01*
X134209523Y-123842857D01*
X134171428Y-123804761D01*
X134095238Y-123766666D01*
X133904761Y-123766666D01*
X133828571Y-123804761D01*
X133790476Y-123842857D01*
X133752380Y-123919047D01*
X133752380Y-124109523D01*
X133790476Y-124185714D01*
X133828571Y-124223809D01*
X133904761Y-124261904D01*
X134095238Y-124261904D01*
X134171428Y-124223809D01*
X134209523Y-124185714D01*
X133257142Y-123461904D02*
X133180952Y-123461904D01*
X133104761Y-123500000D01*
X133066666Y-123538095D01*
X133028571Y-123614285D01*
X132990476Y-123766666D01*
X132990476Y-123957142D01*
X133028571Y-124109523D01*
X133066666Y-124185714D01*
X133104761Y-124223809D01*
X133180952Y-124261904D01*
X133257142Y-124261904D01*
X133333333Y-124223809D01*
X133371428Y-124185714D01*
X133409523Y-124109523D01*
X133447619Y-123957142D01*
X133447619Y-123766666D01*
X133409523Y-123614285D01*
X133371428Y-123538095D01*
X133333333Y-123500000D01*
X133257142Y-123461904D01*
X133314285Y-111285714D02*
X133352380Y-111323809D01*
X133466666Y-111361904D01*
X133542857Y-111361904D01*
X133657142Y-111323809D01*
X133733333Y-111247619D01*
X133771428Y-111171428D01*
X133809523Y-111019047D01*
X133809523Y-110904761D01*
X133771428Y-110752380D01*
X133733333Y-110676190D01*
X133657142Y-110600000D01*
X133542857Y-110561904D01*
X133466666Y-110561904D01*
X133352380Y-110600000D01*
X133314285Y-110638095D01*
X132590476Y-110561904D02*
X132971428Y-110561904D01*
X133009523Y-110942857D01*
X132971428Y-110904761D01*
X132895238Y-110866666D01*
X132704761Y-110866666D01*
X132628571Y-110904761D01*
X132590476Y-110942857D01*
X132552380Y-111019047D01*
X132552380Y-111209523D01*
X132590476Y-111285714D01*
X132628571Y-111323809D01*
X132704761Y-111361904D01*
X132895238Y-111361904D01*
X132971428Y-111323809D01*
X133009523Y-111285714D01*
X132285714Y-110561904D02*
X131790476Y-110561904D01*
X132057142Y-110866666D01*
X131942857Y-110866666D01*
X131866666Y-110904761D01*
X131828571Y-110942857D01*
X131790476Y-111019047D01*
X131790476Y-111209523D01*
X131828571Y-111285714D01*
X131866666Y-111323809D01*
X131942857Y-111361904D01*
X132171428Y-111361904D01*
X132247619Y-111323809D01*
X132285714Y-111285714D01*
D12*
X136585714Y-97485714D02*
X136557142Y-97514285D01*
X136528571Y-97600000D01*
X136528571Y-97657142D01*
X136557142Y-97742857D01*
X136614285Y-97800000D01*
X136671428Y-97828571D01*
X136785714Y-97857142D01*
X136871428Y-97857142D01*
X136985714Y-97828571D01*
X137042857Y-97800000D01*
X137100000Y-97742857D01*
X137128571Y-97657142D01*
X137128571Y-97600000D01*
X137100000Y-97514285D01*
X137071428Y-97485714D01*
X137128571Y-96942857D02*
X137128571Y-97228571D01*
X136842857Y-97257142D01*
X136871428Y-97228571D01*
X136900000Y-97171428D01*
X136900000Y-97028571D01*
X136871428Y-96971428D01*
X136842857Y-96942857D01*
X136785714Y-96914285D01*
X136642857Y-96914285D01*
X136585714Y-96942857D01*
X136557142Y-96971428D01*
X136528571Y-97028571D01*
X136528571Y-97171428D01*
X136557142Y-97228571D01*
X136585714Y-97257142D01*
X136928571Y-96400000D02*
X136528571Y-96400000D01*
X137157142Y-96542857D02*
X136728571Y-96685714D01*
X136728571Y-96314285D01*
D11*
X133814285Y-105285714D02*
X133852380Y-105323809D01*
X133966666Y-105361904D01*
X134042857Y-105361904D01*
X134157142Y-105323809D01*
X134233333Y-105247619D01*
X134271428Y-105171428D01*
X134309523Y-105019047D01*
X134309523Y-104904761D01*
X134271428Y-104752380D01*
X134233333Y-104676190D01*
X134157142Y-104600000D01*
X134042857Y-104561904D01*
X133966666Y-104561904D01*
X133852380Y-104600000D01*
X133814285Y-104638095D01*
X133090476Y-104561904D02*
X133471428Y-104561904D01*
X133509523Y-104942857D01*
X133471428Y-104904761D01*
X133395238Y-104866666D01*
X133204761Y-104866666D01*
X133128571Y-104904761D01*
X133090476Y-104942857D01*
X133052380Y-105019047D01*
X133052380Y-105209523D01*
X133090476Y-105285714D01*
X133128571Y-105323809D01*
X133204761Y-105361904D01*
X133395238Y-105361904D01*
X133471428Y-105323809D01*
X133509523Y-105285714D01*
X132366666Y-104561904D02*
X132519047Y-104561904D01*
X132595238Y-104600000D01*
X132633333Y-104638095D01*
X132709523Y-104752380D01*
X132747619Y-104904761D01*
X132747619Y-105209523D01*
X132709523Y-105285714D01*
X132671428Y-105323809D01*
X132595238Y-105361904D01*
X132442857Y-105361904D01*
X132366666Y-105323809D01*
X132328571Y-105285714D01*
X132290476Y-105209523D01*
X132290476Y-105019047D01*
X132328571Y-104942857D01*
X132366666Y-104904761D01*
X132442857Y-104866666D01*
X132595238Y-104866666D01*
X132671428Y-104904761D01*
X132709523Y-104942857D01*
X132747619Y-105019047D01*
D12*
X136914285Y-90014285D02*
X136942857Y-89985714D01*
X136971428Y-89900000D01*
X136971428Y-89842857D01*
X136942857Y-89757142D01*
X136885714Y-89700000D01*
X136828571Y-89671428D01*
X136714285Y-89642857D01*
X136628571Y-89642857D01*
X136514285Y-89671428D01*
X136457142Y-89700000D01*
X136400000Y-89757142D01*
X136371428Y-89842857D01*
X136371428Y-89900000D01*
X136400000Y-89985714D01*
X136428571Y-90014285D01*
X136371428Y-90557142D02*
X136371428Y-90271428D01*
X136657142Y-90242857D01*
X136628571Y-90271428D01*
X136600000Y-90328571D01*
X136600000Y-90471428D01*
X136628571Y-90528571D01*
X136657142Y-90557142D01*
X136714285Y-90585714D01*
X136857142Y-90585714D01*
X136914285Y-90557142D01*
X136942857Y-90528571D01*
X136971428Y-90471428D01*
X136971428Y-90328571D01*
X136942857Y-90271428D01*
X136914285Y-90242857D01*
X136371428Y-90785714D02*
X136371428Y-91185714D01*
X136971428Y-90928571D01*
D11*
X141914285Y-105985714D02*
X141952380Y-106023809D01*
X142066666Y-106061904D01*
X142142857Y-106061904D01*
X142257142Y-106023809D01*
X142333333Y-105947619D01*
X142371428Y-105871428D01*
X142409523Y-105719047D01*
X142409523Y-105604761D01*
X142371428Y-105452380D01*
X142333333Y-105376190D01*
X142257142Y-105300000D01*
X142142857Y-105261904D01*
X142066666Y-105261904D01*
X141952380Y-105300000D01*
X141914285Y-105338095D01*
X141228571Y-105261904D02*
X141380952Y-105261904D01*
X141457142Y-105300000D01*
X141495238Y-105338095D01*
X141571428Y-105452380D01*
X141609523Y-105604761D01*
X141609523Y-105909523D01*
X141571428Y-105985714D01*
X141533333Y-106023809D01*
X141457142Y-106061904D01*
X141304761Y-106061904D01*
X141228571Y-106023809D01*
X141190476Y-105985714D01*
X141152380Y-105909523D01*
X141152380Y-105719047D01*
X141190476Y-105642857D01*
X141228571Y-105604761D01*
X141304761Y-105566666D01*
X141457142Y-105566666D01*
X141533333Y-105604761D01*
X141571428Y-105642857D01*
X141609523Y-105719047D01*
X140657142Y-105261904D02*
X140580952Y-105261904D01*
X140504761Y-105300000D01*
X140466666Y-105338095D01*
X140428571Y-105414285D01*
X140390476Y-105566666D01*
X140390476Y-105757142D01*
X140428571Y-105909523D01*
X140466666Y-105985714D01*
X140504761Y-106023809D01*
X140580952Y-106061904D01*
X140657142Y-106061904D01*
X140733333Y-106023809D01*
X140771428Y-105985714D01*
X140809523Y-105909523D01*
X140847619Y-105757142D01*
X140847619Y-105566666D01*
X140809523Y-105414285D01*
X140771428Y-105338095D01*
X140733333Y-105300000D01*
X140657142Y-105261904D01*
X136499285Y-105985714D02*
X136537380Y-106023809D01*
X136651666Y-106061904D01*
X136727857Y-106061904D01*
X136842142Y-106023809D01*
X136918333Y-105947619D01*
X136956428Y-105871428D01*
X136994523Y-105719047D01*
X136994523Y-105604761D01*
X136956428Y-105452380D01*
X136918333Y-105376190D01*
X136842142Y-105300000D01*
X136727857Y-105261904D01*
X136651666Y-105261904D01*
X136537380Y-105300000D01*
X136499285Y-105338095D01*
X135813571Y-105261904D02*
X135965952Y-105261904D01*
X136042142Y-105300000D01*
X136080238Y-105338095D01*
X136156428Y-105452380D01*
X136194523Y-105604761D01*
X136194523Y-105909523D01*
X136156428Y-105985714D01*
X136118333Y-106023809D01*
X136042142Y-106061904D01*
X135889761Y-106061904D01*
X135813571Y-106023809D01*
X135775476Y-105985714D01*
X135737380Y-105909523D01*
X135737380Y-105719047D01*
X135775476Y-105642857D01*
X135813571Y-105604761D01*
X135889761Y-105566666D01*
X136042142Y-105566666D01*
X136118333Y-105604761D01*
X136156428Y-105642857D01*
X136194523Y-105719047D01*
X134975476Y-106061904D02*
X135432619Y-106061904D01*
X135204047Y-106061904D02*
X135204047Y-105261904D01*
X135280238Y-105376190D01*
X135356428Y-105452380D01*
X135432619Y-105490476D01*
D12*
X151800714Y-84814285D02*
X151829285Y-84842857D01*
X151915000Y-84871428D01*
X151972142Y-84871428D01*
X152057857Y-84842857D01*
X152115000Y-84785714D01*
X152143571Y-84728571D01*
X152172142Y-84614285D01*
X152172142Y-84528571D01*
X152143571Y-84414285D01*
X152115000Y-84357142D01*
X152057857Y-84300000D01*
X151972142Y-84271428D01*
X151915000Y-84271428D01*
X151829285Y-84300000D01*
X151800714Y-84328571D01*
X151286428Y-84271428D02*
X151400714Y-84271428D01*
X151457857Y-84300000D01*
X151486428Y-84328571D01*
X151543571Y-84414285D01*
X151572142Y-84528571D01*
X151572142Y-84757142D01*
X151543571Y-84814285D01*
X151515000Y-84842857D01*
X151457857Y-84871428D01*
X151343571Y-84871428D01*
X151286428Y-84842857D01*
X151257857Y-84814285D01*
X151229285Y-84757142D01*
X151229285Y-84614285D01*
X151257857Y-84557142D01*
X151286428Y-84528571D01*
X151343571Y-84500000D01*
X151457857Y-84500000D01*
X151515000Y-84528571D01*
X151543571Y-84557142D01*
X151572142Y-84614285D01*
X151029285Y-84271428D02*
X150657857Y-84271428D01*
X150857857Y-84500000D01*
X150772142Y-84500000D01*
X150715000Y-84528571D01*
X150686428Y-84557142D01*
X150657857Y-84614285D01*
X150657857Y-84757142D01*
X150686428Y-84814285D01*
X150715000Y-84842857D01*
X150772142Y-84871428D01*
X150943571Y-84871428D01*
X151000714Y-84842857D01*
X151029285Y-84814285D01*
D11*
X153285714Y-95685714D02*
X153323809Y-95647619D01*
X153361904Y-95533333D01*
X153361904Y-95457142D01*
X153323809Y-95342857D01*
X153247619Y-95266666D01*
X153171428Y-95228571D01*
X153019047Y-95190476D01*
X152904761Y-95190476D01*
X152752380Y-95228571D01*
X152676190Y-95266666D01*
X152600000Y-95342857D01*
X152561904Y-95457142D01*
X152561904Y-95533333D01*
X152600000Y-95647619D01*
X152638095Y-95685714D01*
X153361904Y-96447619D02*
X153361904Y-95990476D01*
X153361904Y-96219047D02*
X152561904Y-96219047D01*
X152676190Y-96142857D01*
X152752380Y-96066666D01*
X152790476Y-95990476D01*
X153361904Y-96828571D02*
X153361904Y-96980952D01*
X153323809Y-97057142D01*
X153285714Y-97095238D01*
X153171428Y-97171428D01*
X153019047Y-97209523D01*
X152714285Y-97209523D01*
X152638095Y-97171428D01*
X152600000Y-97133333D01*
X152561904Y-97057142D01*
X152561904Y-96904761D01*
X152600000Y-96828571D01*
X152638095Y-96790476D01*
X152714285Y-96752380D01*
X152904761Y-96752380D01*
X152980952Y-96790476D01*
X153019047Y-96828571D01*
X153057142Y-96904761D01*
X153057142Y-97057142D01*
X153019047Y-97133333D01*
X152980952Y-97171428D01*
X152904761Y-97209523D01*
X154635714Y-95685714D02*
X154673809Y-95647619D01*
X154711904Y-95533333D01*
X154711904Y-95457142D01*
X154673809Y-95342857D01*
X154597619Y-95266666D01*
X154521428Y-95228571D01*
X154369047Y-95190476D01*
X154254761Y-95190476D01*
X154102380Y-95228571D01*
X154026190Y-95266666D01*
X153950000Y-95342857D01*
X153911904Y-95457142D01*
X153911904Y-95533333D01*
X153950000Y-95647619D01*
X153988095Y-95685714D01*
X154178571Y-96371428D02*
X154711904Y-96371428D01*
X153873809Y-96180952D02*
X154445238Y-95990476D01*
X154445238Y-96485714D01*
X154254761Y-96904761D02*
X154216666Y-96828571D01*
X154178571Y-96790476D01*
X154102380Y-96752380D01*
X154064285Y-96752380D01*
X153988095Y-96790476D01*
X153950000Y-96828571D01*
X153911904Y-96904761D01*
X153911904Y-97057142D01*
X153950000Y-97133333D01*
X153988095Y-97171428D01*
X154064285Y-97209523D01*
X154102380Y-97209523D01*
X154178571Y-97171428D01*
X154216666Y-97133333D01*
X154254761Y-97057142D01*
X154254761Y-96904761D01*
X154292857Y-96828571D01*
X154330952Y-96790476D01*
X154407142Y-96752380D01*
X154559523Y-96752380D01*
X154635714Y-96790476D01*
X154673809Y-96828571D01*
X154711904Y-96904761D01*
X154711904Y-97057142D01*
X154673809Y-97133333D01*
X154635714Y-97171428D01*
X154559523Y-97209523D01*
X154407142Y-97209523D01*
X154330952Y-97171428D01*
X154292857Y-97133333D01*
X154254761Y-97057142D01*
X139114285Y-122585714D02*
X139152380Y-122623809D01*
X139266666Y-122661904D01*
X139342857Y-122661904D01*
X139457142Y-122623809D01*
X139533333Y-122547619D01*
X139571428Y-122471428D01*
X139609523Y-122319047D01*
X139609523Y-122204761D01*
X139571428Y-122052380D01*
X139533333Y-121976190D01*
X139457142Y-121900000D01*
X139342857Y-121861904D01*
X139266666Y-121861904D01*
X139152380Y-121900000D01*
X139114285Y-121938095D01*
X138390476Y-121861904D02*
X138771428Y-121861904D01*
X138809523Y-122242857D01*
X138771428Y-122204761D01*
X138695238Y-122166666D01*
X138504761Y-122166666D01*
X138428571Y-122204761D01*
X138390476Y-122242857D01*
X138352380Y-122319047D01*
X138352380Y-122509523D01*
X138390476Y-122585714D01*
X138428571Y-122623809D01*
X138504761Y-122661904D01*
X138695238Y-122661904D01*
X138771428Y-122623809D01*
X138809523Y-122585714D01*
X138047619Y-121938095D02*
X138009523Y-121900000D01*
X137933333Y-121861904D01*
X137742857Y-121861904D01*
X137666666Y-121900000D01*
X137628571Y-121938095D01*
X137590476Y-122014285D01*
X137590476Y-122090476D01*
X137628571Y-122204761D01*
X138085714Y-122661904D01*
X137590476Y-122661904D01*
X162909523Y-105661904D02*
X162909523Y-106309523D01*
X162871428Y-106385714D01*
X162833333Y-106423809D01*
X162757142Y-106461904D01*
X162604761Y-106461904D01*
X162528571Y-106423809D01*
X162490476Y-106385714D01*
X162452380Y-106309523D01*
X162452380Y-105661904D01*
X162147619Y-105661904D02*
X161614285Y-105661904D01*
X161957142Y-106461904D01*
X160490476Y-82461904D02*
X160490476Y-83109523D01*
X160452380Y-83185714D01*
X160414285Y-83223809D01*
X160338095Y-83261904D01*
X160185714Y-83261904D01*
X160109523Y-83223809D01*
X160071428Y-83185714D01*
X160033333Y-83109523D01*
X160033333Y-82461904D01*
X159233333Y-83261904D02*
X159690476Y-83261904D01*
X159461904Y-83261904D02*
X159461904Y-82461904D01*
X159538095Y-82576190D01*
X159614285Y-82652380D01*
X159690476Y-82690476D01*
X158928571Y-82538095D02*
X158890476Y-82500000D01*
X158814285Y-82461904D01*
X158623809Y-82461904D01*
X158547619Y-82500000D01*
X158509523Y-82538095D01*
X158471428Y-82614285D01*
X158471428Y-82690476D01*
X158509523Y-82804761D01*
X158966666Y-83261904D01*
X158471428Y-83261904D01*
X170559523Y-112061904D02*
X170559523Y-112709523D01*
X170521428Y-112785714D01*
X170483333Y-112823809D01*
X170407142Y-112861904D01*
X170254761Y-112861904D01*
X170178571Y-112823809D01*
X170140476Y-112785714D01*
X170102380Y-112709523D01*
X170102380Y-112061904D01*
X169378571Y-112061904D02*
X169530952Y-112061904D01*
X169607142Y-112100000D01*
X169645238Y-112138095D01*
X169721428Y-112252380D01*
X169759523Y-112404761D01*
X169759523Y-112709523D01*
X169721428Y-112785714D01*
X169683333Y-112823809D01*
X169607142Y-112861904D01*
X169454761Y-112861904D01*
X169378571Y-112823809D01*
X169340476Y-112785714D01*
X169302380Y-112709523D01*
X169302380Y-112519047D01*
X169340476Y-112442857D01*
X169378571Y-112404761D01*
X169454761Y-112366666D01*
X169607142Y-112366666D01*
X169683333Y-112404761D01*
X169721428Y-112442857D01*
X169759523Y-112519047D01*
X139509523Y-106361904D02*
X139509523Y-107009523D01*
X139471428Y-107085714D01*
X139433333Y-107123809D01*
X139357142Y-107161904D01*
X139204761Y-107161904D01*
X139128571Y-107123809D01*
X139090476Y-107085714D01*
X139052380Y-107009523D01*
X139052380Y-106361904D01*
X138290476Y-106361904D02*
X138671428Y-106361904D01*
X138709523Y-106742857D01*
X138671428Y-106704761D01*
X138595238Y-106666666D01*
X138404761Y-106666666D01*
X138328571Y-106704761D01*
X138290476Y-106742857D01*
X138252380Y-106819047D01*
X138252380Y-107009523D01*
X138290476Y-107085714D01*
X138328571Y-107123809D01*
X138404761Y-107161904D01*
X138595238Y-107161904D01*
X138671428Y-107123809D01*
X138709523Y-107085714D01*
X134847619Y-98311904D02*
X134314285Y-99111904D01*
X134314285Y-98311904D02*
X134847619Y-99111904D01*
X133857142Y-98311904D02*
X133780952Y-98311904D01*
X133704761Y-98350000D01*
X133666666Y-98388095D01*
X133628571Y-98464285D01*
X133590476Y-98616666D01*
X133590476Y-98807142D01*
X133628571Y-98959523D01*
X133666666Y-99035714D01*
X133704761Y-99073809D01*
X133780952Y-99111904D01*
X133857142Y-99111904D01*
X133933333Y-99073809D01*
X133971428Y-99035714D01*
X134009523Y-98959523D01*
X134047619Y-98807142D01*
X134047619Y-98616666D01*
X134009523Y-98464285D01*
X133971428Y-98388095D01*
X133933333Y-98350000D01*
X133857142Y-98311904D01*
X145390476Y-103361904D02*
X145390476Y-104009523D01*
X145352380Y-104085714D01*
X145314285Y-104123809D01*
X145238095Y-104161904D01*
X145085714Y-104161904D01*
X145009523Y-104123809D01*
X144971428Y-104085714D01*
X144933333Y-104009523D01*
X144933333Y-103361904D01*
X144133333Y-104161904D02*
X144590476Y-104161904D01*
X144361904Y-104161904D02*
X144361904Y-103361904D01*
X144438095Y-103476190D01*
X144514285Y-103552380D01*
X144590476Y-103590476D01*
X143866666Y-103361904D02*
X143371428Y-103361904D01*
X143638095Y-103666666D01*
X143523809Y-103666666D01*
X143447619Y-103704761D01*
X143409523Y-103742857D01*
X143371428Y-103819047D01*
X143371428Y-104009523D01*
X143409523Y-104085714D01*
X143447619Y-104123809D01*
X143523809Y-104161904D01*
X143752380Y-104161904D01*
X143828571Y-104123809D01*
X143866666Y-104085714D01*
X133685714Y-118366666D02*
X133723809Y-118328571D01*
X133761904Y-118214285D01*
X133761904Y-118138095D01*
X133723809Y-118023809D01*
X133647619Y-117947619D01*
X133571428Y-117909523D01*
X133419047Y-117871428D01*
X133304761Y-117871428D01*
X133152380Y-117909523D01*
X133076190Y-117947619D01*
X133000000Y-118023809D01*
X132961904Y-118138095D01*
X132961904Y-118214285D01*
X133000000Y-118328571D01*
X133038095Y-118366666D01*
X133761904Y-119128571D02*
X133761904Y-118671428D01*
X133761904Y-118900000D02*
X132961904Y-118900000D01*
X133076190Y-118823809D01*
X133152380Y-118747619D01*
X133190476Y-118671428D01*
X134485714Y-113535714D02*
X134523809Y-113497619D01*
X134561904Y-113383333D01*
X134561904Y-113307142D01*
X134523809Y-113192857D01*
X134447619Y-113116666D01*
X134371428Y-113078571D01*
X134219047Y-113040476D01*
X134104761Y-113040476D01*
X133952380Y-113078571D01*
X133876190Y-113116666D01*
X133800000Y-113192857D01*
X133761904Y-113307142D01*
X133761904Y-113383333D01*
X133800000Y-113497619D01*
X133838095Y-113535714D01*
X133761904Y-114221428D02*
X133761904Y-114069047D01*
X133800000Y-113992857D01*
X133838095Y-113954761D01*
X133952380Y-113878571D01*
X134104761Y-113840476D01*
X134409523Y-113840476D01*
X134485714Y-113878571D01*
X134523809Y-113916666D01*
X134561904Y-113992857D01*
X134561904Y-114145238D01*
X134523809Y-114221428D01*
X134485714Y-114259523D01*
X134409523Y-114297619D01*
X134219047Y-114297619D01*
X134142857Y-114259523D01*
X134104761Y-114221428D01*
X134066666Y-114145238D01*
X134066666Y-113992857D01*
X134104761Y-113916666D01*
X134142857Y-113878571D01*
X134219047Y-113840476D01*
X134028571Y-114983333D02*
X134561904Y-114983333D01*
X133723809Y-114792857D02*
X134295238Y-114602380D01*
X134295238Y-115097619D01*
X132285714Y-107785714D02*
X132323809Y-107747619D01*
X132361904Y-107633333D01*
X132361904Y-107557142D01*
X132323809Y-107442857D01*
X132247619Y-107366666D01*
X132171428Y-107328571D01*
X132019047Y-107290476D01*
X131904761Y-107290476D01*
X131752380Y-107328571D01*
X131676190Y-107366666D01*
X131600000Y-107442857D01*
X131561904Y-107557142D01*
X131561904Y-107633333D01*
X131600000Y-107747619D01*
X131638095Y-107785714D01*
X131561904Y-108471428D02*
X131561904Y-108319047D01*
X131600000Y-108242857D01*
X131638095Y-108204761D01*
X131752380Y-108128571D01*
X131904761Y-108090476D01*
X132209523Y-108090476D01*
X132285714Y-108128571D01*
X132323809Y-108166666D01*
X132361904Y-108242857D01*
X132361904Y-108395238D01*
X132323809Y-108471428D01*
X132285714Y-108509523D01*
X132209523Y-108547619D01*
X132019047Y-108547619D01*
X131942857Y-108509523D01*
X131904761Y-108471428D01*
X131866666Y-108395238D01*
X131866666Y-108242857D01*
X131904761Y-108166666D01*
X131942857Y-108128571D01*
X132019047Y-108090476D01*
X131904761Y-109004761D02*
X131866666Y-108928571D01*
X131828571Y-108890476D01*
X131752380Y-108852380D01*
X131714285Y-108852380D01*
X131638095Y-108890476D01*
X131600000Y-108928571D01*
X131561904Y-109004761D01*
X131561904Y-109157142D01*
X131600000Y-109233333D01*
X131638095Y-109271428D01*
X131714285Y-109309523D01*
X131752380Y-109309523D01*
X131828571Y-109271428D01*
X131866666Y-109233333D01*
X131904761Y-109157142D01*
X131904761Y-109004761D01*
X131942857Y-108928571D01*
X131980952Y-108890476D01*
X132057142Y-108852380D01*
X132209523Y-108852380D01*
X132285714Y-108890476D01*
X132323809Y-108928571D01*
X132361904Y-109004761D01*
X132361904Y-109157142D01*
X132323809Y-109233333D01*
X132285714Y-109271428D01*
X132209523Y-109309523D01*
X132057142Y-109309523D01*
X131980952Y-109271428D01*
X131942857Y-109233333D01*
X131904761Y-109157142D01*
X122185714Y-121385714D02*
X122223809Y-121347619D01*
X122261904Y-121233333D01*
X122261904Y-121157142D01*
X122223809Y-121042857D01*
X122147619Y-120966666D01*
X122071428Y-120928571D01*
X121919047Y-120890476D01*
X121804761Y-120890476D01*
X121652380Y-120928571D01*
X121576190Y-120966666D01*
X121500000Y-121042857D01*
X121461904Y-121157142D01*
X121461904Y-121233333D01*
X121500000Y-121347619D01*
X121538095Y-121385714D01*
X122261904Y-122147619D02*
X122261904Y-121690476D01*
X122261904Y-121919047D02*
X121461904Y-121919047D01*
X121576190Y-121842857D01*
X121652380Y-121766666D01*
X121690476Y-121690476D01*
X121461904Y-122833333D02*
X121461904Y-122680952D01*
X121500000Y-122604761D01*
X121538095Y-122566666D01*
X121652380Y-122490476D01*
X121804761Y-122452380D01*
X122109523Y-122452380D01*
X122185714Y-122490476D01*
X122223809Y-122528571D01*
X122261904Y-122604761D01*
X122261904Y-122757142D01*
X122223809Y-122833333D01*
X122185714Y-122871428D01*
X122109523Y-122909523D01*
X121919047Y-122909523D01*
X121842857Y-122871428D01*
X121804761Y-122833333D01*
X121766666Y-122757142D01*
X121766666Y-122604761D01*
X121804761Y-122528571D01*
X121842857Y-122490476D01*
X121919047Y-122452380D01*
X122185714Y-114185714D02*
X122223809Y-114147619D01*
X122261904Y-114033333D01*
X122261904Y-113957142D01*
X122223809Y-113842857D01*
X122147619Y-113766666D01*
X122071428Y-113728571D01*
X121919047Y-113690476D01*
X121804761Y-113690476D01*
X121652380Y-113728571D01*
X121576190Y-113766666D01*
X121500000Y-113842857D01*
X121461904Y-113957142D01*
X121461904Y-114033333D01*
X121500000Y-114147619D01*
X121538095Y-114185714D01*
X122261904Y-114947619D02*
X122261904Y-114490476D01*
X122261904Y-114719047D02*
X121461904Y-114719047D01*
X121576190Y-114642857D01*
X121652380Y-114566666D01*
X121690476Y-114490476D01*
X121728571Y-115633333D02*
X122261904Y-115633333D01*
X121423809Y-115442857D02*
X121995238Y-115252380D01*
X121995238Y-115747619D01*
X122185714Y-102785714D02*
X122223809Y-102747619D01*
X122261904Y-102633333D01*
X122261904Y-102557142D01*
X122223809Y-102442857D01*
X122147619Y-102366666D01*
X122071428Y-102328571D01*
X121919047Y-102290476D01*
X121804761Y-102290476D01*
X121652380Y-102328571D01*
X121576190Y-102366666D01*
X121500000Y-102442857D01*
X121461904Y-102557142D01*
X121461904Y-102633333D01*
X121500000Y-102747619D01*
X121538095Y-102785714D01*
X122261904Y-103547619D02*
X122261904Y-103090476D01*
X122261904Y-103319047D02*
X121461904Y-103319047D01*
X121576190Y-103242857D01*
X121652380Y-103166666D01*
X121690476Y-103090476D01*
X121461904Y-103814285D02*
X121461904Y-104309523D01*
X121766666Y-104042857D01*
X121766666Y-104157142D01*
X121804761Y-104233333D01*
X121842857Y-104271428D01*
X121919047Y-104309523D01*
X122109523Y-104309523D01*
X122185714Y-104271428D01*
X122223809Y-104233333D01*
X122261904Y-104157142D01*
X122261904Y-103928571D01*
X122223809Y-103852380D01*
X122185714Y-103814285D01*
X149114285Y-118531904D02*
X149380952Y-118150952D01*
X149571428Y-118531904D02*
X149571428Y-117731904D01*
X149266666Y-117731904D01*
X149190476Y-117770000D01*
X149152380Y-117808095D01*
X149114285Y-117884285D01*
X149114285Y-117998571D01*
X149152380Y-118074761D01*
X149190476Y-118112857D01*
X149266666Y-118150952D01*
X149571428Y-118150952D01*
X148428571Y-117731904D02*
X148580952Y-117731904D01*
X148657142Y-117770000D01*
X148695238Y-117808095D01*
X148771428Y-117922380D01*
X148809523Y-118074761D01*
X148809523Y-118379523D01*
X148771428Y-118455714D01*
X148733333Y-118493809D01*
X148657142Y-118531904D01*
X148504761Y-118531904D01*
X148428571Y-118493809D01*
X148390476Y-118455714D01*
X148352380Y-118379523D01*
X148352380Y-118189047D01*
X148390476Y-118112857D01*
X148428571Y-118074761D01*
X148504761Y-118036666D01*
X148657142Y-118036666D01*
X148733333Y-118074761D01*
X148771428Y-118112857D01*
X148809523Y-118189047D01*
X148047619Y-117808095D02*
X148009523Y-117770000D01*
X147933333Y-117731904D01*
X147742857Y-117731904D01*
X147666666Y-117770000D01*
X147628571Y-117808095D01*
X147590476Y-117884285D01*
X147590476Y-117960476D01*
X147628571Y-118074761D01*
X148085714Y-118531904D01*
X147590476Y-118531904D01*
X150033333Y-116261904D02*
X150300000Y-115880952D01*
X150490476Y-116261904D02*
X150490476Y-115461904D01*
X150185714Y-115461904D01*
X150109523Y-115500000D01*
X150071428Y-115538095D01*
X150033333Y-115614285D01*
X150033333Y-115728571D01*
X150071428Y-115804761D01*
X150109523Y-115842857D01*
X150185714Y-115880952D01*
X150490476Y-115880952D01*
X149538095Y-115461904D02*
X149461904Y-115461904D01*
X149385714Y-115500000D01*
X149347619Y-115538095D01*
X149309523Y-115614285D01*
X149271428Y-115766666D01*
X149271428Y-115957142D01*
X149309523Y-116109523D01*
X149347619Y-116185714D01*
X149385714Y-116223809D01*
X149461904Y-116261904D01*
X149538095Y-116261904D01*
X149614285Y-116223809D01*
X149652380Y-116185714D01*
X149690476Y-116109523D01*
X149728571Y-115957142D01*
X149728571Y-115766666D01*
X149690476Y-115614285D01*
X149652380Y-115538095D01*
X149614285Y-115500000D01*
X149538095Y-115461904D01*
X148590476Y-125361904D02*
X148590476Y-124561904D01*
X148400000Y-124561904D01*
X148285714Y-124600000D01*
X148209523Y-124676190D01*
X148171428Y-124752380D01*
X148133333Y-124904761D01*
X148133333Y-125019047D01*
X148171428Y-125171428D01*
X148209523Y-125247619D01*
X148285714Y-125323809D01*
X148400000Y-125361904D01*
X148590476Y-125361904D01*
X147371428Y-125361904D02*
X147828571Y-125361904D01*
X147600000Y-125361904D02*
X147600000Y-124561904D01*
X147676190Y-124676190D01*
X147752380Y-124752380D01*
X147828571Y-124790476D01*
X171761904Y-104009523D02*
X170961904Y-104009523D01*
X170961904Y-104200000D01*
X171000000Y-104314285D01*
X171076190Y-104390476D01*
X171152380Y-104428571D01*
X171304761Y-104466666D01*
X171419047Y-104466666D01*
X171571428Y-104428571D01*
X171647619Y-104390476D01*
X171723809Y-104314285D01*
X171761904Y-104200000D01*
X171761904Y-104009523D01*
X171228571Y-105152380D02*
X171761904Y-105152380D01*
X170923809Y-104961904D02*
X171495238Y-104771428D01*
X171495238Y-105266666D01*
X122190476Y-123361904D02*
X122190476Y-124009523D01*
X122152380Y-124085714D01*
X122114285Y-124123809D01*
X122038095Y-124161904D01*
X121885714Y-124161904D01*
X121809523Y-124123809D01*
X121771428Y-124085714D01*
X121733333Y-124009523D01*
X121733333Y-123361904D01*
X120933333Y-124161904D02*
X121390476Y-124161904D01*
X121161904Y-124161904D02*
X121161904Y-123361904D01*
X121238095Y-123476190D01*
X121314285Y-123552380D01*
X121390476Y-123590476D01*
X120438095Y-123361904D02*
X120361904Y-123361904D01*
X120285714Y-123400000D01*
X120247619Y-123438095D01*
X120209523Y-123514285D01*
X120171428Y-123666666D01*
X120171428Y-123857142D01*
X120209523Y-124009523D01*
X120247619Y-124085714D01*
X120285714Y-124123809D01*
X120361904Y-124161904D01*
X120438095Y-124161904D01*
X120514285Y-124123809D01*
X120552380Y-124085714D01*
X120590476Y-124009523D01*
X120628571Y-123857142D01*
X120628571Y-123666666D01*
X120590476Y-123514285D01*
X120552380Y-123438095D01*
X120514285Y-123400000D01*
X120438095Y-123361904D01*
X121990476Y-116061904D02*
X121990476Y-116709523D01*
X121952380Y-116785714D01*
X121914285Y-116823809D01*
X121838095Y-116861904D01*
X121685714Y-116861904D01*
X121609523Y-116823809D01*
X121571428Y-116785714D01*
X121533333Y-116709523D01*
X121533333Y-116061904D01*
X120733333Y-116861904D02*
X121190476Y-116861904D01*
X120961904Y-116861904D02*
X120961904Y-116061904D01*
X121038095Y-116176190D01*
X121114285Y-116252380D01*
X121190476Y-116290476D01*
X119971428Y-116861904D02*
X120428571Y-116861904D01*
X120200000Y-116861904D02*
X120200000Y-116061904D01*
X120276190Y-116176190D01*
X120352380Y-116252380D01*
X120428571Y-116290476D01*
X122190476Y-108661904D02*
X122190476Y-109309523D01*
X122152380Y-109385714D01*
X122114285Y-109423809D01*
X122038095Y-109461904D01*
X121885714Y-109461904D01*
X121809523Y-109423809D01*
X121771428Y-109385714D01*
X121733333Y-109309523D01*
X121733333Y-108661904D01*
X120933333Y-109461904D02*
X121390476Y-109461904D01*
X121161904Y-109461904D02*
X121161904Y-108661904D01*
X121238095Y-108776190D01*
X121314285Y-108852380D01*
X121390476Y-108890476D01*
X120247619Y-108928571D02*
X120247619Y-109461904D01*
X120438095Y-108623809D02*
X120628571Y-109195238D01*
X120133333Y-109195238D01*
D12*
X139390000Y-94660000D02*
X138050000Y-94660000D01*
X139390000Y-95610000D02*
X139390000Y-94660000D01*
X140340000Y-95610000D02*
X139390000Y-95610000D01*
X149610000Y-95610000D02*
X149610000Y-94660000D01*
X148660000Y-95610000D02*
X149610000Y-95610000D01*
X139390000Y-85390000D02*
X139390000Y-86340000D01*
X140340000Y-85390000D02*
X139390000Y-85390000D01*
X149610000Y-85390000D02*
X149610000Y-86340000D01*
X148660000Y-85390000D02*
X149610000Y-85390000D01*
X148610000Y-113141422D02*
X148610000Y-113658578D01*
X147190000Y-113141422D02*
X147190000Y-113658578D01*
X166610000Y-105600000D02*
X166610000Y-108050000D01*
X163390000Y-107400000D02*
X163390000Y-105600000D01*
D11*
X157775000Y-83625000D02*
X157775000Y-83800000D01*
X154425000Y-83625000D02*
X154425000Y-83875000D01*
X154425000Y-86975000D02*
X154425000Y-86725000D01*
X157775000Y-86975000D02*
X157775000Y-86725000D01*
X157775000Y-83625000D02*
X154425000Y-83625000D01*
X157775000Y-86975000D02*
X154425000Y-86975000D01*
X157775000Y-83800000D02*
X159025000Y-83800000D01*
D12*
X165200000Y-115660000D02*
X163250000Y-115660000D01*
X165200000Y-115660000D02*
X167150000Y-115660000D01*
X165200000Y-110540000D02*
X163250000Y-110540000D01*
X165200000Y-110540000D02*
X168650000Y-110540000D01*
D14*
X136400000Y-107500000D02*
X135400000Y-107500000D01*
X142600000Y-107500000D02*
X144600000Y-107500000D01*
X144600000Y-121500000D02*
X143600000Y-121500000D01*
X136400000Y-121500000D02*
X135400000Y-121500000D01*
X132450000Y-97600000D02*
X132450000Y-91600000D01*
X132450000Y-91600000D02*
X135950000Y-91600000D01*
X135950000Y-91600000D02*
X135950000Y-97600000D01*
X135950000Y-97600000D02*
X132450000Y-97600000D01*
G36*
X136599553Y-97950881D02*
G01*
X136647202Y-97965335D01*
X136691115Y-97988807D01*
X136729605Y-98020395D01*
X136761193Y-98058885D01*
X136784665Y-98102798D01*
X136799119Y-98150447D01*
X136804000Y-98200000D01*
X136799119Y-98249553D01*
X136784665Y-98297202D01*
X136761193Y-98341115D01*
X136729605Y-98379605D01*
X136691115Y-98411193D01*
X136647202Y-98434665D01*
X136599553Y-98449119D01*
X136550000Y-98454000D01*
X136500447Y-98449119D01*
X136452798Y-98434665D01*
X136408885Y-98411193D01*
X136370395Y-98379605D01*
X136338807Y-98341115D01*
X136315335Y-98297202D01*
X136300881Y-98249553D01*
X136296000Y-98200000D01*
X136300881Y-98150447D01*
X136315335Y-98102798D01*
X136338807Y-98058885D01*
X136370395Y-98020395D01*
X136408885Y-97988807D01*
X136452798Y-97965335D01*
X136500447Y-97950881D01*
X136550000Y-97946000D01*
X136599553Y-97950881D01*
G37*
D11*
X146000000Y-102675000D02*
X146000000Y-101325000D01*
X151125000Y-102675000D02*
X151125000Y-107325000D01*
X145875000Y-102675000D02*
X145875000Y-107325000D01*
X151125000Y-102675000D02*
X150900000Y-102675000D01*
X151125000Y-107325000D02*
X150900000Y-107325000D01*
X145875000Y-107325000D02*
X146100000Y-107325000D01*
X145875000Y-102675000D02*
X146000000Y-102675000D01*
D12*
X134010000Y-120875279D02*
X134010000Y-120549721D01*
X132990000Y-120875279D02*
X132990000Y-120549721D01*
X133260000Y-113887221D02*
X133260000Y-114212779D01*
X132240000Y-113887221D02*
X132240000Y-114212779D01*
X133910000Y-108137221D02*
X133910000Y-108462779D01*
X132890000Y-108137221D02*
X132890000Y-108462779D01*
X148762779Y-120110000D02*
X148437221Y-120110000D01*
X148762779Y-119090000D02*
X148437221Y-119090000D01*
X147362779Y-116410000D02*
X147037221Y-116410000D01*
X147362779Y-115390000D02*
X147037221Y-115390000D01*
X151800000Y-99900000D02*
G75*
G03*
X151800000Y-99900000I-700000J0D01*
G01*
X150200000Y-98600000D02*
G75*
G03*
X150200000Y-98600000I-700000J0D01*
G01*
X143700000Y-100600000D02*
G75*
G03*
X143700000Y-100600000I-700000J0D01*
G01*
X147200000Y-98400000D02*
G75*
G03*
X147200000Y-98400000I-700000J0D01*
G01*
X128500000Y-102700000D02*
G75*
G03*
X128500000Y-102700000I-700000J0D01*
G01*
X126400000Y-102700000D02*
G75*
G03*
X126400000Y-102700000I-700000J0D01*
G01*
X127500000Y-101300000D02*
G75*
G03*
X127500000Y-101300000I-700000J0D01*
G01*
X154200000Y-106295000D02*
G75*
G03*
X154200000Y-106295000I-700000J0D01*
G01*
X150200000Y-120600000D02*
X146350000Y-120600000D01*
X150200000Y-122600000D02*
X146350000Y-122600000D01*
X150200000Y-120600000D02*
X150200000Y-122600000D01*
X169000000Y-106800000D02*
X169000000Y-102950000D01*
X167000000Y-106800000D02*
X167000000Y-102950000D01*
X169000000Y-106800000D02*
X167000000Y-106800000D01*
D11*
X124125000Y-118200000D02*
X128575000Y-118200000D01*
X122600000Y-125100000D02*
X128575000Y-125100000D01*
X124125000Y-111050000D02*
X128575000Y-111050000D01*
X122600000Y-117950000D02*
X128575000Y-117950000D01*
X124125000Y-103900000D02*
X128575000Y-103900000D01*
X122600000Y-110800000D02*
X128575000Y-110800000D01*
M02*
