G04 #@! TF.GenerationSoftware,KiCad,Pcbnew,5.99.0-unknown-dd374e12a~102~ubuntu20.04.1*
G04 #@! TF.CreationDate,2020-12-05T09:27:29-08:00*
G04 #@! TF.ProjectId,BLDC,424c4443-2e6b-4696-9361-645f70636258,rev?*
G04 #@! TF.SameCoordinates,Original*
G04 #@! TF.FileFunction,Soldermask,Top*
G04 #@! TF.FilePolarity,Negative*
%FSLAX46Y46*%
G04 Gerber Fmt 4.6, Leading zero omitted, Abs format (unit mm)*
G04 Created by KiCad (PCBNEW 5.99.0-unknown-dd374e12a~102~ubuntu20.04.1) date 2020-12-05 09:27:29*
%MOMM*%
%LPD*%
G01*
G04 APERTURE LIST*
%ADD10C,8.000000*%
%ADD11C,3.200000*%
%ADD12C,1.000000*%
%ADD13C,1.200000*%
%ADD14C,1.900000*%
%ADD15O,1.900000X1.900000*%
%ADD16C,0.990000*%
%ADD17C,1.400000*%
G04 APERTURE END LIST*
G36*
X122880426Y-129087469D02*
G01*
X123246233Y-129198435D01*
X123583362Y-129378634D01*
X123878858Y-129621142D01*
X124121366Y-129916638D01*
X124301565Y-130253767D01*
X124412531Y-130619574D01*
X124450000Y-131000000D01*
X124412531Y-131380426D01*
X124301565Y-131746233D01*
X124121366Y-132083362D01*
X123878858Y-132378858D01*
X123583362Y-132621366D01*
X123246233Y-132801565D01*
X122880426Y-132912531D01*
X122500000Y-132950000D01*
X122119574Y-132912531D01*
X121753767Y-132801565D01*
X121416638Y-132621366D01*
X121121142Y-132378858D01*
X120878634Y-132083362D01*
X120698435Y-131746233D01*
X120587469Y-131380426D01*
X120550000Y-131000000D01*
X120587469Y-130619574D01*
X120698435Y-130253767D01*
X120878634Y-129916638D01*
X121121142Y-129621142D01*
X121416638Y-129378634D01*
X121753767Y-129198435D01*
X122119574Y-129087469D01*
X122500000Y-129050000D01*
X122880426Y-129087469D01*
G37*
G36*
X174880426Y-77087469D02*
G01*
X175246233Y-77198435D01*
X175583362Y-77378634D01*
X175878858Y-77621142D01*
X176121366Y-77916638D01*
X176301565Y-78253767D01*
X176412531Y-78619574D01*
X176450000Y-79000000D01*
X176412531Y-79380426D01*
X176301565Y-79746233D01*
X176121366Y-80083362D01*
X175878858Y-80378858D01*
X175583362Y-80621366D01*
X175246233Y-80801565D01*
X174880426Y-80912531D01*
X174500000Y-80950000D01*
X174119574Y-80912531D01*
X173753767Y-80801565D01*
X173416638Y-80621366D01*
X173121142Y-80378858D01*
X172878634Y-80083362D01*
X172698435Y-79746233D01*
X172587469Y-79380426D01*
X172550000Y-79000000D01*
X172587469Y-78619574D01*
X172698435Y-78253767D01*
X172878634Y-77916638D01*
X173121142Y-77621142D01*
X173416638Y-77378634D01*
X173753767Y-77198435D01*
X174119574Y-77087469D01*
X174500000Y-77050000D01*
X174880426Y-77087469D01*
G37*
G36*
X174880426Y-129087469D02*
G01*
X175246233Y-129198435D01*
X175583362Y-129378634D01*
X175878858Y-129621142D01*
X176121366Y-129916638D01*
X176301565Y-130253767D01*
X176412531Y-130619574D01*
X176450000Y-131000000D01*
X176412531Y-131380426D01*
X176301565Y-131746233D01*
X176121366Y-132083362D01*
X175878858Y-132378858D01*
X175583362Y-132621366D01*
X175246233Y-132801565D01*
X174880426Y-132912531D01*
X174500000Y-132950000D01*
X174119574Y-132912531D01*
X173753767Y-132801565D01*
X173416638Y-132621366D01*
X173121142Y-132378858D01*
X172878634Y-132083362D01*
X172698435Y-131746233D01*
X172587469Y-131380426D01*
X172550000Y-131000000D01*
X172587469Y-130619574D01*
X172698435Y-130253767D01*
X172878634Y-129916638D01*
X173121142Y-129621142D01*
X173416638Y-129378634D01*
X173753767Y-129198435D01*
X174119574Y-129087469D01*
X174500000Y-129050000D01*
X174880426Y-129087469D01*
G37*
G36*
X122880426Y-77087469D02*
G01*
X123246233Y-77198435D01*
X123583362Y-77378634D01*
X123878858Y-77621142D01*
X124121366Y-77916638D01*
X124301565Y-78253767D01*
X124412531Y-78619574D01*
X124450000Y-79000000D01*
X124412531Y-79380426D01*
X124301565Y-79746233D01*
X124121366Y-80083362D01*
X123878858Y-80378858D01*
X123583362Y-80621366D01*
X123246233Y-80801565D01*
X122880426Y-80912531D01*
X122500000Y-80950000D01*
X122119574Y-80912531D01*
X121753767Y-80801565D01*
X121416638Y-80621366D01*
X121121142Y-80378858D01*
X120878634Y-80083362D01*
X120698435Y-79746233D01*
X120587469Y-79380426D01*
X120550000Y-79000000D01*
X120587469Y-78619574D01*
X120698435Y-78253767D01*
X120878634Y-77916638D01*
X121121142Y-77621142D01*
X121416638Y-77378634D01*
X121753767Y-77198435D01*
X122119574Y-77087469D01*
X122500000Y-77050000D01*
X122880426Y-77087469D01*
G37*
G36*
X122880426Y-129087469D02*
G01*
X123246233Y-129198435D01*
X123583362Y-129378634D01*
X123878858Y-129621142D01*
X124121366Y-129916638D01*
X124301565Y-130253767D01*
X124412531Y-130619574D01*
X124450000Y-131000000D01*
X124412531Y-131380426D01*
X124301565Y-131746233D01*
X124121366Y-132083362D01*
X123878858Y-132378858D01*
X123583362Y-132621366D01*
X123246233Y-132801565D01*
X122880426Y-132912531D01*
X122500000Y-132950000D01*
X122119574Y-132912531D01*
X121753767Y-132801565D01*
X121416638Y-132621366D01*
X121121142Y-132378858D01*
X120878634Y-132083362D01*
X120698435Y-131746233D01*
X120587469Y-131380426D01*
X120550000Y-131000000D01*
X120587469Y-130619574D01*
X120698435Y-130253767D01*
X120878634Y-129916638D01*
X121121142Y-129621142D01*
X121416638Y-129378634D01*
X121753767Y-129198435D01*
X122119574Y-129087469D01*
X122500000Y-129050000D01*
X122880426Y-129087469D01*
G37*
G36*
X174880426Y-77087469D02*
G01*
X175246233Y-77198435D01*
X175583362Y-77378634D01*
X175878858Y-77621142D01*
X176121366Y-77916638D01*
X176301565Y-78253767D01*
X176412531Y-78619574D01*
X176450000Y-79000000D01*
X176412531Y-79380426D01*
X176301565Y-79746233D01*
X176121366Y-80083362D01*
X175878858Y-80378858D01*
X175583362Y-80621366D01*
X175246233Y-80801565D01*
X174880426Y-80912531D01*
X174500000Y-80950000D01*
X174119574Y-80912531D01*
X173753767Y-80801565D01*
X173416638Y-80621366D01*
X173121142Y-80378858D01*
X172878634Y-80083362D01*
X172698435Y-79746233D01*
X172587469Y-79380426D01*
X172550000Y-79000000D01*
X172587469Y-78619574D01*
X172698435Y-78253767D01*
X172878634Y-77916638D01*
X173121142Y-77621142D01*
X173416638Y-77378634D01*
X173753767Y-77198435D01*
X174119574Y-77087469D01*
X174500000Y-77050000D01*
X174880426Y-77087469D01*
G37*
G36*
X174880426Y-129087469D02*
G01*
X175246233Y-129198435D01*
X175583362Y-129378634D01*
X175878858Y-129621142D01*
X176121366Y-129916638D01*
X176301565Y-130253767D01*
X176412531Y-130619574D01*
X176450000Y-131000000D01*
X176412531Y-131380426D01*
X176301565Y-131746233D01*
X176121366Y-132083362D01*
X175878858Y-132378858D01*
X175583362Y-132621366D01*
X175246233Y-132801565D01*
X174880426Y-132912531D01*
X174500000Y-132950000D01*
X174119574Y-132912531D01*
X173753767Y-132801565D01*
X173416638Y-132621366D01*
X173121142Y-132378858D01*
X172878634Y-132083362D01*
X172698435Y-131746233D01*
X172587469Y-131380426D01*
X172550000Y-131000000D01*
X172587469Y-130619574D01*
X172698435Y-130253767D01*
X172878634Y-129916638D01*
X173121142Y-129621142D01*
X173416638Y-129378634D01*
X173753767Y-129198435D01*
X174119574Y-129087469D01*
X174500000Y-129050000D01*
X174880426Y-129087469D01*
G37*
G36*
X122880426Y-77087469D02*
G01*
X123246233Y-77198435D01*
X123583362Y-77378634D01*
X123878858Y-77621142D01*
X124121366Y-77916638D01*
X124301565Y-78253767D01*
X124412531Y-78619574D01*
X124450000Y-79000000D01*
X124412531Y-79380426D01*
X124301565Y-79746233D01*
X124121366Y-80083362D01*
X123878858Y-80378858D01*
X123583362Y-80621366D01*
X123246233Y-80801565D01*
X122880426Y-80912531D01*
X122500000Y-80950000D01*
X122119574Y-80912531D01*
X121753767Y-80801565D01*
X121416638Y-80621366D01*
X121121142Y-80378858D01*
X120878634Y-80083362D01*
X120698435Y-79746233D01*
X120587469Y-79380426D01*
X120550000Y-79000000D01*
X120587469Y-78619574D01*
X120698435Y-78253767D01*
X120878634Y-77916638D01*
X121121142Y-77621142D01*
X121416638Y-77378634D01*
X121753767Y-77198435D01*
X122119574Y-77087469D01*
X122500000Y-77050000D01*
X122880426Y-77087469D01*
G37*
G36*
G01*
X147880000Y-91777500D02*
X147880000Y-92222500D01*
G75*
G02*
X147682500Y-92420000I-197500J0D01*
G01*
X147287500Y-92420000D01*
G75*
G02*
X147090000Y-92222500I0J197500D01*
G01*
X147090000Y-91777500D01*
G75*
G02*
X147287500Y-91580000I197500J0D01*
G01*
X147682500Y-91580000D01*
G75*
G02*
X147880000Y-91777500I0J-197500D01*
G01*
G37*
G36*
G01*
X146910000Y-91777500D02*
X146910000Y-92222500D01*
G75*
G02*
X146712500Y-92420000I-197500J0D01*
G01*
X146317500Y-92420000D01*
G75*
G02*
X146120000Y-92222500I0J197500D01*
G01*
X146120000Y-91777500D01*
G75*
G02*
X146317500Y-91580000I197500J0D01*
G01*
X146712500Y-91580000D01*
G75*
G02*
X146910000Y-91777500I0J-197500D01*
G01*
G37*
G36*
G01*
X146120000Y-91243780D02*
X146120000Y-90798780D01*
G75*
G02*
X146317500Y-90601280I197500J0D01*
G01*
X146712500Y-90601280D01*
G75*
G02*
X146910000Y-90798780I0J-197500D01*
G01*
X146910000Y-91243780D01*
G75*
G02*
X146712500Y-91441280I-197500J0D01*
G01*
X146317500Y-91441280D01*
G75*
G02*
X146120000Y-91243780I0J197500D01*
G01*
G37*
G36*
G01*
X147090000Y-91243780D02*
X147090000Y-90798780D01*
G75*
G02*
X147287500Y-90601280I197500J0D01*
G01*
X147682500Y-90601280D01*
G75*
G02*
X147880000Y-90798780I0J-197500D01*
G01*
X147880000Y-91243780D01*
G75*
G02*
X147682500Y-91441280I-197500J0D01*
G01*
X147287500Y-91441280D01*
G75*
G02*
X147090000Y-91243780I0J197500D01*
G01*
G37*
D10*
X122500000Y-131000000D03*
G36*
G01*
X127125748Y-117165000D02*
X130014252Y-117165000D01*
G75*
G02*
X130130000Y-117280748I0J-115748D01*
G01*
X130130000Y-118519252D01*
G75*
G02*
X130014252Y-118635000I-115748J0D01*
G01*
X127125748Y-118635000D01*
G75*
G02*
X127010000Y-118519252I0J115748D01*
G01*
X127010000Y-117280748D01*
G75*
G02*
X127125748Y-117165000I115748J0D01*
G01*
G37*
G36*
G01*
X127125748Y-114165000D02*
X130014252Y-114165000D01*
G75*
G02*
X130130000Y-114280748I0J-115748D01*
G01*
X130130000Y-115519252D01*
G75*
G02*
X130014252Y-115635000I-115748J0D01*
G01*
X127125748Y-115635000D01*
G75*
G02*
X127010000Y-115519252I0J115748D01*
G01*
X127010000Y-114280748D01*
G75*
G02*
X127125748Y-114165000I115748J0D01*
G01*
G37*
G36*
G01*
X127125748Y-111165000D02*
X130014252Y-111165000D01*
G75*
G02*
X130130000Y-111280748I0J-115748D01*
G01*
X130130000Y-112519252D01*
G75*
G02*
X130014252Y-112635000I-115748J0D01*
G01*
X127125748Y-112635000D01*
G75*
G02*
X127010000Y-112519252I0J115748D01*
G01*
X127010000Y-111280748D01*
G75*
G02*
X127125748Y-111165000I115748J0D01*
G01*
G37*
G36*
G01*
X122287121Y-119970000D02*
X123912879Y-119970000D01*
G75*
G02*
X124025000Y-120082121I0J-112121D01*
G01*
X124025000Y-123487879D01*
G75*
G02*
X123912879Y-123600000I-112121J0D01*
G01*
X122287121Y-123600000D01*
G75*
G02*
X122175000Y-123487879I0J112121D01*
G01*
X122175000Y-120082121D01*
G75*
G02*
X122287121Y-119970000I112121J0D01*
G01*
G37*
G36*
G01*
X122287121Y-106200000D02*
X123912879Y-106200000D01*
G75*
G02*
X124025000Y-106312121I0J-112121D01*
G01*
X124025000Y-109717879D01*
G75*
G02*
X123912879Y-109830000I-112121J0D01*
G01*
X122287121Y-109830000D01*
G75*
G02*
X122175000Y-109717879I0J112121D01*
G01*
X122175000Y-106312121D01*
G75*
G02*
X122287121Y-106200000I112121J0D01*
G01*
G37*
G36*
G01*
X121470000Y-95344231D02*
X121470000Y-94755769D01*
G75*
G02*
X121600769Y-94625000I130769J0D01*
G01*
X122599231Y-94625000D01*
G75*
G02*
X122730000Y-94755769I0J-130769D01*
G01*
X122730000Y-95344231D01*
G75*
G02*
X122599231Y-95475000I-130769J0D01*
G01*
X121600769Y-95475000D01*
G75*
G02*
X121470000Y-95344231I0J130769D01*
G01*
G37*
G36*
G01*
X121470000Y-96294231D02*
X121470000Y-95705769D01*
G75*
G02*
X121600769Y-95575000I130769J0D01*
G01*
X122599231Y-95575000D01*
G75*
G02*
X122730000Y-95705769I0J-130769D01*
G01*
X122730000Y-96294231D01*
G75*
G02*
X122599231Y-96425000I-130769J0D01*
G01*
X121600769Y-96425000D01*
G75*
G02*
X121470000Y-96294231I0J130769D01*
G01*
G37*
G36*
G01*
X121470000Y-97244231D02*
X121470000Y-96655769D01*
G75*
G02*
X121600769Y-96525000I130769J0D01*
G01*
X122599231Y-96525000D01*
G75*
G02*
X122730000Y-96655769I0J-130769D01*
G01*
X122730000Y-97244231D01*
G75*
G02*
X122599231Y-97375000I-130769J0D01*
G01*
X121600769Y-97375000D01*
G75*
G02*
X121470000Y-97244231I0J130769D01*
G01*
G37*
G36*
G01*
X123670000Y-97244231D02*
X123670000Y-96655769D01*
G75*
G02*
X123800769Y-96525000I130769J0D01*
G01*
X124799231Y-96525000D01*
G75*
G02*
X124930000Y-96655769I0J-130769D01*
G01*
X124930000Y-97244231D01*
G75*
G02*
X124799231Y-97375000I-130769J0D01*
G01*
X123800769Y-97375000D01*
G75*
G02*
X123670000Y-97244231I0J130769D01*
G01*
G37*
G36*
G01*
X123670000Y-95344231D02*
X123670000Y-94755769D01*
G75*
G02*
X123800769Y-94625000I130769J0D01*
G01*
X124799231Y-94625000D01*
G75*
G02*
X124930000Y-94755769I0J-130769D01*
G01*
X124930000Y-95344231D01*
G75*
G02*
X124799231Y-95475000I-130769J0D01*
G01*
X123800769Y-95475000D01*
G75*
G02*
X123670000Y-95344231I0J130769D01*
G01*
G37*
G36*
G01*
X129806250Y-96525000D02*
X129193750Y-96525000D01*
G75*
G02*
X128925000Y-96256250I0J268750D01*
G01*
X128925000Y-95718750D01*
G75*
G02*
X129193750Y-95450000I268750J0D01*
G01*
X129806250Y-95450000D01*
G75*
G02*
X130075000Y-95718750I0J-268750D01*
G01*
X130075000Y-96256250D01*
G75*
G02*
X129806250Y-96525000I-268750J0D01*
G01*
G37*
G36*
G01*
X129806250Y-94950000D02*
X129193750Y-94950000D01*
G75*
G02*
X128925000Y-94681250I0J268750D01*
G01*
X128925000Y-94143750D01*
G75*
G02*
X129193750Y-93875000I268750J0D01*
G01*
X129806250Y-93875000D01*
G75*
G02*
X130075000Y-94143750I0J-268750D01*
G01*
X130075000Y-94681250D01*
G75*
G02*
X129806250Y-94950000I-268750J0D01*
G01*
G37*
G36*
G01*
X129777500Y-97120000D02*
X130222500Y-97120000D01*
G75*
G02*
X130420000Y-97317500I0J-197500D01*
G01*
X130420000Y-97712500D01*
G75*
G02*
X130222500Y-97910000I-197500J0D01*
G01*
X129777500Y-97910000D01*
G75*
G02*
X129580000Y-97712500I0J197500D01*
G01*
X129580000Y-97317500D01*
G75*
G02*
X129777500Y-97120000I197500J0D01*
G01*
G37*
G36*
G01*
X129777500Y-98090000D02*
X130222500Y-98090000D01*
G75*
G02*
X130420000Y-98287500I0J-197500D01*
G01*
X130420000Y-98682500D01*
G75*
G02*
X130222500Y-98880000I-197500J0D01*
G01*
X129777500Y-98880000D01*
G75*
G02*
X129580000Y-98682500I0J197500D01*
G01*
X129580000Y-98287500D01*
G75*
G02*
X129777500Y-98090000I197500J0D01*
G01*
G37*
G36*
G01*
X130920000Y-122400000D02*
X133080000Y-122400000D01*
G75*
G02*
X133350000Y-122670000I0J-270000D01*
G01*
X133350000Y-126330000D01*
G75*
G02*
X133080000Y-126600000I-270000J0D01*
G01*
X130920000Y-126600000D01*
G75*
G02*
X130650000Y-126330000I0J270000D01*
G01*
X130650000Y-122670000D01*
G75*
G02*
X130920000Y-122400000I270000J0D01*
G01*
G37*
G36*
G01*
X130920000Y-130400000D02*
X133080000Y-130400000D01*
G75*
G02*
X133350000Y-130670000I0J-270000D01*
G01*
X133350000Y-134330000D01*
G75*
G02*
X133080000Y-134600000I-270000J0D01*
G01*
X130920000Y-134600000D01*
G75*
G02*
X130650000Y-134330000I0J270000D01*
G01*
X130650000Y-130670000D01*
G75*
G02*
X130920000Y-130400000I270000J0D01*
G01*
G37*
G36*
G01*
X138080000Y-117100000D02*
X135920000Y-117100000D01*
G75*
G02*
X135650000Y-116830000I0J270000D01*
G01*
X135650000Y-113170000D01*
G75*
G02*
X135920000Y-112900000I270000J0D01*
G01*
X138080000Y-112900000D01*
G75*
G02*
X138350000Y-113170000I0J-270000D01*
G01*
X138350000Y-116830000D01*
G75*
G02*
X138080000Y-117100000I-270000J0D01*
G01*
G37*
G36*
G01*
X138080000Y-109100000D02*
X135920000Y-109100000D01*
G75*
G02*
X135650000Y-108830000I0J270000D01*
G01*
X135650000Y-105170000D01*
G75*
G02*
X135920000Y-104900000I270000J0D01*
G01*
X138080000Y-104900000D01*
G75*
G02*
X138350000Y-105170000I0J-270000D01*
G01*
X138350000Y-108830000D01*
G75*
G02*
X138080000Y-109100000I-270000J0D01*
G01*
G37*
G36*
G01*
X161080000Y-117100000D02*
X158920000Y-117100000D01*
G75*
G02*
X158650000Y-116830000I0J270000D01*
G01*
X158650000Y-113170000D01*
G75*
G02*
X158920000Y-112900000I270000J0D01*
G01*
X161080000Y-112900000D01*
G75*
G02*
X161350000Y-113170000I0J-270000D01*
G01*
X161350000Y-116830000D01*
G75*
G02*
X161080000Y-117100000I-270000J0D01*
G01*
G37*
G36*
G01*
X161080000Y-109100000D02*
X158920000Y-109100000D01*
G75*
G02*
X158650000Y-108830000I0J270000D01*
G01*
X158650000Y-105170000D01*
G75*
G02*
X158920000Y-104900000I270000J0D01*
G01*
X161080000Y-104900000D01*
G75*
G02*
X161350000Y-105170000I0J-270000D01*
G01*
X161350000Y-108830000D01*
G75*
G02*
X161080000Y-109100000I-270000J0D01*
G01*
G37*
G36*
G01*
X169764252Y-109505000D02*
X166875748Y-109505000D01*
G75*
G02*
X166760000Y-109389252I0J115748D01*
G01*
X166760000Y-108150748D01*
G75*
G02*
X166875748Y-108035000I115748J0D01*
G01*
X169764252Y-108035000D01*
G75*
G02*
X169880000Y-108150748I0J-115748D01*
G01*
X169880000Y-109389252D01*
G75*
G02*
X169764252Y-109505000I-115748J0D01*
G01*
G37*
G36*
G01*
X169764252Y-112505000D02*
X166875748Y-112505000D01*
G75*
G02*
X166760000Y-112389252I0J115748D01*
G01*
X166760000Y-111150748D01*
G75*
G02*
X166875748Y-111035000I115748J0D01*
G01*
X169764252Y-111035000D01*
G75*
G02*
X169880000Y-111150748I0J-115748D01*
G01*
X169880000Y-112389252D01*
G75*
G02*
X169764252Y-112505000I-115748J0D01*
G01*
G37*
G36*
G01*
X169764252Y-115505000D02*
X166875748Y-115505000D01*
G75*
G02*
X166760000Y-115389252I0J115748D01*
G01*
X166760000Y-114150748D01*
G75*
G02*
X166875748Y-114035000I115748J0D01*
G01*
X169764252Y-114035000D01*
G75*
G02*
X169880000Y-114150748I0J-115748D01*
G01*
X169880000Y-115389252D01*
G75*
G02*
X169764252Y-115505000I-115748J0D01*
G01*
G37*
G36*
G01*
X169764252Y-118505000D02*
X166875748Y-118505000D01*
G75*
G02*
X166760000Y-118389252I0J115748D01*
G01*
X166760000Y-117150748D01*
G75*
G02*
X166875748Y-117035000I115748J0D01*
G01*
X169764252Y-117035000D01*
G75*
G02*
X169880000Y-117150748I0J-115748D01*
G01*
X169880000Y-118389252D01*
G75*
G02*
X169764252Y-118505000I-115748J0D01*
G01*
G37*
G36*
G01*
X169764252Y-121505000D02*
X166875748Y-121505000D01*
G75*
G02*
X166760000Y-121389252I0J115748D01*
G01*
X166760000Y-120150748D01*
G75*
G02*
X166875748Y-120035000I115748J0D01*
G01*
X169764252Y-120035000D01*
G75*
G02*
X169880000Y-120150748I0J-115748D01*
G01*
X169880000Y-121389252D01*
G75*
G02*
X169764252Y-121505000I-115748J0D01*
G01*
G37*
D11*
X173790000Y-122920000D03*
X173790000Y-106620000D03*
G36*
G01*
X120822500Y-96280000D02*
X120377500Y-96280000D01*
G75*
G02*
X120180000Y-96082500I0J197500D01*
G01*
X120180000Y-95687500D01*
G75*
G02*
X120377500Y-95490000I197500J0D01*
G01*
X120822500Y-95490000D01*
G75*
G02*
X121020000Y-95687500I0J-197500D01*
G01*
X121020000Y-96082500D01*
G75*
G02*
X120822500Y-96280000I-197500J0D01*
G01*
G37*
G36*
G01*
X120822500Y-95310000D02*
X120377500Y-95310000D01*
G75*
G02*
X120180000Y-95112500I0J197500D01*
G01*
X120180000Y-94717500D01*
G75*
G02*
X120377500Y-94520000I197500J0D01*
G01*
X120822500Y-94520000D01*
G75*
G02*
X121020000Y-94717500I0J-197500D01*
G01*
X121020000Y-95112500D01*
G75*
G02*
X120822500Y-95310000I-197500J0D01*
G01*
G37*
G36*
G01*
X152495000Y-126264252D02*
X152495000Y-123375748D01*
G75*
G02*
X152610748Y-123260000I115748J0D01*
G01*
X153849252Y-123260000D01*
G75*
G02*
X153965000Y-123375748I0J-115748D01*
G01*
X153965000Y-126264252D01*
G75*
G02*
X153849252Y-126380000I-115748J0D01*
G01*
X152610748Y-126380000D01*
G75*
G02*
X152495000Y-126264252I0J115748D01*
G01*
G37*
G36*
G01*
X149495000Y-126264252D02*
X149495000Y-123375748D01*
G75*
G02*
X149610748Y-123260000I115748J0D01*
G01*
X150849252Y-123260000D01*
G75*
G02*
X150965000Y-123375748I0J-115748D01*
G01*
X150965000Y-126264252D01*
G75*
G02*
X150849252Y-126380000I-115748J0D01*
G01*
X149610748Y-126380000D01*
G75*
G02*
X149495000Y-126264252I0J115748D01*
G01*
G37*
G36*
G01*
X146495000Y-126264252D02*
X146495000Y-123375748D01*
G75*
G02*
X146610748Y-123260000I115748J0D01*
G01*
X147849252Y-123260000D01*
G75*
G02*
X147965000Y-123375748I0J-115748D01*
G01*
X147965000Y-126264252D01*
G75*
G02*
X147849252Y-126380000I-115748J0D01*
G01*
X146610748Y-126380000D01*
G75*
G02*
X146495000Y-126264252I0J115748D01*
G01*
G37*
G36*
G01*
X143495000Y-126264252D02*
X143495000Y-123375748D01*
G75*
G02*
X143610748Y-123260000I115748J0D01*
G01*
X144849252Y-123260000D01*
G75*
G02*
X144965000Y-123375748I0J-115748D01*
G01*
X144965000Y-126264252D01*
G75*
G02*
X144849252Y-126380000I-115748J0D01*
G01*
X143610748Y-126380000D01*
G75*
G02*
X143495000Y-126264252I0J115748D01*
G01*
G37*
G36*
G01*
X140495000Y-126264252D02*
X140495000Y-123375748D01*
G75*
G02*
X140610748Y-123260000I115748J0D01*
G01*
X141849252Y-123260000D01*
G75*
G02*
X141965000Y-123375748I0J-115748D01*
G01*
X141965000Y-126264252D01*
G75*
G02*
X141849252Y-126380000I-115748J0D01*
G01*
X140610748Y-126380000D01*
G75*
G02*
X140495000Y-126264252I0J115748D01*
G01*
G37*
X139080000Y-130290000D03*
X155380000Y-130290000D03*
G36*
G01*
X161520000Y-122400000D02*
X163680000Y-122400000D01*
G75*
G02*
X163950000Y-122670000I0J-270000D01*
G01*
X163950000Y-126330000D01*
G75*
G02*
X163680000Y-126600000I-270000J0D01*
G01*
X161520000Y-126600000D01*
G75*
G02*
X161250000Y-126330000I0J270000D01*
G01*
X161250000Y-122670000D01*
G75*
G02*
X161520000Y-122400000I270000J0D01*
G01*
G37*
G36*
G01*
X161520000Y-130400000D02*
X163680000Y-130400000D01*
G75*
G02*
X163950000Y-130670000I0J-270000D01*
G01*
X163950000Y-134330000D01*
G75*
G02*
X163680000Y-134600000I-270000J0D01*
G01*
X161520000Y-134600000D01*
G75*
G02*
X161250000Y-134330000I0J270000D01*
G01*
X161250000Y-130670000D01*
G75*
G02*
X161520000Y-130400000I270000J0D01*
G01*
G37*
G36*
G01*
X122620000Y-84722500D02*
X122620000Y-84277500D01*
G75*
G02*
X122817500Y-84080000I197500J0D01*
G01*
X123212500Y-84080000D01*
G75*
G02*
X123410000Y-84277500I0J-197500D01*
G01*
X123410000Y-84722500D01*
G75*
G02*
X123212500Y-84920000I-197500J0D01*
G01*
X122817500Y-84920000D01*
G75*
G02*
X122620000Y-84722500I0J197500D01*
G01*
G37*
G36*
G01*
X123590000Y-84722500D02*
X123590000Y-84277500D01*
G75*
G02*
X123787500Y-84080000I197500J0D01*
G01*
X124182500Y-84080000D01*
G75*
G02*
X124380000Y-84277500I0J-197500D01*
G01*
X124380000Y-84722500D01*
G75*
G02*
X124182500Y-84920000I-197500J0D01*
G01*
X123787500Y-84920000D01*
G75*
G02*
X123590000Y-84722500I0J197500D01*
G01*
G37*
G36*
G01*
X122620000Y-83762220D02*
X122620000Y-83317220D01*
G75*
G02*
X122817500Y-83119720I197500J0D01*
G01*
X123212500Y-83119720D01*
G75*
G02*
X123410000Y-83317220I0J-197500D01*
G01*
X123410000Y-83762220D01*
G75*
G02*
X123212500Y-83959720I-197500J0D01*
G01*
X122817500Y-83959720D01*
G75*
G02*
X122620000Y-83762220I0J197500D01*
G01*
G37*
G36*
G01*
X123590000Y-83762220D02*
X123590000Y-83317220D01*
G75*
G02*
X123787500Y-83119720I197500J0D01*
G01*
X124182500Y-83119720D01*
G75*
G02*
X124380000Y-83317220I0J-197500D01*
G01*
X124380000Y-83762220D01*
G75*
G02*
X124182500Y-83959720I-197500J0D01*
G01*
X123787500Y-83959720D01*
G75*
G02*
X123590000Y-83762220I0J197500D01*
G01*
G37*
G36*
G01*
X122620000Y-85722500D02*
X122620000Y-85277500D01*
G75*
G02*
X122817500Y-85080000I197500J0D01*
G01*
X123212500Y-85080000D01*
G75*
G02*
X123410000Y-85277500I0J-197500D01*
G01*
X123410000Y-85722500D01*
G75*
G02*
X123212500Y-85920000I-197500J0D01*
G01*
X122817500Y-85920000D01*
G75*
G02*
X122620000Y-85722500I0J197500D01*
G01*
G37*
G36*
G01*
X123590000Y-85722500D02*
X123590000Y-85277500D01*
G75*
G02*
X123787500Y-85080000I197500J0D01*
G01*
X124182500Y-85080000D01*
G75*
G02*
X124380000Y-85277500I0J-197500D01*
G01*
X124380000Y-85722500D01*
G75*
G02*
X124182500Y-85920000I-197500J0D01*
G01*
X123787500Y-85920000D01*
G75*
G02*
X123590000Y-85722500I0J197500D01*
G01*
G37*
G36*
G01*
X120655556Y-83825000D02*
X120294444Y-83825000D01*
G75*
G02*
X120150000Y-83680556I0J144444D01*
G01*
X120150000Y-83319444D01*
G75*
G02*
X120294444Y-83175000I144444J0D01*
G01*
X120655556Y-83175000D01*
G75*
G02*
X120800000Y-83319444I0J-144444D01*
G01*
X120800000Y-83680556D01*
G75*
G02*
X120655556Y-83825000I-144444J0D01*
G01*
G37*
G36*
G01*
X121505556Y-83825000D02*
X121144444Y-83825000D01*
G75*
G02*
X121000000Y-83680556I0J144444D01*
G01*
X121000000Y-83319444D01*
G75*
G02*
X121144444Y-83175000I144444J0D01*
G01*
X121505556Y-83175000D01*
G75*
G02*
X121650000Y-83319444I0J-144444D01*
G01*
X121650000Y-83680556D01*
G75*
G02*
X121505556Y-83825000I-144444J0D01*
G01*
G37*
G36*
G01*
X121505556Y-84675000D02*
X121144444Y-84675000D01*
G75*
G02*
X121000000Y-84530556I0J144444D01*
G01*
X121000000Y-84169444D01*
G75*
G02*
X121144444Y-84025000I144444J0D01*
G01*
X121505556Y-84025000D01*
G75*
G02*
X121650000Y-84169444I0J-144444D01*
G01*
X121650000Y-84530556D01*
G75*
G02*
X121505556Y-84675000I-144444J0D01*
G01*
G37*
G36*
G01*
X120655556Y-84675000D02*
X120294444Y-84675000D01*
G75*
G02*
X120150000Y-84530556I0J144444D01*
G01*
X120150000Y-84169444D01*
G75*
G02*
X120294444Y-84025000I144444J0D01*
G01*
X120655556Y-84025000D01*
G75*
G02*
X120800000Y-84169444I0J-144444D01*
G01*
X120800000Y-84530556D01*
G75*
G02*
X120655556Y-84675000I-144444J0D01*
G01*
G37*
G36*
G01*
X149580000Y-117100000D02*
X147420000Y-117100000D01*
G75*
G02*
X147150000Y-116830000I0J270000D01*
G01*
X147150000Y-113170000D01*
G75*
G02*
X147420000Y-112900000I270000J0D01*
G01*
X149580000Y-112900000D01*
G75*
G02*
X149850000Y-113170000I0J-270000D01*
G01*
X149850000Y-116830000D01*
G75*
G02*
X149580000Y-117100000I-270000J0D01*
G01*
G37*
G36*
G01*
X149580000Y-109100000D02*
X147420000Y-109100000D01*
G75*
G02*
X147150000Y-108830000I0J270000D01*
G01*
X147150000Y-105170000D01*
G75*
G02*
X147420000Y-104900000I270000J0D01*
G01*
X149580000Y-104900000D01*
G75*
G02*
X149850000Y-105170000I0J-270000D01*
G01*
X149850000Y-108830000D01*
G75*
G02*
X149580000Y-109100000I-270000J0D01*
G01*
G37*
G36*
G01*
X119722500Y-89980000D02*
X119277500Y-89980000D01*
G75*
G02*
X119080000Y-89782500I0J197500D01*
G01*
X119080000Y-89387500D01*
G75*
G02*
X119277500Y-89190000I197500J0D01*
G01*
X119722500Y-89190000D01*
G75*
G02*
X119920000Y-89387500I0J-197500D01*
G01*
X119920000Y-89782500D01*
G75*
G02*
X119722500Y-89980000I-197500J0D01*
G01*
G37*
G36*
G01*
X119722500Y-89010000D02*
X119277500Y-89010000D01*
G75*
G02*
X119080000Y-88812500I0J197500D01*
G01*
X119080000Y-88417500D01*
G75*
G02*
X119277500Y-88220000I197500J0D01*
G01*
X119722500Y-88220000D01*
G75*
G02*
X119920000Y-88417500I0J-197500D01*
G01*
X119920000Y-88812500D01*
G75*
G02*
X119722500Y-89010000I-197500J0D01*
G01*
G37*
G36*
G01*
X120020000Y-85922500D02*
X120020000Y-85477500D01*
G75*
G02*
X120217500Y-85280000I197500J0D01*
G01*
X120612500Y-85280000D01*
G75*
G02*
X120810000Y-85477500I0J-197500D01*
G01*
X120810000Y-85922500D01*
G75*
G02*
X120612500Y-86120000I-197500J0D01*
G01*
X120217500Y-86120000D01*
G75*
G02*
X120020000Y-85922500I0J197500D01*
G01*
G37*
G36*
G01*
X120990000Y-85922500D02*
X120990000Y-85477500D01*
G75*
G02*
X121187500Y-85280000I197500J0D01*
G01*
X121582500Y-85280000D01*
G75*
G02*
X121780000Y-85477500I0J-197500D01*
G01*
X121780000Y-85922500D01*
G75*
G02*
X121582500Y-86120000I-197500J0D01*
G01*
X121187500Y-86120000D01*
G75*
G02*
X120990000Y-85922500I0J197500D01*
G01*
G37*
G36*
G01*
X120280000Y-87080000D02*
X120280000Y-86780000D01*
G75*
G02*
X120430000Y-86630000I150000J0D01*
G01*
X120780000Y-86630000D01*
G75*
G02*
X120930000Y-86780000I0J-150000D01*
G01*
X120930000Y-87080000D01*
G75*
G02*
X120780000Y-87230000I-150000J0D01*
G01*
X120430000Y-87230000D01*
G75*
G02*
X120280000Y-87080000I0J150000D01*
G01*
G37*
G36*
G01*
X120280000Y-87880000D02*
X120280000Y-87580000D01*
G75*
G02*
X120430000Y-87430000I150000J0D01*
G01*
X120780000Y-87430000D01*
G75*
G02*
X120930000Y-87580000I0J-150000D01*
G01*
X120930000Y-87880000D01*
G75*
G02*
X120780000Y-88030000I-150000J0D01*
G01*
X120430000Y-88030000D01*
G75*
G02*
X120280000Y-87880000I0J150000D01*
G01*
G37*
G36*
G01*
X120280000Y-88680000D02*
X120280000Y-88380000D01*
G75*
G02*
X120430000Y-88230000I150000J0D01*
G01*
X120780000Y-88230000D01*
G75*
G02*
X120930000Y-88380000I0J-150000D01*
G01*
X120930000Y-88680000D01*
G75*
G02*
X120780000Y-88830000I-150000J0D01*
G01*
X120430000Y-88830000D01*
G75*
G02*
X120280000Y-88680000I0J150000D01*
G01*
G37*
G36*
G01*
X120280000Y-89480000D02*
X120280000Y-89180000D01*
G75*
G02*
X120430000Y-89030000I150000J0D01*
G01*
X120780000Y-89030000D01*
G75*
G02*
X120930000Y-89180000I0J-150000D01*
G01*
X120930000Y-89480000D01*
G75*
G02*
X120780000Y-89630000I-150000J0D01*
G01*
X120430000Y-89630000D01*
G75*
G02*
X120280000Y-89480000I0J150000D01*
G01*
G37*
G36*
G01*
X123230000Y-89480000D02*
X123230000Y-89180000D01*
G75*
G02*
X123380000Y-89030000I150000J0D01*
G01*
X123730000Y-89030000D01*
G75*
G02*
X123880000Y-89180000I0J-150000D01*
G01*
X123880000Y-89480000D01*
G75*
G02*
X123730000Y-89630000I-150000J0D01*
G01*
X123380000Y-89630000D01*
G75*
G02*
X123230000Y-89480000I0J150000D01*
G01*
G37*
G36*
G01*
X123230000Y-88680000D02*
X123230000Y-88380000D01*
G75*
G02*
X123380000Y-88230000I150000J0D01*
G01*
X123730000Y-88230000D01*
G75*
G02*
X123880000Y-88380000I0J-150000D01*
G01*
X123880000Y-88680000D01*
G75*
G02*
X123730000Y-88830000I-150000J0D01*
G01*
X123380000Y-88830000D01*
G75*
G02*
X123230000Y-88680000I0J150000D01*
G01*
G37*
G36*
G01*
X123230000Y-87880000D02*
X123230000Y-87580000D01*
G75*
G02*
X123380000Y-87430000I150000J0D01*
G01*
X123730000Y-87430000D01*
G75*
G02*
X123880000Y-87580000I0J-150000D01*
G01*
X123880000Y-87880000D01*
G75*
G02*
X123730000Y-88030000I-150000J0D01*
G01*
X123380000Y-88030000D01*
G75*
G02*
X123230000Y-87880000I0J150000D01*
G01*
G37*
G36*
G01*
X123230000Y-87080000D02*
X123230000Y-86780000D01*
G75*
G02*
X123380000Y-86630000I150000J0D01*
G01*
X123730000Y-86630000D01*
G75*
G02*
X123880000Y-86780000I0J-150000D01*
G01*
X123880000Y-87080000D01*
G75*
G02*
X123730000Y-87230000I-150000J0D01*
G01*
X123380000Y-87230000D01*
G75*
G02*
X123230000Y-87080000I0J150000D01*
G01*
G37*
G36*
G01*
X122130000Y-89055000D02*
X122130000Y-87205000D01*
G75*
G02*
X122255000Y-87080000I125000J0D01*
G01*
X123005000Y-87080000D01*
G75*
G02*
X123130000Y-87205000I0J-125000D01*
G01*
X123130000Y-89055000D01*
G75*
G02*
X123005000Y-89180000I-125000J0D01*
G01*
X122255000Y-89180000D01*
G75*
G02*
X122130000Y-89055000I0J125000D01*
G01*
G37*
D12*
X121530000Y-88130000D03*
G36*
G01*
X121030000Y-89055000D02*
X121030000Y-87205000D01*
G75*
G02*
X121155000Y-87080000I125000J0D01*
G01*
X121905000Y-87080000D01*
G75*
G02*
X122030000Y-87205000I0J-125000D01*
G01*
X122030000Y-89055000D01*
G75*
G02*
X121905000Y-89180000I-125000J0D01*
G01*
X121155000Y-89180000D01*
G75*
G02*
X121030000Y-89055000I0J125000D01*
G01*
G37*
X122630000Y-88130000D03*
G36*
G01*
X119722500Y-88080000D02*
X119277500Y-88080000D01*
G75*
G02*
X119080000Y-87882500I0J197500D01*
G01*
X119080000Y-87487500D01*
G75*
G02*
X119277500Y-87290000I197500J0D01*
G01*
X119722500Y-87290000D01*
G75*
G02*
X119920000Y-87487500I0J-197500D01*
G01*
X119920000Y-87882500D01*
G75*
G02*
X119722500Y-88080000I-197500J0D01*
G01*
G37*
G36*
G01*
X119722500Y-87110000D02*
X119277500Y-87110000D01*
G75*
G02*
X119080000Y-86912500I0J197500D01*
G01*
X119080000Y-86517500D01*
G75*
G02*
X119277500Y-86320000I197500J0D01*
G01*
X119722500Y-86320000D01*
G75*
G02*
X119920000Y-86517500I0J-197500D01*
G01*
X119920000Y-86912500D01*
G75*
G02*
X119722500Y-87110000I-197500J0D01*
G01*
G37*
G36*
G01*
X127135000Y-90625000D02*
X124865000Y-90625000D01*
G75*
G02*
X124575000Y-90335000I0J290000D01*
G01*
X124575000Y-89465000D01*
G75*
G02*
X124865000Y-89175000I290000J0D01*
G01*
X127135000Y-89175000D01*
G75*
G02*
X127425000Y-89465000I0J-290000D01*
G01*
X127425000Y-90335000D01*
G75*
G02*
X127135000Y-90625000I-290000J0D01*
G01*
G37*
G36*
G01*
X127135000Y-87825000D02*
X124865000Y-87825000D01*
G75*
G02*
X124575000Y-87535000I0J290000D01*
G01*
X124575000Y-86665000D01*
G75*
G02*
X124865000Y-86375000I290000J0D01*
G01*
X127135000Y-86375000D01*
G75*
G02*
X127425000Y-86665000I0J-290000D01*
G01*
X127425000Y-87535000D01*
G75*
G02*
X127135000Y-87825000I-290000J0D01*
G01*
G37*
G36*
G01*
X119175000Y-93435000D02*
X119175000Y-91165000D01*
G75*
G02*
X119465000Y-90875000I290000J0D01*
G01*
X120335000Y-90875000D01*
G75*
G02*
X120625000Y-91165000I0J-290000D01*
G01*
X120625000Y-93435000D01*
G75*
G02*
X120335000Y-93725000I-290000J0D01*
G01*
X119465000Y-93725000D01*
G75*
G02*
X119175000Y-93435000I0J290000D01*
G01*
G37*
G36*
G01*
X121975000Y-93435000D02*
X121975000Y-91165000D01*
G75*
G02*
X122265000Y-90875000I290000J0D01*
G01*
X123135000Y-90875000D01*
G75*
G02*
X123425000Y-91165000I0J-290000D01*
G01*
X123425000Y-93435000D01*
G75*
G02*
X123135000Y-93725000I-290000J0D01*
G01*
X122265000Y-93725000D01*
G75*
G02*
X121975000Y-93435000I0J290000D01*
G01*
G37*
G36*
G01*
X175925000Y-94865000D02*
X175925000Y-97135000D01*
G75*
G02*
X175635000Y-97425000I-290000J0D01*
G01*
X174765000Y-97425000D01*
G75*
G02*
X174475000Y-97135000I0J290000D01*
G01*
X174475000Y-94865000D01*
G75*
G02*
X174765000Y-94575000I290000J0D01*
G01*
X175635000Y-94575000D01*
G75*
G02*
X175925000Y-94865000I0J-290000D01*
G01*
G37*
G36*
G01*
X173125000Y-94865000D02*
X173125000Y-97135000D01*
G75*
G02*
X172835000Y-97425000I-290000J0D01*
G01*
X171965000Y-97425000D01*
G75*
G02*
X171675000Y-97135000I0J290000D01*
G01*
X171675000Y-94865000D01*
G75*
G02*
X171965000Y-94575000I290000J0D01*
G01*
X172835000Y-94575000D01*
G75*
G02*
X173125000Y-94865000I0J-290000D01*
G01*
G37*
G36*
G01*
X171225000Y-95465000D02*
X171225000Y-97735000D01*
G75*
G02*
X170935000Y-98025000I-290000J0D01*
G01*
X170065000Y-98025000D01*
G75*
G02*
X169775000Y-97735000I0J290000D01*
G01*
X169775000Y-95465000D01*
G75*
G02*
X170065000Y-95175000I290000J0D01*
G01*
X170935000Y-95175000D01*
G75*
G02*
X171225000Y-95465000I0J-290000D01*
G01*
G37*
G36*
G01*
X168425000Y-95465000D02*
X168425000Y-97735000D01*
G75*
G02*
X168135000Y-98025000I-290000J0D01*
G01*
X167265000Y-98025000D01*
G75*
G02*
X166975000Y-97735000I0J290000D01*
G01*
X166975000Y-95465000D01*
G75*
G02*
X167265000Y-95175000I290000J0D01*
G01*
X168135000Y-95175000D01*
G75*
G02*
X168425000Y-95465000I0J-290000D01*
G01*
G37*
G36*
G01*
X169800000Y-87938235D02*
X169800000Y-86261765D01*
G75*
G02*
X169911765Y-86150000I111765J0D01*
G01*
X171888235Y-86150000D01*
G75*
G02*
X172000000Y-86261765I0J-111765D01*
G01*
X172000000Y-87938235D01*
G75*
G02*
X171888235Y-88050000I-111765J0D01*
G01*
X169911765Y-88050000D01*
G75*
G02*
X169800000Y-87938235I0J111765D01*
G01*
G37*
G36*
G01*
X175800000Y-87938235D02*
X175800000Y-86261765D01*
G75*
G02*
X175911765Y-86150000I111765J0D01*
G01*
X177888235Y-86150000D01*
G75*
G02*
X178000000Y-86261765I0J-111765D01*
G01*
X178000000Y-87938235D01*
G75*
G02*
X177888235Y-88050000I-111765J0D01*
G01*
X175911765Y-88050000D01*
G75*
G02*
X175800000Y-87938235I0J111765D01*
G01*
G37*
G36*
G01*
X166522500Y-97780000D02*
X166077500Y-97780000D01*
G75*
G02*
X165880000Y-97582500I0J197500D01*
G01*
X165880000Y-97187500D01*
G75*
G02*
X166077500Y-96990000I197500J0D01*
G01*
X166522500Y-96990000D01*
G75*
G02*
X166720000Y-97187500I0J-197500D01*
G01*
X166720000Y-97582500D01*
G75*
G02*
X166522500Y-97780000I-197500J0D01*
G01*
G37*
G36*
G01*
X166522500Y-96810000D02*
X166077500Y-96810000D01*
G75*
G02*
X165880000Y-96612500I0J197500D01*
G01*
X165880000Y-96217500D01*
G75*
G02*
X166077500Y-96020000I197500J0D01*
G01*
X166522500Y-96020000D01*
G75*
G02*
X166720000Y-96217500I0J-197500D01*
G01*
X166720000Y-96612500D01*
G75*
G02*
X166522500Y-96810000I-197500J0D01*
G01*
G37*
G36*
G01*
X135065000Y-117475000D02*
X137335000Y-117475000D01*
G75*
G02*
X137625000Y-117765000I0J-290000D01*
G01*
X137625000Y-118635000D01*
G75*
G02*
X137335000Y-118925000I-290000J0D01*
G01*
X135065000Y-118925000D01*
G75*
G02*
X134775000Y-118635000I0J290000D01*
G01*
X134775000Y-117765000D01*
G75*
G02*
X135065000Y-117475000I290000J0D01*
G01*
G37*
G36*
G01*
X135065000Y-120275000D02*
X137335000Y-120275000D01*
G75*
G02*
X137625000Y-120565000I0J-290000D01*
G01*
X137625000Y-121435000D01*
G75*
G02*
X137335000Y-121725000I-290000J0D01*
G01*
X135065000Y-121725000D01*
G75*
G02*
X134775000Y-121435000I0J290000D01*
G01*
X134775000Y-120565000D01*
G75*
G02*
X135065000Y-120275000I290000J0D01*
G01*
G37*
G36*
G01*
X161650000Y-91137500D02*
X161650000Y-91362500D01*
G75*
G02*
X161537500Y-91475000I-112500J0D01*
G01*
X160737500Y-91475000D01*
G75*
G02*
X160625000Y-91362500I0J112500D01*
G01*
X160625000Y-91137500D01*
G75*
G02*
X160737500Y-91025000I112500J0D01*
G01*
X161537500Y-91025000D01*
G75*
G02*
X161650000Y-91137500I0J-112500D01*
G01*
G37*
G36*
G01*
X161650000Y-90637500D02*
X161650000Y-90862500D01*
G75*
G02*
X161537500Y-90975000I-112500J0D01*
G01*
X160737500Y-90975000D01*
G75*
G02*
X160625000Y-90862500I0J112500D01*
G01*
X160625000Y-90637500D01*
G75*
G02*
X160737500Y-90525000I112500J0D01*
G01*
X161537500Y-90525000D01*
G75*
G02*
X161650000Y-90637500I0J-112500D01*
G01*
G37*
G36*
G01*
X161650000Y-90137500D02*
X161650000Y-90362500D01*
G75*
G02*
X161537500Y-90475000I-112500J0D01*
G01*
X160737500Y-90475000D01*
G75*
G02*
X160625000Y-90362500I0J112500D01*
G01*
X160625000Y-90137500D01*
G75*
G02*
X160737500Y-90025000I112500J0D01*
G01*
X161537500Y-90025000D01*
G75*
G02*
X161650000Y-90137500I0J-112500D01*
G01*
G37*
G36*
G01*
X161650000Y-89637500D02*
X161650000Y-89862500D01*
G75*
G02*
X161537500Y-89975000I-112500J0D01*
G01*
X160737500Y-89975000D01*
G75*
G02*
X160625000Y-89862500I0J112500D01*
G01*
X160625000Y-89637500D01*
G75*
G02*
X160737500Y-89525000I112500J0D01*
G01*
X161537500Y-89525000D01*
G75*
G02*
X161650000Y-89637500I0J-112500D01*
G01*
G37*
G36*
G01*
X161650000Y-89137500D02*
X161650000Y-89362500D01*
G75*
G02*
X161537500Y-89475000I-112500J0D01*
G01*
X160737500Y-89475000D01*
G75*
G02*
X160625000Y-89362500I0J112500D01*
G01*
X160625000Y-89137500D01*
G75*
G02*
X160737500Y-89025000I112500J0D01*
G01*
X161537500Y-89025000D01*
G75*
G02*
X161650000Y-89137500I0J-112500D01*
G01*
G37*
G36*
G01*
X161650000Y-88637500D02*
X161650000Y-88862500D01*
G75*
G02*
X161537500Y-88975000I-112500J0D01*
G01*
X160737500Y-88975000D01*
G75*
G02*
X160625000Y-88862500I0J112500D01*
G01*
X160625000Y-88637500D01*
G75*
G02*
X160737500Y-88525000I112500J0D01*
G01*
X161537500Y-88525000D01*
G75*
G02*
X161650000Y-88637500I0J-112500D01*
G01*
G37*
G36*
G01*
X160675000Y-87662500D02*
X160675000Y-88462500D01*
G75*
G02*
X160562500Y-88575000I-112500J0D01*
G01*
X160337500Y-88575000D01*
G75*
G02*
X160225000Y-88462500I0J112500D01*
G01*
X160225000Y-87662500D01*
G75*
G02*
X160337500Y-87550000I112500J0D01*
G01*
X160562500Y-87550000D01*
G75*
G02*
X160675000Y-87662500I0J-112500D01*
G01*
G37*
G36*
G01*
X160175000Y-87662500D02*
X160175000Y-88462500D01*
G75*
G02*
X160062500Y-88575000I-112500J0D01*
G01*
X159837500Y-88575000D01*
G75*
G02*
X159725000Y-88462500I0J112500D01*
G01*
X159725000Y-87662500D01*
G75*
G02*
X159837500Y-87550000I112500J0D01*
G01*
X160062500Y-87550000D01*
G75*
G02*
X160175000Y-87662500I0J-112500D01*
G01*
G37*
G36*
G01*
X159675000Y-87662500D02*
X159675000Y-88462500D01*
G75*
G02*
X159562500Y-88575000I-112500J0D01*
G01*
X159337500Y-88575000D01*
G75*
G02*
X159225000Y-88462500I0J112500D01*
G01*
X159225000Y-87662500D01*
G75*
G02*
X159337500Y-87550000I112500J0D01*
G01*
X159562500Y-87550000D01*
G75*
G02*
X159675000Y-87662500I0J-112500D01*
G01*
G37*
G36*
G01*
X159175000Y-87662500D02*
X159175000Y-88462500D01*
G75*
G02*
X159062500Y-88575000I-112500J0D01*
G01*
X158837500Y-88575000D01*
G75*
G02*
X158725000Y-88462500I0J112500D01*
G01*
X158725000Y-87662500D01*
G75*
G02*
X158837500Y-87550000I112500J0D01*
G01*
X159062500Y-87550000D01*
G75*
G02*
X159175000Y-87662500I0J-112500D01*
G01*
G37*
G36*
G01*
X158675000Y-87662500D02*
X158675000Y-88462500D01*
G75*
G02*
X158562500Y-88575000I-112500J0D01*
G01*
X158337500Y-88575000D01*
G75*
G02*
X158225000Y-88462500I0J112500D01*
G01*
X158225000Y-87662500D01*
G75*
G02*
X158337500Y-87550000I112500J0D01*
G01*
X158562500Y-87550000D01*
G75*
G02*
X158675000Y-87662500I0J-112500D01*
G01*
G37*
G36*
G01*
X158175000Y-87662500D02*
X158175000Y-88462500D01*
G75*
G02*
X158062500Y-88575000I-112500J0D01*
G01*
X157837500Y-88575000D01*
G75*
G02*
X157725000Y-88462500I0J112500D01*
G01*
X157725000Y-87662500D01*
G75*
G02*
X157837500Y-87550000I112500J0D01*
G01*
X158062500Y-87550000D01*
G75*
G02*
X158175000Y-87662500I0J-112500D01*
G01*
G37*
G36*
G01*
X157775000Y-88637500D02*
X157775000Y-88862500D01*
G75*
G02*
X157662500Y-88975000I-112500J0D01*
G01*
X156862500Y-88975000D01*
G75*
G02*
X156750000Y-88862500I0J112500D01*
G01*
X156750000Y-88637500D01*
G75*
G02*
X156862500Y-88525000I112500J0D01*
G01*
X157662500Y-88525000D01*
G75*
G02*
X157775000Y-88637500I0J-112500D01*
G01*
G37*
G36*
G01*
X157775000Y-89137500D02*
X157775000Y-89362500D01*
G75*
G02*
X157662500Y-89475000I-112500J0D01*
G01*
X156862500Y-89475000D01*
G75*
G02*
X156750000Y-89362500I0J112500D01*
G01*
X156750000Y-89137500D01*
G75*
G02*
X156862500Y-89025000I112500J0D01*
G01*
X157662500Y-89025000D01*
G75*
G02*
X157775000Y-89137500I0J-112500D01*
G01*
G37*
G36*
G01*
X157775000Y-89637500D02*
X157775000Y-89862500D01*
G75*
G02*
X157662500Y-89975000I-112500J0D01*
G01*
X156862500Y-89975000D01*
G75*
G02*
X156750000Y-89862500I0J112500D01*
G01*
X156750000Y-89637500D01*
G75*
G02*
X156862500Y-89525000I112500J0D01*
G01*
X157662500Y-89525000D01*
G75*
G02*
X157775000Y-89637500I0J-112500D01*
G01*
G37*
G36*
G01*
X157775000Y-90137500D02*
X157775000Y-90362500D01*
G75*
G02*
X157662500Y-90475000I-112500J0D01*
G01*
X156862500Y-90475000D01*
G75*
G02*
X156750000Y-90362500I0J112500D01*
G01*
X156750000Y-90137500D01*
G75*
G02*
X156862500Y-90025000I112500J0D01*
G01*
X157662500Y-90025000D01*
G75*
G02*
X157775000Y-90137500I0J-112500D01*
G01*
G37*
G36*
G01*
X157775000Y-90637500D02*
X157775000Y-90862500D01*
G75*
G02*
X157662500Y-90975000I-112500J0D01*
G01*
X156862500Y-90975000D01*
G75*
G02*
X156750000Y-90862500I0J112500D01*
G01*
X156750000Y-90637500D01*
G75*
G02*
X156862500Y-90525000I112500J0D01*
G01*
X157662500Y-90525000D01*
G75*
G02*
X157775000Y-90637500I0J-112500D01*
G01*
G37*
G36*
G01*
X157775000Y-91137500D02*
X157775000Y-91362500D01*
G75*
G02*
X157662500Y-91475000I-112500J0D01*
G01*
X156862500Y-91475000D01*
G75*
G02*
X156750000Y-91362500I0J112500D01*
G01*
X156750000Y-91137500D01*
G75*
G02*
X156862500Y-91025000I112500J0D01*
G01*
X157662500Y-91025000D01*
G75*
G02*
X157775000Y-91137500I0J-112500D01*
G01*
G37*
G36*
G01*
X158175000Y-91537500D02*
X158175000Y-92337500D01*
G75*
G02*
X158062500Y-92450000I-112500J0D01*
G01*
X157837500Y-92450000D01*
G75*
G02*
X157725000Y-92337500I0J112500D01*
G01*
X157725000Y-91537500D01*
G75*
G02*
X157837500Y-91425000I112500J0D01*
G01*
X158062500Y-91425000D01*
G75*
G02*
X158175000Y-91537500I0J-112500D01*
G01*
G37*
G36*
G01*
X158675000Y-91537500D02*
X158675000Y-92337500D01*
G75*
G02*
X158562500Y-92450000I-112500J0D01*
G01*
X158337500Y-92450000D01*
G75*
G02*
X158225000Y-92337500I0J112500D01*
G01*
X158225000Y-91537500D01*
G75*
G02*
X158337500Y-91425000I112500J0D01*
G01*
X158562500Y-91425000D01*
G75*
G02*
X158675000Y-91537500I0J-112500D01*
G01*
G37*
G36*
G01*
X159175000Y-91537500D02*
X159175000Y-92337500D01*
G75*
G02*
X159062500Y-92450000I-112500J0D01*
G01*
X158837500Y-92450000D01*
G75*
G02*
X158725000Y-92337500I0J112500D01*
G01*
X158725000Y-91537500D01*
G75*
G02*
X158837500Y-91425000I112500J0D01*
G01*
X159062500Y-91425000D01*
G75*
G02*
X159175000Y-91537500I0J-112500D01*
G01*
G37*
G36*
G01*
X159675000Y-91537500D02*
X159675000Y-92337500D01*
G75*
G02*
X159562500Y-92450000I-112500J0D01*
G01*
X159337500Y-92450000D01*
G75*
G02*
X159225000Y-92337500I0J112500D01*
G01*
X159225000Y-91537500D01*
G75*
G02*
X159337500Y-91425000I112500J0D01*
G01*
X159562500Y-91425000D01*
G75*
G02*
X159675000Y-91537500I0J-112500D01*
G01*
G37*
G36*
G01*
X160175000Y-91537500D02*
X160175000Y-92337500D01*
G75*
G02*
X160062500Y-92450000I-112500J0D01*
G01*
X159837500Y-92450000D01*
G75*
G02*
X159725000Y-92337500I0J112500D01*
G01*
X159725000Y-91537500D01*
G75*
G02*
X159837500Y-91425000I112500J0D01*
G01*
X160062500Y-91425000D01*
G75*
G02*
X160175000Y-91537500I0J-112500D01*
G01*
G37*
G36*
G01*
X160675000Y-91537500D02*
X160675000Y-92337500D01*
G75*
G02*
X160562500Y-92450000I-112500J0D01*
G01*
X160337500Y-92450000D01*
G75*
G02*
X160225000Y-92337500I0J112500D01*
G01*
X160225000Y-91537500D01*
G75*
G02*
X160337500Y-91425000I112500J0D01*
G01*
X160562500Y-91425000D01*
G75*
G02*
X160675000Y-91537500I0J-112500D01*
G01*
G37*
G36*
G01*
X160600000Y-88869231D02*
X160600000Y-91130769D01*
G75*
G02*
X160330769Y-91400000I-269231J0D01*
G01*
X158069231Y-91400000D01*
G75*
G02*
X157800000Y-91130769I0J269231D01*
G01*
X157800000Y-88869231D01*
G75*
G02*
X158069231Y-88600000I269231J0D01*
G01*
X160330769Y-88600000D01*
G75*
G02*
X160600000Y-88869231I0J-269231D01*
G01*
G37*
D13*
X165800000Y-103700000D03*
X144500000Y-99700000D03*
X153400000Y-90900000D03*
X154900000Y-92400000D03*
X160500000Y-98300000D03*
G36*
G01*
X144480000Y-89377500D02*
X144480000Y-89822500D01*
G75*
G02*
X144282500Y-90020000I-197500J0D01*
G01*
X143887500Y-90020000D01*
G75*
G02*
X143690000Y-89822500I0J197500D01*
G01*
X143690000Y-89377500D01*
G75*
G02*
X143887500Y-89180000I197500J0D01*
G01*
X144282500Y-89180000D01*
G75*
G02*
X144480000Y-89377500I0J-197500D01*
G01*
G37*
G36*
G01*
X143510000Y-89377500D02*
X143510000Y-89822500D01*
G75*
G02*
X143312500Y-90020000I-197500J0D01*
G01*
X142917500Y-90020000D01*
G75*
G02*
X142720000Y-89822500I0J197500D01*
G01*
X142720000Y-89377500D01*
G75*
G02*
X142917500Y-89180000I197500J0D01*
G01*
X143312500Y-89180000D01*
G75*
G02*
X143510000Y-89377500I0J-197500D01*
G01*
G37*
G36*
G01*
X145400000Y-90775000D02*
X145400000Y-92425000D01*
G75*
G02*
X145275000Y-92550000I-125000J0D01*
G01*
X144525000Y-92550000D01*
G75*
G02*
X144400000Y-92425000I0J125000D01*
G01*
X144400000Y-90775000D01*
G75*
G02*
X144525000Y-90650000I125000J0D01*
G01*
X145275000Y-90650000D01*
G75*
G02*
X145400000Y-90775000I0J-125000D01*
G01*
G37*
G36*
G01*
X142000000Y-90775000D02*
X142000000Y-92425000D01*
G75*
G02*
X141875000Y-92550000I-125000J0D01*
G01*
X141125000Y-92550000D01*
G75*
G02*
X141000000Y-92425000I0J125000D01*
G01*
X141000000Y-90775000D01*
G75*
G02*
X141125000Y-90650000I125000J0D01*
G01*
X141875000Y-90650000D01*
G75*
G02*
X142000000Y-90775000I0J-125000D01*
G01*
G37*
G36*
G01*
X144222500Y-94980000D02*
X143777500Y-94980000D01*
G75*
G02*
X143580000Y-94782500I0J197500D01*
G01*
X143580000Y-94387500D01*
G75*
G02*
X143777500Y-94190000I197500J0D01*
G01*
X144222500Y-94190000D01*
G75*
G02*
X144420000Y-94387500I0J-197500D01*
G01*
X144420000Y-94782500D01*
G75*
G02*
X144222500Y-94980000I-197500J0D01*
G01*
G37*
G36*
G01*
X144222500Y-94010000D02*
X143777500Y-94010000D01*
G75*
G02*
X143580000Y-93812500I0J197500D01*
G01*
X143580000Y-93417500D01*
G75*
G02*
X143777500Y-93220000I197500J0D01*
G01*
X144222500Y-93220000D01*
G75*
G02*
X144420000Y-93417500I0J-197500D01*
G01*
X144420000Y-93812500D01*
G75*
G02*
X144222500Y-94010000I-197500J0D01*
G01*
G37*
D14*
X138500000Y-79400000D03*
D15*
X138500000Y-76860000D03*
X141040000Y-79400000D03*
X141040000Y-76860000D03*
X143580000Y-79400000D03*
X143580000Y-76860000D03*
X146120000Y-79400000D03*
X146120000Y-76860000D03*
X148660000Y-79400000D03*
X148660000Y-76860000D03*
X151200000Y-79400000D03*
X151200000Y-76860000D03*
X153740000Y-79400000D03*
X153740000Y-76860000D03*
X156280000Y-79400000D03*
X156280000Y-76860000D03*
G36*
G01*
X141377500Y-93220000D02*
X141822500Y-93220000D01*
G75*
G02*
X142020000Y-93417500I0J-197500D01*
G01*
X142020000Y-93812500D01*
G75*
G02*
X141822500Y-94010000I-197500J0D01*
G01*
X141377500Y-94010000D01*
G75*
G02*
X141180000Y-93812500I0J197500D01*
G01*
X141180000Y-93417500D01*
G75*
G02*
X141377500Y-93220000I197500J0D01*
G01*
G37*
G36*
G01*
X141377500Y-94190000D02*
X141822500Y-94190000D01*
G75*
G02*
X142020000Y-94387500I0J-197500D01*
G01*
X142020000Y-94782500D01*
G75*
G02*
X141822500Y-94980000I-197500J0D01*
G01*
X141377500Y-94980000D01*
G75*
G02*
X141180000Y-94782500I0J197500D01*
G01*
X141180000Y-94387500D01*
G75*
G02*
X141377500Y-94190000I197500J0D01*
G01*
G37*
D16*
X133230000Y-77465000D03*
X133230000Y-78735000D03*
X131960000Y-77465000D03*
X131960000Y-78735000D03*
X130690000Y-77465000D03*
X130690000Y-78735000D03*
D17*
X129420000Y-79116000D03*
X134500000Y-78100000D03*
X129420000Y-77084000D03*
G36*
G01*
X144025000Y-95493750D02*
X144025000Y-96106250D01*
G75*
G02*
X143756250Y-96375000I-268750J0D01*
G01*
X143218750Y-96375000D01*
G75*
G02*
X142950000Y-96106250I0J268750D01*
G01*
X142950000Y-95493750D01*
G75*
G02*
X143218750Y-95225000I268750J0D01*
G01*
X143756250Y-95225000D01*
G75*
G02*
X144025000Y-95493750I0J-268750D01*
G01*
G37*
G36*
G01*
X142450000Y-95493750D02*
X142450000Y-96106250D01*
G75*
G02*
X142181250Y-96375000I-268750J0D01*
G01*
X141643750Y-96375000D01*
G75*
G02*
X141375000Y-96106250I0J268750D01*
G01*
X141375000Y-95493750D01*
G75*
G02*
X141643750Y-95225000I268750J0D01*
G01*
X142181250Y-95225000D01*
G75*
G02*
X142450000Y-95493750I0J-268750D01*
G01*
G37*
G36*
G01*
X129222500Y-98880000D02*
X128777500Y-98880000D01*
G75*
G02*
X128580000Y-98682500I0J197500D01*
G01*
X128580000Y-98287500D01*
G75*
G02*
X128777500Y-98090000I197500J0D01*
G01*
X129222500Y-98090000D01*
G75*
G02*
X129420000Y-98287500I0J-197500D01*
G01*
X129420000Y-98682500D01*
G75*
G02*
X129222500Y-98880000I-197500J0D01*
G01*
G37*
G36*
G01*
X129222500Y-97910000D02*
X128777500Y-97910000D01*
G75*
G02*
X128580000Y-97712500I0J197500D01*
G01*
X128580000Y-97317500D01*
G75*
G02*
X128777500Y-97120000I197500J0D01*
G01*
X129222500Y-97120000D01*
G75*
G02*
X129420000Y-97317500I0J-197500D01*
G01*
X129420000Y-97712500D01*
G75*
G02*
X129222500Y-97910000I-197500J0D01*
G01*
G37*
G36*
G01*
X128765000Y-103775000D02*
X131035000Y-103775000D01*
G75*
G02*
X131325000Y-104065000I0J-290000D01*
G01*
X131325000Y-104935000D01*
G75*
G02*
X131035000Y-105225000I-290000J0D01*
G01*
X128765000Y-105225000D01*
G75*
G02*
X128475000Y-104935000I0J290000D01*
G01*
X128475000Y-104065000D01*
G75*
G02*
X128765000Y-103775000I290000J0D01*
G01*
G37*
G36*
G01*
X128765000Y-106575000D02*
X131035000Y-106575000D01*
G75*
G02*
X131325000Y-106865000I0J-290000D01*
G01*
X131325000Y-107735000D01*
G75*
G02*
X131035000Y-108025000I-290000J0D01*
G01*
X128765000Y-108025000D01*
G75*
G02*
X128475000Y-107735000I0J290000D01*
G01*
X128475000Y-106865000D01*
G75*
G02*
X128765000Y-106575000I290000J0D01*
G01*
G37*
G36*
G01*
X171225000Y-98665000D02*
X171225000Y-100935000D01*
G75*
G02*
X170935000Y-101225000I-290000J0D01*
G01*
X170065000Y-101225000D01*
G75*
G02*
X169775000Y-100935000I0J290000D01*
G01*
X169775000Y-98665000D01*
G75*
G02*
X170065000Y-98375000I290000J0D01*
G01*
X170935000Y-98375000D01*
G75*
G02*
X171225000Y-98665000I0J-290000D01*
G01*
G37*
G36*
G01*
X168425000Y-98665000D02*
X168425000Y-100935000D01*
G75*
G02*
X168135000Y-101225000I-290000J0D01*
G01*
X167265000Y-101225000D01*
G75*
G02*
X166975000Y-100935000I0J290000D01*
G01*
X166975000Y-98665000D01*
G75*
G02*
X167265000Y-98375000I290000J0D01*
G01*
X168135000Y-98375000D01*
G75*
G02*
X168425000Y-98665000I0J-290000D01*
G01*
G37*
G36*
G01*
X175925000Y-91665000D02*
X175925000Y-93935000D01*
G75*
G02*
X175635000Y-94225000I-290000J0D01*
G01*
X174765000Y-94225000D01*
G75*
G02*
X174475000Y-93935000I0J290000D01*
G01*
X174475000Y-91665000D01*
G75*
G02*
X174765000Y-91375000I290000J0D01*
G01*
X175635000Y-91375000D01*
G75*
G02*
X175925000Y-91665000I0J-290000D01*
G01*
G37*
G36*
G01*
X173125000Y-91665000D02*
X173125000Y-93935000D01*
G75*
G02*
X172835000Y-94225000I-290000J0D01*
G01*
X171965000Y-94225000D01*
G75*
G02*
X171675000Y-93935000I0J290000D01*
G01*
X171675000Y-91665000D01*
G75*
G02*
X171965000Y-91375000I290000J0D01*
G01*
X172835000Y-91375000D01*
G75*
G02*
X173125000Y-91665000I0J-290000D01*
G01*
G37*
G36*
G01*
X169451329Y-87394444D02*
X169451329Y-88805556D01*
G75*
G02*
X169306885Y-88950000I-144444J0D01*
G01*
X168945773Y-88950000D01*
G75*
G02*
X168801329Y-88805556I0J144444D01*
G01*
X168801329Y-87394444D01*
G75*
G02*
X168945773Y-87250000I144444J0D01*
G01*
X169306885Y-87250000D01*
G75*
G02*
X169451329Y-87394444I0J-144444D01*
G01*
G37*
G36*
G01*
X168801329Y-87394444D02*
X168801329Y-88805556D01*
G75*
G02*
X168656885Y-88950000I-144444J0D01*
G01*
X168295773Y-88950000D01*
G75*
G02*
X168151329Y-88805556I0J144444D01*
G01*
X168151329Y-87394444D01*
G75*
G02*
X168295773Y-87250000I144444J0D01*
G01*
X168656885Y-87250000D01*
G75*
G02*
X168801329Y-87394444I0J-144444D01*
G01*
G37*
G36*
G01*
X168151329Y-87394444D02*
X168151329Y-88805556D01*
G75*
G02*
X168006885Y-88950000I-144444J0D01*
G01*
X167645773Y-88950000D01*
G75*
G02*
X167501329Y-88805556I0J144444D01*
G01*
X167501329Y-87394444D01*
G75*
G02*
X167645773Y-87250000I144444J0D01*
G01*
X168006885Y-87250000D01*
G75*
G02*
X168151329Y-87394444I0J-144444D01*
G01*
G37*
G36*
G01*
X167501329Y-87394444D02*
X167501329Y-88805556D01*
G75*
G02*
X167356885Y-88950000I-144444J0D01*
G01*
X166995773Y-88950000D01*
G75*
G02*
X166851329Y-88805556I0J144444D01*
G01*
X166851329Y-87394444D01*
G75*
G02*
X166995773Y-87250000I144444J0D01*
G01*
X167356885Y-87250000D01*
G75*
G02*
X167501329Y-87394444I0J-144444D01*
G01*
G37*
G36*
G01*
X166851329Y-87394444D02*
X166851329Y-88805556D01*
G75*
G02*
X166706885Y-88950000I-144444J0D01*
G01*
X166345773Y-88950000D01*
G75*
G02*
X166201329Y-88805556I0J144444D01*
G01*
X166201329Y-87394444D01*
G75*
G02*
X166345773Y-87250000I144444J0D01*
G01*
X166706885Y-87250000D01*
G75*
G02*
X166851329Y-87394444I0J-144444D01*
G01*
G37*
G36*
G01*
X166201329Y-87394444D02*
X166201329Y-88805556D01*
G75*
G02*
X166056885Y-88950000I-144444J0D01*
G01*
X165695773Y-88950000D01*
G75*
G02*
X165551329Y-88805556I0J144444D01*
G01*
X165551329Y-87394444D01*
G75*
G02*
X165695773Y-87250000I144444J0D01*
G01*
X166056885Y-87250000D01*
G75*
G02*
X166201329Y-87394444I0J-144444D01*
G01*
G37*
G36*
G01*
X165551329Y-87394444D02*
X165551329Y-88805556D01*
G75*
G02*
X165406885Y-88950000I-144444J0D01*
G01*
X165045773Y-88950000D01*
G75*
G02*
X164901329Y-88805556I0J144444D01*
G01*
X164901329Y-87394444D01*
G75*
G02*
X165045773Y-87250000I144444J0D01*
G01*
X165406885Y-87250000D01*
G75*
G02*
X165551329Y-87394444I0J-144444D01*
G01*
G37*
G36*
G01*
X164901329Y-87394444D02*
X164901329Y-88805556D01*
G75*
G02*
X164756885Y-88950000I-144444J0D01*
G01*
X164395773Y-88950000D01*
G75*
G02*
X164251329Y-88805556I0J144444D01*
G01*
X164251329Y-87394444D01*
G75*
G02*
X164395773Y-87250000I144444J0D01*
G01*
X164756885Y-87250000D01*
G75*
G02*
X164901329Y-87394444I0J-144444D01*
G01*
G37*
G36*
G01*
X164901329Y-93194444D02*
X164901329Y-94605556D01*
G75*
G02*
X164756885Y-94750000I-144444J0D01*
G01*
X164395773Y-94750000D01*
G75*
G02*
X164251329Y-94605556I0J144444D01*
G01*
X164251329Y-93194444D01*
G75*
G02*
X164395773Y-93050000I144444J0D01*
G01*
X164756885Y-93050000D01*
G75*
G02*
X164901329Y-93194444I0J-144444D01*
G01*
G37*
G36*
G01*
X165551329Y-93194444D02*
X165551329Y-94605556D01*
G75*
G02*
X165406885Y-94750000I-144444J0D01*
G01*
X165045773Y-94750000D01*
G75*
G02*
X164901329Y-94605556I0J144444D01*
G01*
X164901329Y-93194444D01*
G75*
G02*
X165045773Y-93050000I144444J0D01*
G01*
X165406885Y-93050000D01*
G75*
G02*
X165551329Y-93194444I0J-144444D01*
G01*
G37*
G36*
G01*
X166201329Y-93194444D02*
X166201329Y-94605556D01*
G75*
G02*
X166056885Y-94750000I-144444J0D01*
G01*
X165695773Y-94750000D01*
G75*
G02*
X165551329Y-94605556I0J144444D01*
G01*
X165551329Y-93194444D01*
G75*
G02*
X165695773Y-93050000I144444J0D01*
G01*
X166056885Y-93050000D01*
G75*
G02*
X166201329Y-93194444I0J-144444D01*
G01*
G37*
G36*
G01*
X166851329Y-93194444D02*
X166851329Y-94605556D01*
G75*
G02*
X166706885Y-94750000I-144444J0D01*
G01*
X166345773Y-94750000D01*
G75*
G02*
X166201329Y-94605556I0J144444D01*
G01*
X166201329Y-93194444D01*
G75*
G02*
X166345773Y-93050000I144444J0D01*
G01*
X166706885Y-93050000D01*
G75*
G02*
X166851329Y-93194444I0J-144444D01*
G01*
G37*
G36*
G01*
X167501329Y-93194444D02*
X167501329Y-94605556D01*
G75*
G02*
X167356885Y-94750000I-144444J0D01*
G01*
X166995773Y-94750000D01*
G75*
G02*
X166851329Y-94605556I0J144444D01*
G01*
X166851329Y-93194444D01*
G75*
G02*
X166995773Y-93050000I144444J0D01*
G01*
X167356885Y-93050000D01*
G75*
G02*
X167501329Y-93194444I0J-144444D01*
G01*
G37*
G36*
G01*
X168151329Y-93194444D02*
X168151329Y-94605556D01*
G75*
G02*
X168006885Y-94750000I-144444J0D01*
G01*
X167645773Y-94750000D01*
G75*
G02*
X167501329Y-94605556I0J144444D01*
G01*
X167501329Y-93194444D01*
G75*
G02*
X167645773Y-93050000I144444J0D01*
G01*
X168006885Y-93050000D01*
G75*
G02*
X168151329Y-93194444I0J-144444D01*
G01*
G37*
G36*
G01*
X168801329Y-93194444D02*
X168801329Y-94605556D01*
G75*
G02*
X168656885Y-94750000I-144444J0D01*
G01*
X168295773Y-94750000D01*
G75*
G02*
X168151329Y-94605556I0J144444D01*
G01*
X168151329Y-93194444D01*
G75*
G02*
X168295773Y-93050000I144444J0D01*
G01*
X168656885Y-93050000D01*
G75*
G02*
X168801329Y-93194444I0J-144444D01*
G01*
G37*
G36*
G01*
X169451329Y-93194444D02*
X169451329Y-94605556D01*
G75*
G02*
X169306885Y-94750000I-144444J0D01*
G01*
X168945773Y-94750000D01*
G75*
G02*
X168801329Y-94605556I0J144444D01*
G01*
X168801329Y-93194444D01*
G75*
G02*
X168945773Y-93050000I144444J0D01*
G01*
X169306885Y-93050000D01*
G75*
G02*
X169451329Y-93194444I0J-144444D01*
G01*
G37*
G36*
G01*
X169451329Y-89305882D02*
X169451329Y-92694118D01*
G75*
G02*
X169345447Y-92800000I-105882J0D01*
G01*
X164357211Y-92800000D01*
G75*
G02*
X164251329Y-92694118I0J105882D01*
G01*
X164251329Y-89305882D01*
G75*
G02*
X164357211Y-89200000I105882J0D01*
G01*
X169345447Y-89200000D01*
G75*
G02*
X169451329Y-89305882I0J-105882D01*
G01*
G37*
G36*
G01*
X167620000Y-86822500D02*
X167620000Y-86377500D01*
G75*
G02*
X167817500Y-86180000I197500J0D01*
G01*
X168212500Y-86180000D01*
G75*
G02*
X168410000Y-86377500I0J-197500D01*
G01*
X168410000Y-86822500D01*
G75*
G02*
X168212500Y-87020000I-197500J0D01*
G01*
X167817500Y-87020000D01*
G75*
G02*
X167620000Y-86822500I0J197500D01*
G01*
G37*
G36*
G01*
X168590000Y-86822500D02*
X168590000Y-86377500D01*
G75*
G02*
X168787500Y-86180000I197500J0D01*
G01*
X169182500Y-86180000D01*
G75*
G02*
X169380000Y-86377500I0J-197500D01*
G01*
X169380000Y-86822500D01*
G75*
G02*
X169182500Y-87020000I-197500J0D01*
G01*
X168787500Y-87020000D01*
G75*
G02*
X168590000Y-86822500I0J197500D01*
G01*
G37*
G36*
G01*
X164120000Y-95622500D02*
X164120000Y-95177500D01*
G75*
G02*
X164317500Y-94980000I197500J0D01*
G01*
X164712500Y-94980000D01*
G75*
G02*
X164910000Y-95177500I0J-197500D01*
G01*
X164910000Y-95622500D01*
G75*
G02*
X164712500Y-95820000I-197500J0D01*
G01*
X164317500Y-95820000D01*
G75*
G02*
X164120000Y-95622500I0J197500D01*
G01*
G37*
G36*
G01*
X165090000Y-95622500D02*
X165090000Y-95177500D01*
G75*
G02*
X165287500Y-94980000I197500J0D01*
G01*
X165682500Y-94980000D01*
G75*
G02*
X165880000Y-95177500I0J-197500D01*
G01*
X165880000Y-95622500D01*
G75*
G02*
X165682500Y-95820000I-197500J0D01*
G01*
X165287500Y-95820000D01*
G75*
G02*
X165090000Y-95622500I0J197500D01*
G01*
G37*
G36*
G01*
X166565000Y-86377500D02*
X166565000Y-86822500D01*
G75*
G02*
X166367500Y-87020000I-197500J0D01*
G01*
X165972500Y-87020000D01*
G75*
G02*
X165775000Y-86822500I0J197500D01*
G01*
X165775000Y-86377500D01*
G75*
G02*
X165972500Y-86180000I197500J0D01*
G01*
X166367500Y-86180000D01*
G75*
G02*
X166565000Y-86377500I0J-197500D01*
G01*
G37*
G36*
G01*
X165595000Y-86377500D02*
X165595000Y-86822500D01*
G75*
G02*
X165397500Y-87020000I-197500J0D01*
G01*
X165002500Y-87020000D01*
G75*
G02*
X164805000Y-86822500I0J197500D01*
G01*
X164805000Y-86377500D01*
G75*
G02*
X165002500Y-86180000I197500J0D01*
G01*
X165397500Y-86180000D01*
G75*
G02*
X165595000Y-86377500I0J-197500D01*
G01*
G37*
G36*
G01*
X167322500Y-86980000D02*
X166877500Y-86980000D01*
G75*
G02*
X166680000Y-86782500I0J197500D01*
G01*
X166680000Y-86387500D01*
G75*
G02*
X166877500Y-86190000I197500J0D01*
G01*
X167322500Y-86190000D01*
G75*
G02*
X167520000Y-86387500I0J-197500D01*
G01*
X167520000Y-86782500D01*
G75*
G02*
X167322500Y-86980000I-197500J0D01*
G01*
G37*
G36*
G01*
X167322500Y-86010000D02*
X166877500Y-86010000D01*
G75*
G02*
X166680000Y-85812500I0J197500D01*
G01*
X166680000Y-85417500D01*
G75*
G02*
X166877500Y-85220000I197500J0D01*
G01*
X167322500Y-85220000D01*
G75*
G02*
X167520000Y-85417500I0J-197500D01*
G01*
X167520000Y-85812500D01*
G75*
G02*
X167322500Y-86010000I-197500J0D01*
G01*
G37*
G36*
G01*
X165077500Y-96020000D02*
X165522500Y-96020000D01*
G75*
G02*
X165720000Y-96217500I0J-197500D01*
G01*
X165720000Y-96612500D01*
G75*
G02*
X165522500Y-96810000I-197500J0D01*
G01*
X165077500Y-96810000D01*
G75*
G02*
X164880000Y-96612500I0J197500D01*
G01*
X164880000Y-96217500D01*
G75*
G02*
X165077500Y-96020000I197500J0D01*
G01*
G37*
G36*
G01*
X165077500Y-96990000D02*
X165522500Y-96990000D01*
G75*
G02*
X165720000Y-97187500I0J-197500D01*
G01*
X165720000Y-97582500D01*
G75*
G02*
X165522500Y-97780000I-197500J0D01*
G01*
X165077500Y-97780000D01*
G75*
G02*
X164880000Y-97582500I0J197500D01*
G01*
X164880000Y-97187500D01*
G75*
G02*
X165077500Y-96990000I197500J0D01*
G01*
G37*
G36*
G01*
X165693750Y-99575000D02*
X166306250Y-99575000D01*
G75*
G02*
X166575000Y-99843750I0J-268750D01*
G01*
X166575000Y-100381250D01*
G75*
G02*
X166306250Y-100650000I-268750J0D01*
G01*
X165693750Y-100650000D01*
G75*
G02*
X165425000Y-100381250I0J268750D01*
G01*
X165425000Y-99843750D01*
G75*
G02*
X165693750Y-99575000I268750J0D01*
G01*
G37*
G36*
G01*
X165693750Y-101150000D02*
X166306250Y-101150000D01*
G75*
G02*
X166575000Y-101418750I0J-268750D01*
G01*
X166575000Y-101956250D01*
G75*
G02*
X166306250Y-102225000I-268750J0D01*
G01*
X165693750Y-102225000D01*
G75*
G02*
X165425000Y-101956250I0J268750D01*
G01*
X165425000Y-101418750D01*
G75*
G02*
X165693750Y-101150000I268750J0D01*
G01*
G37*
G36*
G01*
X128035000Y-98725000D02*
X125765000Y-98725000D01*
G75*
G02*
X125475000Y-98435000I0J290000D01*
G01*
X125475000Y-97565000D01*
G75*
G02*
X125765000Y-97275000I290000J0D01*
G01*
X128035000Y-97275000D01*
G75*
G02*
X128325000Y-97565000I0J-290000D01*
G01*
X128325000Y-98435000D01*
G75*
G02*
X128035000Y-98725000I-290000J0D01*
G01*
G37*
G36*
G01*
X128035000Y-95925000D02*
X125765000Y-95925000D01*
G75*
G02*
X125475000Y-95635000I0J290000D01*
G01*
X125475000Y-94765000D01*
G75*
G02*
X125765000Y-94475000I290000J0D01*
G01*
X128035000Y-94475000D01*
G75*
G02*
X128325000Y-94765000I0J-290000D01*
G01*
X128325000Y-95635000D01*
G75*
G02*
X128035000Y-95925000I-290000J0D01*
G01*
G37*
G36*
G01*
X162177500Y-88020000D02*
X162622500Y-88020000D01*
G75*
G02*
X162820000Y-88217500I0J-197500D01*
G01*
X162820000Y-88612500D01*
G75*
G02*
X162622500Y-88810000I-197500J0D01*
G01*
X162177500Y-88810000D01*
G75*
G02*
X161980000Y-88612500I0J197500D01*
G01*
X161980000Y-88217500D01*
G75*
G02*
X162177500Y-88020000I197500J0D01*
G01*
G37*
G36*
G01*
X162177500Y-88990000D02*
X162622500Y-88990000D01*
G75*
G02*
X162820000Y-89187500I0J-197500D01*
G01*
X162820000Y-89582500D01*
G75*
G02*
X162622500Y-89780000I-197500J0D01*
G01*
X162177500Y-89780000D01*
G75*
G02*
X161980000Y-89582500I0J197500D01*
G01*
X161980000Y-89187500D01*
G75*
G02*
X162177500Y-88990000I197500J0D01*
G01*
G37*
G36*
G01*
X163177500Y-88020000D02*
X163622500Y-88020000D01*
G75*
G02*
X163820000Y-88217500I0J-197500D01*
G01*
X163820000Y-88612500D01*
G75*
G02*
X163622500Y-88810000I-197500J0D01*
G01*
X163177500Y-88810000D01*
G75*
G02*
X162980000Y-88612500I0J197500D01*
G01*
X162980000Y-88217500D01*
G75*
G02*
X163177500Y-88020000I197500J0D01*
G01*
G37*
G36*
G01*
X163177500Y-88990000D02*
X163622500Y-88990000D01*
G75*
G02*
X163820000Y-89187500I0J-197500D01*
G01*
X163820000Y-89582500D01*
G75*
G02*
X163622500Y-89780000I-197500J0D01*
G01*
X163177500Y-89780000D01*
G75*
G02*
X162980000Y-89582500I0J197500D01*
G01*
X162980000Y-89187500D01*
G75*
G02*
X163177500Y-88990000I197500J0D01*
G01*
G37*
D10*
X174500000Y-79000000D03*
G36*
G01*
X162257500Y-92170000D02*
X162702500Y-92170000D01*
G75*
G02*
X162900000Y-92367500I0J-197500D01*
G01*
X162900000Y-92762500D01*
G75*
G02*
X162702500Y-92960000I-197500J0D01*
G01*
X162257500Y-92960000D01*
G75*
G02*
X162060000Y-92762500I0J197500D01*
G01*
X162060000Y-92367500D01*
G75*
G02*
X162257500Y-92170000I197500J0D01*
G01*
G37*
G36*
G01*
X162257500Y-93140000D02*
X162702500Y-93140000D01*
G75*
G02*
X162900000Y-93337500I0J-197500D01*
G01*
X162900000Y-93732500D01*
G75*
G02*
X162702500Y-93930000I-197500J0D01*
G01*
X162257500Y-93930000D01*
G75*
G02*
X162060000Y-93732500I0J197500D01*
G01*
X162060000Y-93337500D01*
G75*
G02*
X162257500Y-93140000I197500J0D01*
G01*
G37*
G36*
G01*
X163267500Y-92170000D02*
X163712500Y-92170000D01*
G75*
G02*
X163910000Y-92367500I0J-197500D01*
G01*
X163910000Y-92762500D01*
G75*
G02*
X163712500Y-92960000I-197500J0D01*
G01*
X163267500Y-92960000D01*
G75*
G02*
X163070000Y-92762500I0J197500D01*
G01*
X163070000Y-92367500D01*
G75*
G02*
X163267500Y-92170000I197500J0D01*
G01*
G37*
G36*
G01*
X163267500Y-93140000D02*
X163712500Y-93140000D01*
G75*
G02*
X163910000Y-93337500I0J-197500D01*
G01*
X163910000Y-93732500D01*
G75*
G02*
X163712500Y-93930000I-197500J0D01*
G01*
X163267500Y-93930000D01*
G75*
G02*
X163070000Y-93732500I0J197500D01*
G01*
X163070000Y-93337500D01*
G75*
G02*
X163267500Y-93140000I197500J0D01*
G01*
G37*
X174500000Y-131000000D03*
X122500000Y-79000000D03*
G36*
X129389440Y-98221659D02*
G01*
X129427496Y-98269190D01*
X129486776Y-98292321D01*
X129549605Y-98282725D01*
X129602113Y-98234388D01*
X129604065Y-98233950D01*
X129605420Y-98235422D01*
X129605131Y-98236970D01*
X129600725Y-98243565D01*
X129582000Y-98337699D01*
X129582000Y-98632301D01*
X129600725Y-98726435D01*
X129613784Y-98745980D01*
X129613915Y-98747976D01*
X129612252Y-98749087D01*
X129610560Y-98748341D01*
X129572504Y-98700810D01*
X129513224Y-98677679D01*
X129450395Y-98687275D01*
X129397887Y-98735612D01*
X129395935Y-98736050D01*
X129394580Y-98734578D01*
X129394869Y-98733030D01*
X129399275Y-98726435D01*
X129418000Y-98632301D01*
X129418000Y-98337699D01*
X129399275Y-98243565D01*
X129386216Y-98224020D01*
X129386085Y-98222024D01*
X129387748Y-98220913D01*
X129389440Y-98221659D01*
G37*
G36*
X129260813Y-97891413D02*
G01*
X129261203Y-97893375D01*
X129260559Y-97894293D01*
X129220397Y-97926451D01*
X129197267Y-97985731D01*
X129206863Y-98048561D01*
X129259408Y-98105640D01*
X129259846Y-98107592D01*
X129257547Y-98108957D01*
X129172301Y-98092000D01*
X128827699Y-98092000D01*
X128741081Y-98109230D01*
X128739187Y-98108587D01*
X128738797Y-98106625D01*
X128739441Y-98105707D01*
X128779603Y-98073549D01*
X128802733Y-98014269D01*
X128793137Y-97951439D01*
X128740592Y-97894360D01*
X128740154Y-97892408D01*
X128742453Y-97891043D01*
X128827699Y-97908000D01*
X129172301Y-97908000D01*
X129258919Y-97890770D01*
X129260813Y-97891413D01*
G37*
G36*
X130260813Y-97891413D02*
G01*
X130261203Y-97893375D01*
X130260559Y-97894293D01*
X130220397Y-97926451D01*
X130197267Y-97985731D01*
X130206863Y-98048561D01*
X130259408Y-98105640D01*
X130259846Y-98107592D01*
X130257547Y-98108957D01*
X130172301Y-98092000D01*
X129827699Y-98092000D01*
X129741081Y-98109230D01*
X129739187Y-98108587D01*
X129738797Y-98106625D01*
X129739441Y-98105707D01*
X129779603Y-98073549D01*
X129802733Y-98014269D01*
X129793137Y-97951439D01*
X129740592Y-97894360D01*
X129740154Y-97892408D01*
X129742453Y-97891043D01*
X129827699Y-97908000D01*
X130172301Y-97908000D01*
X130258919Y-97890770D01*
X130260813Y-97891413D01*
G37*
G36*
X129389440Y-97251659D02*
G01*
X129427496Y-97299190D01*
X129486776Y-97322321D01*
X129549605Y-97312725D01*
X129602113Y-97264388D01*
X129604065Y-97263950D01*
X129605420Y-97265422D01*
X129605131Y-97266970D01*
X129600725Y-97273565D01*
X129582000Y-97367699D01*
X129582000Y-97662301D01*
X129600725Y-97756435D01*
X129613784Y-97775980D01*
X129613915Y-97777976D01*
X129612252Y-97779087D01*
X129610560Y-97778341D01*
X129572504Y-97730810D01*
X129513224Y-97707679D01*
X129450395Y-97717275D01*
X129397887Y-97765612D01*
X129395935Y-97766050D01*
X129394580Y-97764578D01*
X129394869Y-97763030D01*
X129399275Y-97756435D01*
X129418000Y-97662301D01*
X129418000Y-97367699D01*
X129399275Y-97273565D01*
X129386216Y-97254020D01*
X129386085Y-97252024D01*
X129387748Y-97250913D01*
X129389440Y-97251659D01*
G37*
G36*
X165689440Y-97121659D02*
G01*
X165727496Y-97169190D01*
X165786776Y-97192321D01*
X165849605Y-97182725D01*
X165902113Y-97134388D01*
X165904065Y-97133950D01*
X165905420Y-97135422D01*
X165905131Y-97136970D01*
X165900725Y-97143565D01*
X165882000Y-97237699D01*
X165882000Y-97532301D01*
X165900725Y-97626435D01*
X165913784Y-97645980D01*
X165913915Y-97647976D01*
X165912252Y-97649087D01*
X165910560Y-97648341D01*
X165872504Y-97600810D01*
X165813224Y-97577679D01*
X165750395Y-97587275D01*
X165697887Y-97635612D01*
X165695935Y-97636050D01*
X165694580Y-97634578D01*
X165694869Y-97633030D01*
X165699275Y-97626435D01*
X165718000Y-97532301D01*
X165718000Y-97237699D01*
X165699275Y-97143565D01*
X165686216Y-97124020D01*
X165686085Y-97122024D01*
X165687748Y-97120913D01*
X165689440Y-97121659D01*
G37*
G36*
X166560813Y-96791413D02*
G01*
X166561203Y-96793375D01*
X166560559Y-96794293D01*
X166520397Y-96826451D01*
X166497267Y-96885731D01*
X166506863Y-96948561D01*
X166559408Y-97005640D01*
X166559846Y-97007592D01*
X166557547Y-97008957D01*
X166472301Y-96992000D01*
X166127699Y-96992000D01*
X166041081Y-97009230D01*
X166039187Y-97008587D01*
X166038797Y-97006625D01*
X166039441Y-97005707D01*
X166079603Y-96973549D01*
X166102733Y-96914269D01*
X166093137Y-96851439D01*
X166040592Y-96794360D01*
X166040154Y-96792408D01*
X166042453Y-96791043D01*
X166127699Y-96808000D01*
X166472301Y-96808000D01*
X166558919Y-96790770D01*
X166560813Y-96791413D01*
G37*
G36*
X165560813Y-96791413D02*
G01*
X165561203Y-96793375D01*
X165560559Y-96794293D01*
X165520397Y-96826451D01*
X165497267Y-96885731D01*
X165506863Y-96948561D01*
X165559408Y-97005640D01*
X165559846Y-97007592D01*
X165557547Y-97008957D01*
X165472301Y-96992000D01*
X165127699Y-96992000D01*
X165041081Y-97009230D01*
X165039187Y-97008587D01*
X165038797Y-97006625D01*
X165039441Y-97005707D01*
X165079603Y-96973549D01*
X165102733Y-96914269D01*
X165093137Y-96851439D01*
X165040592Y-96794360D01*
X165040154Y-96792408D01*
X165042453Y-96791043D01*
X165127699Y-96808000D01*
X165472301Y-96808000D01*
X165558919Y-96790770D01*
X165560813Y-96791413D01*
G37*
G36*
X165689440Y-96151659D02*
G01*
X165727496Y-96199190D01*
X165786776Y-96222321D01*
X165849605Y-96212725D01*
X165902113Y-96164388D01*
X165904065Y-96163950D01*
X165905420Y-96165422D01*
X165905131Y-96166970D01*
X165900725Y-96173565D01*
X165882000Y-96267699D01*
X165882000Y-96562301D01*
X165900725Y-96656435D01*
X165913784Y-96675980D01*
X165913915Y-96677976D01*
X165912252Y-96679087D01*
X165910560Y-96678341D01*
X165872504Y-96630810D01*
X165813224Y-96607679D01*
X165750395Y-96617275D01*
X165697887Y-96665612D01*
X165695935Y-96666050D01*
X165694580Y-96664578D01*
X165694869Y-96663030D01*
X165699275Y-96656435D01*
X165718000Y-96562301D01*
X165718000Y-96267699D01*
X165699275Y-96173565D01*
X165686216Y-96154020D01*
X165686085Y-96152024D01*
X165687748Y-96150913D01*
X165689440Y-96151659D01*
G37*
G36*
X121505621Y-96397536D02*
G01*
X121532511Y-96415503D01*
X121570199Y-96423000D01*
X122629801Y-96423000D01*
X122667489Y-96415503D01*
X122694379Y-96397536D01*
X122696375Y-96397405D01*
X122697486Y-96399068D01*
X122697153Y-96400310D01*
X122693054Y-96406446D01*
X122672535Y-96466892D01*
X122693091Y-96543610D01*
X122697153Y-96549690D01*
X122697284Y-96551686D01*
X122695621Y-96552797D01*
X122694379Y-96552464D01*
X122667489Y-96534497D01*
X122629801Y-96527000D01*
X121570199Y-96527000D01*
X121532511Y-96534497D01*
X121505621Y-96552464D01*
X121503625Y-96552595D01*
X121502514Y-96550932D01*
X121502847Y-96549690D01*
X121506946Y-96543554D01*
X121527465Y-96483108D01*
X121506909Y-96406390D01*
X121502847Y-96400310D01*
X121502716Y-96398314D01*
X121504379Y-96397203D01*
X121505621Y-96397536D01*
G37*
G36*
X165226987Y-95788198D02*
G01*
X165243565Y-95799275D01*
X165337699Y-95818000D01*
X165628441Y-95818000D01*
X165630173Y-95819000D01*
X165630173Y-95821000D01*
X165629194Y-95821853D01*
X165571378Y-95845336D01*
X165532296Y-95895550D01*
X165523556Y-95958580D01*
X165547521Y-96017583D01*
X165577472Y-96043307D01*
X165578134Y-96045194D01*
X165576831Y-96046711D01*
X165575058Y-96046487D01*
X165566435Y-96040725D01*
X165472301Y-96022000D01*
X165161456Y-96022000D01*
X165159724Y-96021000D01*
X165159724Y-96019000D01*
X165160938Y-96018068D01*
X165222922Y-96001459D01*
X165267914Y-95956467D01*
X165284384Y-95895001D01*
X165267919Y-95833552D01*
X165224481Y-95791295D01*
X165223937Y-95789370D01*
X165225332Y-95787936D01*
X165226987Y-95788198D01*
G37*
G36*
X164894293Y-95139441D02*
G01*
X164926451Y-95179603D01*
X164985731Y-95202733D01*
X165048561Y-95193137D01*
X165105640Y-95140592D01*
X165107592Y-95140154D01*
X165108957Y-95142453D01*
X165092000Y-95227699D01*
X165092000Y-95572301D01*
X165109230Y-95658919D01*
X165108587Y-95660813D01*
X165106625Y-95661203D01*
X165105707Y-95660559D01*
X165073549Y-95620397D01*
X165014269Y-95597267D01*
X164951439Y-95606863D01*
X164894360Y-95659408D01*
X164892408Y-95659846D01*
X164891043Y-95657547D01*
X164908000Y-95572301D01*
X164908000Y-95227699D01*
X164890770Y-95141081D01*
X164891413Y-95139187D01*
X164893375Y-95138797D01*
X164894293Y-95139441D01*
G37*
G36*
X121505621Y-95447536D02*
G01*
X121532511Y-95465503D01*
X121570199Y-95473000D01*
X122629801Y-95473000D01*
X122667489Y-95465503D01*
X122694379Y-95447536D01*
X122696375Y-95447405D01*
X122697486Y-95449068D01*
X122697153Y-95450310D01*
X122693054Y-95456446D01*
X122672535Y-95516892D01*
X122693091Y-95593610D01*
X122697153Y-95599690D01*
X122697284Y-95601686D01*
X122695621Y-95602797D01*
X122694379Y-95602464D01*
X122667489Y-95584497D01*
X122629801Y-95577000D01*
X121570199Y-95577000D01*
X121532511Y-95584497D01*
X121505621Y-95602464D01*
X121503625Y-95602595D01*
X121502514Y-95600932D01*
X121502847Y-95599690D01*
X121506946Y-95593554D01*
X121527465Y-95533108D01*
X121506909Y-95456390D01*
X121502847Y-95450310D01*
X121502716Y-95448314D01*
X121504379Y-95447203D01*
X121505621Y-95447536D01*
G37*
G36*
X120860813Y-95291413D02*
G01*
X120861203Y-95293375D01*
X120860559Y-95294293D01*
X120820397Y-95326451D01*
X120797267Y-95385731D01*
X120806863Y-95448561D01*
X120859408Y-95505640D01*
X120859846Y-95507592D01*
X120857547Y-95508957D01*
X120772301Y-95492000D01*
X120427699Y-95492000D01*
X120341081Y-95509230D01*
X120339187Y-95508587D01*
X120338797Y-95506625D01*
X120339441Y-95505707D01*
X120379603Y-95473549D01*
X120402733Y-95414269D01*
X120393137Y-95351439D01*
X120340592Y-95294360D01*
X120340154Y-95292408D01*
X120342453Y-95291043D01*
X120427699Y-95308000D01*
X120772301Y-95308000D01*
X120858919Y-95290770D01*
X120860813Y-95291413D01*
G37*
G36*
X164351528Y-94748000D02*
G01*
X164782341Y-94748000D01*
X164784073Y-94749000D01*
X164784073Y-94751000D01*
X164782859Y-94751932D01*
X164720876Y-94768541D01*
X164675883Y-94813534D01*
X164659413Y-94874999D01*
X164675883Y-94936465D01*
X164720940Y-94981521D01*
X164724809Y-94982909D01*
X164725427Y-94983638D01*
X164745676Y-94994597D01*
X164746723Y-94996301D01*
X164745771Y-94998060D01*
X164744334Y-94998318D01*
X164662301Y-94982000D01*
X164367699Y-94982000D01*
X164296074Y-94996247D01*
X164294180Y-94995604D01*
X164293790Y-94993642D01*
X164294881Y-94992453D01*
X164308788Y-94986353D01*
X164309344Y-94986200D01*
X164310706Y-94986030D01*
X164369914Y-94961982D01*
X164408996Y-94911768D01*
X164417736Y-94848738D01*
X164393832Y-94789886D01*
X164324801Y-94746630D01*
X164323864Y-94744863D01*
X164324926Y-94743168D01*
X164326253Y-94742973D01*
X164351528Y-94748000D01*
G37*
G36*
X165552648Y-94648496D02*
G01*
X165553291Y-94649610D01*
X165560826Y-94687489D01*
X165582060Y-94719269D01*
X165613101Y-94740009D01*
X165613986Y-94741803D01*
X165612875Y-94743466D01*
X165611347Y-94743566D01*
X165559441Y-94725944D01*
X165482716Y-94746503D01*
X165473612Y-94752587D01*
X165431476Y-94800635D01*
X165419064Y-94863046D01*
X165439521Y-94923299D01*
X165487390Y-94965277D01*
X165542183Y-94978052D01*
X165543643Y-94979419D01*
X165543189Y-94981367D01*
X165541729Y-94982000D01*
X165337699Y-94982000D01*
X165266074Y-94996247D01*
X165264180Y-94995604D01*
X165263790Y-94993642D01*
X165264881Y-94992453D01*
X165275619Y-94987743D01*
X165325503Y-94947802D01*
X165348633Y-94888522D01*
X165339026Y-94825619D01*
X165299291Y-94775993D01*
X165225828Y-94751900D01*
X165224494Y-94750410D01*
X165225117Y-94748510D01*
X165226451Y-94748000D01*
X165451130Y-94748000D01*
X165488818Y-94740503D01*
X165520598Y-94719269D01*
X165541832Y-94687489D01*
X165549367Y-94649610D01*
X165550686Y-94648106D01*
X165552648Y-94648496D01*
G37*
G36*
X144260813Y-93991413D02*
G01*
X144261203Y-93993375D01*
X144260559Y-93994293D01*
X144220397Y-94026451D01*
X144197267Y-94085731D01*
X144206863Y-94148561D01*
X144259408Y-94205640D01*
X144259846Y-94207592D01*
X144257547Y-94208957D01*
X144172301Y-94192000D01*
X143827699Y-94192000D01*
X143741081Y-94209230D01*
X143739187Y-94208587D01*
X143738797Y-94206625D01*
X143739441Y-94205707D01*
X143779603Y-94173549D01*
X143802733Y-94114269D01*
X143793137Y-94051439D01*
X143740592Y-93994360D01*
X143740154Y-93992408D01*
X143742453Y-93991043D01*
X143827699Y-94008000D01*
X144172301Y-94008000D01*
X144258919Y-93990770D01*
X144260813Y-93991413D01*
G37*
G36*
X141860813Y-93991413D02*
G01*
X141861203Y-93993375D01*
X141860559Y-93994293D01*
X141820397Y-94026451D01*
X141797267Y-94085731D01*
X141806863Y-94148561D01*
X141859408Y-94205640D01*
X141859846Y-94207592D01*
X141857547Y-94208957D01*
X141772301Y-94192000D01*
X141427699Y-94192000D01*
X141341081Y-94209230D01*
X141339187Y-94208587D01*
X141338797Y-94206625D01*
X141339441Y-94205707D01*
X141379603Y-94173549D01*
X141402733Y-94114269D01*
X141393137Y-94051439D01*
X141340592Y-93994360D01*
X141340154Y-93992408D01*
X141342453Y-93991043D01*
X141427699Y-94008000D01*
X141772301Y-94008000D01*
X141858919Y-93990770D01*
X141860813Y-93991413D01*
G37*
G36*
X162883072Y-93293300D02*
G01*
X162911974Y-93329397D01*
X162971254Y-93352527D01*
X163034083Y-93342931D01*
X163086887Y-93294321D01*
X163088839Y-93293883D01*
X163090204Y-93296182D01*
X163072000Y-93387699D01*
X163072000Y-93682301D01*
X163090451Y-93775060D01*
X163089808Y-93776954D01*
X163087846Y-93777344D01*
X163086928Y-93776700D01*
X163058026Y-93740603D01*
X162998746Y-93717473D01*
X162935917Y-93727069D01*
X162883113Y-93775679D01*
X162881161Y-93776117D01*
X162879796Y-93773818D01*
X162898000Y-93682301D01*
X162898000Y-93387699D01*
X162879549Y-93294940D01*
X162880192Y-93293046D01*
X162882154Y-93292656D01*
X162883072Y-93293300D01*
G37*
G36*
X163750813Y-92941413D02*
G01*
X163751203Y-92943375D01*
X163750559Y-92944293D01*
X163710397Y-92976451D01*
X163687267Y-93035731D01*
X163696863Y-93098561D01*
X163749408Y-93155640D01*
X163749846Y-93157592D01*
X163747547Y-93158957D01*
X163662301Y-93142000D01*
X163317699Y-93142000D01*
X163231081Y-93159230D01*
X163229187Y-93158587D01*
X163228797Y-93156625D01*
X163229441Y-93155707D01*
X163269603Y-93123549D01*
X163292733Y-93064269D01*
X163283137Y-93001439D01*
X163230592Y-92944360D01*
X163230154Y-92942408D01*
X163232453Y-92941043D01*
X163317699Y-92958000D01*
X163662301Y-92958000D01*
X163748919Y-92940770D01*
X163750813Y-92941413D01*
G37*
G36*
X162740813Y-92941413D02*
G01*
X162741203Y-92943375D01*
X162740559Y-92944293D01*
X162700397Y-92976451D01*
X162677267Y-93035731D01*
X162686863Y-93098561D01*
X162739408Y-93155640D01*
X162739846Y-93157592D01*
X162737547Y-93158957D01*
X162652301Y-93142000D01*
X162307699Y-93142000D01*
X162221081Y-93159230D01*
X162219187Y-93158587D01*
X162218797Y-93156625D01*
X162219441Y-93155707D01*
X162259603Y-93123549D01*
X162282733Y-93064269D01*
X162273137Y-93001439D01*
X162220592Y-92944360D01*
X162220154Y-92942408D01*
X162222453Y-92941043D01*
X162307699Y-92958000D01*
X162652301Y-92958000D01*
X162738919Y-92940770D01*
X162740813Y-92941413D01*
G37*
G36*
X162883072Y-92323300D02*
G01*
X162911974Y-92359397D01*
X162971254Y-92382527D01*
X163034083Y-92372931D01*
X163086887Y-92324321D01*
X163088839Y-92323883D01*
X163090204Y-92326182D01*
X163072000Y-92417699D01*
X163072000Y-92712301D01*
X163090451Y-92805060D01*
X163089808Y-92806954D01*
X163087846Y-92807344D01*
X163086928Y-92806700D01*
X163058026Y-92770603D01*
X162998746Y-92747473D01*
X162935917Y-92757069D01*
X162883113Y-92805679D01*
X162881161Y-92806117D01*
X162879796Y-92803818D01*
X162898000Y-92712301D01*
X162898000Y-92417699D01*
X162879549Y-92324940D01*
X162880192Y-92323046D01*
X162882154Y-92322656D01*
X162883072Y-92323300D01*
G37*
G36*
X160129234Y-87597056D02*
G01*
X160137757Y-87602334D01*
X160198867Y-87620743D01*
X160270468Y-87597965D01*
X160272421Y-87598393D01*
X160272737Y-87600982D01*
X160239255Y-87651093D01*
X160227000Y-87712699D01*
X160227000Y-88412301D01*
X160239255Y-88473907D01*
X160274037Y-88525963D01*
X160326093Y-88560745D01*
X160387699Y-88573000D01*
X160512301Y-88573000D01*
X160573907Y-88560745D01*
X160625963Y-88525963D01*
X160660745Y-88473907D01*
X160673000Y-88412301D01*
X160673000Y-88400001D01*
X160674000Y-88398269D01*
X160676000Y-88398269D01*
X160676932Y-88399483D01*
X160693541Y-88461467D01*
X160738534Y-88506459D01*
X160800517Y-88523068D01*
X160801931Y-88524482D01*
X160801413Y-88526414D01*
X160799999Y-88527000D01*
X160787699Y-88527000D01*
X160726093Y-88539255D01*
X160674037Y-88574037D01*
X160639255Y-88626093D01*
X160627000Y-88687699D01*
X160627000Y-88812301D01*
X160639255Y-88873907D01*
X160674037Y-88925963D01*
X160726093Y-88960745D01*
X160787699Y-88973000D01*
X161487301Y-88973000D01*
X161548907Y-88960745D01*
X161600133Y-88926518D01*
X161602129Y-88926387D01*
X161603240Y-88928050D01*
X161602944Y-88929234D01*
X161597666Y-88937757D01*
X161579257Y-88998867D01*
X161602035Y-89070468D01*
X161601607Y-89072421D01*
X161599018Y-89072737D01*
X161548907Y-89039255D01*
X161487301Y-89027000D01*
X160787699Y-89027000D01*
X160726093Y-89039255D01*
X160674037Y-89074037D01*
X160639255Y-89126093D01*
X160627000Y-89187699D01*
X160627000Y-89312301D01*
X160639255Y-89373907D01*
X160674037Y-89425963D01*
X160726093Y-89460745D01*
X160787699Y-89473000D01*
X161487301Y-89473000D01*
X161548907Y-89460745D01*
X161600133Y-89426518D01*
X161602129Y-89426387D01*
X161603240Y-89428050D01*
X161602944Y-89429234D01*
X161597666Y-89437757D01*
X161579257Y-89498867D01*
X161602035Y-89570468D01*
X161601607Y-89572421D01*
X161599018Y-89572737D01*
X161548907Y-89539255D01*
X161487301Y-89527000D01*
X160787699Y-89527000D01*
X160726093Y-89539255D01*
X160674037Y-89574037D01*
X160639255Y-89626093D01*
X160627000Y-89687699D01*
X160627000Y-89812301D01*
X160639255Y-89873907D01*
X160674037Y-89925963D01*
X160726093Y-89960745D01*
X160787699Y-89973000D01*
X161487301Y-89973000D01*
X161548907Y-89960745D01*
X161600133Y-89926518D01*
X161602129Y-89926387D01*
X161603240Y-89928050D01*
X161602944Y-89929234D01*
X161597666Y-89937757D01*
X161579257Y-89998867D01*
X161602035Y-90070468D01*
X161601607Y-90072421D01*
X161599018Y-90072737D01*
X161548907Y-90039255D01*
X161487301Y-90027000D01*
X160787699Y-90027000D01*
X160726093Y-90039255D01*
X160674037Y-90074037D01*
X160639255Y-90126093D01*
X160627000Y-90187699D01*
X160627000Y-90312301D01*
X160639255Y-90373907D01*
X160674037Y-90425963D01*
X160726093Y-90460745D01*
X160787699Y-90473000D01*
X161487301Y-90473000D01*
X161548907Y-90460745D01*
X161600133Y-90426518D01*
X161602129Y-90426387D01*
X161603240Y-90428050D01*
X161602944Y-90429234D01*
X161597666Y-90437757D01*
X161579257Y-90498867D01*
X161602035Y-90570468D01*
X161601607Y-90572421D01*
X161599018Y-90572737D01*
X161548907Y-90539255D01*
X161487301Y-90527000D01*
X160787699Y-90527000D01*
X160726093Y-90539255D01*
X160674037Y-90574037D01*
X160639255Y-90626093D01*
X160627000Y-90687699D01*
X160627000Y-90812301D01*
X160639255Y-90873907D01*
X160674037Y-90925963D01*
X160726093Y-90960745D01*
X160787699Y-90973000D01*
X161487301Y-90973000D01*
X161548907Y-90960745D01*
X161600133Y-90926518D01*
X161602129Y-90926387D01*
X161603240Y-90928050D01*
X161602944Y-90929234D01*
X161597666Y-90937757D01*
X161579257Y-90998867D01*
X161602035Y-91070468D01*
X161601607Y-91072421D01*
X161599018Y-91072737D01*
X161548907Y-91039255D01*
X161487301Y-91027000D01*
X160787699Y-91027000D01*
X160726093Y-91039255D01*
X160674037Y-91074037D01*
X160639255Y-91126093D01*
X160627000Y-91187699D01*
X160627000Y-91312301D01*
X160639255Y-91373907D01*
X160674037Y-91425963D01*
X160726093Y-91460745D01*
X160787699Y-91473000D01*
X160799999Y-91473000D01*
X160801731Y-91474000D01*
X160801731Y-91476000D01*
X160800517Y-91476932D01*
X160738534Y-91493541D01*
X160693541Y-91538534D01*
X160676932Y-91600517D01*
X160675518Y-91601931D01*
X160673586Y-91601413D01*
X160673000Y-91599999D01*
X160673000Y-91587699D01*
X160660745Y-91526093D01*
X160625963Y-91474037D01*
X160573907Y-91439255D01*
X160512301Y-91427000D01*
X160387699Y-91427000D01*
X160326093Y-91439255D01*
X160274037Y-91474037D01*
X160239255Y-91526093D01*
X160227000Y-91587699D01*
X160227000Y-92287301D01*
X160239255Y-92348907D01*
X160273482Y-92400133D01*
X160273613Y-92402129D01*
X160271950Y-92403240D01*
X160270766Y-92402944D01*
X160262243Y-92397666D01*
X160201133Y-92379257D01*
X160129532Y-92402035D01*
X160127579Y-92401607D01*
X160127263Y-92399018D01*
X160160745Y-92348907D01*
X160173000Y-92287301D01*
X160173000Y-91587699D01*
X160160745Y-91526093D01*
X160125963Y-91474037D01*
X160073907Y-91439255D01*
X160012301Y-91427000D01*
X159887699Y-91427000D01*
X159826093Y-91439255D01*
X159774037Y-91474037D01*
X159739255Y-91526093D01*
X159727000Y-91587699D01*
X159727000Y-92287301D01*
X159739255Y-92348907D01*
X159773482Y-92400133D01*
X159773613Y-92402129D01*
X159771950Y-92403240D01*
X159770766Y-92402944D01*
X159762243Y-92397666D01*
X159701133Y-92379257D01*
X159629532Y-92402035D01*
X159627579Y-92401607D01*
X159627263Y-92399018D01*
X159660745Y-92348907D01*
X159673000Y-92287301D01*
X159673000Y-91587699D01*
X159660745Y-91526093D01*
X159625963Y-91474037D01*
X159573907Y-91439255D01*
X159512301Y-91427000D01*
X159387699Y-91427000D01*
X159326093Y-91439255D01*
X159274037Y-91474037D01*
X159239255Y-91526093D01*
X159227000Y-91587699D01*
X159227000Y-92287301D01*
X159239255Y-92348907D01*
X159273482Y-92400133D01*
X159273613Y-92402129D01*
X159271950Y-92403240D01*
X159270766Y-92402944D01*
X159262243Y-92397666D01*
X159201133Y-92379257D01*
X159129532Y-92402035D01*
X159127579Y-92401607D01*
X159127263Y-92399018D01*
X159160745Y-92348907D01*
X159173000Y-92287301D01*
X159173000Y-91587699D01*
X159160745Y-91526093D01*
X159125963Y-91474037D01*
X159073907Y-91439255D01*
X159012301Y-91427000D01*
X158887699Y-91427000D01*
X158826093Y-91439255D01*
X158774037Y-91474037D01*
X158739255Y-91526093D01*
X158727000Y-91587699D01*
X158727000Y-92287301D01*
X158739255Y-92348907D01*
X158773482Y-92400133D01*
X158773613Y-92402129D01*
X158771950Y-92403240D01*
X158770766Y-92402944D01*
X158762243Y-92397666D01*
X158701133Y-92379257D01*
X158629532Y-92402035D01*
X158627579Y-92401607D01*
X158627263Y-92399018D01*
X158660745Y-92348907D01*
X158673000Y-92287301D01*
X158673000Y-91587699D01*
X158660745Y-91526093D01*
X158625963Y-91474037D01*
X158573907Y-91439255D01*
X158512301Y-91427000D01*
X158387699Y-91427000D01*
X158326093Y-91439255D01*
X158274037Y-91474037D01*
X158239255Y-91526093D01*
X158227000Y-91587699D01*
X158227000Y-92287301D01*
X158239255Y-92348907D01*
X158273482Y-92400133D01*
X158273613Y-92402129D01*
X158271950Y-92403240D01*
X158270766Y-92402944D01*
X158262243Y-92397666D01*
X158201133Y-92379257D01*
X158129532Y-92402035D01*
X158127579Y-92401607D01*
X158127263Y-92399018D01*
X158160745Y-92348907D01*
X158173000Y-92287301D01*
X158173000Y-91587699D01*
X158160745Y-91526093D01*
X158125963Y-91474037D01*
X158073907Y-91439255D01*
X158012301Y-91427000D01*
X157887699Y-91427000D01*
X157826093Y-91439255D01*
X157774037Y-91474037D01*
X157739255Y-91526093D01*
X157727000Y-91587699D01*
X157727000Y-91599999D01*
X157726000Y-91601731D01*
X157724000Y-91601731D01*
X157723068Y-91600517D01*
X157706459Y-91538534D01*
X157661467Y-91493541D01*
X157599483Y-91476932D01*
X157598069Y-91475518D01*
X157598587Y-91473586D01*
X157600001Y-91473000D01*
X157612301Y-91473000D01*
X157673907Y-91460745D01*
X157725963Y-91425963D01*
X157760745Y-91373907D01*
X157773000Y-91312301D01*
X157773000Y-91187699D01*
X157760745Y-91126093D01*
X157725963Y-91074037D01*
X157673907Y-91039255D01*
X157612301Y-91027000D01*
X156912699Y-91027000D01*
X156851093Y-91039255D01*
X156799867Y-91073482D01*
X156797871Y-91073613D01*
X156796760Y-91071950D01*
X156797056Y-91070766D01*
X156802334Y-91062243D01*
X156820743Y-91001133D01*
X156797965Y-90929532D01*
X156798393Y-90927579D01*
X156800982Y-90927263D01*
X156851093Y-90960745D01*
X156912699Y-90973000D01*
X157612301Y-90973000D01*
X157673907Y-90960745D01*
X157725963Y-90925963D01*
X157760745Y-90873907D01*
X157773000Y-90812301D01*
X157773000Y-90687699D01*
X157760745Y-90626093D01*
X157725963Y-90574037D01*
X157673907Y-90539255D01*
X157612301Y-90527000D01*
X156912699Y-90527000D01*
X156851093Y-90539255D01*
X156799867Y-90573482D01*
X156797871Y-90573613D01*
X156796760Y-90571950D01*
X156797056Y-90570766D01*
X156802334Y-90562243D01*
X156820743Y-90501133D01*
X156797965Y-90429532D01*
X156798393Y-90427579D01*
X156800982Y-90427263D01*
X156851093Y-90460745D01*
X156912699Y-90473000D01*
X157612301Y-90473000D01*
X157673907Y-90460745D01*
X157725963Y-90425963D01*
X157760745Y-90373907D01*
X157773000Y-90312301D01*
X157773000Y-90187699D01*
X157760745Y-90126093D01*
X157725963Y-90074037D01*
X157673907Y-90039255D01*
X157612301Y-90027000D01*
X156912699Y-90027000D01*
X156851093Y-90039255D01*
X156799867Y-90073482D01*
X156797871Y-90073613D01*
X156796760Y-90071950D01*
X156797056Y-90070766D01*
X156802334Y-90062243D01*
X156820743Y-90001133D01*
X156797965Y-89929532D01*
X156798393Y-89927579D01*
X156800982Y-89927263D01*
X156851093Y-89960745D01*
X156912699Y-89973000D01*
X157612301Y-89973000D01*
X157673907Y-89960745D01*
X157725963Y-89925963D01*
X157760745Y-89873907D01*
X157773000Y-89812301D01*
X157773000Y-89687699D01*
X157760745Y-89626093D01*
X157725963Y-89574037D01*
X157673907Y-89539255D01*
X157612301Y-89527000D01*
X156912699Y-89527000D01*
X156851093Y-89539255D01*
X156799867Y-89573482D01*
X156797871Y-89573613D01*
X156796760Y-89571950D01*
X156797056Y-89570766D01*
X156802334Y-89562243D01*
X156820743Y-89501133D01*
X156797965Y-89429532D01*
X156798393Y-89427579D01*
X156800982Y-89427263D01*
X156851093Y-89460745D01*
X156912699Y-89473000D01*
X157612301Y-89473000D01*
X157673907Y-89460745D01*
X157725963Y-89425963D01*
X157760745Y-89373907D01*
X157773000Y-89312301D01*
X157773000Y-89187699D01*
X157760745Y-89126093D01*
X157725963Y-89074037D01*
X157673907Y-89039255D01*
X157612301Y-89027000D01*
X156912699Y-89027000D01*
X156851093Y-89039255D01*
X156799867Y-89073482D01*
X156797871Y-89073613D01*
X156796760Y-89071950D01*
X156797056Y-89070766D01*
X156802334Y-89062243D01*
X156820743Y-89001133D01*
X156797965Y-88929532D01*
X156798393Y-88927579D01*
X156800982Y-88927263D01*
X156851093Y-88960745D01*
X156912699Y-88973000D01*
X157612301Y-88973000D01*
X157673907Y-88960745D01*
X157689738Y-88950167D01*
X157802000Y-88950167D01*
X157802000Y-91049873D01*
X157812659Y-91135384D01*
X157858690Y-91240324D01*
X157936271Y-91324599D01*
X158037013Y-91379118D01*
X158150167Y-91398000D01*
X160249873Y-91398000D01*
X160335384Y-91387341D01*
X160440324Y-91341310D01*
X160524599Y-91263729D01*
X160579118Y-91162987D01*
X160598000Y-91049833D01*
X160598000Y-88950127D01*
X160587341Y-88864616D01*
X160541310Y-88759676D01*
X160463729Y-88675401D01*
X160362987Y-88620882D01*
X160249833Y-88602000D01*
X158150127Y-88602000D01*
X158064616Y-88612659D01*
X157959676Y-88658690D01*
X157875401Y-88736271D01*
X157820882Y-88837013D01*
X157802000Y-88950167D01*
X157689738Y-88950167D01*
X157725963Y-88925963D01*
X157760745Y-88873907D01*
X157773000Y-88812301D01*
X157773000Y-88687699D01*
X157760745Y-88626093D01*
X157725963Y-88574037D01*
X157673907Y-88539255D01*
X157612301Y-88527000D01*
X157600001Y-88527000D01*
X157598269Y-88526000D01*
X157598269Y-88524000D01*
X157599483Y-88523068D01*
X157661467Y-88506459D01*
X157706459Y-88461467D01*
X157723068Y-88399483D01*
X157724482Y-88398069D01*
X157726414Y-88398587D01*
X157727000Y-88400001D01*
X157727000Y-88412301D01*
X157739255Y-88473907D01*
X157774037Y-88525963D01*
X157826093Y-88560745D01*
X157887699Y-88573000D01*
X158012301Y-88573000D01*
X158073907Y-88560745D01*
X158125963Y-88525963D01*
X158160745Y-88473907D01*
X158173000Y-88412301D01*
X158173000Y-87712699D01*
X158160745Y-87651093D01*
X158126518Y-87599867D01*
X158126387Y-87597871D01*
X158128050Y-87596760D01*
X158129234Y-87597056D01*
X158137757Y-87602334D01*
X158198867Y-87620743D01*
X158270468Y-87597965D01*
X158272421Y-87598393D01*
X158272737Y-87600982D01*
X158239255Y-87651093D01*
X158227000Y-87712699D01*
X158227000Y-88412301D01*
X158239255Y-88473907D01*
X158274037Y-88525963D01*
X158326093Y-88560745D01*
X158387699Y-88573000D01*
X158512301Y-88573000D01*
X158573907Y-88560745D01*
X158625963Y-88525963D01*
X158660745Y-88473907D01*
X158673000Y-88412301D01*
X158673000Y-87712699D01*
X158660745Y-87651093D01*
X158626518Y-87599867D01*
X158626387Y-87597871D01*
X158628050Y-87596760D01*
X158629234Y-87597056D01*
X158637757Y-87602334D01*
X158698867Y-87620743D01*
X158770468Y-87597965D01*
X158772421Y-87598393D01*
X158772737Y-87600982D01*
X158739255Y-87651093D01*
X158727000Y-87712699D01*
X158727000Y-88412301D01*
X158739255Y-88473907D01*
X158774037Y-88525963D01*
X158826093Y-88560745D01*
X158887699Y-88573000D01*
X159012301Y-88573000D01*
X159073907Y-88560745D01*
X159125963Y-88525963D01*
X159160745Y-88473907D01*
X159173000Y-88412301D01*
X159173000Y-87712699D01*
X159160745Y-87651093D01*
X159126518Y-87599867D01*
X159126387Y-87597871D01*
X159128050Y-87596760D01*
X159129234Y-87597056D01*
X159137757Y-87602334D01*
X159198867Y-87620743D01*
X159270468Y-87597965D01*
X159272421Y-87598393D01*
X159272737Y-87600982D01*
X159239255Y-87651093D01*
X159227000Y-87712699D01*
X159227000Y-88412301D01*
X159239255Y-88473907D01*
X159274037Y-88525963D01*
X159326093Y-88560745D01*
X159387699Y-88573000D01*
X159512301Y-88573000D01*
X159573907Y-88560745D01*
X159625963Y-88525963D01*
X159660745Y-88473907D01*
X159673000Y-88412301D01*
X159673000Y-87712699D01*
X159660745Y-87651093D01*
X159626518Y-87599867D01*
X159626387Y-87597871D01*
X159628050Y-87596760D01*
X159629234Y-87597056D01*
X159637757Y-87602334D01*
X159698867Y-87620743D01*
X159770468Y-87597965D01*
X159772421Y-87598393D01*
X159772737Y-87600982D01*
X159739255Y-87651093D01*
X159727000Y-87712699D01*
X159727000Y-88412301D01*
X159739255Y-88473907D01*
X159774037Y-88525963D01*
X159826093Y-88560745D01*
X159887699Y-88573000D01*
X160012301Y-88573000D01*
X160073907Y-88560745D01*
X160125963Y-88525963D01*
X160160745Y-88473907D01*
X160173000Y-88412301D01*
X160173000Y-87712699D01*
X160160745Y-87651093D01*
X160126518Y-87599867D01*
X160126387Y-87597871D01*
X160128050Y-87596760D01*
X160129234Y-87597056D01*
G37*
G36*
X146894293Y-91739441D02*
G01*
X146926451Y-91779603D01*
X146985731Y-91802733D01*
X147048561Y-91793137D01*
X147105640Y-91740592D01*
X147107592Y-91740154D01*
X147108957Y-91742453D01*
X147092000Y-91827699D01*
X147092000Y-92172301D01*
X147109230Y-92258919D01*
X147108587Y-92260813D01*
X147106625Y-92261203D01*
X147105707Y-92260559D01*
X147073549Y-92220397D01*
X147014269Y-92197267D01*
X146951439Y-92206863D01*
X146894360Y-92259408D01*
X146892408Y-92259846D01*
X146891043Y-92257547D01*
X146908000Y-92172301D01*
X146908000Y-91827699D01*
X146890770Y-91741081D01*
X146891413Y-91739187D01*
X146893375Y-91738797D01*
X146894293Y-91739441D01*
G37*
G36*
X147180797Y-91378615D02*
G01*
X147243565Y-91420555D01*
X147337699Y-91439280D01*
X147632301Y-91439280D01*
X147726435Y-91420555D01*
X147780175Y-91384648D01*
X147782171Y-91384517D01*
X147783282Y-91386180D01*
X147782641Y-91387782D01*
X147754851Y-91413364D01*
X147754746Y-91413454D01*
X147722526Y-91439254D01*
X147699397Y-91498534D01*
X147708995Y-91561363D01*
X147763332Y-91620388D01*
X147784409Y-91631794D01*
X147784928Y-91632198D01*
X147791785Y-91639647D01*
X147792223Y-91641599D01*
X147790751Y-91642954D01*
X147789203Y-91642665D01*
X147726435Y-91600725D01*
X147632301Y-91582000D01*
X147337699Y-91582000D01*
X147243565Y-91600725D01*
X147189825Y-91636633D01*
X147187829Y-91636764D01*
X147186718Y-91635101D01*
X147187359Y-91633499D01*
X147215149Y-91607916D01*
X147215254Y-91607826D01*
X147247474Y-91582026D01*
X147270603Y-91522746D01*
X147261005Y-91459917D01*
X147206668Y-91400892D01*
X147185591Y-91389486D01*
X147185072Y-91389082D01*
X147178215Y-91381633D01*
X147177777Y-91379681D01*
X147179249Y-91378326D01*
X147180797Y-91378615D01*
G37*
G36*
X146210797Y-91378615D02*
G01*
X146273565Y-91420555D01*
X146367699Y-91439280D01*
X146662301Y-91439280D01*
X146756435Y-91420555D01*
X146810175Y-91384647D01*
X146812171Y-91384516D01*
X146813282Y-91386179D01*
X146812641Y-91387781D01*
X146784851Y-91413364D01*
X146784746Y-91413454D01*
X146752526Y-91439254D01*
X146729397Y-91498534D01*
X146738995Y-91561363D01*
X146793332Y-91620388D01*
X146814409Y-91631794D01*
X146814928Y-91632198D01*
X146821785Y-91639647D01*
X146822223Y-91641599D01*
X146820751Y-91642954D01*
X146819203Y-91642665D01*
X146756435Y-91600725D01*
X146662301Y-91582000D01*
X146367699Y-91582000D01*
X146273565Y-91600725D01*
X146219825Y-91636632D01*
X146217829Y-91636763D01*
X146216718Y-91635100D01*
X146217359Y-91633498D01*
X146245149Y-91607916D01*
X146245254Y-91607826D01*
X146277474Y-91582026D01*
X146300603Y-91522746D01*
X146291005Y-91459917D01*
X146236668Y-91400892D01*
X146215591Y-91389486D01*
X146215072Y-91389082D01*
X146208215Y-91381633D01*
X146207777Y-91379681D01*
X146209249Y-91378326D01*
X146210797Y-91378615D01*
G37*
G36*
X146894293Y-90760721D02*
G01*
X146926451Y-90800883D01*
X146985731Y-90824013D01*
X147048561Y-90814417D01*
X147105640Y-90761872D01*
X147107592Y-90761434D01*
X147108957Y-90763733D01*
X147092000Y-90848979D01*
X147092000Y-91193581D01*
X147109230Y-91280199D01*
X147108587Y-91282093D01*
X147106625Y-91282483D01*
X147105707Y-91281839D01*
X147073549Y-91241677D01*
X147014269Y-91218547D01*
X146951439Y-91228143D01*
X146894360Y-91280688D01*
X146892408Y-91281126D01*
X146891043Y-91278827D01*
X146908000Y-91193581D01*
X146908000Y-90848979D01*
X146890770Y-90762361D01*
X146891413Y-90760467D01*
X146893375Y-90760077D01*
X146894293Y-90760721D01*
G37*
G36*
X143494293Y-89339441D02*
G01*
X143526451Y-89379603D01*
X143585731Y-89402733D01*
X143648561Y-89393137D01*
X143705640Y-89340592D01*
X143707592Y-89340154D01*
X143708957Y-89342453D01*
X143692000Y-89427699D01*
X143692000Y-89772301D01*
X143709230Y-89858919D01*
X143708587Y-89860813D01*
X143706625Y-89861203D01*
X143705707Y-89860559D01*
X143673549Y-89820397D01*
X143614269Y-89797267D01*
X143551439Y-89806863D01*
X143494360Y-89859408D01*
X143492408Y-89859846D01*
X143491043Y-89857547D01*
X143508000Y-89772301D01*
X143508000Y-89427699D01*
X143490770Y-89341081D01*
X143491413Y-89339187D01*
X143493375Y-89338797D01*
X143494293Y-89339441D01*
G37*
G36*
X162789440Y-89121659D02*
G01*
X162827496Y-89169190D01*
X162886776Y-89192321D01*
X162949605Y-89182725D01*
X163002113Y-89134388D01*
X163004065Y-89133950D01*
X163005420Y-89135422D01*
X163005131Y-89136970D01*
X163000725Y-89143565D01*
X162982000Y-89237699D01*
X162982000Y-89532301D01*
X163000725Y-89626435D01*
X163013784Y-89645980D01*
X163013915Y-89647976D01*
X163012252Y-89649087D01*
X163010560Y-89648341D01*
X162972504Y-89600810D01*
X162913224Y-89577679D01*
X162850395Y-89587275D01*
X162797887Y-89635612D01*
X162795935Y-89636050D01*
X162794580Y-89634578D01*
X162794869Y-89633030D01*
X162799275Y-89626435D01*
X162818000Y-89532301D01*
X162818000Y-89237699D01*
X162799275Y-89143565D01*
X162786216Y-89124020D01*
X162786085Y-89122024D01*
X162787748Y-89120913D01*
X162789440Y-89121659D01*
G37*
G36*
X120931932Y-86969402D02*
G01*
X120948541Y-87031386D01*
X120993460Y-87076304D01*
X121079351Y-87090484D01*
X121086123Y-87089137D01*
X121088017Y-87089780D01*
X121088407Y-87091742D01*
X121087624Y-87092762D01*
X121060731Y-87110731D01*
X121039497Y-87142511D01*
X121032000Y-87180199D01*
X121032000Y-89079801D01*
X121039497Y-89117489D01*
X121060731Y-89149269D01*
X121087624Y-89167238D01*
X121088509Y-89169032D01*
X121087398Y-89170695D01*
X121086123Y-89170863D01*
X121079254Y-89169496D01*
X121015485Y-89173675D01*
X120962666Y-89208968D01*
X120931872Y-89290785D01*
X120930326Y-89292053D01*
X120928454Y-89291349D01*
X120928000Y-89290080D01*
X120928000Y-89130199D01*
X120920503Y-89092511D01*
X120899269Y-89060731D01*
X120867489Y-89039497D01*
X120829801Y-89032000D01*
X120380199Y-89032000D01*
X120348279Y-89038349D01*
X120346385Y-89037706D01*
X120345995Y-89035744D01*
X120346778Y-89034724D01*
X120350230Y-89032417D01*
X120392367Y-88984370D01*
X120404781Y-88921960D01*
X120384305Y-88861638D01*
X120350288Y-88827621D01*
X120346778Y-88825276D01*
X120345893Y-88823482D01*
X120347004Y-88821819D01*
X120348279Y-88821651D01*
X120380199Y-88828000D01*
X120829801Y-88828000D01*
X120867489Y-88820503D01*
X120899269Y-88799269D01*
X120920503Y-88767489D01*
X120928000Y-88729801D01*
X120928000Y-88330199D01*
X120920503Y-88292511D01*
X120899269Y-88260731D01*
X120867489Y-88239497D01*
X120829801Y-88232000D01*
X120380199Y-88232000D01*
X120348279Y-88238349D01*
X120346385Y-88237706D01*
X120345995Y-88235744D01*
X120346778Y-88234724D01*
X120350230Y-88232417D01*
X120392367Y-88184370D01*
X120404781Y-88121960D01*
X120384305Y-88061638D01*
X120350288Y-88027621D01*
X120346778Y-88025276D01*
X120345893Y-88023482D01*
X120347004Y-88021819D01*
X120348279Y-88021651D01*
X120380199Y-88028000D01*
X120829801Y-88028000D01*
X120867489Y-88020503D01*
X120899269Y-87999269D01*
X120920503Y-87967489D01*
X120928000Y-87929801D01*
X120928000Y-87530199D01*
X120920503Y-87492511D01*
X120899269Y-87460731D01*
X120867489Y-87439497D01*
X120829801Y-87432000D01*
X120380199Y-87432000D01*
X120348279Y-87438349D01*
X120346385Y-87437706D01*
X120345995Y-87435744D01*
X120346778Y-87434724D01*
X120350230Y-87432417D01*
X120392367Y-87384370D01*
X120404781Y-87321960D01*
X120384305Y-87261638D01*
X120350288Y-87227621D01*
X120346778Y-87225276D01*
X120345893Y-87223482D01*
X120347004Y-87221819D01*
X120348279Y-87221651D01*
X120380199Y-87228000D01*
X120829801Y-87228000D01*
X120867489Y-87220503D01*
X120899269Y-87199269D01*
X120920503Y-87167489D01*
X120928000Y-87129801D01*
X120928000Y-86969920D01*
X120929000Y-86968188D01*
X120931000Y-86968188D01*
X120931932Y-86969402D01*
G37*
G36*
X123231546Y-86968651D02*
G01*
X123232000Y-86969920D01*
X123232000Y-87129801D01*
X123239497Y-87167489D01*
X123260731Y-87199269D01*
X123292511Y-87220503D01*
X123330199Y-87228000D01*
X123779801Y-87228000D01*
X123811721Y-87221651D01*
X123813615Y-87222294D01*
X123814005Y-87224256D01*
X123813222Y-87225276D01*
X123809770Y-87227583D01*
X123767633Y-87275630D01*
X123755219Y-87338040D01*
X123775695Y-87398362D01*
X123809712Y-87432379D01*
X123813222Y-87434724D01*
X123814107Y-87436518D01*
X123812996Y-87438181D01*
X123811721Y-87438349D01*
X123779801Y-87432000D01*
X123330199Y-87432000D01*
X123292511Y-87439497D01*
X123260731Y-87460731D01*
X123239497Y-87492511D01*
X123232000Y-87530199D01*
X123232000Y-87929801D01*
X123239497Y-87967489D01*
X123260731Y-87999269D01*
X123292511Y-88020503D01*
X123330199Y-88028000D01*
X123779801Y-88028000D01*
X123811721Y-88021651D01*
X123813615Y-88022294D01*
X123814005Y-88024256D01*
X123813222Y-88025276D01*
X123809770Y-88027583D01*
X123767633Y-88075630D01*
X123755219Y-88138040D01*
X123775695Y-88198362D01*
X123809712Y-88232379D01*
X123813222Y-88234724D01*
X123814107Y-88236518D01*
X123812996Y-88238181D01*
X123811721Y-88238349D01*
X123779801Y-88232000D01*
X123330199Y-88232000D01*
X123292511Y-88239497D01*
X123260731Y-88260731D01*
X123239497Y-88292511D01*
X123232000Y-88330199D01*
X123232000Y-88729801D01*
X123239497Y-88767489D01*
X123260731Y-88799269D01*
X123292511Y-88820503D01*
X123330199Y-88828000D01*
X123779801Y-88828000D01*
X123811721Y-88821651D01*
X123813615Y-88822294D01*
X123814005Y-88824256D01*
X123813222Y-88825276D01*
X123809770Y-88827583D01*
X123767633Y-88875630D01*
X123755219Y-88938040D01*
X123775695Y-88998362D01*
X123809712Y-89032379D01*
X123813222Y-89034724D01*
X123814107Y-89036518D01*
X123812996Y-89038181D01*
X123811721Y-89038349D01*
X123779801Y-89032000D01*
X123330199Y-89032000D01*
X123292511Y-89039497D01*
X123260731Y-89060731D01*
X123239497Y-89092511D01*
X123232000Y-89130199D01*
X123232000Y-89290080D01*
X123231000Y-89291812D01*
X123229000Y-89291812D01*
X123228068Y-89290598D01*
X123211459Y-89228615D01*
X123166541Y-89183696D01*
X123080649Y-89169516D01*
X123073877Y-89170863D01*
X123071983Y-89170220D01*
X123071593Y-89168258D01*
X123072376Y-89167238D01*
X123099269Y-89149269D01*
X123120503Y-89117489D01*
X123128000Y-89079801D01*
X123128000Y-87180199D01*
X123120503Y-87142511D01*
X123099269Y-87110731D01*
X123072376Y-87092762D01*
X123071491Y-87090968D01*
X123072602Y-87089305D01*
X123073877Y-87089137D01*
X123080746Y-87090504D01*
X123144515Y-87086325D01*
X123197334Y-87051032D01*
X123228128Y-86969215D01*
X123229674Y-86967947D01*
X123231546Y-86968651D01*
G37*
G36*
X119760813Y-88991413D02*
G01*
X119761203Y-88993375D01*
X119760559Y-88994293D01*
X119720397Y-89026451D01*
X119697267Y-89085731D01*
X119706863Y-89148561D01*
X119759408Y-89205640D01*
X119759846Y-89207592D01*
X119757547Y-89208957D01*
X119672301Y-89192000D01*
X119327699Y-89192000D01*
X119241081Y-89209230D01*
X119239187Y-89208587D01*
X119238797Y-89206625D01*
X119239441Y-89205707D01*
X119279603Y-89173549D01*
X119302733Y-89114269D01*
X119293137Y-89051439D01*
X119240592Y-88994360D01*
X119240154Y-88992408D01*
X119242453Y-88991043D01*
X119327699Y-89008000D01*
X119672301Y-89008000D01*
X119758919Y-88990770D01*
X119760813Y-88991413D01*
G37*
G36*
X122005310Y-87112847D02*
G01*
X122011446Y-87116946D01*
X122071892Y-87137465D01*
X122148610Y-87116909D01*
X122154690Y-87112847D01*
X122156686Y-87112716D01*
X122157797Y-87114379D01*
X122157464Y-87115621D01*
X122139497Y-87142511D01*
X122132000Y-87180199D01*
X122132000Y-89079801D01*
X122139497Y-89117489D01*
X122157464Y-89144379D01*
X122157595Y-89146375D01*
X122155932Y-89147486D01*
X122154690Y-89147153D01*
X122148554Y-89143054D01*
X122088108Y-89122535D01*
X122011390Y-89143091D01*
X122005310Y-89147153D01*
X122003314Y-89147284D01*
X122002203Y-89145621D01*
X122002536Y-89144379D01*
X122020503Y-89117489D01*
X122028000Y-89079801D01*
X122028000Y-87180199D01*
X122020503Y-87142511D01*
X122002536Y-87115621D01*
X122002405Y-87113625D01*
X122004068Y-87112514D01*
X122005310Y-87112847D01*
G37*
G36*
X162660813Y-88791413D02*
G01*
X162661203Y-88793375D01*
X162660559Y-88794293D01*
X162620397Y-88826451D01*
X162597267Y-88885731D01*
X162606863Y-88948561D01*
X162659408Y-89005640D01*
X162659846Y-89007592D01*
X162657547Y-89008957D01*
X162572301Y-88992000D01*
X162227699Y-88992000D01*
X162141081Y-89009230D01*
X162139187Y-89008587D01*
X162138797Y-89006625D01*
X162139441Y-89005707D01*
X162179603Y-88973549D01*
X162202733Y-88914269D01*
X162193137Y-88851439D01*
X162140592Y-88794360D01*
X162140154Y-88792408D01*
X162142453Y-88791043D01*
X162227699Y-88808000D01*
X162572301Y-88808000D01*
X162658919Y-88790770D01*
X162660813Y-88791413D01*
G37*
G36*
X163660813Y-88791413D02*
G01*
X163661203Y-88793375D01*
X163660559Y-88794293D01*
X163620397Y-88826451D01*
X163597267Y-88885731D01*
X163606863Y-88948561D01*
X163659408Y-89005640D01*
X163659846Y-89007592D01*
X163657547Y-89008957D01*
X163572301Y-88992000D01*
X163227699Y-88992000D01*
X163141081Y-89009230D01*
X163139187Y-89008587D01*
X163138797Y-89006625D01*
X163139441Y-89005707D01*
X163179603Y-88973549D01*
X163202733Y-88914269D01*
X163193137Y-88851439D01*
X163140592Y-88794360D01*
X163140154Y-88792408D01*
X163142453Y-88791043D01*
X163227699Y-88808000D01*
X163572301Y-88808000D01*
X163658919Y-88790770D01*
X163660813Y-88791413D01*
G37*
G36*
X162789440Y-88151659D02*
G01*
X162827496Y-88199190D01*
X162886776Y-88222321D01*
X162949605Y-88212725D01*
X163002113Y-88164388D01*
X163004065Y-88163950D01*
X163005420Y-88165422D01*
X163005131Y-88166970D01*
X163000725Y-88173565D01*
X162982000Y-88267699D01*
X162982000Y-88562301D01*
X163000725Y-88656435D01*
X163013784Y-88675980D01*
X163013915Y-88677976D01*
X163012252Y-88679087D01*
X163010560Y-88678341D01*
X162972504Y-88630810D01*
X162913224Y-88607679D01*
X162850395Y-88617275D01*
X162797887Y-88665612D01*
X162795935Y-88666050D01*
X162794580Y-88664578D01*
X162794869Y-88663030D01*
X162799275Y-88656435D01*
X162818000Y-88562301D01*
X162818000Y-88267699D01*
X162799275Y-88173565D01*
X162786216Y-88154020D01*
X162786085Y-88152024D01*
X162787748Y-88150913D01*
X162789440Y-88151659D01*
G37*
G36*
X119170797Y-88017335D02*
G01*
X119200232Y-88037003D01*
X119200265Y-88037070D01*
X119200360Y-88037088D01*
X119233565Y-88059275D01*
X119327699Y-88078000D01*
X119672301Y-88078000D01*
X119766435Y-88059275D01*
X119820174Y-88023368D01*
X119822170Y-88023237D01*
X119823281Y-88024900D01*
X119822640Y-88026502D01*
X119798794Y-88048454D01*
X119798689Y-88048544D01*
X119761221Y-88078545D01*
X119738091Y-88137825D01*
X119747688Y-88200654D01*
X119802025Y-88259680D01*
X119824408Y-88271793D01*
X119824927Y-88272197D01*
X119831785Y-88279647D01*
X119832223Y-88281599D01*
X119830751Y-88282954D01*
X119829203Y-88282665D01*
X119799768Y-88262997D01*
X119799735Y-88262930D01*
X119799640Y-88262912D01*
X119766435Y-88240725D01*
X119672301Y-88222000D01*
X119327699Y-88222000D01*
X119233565Y-88240725D01*
X119179826Y-88276632D01*
X119177830Y-88276763D01*
X119176719Y-88275100D01*
X119177360Y-88273498D01*
X119201206Y-88251546D01*
X119201311Y-88251456D01*
X119238779Y-88221455D01*
X119261909Y-88162175D01*
X119252312Y-88099346D01*
X119197975Y-88040320D01*
X119175592Y-88028207D01*
X119175073Y-88027803D01*
X119168215Y-88020353D01*
X119167777Y-88018401D01*
X119169249Y-88017046D01*
X119170797Y-88017335D01*
G37*
G36*
X169205820Y-87004396D02*
G01*
X169206210Y-87006358D01*
X169205119Y-87007547D01*
X169194381Y-87012257D01*
X169144497Y-87052198D01*
X169121367Y-87111478D01*
X169130974Y-87174381D01*
X169170709Y-87224007D01*
X169244172Y-87248100D01*
X169245506Y-87249590D01*
X169244883Y-87251490D01*
X169243549Y-87252000D01*
X168901528Y-87252000D01*
X168863840Y-87259497D01*
X168832060Y-87280731D01*
X168810826Y-87312511D01*
X168803291Y-87350390D01*
X168801972Y-87351894D01*
X168800010Y-87351504D01*
X168799367Y-87350390D01*
X168791832Y-87312511D01*
X168770598Y-87280731D01*
X168743705Y-87262762D01*
X168742820Y-87260968D01*
X168743931Y-87259305D01*
X168745206Y-87259137D01*
X168754898Y-87261065D01*
X168755151Y-87261133D01*
X168793220Y-87274056D01*
X168838896Y-87261817D01*
X168840828Y-87262335D01*
X168840881Y-87262433D01*
X168841272Y-87262355D01*
X168846314Y-87259869D01*
X168846681Y-87259731D01*
X168869940Y-87253499D01*
X168881899Y-87245508D01*
X168881565Y-87245008D01*
X168881434Y-87243012D01*
X168882343Y-87242103D01*
X168898588Y-87234093D01*
X168933942Y-87181187D01*
X168938106Y-87117690D01*
X168910002Y-87060697D01*
X168840060Y-87021747D01*
X168839033Y-87020031D01*
X168840006Y-87018284D01*
X168841033Y-87018000D01*
X169132301Y-87018000D01*
X169203926Y-87003753D01*
X169205820Y-87004396D01*
G37*
G36*
X119760813Y-87091413D02*
G01*
X119761203Y-87093375D01*
X119760559Y-87094293D01*
X119720397Y-87126451D01*
X119697267Y-87185731D01*
X119706863Y-87248561D01*
X119759408Y-87305640D01*
X119759846Y-87307592D01*
X119757547Y-87308957D01*
X119672301Y-87292000D01*
X119327699Y-87292000D01*
X119241081Y-87309230D01*
X119239187Y-87308587D01*
X119238797Y-87306625D01*
X119239441Y-87305707D01*
X119279603Y-87273549D01*
X119302733Y-87214269D01*
X119293137Y-87151439D01*
X119240592Y-87094360D01*
X119240154Y-87092408D01*
X119242453Y-87091043D01*
X119327699Y-87108000D01*
X119672301Y-87108000D01*
X119758919Y-87090770D01*
X119760813Y-87091413D01*
G37*
G36*
X166022699Y-87018000D02*
G01*
X166191729Y-87018000D01*
X166193461Y-87019000D01*
X166193461Y-87021000D01*
X166192247Y-87021932D01*
X166130264Y-87038541D01*
X166085271Y-87083534D01*
X166068801Y-87144999D01*
X166085279Y-87206498D01*
X166123583Y-87247394D01*
X166132772Y-87253534D01*
X166137737Y-87255220D01*
X166139056Y-87256724D01*
X166138413Y-87258618D01*
X166136704Y-87259076D01*
X166101130Y-87252000D01*
X165902659Y-87252000D01*
X165900927Y-87251000D01*
X165900927Y-87249000D01*
X165902141Y-87248068D01*
X165964125Y-87231459D01*
X166009117Y-87186467D01*
X166025587Y-87125001D01*
X166009117Y-87063536D01*
X165964061Y-87018479D01*
X165960192Y-87017091D01*
X165959575Y-87016363D01*
X165939324Y-87005403D01*
X165938277Y-87003699D01*
X165939229Y-87001940D01*
X165940666Y-87001682D01*
X166022699Y-87018000D01*
G37*
G36*
X167867699Y-87018000D02*
G01*
X168141729Y-87018000D01*
X168143461Y-87019000D01*
X168143461Y-87021000D01*
X168142247Y-87021932D01*
X168080264Y-87038541D01*
X168035271Y-87083534D01*
X168018801Y-87144999D01*
X168035279Y-87206498D01*
X168073583Y-87247394D01*
X168082772Y-87253534D01*
X168087737Y-87255220D01*
X168089056Y-87256724D01*
X168088413Y-87258618D01*
X168086704Y-87259076D01*
X168051130Y-87252000D01*
X167747659Y-87252000D01*
X167745927Y-87251000D01*
X167745927Y-87249000D01*
X167747141Y-87248068D01*
X167809125Y-87231459D01*
X167854117Y-87186467D01*
X167870587Y-87125001D01*
X167854117Y-87063536D01*
X167809061Y-87018479D01*
X167805192Y-87017091D01*
X167804575Y-87016363D01*
X167784324Y-87005403D01*
X167783277Y-87003699D01*
X167784229Y-87001940D01*
X167785666Y-87001682D01*
X167867699Y-87018000D01*
G37*
G36*
X165052699Y-87018000D02*
G01*
X165347301Y-87018000D01*
X165418925Y-87003753D01*
X165420819Y-87004396D01*
X165421209Y-87006358D01*
X165420118Y-87007547D01*
X165407128Y-87013245D01*
X165357244Y-87053186D01*
X165334114Y-87112466D01*
X165343721Y-87175369D01*
X165383522Y-87225076D01*
X165432514Y-87246667D01*
X165439408Y-87248038D01*
X165440912Y-87249357D01*
X165440522Y-87251319D01*
X165439018Y-87252000D01*
X165002153Y-87252000D01*
X165000421Y-87251000D01*
X165000421Y-87249000D01*
X165001268Y-87248206D01*
X165051055Y-87223654D01*
X165086407Y-87170746D01*
X165090568Y-87107249D01*
X165062462Y-87050257D01*
X164989906Y-87009854D01*
X164972369Y-87006928D01*
X164971747Y-87006714D01*
X164969325Y-87005404D01*
X164968277Y-87003701D01*
X164969228Y-87001941D01*
X164970666Y-87001683D01*
X165052699Y-87018000D01*
G37*
G36*
X167682954Y-86269249D02*
G01*
X167682665Y-86270797D01*
X167640725Y-86333565D01*
X167622000Y-86427699D01*
X167622000Y-86772301D01*
X167640725Y-86866435D01*
X167676633Y-86920176D01*
X167676764Y-86922172D01*
X167675101Y-86923283D01*
X167673499Y-86922642D01*
X167647504Y-86894404D01*
X167646796Y-86895056D01*
X167644844Y-86895494D01*
X167643880Y-86894835D01*
X167626903Y-86873628D01*
X167567625Y-86850493D01*
X167504620Y-86860112D01*
X167470671Y-86882289D01*
X167460350Y-86891790D01*
X167458398Y-86892227D01*
X167457043Y-86890755D01*
X167457332Y-86889207D01*
X167499275Y-86826435D01*
X167518000Y-86732301D01*
X167518000Y-86437699D01*
X167499275Y-86343565D01*
X167463364Y-86289819D01*
X167463233Y-86287823D01*
X167464896Y-86286712D01*
X167466498Y-86287353D01*
X167474925Y-86296508D01*
X167528900Y-86330720D01*
X167592477Y-86333349D01*
X167648946Y-86303788D01*
X167668915Y-86278132D01*
X167669138Y-86277889D01*
X167679647Y-86268215D01*
X167681599Y-86267777D01*
X167682954Y-86269249D01*
G37*
G36*
X166511499Y-86277355D02*
G01*
X166536187Y-86304174D01*
X166590163Y-86338387D01*
X166653740Y-86341017D01*
X166710208Y-86311456D01*
X166726962Y-86289930D01*
X166727185Y-86289687D01*
X166739647Y-86278215D01*
X166741599Y-86277777D01*
X166742954Y-86279249D01*
X166742665Y-86280797D01*
X166700725Y-86343565D01*
X166682000Y-86437699D01*
X166682000Y-86732301D01*
X166700725Y-86826435D01*
X166736636Y-86880180D01*
X166736767Y-86882176D01*
X166735104Y-86883287D01*
X166733502Y-86882646D01*
X166725853Y-86874337D01*
X166671878Y-86840125D01*
X166608301Y-86837496D01*
X166551832Y-86867057D01*
X166529441Y-86895825D01*
X166527588Y-86896578D01*
X166526010Y-86895350D01*
X166526200Y-86893486D01*
X166544275Y-86866435D01*
X166563000Y-86772301D01*
X166563000Y-86427699D01*
X166544275Y-86333565D01*
X166508365Y-86279821D01*
X166508234Y-86277825D01*
X166509897Y-86276714D01*
X166511499Y-86277355D01*
G37*
G36*
X168394293Y-86339441D02*
G01*
X168426451Y-86379603D01*
X168485731Y-86402733D01*
X168548561Y-86393137D01*
X168605640Y-86340592D01*
X168607592Y-86340154D01*
X168608957Y-86342453D01*
X168592000Y-86427699D01*
X168592000Y-86772301D01*
X168609230Y-86858919D01*
X168608587Y-86860813D01*
X168606625Y-86861203D01*
X168605707Y-86860559D01*
X168573549Y-86820397D01*
X168514269Y-86797267D01*
X168451439Y-86806863D01*
X168394360Y-86859408D01*
X168392408Y-86859846D01*
X168391043Y-86857547D01*
X168408000Y-86772301D01*
X168408000Y-86427699D01*
X168390770Y-86341081D01*
X168391413Y-86339187D01*
X168393375Y-86338797D01*
X168394293Y-86339441D01*
G37*
G36*
X165579293Y-86339441D02*
G01*
X165611451Y-86379603D01*
X165670731Y-86402733D01*
X165733561Y-86393137D01*
X165790640Y-86340592D01*
X165792592Y-86340154D01*
X165793957Y-86342453D01*
X165777000Y-86427699D01*
X165777000Y-86772301D01*
X165794230Y-86858919D01*
X165793587Y-86860813D01*
X165791625Y-86861203D01*
X165790707Y-86860559D01*
X165758549Y-86820397D01*
X165699269Y-86797267D01*
X165636439Y-86806863D01*
X165579360Y-86859408D01*
X165577408Y-86859846D01*
X165576043Y-86857547D01*
X165593000Y-86772301D01*
X165593000Y-86427699D01*
X165575770Y-86341081D01*
X165576413Y-86339187D01*
X165578375Y-86338797D01*
X165579293Y-86339441D01*
G37*
G36*
X167360813Y-85991413D02*
G01*
X167361203Y-85993375D01*
X167360559Y-85994293D01*
X167320397Y-86026451D01*
X167297267Y-86085731D01*
X167306863Y-86148561D01*
X167359408Y-86205640D01*
X167359846Y-86207592D01*
X167357547Y-86208957D01*
X167272301Y-86192000D01*
X166927699Y-86192000D01*
X166841081Y-86209230D01*
X166839187Y-86208587D01*
X166838797Y-86206625D01*
X166839441Y-86205707D01*
X166879603Y-86173549D01*
X166902733Y-86114269D01*
X166893137Y-86051439D01*
X166840592Y-85994360D01*
X166840154Y-85992408D01*
X166842453Y-85991043D01*
X166927699Y-86008000D01*
X167272301Y-86008000D01*
X167358919Y-85990770D01*
X167360813Y-85991413D01*
G37*
G36*
X120794293Y-85439441D02*
G01*
X120826451Y-85479603D01*
X120885731Y-85502733D01*
X120948561Y-85493137D01*
X121005640Y-85440592D01*
X121007592Y-85440154D01*
X121008957Y-85442453D01*
X120992000Y-85527699D01*
X120992000Y-85872301D01*
X121009230Y-85958919D01*
X121008587Y-85960813D01*
X121006625Y-85961203D01*
X121005707Y-85960559D01*
X120973549Y-85920397D01*
X120914269Y-85897267D01*
X120851439Y-85906863D01*
X120794360Y-85959408D01*
X120792408Y-85959846D01*
X120791043Y-85957547D01*
X120808000Y-85872301D01*
X120808000Y-85527699D01*
X120790770Y-85441081D01*
X120791413Y-85439187D01*
X120793375Y-85438797D01*
X120794293Y-85439441D01*
G37*
G36*
X123394293Y-85239441D02*
G01*
X123426451Y-85279603D01*
X123485731Y-85302733D01*
X123548561Y-85293137D01*
X123605640Y-85240592D01*
X123607592Y-85240154D01*
X123608957Y-85242453D01*
X123592000Y-85327699D01*
X123592000Y-85672301D01*
X123609230Y-85758919D01*
X123608587Y-85760813D01*
X123606625Y-85761203D01*
X123605707Y-85760559D01*
X123573549Y-85720397D01*
X123514269Y-85697267D01*
X123451439Y-85706863D01*
X123394360Y-85759408D01*
X123392408Y-85759846D01*
X123391043Y-85757547D01*
X123408000Y-85672301D01*
X123408000Y-85327699D01*
X123390770Y-85241081D01*
X123391413Y-85239187D01*
X123393375Y-85238797D01*
X123394293Y-85239441D01*
G37*
G36*
X124249087Y-84887748D02*
G01*
X124248341Y-84889440D01*
X124200810Y-84927496D01*
X124177679Y-84986776D01*
X124187275Y-85049605D01*
X124235612Y-85102113D01*
X124236050Y-85104065D01*
X124234578Y-85105420D01*
X124233030Y-85105131D01*
X124226435Y-85100725D01*
X124132301Y-85082000D01*
X123837699Y-85082000D01*
X123743565Y-85100725D01*
X123724020Y-85113784D01*
X123722024Y-85113915D01*
X123720913Y-85112252D01*
X123721659Y-85110560D01*
X123769190Y-85072504D01*
X123792321Y-85013224D01*
X123782725Y-84950395D01*
X123734388Y-84897887D01*
X123733950Y-84895935D01*
X123735422Y-84894580D01*
X123736970Y-84894869D01*
X123743565Y-84899275D01*
X123837699Y-84918000D01*
X124132301Y-84918000D01*
X124226435Y-84899275D01*
X124245980Y-84886216D01*
X124247976Y-84886085D01*
X124249087Y-84887748D01*
G37*
G36*
X123279087Y-84887748D02*
G01*
X123278341Y-84889440D01*
X123230810Y-84927496D01*
X123207679Y-84986776D01*
X123217275Y-85049605D01*
X123265612Y-85102113D01*
X123266050Y-85104065D01*
X123264578Y-85105420D01*
X123263030Y-85105131D01*
X123256435Y-85100725D01*
X123162301Y-85082000D01*
X122867699Y-85082000D01*
X122773565Y-85100725D01*
X122754020Y-85113784D01*
X122752024Y-85113915D01*
X122750913Y-85112252D01*
X122751659Y-85110560D01*
X122799190Y-85072504D01*
X122822321Y-85013224D01*
X122812725Y-84950395D01*
X122764388Y-84897887D01*
X122763950Y-84895935D01*
X122765422Y-84894580D01*
X122766970Y-84894869D01*
X122773565Y-84899275D01*
X122867699Y-84918000D01*
X123162301Y-84918000D01*
X123256435Y-84899275D01*
X123275980Y-84886216D01*
X123277976Y-84886085D01*
X123279087Y-84887748D01*
G37*
G36*
X123394293Y-84239441D02*
G01*
X123426451Y-84279603D01*
X123485731Y-84302733D01*
X123548561Y-84293137D01*
X123605640Y-84240592D01*
X123607592Y-84240154D01*
X123608957Y-84242453D01*
X123592000Y-84327699D01*
X123592000Y-84672301D01*
X123609230Y-84758919D01*
X123608587Y-84760813D01*
X123606625Y-84761203D01*
X123605707Y-84760559D01*
X123573549Y-84720397D01*
X123514269Y-84697267D01*
X123451439Y-84706863D01*
X123394360Y-84759408D01*
X123392408Y-84759846D01*
X123391043Y-84757547D01*
X123408000Y-84672301D01*
X123408000Y-84327699D01*
X123390770Y-84241081D01*
X123391413Y-84239187D01*
X123393375Y-84238797D01*
X123394293Y-84239441D01*
G37*
G36*
X121008181Y-84092004D02*
G01*
X121008349Y-84093279D01*
X121002000Y-84125199D01*
X121002000Y-84574801D01*
X121008349Y-84606721D01*
X121007706Y-84608615D01*
X121005744Y-84609005D01*
X121004724Y-84608222D01*
X121002417Y-84604770D01*
X120954370Y-84562633D01*
X120891960Y-84550219D01*
X120831638Y-84570695D01*
X120797621Y-84604712D01*
X120795276Y-84608222D01*
X120793482Y-84609107D01*
X120791819Y-84607996D01*
X120791651Y-84606721D01*
X120798000Y-84574801D01*
X120798000Y-84125199D01*
X120791651Y-84093279D01*
X120792294Y-84091385D01*
X120794256Y-84090995D01*
X120795276Y-84091778D01*
X120797583Y-84095230D01*
X120845630Y-84137367D01*
X120908040Y-84149781D01*
X120968362Y-84129305D01*
X121002379Y-84095288D01*
X121004724Y-84091778D01*
X121006518Y-84090893D01*
X121008181Y-84092004D01*
G37*
G36*
X122710797Y-83897055D02*
G01*
X122773565Y-83938995D01*
X122867699Y-83957720D01*
X123162301Y-83957720D01*
X123256435Y-83938995D01*
X123310181Y-83903083D01*
X123312177Y-83902952D01*
X123313288Y-83904615D01*
X123312647Y-83906217D01*
X123285916Y-83930825D01*
X123251704Y-83984800D01*
X123249075Y-84048377D01*
X123278636Y-84104846D01*
X123310629Y-84129747D01*
X123314407Y-84131792D01*
X123314926Y-84132196D01*
X123321785Y-84139647D01*
X123322223Y-84141599D01*
X123320751Y-84142954D01*
X123319203Y-84142665D01*
X123256435Y-84100725D01*
X123162301Y-84082000D01*
X122867699Y-84082000D01*
X122773565Y-84100725D01*
X122719819Y-84136636D01*
X122717823Y-84136767D01*
X122716712Y-84135104D01*
X122717353Y-84133502D01*
X122744084Y-84108895D01*
X122778296Y-84054920D01*
X122780925Y-83991343D01*
X122751364Y-83934874D01*
X122719371Y-83909973D01*
X122715593Y-83907928D01*
X122715074Y-83907524D01*
X122708215Y-83900073D01*
X122707777Y-83898121D01*
X122709249Y-83896766D01*
X122710797Y-83897055D01*
G37*
G36*
X123680797Y-83897055D02*
G01*
X123743565Y-83938995D01*
X123837699Y-83957720D01*
X124132301Y-83957720D01*
X124226435Y-83938995D01*
X124280181Y-83903084D01*
X124282177Y-83902953D01*
X124283288Y-83904616D01*
X124282647Y-83906218D01*
X124255916Y-83930825D01*
X124221704Y-83984800D01*
X124219075Y-84048377D01*
X124248636Y-84104846D01*
X124280629Y-84129747D01*
X124284407Y-84131792D01*
X124284926Y-84132196D01*
X124291785Y-84139647D01*
X124292223Y-84141599D01*
X124290751Y-84142954D01*
X124289203Y-84142665D01*
X124226435Y-84100725D01*
X124132301Y-84082000D01*
X123837699Y-84082000D01*
X123743565Y-84100725D01*
X123689819Y-84136637D01*
X123687823Y-84136768D01*
X123686712Y-84135105D01*
X123687353Y-84133503D01*
X123714084Y-84108895D01*
X123748296Y-84054920D01*
X123750925Y-83991343D01*
X123721364Y-83934874D01*
X123689371Y-83909973D01*
X123685593Y-83907928D01*
X123685074Y-83907524D01*
X123678215Y-83900073D01*
X123677777Y-83898121D01*
X123679249Y-83896766D01*
X123680797Y-83897055D01*
G37*
G36*
X121583615Y-83817294D02*
G01*
X121584005Y-83819256D01*
X121583222Y-83820276D01*
X121579770Y-83822583D01*
X121537633Y-83870630D01*
X121525219Y-83933040D01*
X121545695Y-83993362D01*
X121579712Y-84027379D01*
X121583222Y-84029724D01*
X121584107Y-84031518D01*
X121582996Y-84033181D01*
X121581721Y-84033349D01*
X121549801Y-84027000D01*
X121100199Y-84027000D01*
X121068279Y-84033349D01*
X121066385Y-84032706D01*
X121065995Y-84030744D01*
X121066778Y-84029724D01*
X121070230Y-84027417D01*
X121112367Y-83979370D01*
X121124781Y-83916960D01*
X121104305Y-83856638D01*
X121070288Y-83822621D01*
X121066778Y-83820276D01*
X121065893Y-83818482D01*
X121067004Y-83816819D01*
X121068279Y-83816651D01*
X121100199Y-83823000D01*
X121549801Y-83823000D01*
X121581721Y-83816651D01*
X121583615Y-83817294D01*
G37*
G36*
X120733615Y-83817294D02*
G01*
X120734005Y-83819256D01*
X120733222Y-83820276D01*
X120729770Y-83822583D01*
X120687633Y-83870630D01*
X120675219Y-83933040D01*
X120695695Y-83993362D01*
X120729712Y-84027379D01*
X120733222Y-84029724D01*
X120734107Y-84031518D01*
X120732996Y-84033181D01*
X120731721Y-84033349D01*
X120699801Y-84027000D01*
X120250199Y-84027000D01*
X120218279Y-84033349D01*
X120216385Y-84032706D01*
X120215995Y-84030744D01*
X120216778Y-84029724D01*
X120220230Y-84027417D01*
X120262367Y-83979370D01*
X120274781Y-83916960D01*
X120254305Y-83856638D01*
X120220288Y-83822621D01*
X120216778Y-83820276D01*
X120215893Y-83818482D01*
X120217004Y-83816819D01*
X120218279Y-83816651D01*
X120250199Y-83823000D01*
X120699801Y-83823000D01*
X120731721Y-83816651D01*
X120733615Y-83817294D01*
G37*
G36*
X123394293Y-83279161D02*
G01*
X123426451Y-83319323D01*
X123485731Y-83342453D01*
X123548561Y-83332857D01*
X123605640Y-83280312D01*
X123607592Y-83279874D01*
X123608957Y-83282173D01*
X123592000Y-83367419D01*
X123592000Y-83712021D01*
X123609230Y-83798639D01*
X123608587Y-83800533D01*
X123606625Y-83800923D01*
X123605707Y-83800279D01*
X123573549Y-83760117D01*
X123514269Y-83736987D01*
X123451439Y-83746583D01*
X123394360Y-83799128D01*
X123392408Y-83799566D01*
X123391043Y-83797267D01*
X123408000Y-83712021D01*
X123408000Y-83367419D01*
X123390770Y-83280801D01*
X123391413Y-83278907D01*
X123393375Y-83278517D01*
X123394293Y-83279161D01*
G37*
G36*
X121008181Y-83242004D02*
G01*
X121008349Y-83243279D01*
X121002000Y-83275199D01*
X121002000Y-83724801D01*
X121008349Y-83756721D01*
X121007706Y-83758615D01*
X121005744Y-83759005D01*
X121004724Y-83758222D01*
X121002417Y-83754770D01*
X120954370Y-83712633D01*
X120891960Y-83700219D01*
X120831638Y-83720695D01*
X120797621Y-83754712D01*
X120795276Y-83758222D01*
X120793482Y-83759107D01*
X120791819Y-83757996D01*
X120791651Y-83756721D01*
X120798000Y-83724801D01*
X120798000Y-83275199D01*
X120791651Y-83243279D01*
X120792294Y-83241385D01*
X120794256Y-83240995D01*
X120795276Y-83241778D01*
X120797583Y-83245230D01*
X120845630Y-83287367D01*
X120908040Y-83299781D01*
X120968362Y-83279305D01*
X121002379Y-83245288D01*
X121004724Y-83241778D01*
X121006518Y-83240893D01*
X121008181Y-83242004D01*
G37*
G36*
X123300399Y-82916180D02*
G01*
X123300722Y-82918154D01*
X123299696Y-82919260D01*
X123247060Y-82943805D01*
X123210562Y-82995929D01*
X123205017Y-83059318D01*
X123231943Y-83117061D01*
X123255722Y-83136462D01*
X123256432Y-83138332D01*
X123255168Y-83139882D01*
X123254068Y-83139974D01*
X123162301Y-83121720D01*
X122867699Y-83121720D01*
X122773565Y-83140445D01*
X122693933Y-83193653D01*
X122662991Y-83239962D01*
X122661197Y-83240847D01*
X122659534Y-83239736D01*
X122659569Y-83237899D01*
X122671791Y-83215313D01*
X122672196Y-83214793D01*
X122673553Y-83213544D01*
X122707765Y-83159569D01*
X122710395Y-83095992D01*
X122680882Y-83039615D01*
X122627030Y-83005481D01*
X122592877Y-82999898D01*
X122583422Y-82999700D01*
X122581711Y-82998664D01*
X122581753Y-82996664D01*
X122583338Y-82995704D01*
X122949116Y-82972691D01*
X123298528Y-82915473D01*
X123300399Y-82916180D01*
G37*
G36*
X130202152Y-78670141D02*
G01*
X130202738Y-78671579D01*
X130201182Y-78798921D01*
X130238770Y-78933545D01*
X130312633Y-79052211D01*
X130373878Y-79106971D01*
X130374503Y-79108871D01*
X130373170Y-79110362D01*
X130371270Y-79110003D01*
X130318311Y-79066192D01*
X130260207Y-79039590D01*
X130196857Y-79045580D01*
X130145062Y-79082389D01*
X130116708Y-79160717D01*
X130116582Y-79196590D01*
X130116532Y-79197026D01*
X130115089Y-79203375D01*
X130113730Y-79204843D01*
X130111780Y-79204399D01*
X130111139Y-79202911D01*
X130112927Y-79032134D01*
X130072927Y-78869280D01*
X129995228Y-78720658D01*
X129993601Y-78718812D01*
X129993205Y-78716851D01*
X129994706Y-78715528D01*
X129996327Y-78715909D01*
X130035276Y-78746121D01*
X130098317Y-78754756D01*
X130157235Y-78730713D01*
X130196316Y-78680330D01*
X130198806Y-78671037D01*
X130200220Y-78669623D01*
X130202152Y-78670141D01*
G37*
G36*
X130115873Y-77005304D02*
G01*
X130116808Y-77006595D01*
X130117081Y-77007835D01*
X130117128Y-77008272D01*
X130117023Y-77038248D01*
X130133347Y-77100036D01*
X130178183Y-77145187D01*
X130239501Y-77161846D01*
X130318692Y-77133492D01*
X130379773Y-77082963D01*
X130381745Y-77082629D01*
X130383020Y-77084170D01*
X130382344Y-77086027D01*
X130320497Y-77138663D01*
X130243756Y-77255488D01*
X130202889Y-77389157D01*
X130201182Y-77528922D01*
X130204200Y-77539731D01*
X130203703Y-77541668D01*
X130201777Y-77542206D01*
X130200422Y-77541025D01*
X130180850Y-77493064D01*
X130130570Y-77454064D01*
X130067529Y-77445429D01*
X130008484Y-77469525D01*
X129996993Y-77480937D01*
X129995060Y-77481448D01*
X129993650Y-77480029D01*
X129993831Y-77478555D01*
X130067615Y-77344340D01*
X130111020Y-77182357D01*
X130112855Y-77007004D01*
X130113873Y-77005283D01*
X130115873Y-77005304D01*
G37*
M02*
