G04 #@! TF.GenerationSoftware,KiCad,Pcbnew,5.99.0-unknown-dd374e12a~102~ubuntu20.04.1*
G04 #@! TF.CreationDate,2020-12-04T17:09:39-08:00*
G04 #@! TF.ProjectId,BLDC,424c4443-2e6b-4696-9361-645f70636258,rev?*
G04 #@! TF.SameCoordinates,Original*
G04 #@! TF.FileFunction,Copper,L3,Inr*
G04 #@! TF.FilePolarity,Positive*
%FSLAX46Y46*%
G04 Gerber Fmt 4.6, Leading zero omitted, Abs format (unit mm)*
G04 Created by KiCad (PCBNEW 5.99.0-unknown-dd374e12a~102~ubuntu20.04.1) date 2020-12-04 17:09:39*
%MOMM*%
%LPD*%
G01*
G04 APERTURE LIST*
G04 #@! TA.AperFunction,ComponentPad*
%ADD10C,5.500000*%
G04 #@! TD*
G04 #@! TA.AperFunction,ComponentPad*
%ADD11C,3.000000*%
G04 #@! TD*
G04 #@! TA.AperFunction,ComponentPad*
%ADD12C,1.200000*%
G04 #@! TD*
G04 #@! TA.AperFunction,ComponentPad*
%ADD13O,1.700000X1.700000*%
G04 #@! TD*
G04 #@! TA.AperFunction,ComponentPad*
%ADD14C,1.700000*%
G04 #@! TD*
G04 #@! TA.AperFunction,ComponentPad*
%ADD15C,0.800000*%
G04 #@! TD*
G04 #@! TA.AperFunction,ViaPad*
%ADD16C,0.740000*%
G04 #@! TD*
G04 #@! TA.AperFunction,ViaPad*
%ADD17C,0.736700*%
G04 #@! TD*
G04 APERTURE END LIST*
D10*
X122500000Y-131000000D03*
X174500000Y-131000000D03*
X122500000Y-79000000D03*
X174500000Y-79000000D03*
D11*
X155380000Y-130290000D03*
X139080000Y-130290000D03*
X173790000Y-106620000D03*
X173790000Y-122920000D03*
D12*
X134500000Y-78100000D03*
X129420000Y-77084000D03*
X129420000Y-79116000D03*
D13*
X156280000Y-76860000D03*
X156280000Y-79400000D03*
X153740000Y-76860000D03*
X153740000Y-79400000D03*
X151200000Y-76860000D03*
X151200000Y-79400000D03*
X148660000Y-76860000D03*
X148660000Y-79400000D03*
X146120000Y-76860000D03*
X146120000Y-79400000D03*
X143580000Y-76860000D03*
X143580000Y-79400000D03*
X141040000Y-76860000D03*
X141040000Y-79400000D03*
X138500000Y-76860000D03*
D14*
X138500000Y-79400000D03*
D15*
X122630000Y-88130000D03*
X121530000Y-88130000D03*
D16*
X166400000Y-95410000D03*
X163560000Y-94560000D03*
X124900000Y-124500000D03*
X124900000Y-123400000D03*
X124600000Y-117300000D03*
X124600000Y-116200000D03*
X124700000Y-110100000D03*
X124700000Y-109100000D03*
X125400000Y-117300000D03*
X125900000Y-124500000D03*
X156300000Y-88500000D03*
X162400000Y-90300000D03*
X162400000Y-87500000D03*
X166200000Y-98300000D03*
X159500000Y-86700000D03*
X160600000Y-86800000D03*
D17*
X157000000Y-92700000D03*
D16*
X146500000Y-90100000D03*
X140300000Y-91200000D03*
D17*
X164300000Y-100800000D03*
X166900000Y-104600000D03*
X152300000Y-93300000D03*
D16*
X173200000Y-100600000D03*
X172400000Y-90900000D03*
X171300000Y-92900000D03*
X172400000Y-97800000D03*
X170500000Y-94800000D03*
X171600000Y-99000000D03*
X171600000Y-100600000D03*
X164400000Y-86600000D03*
D17*
X134900000Y-105900000D03*
D16*
X176500000Y-96800000D03*
X146500000Y-114700000D03*
X125500000Y-110100000D03*
X125500000Y-109100000D03*
X130800000Y-111600000D03*
D17*
X134500000Y-111800000D03*
X134600000Y-112700000D03*
X138000000Y-117800000D03*
X132400000Y-107200000D03*
X132400000Y-109100000D03*
X132500000Y-121500000D03*
X132500000Y-120000000D03*
D16*
X137100000Y-123200000D03*
D17*
X135900000Y-123200000D03*
D16*
X134600000Y-117100000D03*
X130800000Y-118100000D03*
X127700000Y-113400000D03*
X120900000Y-120335000D03*
X120900000Y-119317187D03*
X120900000Y-113017803D03*
X120900000Y-112100000D03*
X120800000Y-105000000D03*
X120800000Y-106000000D03*
X125900000Y-123400000D03*
X125400000Y-116200000D03*
X132000000Y-80000000D03*
X148500000Y-93600000D03*
X142200000Y-86400000D03*
X141100000Y-89100000D03*
D17*
X164800000Y-92200000D03*
X164800000Y-91000000D03*
X164800000Y-89800000D03*
D16*
X143000000Y-94700000D03*
X142800000Y-93700000D03*
X145100000Y-89600000D03*
X140000000Y-96200000D03*
X125000000Y-85500000D03*
X125000000Y-84500000D03*
X125000000Y-83500000D03*
X119500000Y-83500000D03*
X140300000Y-88400000D03*
X136700000Y-93700000D03*
D17*
X119500000Y-85700000D03*
X139900000Y-83100000D03*
X135000000Y-88900000D03*
X135000000Y-87900000D03*
D16*
X133200000Y-76300000D03*
X132000000Y-76300000D03*
D17*
X145500000Y-97600000D03*
X144000000Y-97900000D03*
X146200000Y-100100000D03*
X138800000Y-102600000D03*
X135800000Y-102600000D03*
X132800000Y-102600000D03*
X161800000Y-104500000D03*
X166300000Y-116700000D03*
X142250000Y-106800000D03*
X145050000Y-106800000D03*
X145600000Y-108150000D03*
X138900000Y-105400000D03*
X136200000Y-104200000D03*
X138900000Y-104200000D03*
X138900000Y-106600000D03*
X160800000Y-132100000D03*
X164500000Y-132100000D03*
X161800000Y-109200000D03*
X161800000Y-107000000D03*
X146800000Y-106100000D03*
X146800000Y-104400000D03*
X150200000Y-106100000D03*
X150200000Y-104400000D03*
X152300000Y-96300000D03*
X148500000Y-104400000D03*
X168900000Y-116700000D03*
X140000000Y-114000000D03*
X133700000Y-133900000D03*
X133700000Y-132200000D03*
X142250000Y-105800000D03*
X170200000Y-118800000D03*
X166300000Y-118800000D03*
X167600000Y-116700000D03*
X168900000Y-118800000D03*
X170200000Y-116700000D03*
X167600000Y-118800000D03*
X134500000Y-109750000D03*
X145300000Y-126800000D03*
X144200000Y-126800000D03*
X143100000Y-126800000D03*
X133800000Y-115050000D03*
X140000000Y-118000000D03*
X142000000Y-118000000D03*
X140000000Y-112000000D03*
X140000000Y-116000000D03*
X142000000Y-114000000D03*
X142000000Y-116000000D03*
X142000000Y-112000000D03*
X143100000Y-123100000D03*
X143100000Y-125500000D03*
X145300000Y-122900000D03*
X145300000Y-125500000D03*
X166300000Y-117800000D03*
X134300000Y-119200000D03*
X131800000Y-114600000D03*
X152300000Y-95300000D03*
X149115000Y-82800000D03*
X150115000Y-82800000D03*
X140500000Y-99800000D03*
X141500000Y-99800000D03*
X138000000Y-112000000D03*
X131700000Y-113200000D03*
X130300000Y-133900000D03*
X130300000Y-132200000D03*
X170200000Y-117800000D03*
X143100000Y-124100000D03*
X145300000Y-124100000D03*
X144800000Y-121800000D03*
X165000000Y-112500000D03*
X165500000Y-113500000D03*
X163500000Y-110000000D03*
X124400000Y-88500000D03*
X124300000Y-92700000D03*
X120600000Y-96800000D03*
X125900000Y-94100000D03*
X127700000Y-94100000D03*
X127700000Y-95400000D03*
X127800000Y-96900000D03*
X125900000Y-96900000D03*
X125000000Y-98300000D03*
X124300000Y-91200000D03*
X125700000Y-91200000D03*
X127100000Y-91200000D03*
X124200000Y-94100000D03*
X150700000Y-122200000D03*
X165600000Y-115100000D03*
X141600000Y-102600000D03*
X148500000Y-97500000D03*
X147100000Y-109500000D03*
X145800000Y-109500000D03*
X149900000Y-109600000D03*
X150400000Y-97200000D03*
X152800000Y-92100000D03*
X151900000Y-91500000D03*
X129100000Y-103200000D03*
X130700000Y-103200000D03*
X120400000Y-90400000D03*
X153300000Y-95200000D03*
X155600000Y-91200000D03*
D16*
X150700000Y-120800000D03*
D17*
X159900000Y-104500000D03*
X146800000Y-82300000D03*
X143300000Y-98700000D03*
D16*
X142400000Y-97800000D03*
D17*
X148900000Y-123000000D03*
X160800000Y-133900000D03*
X164500000Y-133900000D03*
D16*
X143100000Y-88600000D03*
X133300000Y-80000000D03*
X130800000Y-76300000D03*
D17*
X168900000Y-107200000D03*
X169500000Y-106300000D03*
X170000000Y-107200000D03*
X141500000Y-81300000D03*
D16*
X159000000Y-100800000D03*
X167800000Y-107200000D03*
X147900000Y-100100000D03*
X152100000Y-120800000D03*
X152500000Y-83400000D03*
X152300000Y-86300000D03*
X166599999Y-84699999D03*
X166100000Y-85700000D03*
D17*
X166800000Y-89800000D03*
X166800000Y-91000000D03*
X166800000Y-92200000D03*
X168800000Y-89800000D03*
X168800000Y-91000000D03*
X168800000Y-92200000D03*
D16*
X159800000Y-84900000D03*
X159800000Y-83900000D03*
G04 #@! TA.AperFunction,Conductor*
G36*
X172720064Y-75318744D02*
G01*
X172738809Y-75363999D01*
X172700841Y-75422465D01*
X172691141Y-75426784D01*
X172691115Y-75426797D01*
X172345202Y-75624102D01*
X172345177Y-75624118D01*
X172020549Y-75854818D01*
X172020539Y-75854825D01*
X171720430Y-76116628D01*
X171720415Y-76116643D01*
X171447796Y-76406953D01*
X171205343Y-76722922D01*
X170995479Y-77061399D01*
X170995475Y-77061405D01*
X170820260Y-77419064D01*
X170681437Y-77792347D01*
X170580374Y-78177577D01*
X170518072Y-78570937D01*
X170518071Y-78570938D01*
X170495146Y-78968544D01*
X170511823Y-79366461D01*
X170567940Y-79760755D01*
X170662938Y-80147518D01*
X170662940Y-80147527D01*
X170795882Y-80522945D01*
X170965460Y-80883315D01*
X171169968Y-81225026D01*
X171169985Y-81225050D01*
X171407432Y-81544773D01*
X171407438Y-81544780D01*
X171675482Y-81839357D01*
X171971430Y-82105829D01*
X171971459Y-82105853D01*
X172292418Y-82341621D01*
X172635225Y-82544357D01*
X172996462Y-82712037D01*
X172996470Y-82712040D01*
X173372579Y-82843016D01*
X173759850Y-82935991D01*
X174154428Y-82990041D01*
X174154432Y-82990042D01*
X174552428Y-83004635D01*
X174949902Y-82979628D01*
X175342944Y-82915264D01*
X175727618Y-82812190D01*
X175727646Y-82812181D01*
X176100169Y-82671417D01*
X176100171Y-82671417D01*
X176456915Y-82494328D01*
X176456917Y-82494327D01*
X176794301Y-82282686D01*
X177108990Y-82038588D01*
X177397871Y-81764451D01*
X177397881Y-81764440D01*
X177658114Y-81462958D01*
X177658116Y-81462956D01*
X177887119Y-81137117D01*
X178080243Y-80794379D01*
X178118790Y-80764155D01*
X178167419Y-80770039D01*
X178200001Y-80825797D01*
X178200000Y-129179546D01*
X178181255Y-129224801D01*
X178136000Y-129243546D01*
X178079756Y-129210084D01*
X177920277Y-128916359D01*
X177920267Y-128916344D01*
X177696417Y-128586959D01*
X177696416Y-128586959D01*
X177440940Y-128281413D01*
X177440934Y-128281407D01*
X177156404Y-128002774D01*
X176845571Y-127753750D01*
X176511564Y-127536843D01*
X176157662Y-127354179D01*
X175787357Y-127207566D01*
X175404335Y-127098458D01*
X175012350Y-127027930D01*
X174615323Y-126996683D01*
X174217137Y-127005023D01*
X173821765Y-127052869D01*
X173433078Y-127139751D01*
X173054965Y-127264800D01*
X173054959Y-127264802D01*
X172691132Y-127426789D01*
X172691115Y-127426797D01*
X172345202Y-127624102D01*
X172345177Y-127624118D01*
X172020549Y-127854818D01*
X172020539Y-127854825D01*
X171720430Y-128116628D01*
X171720415Y-128116643D01*
X171447796Y-128406953D01*
X171205343Y-128722922D01*
X170995479Y-129061399D01*
X170995475Y-129061405D01*
X170820260Y-129419064D01*
X170681437Y-129792347D01*
X170580374Y-130177577D01*
X170518072Y-130570937D01*
X170518071Y-130570938D01*
X170495146Y-130968544D01*
X170511823Y-131366461D01*
X170567940Y-131760755D01*
X170662938Y-132147518D01*
X170662940Y-132147527D01*
X170795882Y-132522945D01*
X170965460Y-132883315D01*
X171169968Y-133225026D01*
X171169985Y-133225050D01*
X171407432Y-133544773D01*
X171407438Y-133544780D01*
X171675482Y-133839357D01*
X171971430Y-134105829D01*
X171971459Y-134105853D01*
X172292418Y-134341621D01*
X172635225Y-134544357D01*
X172707594Y-134577949D01*
X172740750Y-134614006D01*
X172738699Y-134662946D01*
X172680648Y-134700000D01*
X124315457Y-134700000D01*
X124270202Y-134681255D01*
X124251457Y-134636000D01*
X124287000Y-134578674D01*
X124456915Y-134494328D01*
X124456917Y-134494327D01*
X124794301Y-134282686D01*
X125108990Y-134038588D01*
X125397871Y-133764451D01*
X125397881Y-133764440D01*
X125658114Y-133462958D01*
X125658116Y-133462956D01*
X125887119Y-133137117D01*
X126082632Y-132790139D01*
X126242714Y-132425462D01*
X126365785Y-132046689D01*
X126450627Y-131657562D01*
X126496404Y-131261930D01*
X126500024Y-130800877D01*
X126460468Y-130404569D01*
X126460465Y-130404551D01*
X126454830Y-130376601D01*
X137277032Y-130376601D01*
X137309635Y-130642144D01*
X137309636Y-130642149D01*
X137381130Y-130899948D01*
X137381133Y-130899958D01*
X137489948Y-131144358D01*
X137489953Y-131144368D01*
X137633697Y-131370001D01*
X137633702Y-131370008D01*
X137809219Y-131571916D01*
X137809221Y-131571918D01*
X138012662Y-131745673D01*
X138239547Y-131887445D01*
X138484897Y-131994127D01*
X138743310Y-132063368D01*
X139009141Y-132093655D01*
X139276506Y-132084318D01*
X139276519Y-132084317D01*
X139539563Y-132035565D01*
X139792524Y-131948464D01*
X140029845Y-131824923D01*
X140029847Y-131824922D01*
X140246278Y-131667675D01*
X140246281Y-131667672D01*
X140437100Y-131480156D01*
X140437111Y-131480144D01*
X140598111Y-131266489D01*
X140598118Y-131266479D01*
X140725773Y-131031366D01*
X140817276Y-130779968D01*
X140817279Y-130779958D01*
X140870616Y-130517795D01*
X140870616Y-130517792D01*
X140874312Y-130376601D01*
X153577032Y-130376601D01*
X153609635Y-130642144D01*
X153609636Y-130642149D01*
X153681130Y-130899948D01*
X153681133Y-130899958D01*
X153789948Y-131144358D01*
X153789953Y-131144368D01*
X153933697Y-131370001D01*
X153933702Y-131370008D01*
X154109219Y-131571916D01*
X154109221Y-131571918D01*
X154312662Y-131745673D01*
X154539547Y-131887445D01*
X154784897Y-131994127D01*
X155043310Y-132063368D01*
X155309141Y-132093655D01*
X155576506Y-132084318D01*
X155576519Y-132084317D01*
X155839563Y-132035565D01*
X156092524Y-131948464D01*
X156329845Y-131824923D01*
X156329847Y-131824922D01*
X156546278Y-131667675D01*
X156546281Y-131667672D01*
X156737100Y-131480156D01*
X156737111Y-131480144D01*
X156898111Y-131266489D01*
X156898118Y-131266479D01*
X157025773Y-131031366D01*
X157117276Y-130779968D01*
X157117279Y-130779958D01*
X157170616Y-130517795D01*
X157170616Y-130517792D01*
X157180083Y-130156234D01*
X157180082Y-130156228D01*
X157140539Y-129891630D01*
X157140537Y-129891623D01*
X157062318Y-129635782D01*
X157062318Y-129635781D01*
X156947141Y-129394307D01*
X156947137Y-129394301D01*
X156797540Y-129172514D01*
X156797531Y-129172503D01*
X156616783Y-128975251D01*
X156408881Y-128806896D01*
X156408862Y-128806883D01*
X156178358Y-128671106D01*
X155930294Y-128570882D01*
X155670138Y-128508423D01*
X155403627Y-128485108D01*
X155136591Y-128501440D01*
X155136579Y-128501441D01*
X154874907Y-128557062D01*
X154874887Y-128557068D01*
X154624302Y-128650758D01*
X154624298Y-128650760D01*
X154390305Y-128780465D01*
X154178053Y-128943331D01*
X153992204Y-129135784D01*
X153836848Y-129353584D01*
X153836840Y-129353597D01*
X153715388Y-129591959D01*
X153715386Y-129591964D01*
X153630494Y-129845681D01*
X153584035Y-130109159D01*
X153584035Y-130109161D01*
X153577032Y-130376601D01*
X140874312Y-130376601D01*
X140880083Y-130156234D01*
X140880082Y-130156228D01*
X140840539Y-129891630D01*
X140840537Y-129891623D01*
X140762318Y-129635782D01*
X140762318Y-129635781D01*
X140647141Y-129394307D01*
X140647137Y-129394301D01*
X140497540Y-129172514D01*
X140497531Y-129172503D01*
X140316783Y-128975251D01*
X140108881Y-128806896D01*
X140108862Y-128806883D01*
X139878358Y-128671106D01*
X139630294Y-128570882D01*
X139370138Y-128508423D01*
X139103627Y-128485108D01*
X138836591Y-128501440D01*
X138836579Y-128501441D01*
X138574907Y-128557062D01*
X138574887Y-128557068D01*
X138324302Y-128650758D01*
X138324298Y-128650760D01*
X138090305Y-128780465D01*
X137878053Y-128943331D01*
X137692204Y-129135784D01*
X137536848Y-129353584D01*
X137536840Y-129353597D01*
X137415388Y-129591959D01*
X137415386Y-129591964D01*
X137330494Y-129845681D01*
X137284035Y-130109159D01*
X137284035Y-130109161D01*
X137277032Y-130376601D01*
X126454830Y-130376601D01*
X126381753Y-130014181D01*
X126381748Y-130014160D01*
X126264643Y-129633506D01*
X126264640Y-129633498D01*
X126110307Y-129266352D01*
X125920277Y-128916359D01*
X125920267Y-128916344D01*
X125696417Y-128586959D01*
X125696416Y-128586959D01*
X125440940Y-128281413D01*
X125440934Y-128281407D01*
X125156404Y-128002774D01*
X124845571Y-127753750D01*
X124511564Y-127536843D01*
X124157662Y-127354179D01*
X123787357Y-127207566D01*
X123404335Y-127098458D01*
X123012350Y-127027930D01*
X122615323Y-126996683D01*
X122217137Y-127005023D01*
X121821765Y-127052869D01*
X121433078Y-127139751D01*
X121054965Y-127264800D01*
X121054959Y-127264802D01*
X120691132Y-127426789D01*
X120691115Y-127426797D01*
X120345202Y-127624102D01*
X120345177Y-127624118D01*
X120020549Y-127854818D01*
X120020539Y-127854825D01*
X119720430Y-128116628D01*
X119720415Y-128116643D01*
X119447796Y-128406953D01*
X119205343Y-128722922D01*
X118995479Y-129061399D01*
X118995475Y-129061405D01*
X118921474Y-129212460D01*
X118884731Y-129244853D01*
X118835844Y-129241778D01*
X118800000Y-129184304D01*
X118800000Y-123394679D01*
X124222454Y-123394679D01*
X124250842Y-123594143D01*
X124336624Y-123776435D01*
X124456103Y-123907742D01*
X124472696Y-123953830D01*
X124455421Y-123994626D01*
X124342606Y-124114761D01*
X124253971Y-124295689D01*
X124253970Y-124295693D01*
X124222454Y-124494679D01*
X124250842Y-124694143D01*
X124336622Y-124876433D01*
X124472217Y-125025450D01*
X124645628Y-125128006D01*
X124645632Y-125128007D01*
X124841537Y-125175040D01*
X125042610Y-125162388D01*
X125042618Y-125162387D01*
X125231073Y-125091176D01*
X125231073Y-125091175D01*
X125360752Y-124990586D01*
X125407999Y-124977661D01*
X125447315Y-124998084D01*
X125472214Y-125025448D01*
X125472217Y-125025450D01*
X125645628Y-125128006D01*
X125645632Y-125128007D01*
X125841537Y-125175040D01*
X126042610Y-125162388D01*
X126042618Y-125162387D01*
X126231073Y-125091176D01*
X126231073Y-125091175D01*
X126390266Y-124967692D01*
X126506114Y-124802857D01*
X126568371Y-124611249D01*
X126568372Y-124611247D01*
X126570037Y-124399267D01*
X126570037Y-124399264D01*
X126510795Y-124206699D01*
X126397555Y-124040069D01*
X126397553Y-124040068D01*
X126348009Y-124000376D01*
X126324411Y-123957452D01*
X126348798Y-123899858D01*
X126390266Y-123867692D01*
X126506114Y-123702857D01*
X126568371Y-123511249D01*
X126568372Y-123511247D01*
X126570037Y-123299267D01*
X126570037Y-123299264D01*
X126537866Y-123194692D01*
X135224122Y-123194692D01*
X135252440Y-123393665D01*
X135338010Y-123575508D01*
X135473267Y-123724155D01*
X135473270Y-123724157D01*
X135646252Y-123826458D01*
X135646258Y-123826461D01*
X135841681Y-123873378D01*
X136042261Y-123860758D01*
X136042260Y-123860758D01*
X136230257Y-123789720D01*
X136230258Y-123789719D01*
X136389059Y-123666541D01*
X136504622Y-123502111D01*
X136566726Y-123310975D01*
X136566727Y-123310974D01*
X136568387Y-123099515D01*
X136568387Y-123099512D01*
X136536141Y-122994692D01*
X148224122Y-122994692D01*
X148252440Y-123193665D01*
X148338010Y-123375508D01*
X148473267Y-123524155D01*
X148473270Y-123524157D01*
X148646252Y-123626458D01*
X148646258Y-123626461D01*
X148841681Y-123673378D01*
X149042261Y-123660758D01*
X149042260Y-123660758D01*
X149230257Y-123589720D01*
X149230258Y-123589719D01*
X149389059Y-123466541D01*
X149504622Y-123302111D01*
X149566726Y-123110975D01*
X149566727Y-123110974D01*
X149567546Y-123006601D01*
X171987032Y-123006601D01*
X172019635Y-123272144D01*
X172019636Y-123272149D01*
X172091130Y-123529948D01*
X172091133Y-123529958D01*
X172199948Y-123774358D01*
X172199953Y-123774368D01*
X172343697Y-124000001D01*
X172343702Y-124000008D01*
X172519219Y-124201916D01*
X172519221Y-124201918D01*
X172722662Y-124375673D01*
X172949547Y-124517445D01*
X173194897Y-124624127D01*
X173453310Y-124693368D01*
X173719141Y-124723655D01*
X173986506Y-124714318D01*
X173986519Y-124714317D01*
X174249563Y-124665565D01*
X174502524Y-124578464D01*
X174739845Y-124454923D01*
X174739847Y-124454922D01*
X174956278Y-124297675D01*
X174956281Y-124297672D01*
X175147100Y-124110156D01*
X175147111Y-124110144D01*
X175308111Y-123896489D01*
X175308118Y-123896479D01*
X175435773Y-123661366D01*
X175527276Y-123409968D01*
X175527279Y-123409958D01*
X175580616Y-123147795D01*
X175580616Y-123147792D01*
X175590083Y-122786234D01*
X175590082Y-122786228D01*
X175550539Y-122521630D01*
X175550537Y-122521623D01*
X175472318Y-122265782D01*
X175472318Y-122265781D01*
X175357141Y-122024307D01*
X175357137Y-122024301D01*
X175207540Y-121802514D01*
X175207531Y-121802503D01*
X175026783Y-121605251D01*
X174818881Y-121436896D01*
X174818862Y-121436883D01*
X174588358Y-121301106D01*
X174340294Y-121200882D01*
X174080138Y-121138423D01*
X173813627Y-121115108D01*
X173546591Y-121131440D01*
X173546579Y-121131441D01*
X173284907Y-121187062D01*
X173284887Y-121187068D01*
X173034302Y-121280758D01*
X173034298Y-121280760D01*
X172800305Y-121410465D01*
X172588053Y-121573331D01*
X172402204Y-121765784D01*
X172246848Y-121983584D01*
X172246840Y-121983597D01*
X172125388Y-122221959D01*
X172125386Y-122221964D01*
X172040494Y-122475681D01*
X171994035Y-122739159D01*
X171994035Y-122739161D01*
X171987032Y-123006601D01*
X149567546Y-123006601D01*
X149568387Y-122899515D01*
X149568387Y-122899512D01*
X149509292Y-122707421D01*
X149396330Y-122541201D01*
X149396327Y-122541199D01*
X149239482Y-122415541D01*
X149052621Y-122341558D01*
X148852265Y-122325789D01*
X148656126Y-122369631D01*
X148481558Y-122469204D01*
X148481555Y-122469206D01*
X148343979Y-122615708D01*
X148255561Y-122796192D01*
X148255560Y-122796197D01*
X148224122Y-122994692D01*
X136536141Y-122994692D01*
X136509292Y-122907421D01*
X136396330Y-122741201D01*
X136396327Y-122741199D01*
X136239482Y-122615541D01*
X136052621Y-122541558D01*
X135852265Y-122525789D01*
X135656126Y-122569631D01*
X135481558Y-122669204D01*
X135481555Y-122669206D01*
X135343979Y-122815708D01*
X135255561Y-122996192D01*
X135255560Y-122996197D01*
X135224122Y-123194692D01*
X126537866Y-123194692D01*
X126510795Y-123106699D01*
X126397555Y-122940069D01*
X126397552Y-122940067D01*
X126240320Y-122814099D01*
X126052997Y-122739933D01*
X125852147Y-122724125D01*
X125655523Y-122768076D01*
X125655521Y-122768077D01*
X125480527Y-122867892D01*
X125480522Y-122867896D01*
X125446723Y-122903888D01*
X125402079Y-122924045D01*
X125360053Y-122910024D01*
X125240320Y-122814099D01*
X125052997Y-122739933D01*
X124852147Y-122724125D01*
X124655523Y-122768076D01*
X124655521Y-122768077D01*
X124480527Y-122867892D01*
X124480522Y-122867896D01*
X124342606Y-123014761D01*
X124253971Y-123195689D01*
X124253970Y-123195693D01*
X124222454Y-123394679D01*
X118800000Y-123394679D01*
X118800000Y-121794692D01*
X144124122Y-121794692D01*
X144152440Y-121993665D01*
X144238010Y-122175508D01*
X144373267Y-122324155D01*
X144373270Y-122324157D01*
X144546252Y-122426458D01*
X144546258Y-122426461D01*
X144741681Y-122473378D01*
X144942261Y-122460758D01*
X144942260Y-122460758D01*
X145130257Y-122389720D01*
X145130258Y-122389719D01*
X145289059Y-122266541D01*
X145404622Y-122102111D01*
X145466726Y-121910975D01*
X145466727Y-121910974D01*
X145468387Y-121699515D01*
X145468387Y-121699512D01*
X145409292Y-121507421D01*
X145296330Y-121341201D01*
X145296327Y-121341199D01*
X145139482Y-121215541D01*
X144952621Y-121141558D01*
X144752265Y-121125789D01*
X144556126Y-121169631D01*
X144381558Y-121269204D01*
X144381555Y-121269206D01*
X144243979Y-121415708D01*
X144155561Y-121596192D01*
X144155560Y-121596197D01*
X144124122Y-121794692D01*
X118800000Y-121794692D01*
X118800000Y-120794679D01*
X150022454Y-120794679D01*
X150050842Y-120994143D01*
X150136622Y-121176433D01*
X150272217Y-121325450D01*
X150445628Y-121428006D01*
X150445630Y-121428007D01*
X150487688Y-121438104D01*
X150527316Y-121466896D01*
X150534979Y-121515277D01*
X150486708Y-121562795D01*
X150456126Y-121569631D01*
X150281558Y-121669204D01*
X150281555Y-121669206D01*
X150143979Y-121815708D01*
X150055561Y-121996192D01*
X150055560Y-121996197D01*
X150024122Y-122194692D01*
X150052440Y-122393665D01*
X150138010Y-122575508D01*
X150273267Y-122724155D01*
X150273270Y-122724157D01*
X150446252Y-122826458D01*
X150446258Y-122826461D01*
X150641681Y-122873378D01*
X150842261Y-122860758D01*
X150842260Y-122860758D01*
X151030257Y-122789720D01*
X151030258Y-122789719D01*
X151189059Y-122666541D01*
X151304622Y-122502111D01*
X151366726Y-122310975D01*
X151366727Y-122310974D01*
X151368387Y-122099515D01*
X151368387Y-122099512D01*
X151309292Y-121907421D01*
X151196330Y-121741201D01*
X151196327Y-121741199D01*
X151039482Y-121615541D01*
X150899234Y-121560013D01*
X150864058Y-121525924D01*
X150863288Y-121476947D01*
X150900172Y-121440639D01*
X151031072Y-121391176D01*
X151031073Y-121391175D01*
X151190266Y-121267692D01*
X151306114Y-121102857D01*
X151368371Y-120911249D01*
X151368372Y-120911247D01*
X151370037Y-120699267D01*
X151370037Y-120699264D01*
X151310795Y-120506699D01*
X151197555Y-120340069D01*
X151197552Y-120340067D01*
X151040320Y-120214099D01*
X150852997Y-120139933D01*
X150652147Y-120124125D01*
X150455523Y-120168076D01*
X150455521Y-120168077D01*
X150280527Y-120267892D01*
X150280522Y-120267896D01*
X150142606Y-120414761D01*
X150053971Y-120595689D01*
X150053970Y-120595693D01*
X150022454Y-120794679D01*
X118800000Y-120794679D01*
X118800000Y-119994692D01*
X131824122Y-119994692D01*
X131852440Y-120193665D01*
X131938010Y-120375508D01*
X132073267Y-120524155D01*
X132073270Y-120524157D01*
X132246252Y-120626458D01*
X132246258Y-120626461D01*
X132441681Y-120673378D01*
X132642261Y-120660758D01*
X132642260Y-120660758D01*
X132830257Y-120589720D01*
X132830258Y-120589719D01*
X132989059Y-120466541D01*
X133104622Y-120302111D01*
X133166726Y-120110975D01*
X133166727Y-120110974D01*
X133168387Y-119899515D01*
X133168387Y-119899512D01*
X133109292Y-119707421D01*
X132996330Y-119541201D01*
X132996327Y-119541199D01*
X132839482Y-119415541D01*
X132652621Y-119341558D01*
X132452265Y-119325789D01*
X132256126Y-119369631D01*
X132081558Y-119469204D01*
X132081555Y-119469206D01*
X131943979Y-119615708D01*
X131855561Y-119796192D01*
X131855560Y-119796197D01*
X131824122Y-119994692D01*
X118800000Y-119994692D01*
X118800000Y-119311866D01*
X120222454Y-119311866D01*
X120250842Y-119511330D01*
X120336622Y-119693620D01*
X120472217Y-119842637D01*
X120645628Y-119945193D01*
X120645632Y-119945194D01*
X120841537Y-119992227D01*
X121042610Y-119979575D01*
X121042618Y-119979574D01*
X121231073Y-119908363D01*
X121231073Y-119908362D01*
X121390266Y-119784879D01*
X121506114Y-119620044D01*
X121568371Y-119428436D01*
X121568372Y-119428434D01*
X121570037Y-119216454D01*
X121570037Y-119216451D01*
X121563343Y-119194692D01*
X133624122Y-119194692D01*
X133652440Y-119393665D01*
X133738010Y-119575508D01*
X133873267Y-119724155D01*
X133873270Y-119724157D01*
X134046252Y-119826458D01*
X134046258Y-119826461D01*
X134241681Y-119873378D01*
X134442261Y-119860758D01*
X134442260Y-119860758D01*
X134630257Y-119789720D01*
X134630258Y-119789719D01*
X134789059Y-119666541D01*
X134904622Y-119502111D01*
X134966726Y-119310975D01*
X134966727Y-119310974D01*
X134968387Y-119099515D01*
X134968387Y-119099512D01*
X134909292Y-118907421D01*
X134796330Y-118741201D01*
X134796327Y-118741199D01*
X134639482Y-118615541D01*
X134452621Y-118541558D01*
X134252265Y-118525789D01*
X134056126Y-118569631D01*
X133881558Y-118669204D01*
X133881555Y-118669206D01*
X133743979Y-118815708D01*
X133655561Y-118996192D01*
X133655560Y-118996197D01*
X133624122Y-119194692D01*
X121563343Y-119194692D01*
X121510795Y-119023886D01*
X121397555Y-118857256D01*
X121397552Y-118857254D01*
X121240320Y-118731286D01*
X121052997Y-118657120D01*
X120852147Y-118641312D01*
X120655523Y-118685263D01*
X120655521Y-118685264D01*
X120480527Y-118785079D01*
X120480522Y-118785083D01*
X120342606Y-118931948D01*
X120253971Y-119112876D01*
X120253970Y-119112880D01*
X120222454Y-119311866D01*
X118800000Y-119311866D01*
X118800000Y-116194679D01*
X123922454Y-116194679D01*
X123950842Y-116394143D01*
X124036624Y-116576435D01*
X124156103Y-116707742D01*
X124172696Y-116753830D01*
X124155421Y-116794626D01*
X124042606Y-116914761D01*
X123953971Y-117095689D01*
X123953970Y-117095693D01*
X123922454Y-117294679D01*
X123950842Y-117494143D01*
X124036622Y-117676433D01*
X124172217Y-117825450D01*
X124345628Y-117928006D01*
X124345632Y-117928007D01*
X124541537Y-117975040D01*
X124742610Y-117962388D01*
X124742618Y-117962387D01*
X124931071Y-117891176D01*
X124931072Y-117891175D01*
X124962580Y-117866735D01*
X125009828Y-117853810D01*
X125034385Y-117862217D01*
X125145630Y-117928006D01*
X125145632Y-117928007D01*
X125341537Y-117975040D01*
X125542610Y-117962388D01*
X125542618Y-117962387D01*
X125731073Y-117891176D01*
X125731073Y-117891175D01*
X125890266Y-117767692D01*
X126006114Y-117602857D01*
X126068371Y-117411249D01*
X126068372Y-117411247D01*
X126070037Y-117199267D01*
X126070037Y-117199264D01*
X126010795Y-117006699D01*
X125897555Y-116840069D01*
X125897553Y-116840068D01*
X125848009Y-116800376D01*
X125824411Y-116757452D01*
X125848798Y-116699858D01*
X125890266Y-116667692D01*
X126006114Y-116502857D01*
X126068371Y-116311249D01*
X126068372Y-116311247D01*
X126070037Y-116099267D01*
X126070037Y-116099264D01*
X126010795Y-115906699D01*
X125897555Y-115740069D01*
X125897552Y-115740067D01*
X125740320Y-115614099D01*
X125552997Y-115539933D01*
X125352147Y-115524125D01*
X125155523Y-115568076D01*
X125155521Y-115568077D01*
X125034042Y-115637367D01*
X124985445Y-115643507D01*
X124962318Y-115631723D01*
X124940320Y-115614099D01*
X124752997Y-115539933D01*
X124552147Y-115524125D01*
X124355523Y-115568076D01*
X124355521Y-115568077D01*
X124180527Y-115667892D01*
X124180522Y-115667896D01*
X124042606Y-115814761D01*
X123953971Y-115995689D01*
X123953970Y-115995693D01*
X123922454Y-116194679D01*
X118800000Y-116194679D01*
X118800000Y-114594692D01*
X131124122Y-114594692D01*
X131152440Y-114793665D01*
X131238010Y-114975508D01*
X131373267Y-115124155D01*
X131373270Y-115124157D01*
X131546252Y-115226458D01*
X131546258Y-115226461D01*
X131741681Y-115273378D01*
X131942261Y-115260758D01*
X131942260Y-115260758D01*
X132130257Y-115189720D01*
X132130258Y-115189719D01*
X132289059Y-115066541D01*
X132304414Y-115044692D01*
X133124122Y-115044692D01*
X133152440Y-115243665D01*
X133238010Y-115425508D01*
X133373267Y-115574155D01*
X133373270Y-115574157D01*
X133546252Y-115676458D01*
X133546258Y-115676461D01*
X133741681Y-115723378D01*
X133942261Y-115710758D01*
X133942260Y-115710758D01*
X134130257Y-115639720D01*
X134130258Y-115639719D01*
X134289059Y-115516541D01*
X134404622Y-115352111D01*
X134466726Y-115160975D01*
X134466727Y-115160974D01*
X134468387Y-114949515D01*
X134468387Y-114949512D01*
X134409292Y-114757421D01*
X134296330Y-114591201D01*
X134296327Y-114591199D01*
X134139482Y-114465541D01*
X133952621Y-114391558D01*
X133752265Y-114375789D01*
X133556126Y-114419631D01*
X133381558Y-114519204D01*
X133381555Y-114519206D01*
X133243979Y-114665708D01*
X133155561Y-114846192D01*
X133155560Y-114846197D01*
X133124122Y-115044692D01*
X132304414Y-115044692D01*
X132404622Y-114902111D01*
X132466726Y-114710975D01*
X132466727Y-114710974D01*
X132468387Y-114499515D01*
X132468387Y-114499512D01*
X132409292Y-114307421D01*
X132296330Y-114141201D01*
X132296327Y-114141199D01*
X132139482Y-114015541D01*
X131952621Y-113941558D01*
X131752265Y-113925789D01*
X131556126Y-113969631D01*
X131381558Y-114069204D01*
X131381555Y-114069206D01*
X131243979Y-114215708D01*
X131155561Y-114396192D01*
X131155560Y-114396197D01*
X131124122Y-114594692D01*
X118800000Y-114594692D01*
X118800000Y-112094679D01*
X120222454Y-112094679D01*
X120250842Y-112294143D01*
X120336622Y-112476433D01*
X120472217Y-112625450D01*
X120645628Y-112728006D01*
X120645632Y-112728007D01*
X120841537Y-112775040D01*
X121042610Y-112762388D01*
X121042618Y-112762387D01*
X121231073Y-112691176D01*
X121231073Y-112691175D01*
X121390266Y-112567692D01*
X121441571Y-112494692D01*
X164324122Y-112494692D01*
X164352440Y-112693665D01*
X164438010Y-112875508D01*
X164573267Y-113024155D01*
X164573270Y-113024157D01*
X164746252Y-113126458D01*
X164746257Y-113126461D01*
X164840781Y-113149154D01*
X164880409Y-113177946D01*
X164883314Y-113239542D01*
X164855561Y-113296192D01*
X164855560Y-113296197D01*
X164824122Y-113494692D01*
X164852440Y-113693665D01*
X164938010Y-113875508D01*
X165073267Y-114024155D01*
X165073270Y-114024157D01*
X165246252Y-114126458D01*
X165246258Y-114126461D01*
X165441681Y-114173378D01*
X165642261Y-114160758D01*
X165642260Y-114160758D01*
X165830257Y-114089720D01*
X165830258Y-114089719D01*
X165989059Y-113966541D01*
X166104622Y-113802111D01*
X166166726Y-113610975D01*
X166166727Y-113610974D01*
X166168387Y-113399515D01*
X166168387Y-113399512D01*
X166109292Y-113207421D01*
X165996330Y-113041201D01*
X165996327Y-113041199D01*
X165839482Y-112915541D01*
X165654617Y-112842348D01*
X165619441Y-112808259D01*
X165617309Y-112763065D01*
X165666726Y-112610975D01*
X165666727Y-112610974D01*
X165668387Y-112399515D01*
X165668387Y-112399512D01*
X165609292Y-112207421D01*
X165496330Y-112041201D01*
X165496327Y-112041199D01*
X165339482Y-111915541D01*
X165152621Y-111841558D01*
X164952265Y-111825789D01*
X164756126Y-111869631D01*
X164581558Y-111969204D01*
X164581555Y-111969206D01*
X164443979Y-112115708D01*
X164355561Y-112296192D01*
X164355560Y-112296197D01*
X164324122Y-112494692D01*
X121441571Y-112494692D01*
X121506114Y-112402857D01*
X121568371Y-112211249D01*
X121568372Y-112211247D01*
X121570037Y-111999267D01*
X121570037Y-111999264D01*
X121510795Y-111806699D01*
X121397555Y-111640069D01*
X121397552Y-111640067D01*
X121240320Y-111514099D01*
X121052997Y-111439933D01*
X120852147Y-111424125D01*
X120655523Y-111468076D01*
X120655521Y-111468077D01*
X120480527Y-111567892D01*
X120480522Y-111567896D01*
X120342606Y-111714761D01*
X120253971Y-111895689D01*
X120253970Y-111895693D01*
X120222454Y-112094679D01*
X118800000Y-112094679D01*
X118800000Y-109094679D01*
X124022454Y-109094679D01*
X124050842Y-109294143D01*
X124136624Y-109476435D01*
X124209890Y-109556953D01*
X124226483Y-109603040D01*
X124209208Y-109643837D01*
X124142607Y-109714759D01*
X124053971Y-109895689D01*
X124053970Y-109895693D01*
X124022454Y-110094679D01*
X124050842Y-110294143D01*
X124136622Y-110476433D01*
X124272217Y-110625450D01*
X124445628Y-110728006D01*
X124445632Y-110728007D01*
X124641537Y-110775040D01*
X124842610Y-110762388D01*
X124842618Y-110762387D01*
X125031071Y-110691176D01*
X125031072Y-110691175D01*
X125062580Y-110666735D01*
X125109828Y-110653810D01*
X125134385Y-110662217D01*
X125245630Y-110728006D01*
X125245632Y-110728007D01*
X125441537Y-110775040D01*
X125642610Y-110762388D01*
X125642618Y-110762387D01*
X125831073Y-110691176D01*
X125831073Y-110691175D01*
X125990266Y-110567692D01*
X126106114Y-110402857D01*
X126168371Y-110211249D01*
X126168372Y-110211247D01*
X126170037Y-109999267D01*
X126170037Y-109999264D01*
X126110795Y-109806699D01*
X125994864Y-109636110D01*
X125996831Y-109634773D01*
X125982649Y-109596327D01*
X125994238Y-109562042D01*
X126106114Y-109402858D01*
X126168371Y-109211249D01*
X126168372Y-109211247D01*
X126169287Y-109094692D01*
X131724122Y-109094692D01*
X131752440Y-109293665D01*
X131838010Y-109475508D01*
X131973267Y-109624155D01*
X131973270Y-109624157D01*
X132146252Y-109726458D01*
X132146258Y-109726461D01*
X132341681Y-109773378D01*
X132542261Y-109760758D01*
X132542260Y-109760758D01*
X132584777Y-109744692D01*
X133824122Y-109744692D01*
X133852440Y-109943665D01*
X133938010Y-110125508D01*
X134073267Y-110274155D01*
X134073270Y-110274157D01*
X134246252Y-110376458D01*
X134246258Y-110376461D01*
X134441681Y-110423378D01*
X134642261Y-110410758D01*
X134642260Y-110410758D01*
X134830257Y-110339720D01*
X134830258Y-110339719D01*
X134989059Y-110216541D01*
X135104622Y-110052111D01*
X135166726Y-109860975D01*
X135166727Y-109860974D01*
X135168387Y-109649515D01*
X135168387Y-109649512D01*
X135151523Y-109594692D01*
X149224122Y-109594692D01*
X149252440Y-109793665D01*
X149338010Y-109975508D01*
X149473267Y-110124155D01*
X149473270Y-110124157D01*
X149646252Y-110226458D01*
X149646258Y-110226461D01*
X149841681Y-110273378D01*
X150042261Y-110260758D01*
X150042260Y-110260758D01*
X150230257Y-110189720D01*
X150230258Y-110189719D01*
X150389059Y-110066541D01*
X150439555Y-109994692D01*
X162824122Y-109994692D01*
X162852440Y-110193665D01*
X162938010Y-110375508D01*
X163073267Y-110524155D01*
X163073270Y-110524157D01*
X163246252Y-110626458D01*
X163246258Y-110626461D01*
X163441681Y-110673378D01*
X163642261Y-110660758D01*
X163642260Y-110660758D01*
X163830257Y-110589720D01*
X163830258Y-110589719D01*
X163989059Y-110466541D01*
X164104622Y-110302111D01*
X164166726Y-110110975D01*
X164166727Y-110110974D01*
X164168387Y-109899515D01*
X164168387Y-109899512D01*
X164109292Y-109707421D01*
X163996330Y-109541201D01*
X163996327Y-109541199D01*
X163839482Y-109415541D01*
X163652621Y-109341558D01*
X163452265Y-109325789D01*
X163256126Y-109369631D01*
X163081558Y-109469204D01*
X163081555Y-109469206D01*
X162943979Y-109615708D01*
X162855561Y-109796192D01*
X162855560Y-109796197D01*
X162824122Y-109994692D01*
X150439555Y-109994692D01*
X150504622Y-109902111D01*
X150566726Y-109710975D01*
X150566727Y-109710974D01*
X150568387Y-109499515D01*
X150568387Y-109499512D01*
X150509292Y-109307421D01*
X150396330Y-109141201D01*
X150396327Y-109141199D01*
X150239482Y-109015541D01*
X150052621Y-108941558D01*
X149852265Y-108925789D01*
X149656126Y-108969631D01*
X149481558Y-109069204D01*
X149481555Y-109069206D01*
X149343979Y-109215708D01*
X149255561Y-109396192D01*
X149255560Y-109396197D01*
X149224122Y-109594692D01*
X135151523Y-109594692D01*
X135109292Y-109457421D01*
X134996330Y-109291201D01*
X134996327Y-109291199D01*
X134839482Y-109165541D01*
X134652621Y-109091558D01*
X134452265Y-109075789D01*
X134256126Y-109119631D01*
X134081558Y-109219204D01*
X134081555Y-109219206D01*
X133943979Y-109365708D01*
X133855561Y-109546192D01*
X133855560Y-109546197D01*
X133824122Y-109744692D01*
X132584777Y-109744692D01*
X132730257Y-109689720D01*
X132730258Y-109689719D01*
X132889059Y-109566541D01*
X133004622Y-109402111D01*
X133066726Y-109210975D01*
X133066727Y-109210974D01*
X133068387Y-108999515D01*
X133068387Y-108999512D01*
X133009292Y-108807421D01*
X132896330Y-108641201D01*
X132896327Y-108641199D01*
X132739482Y-108515541D01*
X132552621Y-108441558D01*
X132352265Y-108425789D01*
X132156126Y-108469631D01*
X131981558Y-108569204D01*
X131981555Y-108569206D01*
X131843979Y-108715708D01*
X131755561Y-108896192D01*
X131755560Y-108896197D01*
X131724122Y-109094692D01*
X126169287Y-109094692D01*
X126170037Y-108999267D01*
X126170037Y-108999264D01*
X126110795Y-108806699D01*
X125997555Y-108640069D01*
X125997552Y-108640067D01*
X125840320Y-108514099D01*
X125652997Y-108439933D01*
X125452147Y-108424125D01*
X125255523Y-108468076D01*
X125255521Y-108468077D01*
X125134042Y-108537367D01*
X125085445Y-108543507D01*
X125062318Y-108531723D01*
X125040320Y-108514099D01*
X124852997Y-108439933D01*
X124652147Y-108424125D01*
X124455523Y-108468076D01*
X124455521Y-108468077D01*
X124280527Y-108567892D01*
X124280522Y-108567896D01*
X124142606Y-108714761D01*
X124053971Y-108895689D01*
X124053970Y-108895693D01*
X124022454Y-109094679D01*
X118800000Y-109094679D01*
X118800000Y-106794692D01*
X144374122Y-106794692D01*
X144402440Y-106993665D01*
X144488010Y-107175508D01*
X144623267Y-107324155D01*
X144623270Y-107324157D01*
X144796252Y-107426458D01*
X144796258Y-107426461D01*
X144991681Y-107473378D01*
X145192259Y-107460758D01*
X145222852Y-107449198D01*
X145271812Y-107450736D01*
X145305343Y-107486443D01*
X145303805Y-107535403D01*
X145277185Y-107564658D01*
X145181558Y-107619204D01*
X145181555Y-107619206D01*
X145043979Y-107765708D01*
X144955561Y-107946192D01*
X144955560Y-107946197D01*
X144924122Y-108144692D01*
X144952440Y-108343665D01*
X145038010Y-108525508D01*
X145173267Y-108674155D01*
X145173270Y-108674157D01*
X145346252Y-108776458D01*
X145346258Y-108776461D01*
X145541681Y-108823378D01*
X145742261Y-108810758D01*
X145742260Y-108810758D01*
X145930257Y-108739720D01*
X145930258Y-108739719D01*
X146089059Y-108616541D01*
X146204622Y-108452111D01*
X146266726Y-108260975D01*
X146266727Y-108260974D01*
X146268387Y-108049515D01*
X146268387Y-108049512D01*
X146209292Y-107857421D01*
X146096330Y-107691201D01*
X146096327Y-107691199D01*
X145939482Y-107565541D01*
X145752621Y-107491558D01*
X145552265Y-107475789D01*
X145434170Y-107502186D01*
X145385916Y-107493764D01*
X145357750Y-107453688D01*
X145380983Y-107389157D01*
X145539059Y-107266540D01*
X145589563Y-107194679D01*
X167122454Y-107194679D01*
X167150842Y-107394143D01*
X167236622Y-107576433D01*
X167372217Y-107725450D01*
X167545628Y-107828006D01*
X167545632Y-107828007D01*
X167741537Y-107875040D01*
X167942610Y-107862388D01*
X167942618Y-107862387D01*
X168131073Y-107791176D01*
X168131073Y-107791175D01*
X168290267Y-107667691D01*
X168290270Y-107667688D01*
X168301693Y-107651435D01*
X168343051Y-107625189D01*
X168401390Y-107645163D01*
X168473266Y-107724154D01*
X168473270Y-107724157D01*
X168646252Y-107826458D01*
X168646258Y-107826461D01*
X168841681Y-107873378D01*
X169042261Y-107860758D01*
X169042260Y-107860758D01*
X169230257Y-107789720D01*
X169230258Y-107789719D01*
X169389059Y-107666541D01*
X169400554Y-107650185D01*
X169441912Y-107623938D01*
X169500253Y-107643912D01*
X169573270Y-107724157D01*
X169746252Y-107826458D01*
X169746258Y-107826461D01*
X169941681Y-107873378D01*
X170142261Y-107860758D01*
X170142260Y-107860758D01*
X170330257Y-107789720D01*
X170330258Y-107789719D01*
X170489059Y-107666541D01*
X170604622Y-107502111D01*
X170666726Y-107310975D01*
X170666727Y-107310974D01*
X170668387Y-107099515D01*
X170668387Y-107099512D01*
X170609292Y-106907421D01*
X170496330Y-106741201D01*
X170496327Y-106741199D01*
X170453143Y-106706601D01*
X171987032Y-106706601D01*
X172019635Y-106972144D01*
X172019636Y-106972149D01*
X172091130Y-107229948D01*
X172091133Y-107229958D01*
X172199948Y-107474358D01*
X172199953Y-107474368D01*
X172343697Y-107700001D01*
X172343702Y-107700008D01*
X172519219Y-107901916D01*
X172519221Y-107901918D01*
X172722662Y-108075673D01*
X172949547Y-108217445D01*
X173194897Y-108324127D01*
X173453310Y-108393368D01*
X173719141Y-108423655D01*
X173986506Y-108414318D01*
X173986519Y-108414317D01*
X174249563Y-108365565D01*
X174502524Y-108278464D01*
X174739845Y-108154923D01*
X174739847Y-108154922D01*
X174956278Y-107997675D01*
X174956281Y-107997672D01*
X175147100Y-107810156D01*
X175147111Y-107810144D01*
X175308111Y-107596489D01*
X175308118Y-107596479D01*
X175435773Y-107361366D01*
X175527276Y-107109968D01*
X175527279Y-107109958D01*
X175580616Y-106847795D01*
X175580616Y-106847792D01*
X175590083Y-106486234D01*
X175590082Y-106486228D01*
X175550539Y-106221630D01*
X175550537Y-106221623D01*
X175472318Y-105965782D01*
X175472318Y-105965781D01*
X175357141Y-105724307D01*
X175357137Y-105724301D01*
X175207540Y-105502514D01*
X175207531Y-105502503D01*
X175026783Y-105305251D01*
X174818881Y-105136896D01*
X174818862Y-105136883D01*
X174588358Y-105001106D01*
X174340294Y-104900882D01*
X174080138Y-104838423D01*
X173813627Y-104815108D01*
X173546591Y-104831440D01*
X173546579Y-104831441D01*
X173284907Y-104887062D01*
X173284887Y-104887068D01*
X173034302Y-104980758D01*
X173034298Y-104980760D01*
X172800305Y-105110465D01*
X172588053Y-105273331D01*
X172402204Y-105465784D01*
X172246848Y-105683584D01*
X172246840Y-105683597D01*
X172125388Y-105921959D01*
X172125386Y-105921964D01*
X172040494Y-106175681D01*
X171994035Y-106439159D01*
X171994035Y-106439161D01*
X171987032Y-106706601D01*
X170453143Y-106706601D01*
X170339482Y-106615541D01*
X170183406Y-106553746D01*
X170148230Y-106519657D01*
X170146098Y-106474463D01*
X170166726Y-106410975D01*
X170166727Y-106410974D01*
X170168387Y-106199515D01*
X170168387Y-106199512D01*
X170109292Y-106007421D01*
X169996330Y-105841201D01*
X169996327Y-105841199D01*
X169839482Y-105715541D01*
X169652621Y-105641558D01*
X169452265Y-105625789D01*
X169256126Y-105669631D01*
X169081558Y-105769204D01*
X169081555Y-105769206D01*
X168943979Y-105915708D01*
X168855561Y-106096192D01*
X168855560Y-106096197D01*
X168824122Y-106294692D01*
X168848530Y-106466189D01*
X168836348Y-106513634D01*
X168799129Y-106537666D01*
X168656126Y-106569631D01*
X168481558Y-106669204D01*
X168481555Y-106669206D01*
X168401553Y-106754399D01*
X168356909Y-106774556D01*
X168301965Y-106746560D01*
X168297553Y-106740067D01*
X168297552Y-106740067D01*
X168140320Y-106614099D01*
X167952997Y-106539933D01*
X167752147Y-106524125D01*
X167555523Y-106568076D01*
X167555521Y-106568077D01*
X167380527Y-106667892D01*
X167380522Y-106667896D01*
X167242606Y-106814761D01*
X167153971Y-106995689D01*
X167153970Y-106995693D01*
X167122454Y-107194679D01*
X145589563Y-107194679D01*
X145654622Y-107102111D01*
X145716726Y-106910975D01*
X145716727Y-106910974D01*
X145718387Y-106699515D01*
X145718387Y-106699512D01*
X145659292Y-106507421D01*
X145546330Y-106341201D01*
X145546327Y-106341199D01*
X145389482Y-106215541D01*
X145202621Y-106141558D01*
X145002265Y-106125789D01*
X144806126Y-106169631D01*
X144631558Y-106269204D01*
X144631555Y-106269206D01*
X144493979Y-106415708D01*
X144405561Y-106596192D01*
X144405560Y-106596197D01*
X144374122Y-106794692D01*
X118800000Y-106794692D01*
X118800000Y-105894692D01*
X134224122Y-105894692D01*
X134252440Y-106093665D01*
X134338010Y-106275508D01*
X134473267Y-106424155D01*
X134473270Y-106424157D01*
X134646252Y-106526458D01*
X134646258Y-106526461D01*
X134841681Y-106573378D01*
X135042261Y-106560758D01*
X135042260Y-106560758D01*
X135230257Y-106489720D01*
X135230258Y-106489719D01*
X135389059Y-106366541D01*
X135504622Y-106202111D01*
X135566726Y-106010975D01*
X135566727Y-106010974D01*
X135568387Y-105799515D01*
X135568387Y-105799512D01*
X135509292Y-105607421D01*
X135396330Y-105441201D01*
X135396327Y-105441199D01*
X135239482Y-105315541D01*
X135052621Y-105241558D01*
X134852265Y-105225789D01*
X134656126Y-105269631D01*
X134481558Y-105369204D01*
X134481555Y-105369206D01*
X134343979Y-105515708D01*
X134255561Y-105696192D01*
X134255560Y-105696197D01*
X134224122Y-105894692D01*
X118800000Y-105894692D01*
X118800000Y-104994679D01*
X120122454Y-104994679D01*
X120150842Y-105194143D01*
X120236622Y-105376433D01*
X120372217Y-105525450D01*
X120545628Y-105628006D01*
X120545632Y-105628007D01*
X120741537Y-105675040D01*
X120942610Y-105662388D01*
X120942618Y-105662387D01*
X121131073Y-105591176D01*
X121131073Y-105591175D01*
X121290266Y-105467692D01*
X121406114Y-105302857D01*
X121468371Y-105111249D01*
X121468372Y-105111247D01*
X121470037Y-104899267D01*
X121470037Y-104899264D01*
X121410795Y-104706699D01*
X121334677Y-104594692D01*
X166224122Y-104594692D01*
X166252440Y-104793665D01*
X166338010Y-104975508D01*
X166473267Y-105124155D01*
X166473270Y-105124157D01*
X166646252Y-105226458D01*
X166646258Y-105226461D01*
X166841681Y-105273378D01*
X167042261Y-105260758D01*
X167042260Y-105260758D01*
X167230257Y-105189720D01*
X167230258Y-105189719D01*
X167389059Y-105066541D01*
X167504622Y-104902111D01*
X167566726Y-104710975D01*
X167566727Y-104710974D01*
X167568387Y-104499515D01*
X167568387Y-104499512D01*
X167509292Y-104307421D01*
X167396330Y-104141201D01*
X167396327Y-104141199D01*
X167239482Y-104015541D01*
X167052621Y-103941558D01*
X166852265Y-103925789D01*
X166656126Y-103969631D01*
X166481558Y-104069204D01*
X166481555Y-104069206D01*
X166343979Y-104215708D01*
X166255561Y-104396192D01*
X166255560Y-104396197D01*
X166224122Y-104594692D01*
X121334677Y-104594692D01*
X121297555Y-104540069D01*
X121297552Y-104540067D01*
X121140320Y-104414099D01*
X120952997Y-104339933D01*
X120752147Y-104324125D01*
X120555523Y-104368076D01*
X120555521Y-104368077D01*
X120380527Y-104467892D01*
X120380522Y-104467896D01*
X120242606Y-104614761D01*
X120153971Y-104795689D01*
X120153970Y-104795693D01*
X120122454Y-104994679D01*
X118800000Y-104994679D01*
X118800000Y-102594692D01*
X132124122Y-102594692D01*
X132152440Y-102793665D01*
X132238010Y-102975508D01*
X132373267Y-103124155D01*
X132373270Y-103124157D01*
X132546252Y-103226458D01*
X132546258Y-103226461D01*
X132741681Y-103273378D01*
X132942261Y-103260758D01*
X132942260Y-103260758D01*
X133130257Y-103189720D01*
X133130258Y-103189719D01*
X133289059Y-103066541D01*
X133404622Y-102902111D01*
X133466726Y-102710975D01*
X133466727Y-102710974D01*
X133467639Y-102594692D01*
X135124122Y-102594692D01*
X135152440Y-102793665D01*
X135238010Y-102975508D01*
X135373267Y-103124155D01*
X135373270Y-103124157D01*
X135546252Y-103226458D01*
X135546258Y-103226461D01*
X135741681Y-103273378D01*
X135942261Y-103260758D01*
X135942260Y-103260758D01*
X136130257Y-103189720D01*
X136130258Y-103189719D01*
X136289059Y-103066541D01*
X136404622Y-102902111D01*
X136466726Y-102710975D01*
X136466727Y-102710974D01*
X136467639Y-102594692D01*
X138124122Y-102594692D01*
X138152440Y-102793665D01*
X138238010Y-102975508D01*
X138373267Y-103124155D01*
X138373270Y-103124157D01*
X138546252Y-103226458D01*
X138546258Y-103226461D01*
X138741681Y-103273378D01*
X138942261Y-103260758D01*
X138942260Y-103260758D01*
X139130257Y-103189720D01*
X139130258Y-103189719D01*
X139289059Y-103066541D01*
X139404622Y-102902111D01*
X139466726Y-102710975D01*
X139466727Y-102710974D01*
X139467639Y-102594692D01*
X140924122Y-102594692D01*
X140952440Y-102793665D01*
X141038010Y-102975508D01*
X141173267Y-103124155D01*
X141173270Y-103124157D01*
X141346252Y-103226458D01*
X141346258Y-103226461D01*
X141541681Y-103273378D01*
X141742261Y-103260758D01*
X141742260Y-103260758D01*
X141930257Y-103189720D01*
X141930258Y-103189719D01*
X142089059Y-103066541D01*
X142204622Y-102902111D01*
X142266726Y-102710975D01*
X142266727Y-102710974D01*
X142268387Y-102499515D01*
X142268387Y-102499512D01*
X142209292Y-102307421D01*
X142096330Y-102141201D01*
X142096327Y-102141199D01*
X141939482Y-102015541D01*
X141752621Y-101941558D01*
X141552265Y-101925789D01*
X141356126Y-101969631D01*
X141181558Y-102069204D01*
X141181555Y-102069206D01*
X141043979Y-102215708D01*
X140955561Y-102396192D01*
X140955560Y-102396197D01*
X140924122Y-102594692D01*
X139467639Y-102594692D01*
X139468387Y-102499515D01*
X139468387Y-102499512D01*
X139409292Y-102307421D01*
X139296330Y-102141201D01*
X139296327Y-102141199D01*
X139139482Y-102015541D01*
X138952621Y-101941558D01*
X138752265Y-101925789D01*
X138556126Y-101969631D01*
X138381558Y-102069204D01*
X138381555Y-102069206D01*
X138243979Y-102215708D01*
X138155561Y-102396192D01*
X138155560Y-102396197D01*
X138124122Y-102594692D01*
X136467639Y-102594692D01*
X136468387Y-102499515D01*
X136468387Y-102499512D01*
X136409292Y-102307421D01*
X136296330Y-102141201D01*
X136296327Y-102141199D01*
X136139482Y-102015541D01*
X135952621Y-101941558D01*
X135752265Y-101925789D01*
X135556126Y-101969631D01*
X135381558Y-102069204D01*
X135381555Y-102069206D01*
X135243979Y-102215708D01*
X135155561Y-102396192D01*
X135155560Y-102396197D01*
X135124122Y-102594692D01*
X133467639Y-102594692D01*
X133468387Y-102499515D01*
X133468387Y-102499512D01*
X133409292Y-102307421D01*
X133296330Y-102141201D01*
X133296327Y-102141199D01*
X133139482Y-102015541D01*
X132952621Y-101941558D01*
X132752265Y-101925789D01*
X132556126Y-101969631D01*
X132381558Y-102069204D01*
X132381555Y-102069206D01*
X132243979Y-102215708D01*
X132155561Y-102396192D01*
X132155560Y-102396197D01*
X132124122Y-102594692D01*
X118800000Y-102594692D01*
X118800000Y-100794679D01*
X158322454Y-100794679D01*
X158350842Y-100994143D01*
X158436622Y-101176433D01*
X158572217Y-101325450D01*
X158745628Y-101428006D01*
X158745632Y-101428007D01*
X158941537Y-101475040D01*
X159142610Y-101462388D01*
X159142618Y-101462387D01*
X159331073Y-101391176D01*
X159331073Y-101391175D01*
X159490266Y-101267692D01*
X159606114Y-101102857D01*
X159668371Y-100911249D01*
X159668372Y-100911247D01*
X159669287Y-100794692D01*
X163624122Y-100794692D01*
X163652440Y-100993665D01*
X163738010Y-101175508D01*
X163873267Y-101324155D01*
X163873270Y-101324157D01*
X164046252Y-101426458D01*
X164046258Y-101426461D01*
X164241681Y-101473378D01*
X164442261Y-101460758D01*
X164442260Y-101460758D01*
X164630257Y-101389720D01*
X164630258Y-101389719D01*
X164789059Y-101266541D01*
X164904622Y-101102111D01*
X164966726Y-100910975D01*
X164966727Y-100910974D01*
X164968387Y-100699515D01*
X164968387Y-100699512D01*
X164909292Y-100507421D01*
X164796330Y-100341201D01*
X164796327Y-100341199D01*
X164639482Y-100215541D01*
X164452621Y-100141558D01*
X164252265Y-100125789D01*
X164056126Y-100169631D01*
X163881558Y-100269204D01*
X163881555Y-100269206D01*
X163743979Y-100415708D01*
X163655561Y-100596192D01*
X163655560Y-100596197D01*
X163624122Y-100794692D01*
X159669287Y-100794692D01*
X159670037Y-100699267D01*
X159670037Y-100699264D01*
X159610795Y-100506699D01*
X159497555Y-100340069D01*
X159497552Y-100340067D01*
X159340320Y-100214099D01*
X159152997Y-100139933D01*
X158952147Y-100124125D01*
X158755523Y-100168076D01*
X158755521Y-100168077D01*
X158580527Y-100267892D01*
X158580522Y-100267896D01*
X158442606Y-100414761D01*
X158353971Y-100595689D01*
X158353970Y-100595693D01*
X158322454Y-100794679D01*
X118800000Y-100794679D01*
X118800000Y-99794692D01*
X139824122Y-99794692D01*
X139852440Y-99993665D01*
X139938010Y-100175508D01*
X140073267Y-100324155D01*
X140073270Y-100324157D01*
X140246252Y-100426458D01*
X140246258Y-100426461D01*
X140441681Y-100473378D01*
X140642261Y-100460758D01*
X140642260Y-100460758D01*
X140830257Y-100389720D01*
X140830258Y-100389719D01*
X140989059Y-100266541D01*
X141104622Y-100102111D01*
X141107032Y-100094692D01*
X145524122Y-100094692D01*
X145552440Y-100293665D01*
X145638010Y-100475508D01*
X145773267Y-100624155D01*
X145773270Y-100624157D01*
X145946252Y-100726458D01*
X145946258Y-100726461D01*
X146141681Y-100773378D01*
X146342261Y-100760758D01*
X146342260Y-100760758D01*
X146530257Y-100689720D01*
X146530258Y-100689719D01*
X146689059Y-100566541D01*
X146804622Y-100402111D01*
X146866726Y-100210975D01*
X146866727Y-100210974D01*
X146867639Y-100094679D01*
X147222454Y-100094679D01*
X147250842Y-100294143D01*
X147336622Y-100476433D01*
X147472217Y-100625450D01*
X147645628Y-100728006D01*
X147645632Y-100728007D01*
X147841537Y-100775040D01*
X148042610Y-100762388D01*
X148042618Y-100762387D01*
X148231073Y-100691176D01*
X148231073Y-100691175D01*
X148390266Y-100567692D01*
X148506114Y-100402857D01*
X148568371Y-100211249D01*
X148568372Y-100211247D01*
X148570037Y-99999267D01*
X148570037Y-99999264D01*
X148510795Y-99806699D01*
X148397555Y-99640069D01*
X148397552Y-99640067D01*
X148240320Y-99514099D01*
X148052997Y-99439933D01*
X147852147Y-99424125D01*
X147655523Y-99468076D01*
X147655521Y-99468077D01*
X147480527Y-99567892D01*
X147480522Y-99567896D01*
X147342606Y-99714761D01*
X147253971Y-99895689D01*
X147253970Y-99895693D01*
X147222454Y-100094679D01*
X146867639Y-100094679D01*
X146868387Y-99999515D01*
X146868387Y-99999512D01*
X146809292Y-99807421D01*
X146696330Y-99641201D01*
X146696327Y-99641199D01*
X146539482Y-99515541D01*
X146352621Y-99441558D01*
X146152265Y-99425789D01*
X145956126Y-99469631D01*
X145781558Y-99569204D01*
X145781555Y-99569206D01*
X145643979Y-99715708D01*
X145555561Y-99896192D01*
X145555560Y-99896197D01*
X145524122Y-100094692D01*
X141107032Y-100094692D01*
X141166726Y-99910975D01*
X141166727Y-99910974D01*
X141168387Y-99699515D01*
X141168387Y-99699512D01*
X141109292Y-99507421D01*
X140996330Y-99341201D01*
X140996327Y-99341199D01*
X140839482Y-99215541D01*
X140652621Y-99141558D01*
X140452265Y-99125789D01*
X140256126Y-99169631D01*
X140081558Y-99269204D01*
X140081555Y-99269206D01*
X139943979Y-99415708D01*
X139855561Y-99596192D01*
X139855560Y-99596197D01*
X139824122Y-99794692D01*
X118800000Y-99794692D01*
X118800000Y-98694692D01*
X142624122Y-98694692D01*
X142652440Y-98893665D01*
X142738010Y-99075508D01*
X142873267Y-99224155D01*
X142873270Y-99224157D01*
X143046252Y-99326458D01*
X143046258Y-99326461D01*
X143241681Y-99373378D01*
X143442261Y-99360758D01*
X143442260Y-99360758D01*
X143630257Y-99289720D01*
X143630258Y-99289719D01*
X143789059Y-99166541D01*
X143904622Y-99002111D01*
X143966726Y-98810975D01*
X143966727Y-98810973D01*
X143968138Y-98631311D01*
X143987238Y-98586205D01*
X144028117Y-98567940D01*
X144142261Y-98560758D01*
X144142260Y-98560758D01*
X144330257Y-98489720D01*
X144330258Y-98489719D01*
X144489059Y-98366541D01*
X144539564Y-98294679D01*
X165522454Y-98294679D01*
X165550842Y-98494143D01*
X165636622Y-98676433D01*
X165772217Y-98825450D01*
X165945628Y-98928006D01*
X165945632Y-98928007D01*
X166141537Y-98975040D01*
X166342610Y-98962388D01*
X166342618Y-98962387D01*
X166531073Y-98891176D01*
X166531073Y-98891175D01*
X166690266Y-98767692D01*
X166806114Y-98602857D01*
X166868371Y-98411249D01*
X166868372Y-98411247D01*
X166870037Y-98199267D01*
X166870037Y-98199264D01*
X166810795Y-98006699D01*
X166697555Y-97840069D01*
X166697552Y-97840067D01*
X166540320Y-97714099D01*
X166352997Y-97639933D01*
X166152147Y-97624125D01*
X165955523Y-97668076D01*
X165955521Y-97668077D01*
X165780527Y-97767892D01*
X165780522Y-97767896D01*
X165642606Y-97914761D01*
X165553971Y-98095689D01*
X165553970Y-98095693D01*
X165522454Y-98294679D01*
X144539564Y-98294679D01*
X144604622Y-98202111D01*
X144666726Y-98010975D01*
X144666727Y-98010974D01*
X144668387Y-97799515D01*
X144668387Y-97799512D01*
X144609292Y-97607421D01*
X144600642Y-97594692D01*
X144824122Y-97594692D01*
X144852440Y-97793665D01*
X144938010Y-97975508D01*
X145073267Y-98124155D01*
X145073270Y-98124157D01*
X145246252Y-98226458D01*
X145246258Y-98226461D01*
X145441681Y-98273378D01*
X145642261Y-98260758D01*
X145642260Y-98260758D01*
X145830257Y-98189720D01*
X145830258Y-98189719D01*
X145989059Y-98066541D01*
X146104622Y-97902111D01*
X146166726Y-97710975D01*
X146166727Y-97710974D01*
X146168387Y-97499515D01*
X146168387Y-97499512D01*
X146166905Y-97494692D01*
X147824122Y-97494692D01*
X147852440Y-97693665D01*
X147938010Y-97875508D01*
X148073267Y-98024155D01*
X148073270Y-98024157D01*
X148246252Y-98126458D01*
X148246258Y-98126461D01*
X148441681Y-98173378D01*
X148642261Y-98160758D01*
X148642260Y-98160758D01*
X148830257Y-98089720D01*
X148830258Y-98089719D01*
X148989059Y-97966541D01*
X149104622Y-97802111D01*
X149166726Y-97610975D01*
X149166727Y-97610974D01*
X149168387Y-97399515D01*
X149168387Y-97399512D01*
X149109292Y-97207421D01*
X148996330Y-97041201D01*
X148996327Y-97041199D01*
X148839482Y-96915541D01*
X148652621Y-96841558D01*
X148452265Y-96825789D01*
X148256126Y-96869631D01*
X148081558Y-96969204D01*
X148081555Y-96969206D01*
X147943979Y-97115708D01*
X147855561Y-97296192D01*
X147855560Y-97296197D01*
X147824122Y-97494692D01*
X146166905Y-97494692D01*
X146109292Y-97307421D01*
X145996330Y-97141201D01*
X145996327Y-97141199D01*
X145839482Y-97015541D01*
X145652621Y-96941558D01*
X145452265Y-96925789D01*
X145256126Y-96969631D01*
X145081558Y-97069204D01*
X145081555Y-97069206D01*
X144943979Y-97215708D01*
X144855561Y-97396192D01*
X144855560Y-97396197D01*
X144824122Y-97594692D01*
X144600642Y-97594692D01*
X144496330Y-97441201D01*
X144496327Y-97441199D01*
X144339482Y-97315541D01*
X144152621Y-97241558D01*
X143952265Y-97225789D01*
X143756126Y-97269631D01*
X143581558Y-97369204D01*
X143581555Y-97369206D01*
X143443979Y-97515708D01*
X143355561Y-97696192D01*
X143355560Y-97696197D01*
X143324122Y-97894693D01*
X143332549Y-97953906D01*
X143320367Y-98001350D01*
X143264166Y-98026726D01*
X143252265Y-98025789D01*
X143056126Y-98069631D01*
X142881558Y-98169204D01*
X142881555Y-98169206D01*
X142743979Y-98315708D01*
X142655561Y-98496192D01*
X142655560Y-98496197D01*
X142624122Y-98694692D01*
X118800000Y-98694692D01*
X118800000Y-96194679D01*
X139322454Y-96194679D01*
X139350842Y-96394143D01*
X139436622Y-96576433D01*
X139572217Y-96725450D01*
X139745628Y-96828006D01*
X139745632Y-96828007D01*
X139941537Y-96875040D01*
X140142610Y-96862388D01*
X140142618Y-96862387D01*
X140321802Y-96794679D01*
X175822454Y-96794679D01*
X175850842Y-96994143D01*
X175936622Y-97176433D01*
X176072217Y-97325450D01*
X176245628Y-97428006D01*
X176245632Y-97428007D01*
X176441537Y-97475040D01*
X176642610Y-97462388D01*
X176642618Y-97462387D01*
X176831073Y-97391176D01*
X176831073Y-97391175D01*
X176990266Y-97267692D01*
X177106114Y-97102857D01*
X177168371Y-96911249D01*
X177168372Y-96911247D01*
X177170037Y-96699267D01*
X177170037Y-96699264D01*
X177110795Y-96506699D01*
X176997555Y-96340069D01*
X176997552Y-96340067D01*
X176840320Y-96214099D01*
X176652997Y-96139933D01*
X176452147Y-96124125D01*
X176255523Y-96168076D01*
X176255521Y-96168077D01*
X176080527Y-96267892D01*
X176080522Y-96267896D01*
X175942606Y-96414761D01*
X175853971Y-96595689D01*
X175853970Y-96595693D01*
X175822454Y-96794679D01*
X140321802Y-96794679D01*
X140331073Y-96791176D01*
X140331073Y-96791175D01*
X140490266Y-96667692D01*
X140606114Y-96502857D01*
X140668371Y-96311249D01*
X140668372Y-96311247D01*
X140670037Y-96099267D01*
X140670037Y-96099264D01*
X140610795Y-95906699D01*
X140497555Y-95740069D01*
X140497552Y-95740067D01*
X140340320Y-95614099D01*
X140152997Y-95539933D01*
X139952147Y-95524125D01*
X139755523Y-95568076D01*
X139755521Y-95568077D01*
X139580527Y-95667892D01*
X139580522Y-95667896D01*
X139442606Y-95814761D01*
X139353971Y-95995689D01*
X139353970Y-95995693D01*
X139322454Y-96194679D01*
X118800000Y-96194679D01*
X118800000Y-94094692D01*
X123524122Y-94094692D01*
X123552440Y-94293665D01*
X123638010Y-94475508D01*
X123773267Y-94624155D01*
X123773270Y-94624157D01*
X123946252Y-94726458D01*
X123946258Y-94726461D01*
X124141681Y-94773378D01*
X124342261Y-94760758D01*
X124342260Y-94760758D01*
X124530257Y-94689720D01*
X124530258Y-94689719D01*
X124689059Y-94566541D01*
X124804622Y-94402111D01*
X124866726Y-94210975D01*
X124866727Y-94210974D01*
X124867639Y-94094692D01*
X125224122Y-94094692D01*
X125252440Y-94293665D01*
X125338010Y-94475508D01*
X125473267Y-94624155D01*
X125473270Y-94624157D01*
X125646252Y-94726458D01*
X125646258Y-94726461D01*
X125841681Y-94773378D01*
X126042261Y-94760758D01*
X126042260Y-94760758D01*
X126230257Y-94689720D01*
X126230258Y-94689719D01*
X126389059Y-94566541D01*
X126504622Y-94402111D01*
X126566726Y-94210975D01*
X126566727Y-94210974D01*
X126567639Y-94094692D01*
X127024122Y-94094692D01*
X127052440Y-94293665D01*
X127138010Y-94475508D01*
X127273267Y-94624155D01*
X127273268Y-94624156D01*
X127393420Y-94695213D01*
X127422831Y-94734385D01*
X127415930Y-94782879D01*
X127392552Y-94805893D01*
X127281558Y-94869204D01*
X127281555Y-94869206D01*
X127143979Y-95015708D01*
X127055561Y-95196192D01*
X127055560Y-95196197D01*
X127024122Y-95394692D01*
X127052440Y-95593665D01*
X127138010Y-95775508D01*
X127273267Y-95924155D01*
X127273270Y-95924157D01*
X127446252Y-96026458D01*
X127446258Y-96026461D01*
X127641681Y-96073378D01*
X127842261Y-96060758D01*
X127842260Y-96060758D01*
X128030257Y-95989720D01*
X128030258Y-95989719D01*
X128189059Y-95866541D01*
X128304622Y-95702111D01*
X128366726Y-95510975D01*
X128366727Y-95510974D01*
X128368387Y-95299515D01*
X128368387Y-95299512D01*
X128366905Y-95294692D01*
X151624122Y-95294692D01*
X151652440Y-95493665D01*
X151738010Y-95675508D01*
X151873267Y-95824155D01*
X151873270Y-95824157D01*
X152046252Y-95926458D01*
X152046258Y-95926461D01*
X152241681Y-95973378D01*
X152442261Y-95960758D01*
X152442260Y-95960758D01*
X152630257Y-95889720D01*
X152630258Y-95889719D01*
X152789059Y-95766541D01*
X152904622Y-95602111D01*
X152966726Y-95410975D01*
X152966727Y-95410974D01*
X152966776Y-95404679D01*
X165722454Y-95404679D01*
X165750842Y-95604143D01*
X165836622Y-95786433D01*
X165972217Y-95935450D01*
X166145628Y-96038006D01*
X166145632Y-96038007D01*
X166341537Y-96085040D01*
X166542610Y-96072388D01*
X166542618Y-96072387D01*
X166731073Y-96001176D01*
X166731073Y-96001175D01*
X166890266Y-95877692D01*
X167006114Y-95712857D01*
X167068371Y-95521249D01*
X167068372Y-95521247D01*
X167070037Y-95309267D01*
X167070037Y-95309264D01*
X167010795Y-95116699D01*
X166897555Y-94950069D01*
X166897552Y-94950067D01*
X166740320Y-94824099D01*
X166552997Y-94749933D01*
X166352147Y-94734125D01*
X166155523Y-94778076D01*
X166155521Y-94778077D01*
X165980527Y-94877892D01*
X165980522Y-94877896D01*
X165842608Y-95024759D01*
X165842607Y-95024761D01*
X165753971Y-95205689D01*
X165753970Y-95205693D01*
X165722454Y-95404679D01*
X152966776Y-95404679D01*
X152968387Y-95199515D01*
X152968387Y-95199512D01*
X152909292Y-95007421D01*
X152796330Y-94841201D01*
X152796327Y-94841199D01*
X152639482Y-94715541D01*
X152452621Y-94641558D01*
X152252265Y-94625789D01*
X152056126Y-94669631D01*
X151881558Y-94769204D01*
X151881555Y-94769206D01*
X151743979Y-94915708D01*
X151655561Y-95096192D01*
X151655560Y-95096197D01*
X151624122Y-95294692D01*
X128366905Y-95294692D01*
X128309292Y-95107421D01*
X128196330Y-94941201D01*
X128196327Y-94941199D01*
X128039480Y-94815540D01*
X128026189Y-94810278D01*
X127991011Y-94776191D01*
X127990241Y-94727214D01*
X128027122Y-94690905D01*
X128030257Y-94689720D01*
X128030258Y-94689719D01*
X128189059Y-94566541D01*
X128197395Y-94554679D01*
X162882454Y-94554679D01*
X162910842Y-94754143D01*
X162996622Y-94936433D01*
X163132217Y-95085450D01*
X163305628Y-95188006D01*
X163305632Y-95188007D01*
X163501537Y-95235040D01*
X163702610Y-95222388D01*
X163702618Y-95222387D01*
X163891073Y-95151176D01*
X163891073Y-95151175D01*
X164050266Y-95027692D01*
X164166114Y-94862857D01*
X164228371Y-94671249D01*
X164228372Y-94671247D01*
X164230037Y-94459267D01*
X164230037Y-94459264D01*
X164170795Y-94266699D01*
X164057555Y-94100069D01*
X164057552Y-94100067D01*
X163900320Y-93974099D01*
X163712997Y-93899933D01*
X163512147Y-93884125D01*
X163315523Y-93928076D01*
X163315521Y-93928077D01*
X163140527Y-94027892D01*
X163140522Y-94027896D01*
X163002606Y-94174761D01*
X162913971Y-94355689D01*
X162913970Y-94355693D01*
X162882454Y-94554679D01*
X128197395Y-94554679D01*
X128304622Y-94402111D01*
X128366726Y-94210975D01*
X128366727Y-94210974D01*
X128368387Y-93999515D01*
X128368387Y-93999512D01*
X128309292Y-93807421D01*
X128232674Y-93694679D01*
X142122454Y-93694679D01*
X142150842Y-93894143D01*
X142236622Y-94076433D01*
X142372217Y-94225450D01*
X142545628Y-94328006D01*
X142545632Y-94328007D01*
X142741537Y-94375040D01*
X142942610Y-94362388D01*
X142942618Y-94362387D01*
X143131073Y-94291176D01*
X143131073Y-94291175D01*
X143290266Y-94167692D01*
X143406114Y-94002857D01*
X143468371Y-93811249D01*
X143468372Y-93811247D01*
X143470037Y-93599267D01*
X143470037Y-93599264D01*
X143468627Y-93594679D01*
X147822454Y-93594679D01*
X147850842Y-93794143D01*
X147936622Y-93976433D01*
X148072217Y-94125450D01*
X148245628Y-94228006D01*
X148245632Y-94228007D01*
X148441537Y-94275040D01*
X148642610Y-94262388D01*
X148642618Y-94262387D01*
X148831073Y-94191176D01*
X148831073Y-94191175D01*
X148990266Y-94067692D01*
X149106114Y-93902857D01*
X149168371Y-93711249D01*
X149168372Y-93711247D01*
X149170037Y-93499267D01*
X149170037Y-93499264D01*
X149110795Y-93306699D01*
X148997555Y-93140069D01*
X148997552Y-93140067D01*
X148840320Y-93014099D01*
X148652997Y-92939933D01*
X148452147Y-92924125D01*
X148255523Y-92968076D01*
X148255521Y-92968077D01*
X148080527Y-93067892D01*
X148080522Y-93067896D01*
X147942606Y-93214761D01*
X147853971Y-93395689D01*
X147853970Y-93395693D01*
X147822454Y-93594679D01*
X143468627Y-93594679D01*
X143410795Y-93406699D01*
X143297555Y-93240069D01*
X143297552Y-93240067D01*
X143140320Y-93114099D01*
X142952997Y-93039933D01*
X142752147Y-93024125D01*
X142555523Y-93068076D01*
X142555521Y-93068077D01*
X142380527Y-93167892D01*
X142380522Y-93167896D01*
X142242606Y-93314761D01*
X142153971Y-93495689D01*
X142153970Y-93495693D01*
X142122454Y-93694679D01*
X128232674Y-93694679D01*
X128196330Y-93641201D01*
X128196327Y-93641199D01*
X128039482Y-93515541D01*
X127852621Y-93441558D01*
X127652265Y-93425789D01*
X127456126Y-93469631D01*
X127281558Y-93569204D01*
X127281555Y-93569206D01*
X127143979Y-93715708D01*
X127055561Y-93896192D01*
X127055560Y-93896197D01*
X127024122Y-94094692D01*
X126567639Y-94094692D01*
X126568387Y-93999515D01*
X126568387Y-93999512D01*
X126509292Y-93807421D01*
X126396330Y-93641201D01*
X126396327Y-93641199D01*
X126239482Y-93515541D01*
X126052621Y-93441558D01*
X125852265Y-93425789D01*
X125656126Y-93469631D01*
X125481558Y-93569204D01*
X125481555Y-93569206D01*
X125343979Y-93715708D01*
X125255561Y-93896192D01*
X125255560Y-93896197D01*
X125224122Y-94094692D01*
X124867639Y-94094692D01*
X124868387Y-93999515D01*
X124868387Y-93999512D01*
X124809292Y-93807421D01*
X124696330Y-93641201D01*
X124696327Y-93641199D01*
X124539482Y-93515541D01*
X124352621Y-93441558D01*
X124152265Y-93425789D01*
X123956126Y-93469631D01*
X123781558Y-93569204D01*
X123781555Y-93569206D01*
X123643979Y-93715708D01*
X123555561Y-93896192D01*
X123555560Y-93896197D01*
X123524122Y-94094692D01*
X118800000Y-94094692D01*
X118800000Y-91194679D01*
X139622454Y-91194679D01*
X139650842Y-91394143D01*
X139736622Y-91576433D01*
X139872217Y-91725450D01*
X140045628Y-91828006D01*
X140045632Y-91828007D01*
X140241537Y-91875040D01*
X140442610Y-91862388D01*
X140442618Y-91862387D01*
X140631073Y-91791176D01*
X140631073Y-91791175D01*
X140790266Y-91667692D01*
X140906114Y-91502857D01*
X140908766Y-91494692D01*
X151224122Y-91494692D01*
X151252440Y-91693665D01*
X151338010Y-91875508D01*
X151473267Y-92024155D01*
X151473270Y-92024157D01*
X151646252Y-92126458D01*
X151646258Y-92126461D01*
X151841681Y-92173378D01*
X152042259Y-92160758D01*
X152054140Y-92156269D01*
X152103099Y-92157809D01*
X152140122Y-92207120D01*
X152152439Y-92293659D01*
X152152440Y-92293664D01*
X152238011Y-92475508D01*
X152279897Y-92521541D01*
X152296490Y-92567629D01*
X152275634Y-92611950D01*
X152246522Y-92627073D01*
X152056126Y-92669631D01*
X151881558Y-92769204D01*
X151881555Y-92769206D01*
X151743979Y-92915708D01*
X151655561Y-93096192D01*
X151655560Y-93096197D01*
X151624122Y-93294692D01*
X151652440Y-93493665D01*
X151738010Y-93675508D01*
X151873267Y-93824155D01*
X151873270Y-93824157D01*
X152046252Y-93926458D01*
X152046258Y-93926461D01*
X152241681Y-93973378D01*
X152442261Y-93960758D01*
X152442260Y-93960758D01*
X152630257Y-93889720D01*
X152630258Y-93889719D01*
X152789059Y-93766541D01*
X152904622Y-93602111D01*
X152966726Y-93410975D01*
X152966727Y-93410974D01*
X152968387Y-93199515D01*
X152968387Y-93199512D01*
X152909292Y-93007421D01*
X152812954Y-92865663D01*
X152803021Y-92817697D01*
X152829914Y-92776757D01*
X152861868Y-92765816D01*
X152942261Y-92760758D01*
X152942260Y-92760758D01*
X153117098Y-92694692D01*
X156324122Y-92694692D01*
X156352440Y-92893665D01*
X156438010Y-93075508D01*
X156573267Y-93224155D01*
X156573270Y-93224157D01*
X156746252Y-93326458D01*
X156746258Y-93326461D01*
X156941681Y-93373378D01*
X157142261Y-93360758D01*
X157142260Y-93360758D01*
X157330257Y-93289720D01*
X157330258Y-93289719D01*
X157489059Y-93166541D01*
X157604622Y-93002111D01*
X157666726Y-92810975D01*
X157666727Y-92810974D01*
X157668387Y-92599515D01*
X157668387Y-92599512D01*
X157609292Y-92407421D01*
X157496330Y-92241201D01*
X157496327Y-92241199D01*
X157339482Y-92115541D01*
X157152621Y-92041558D01*
X156952265Y-92025789D01*
X156756126Y-92069631D01*
X156581558Y-92169204D01*
X156581555Y-92169206D01*
X156443979Y-92315708D01*
X156355561Y-92496192D01*
X156355560Y-92496197D01*
X156324122Y-92694692D01*
X153117098Y-92694692D01*
X153130257Y-92689720D01*
X153130258Y-92689719D01*
X153289059Y-92566541D01*
X153404622Y-92402111D01*
X153466726Y-92210975D01*
X153466727Y-92210974D01*
X153468387Y-91999515D01*
X153468387Y-91999512D01*
X153409292Y-91807421D01*
X153296330Y-91641201D01*
X153296327Y-91641199D01*
X153139482Y-91515541D01*
X152952621Y-91441558D01*
X152752265Y-91425789D01*
X152645236Y-91449712D01*
X152596982Y-91441290D01*
X152572418Y-91403410D01*
X152569831Y-91404206D01*
X152509292Y-91207421D01*
X152500642Y-91194692D01*
X154924122Y-91194692D01*
X154952440Y-91393665D01*
X155038010Y-91575508D01*
X155173267Y-91724155D01*
X155173270Y-91724157D01*
X155346252Y-91826458D01*
X155346258Y-91826461D01*
X155541681Y-91873378D01*
X155742261Y-91860758D01*
X155742260Y-91860758D01*
X155930257Y-91789720D01*
X155930258Y-91789719D01*
X156089059Y-91666541D01*
X156204622Y-91502111D01*
X156266726Y-91310975D01*
X156266727Y-91310974D01*
X156268387Y-91099515D01*
X156268387Y-91099512D01*
X156209292Y-90907421D01*
X156096330Y-90741201D01*
X156096327Y-90741199D01*
X155939482Y-90615541D01*
X155752621Y-90541558D01*
X155552265Y-90525789D01*
X155356126Y-90569631D01*
X155181558Y-90669204D01*
X155181555Y-90669206D01*
X155043979Y-90815708D01*
X154955561Y-90996192D01*
X154955560Y-90996197D01*
X154924122Y-91194692D01*
X152500642Y-91194692D01*
X152396330Y-91041201D01*
X152396327Y-91041199D01*
X152239482Y-90915541D01*
X152052621Y-90841558D01*
X151852265Y-90825789D01*
X151656126Y-90869631D01*
X151481558Y-90969204D01*
X151481555Y-90969206D01*
X151343979Y-91115708D01*
X151255561Y-91296192D01*
X151255560Y-91296197D01*
X151224122Y-91494692D01*
X140908766Y-91494692D01*
X140968371Y-91311249D01*
X140968372Y-91311247D01*
X140970037Y-91099267D01*
X140970037Y-91099264D01*
X140910795Y-90906699D01*
X140797555Y-90740069D01*
X140797552Y-90740067D01*
X140640320Y-90614099D01*
X140452997Y-90539933D01*
X140252147Y-90524125D01*
X140055523Y-90568076D01*
X140055521Y-90568077D01*
X139880527Y-90667892D01*
X139880522Y-90667896D01*
X139742606Y-90814761D01*
X139653971Y-90995689D01*
X139653970Y-90995693D01*
X139622454Y-91194679D01*
X118800000Y-91194679D01*
X118800000Y-90394692D01*
X119724122Y-90394692D01*
X119752440Y-90593665D01*
X119838010Y-90775508D01*
X119973267Y-90924155D01*
X119973270Y-90924157D01*
X120146252Y-91026458D01*
X120146258Y-91026461D01*
X120341681Y-91073378D01*
X120542261Y-91060758D01*
X120542260Y-91060758D01*
X120730257Y-90989720D01*
X120730258Y-90989719D01*
X120889059Y-90866541D01*
X121004622Y-90702111D01*
X121066726Y-90510975D01*
X121066727Y-90510974D01*
X121068387Y-90299515D01*
X121068387Y-90299512D01*
X121066901Y-90294679D01*
X161722454Y-90294679D01*
X161750842Y-90494143D01*
X161836622Y-90676433D01*
X161972217Y-90825450D01*
X162145628Y-90928006D01*
X162145632Y-90928007D01*
X162341537Y-90975040D01*
X162542610Y-90962388D01*
X162542618Y-90962387D01*
X162731073Y-90891176D01*
X162731073Y-90891175D01*
X162890266Y-90767692D01*
X163006114Y-90602857D01*
X163068371Y-90411249D01*
X163068372Y-90411247D01*
X163070037Y-90199267D01*
X163070037Y-90199264D01*
X163010795Y-90006699D01*
X162897555Y-89840069D01*
X162897552Y-89840067D01*
X162740320Y-89714099D01*
X162552997Y-89639933D01*
X162352147Y-89624125D01*
X162155523Y-89668076D01*
X162155521Y-89668077D01*
X161980527Y-89767892D01*
X161980522Y-89767896D01*
X161842606Y-89914761D01*
X161753971Y-90095689D01*
X161753970Y-90095693D01*
X161722454Y-90294679D01*
X121066901Y-90294679D01*
X121009292Y-90107421D01*
X120896330Y-89941201D01*
X120896327Y-89941199D01*
X120739482Y-89815541D01*
X120552621Y-89741558D01*
X120352265Y-89725789D01*
X120156126Y-89769631D01*
X119981558Y-89869204D01*
X119981555Y-89869206D01*
X119843979Y-90015708D01*
X119755561Y-90196192D01*
X119755560Y-90196197D01*
X119724122Y-90394692D01*
X118800000Y-90394692D01*
X118800000Y-88494692D01*
X123724122Y-88494692D01*
X123752440Y-88693665D01*
X123838010Y-88875508D01*
X123973267Y-89024155D01*
X123973270Y-89024157D01*
X124146252Y-89126458D01*
X124146258Y-89126461D01*
X124341681Y-89173378D01*
X124542261Y-89160758D01*
X124542260Y-89160758D01*
X124717133Y-89094679D01*
X140422454Y-89094679D01*
X140450842Y-89294143D01*
X140536622Y-89476433D01*
X140672217Y-89625450D01*
X140845628Y-89728006D01*
X140845632Y-89728007D01*
X141041537Y-89775040D01*
X141242610Y-89762388D01*
X141242618Y-89762387D01*
X141431073Y-89691176D01*
X141431073Y-89691175D01*
X141590266Y-89567692D01*
X141706114Y-89402857D01*
X141768371Y-89211249D01*
X141768372Y-89211247D01*
X141770037Y-88999267D01*
X141770037Y-88999264D01*
X141710795Y-88806699D01*
X141597555Y-88640069D01*
X141597552Y-88640067D01*
X141540900Y-88594679D01*
X142422454Y-88594679D01*
X142450842Y-88794143D01*
X142536622Y-88976433D01*
X142672217Y-89125450D01*
X142845628Y-89228006D01*
X142845632Y-89228007D01*
X143041537Y-89275040D01*
X143242610Y-89262388D01*
X143242618Y-89262387D01*
X143431073Y-89191176D01*
X143431073Y-89191175D01*
X143590266Y-89067692D01*
X143706114Y-88902857D01*
X143768371Y-88711249D01*
X143768372Y-88711247D01*
X143770037Y-88499267D01*
X143770037Y-88499264D01*
X143768627Y-88494679D01*
X155622454Y-88494679D01*
X155650842Y-88694143D01*
X155736622Y-88876433D01*
X155872217Y-89025450D01*
X156045628Y-89128006D01*
X156045632Y-89128007D01*
X156241537Y-89175040D01*
X156442610Y-89162388D01*
X156442618Y-89162387D01*
X156631073Y-89091176D01*
X156631073Y-89091175D01*
X156790266Y-88967692D01*
X156906114Y-88802857D01*
X156968371Y-88611249D01*
X156968372Y-88611247D01*
X156970037Y-88399267D01*
X156970037Y-88399264D01*
X156910795Y-88206699D01*
X156797555Y-88040069D01*
X156797552Y-88040067D01*
X156640320Y-87914099D01*
X156452997Y-87839933D01*
X156252147Y-87824125D01*
X156055523Y-87868076D01*
X156055521Y-87868077D01*
X155880527Y-87967892D01*
X155880522Y-87967896D01*
X155742606Y-88114761D01*
X155653971Y-88295689D01*
X155653970Y-88295693D01*
X155622454Y-88494679D01*
X143768627Y-88494679D01*
X143710795Y-88306699D01*
X143597555Y-88140069D01*
X143597552Y-88140067D01*
X143440320Y-88014099D01*
X143252997Y-87939933D01*
X143052147Y-87924125D01*
X142855523Y-87968076D01*
X142855521Y-87968077D01*
X142680527Y-88067892D01*
X142680522Y-88067896D01*
X142542606Y-88214761D01*
X142453971Y-88395689D01*
X142453970Y-88395693D01*
X142422454Y-88594679D01*
X141540900Y-88594679D01*
X141440320Y-88514099D01*
X141252997Y-88439933D01*
X141052147Y-88424125D01*
X140855523Y-88468076D01*
X140855521Y-88468077D01*
X140680527Y-88567892D01*
X140680522Y-88567896D01*
X140542606Y-88714761D01*
X140453971Y-88895689D01*
X140453970Y-88895693D01*
X140422454Y-89094679D01*
X124717133Y-89094679D01*
X124730257Y-89089720D01*
X124730258Y-89089719D01*
X124889059Y-88966541D01*
X125004622Y-88802111D01*
X125066726Y-88610975D01*
X125066727Y-88610974D01*
X125068387Y-88399515D01*
X125068387Y-88399512D01*
X125009292Y-88207421D01*
X124896330Y-88041201D01*
X124896327Y-88041199D01*
X124739482Y-87915541D01*
X124686824Y-87894692D01*
X134324122Y-87894692D01*
X134352440Y-88093665D01*
X134438010Y-88275508D01*
X134573267Y-88424155D01*
X134573270Y-88424157D01*
X134746252Y-88526458D01*
X134746258Y-88526461D01*
X134941681Y-88573378D01*
X135142261Y-88560758D01*
X135142260Y-88560758D01*
X135330257Y-88489720D01*
X135330258Y-88489719D01*
X135489059Y-88366541D01*
X135604622Y-88202111D01*
X135666726Y-88010975D01*
X135666727Y-88010974D01*
X135668387Y-87799515D01*
X135668387Y-87799512D01*
X135609292Y-87607421D01*
X135496330Y-87441201D01*
X135496327Y-87441199D01*
X135339482Y-87315541D01*
X135152621Y-87241558D01*
X134952265Y-87225789D01*
X134756126Y-87269631D01*
X134581558Y-87369204D01*
X134581555Y-87369206D01*
X134443979Y-87515708D01*
X134355561Y-87696192D01*
X134355560Y-87696197D01*
X134324122Y-87894692D01*
X124686824Y-87894692D01*
X124552621Y-87841558D01*
X124352265Y-87825789D01*
X124156126Y-87869631D01*
X123981558Y-87969204D01*
X123981555Y-87969206D01*
X123843979Y-88115708D01*
X123755561Y-88296192D01*
X123755560Y-88296197D01*
X123724122Y-88494692D01*
X118800000Y-88494692D01*
X118800000Y-86794679D01*
X159922454Y-86794679D01*
X159950842Y-86994143D01*
X160036622Y-87176433D01*
X160172217Y-87325450D01*
X160345628Y-87428006D01*
X160345632Y-87428007D01*
X160541537Y-87475040D01*
X160742610Y-87462388D01*
X160742618Y-87462387D01*
X160931073Y-87391176D01*
X160931073Y-87391175D01*
X161090266Y-87267692D01*
X161206114Y-87102857D01*
X161268371Y-86911249D01*
X161268372Y-86911247D01*
X161270037Y-86699267D01*
X161270037Y-86699264D01*
X161210795Y-86506699D01*
X161097555Y-86340069D01*
X161097552Y-86340067D01*
X160940320Y-86214099D01*
X160752997Y-86139933D01*
X160552147Y-86124125D01*
X160355523Y-86168076D01*
X160355521Y-86168077D01*
X160180527Y-86267892D01*
X160180522Y-86267896D01*
X160042606Y-86414761D01*
X159953971Y-86595689D01*
X159953970Y-86595693D01*
X159922454Y-86794679D01*
X118800000Y-86794679D01*
X118800000Y-83872416D01*
X118818745Y-83827161D01*
X118864000Y-83808416D01*
X118921909Y-83845166D01*
X118936622Y-83876433D01*
X119072217Y-84025450D01*
X119245628Y-84128006D01*
X119245632Y-84128007D01*
X119441537Y-84175040D01*
X119642610Y-84162388D01*
X119642618Y-84162387D01*
X119831073Y-84091176D01*
X119831073Y-84091175D01*
X119990266Y-83967692D01*
X120106114Y-83802857D01*
X120168371Y-83611249D01*
X120168372Y-83611247D01*
X120169287Y-83494679D01*
X124322454Y-83494679D01*
X124350842Y-83694143D01*
X124436624Y-83876435D01*
X124509890Y-83956953D01*
X124526483Y-84003040D01*
X124509208Y-84043837D01*
X124442607Y-84114759D01*
X124353971Y-84295689D01*
X124353970Y-84295693D01*
X124322454Y-84494679D01*
X124350842Y-84694143D01*
X124436624Y-84876435D01*
X124509890Y-84956953D01*
X124526483Y-85003040D01*
X124509208Y-85043837D01*
X124442607Y-85114759D01*
X124353971Y-85295689D01*
X124353970Y-85295693D01*
X124322454Y-85494679D01*
X124350842Y-85694143D01*
X124436622Y-85876433D01*
X124572217Y-86025450D01*
X124745628Y-86128006D01*
X124745632Y-86128007D01*
X124941537Y-86175040D01*
X125142610Y-86162388D01*
X125142618Y-86162387D01*
X125331073Y-86091176D01*
X125331073Y-86091175D01*
X125490266Y-85967692D01*
X125606114Y-85802857D01*
X125641263Y-85694679D01*
X165422454Y-85694679D01*
X165450842Y-85894143D01*
X165536622Y-86076433D01*
X165672217Y-86225450D01*
X165845628Y-86328006D01*
X165845632Y-86328007D01*
X166041537Y-86375040D01*
X166242610Y-86362388D01*
X166242618Y-86362387D01*
X166431073Y-86291176D01*
X166431073Y-86291175D01*
X166590266Y-86167692D01*
X166706114Y-86002857D01*
X166768371Y-85811249D01*
X166768372Y-85811247D01*
X166770037Y-85599267D01*
X166770037Y-85599264D01*
X166710795Y-85406699D01*
X166597555Y-85240069D01*
X166597552Y-85240067D01*
X166440320Y-85114099D01*
X166252997Y-85039933D01*
X166052147Y-85024125D01*
X165855523Y-85068076D01*
X165855521Y-85068077D01*
X165680527Y-85167892D01*
X165680522Y-85167896D01*
X165542606Y-85314761D01*
X165453971Y-85495689D01*
X165453970Y-85495693D01*
X165422454Y-85694679D01*
X125641263Y-85694679D01*
X125668371Y-85611249D01*
X125668372Y-85611247D01*
X125670037Y-85399267D01*
X125670037Y-85399264D01*
X125610795Y-85206699D01*
X125494864Y-85036110D01*
X125496831Y-85034773D01*
X125482649Y-84996327D01*
X125494238Y-84962042D01*
X125606114Y-84802858D01*
X125668371Y-84611249D01*
X125668372Y-84611247D01*
X125670037Y-84399267D01*
X125670037Y-84399264D01*
X125610795Y-84206699D01*
X125494864Y-84036110D01*
X125496831Y-84034773D01*
X125482649Y-83996327D01*
X125494238Y-83962042D01*
X125606114Y-83802858D01*
X125668371Y-83611249D01*
X125668372Y-83611247D01*
X125670037Y-83399267D01*
X125670037Y-83399264D01*
X125610795Y-83206699D01*
X125497555Y-83040069D01*
X125497552Y-83040067D01*
X125340320Y-82914099D01*
X125152997Y-82839933D01*
X124952147Y-82824125D01*
X124755523Y-82868076D01*
X124755521Y-82868077D01*
X124580527Y-82967892D01*
X124580522Y-82967896D01*
X124442606Y-83114761D01*
X124353971Y-83295689D01*
X124353970Y-83295693D01*
X124322454Y-83494679D01*
X120169287Y-83494679D01*
X120170037Y-83399267D01*
X120170037Y-83399264D01*
X120110795Y-83206699D01*
X119997555Y-83040069D01*
X119997552Y-83040067D01*
X119840320Y-82914099D01*
X119652997Y-82839933D01*
X119452147Y-82824125D01*
X119255523Y-82868076D01*
X119255521Y-82868077D01*
X119080527Y-82967892D01*
X119080522Y-82967896D01*
X118942606Y-83114761D01*
X118921474Y-83157898D01*
X118884731Y-83190291D01*
X118835844Y-83187216D01*
X118800000Y-83129742D01*
X118800000Y-80818015D01*
X118818745Y-80772760D01*
X118864000Y-80754015D01*
X118921909Y-80790765D01*
X118965460Y-80883315D01*
X119169968Y-81225026D01*
X119169985Y-81225050D01*
X119407432Y-81544773D01*
X119407438Y-81544780D01*
X119675482Y-81839357D01*
X119971430Y-82105829D01*
X119971459Y-82105853D01*
X120292418Y-82341621D01*
X120635225Y-82544357D01*
X120996462Y-82712037D01*
X120996470Y-82712040D01*
X121372579Y-82843016D01*
X121759850Y-82935991D01*
X122154428Y-82990041D01*
X122154432Y-82990042D01*
X122552428Y-83004635D01*
X122949902Y-82979628D01*
X123342944Y-82915264D01*
X123727618Y-82812190D01*
X123727646Y-82812181D01*
X123773929Y-82794692D01*
X148439122Y-82794692D01*
X148467440Y-82993665D01*
X148553010Y-83175508D01*
X148688267Y-83324155D01*
X148688270Y-83324157D01*
X148861252Y-83426458D01*
X148861258Y-83426461D01*
X149056681Y-83473378D01*
X149257261Y-83460758D01*
X149257260Y-83460758D01*
X149432133Y-83394679D01*
X151822454Y-83394679D01*
X151850842Y-83594143D01*
X151936622Y-83776433D01*
X152072217Y-83925450D01*
X152245628Y-84028006D01*
X152245632Y-84028007D01*
X152441537Y-84075040D01*
X152642610Y-84062388D01*
X152642618Y-84062387D01*
X152831073Y-83991176D01*
X152831073Y-83991175D01*
X152955474Y-83894679D01*
X159122454Y-83894679D01*
X159150842Y-84094143D01*
X159236624Y-84276435D01*
X159309890Y-84356953D01*
X159326483Y-84403040D01*
X159309208Y-84443837D01*
X159242607Y-84514759D01*
X159153971Y-84695689D01*
X159153970Y-84695693D01*
X159122454Y-84894679D01*
X159150842Y-85094143D01*
X159236622Y-85276433D01*
X159372217Y-85425450D01*
X159545628Y-85528006D01*
X159545632Y-85528007D01*
X159741537Y-85575040D01*
X159942610Y-85562388D01*
X159942618Y-85562387D01*
X160131073Y-85491176D01*
X160131073Y-85491175D01*
X160290266Y-85367692D01*
X160406114Y-85202857D01*
X160468371Y-85011249D01*
X160468372Y-85011247D01*
X160470037Y-84799267D01*
X160470037Y-84799264D01*
X160410795Y-84606699D01*
X160294864Y-84436110D01*
X160296831Y-84434773D01*
X160282649Y-84396327D01*
X160294238Y-84362042D01*
X160406114Y-84202858D01*
X160468371Y-84011249D01*
X160468372Y-84011247D01*
X160470037Y-83799267D01*
X160470037Y-83799264D01*
X160410795Y-83606699D01*
X160297555Y-83440069D01*
X160297552Y-83440067D01*
X160140320Y-83314099D01*
X159952997Y-83239933D01*
X159752147Y-83224125D01*
X159555523Y-83268076D01*
X159555521Y-83268077D01*
X159380527Y-83367892D01*
X159380522Y-83367896D01*
X159242606Y-83514761D01*
X159153971Y-83695689D01*
X159153970Y-83695693D01*
X159122454Y-83894679D01*
X152955474Y-83894679D01*
X152990266Y-83867692D01*
X153106114Y-83702857D01*
X153168371Y-83511249D01*
X153168372Y-83511247D01*
X153170037Y-83299267D01*
X153170037Y-83299264D01*
X153110795Y-83106699D01*
X152997555Y-82940069D01*
X152997552Y-82940067D01*
X152840320Y-82814099D01*
X152652997Y-82739933D01*
X152452147Y-82724125D01*
X152255523Y-82768076D01*
X152255521Y-82768077D01*
X152080527Y-82867892D01*
X152080522Y-82867896D01*
X151942606Y-83014761D01*
X151853971Y-83195689D01*
X151853970Y-83195693D01*
X151822454Y-83394679D01*
X149432133Y-83394679D01*
X149445257Y-83389720D01*
X149445258Y-83389719D01*
X149604059Y-83266541D01*
X149719622Y-83102111D01*
X149781726Y-82910975D01*
X149781727Y-82910974D01*
X149783387Y-82699515D01*
X149783387Y-82699512D01*
X149724292Y-82507421D01*
X149611330Y-82341201D01*
X149611327Y-82341199D01*
X149454482Y-82215541D01*
X149267621Y-82141558D01*
X149067265Y-82125789D01*
X148871126Y-82169631D01*
X148696558Y-82269204D01*
X148696555Y-82269206D01*
X148558979Y-82415708D01*
X148470561Y-82596192D01*
X148470560Y-82596197D01*
X148439122Y-82794692D01*
X123773929Y-82794692D01*
X124100169Y-82671417D01*
X124100171Y-82671417D01*
X124456915Y-82494328D01*
X124456917Y-82494327D01*
X124794301Y-82282686D01*
X125108990Y-82038588D01*
X125397871Y-81764451D01*
X125397881Y-81764440D01*
X125658114Y-81462958D01*
X125658116Y-81462956D01*
X125776373Y-81294692D01*
X140824122Y-81294692D01*
X140852440Y-81493665D01*
X140938010Y-81675508D01*
X141073267Y-81824155D01*
X141073270Y-81824157D01*
X141246252Y-81926458D01*
X141246258Y-81926461D01*
X141441681Y-81973378D01*
X141642261Y-81960758D01*
X141642260Y-81960758D01*
X141830257Y-81889720D01*
X141830258Y-81889719D01*
X141989059Y-81766541D01*
X142104622Y-81602111D01*
X142166726Y-81410975D01*
X142166727Y-81410974D01*
X142168387Y-81199515D01*
X142168387Y-81199512D01*
X142109292Y-81007421D01*
X141996330Y-80841201D01*
X141996327Y-80841199D01*
X141839482Y-80715541D01*
X141652621Y-80641558D01*
X141452265Y-80625789D01*
X141256126Y-80669631D01*
X141081558Y-80769204D01*
X141081555Y-80769206D01*
X140943979Y-80915708D01*
X140855561Y-81096192D01*
X140855560Y-81096197D01*
X140824122Y-81294692D01*
X125776373Y-81294692D01*
X125887119Y-81137117D01*
X126082632Y-80790139D01*
X126242714Y-80425462D01*
X126365785Y-80046689D01*
X126450627Y-79657562D01*
X126496404Y-79261930D01*
X126498292Y-79021408D01*
X128520000Y-79021408D01*
X128520000Y-79210592D01*
X128520001Y-79210601D01*
X128559333Y-79395641D01*
X128559336Y-79395650D01*
X128636285Y-79568481D01*
X128747483Y-79721531D01*
X128747484Y-79721532D01*
X128888080Y-79848126D01*
X129051920Y-79942718D01*
X129231854Y-80001183D01*
X129419996Y-80020957D01*
X129420004Y-80020957D01*
X129608147Y-80001183D01*
X129608146Y-80001183D01*
X129628162Y-79994679D01*
X131322454Y-79994679D01*
X131350842Y-80194143D01*
X131436622Y-80376433D01*
X131572217Y-80525450D01*
X131745628Y-80628006D01*
X131745632Y-80628007D01*
X131941537Y-80675040D01*
X132142610Y-80662388D01*
X132142618Y-80662387D01*
X132331073Y-80591176D01*
X132331073Y-80591175D01*
X132490268Y-80467690D01*
X132490269Y-80467690D01*
X132600191Y-80311287D01*
X132641549Y-80285040D01*
X132689352Y-80295726D01*
X132710461Y-80320837D01*
X132736623Y-80376433D01*
X132872217Y-80525450D01*
X133045628Y-80628006D01*
X133045632Y-80628007D01*
X133241537Y-80675040D01*
X133442610Y-80662388D01*
X133442618Y-80662387D01*
X133631073Y-80591176D01*
X133631073Y-80591175D01*
X133790266Y-80467692D01*
X133906114Y-80302857D01*
X133968371Y-80111249D01*
X133968372Y-80111247D01*
X133970037Y-79899267D01*
X133970037Y-79899264D01*
X133910795Y-79706699D01*
X133797555Y-79540069D01*
X133797552Y-79540067D01*
X133717001Y-79475532D01*
X137347547Y-79475532D01*
X137347547Y-79475537D01*
X137380610Y-79684292D01*
X137451161Y-79883519D01*
X137556840Y-80066562D01*
X137694107Y-80227278D01*
X137858358Y-80360287D01*
X138044100Y-80461136D01*
X138245113Y-80526448D01*
X138245117Y-80526449D01*
X138454660Y-80554036D01*
X138665716Y-80542975D01*
X138665724Y-80542974D01*
X138871237Y-80493635D01*
X139064323Y-80407667D01*
X139238505Y-80287955D01*
X139387955Y-80138505D01*
X139507667Y-79964323D01*
X139593635Y-79771237D01*
X139642974Y-79565724D01*
X139645335Y-79475532D01*
X139887547Y-79475532D01*
X139887547Y-79475537D01*
X139920610Y-79684292D01*
X139991161Y-79883519D01*
X140096840Y-80066562D01*
X140234107Y-80227278D01*
X140398358Y-80360287D01*
X140584100Y-80461136D01*
X140785113Y-80526448D01*
X140785117Y-80526449D01*
X140994660Y-80554036D01*
X141205716Y-80542975D01*
X141205724Y-80542974D01*
X141411237Y-80493635D01*
X141604323Y-80407667D01*
X141778505Y-80287955D01*
X141927955Y-80138505D01*
X142047667Y-79964323D01*
X142133635Y-79771237D01*
X142182974Y-79565724D01*
X142185335Y-79475532D01*
X142427547Y-79475532D01*
X142427547Y-79475537D01*
X142460610Y-79684292D01*
X142531161Y-79883519D01*
X142636840Y-80066562D01*
X142774107Y-80227278D01*
X142938358Y-80360287D01*
X143124100Y-80461136D01*
X143325113Y-80526448D01*
X143325117Y-80526449D01*
X143534660Y-80554036D01*
X143745716Y-80542975D01*
X143745724Y-80542974D01*
X143951237Y-80493635D01*
X144144323Y-80407667D01*
X144318505Y-80287955D01*
X144467955Y-80138505D01*
X144587667Y-79964323D01*
X144673635Y-79771237D01*
X144722974Y-79565724D01*
X144725335Y-79475532D01*
X144967547Y-79475532D01*
X144967547Y-79475537D01*
X145000610Y-79684292D01*
X145071161Y-79883519D01*
X145176840Y-80066562D01*
X145314107Y-80227278D01*
X145478358Y-80360287D01*
X145664100Y-80461136D01*
X145865113Y-80526448D01*
X145865117Y-80526449D01*
X146074660Y-80554036D01*
X146285716Y-80542975D01*
X146285724Y-80542974D01*
X146491237Y-80493635D01*
X146684323Y-80407667D01*
X146858505Y-80287955D01*
X147007955Y-80138505D01*
X147127667Y-79964323D01*
X147213635Y-79771237D01*
X147262974Y-79565724D01*
X147265335Y-79475532D01*
X147507547Y-79475532D01*
X147507547Y-79475537D01*
X147540610Y-79684292D01*
X147611161Y-79883519D01*
X147716840Y-80066562D01*
X147854107Y-80227278D01*
X148018358Y-80360287D01*
X148204100Y-80461136D01*
X148405113Y-80526448D01*
X148405117Y-80526449D01*
X148614660Y-80554036D01*
X148825716Y-80542975D01*
X148825724Y-80542974D01*
X149031237Y-80493635D01*
X149224323Y-80407667D01*
X149398505Y-80287955D01*
X149547955Y-80138505D01*
X149667667Y-79964323D01*
X149753635Y-79771237D01*
X149802974Y-79565724D01*
X149805335Y-79475532D01*
X150047547Y-79475532D01*
X150047547Y-79475537D01*
X150080610Y-79684292D01*
X150151161Y-79883519D01*
X150256840Y-80066562D01*
X150394107Y-80227278D01*
X150558358Y-80360287D01*
X150744100Y-80461136D01*
X150945113Y-80526448D01*
X150945117Y-80526449D01*
X151154660Y-80554036D01*
X151365716Y-80542975D01*
X151365724Y-80542974D01*
X151571237Y-80493635D01*
X151764323Y-80407667D01*
X151938505Y-80287955D01*
X152087955Y-80138505D01*
X152207667Y-79964323D01*
X152293635Y-79771237D01*
X152342974Y-79565724D01*
X152345335Y-79475532D01*
X152587547Y-79475532D01*
X152587547Y-79475537D01*
X152620610Y-79684292D01*
X152691161Y-79883519D01*
X152796840Y-80066562D01*
X152934107Y-80227278D01*
X153098358Y-80360287D01*
X153284100Y-80461136D01*
X153485113Y-80526448D01*
X153485117Y-80526449D01*
X153694660Y-80554036D01*
X153905716Y-80542975D01*
X153905724Y-80542974D01*
X154111237Y-80493635D01*
X154304323Y-80407667D01*
X154478505Y-80287955D01*
X154627955Y-80138505D01*
X154747667Y-79964323D01*
X154833635Y-79771237D01*
X154882974Y-79565724D01*
X154885335Y-79475532D01*
X155127547Y-79475532D01*
X155127547Y-79475537D01*
X155160610Y-79684292D01*
X155231161Y-79883519D01*
X155336840Y-80066562D01*
X155474107Y-80227278D01*
X155638358Y-80360287D01*
X155824100Y-80461136D01*
X156025113Y-80526448D01*
X156025117Y-80526449D01*
X156234660Y-80554036D01*
X156445716Y-80542975D01*
X156445724Y-80542974D01*
X156651237Y-80493635D01*
X156844323Y-80407667D01*
X157018505Y-80287955D01*
X157167955Y-80138505D01*
X157287667Y-79964323D01*
X157373635Y-79771237D01*
X157422974Y-79565724D01*
X157430081Y-79294322D01*
X157430081Y-79294317D01*
X157391567Y-79086511D01*
X157391565Y-79086506D01*
X157315823Y-78889192D01*
X157205389Y-78708979D01*
X157205385Y-78708973D01*
X157063970Y-78551917D01*
X157063969Y-78551915D01*
X156896285Y-78423247D01*
X156896279Y-78423244D01*
X156707980Y-78327300D01*
X156707960Y-78327292D01*
X156505318Y-78267266D01*
X156505313Y-78267265D01*
X156295120Y-78245173D01*
X156084408Y-78261757D01*
X156084405Y-78261758D01*
X155880261Y-78316457D01*
X155880258Y-78316459D01*
X155689493Y-78407449D01*
X155689494Y-78407449D01*
X155518503Y-78531682D01*
X155373016Y-78684994D01*
X155257905Y-78862250D01*
X155257905Y-78862251D01*
X155177026Y-79057509D01*
X155177021Y-79057526D01*
X155133080Y-79264250D01*
X155133079Y-79264255D01*
X155127547Y-79475532D01*
X154885335Y-79475532D01*
X154890081Y-79294322D01*
X154890081Y-79294317D01*
X154851567Y-79086511D01*
X154851565Y-79086506D01*
X154775823Y-78889192D01*
X154665389Y-78708979D01*
X154665385Y-78708973D01*
X154523970Y-78551917D01*
X154523969Y-78551915D01*
X154356285Y-78423247D01*
X154356279Y-78423244D01*
X154167980Y-78327300D01*
X154167960Y-78327292D01*
X153965318Y-78267266D01*
X153965313Y-78267265D01*
X153755121Y-78245173D01*
X153544408Y-78261757D01*
X153544405Y-78261758D01*
X153340261Y-78316457D01*
X153340258Y-78316459D01*
X153149493Y-78407449D01*
X152978503Y-78531682D01*
X152833016Y-78684994D01*
X152717905Y-78862250D01*
X152717905Y-78862251D01*
X152637026Y-79057509D01*
X152637021Y-79057526D01*
X152593080Y-79264250D01*
X152593079Y-79264255D01*
X152587547Y-79475532D01*
X152345335Y-79475532D01*
X152350081Y-79294322D01*
X152350081Y-79294317D01*
X152311567Y-79086511D01*
X152311565Y-79086506D01*
X152235823Y-78889192D01*
X152125389Y-78708979D01*
X152125385Y-78708973D01*
X151983970Y-78551917D01*
X151983969Y-78551915D01*
X151816285Y-78423247D01*
X151816279Y-78423244D01*
X151627980Y-78327300D01*
X151627960Y-78327292D01*
X151425318Y-78267266D01*
X151425313Y-78267265D01*
X151215120Y-78245173D01*
X151004408Y-78261757D01*
X151004405Y-78261758D01*
X150800261Y-78316457D01*
X150800258Y-78316459D01*
X150609493Y-78407449D01*
X150609494Y-78407449D01*
X150438503Y-78531682D01*
X150293016Y-78684994D01*
X150177905Y-78862250D01*
X150177905Y-78862251D01*
X150097026Y-79057509D01*
X150097021Y-79057526D01*
X150053080Y-79264250D01*
X150053079Y-79264255D01*
X150047547Y-79475532D01*
X149805335Y-79475532D01*
X149810081Y-79294322D01*
X149810081Y-79294317D01*
X149771567Y-79086511D01*
X149771565Y-79086506D01*
X149695823Y-78889192D01*
X149585389Y-78708979D01*
X149585385Y-78708973D01*
X149443970Y-78551917D01*
X149443969Y-78551915D01*
X149276285Y-78423247D01*
X149276279Y-78423244D01*
X149087980Y-78327300D01*
X149087960Y-78327292D01*
X148885318Y-78267266D01*
X148885313Y-78267265D01*
X148675120Y-78245173D01*
X148464408Y-78261757D01*
X148464405Y-78261758D01*
X148260261Y-78316457D01*
X148260258Y-78316459D01*
X148069493Y-78407449D01*
X148069494Y-78407449D01*
X147898503Y-78531682D01*
X147753016Y-78684994D01*
X147637905Y-78862250D01*
X147637905Y-78862251D01*
X147557026Y-79057509D01*
X147557021Y-79057526D01*
X147513080Y-79264250D01*
X147513079Y-79264255D01*
X147507547Y-79475532D01*
X147265335Y-79475532D01*
X147270081Y-79294322D01*
X147270081Y-79294317D01*
X147231567Y-79086511D01*
X147231565Y-79086506D01*
X147155823Y-78889192D01*
X147045389Y-78708979D01*
X147045385Y-78708973D01*
X146903970Y-78551917D01*
X146903969Y-78551915D01*
X146736285Y-78423247D01*
X146736279Y-78423244D01*
X146547980Y-78327300D01*
X146547960Y-78327292D01*
X146345318Y-78267266D01*
X146345313Y-78267265D01*
X146135120Y-78245173D01*
X145924408Y-78261757D01*
X145924405Y-78261758D01*
X145720261Y-78316457D01*
X145720258Y-78316459D01*
X145529493Y-78407449D01*
X145529494Y-78407449D01*
X145358503Y-78531682D01*
X145213016Y-78684994D01*
X145097905Y-78862250D01*
X145097905Y-78862251D01*
X145017026Y-79057509D01*
X145017021Y-79057526D01*
X144973080Y-79264250D01*
X144973079Y-79264255D01*
X144967547Y-79475532D01*
X144725335Y-79475532D01*
X144730081Y-79294322D01*
X144730081Y-79294317D01*
X144691567Y-79086511D01*
X144691565Y-79086506D01*
X144615823Y-78889192D01*
X144505389Y-78708979D01*
X144505385Y-78708973D01*
X144363970Y-78551917D01*
X144363969Y-78551915D01*
X144196285Y-78423247D01*
X144196279Y-78423244D01*
X144007980Y-78327300D01*
X144007960Y-78327292D01*
X143805318Y-78267266D01*
X143805313Y-78267265D01*
X143595120Y-78245173D01*
X143384408Y-78261757D01*
X143384405Y-78261758D01*
X143180261Y-78316457D01*
X143180258Y-78316459D01*
X142989493Y-78407449D01*
X142989494Y-78407449D01*
X142818503Y-78531682D01*
X142673016Y-78684994D01*
X142557905Y-78862250D01*
X142557905Y-78862251D01*
X142477026Y-79057509D01*
X142477021Y-79057526D01*
X142433080Y-79264250D01*
X142433079Y-79264255D01*
X142427547Y-79475532D01*
X142185335Y-79475532D01*
X142190081Y-79294322D01*
X142190081Y-79294317D01*
X142151567Y-79086511D01*
X142151565Y-79086506D01*
X142075823Y-78889192D01*
X141965389Y-78708979D01*
X141965385Y-78708973D01*
X141823970Y-78551917D01*
X141823969Y-78551915D01*
X141656285Y-78423247D01*
X141656279Y-78423244D01*
X141467980Y-78327300D01*
X141467960Y-78327292D01*
X141265318Y-78267266D01*
X141265313Y-78267265D01*
X141055120Y-78245173D01*
X140844408Y-78261757D01*
X140844405Y-78261758D01*
X140640261Y-78316457D01*
X140640258Y-78316459D01*
X140449493Y-78407449D01*
X140449494Y-78407449D01*
X140278503Y-78531682D01*
X140133016Y-78684994D01*
X140017905Y-78862250D01*
X140017905Y-78862251D01*
X139937026Y-79057509D01*
X139937021Y-79057526D01*
X139893080Y-79264250D01*
X139893079Y-79264255D01*
X139887547Y-79475532D01*
X139645335Y-79475532D01*
X139650081Y-79294322D01*
X139650081Y-79294317D01*
X139611567Y-79086511D01*
X139611565Y-79086506D01*
X139535823Y-78889192D01*
X139425389Y-78708979D01*
X139425385Y-78708973D01*
X139283970Y-78551917D01*
X139283969Y-78551915D01*
X139116285Y-78423247D01*
X139116279Y-78423244D01*
X138927980Y-78327300D01*
X138927960Y-78327292D01*
X138725318Y-78267266D01*
X138725313Y-78267265D01*
X138515120Y-78245173D01*
X138304408Y-78261757D01*
X138304405Y-78261758D01*
X138100261Y-78316457D01*
X138100258Y-78316459D01*
X137909493Y-78407449D01*
X137909494Y-78407449D01*
X137738503Y-78531682D01*
X137593016Y-78684994D01*
X137477905Y-78862250D01*
X137477905Y-78862251D01*
X137397026Y-79057509D01*
X137397021Y-79057526D01*
X137353080Y-79264250D01*
X137353079Y-79264255D01*
X137347547Y-79475532D01*
X133717001Y-79475532D01*
X133640320Y-79414099D01*
X133452997Y-79339933D01*
X133252147Y-79324125D01*
X133055523Y-79368076D01*
X133055521Y-79368077D01*
X132880527Y-79467892D01*
X132880522Y-79467896D01*
X132742606Y-79614761D01*
X132709693Y-79681946D01*
X132672950Y-79714339D01*
X132624063Y-79711264D01*
X132599286Y-79689763D01*
X132497555Y-79540069D01*
X132497552Y-79540067D01*
X132340320Y-79414099D01*
X132152997Y-79339933D01*
X131952147Y-79324125D01*
X131755523Y-79368076D01*
X131755521Y-79368077D01*
X131580527Y-79467892D01*
X131580522Y-79467896D01*
X131442606Y-79614761D01*
X131353971Y-79795689D01*
X131353970Y-79795693D01*
X131322454Y-79994679D01*
X129628162Y-79994679D01*
X129788080Y-79942718D01*
X129951920Y-79848126D01*
X129951921Y-79848126D01*
X130092516Y-79721532D01*
X130092517Y-79721531D01*
X130203715Y-79568481D01*
X130280664Y-79395650D01*
X130280667Y-79395641D01*
X130319999Y-79210601D01*
X130320000Y-79210592D01*
X130320000Y-79021408D01*
X130319999Y-79021399D01*
X130280667Y-78836359D01*
X130280664Y-78836350D01*
X130203715Y-78663519D01*
X130092517Y-78510469D01*
X130092516Y-78510468D01*
X129951921Y-78383874D01*
X129951920Y-78383874D01*
X129788080Y-78289282D01*
X129608146Y-78230817D01*
X129608147Y-78230817D01*
X129420004Y-78211043D01*
X129419996Y-78211043D01*
X129231854Y-78230817D01*
X129051920Y-78289282D01*
X128888080Y-78383874D01*
X128747484Y-78510468D01*
X128747483Y-78510469D01*
X128636285Y-78663519D01*
X128559336Y-78836350D01*
X128559333Y-78836359D01*
X128520001Y-79021399D01*
X128520000Y-79021408D01*
X126498292Y-79021408D01*
X126500024Y-78800877D01*
X126460468Y-78404569D01*
X126460465Y-78404551D01*
X126381753Y-78014181D01*
X126381745Y-78014152D01*
X126379055Y-78005408D01*
X133600000Y-78005408D01*
X133600000Y-78194592D01*
X133600001Y-78194601D01*
X133639333Y-78379641D01*
X133639336Y-78379650D01*
X133716285Y-78552481D01*
X133827483Y-78705531D01*
X133827484Y-78705532D01*
X133968080Y-78832126D01*
X134131920Y-78926718D01*
X134311854Y-78985183D01*
X134499996Y-79004957D01*
X134500004Y-79004957D01*
X134688147Y-78985183D01*
X134688146Y-78985183D01*
X134868080Y-78926718D01*
X135031920Y-78832126D01*
X135031921Y-78832126D01*
X135172516Y-78705532D01*
X135172517Y-78705531D01*
X135283715Y-78552481D01*
X135360664Y-78379650D01*
X135360667Y-78379641D01*
X135399999Y-78194601D01*
X135400000Y-78194592D01*
X135400000Y-78005408D01*
X135399999Y-78005399D01*
X135360667Y-77820359D01*
X135360664Y-77820350D01*
X135283715Y-77647519D01*
X135172517Y-77494469D01*
X135172516Y-77494468D01*
X135031921Y-77367874D01*
X135031920Y-77367874D01*
X134868080Y-77273282D01*
X134688146Y-77214817D01*
X134688147Y-77214817D01*
X134500004Y-77195043D01*
X134499996Y-77195043D01*
X134311854Y-77214817D01*
X134131920Y-77273282D01*
X133968080Y-77367874D01*
X133827484Y-77494468D01*
X133827483Y-77494469D01*
X133716285Y-77647519D01*
X133639336Y-77820350D01*
X133639333Y-77820359D01*
X133600001Y-78005399D01*
X133600000Y-78005408D01*
X126379055Y-78005408D01*
X126264643Y-77633506D01*
X126264640Y-77633498D01*
X126110307Y-77266352D01*
X125959940Y-76989408D01*
X128520000Y-76989408D01*
X128520000Y-77178592D01*
X128520001Y-77178601D01*
X128559333Y-77363641D01*
X128559336Y-77363650D01*
X128636285Y-77536481D01*
X128747483Y-77689531D01*
X128747484Y-77689532D01*
X128888080Y-77816126D01*
X129051920Y-77910718D01*
X129231854Y-77969183D01*
X129419996Y-77988957D01*
X129420004Y-77988957D01*
X129608147Y-77969183D01*
X129608146Y-77969183D01*
X129788080Y-77910718D01*
X129951920Y-77816126D01*
X129951921Y-77816126D01*
X130092516Y-77689532D01*
X130092517Y-77689531D01*
X130203715Y-77536481D01*
X130280664Y-77363650D01*
X130280667Y-77363641D01*
X130319999Y-77178601D01*
X130320000Y-77178592D01*
X130320000Y-76989408D01*
X130319999Y-76989399D01*
X130280667Y-76804359D01*
X130280664Y-76804350D01*
X130203715Y-76631519D01*
X130092517Y-76478469D01*
X130092516Y-76478468D01*
X129951921Y-76351874D01*
X129951920Y-76351874D01*
X129852855Y-76294679D01*
X131322454Y-76294679D01*
X131350842Y-76494143D01*
X131436622Y-76676433D01*
X131572217Y-76825450D01*
X131745628Y-76928006D01*
X131745632Y-76928007D01*
X131941537Y-76975040D01*
X132142610Y-76962388D01*
X132142618Y-76962387D01*
X132331073Y-76891176D01*
X132331073Y-76891175D01*
X132490267Y-76767691D01*
X132544300Y-76690811D01*
X132585658Y-76664565D01*
X132643997Y-76684539D01*
X132772213Y-76825447D01*
X132772217Y-76825450D01*
X132945628Y-76928006D01*
X132945632Y-76928007D01*
X133141537Y-76975040D01*
X133342610Y-76962388D01*
X133342618Y-76962387D01*
X133413687Y-76935532D01*
X139887547Y-76935532D01*
X139887547Y-76935537D01*
X139920610Y-77144292D01*
X139991161Y-77343519D01*
X140096840Y-77526562D01*
X140234107Y-77687278D01*
X140398358Y-77820287D01*
X140584100Y-77921136D01*
X140785113Y-77986448D01*
X140785117Y-77986449D01*
X140994660Y-78014036D01*
X141205716Y-78002975D01*
X141205724Y-78002974D01*
X141411237Y-77953635D01*
X141604323Y-77867667D01*
X141778505Y-77747955D01*
X141927955Y-77598505D01*
X142047667Y-77424323D01*
X142133635Y-77231237D01*
X142182974Y-77025724D01*
X142185335Y-76935532D01*
X142427547Y-76935532D01*
X142427547Y-76935537D01*
X142460610Y-77144292D01*
X142531161Y-77343519D01*
X142636840Y-77526562D01*
X142774107Y-77687278D01*
X142938358Y-77820287D01*
X143124100Y-77921136D01*
X143325113Y-77986448D01*
X143325117Y-77986449D01*
X143534660Y-78014036D01*
X143745716Y-78002975D01*
X143745724Y-78002974D01*
X143951237Y-77953635D01*
X144144323Y-77867667D01*
X144318505Y-77747955D01*
X144467955Y-77598505D01*
X144587667Y-77424323D01*
X144673635Y-77231237D01*
X144722974Y-77025724D01*
X144725335Y-76935532D01*
X144967547Y-76935532D01*
X144967547Y-76935537D01*
X145000610Y-77144292D01*
X145071161Y-77343519D01*
X145176840Y-77526562D01*
X145314107Y-77687278D01*
X145478358Y-77820287D01*
X145664100Y-77921136D01*
X145865113Y-77986448D01*
X145865117Y-77986449D01*
X146074660Y-78014036D01*
X146285716Y-78002975D01*
X146285724Y-78002974D01*
X146491237Y-77953635D01*
X146684323Y-77867667D01*
X146858505Y-77747955D01*
X147007955Y-77598505D01*
X147127667Y-77424323D01*
X147213635Y-77231237D01*
X147262974Y-77025724D01*
X147265335Y-76935532D01*
X147507547Y-76935532D01*
X147507547Y-76935537D01*
X147540610Y-77144292D01*
X147611161Y-77343519D01*
X147716840Y-77526562D01*
X147854107Y-77687278D01*
X148018358Y-77820287D01*
X148204100Y-77921136D01*
X148405113Y-77986448D01*
X148405117Y-77986449D01*
X148614660Y-78014036D01*
X148825716Y-78002975D01*
X148825724Y-78002974D01*
X149031237Y-77953635D01*
X149224323Y-77867667D01*
X149398505Y-77747955D01*
X149547955Y-77598505D01*
X149667667Y-77424323D01*
X149753635Y-77231237D01*
X149802974Y-77025724D01*
X149805335Y-76935532D01*
X155127547Y-76935532D01*
X155127547Y-76935537D01*
X155160610Y-77144292D01*
X155231161Y-77343519D01*
X155336840Y-77526562D01*
X155474107Y-77687278D01*
X155638358Y-77820287D01*
X155824100Y-77921136D01*
X156025113Y-77986448D01*
X156025117Y-77986449D01*
X156234660Y-78014036D01*
X156445716Y-78002975D01*
X156445724Y-78002974D01*
X156651237Y-77953635D01*
X156844323Y-77867667D01*
X157018505Y-77747955D01*
X157167955Y-77598505D01*
X157287667Y-77424323D01*
X157373635Y-77231237D01*
X157422974Y-77025724D01*
X157430081Y-76754322D01*
X157430081Y-76754317D01*
X157391567Y-76546511D01*
X157391565Y-76546506D01*
X157315823Y-76349192D01*
X157205389Y-76168979D01*
X157205385Y-76168973D01*
X157063970Y-76011917D01*
X157063969Y-76011915D01*
X156896285Y-75883247D01*
X156896279Y-75883244D01*
X156707980Y-75787300D01*
X156707960Y-75787292D01*
X156505318Y-75727266D01*
X156505313Y-75727265D01*
X156295121Y-75705173D01*
X156084408Y-75721757D01*
X156084405Y-75721758D01*
X155880261Y-75776457D01*
X155880258Y-75776459D01*
X155689493Y-75867449D01*
X155518503Y-75991682D01*
X155373016Y-76144994D01*
X155257905Y-76322250D01*
X155257905Y-76322251D01*
X155177026Y-76517509D01*
X155177021Y-76517526D01*
X155133080Y-76724250D01*
X155133079Y-76724255D01*
X155127547Y-76935532D01*
X149805335Y-76935532D01*
X149810081Y-76754322D01*
X149810081Y-76754317D01*
X149771567Y-76546511D01*
X149771565Y-76546506D01*
X149695823Y-76349192D01*
X149585389Y-76168979D01*
X149585385Y-76168973D01*
X149443970Y-76011917D01*
X149443969Y-76011915D01*
X149276285Y-75883247D01*
X149276279Y-75883244D01*
X149087980Y-75787300D01*
X149087960Y-75787292D01*
X148885318Y-75727266D01*
X148885313Y-75727265D01*
X148675121Y-75705173D01*
X148464408Y-75721757D01*
X148464405Y-75721758D01*
X148260261Y-75776457D01*
X148260258Y-75776459D01*
X148069493Y-75867449D01*
X147898503Y-75991682D01*
X147753016Y-76144994D01*
X147637905Y-76322250D01*
X147637905Y-76322251D01*
X147557026Y-76517509D01*
X147557021Y-76517526D01*
X147513080Y-76724250D01*
X147513079Y-76724255D01*
X147507547Y-76935532D01*
X147265335Y-76935532D01*
X147270081Y-76754322D01*
X147270081Y-76754317D01*
X147231567Y-76546511D01*
X147231565Y-76546506D01*
X147155823Y-76349192D01*
X147045389Y-76168979D01*
X147045385Y-76168973D01*
X146903970Y-76011917D01*
X146903969Y-76011915D01*
X146736285Y-75883247D01*
X146736279Y-75883244D01*
X146547980Y-75787300D01*
X146547960Y-75787292D01*
X146345318Y-75727266D01*
X146345313Y-75727265D01*
X146135121Y-75705173D01*
X145924408Y-75721757D01*
X145924405Y-75721758D01*
X145720261Y-75776457D01*
X145720258Y-75776459D01*
X145529493Y-75867449D01*
X145358503Y-75991682D01*
X145213016Y-76144994D01*
X145097905Y-76322250D01*
X145097905Y-76322251D01*
X145017026Y-76517509D01*
X145017021Y-76517526D01*
X144973080Y-76724250D01*
X144973079Y-76724255D01*
X144967547Y-76935532D01*
X144725335Y-76935532D01*
X144730081Y-76754322D01*
X144730081Y-76754317D01*
X144691567Y-76546511D01*
X144691565Y-76546506D01*
X144615823Y-76349192D01*
X144505389Y-76168979D01*
X144505385Y-76168973D01*
X144363970Y-76011917D01*
X144363969Y-76011915D01*
X144196285Y-75883247D01*
X144196279Y-75883244D01*
X144007980Y-75787300D01*
X144007960Y-75787292D01*
X143805318Y-75727266D01*
X143805313Y-75727265D01*
X143595121Y-75705173D01*
X143384408Y-75721757D01*
X143384405Y-75721758D01*
X143180261Y-75776457D01*
X143180258Y-75776459D01*
X142989493Y-75867449D01*
X142818503Y-75991682D01*
X142673016Y-76144994D01*
X142557905Y-76322250D01*
X142557905Y-76322251D01*
X142477026Y-76517509D01*
X142477021Y-76517526D01*
X142433080Y-76724250D01*
X142433079Y-76724255D01*
X142427547Y-76935532D01*
X142185335Y-76935532D01*
X142190081Y-76754322D01*
X142190081Y-76754317D01*
X142151567Y-76546511D01*
X142151565Y-76546506D01*
X142075823Y-76349192D01*
X141965389Y-76168979D01*
X141965385Y-76168973D01*
X141823970Y-76011917D01*
X141823969Y-76011915D01*
X141656285Y-75883247D01*
X141656279Y-75883244D01*
X141467980Y-75787300D01*
X141467960Y-75787292D01*
X141265318Y-75727266D01*
X141265313Y-75727265D01*
X141055121Y-75705173D01*
X140844408Y-75721757D01*
X140844405Y-75721758D01*
X140640261Y-75776457D01*
X140640258Y-75776459D01*
X140449493Y-75867449D01*
X140278503Y-75991682D01*
X140133016Y-76144994D01*
X140017905Y-76322250D01*
X140017905Y-76322251D01*
X139937026Y-76517509D01*
X139937021Y-76517526D01*
X139893080Y-76724250D01*
X139893079Y-76724255D01*
X139887547Y-76935532D01*
X133413687Y-76935532D01*
X133531073Y-76891176D01*
X133531073Y-76891175D01*
X133690266Y-76767692D01*
X133806114Y-76602857D01*
X133868371Y-76411249D01*
X133868372Y-76411247D01*
X133870037Y-76199267D01*
X133870037Y-76199264D01*
X133810795Y-76006699D01*
X133697555Y-75840069D01*
X133697552Y-75840067D01*
X133540320Y-75714099D01*
X133352997Y-75639933D01*
X133152147Y-75624125D01*
X132955523Y-75668076D01*
X132955521Y-75668077D01*
X132780527Y-75767892D01*
X132780522Y-75767896D01*
X132642588Y-75914780D01*
X132597944Y-75934937D01*
X132543001Y-75906942D01*
X132497555Y-75840069D01*
X132497552Y-75840067D01*
X132340320Y-75714099D01*
X132152997Y-75639933D01*
X131952147Y-75624125D01*
X131755523Y-75668076D01*
X131755521Y-75668077D01*
X131580527Y-75767892D01*
X131580522Y-75767896D01*
X131442606Y-75914761D01*
X131353971Y-76095689D01*
X131353970Y-76095693D01*
X131322454Y-76294679D01*
X129852855Y-76294679D01*
X129788080Y-76257282D01*
X129608146Y-76198817D01*
X129608147Y-76198817D01*
X129420004Y-76179043D01*
X129419996Y-76179043D01*
X129231854Y-76198817D01*
X129051920Y-76257282D01*
X128888080Y-76351874D01*
X128747484Y-76478468D01*
X128747483Y-76478469D01*
X128636285Y-76631519D01*
X128559336Y-76804350D01*
X128559333Y-76804359D01*
X128520001Y-76989399D01*
X128520000Y-76989408D01*
X125959940Y-76989408D01*
X125920277Y-76916359D01*
X125920267Y-76916344D01*
X125696417Y-76586959D01*
X125696416Y-76586959D01*
X125440940Y-76281413D01*
X125440934Y-76281407D01*
X125156404Y-76002774D01*
X124845571Y-75753750D01*
X124511564Y-75536843D01*
X124286885Y-75420877D01*
X124255269Y-75383464D01*
X124259368Y-75334652D01*
X124316239Y-75300006D01*
X172674809Y-75299999D01*
X172720064Y-75318744D01*
G37*
G04 #@! TD.AperFunction*
M02*
