G04 #@! TF.GenerationSoftware,KiCad,Pcbnew,5.99.0-unknown-dd374e12a~102~ubuntu20.04.1*
G04 #@! TF.CreationDate,2020-12-04T17:09:39-08:00*
G04 #@! TF.ProjectId,BLDC,424c4443-2e6b-4696-9361-645f70636258,rev?*
G04 #@! TF.SameCoordinates,Original*
G04 #@! TF.FileFunction,Paste,Top*
G04 #@! TF.FilePolarity,Positive*
%FSLAX46Y46*%
G04 Gerber Fmt 4.6, Leading zero omitted, Abs format (unit mm)*
G04 Created by KiCad (PCBNEW 5.99.0-unknown-dd374e12a~102~ubuntu20.04.1) date 2020-12-04 17:09:39*
%MOMM*%
%LPD*%
G01*
G04 APERTURE LIST*
%ADD10R,3.290000X2.410000*%
%ADD11R,0.450000X1.500000*%
%ADD12R,2.000000X1.700000*%
%ADD13R,0.450000X0.450000*%
%ADD14R,1.060000X0.650000*%
%ADD15R,2.920000X1.270000*%
%ADD16R,1.650000X3.430000*%
%ADD17R,0.800000X1.700000*%
%ADD18R,1.270000X2.920000*%
%ADD19R,0.450000X0.400000*%
%ADD20R,0.800000X1.900000*%
G04 APERTURE END LIST*
G36*
G01*
X162307500Y-93240000D02*
X162652500Y-93240000D01*
G75*
G02*
X162800000Y-93387500I0J-147500D01*
G01*
X162800000Y-93682500D01*
G75*
G02*
X162652500Y-93830000I-147500J0D01*
G01*
X162307500Y-93830000D01*
G75*
G02*
X162160000Y-93682500I0J147500D01*
G01*
X162160000Y-93387500D01*
G75*
G02*
X162307500Y-93240000I147500J0D01*
G01*
G37*
G36*
G01*
X162307500Y-92270000D02*
X162652500Y-92270000D01*
G75*
G02*
X162800000Y-92417500I0J-147500D01*
G01*
X162800000Y-92712500D01*
G75*
G02*
X162652500Y-92860000I-147500J0D01*
G01*
X162307500Y-92860000D01*
G75*
G02*
X162160000Y-92712500I0J147500D01*
G01*
X162160000Y-92417500D01*
G75*
G02*
X162307500Y-92270000I147500J0D01*
G01*
G37*
G36*
G01*
X163317500Y-92270000D02*
X163662500Y-92270000D01*
G75*
G02*
X163810000Y-92417500I0J-147500D01*
G01*
X163810000Y-92712500D01*
G75*
G02*
X163662500Y-92860000I-147500J0D01*
G01*
X163317500Y-92860000D01*
G75*
G02*
X163170000Y-92712500I0J147500D01*
G01*
X163170000Y-92417500D01*
G75*
G02*
X163317500Y-92270000I147500J0D01*
G01*
G37*
G36*
G01*
X163317500Y-93240000D02*
X163662500Y-93240000D01*
G75*
G02*
X163810000Y-93387500I0J-147500D01*
G01*
X163810000Y-93682500D01*
G75*
G02*
X163662500Y-93830000I-147500J0D01*
G01*
X163317500Y-93830000D01*
G75*
G02*
X163170000Y-93682500I0J147500D01*
G01*
X163170000Y-93387500D01*
G75*
G02*
X163317500Y-93240000I147500J0D01*
G01*
G37*
G36*
G01*
X142350000Y-95543750D02*
X142350000Y-96056250D01*
G75*
G02*
X142131250Y-96275000I-218750J0D01*
G01*
X141693750Y-96275000D01*
G75*
G02*
X141475000Y-96056250I0J218750D01*
G01*
X141475000Y-95543750D01*
G75*
G02*
X141693750Y-95325000I218750J0D01*
G01*
X142131250Y-95325000D01*
G75*
G02*
X142350000Y-95543750I0J-218750D01*
G01*
G37*
G36*
G01*
X143925000Y-95543750D02*
X143925000Y-96056250D01*
G75*
G02*
X143706250Y-96275000I-218750J0D01*
G01*
X143268750Y-96275000D01*
G75*
G02*
X143050000Y-96056250I0J218750D01*
G01*
X143050000Y-95543750D01*
G75*
G02*
X143268750Y-95325000I218750J0D01*
G01*
X143706250Y-95325000D01*
G75*
G02*
X143925000Y-95543750I0J-218750D01*
G01*
G37*
G36*
G01*
X129756250Y-94850000D02*
X129243750Y-94850000D01*
G75*
G02*
X129025000Y-94631250I0J218750D01*
G01*
X129025000Y-94193750D01*
G75*
G02*
X129243750Y-93975000I218750J0D01*
G01*
X129756250Y-93975000D01*
G75*
G02*
X129975000Y-94193750I0J-218750D01*
G01*
X129975000Y-94631250D01*
G75*
G02*
X129756250Y-94850000I-218750J0D01*
G01*
G37*
G36*
G01*
X129756250Y-96425000D02*
X129243750Y-96425000D01*
G75*
G02*
X129025000Y-96206250I0J218750D01*
G01*
X129025000Y-95768750D01*
G75*
G02*
X129243750Y-95550000I218750J0D01*
G01*
X129756250Y-95550000D01*
G75*
G02*
X129975000Y-95768750I0J-218750D01*
G01*
X129975000Y-96206250D01*
G75*
G02*
X129756250Y-96425000I-218750J0D01*
G01*
G37*
D10*
X166851329Y-91000000D03*
D11*
X164576329Y-88100000D03*
X164576329Y-93900000D03*
X165226329Y-88100000D03*
X165226329Y-93900000D03*
X165876329Y-88100000D03*
X165876329Y-93900000D03*
X166526329Y-88100000D03*
X166526329Y-93900000D03*
X167176329Y-88100000D03*
X167176329Y-93900000D03*
X167826329Y-88100000D03*
X167826329Y-93900000D03*
X168476329Y-88100000D03*
X168476329Y-93900000D03*
X169126329Y-88100000D03*
X169126329Y-93900000D03*
D12*
X176900000Y-87100000D03*
X170900000Y-87100000D03*
G36*
G01*
X138000000Y-109000000D02*
X136000000Y-109000000D01*
G75*
G02*
X135750000Y-108750000I0J250000D01*
G01*
X135750000Y-105250000D01*
G75*
G02*
X136000000Y-105000000I250000J0D01*
G01*
X138000000Y-105000000D01*
G75*
G02*
X138250000Y-105250000I0J-250000D01*
G01*
X138250000Y-108750000D01*
G75*
G02*
X138000000Y-109000000I-250000J0D01*
G01*
G37*
G36*
G01*
X138000000Y-117000000D02*
X136000000Y-117000000D01*
G75*
G02*
X135750000Y-116750000I0J250000D01*
G01*
X135750000Y-113250000D01*
G75*
G02*
X136000000Y-113000000I250000J0D01*
G01*
X138000000Y-113000000D01*
G75*
G02*
X138250000Y-113250000I0J-250000D01*
G01*
X138250000Y-116750000D01*
G75*
G02*
X138000000Y-117000000I-250000J0D01*
G01*
G37*
G36*
G01*
X149500000Y-109000000D02*
X147500000Y-109000000D01*
G75*
G02*
X147250000Y-108750000I0J250000D01*
G01*
X147250000Y-105250000D01*
G75*
G02*
X147500000Y-105000000I250000J0D01*
G01*
X149500000Y-105000000D01*
G75*
G02*
X149750000Y-105250000I0J-250000D01*
G01*
X149750000Y-108750000D01*
G75*
G02*
X149500000Y-109000000I-250000J0D01*
G01*
G37*
G36*
G01*
X149500000Y-117000000D02*
X147500000Y-117000000D01*
G75*
G02*
X147250000Y-116750000I0J250000D01*
G01*
X147250000Y-113250000D01*
G75*
G02*
X147500000Y-113000000I250000J0D01*
G01*
X149500000Y-113000000D01*
G75*
G02*
X149750000Y-113250000I0J-250000D01*
G01*
X149750000Y-116750000D01*
G75*
G02*
X149500000Y-117000000I-250000J0D01*
G01*
G37*
G36*
G01*
X161000000Y-109000000D02*
X159000000Y-109000000D01*
G75*
G02*
X158750000Y-108750000I0J250000D01*
G01*
X158750000Y-105250000D01*
G75*
G02*
X159000000Y-105000000I250000J0D01*
G01*
X161000000Y-105000000D01*
G75*
G02*
X161250000Y-105250000I0J-250000D01*
G01*
X161250000Y-108750000D01*
G75*
G02*
X161000000Y-109000000I-250000J0D01*
G01*
G37*
G36*
G01*
X161000000Y-117000000D02*
X159000000Y-117000000D01*
G75*
G02*
X158750000Y-116750000I0J250000D01*
G01*
X158750000Y-113250000D01*
G75*
G02*
X159000000Y-113000000I250000J0D01*
G01*
X161000000Y-113000000D01*
G75*
G02*
X161250000Y-113250000I0J-250000D01*
G01*
X161250000Y-116750000D01*
G75*
G02*
X161000000Y-117000000I-250000J0D01*
G01*
G37*
G36*
G01*
X131000000Y-130500000D02*
X133000000Y-130500000D01*
G75*
G02*
X133250000Y-130750000I0J-250000D01*
G01*
X133250000Y-134250000D01*
G75*
G02*
X133000000Y-134500000I-250000J0D01*
G01*
X131000000Y-134500000D01*
G75*
G02*
X130750000Y-134250000I0J250000D01*
G01*
X130750000Y-130750000D01*
G75*
G02*
X131000000Y-130500000I250000J0D01*
G01*
G37*
G36*
G01*
X131000000Y-122500000D02*
X133000000Y-122500000D01*
G75*
G02*
X133250000Y-122750000I0J-250000D01*
G01*
X133250000Y-126250000D01*
G75*
G02*
X133000000Y-126500000I-250000J0D01*
G01*
X131000000Y-126500000D01*
G75*
G02*
X130750000Y-126250000I0J250000D01*
G01*
X130750000Y-122750000D01*
G75*
G02*
X131000000Y-122500000I250000J0D01*
G01*
G37*
G36*
G01*
X161600000Y-130500000D02*
X163600000Y-130500000D01*
G75*
G02*
X163850000Y-130750000I0J-250000D01*
G01*
X163850000Y-134250000D01*
G75*
G02*
X163600000Y-134500000I-250000J0D01*
G01*
X161600000Y-134500000D01*
G75*
G02*
X161350000Y-134250000I0J250000D01*
G01*
X161350000Y-130750000D01*
G75*
G02*
X161600000Y-130500000I250000J0D01*
G01*
G37*
G36*
G01*
X161600000Y-122500000D02*
X163600000Y-122500000D01*
G75*
G02*
X163850000Y-122750000I0J-250000D01*
G01*
X163850000Y-126250000D01*
G75*
G02*
X163600000Y-126500000I-250000J0D01*
G01*
X161600000Y-126500000D01*
G75*
G02*
X161350000Y-126250000I0J250000D01*
G01*
X161350000Y-122750000D01*
G75*
G02*
X161600000Y-122500000I250000J0D01*
G01*
G37*
G36*
G01*
X122720000Y-84672500D02*
X122720000Y-84327500D01*
G75*
G02*
X122867500Y-84180000I147500J0D01*
G01*
X123162500Y-84180000D01*
G75*
G02*
X123310000Y-84327500I0J-147500D01*
G01*
X123310000Y-84672500D01*
G75*
G02*
X123162500Y-84820000I-147500J0D01*
G01*
X122867500Y-84820000D01*
G75*
G02*
X122720000Y-84672500I0J147500D01*
G01*
G37*
G36*
G01*
X123690000Y-84672500D02*
X123690000Y-84327500D01*
G75*
G02*
X123837500Y-84180000I147500J0D01*
G01*
X124132500Y-84180000D01*
G75*
G02*
X124280000Y-84327500I0J-147500D01*
G01*
X124280000Y-84672500D01*
G75*
G02*
X124132500Y-84820000I-147500J0D01*
G01*
X123837500Y-84820000D01*
G75*
G02*
X123690000Y-84672500I0J147500D01*
G01*
G37*
G36*
G01*
X122720000Y-85672500D02*
X122720000Y-85327500D01*
G75*
G02*
X122867500Y-85180000I147500J0D01*
G01*
X123162500Y-85180000D01*
G75*
G02*
X123310000Y-85327500I0J-147500D01*
G01*
X123310000Y-85672500D01*
G75*
G02*
X123162500Y-85820000I-147500J0D01*
G01*
X122867500Y-85820000D01*
G75*
G02*
X122720000Y-85672500I0J147500D01*
G01*
G37*
G36*
G01*
X123690000Y-85672500D02*
X123690000Y-85327500D01*
G75*
G02*
X123837500Y-85180000I147500J0D01*
G01*
X124132500Y-85180000D01*
G75*
G02*
X124280000Y-85327500I0J-147500D01*
G01*
X124280000Y-85672500D01*
G75*
G02*
X124132500Y-85820000I-147500J0D01*
G01*
X123837500Y-85820000D01*
G75*
G02*
X123690000Y-85672500I0J147500D01*
G01*
G37*
G36*
G01*
X129827500Y-97220000D02*
X130172500Y-97220000D01*
G75*
G02*
X130320000Y-97367500I0J-147500D01*
G01*
X130320000Y-97662500D01*
G75*
G02*
X130172500Y-97810000I-147500J0D01*
G01*
X129827500Y-97810000D01*
G75*
G02*
X129680000Y-97662500I0J147500D01*
G01*
X129680000Y-97367500D01*
G75*
G02*
X129827500Y-97220000I147500J0D01*
G01*
G37*
G36*
G01*
X129827500Y-98190000D02*
X130172500Y-98190000D01*
G75*
G02*
X130320000Y-98337500I0J-147500D01*
G01*
X130320000Y-98632500D01*
G75*
G02*
X130172500Y-98780000I-147500J0D01*
G01*
X129827500Y-98780000D01*
G75*
G02*
X129680000Y-98632500I0J147500D01*
G01*
X129680000Y-98337500D01*
G75*
G02*
X129827500Y-98190000I147500J0D01*
G01*
G37*
G36*
G01*
X141427500Y-93320000D02*
X141772500Y-93320000D01*
G75*
G02*
X141920000Y-93467500I0J-147500D01*
G01*
X141920000Y-93762500D01*
G75*
G02*
X141772500Y-93910000I-147500J0D01*
G01*
X141427500Y-93910000D01*
G75*
G02*
X141280000Y-93762500I0J147500D01*
G01*
X141280000Y-93467500D01*
G75*
G02*
X141427500Y-93320000I147500J0D01*
G01*
G37*
G36*
G01*
X141427500Y-94290000D02*
X141772500Y-94290000D01*
G75*
G02*
X141920000Y-94437500I0J-147500D01*
G01*
X141920000Y-94732500D01*
G75*
G02*
X141772500Y-94880000I-147500J0D01*
G01*
X141427500Y-94880000D01*
G75*
G02*
X141280000Y-94732500I0J147500D01*
G01*
X141280000Y-94437500D01*
G75*
G02*
X141427500Y-94290000I147500J0D01*
G01*
G37*
G36*
G01*
X122720000Y-83712220D02*
X122720000Y-83367220D01*
G75*
G02*
X122867500Y-83219720I147500J0D01*
G01*
X123162500Y-83219720D01*
G75*
G02*
X123310000Y-83367220I0J-147500D01*
G01*
X123310000Y-83712220D01*
G75*
G02*
X123162500Y-83859720I-147500J0D01*
G01*
X122867500Y-83859720D01*
G75*
G02*
X122720000Y-83712220I0J147500D01*
G01*
G37*
G36*
G01*
X123690000Y-83712220D02*
X123690000Y-83367220D01*
G75*
G02*
X123837500Y-83219720I147500J0D01*
G01*
X124132500Y-83219720D01*
G75*
G02*
X124280000Y-83367220I0J-147500D01*
G01*
X124280000Y-83712220D01*
G75*
G02*
X124132500Y-83859720I-147500J0D01*
G01*
X123837500Y-83859720D01*
G75*
G02*
X123690000Y-83712220I0J147500D01*
G01*
G37*
G36*
G01*
X144172500Y-93910000D02*
X143827500Y-93910000D01*
G75*
G02*
X143680000Y-93762500I0J147500D01*
G01*
X143680000Y-93467500D01*
G75*
G02*
X143827500Y-93320000I147500J0D01*
G01*
X144172500Y-93320000D01*
G75*
G02*
X144320000Y-93467500I0J-147500D01*
G01*
X144320000Y-93762500D01*
G75*
G02*
X144172500Y-93910000I-147500J0D01*
G01*
G37*
G36*
G01*
X144172500Y-94880000D02*
X143827500Y-94880000D01*
G75*
G02*
X143680000Y-94732500I0J147500D01*
G01*
X143680000Y-94437500D01*
G75*
G02*
X143827500Y-94290000I147500J0D01*
G01*
X144172500Y-94290000D01*
G75*
G02*
X144320000Y-94437500I0J-147500D01*
G01*
X144320000Y-94732500D01*
G75*
G02*
X144172500Y-94880000I-147500J0D01*
G01*
G37*
G36*
G01*
X147780000Y-91827500D02*
X147780000Y-92172500D01*
G75*
G02*
X147632500Y-92320000I-147500J0D01*
G01*
X147337500Y-92320000D01*
G75*
G02*
X147190000Y-92172500I0J147500D01*
G01*
X147190000Y-91827500D01*
G75*
G02*
X147337500Y-91680000I147500J0D01*
G01*
X147632500Y-91680000D01*
G75*
G02*
X147780000Y-91827500I0J-147500D01*
G01*
G37*
G36*
G01*
X146810000Y-91827500D02*
X146810000Y-92172500D01*
G75*
G02*
X146662500Y-92320000I-147500J0D01*
G01*
X146367500Y-92320000D01*
G75*
G02*
X146220000Y-92172500I0J147500D01*
G01*
X146220000Y-91827500D01*
G75*
G02*
X146367500Y-91680000I147500J0D01*
G01*
X146662500Y-91680000D01*
G75*
G02*
X146810000Y-91827500I0J-147500D01*
G01*
G37*
G36*
G01*
X120772500Y-95210000D02*
X120427500Y-95210000D01*
G75*
G02*
X120280000Y-95062500I0J147500D01*
G01*
X120280000Y-94767500D01*
G75*
G02*
X120427500Y-94620000I147500J0D01*
G01*
X120772500Y-94620000D01*
G75*
G02*
X120920000Y-94767500I0J-147500D01*
G01*
X120920000Y-95062500D01*
G75*
G02*
X120772500Y-95210000I-147500J0D01*
G01*
G37*
G36*
G01*
X120772500Y-96180000D02*
X120427500Y-96180000D01*
G75*
G02*
X120280000Y-96032500I0J147500D01*
G01*
X120280000Y-95737500D01*
G75*
G02*
X120427500Y-95590000I147500J0D01*
G01*
X120772500Y-95590000D01*
G75*
G02*
X120920000Y-95737500I0J-147500D01*
G01*
X120920000Y-96032500D01*
G75*
G02*
X120772500Y-96180000I-147500J0D01*
G01*
G37*
G36*
G01*
X147190000Y-91193780D02*
X147190000Y-90848780D01*
G75*
G02*
X147337500Y-90701280I147500J0D01*
G01*
X147632500Y-90701280D01*
G75*
G02*
X147780000Y-90848780I0J-147500D01*
G01*
X147780000Y-91193780D01*
G75*
G02*
X147632500Y-91341280I-147500J0D01*
G01*
X147337500Y-91341280D01*
G75*
G02*
X147190000Y-91193780I0J147500D01*
G01*
G37*
G36*
G01*
X146220000Y-91193780D02*
X146220000Y-90848780D01*
G75*
G02*
X146367500Y-90701280I147500J0D01*
G01*
X146662500Y-90701280D01*
G75*
G02*
X146810000Y-90848780I0J-147500D01*
G01*
X146810000Y-91193780D01*
G75*
G02*
X146662500Y-91341280I-147500J0D01*
G01*
X146367500Y-91341280D01*
G75*
G02*
X146220000Y-91193780I0J147500D01*
G01*
G37*
G36*
G01*
X163227500Y-89090000D02*
X163572500Y-89090000D01*
G75*
G02*
X163720000Y-89237500I0J-147500D01*
G01*
X163720000Y-89532500D01*
G75*
G02*
X163572500Y-89680000I-147500J0D01*
G01*
X163227500Y-89680000D01*
G75*
G02*
X163080000Y-89532500I0J147500D01*
G01*
X163080000Y-89237500D01*
G75*
G02*
X163227500Y-89090000I147500J0D01*
G01*
G37*
G36*
G01*
X163227500Y-88120000D02*
X163572500Y-88120000D01*
G75*
G02*
X163720000Y-88267500I0J-147500D01*
G01*
X163720000Y-88562500D01*
G75*
G02*
X163572500Y-88710000I-147500J0D01*
G01*
X163227500Y-88710000D01*
G75*
G02*
X163080000Y-88562500I0J147500D01*
G01*
X163080000Y-88267500D01*
G75*
G02*
X163227500Y-88120000I147500J0D01*
G01*
G37*
G36*
G01*
X162227500Y-89090000D02*
X162572500Y-89090000D01*
G75*
G02*
X162720000Y-89237500I0J-147500D01*
G01*
X162720000Y-89532500D01*
G75*
G02*
X162572500Y-89680000I-147500J0D01*
G01*
X162227500Y-89680000D01*
G75*
G02*
X162080000Y-89532500I0J147500D01*
G01*
X162080000Y-89237500D01*
G75*
G02*
X162227500Y-89090000I147500J0D01*
G01*
G37*
G36*
G01*
X162227500Y-88120000D02*
X162572500Y-88120000D01*
G75*
G02*
X162720000Y-88267500I0J-147500D01*
G01*
X162720000Y-88562500D01*
G75*
G02*
X162572500Y-88710000I-147500J0D01*
G01*
X162227500Y-88710000D01*
G75*
G02*
X162080000Y-88562500I0J147500D01*
G01*
X162080000Y-88267500D01*
G75*
G02*
X162227500Y-88120000I147500J0D01*
G01*
G37*
G36*
G01*
X143410000Y-89427500D02*
X143410000Y-89772500D01*
G75*
G02*
X143262500Y-89920000I-147500J0D01*
G01*
X142967500Y-89920000D01*
G75*
G02*
X142820000Y-89772500I0J147500D01*
G01*
X142820000Y-89427500D01*
G75*
G02*
X142967500Y-89280000I147500J0D01*
G01*
X143262500Y-89280000D01*
G75*
G02*
X143410000Y-89427500I0J-147500D01*
G01*
G37*
G36*
G01*
X144380000Y-89427500D02*
X144380000Y-89772500D01*
G75*
G02*
X144232500Y-89920000I-147500J0D01*
G01*
X143937500Y-89920000D01*
G75*
G02*
X143790000Y-89772500I0J147500D01*
G01*
X143790000Y-89427500D01*
G75*
G02*
X143937500Y-89280000I147500J0D01*
G01*
X144232500Y-89280000D01*
G75*
G02*
X144380000Y-89427500I0J-147500D01*
G01*
G37*
D13*
X120475000Y-83500000D03*
X121325000Y-83500000D03*
X121325000Y-84350000D03*
X120475000Y-84350000D03*
D14*
X122100000Y-95050000D03*
X122100000Y-96000000D03*
X122100000Y-96950000D03*
X124300000Y-96950000D03*
X124300000Y-95050000D03*
D15*
X128570000Y-111900000D03*
X128570000Y-114900000D03*
X128570000Y-117900000D03*
D16*
X123100000Y-121785000D03*
X123100000Y-108015000D03*
D17*
X141500000Y-91600000D03*
X144900000Y-91600000D03*
G36*
G01*
X119672500Y-88910000D02*
X119327500Y-88910000D01*
G75*
G02*
X119180000Y-88762500I0J147500D01*
G01*
X119180000Y-88467500D01*
G75*
G02*
X119327500Y-88320000I147500J0D01*
G01*
X119672500Y-88320000D01*
G75*
G02*
X119820000Y-88467500I0J-147500D01*
G01*
X119820000Y-88762500D01*
G75*
G02*
X119672500Y-88910000I-147500J0D01*
G01*
G37*
G36*
G01*
X119672500Y-89880000D02*
X119327500Y-89880000D01*
G75*
G02*
X119180000Y-89732500I0J147500D01*
G01*
X119180000Y-89437500D01*
G75*
G02*
X119327500Y-89290000I147500J0D01*
G01*
X119672500Y-89290000D01*
G75*
G02*
X119820000Y-89437500I0J-147500D01*
G01*
X119820000Y-89732500D01*
G75*
G02*
X119672500Y-89880000I-147500J0D01*
G01*
G37*
G36*
G01*
X119672500Y-87010000D02*
X119327500Y-87010000D01*
G75*
G02*
X119180000Y-86862500I0J147500D01*
G01*
X119180000Y-86567500D01*
G75*
G02*
X119327500Y-86420000I147500J0D01*
G01*
X119672500Y-86420000D01*
G75*
G02*
X119820000Y-86567500I0J-147500D01*
G01*
X119820000Y-86862500D01*
G75*
G02*
X119672500Y-87010000I-147500J0D01*
G01*
G37*
G36*
G01*
X119672500Y-87980000D02*
X119327500Y-87980000D01*
G75*
G02*
X119180000Y-87832500I0J147500D01*
G01*
X119180000Y-87537500D01*
G75*
G02*
X119327500Y-87390000I147500J0D01*
G01*
X119672500Y-87390000D01*
G75*
G02*
X119820000Y-87537500I0J-147500D01*
G01*
X119820000Y-87832500D01*
G75*
G02*
X119672500Y-87980000I-147500J0D01*
G01*
G37*
G36*
G01*
X168325000Y-95525000D02*
X168325000Y-97675000D01*
G75*
G02*
X168075000Y-97925000I-250000J0D01*
G01*
X167325000Y-97925000D01*
G75*
G02*
X167075000Y-97675000I0J250000D01*
G01*
X167075000Y-95525000D01*
G75*
G02*
X167325000Y-95275000I250000J0D01*
G01*
X168075000Y-95275000D01*
G75*
G02*
X168325000Y-95525000I0J-250000D01*
G01*
G37*
G36*
G01*
X171125000Y-95525000D02*
X171125000Y-97675000D01*
G75*
G02*
X170875000Y-97925000I-250000J0D01*
G01*
X170125000Y-97925000D01*
G75*
G02*
X169875000Y-97675000I0J250000D01*
G01*
X169875000Y-95525000D01*
G75*
G02*
X170125000Y-95275000I250000J0D01*
G01*
X170875000Y-95275000D01*
G75*
G02*
X171125000Y-95525000I0J-250000D01*
G01*
G37*
D18*
X153230000Y-124820000D03*
X150230000Y-124820000D03*
X147230000Y-124820000D03*
X144230000Y-124820000D03*
X141230000Y-124820000D03*
D15*
X168320000Y-108770000D03*
X168320000Y-111770000D03*
X168320000Y-114770000D03*
X168320000Y-117770000D03*
X168320000Y-120770000D03*
G36*
G01*
X135125000Y-120375000D02*
X137275000Y-120375000D01*
G75*
G02*
X137525000Y-120625000I0J-250000D01*
G01*
X137525000Y-121375000D01*
G75*
G02*
X137275000Y-121625000I-250000J0D01*
G01*
X135125000Y-121625000D01*
G75*
G02*
X134875000Y-121375000I0J250000D01*
G01*
X134875000Y-120625000D01*
G75*
G02*
X135125000Y-120375000I250000J0D01*
G01*
G37*
G36*
G01*
X135125000Y-117575000D02*
X137275000Y-117575000D01*
G75*
G02*
X137525000Y-117825000I0J-250000D01*
G01*
X137525000Y-118575000D01*
G75*
G02*
X137275000Y-118825000I-250000J0D01*
G01*
X135125000Y-118825000D01*
G75*
G02*
X134875000Y-118575000I0J250000D01*
G01*
X134875000Y-117825000D01*
G75*
G02*
X135125000Y-117575000I250000J0D01*
G01*
G37*
G36*
G01*
X128825000Y-106675000D02*
X130975000Y-106675000D01*
G75*
G02*
X131225000Y-106925000I0J-250000D01*
G01*
X131225000Y-107675000D01*
G75*
G02*
X130975000Y-107925000I-250000J0D01*
G01*
X128825000Y-107925000D01*
G75*
G02*
X128575000Y-107675000I0J250000D01*
G01*
X128575000Y-106925000D01*
G75*
G02*
X128825000Y-106675000I250000J0D01*
G01*
G37*
G36*
G01*
X128825000Y-103875000D02*
X130975000Y-103875000D01*
G75*
G02*
X131225000Y-104125000I0J-250000D01*
G01*
X131225000Y-104875000D01*
G75*
G02*
X130975000Y-105125000I-250000J0D01*
G01*
X128825000Y-105125000D01*
G75*
G02*
X128575000Y-104875000I0J250000D01*
G01*
X128575000Y-104125000D01*
G75*
G02*
X128825000Y-103875000I250000J0D01*
G01*
G37*
G36*
G01*
X160375000Y-90375000D02*
X160375000Y-90925000D01*
G75*
G02*
X160125000Y-91175000I-250000J0D01*
G01*
X159575000Y-91175000D01*
G75*
G02*
X159325000Y-90925000I0J250000D01*
G01*
X159325000Y-90375000D01*
G75*
G02*
X159575000Y-90125000I250000J0D01*
G01*
X160125000Y-90125000D01*
G75*
G02*
X160375000Y-90375000I0J-250000D01*
G01*
G37*
G36*
G01*
X160375000Y-89075000D02*
X160375000Y-89625000D01*
G75*
G02*
X160125000Y-89875000I-250000J0D01*
G01*
X159575000Y-89875000D01*
G75*
G02*
X159325000Y-89625000I0J250000D01*
G01*
X159325000Y-89075000D01*
G75*
G02*
X159575000Y-88825000I250000J0D01*
G01*
X160125000Y-88825000D01*
G75*
G02*
X160375000Y-89075000I0J-250000D01*
G01*
G37*
G36*
G01*
X159075000Y-90375000D02*
X159075000Y-90925000D01*
G75*
G02*
X158825000Y-91175000I-250000J0D01*
G01*
X158275000Y-91175000D01*
G75*
G02*
X158025000Y-90925000I0J250000D01*
G01*
X158025000Y-90375000D01*
G75*
G02*
X158275000Y-90125000I250000J0D01*
G01*
X158825000Y-90125000D01*
G75*
G02*
X159075000Y-90375000I0J-250000D01*
G01*
G37*
G36*
G01*
X159075000Y-89075000D02*
X159075000Y-89625000D01*
G75*
G02*
X158825000Y-89875000I-250000J0D01*
G01*
X158275000Y-89875000D01*
G75*
G02*
X158025000Y-89625000I0J250000D01*
G01*
X158025000Y-89075000D01*
G75*
G02*
X158275000Y-88825000I250000J0D01*
G01*
X158825000Y-88825000D01*
G75*
G02*
X159075000Y-89075000I0J-250000D01*
G01*
G37*
G36*
G01*
X161550000Y-91187500D02*
X161550000Y-91312500D01*
G75*
G02*
X161487500Y-91375000I-62500J0D01*
G01*
X160787500Y-91375000D01*
G75*
G02*
X160725000Y-91312500I0J62500D01*
G01*
X160725000Y-91187500D01*
G75*
G02*
X160787500Y-91125000I62500J0D01*
G01*
X161487500Y-91125000D01*
G75*
G02*
X161550000Y-91187500I0J-62500D01*
G01*
G37*
G36*
G01*
X161550000Y-90687500D02*
X161550000Y-90812500D01*
G75*
G02*
X161487500Y-90875000I-62500J0D01*
G01*
X160787500Y-90875000D01*
G75*
G02*
X160725000Y-90812500I0J62500D01*
G01*
X160725000Y-90687500D01*
G75*
G02*
X160787500Y-90625000I62500J0D01*
G01*
X161487500Y-90625000D01*
G75*
G02*
X161550000Y-90687500I0J-62500D01*
G01*
G37*
G36*
G01*
X161550000Y-90187500D02*
X161550000Y-90312500D01*
G75*
G02*
X161487500Y-90375000I-62500J0D01*
G01*
X160787500Y-90375000D01*
G75*
G02*
X160725000Y-90312500I0J62500D01*
G01*
X160725000Y-90187500D01*
G75*
G02*
X160787500Y-90125000I62500J0D01*
G01*
X161487500Y-90125000D01*
G75*
G02*
X161550000Y-90187500I0J-62500D01*
G01*
G37*
G36*
G01*
X161550000Y-89687500D02*
X161550000Y-89812500D01*
G75*
G02*
X161487500Y-89875000I-62500J0D01*
G01*
X160787500Y-89875000D01*
G75*
G02*
X160725000Y-89812500I0J62500D01*
G01*
X160725000Y-89687500D01*
G75*
G02*
X160787500Y-89625000I62500J0D01*
G01*
X161487500Y-89625000D01*
G75*
G02*
X161550000Y-89687500I0J-62500D01*
G01*
G37*
G36*
G01*
X161550000Y-89187500D02*
X161550000Y-89312500D01*
G75*
G02*
X161487500Y-89375000I-62500J0D01*
G01*
X160787500Y-89375000D01*
G75*
G02*
X160725000Y-89312500I0J62500D01*
G01*
X160725000Y-89187500D01*
G75*
G02*
X160787500Y-89125000I62500J0D01*
G01*
X161487500Y-89125000D01*
G75*
G02*
X161550000Y-89187500I0J-62500D01*
G01*
G37*
G36*
G01*
X161550000Y-88687500D02*
X161550000Y-88812500D01*
G75*
G02*
X161487500Y-88875000I-62500J0D01*
G01*
X160787500Y-88875000D01*
G75*
G02*
X160725000Y-88812500I0J62500D01*
G01*
X160725000Y-88687500D01*
G75*
G02*
X160787500Y-88625000I62500J0D01*
G01*
X161487500Y-88625000D01*
G75*
G02*
X161550000Y-88687500I0J-62500D01*
G01*
G37*
G36*
G01*
X160575000Y-87712500D02*
X160575000Y-88412500D01*
G75*
G02*
X160512500Y-88475000I-62500J0D01*
G01*
X160387500Y-88475000D01*
G75*
G02*
X160325000Y-88412500I0J62500D01*
G01*
X160325000Y-87712500D01*
G75*
G02*
X160387500Y-87650000I62500J0D01*
G01*
X160512500Y-87650000D01*
G75*
G02*
X160575000Y-87712500I0J-62500D01*
G01*
G37*
G36*
G01*
X160075000Y-87712500D02*
X160075000Y-88412500D01*
G75*
G02*
X160012500Y-88475000I-62500J0D01*
G01*
X159887500Y-88475000D01*
G75*
G02*
X159825000Y-88412500I0J62500D01*
G01*
X159825000Y-87712500D01*
G75*
G02*
X159887500Y-87650000I62500J0D01*
G01*
X160012500Y-87650000D01*
G75*
G02*
X160075000Y-87712500I0J-62500D01*
G01*
G37*
G36*
G01*
X159575000Y-87712500D02*
X159575000Y-88412500D01*
G75*
G02*
X159512500Y-88475000I-62500J0D01*
G01*
X159387500Y-88475000D01*
G75*
G02*
X159325000Y-88412500I0J62500D01*
G01*
X159325000Y-87712500D01*
G75*
G02*
X159387500Y-87650000I62500J0D01*
G01*
X159512500Y-87650000D01*
G75*
G02*
X159575000Y-87712500I0J-62500D01*
G01*
G37*
G36*
G01*
X159075000Y-87712500D02*
X159075000Y-88412500D01*
G75*
G02*
X159012500Y-88475000I-62500J0D01*
G01*
X158887500Y-88475000D01*
G75*
G02*
X158825000Y-88412500I0J62500D01*
G01*
X158825000Y-87712500D01*
G75*
G02*
X158887500Y-87650000I62500J0D01*
G01*
X159012500Y-87650000D01*
G75*
G02*
X159075000Y-87712500I0J-62500D01*
G01*
G37*
G36*
G01*
X158575000Y-87712500D02*
X158575000Y-88412500D01*
G75*
G02*
X158512500Y-88475000I-62500J0D01*
G01*
X158387500Y-88475000D01*
G75*
G02*
X158325000Y-88412500I0J62500D01*
G01*
X158325000Y-87712500D01*
G75*
G02*
X158387500Y-87650000I62500J0D01*
G01*
X158512500Y-87650000D01*
G75*
G02*
X158575000Y-87712500I0J-62500D01*
G01*
G37*
G36*
G01*
X158075000Y-87712500D02*
X158075000Y-88412500D01*
G75*
G02*
X158012500Y-88475000I-62500J0D01*
G01*
X157887500Y-88475000D01*
G75*
G02*
X157825000Y-88412500I0J62500D01*
G01*
X157825000Y-87712500D01*
G75*
G02*
X157887500Y-87650000I62500J0D01*
G01*
X158012500Y-87650000D01*
G75*
G02*
X158075000Y-87712500I0J-62500D01*
G01*
G37*
G36*
G01*
X157675000Y-88687500D02*
X157675000Y-88812500D01*
G75*
G02*
X157612500Y-88875000I-62500J0D01*
G01*
X156912500Y-88875000D01*
G75*
G02*
X156850000Y-88812500I0J62500D01*
G01*
X156850000Y-88687500D01*
G75*
G02*
X156912500Y-88625000I62500J0D01*
G01*
X157612500Y-88625000D01*
G75*
G02*
X157675000Y-88687500I0J-62500D01*
G01*
G37*
G36*
G01*
X157675000Y-89187500D02*
X157675000Y-89312500D01*
G75*
G02*
X157612500Y-89375000I-62500J0D01*
G01*
X156912500Y-89375000D01*
G75*
G02*
X156850000Y-89312500I0J62500D01*
G01*
X156850000Y-89187500D01*
G75*
G02*
X156912500Y-89125000I62500J0D01*
G01*
X157612500Y-89125000D01*
G75*
G02*
X157675000Y-89187500I0J-62500D01*
G01*
G37*
G36*
G01*
X157675000Y-89687500D02*
X157675000Y-89812500D01*
G75*
G02*
X157612500Y-89875000I-62500J0D01*
G01*
X156912500Y-89875000D01*
G75*
G02*
X156850000Y-89812500I0J62500D01*
G01*
X156850000Y-89687500D01*
G75*
G02*
X156912500Y-89625000I62500J0D01*
G01*
X157612500Y-89625000D01*
G75*
G02*
X157675000Y-89687500I0J-62500D01*
G01*
G37*
G36*
G01*
X157675000Y-90187500D02*
X157675000Y-90312500D01*
G75*
G02*
X157612500Y-90375000I-62500J0D01*
G01*
X156912500Y-90375000D01*
G75*
G02*
X156850000Y-90312500I0J62500D01*
G01*
X156850000Y-90187500D01*
G75*
G02*
X156912500Y-90125000I62500J0D01*
G01*
X157612500Y-90125000D01*
G75*
G02*
X157675000Y-90187500I0J-62500D01*
G01*
G37*
G36*
G01*
X157675000Y-90687500D02*
X157675000Y-90812500D01*
G75*
G02*
X157612500Y-90875000I-62500J0D01*
G01*
X156912500Y-90875000D01*
G75*
G02*
X156850000Y-90812500I0J62500D01*
G01*
X156850000Y-90687500D01*
G75*
G02*
X156912500Y-90625000I62500J0D01*
G01*
X157612500Y-90625000D01*
G75*
G02*
X157675000Y-90687500I0J-62500D01*
G01*
G37*
G36*
G01*
X157675000Y-91187500D02*
X157675000Y-91312500D01*
G75*
G02*
X157612500Y-91375000I-62500J0D01*
G01*
X156912500Y-91375000D01*
G75*
G02*
X156850000Y-91312500I0J62500D01*
G01*
X156850000Y-91187500D01*
G75*
G02*
X156912500Y-91125000I62500J0D01*
G01*
X157612500Y-91125000D01*
G75*
G02*
X157675000Y-91187500I0J-62500D01*
G01*
G37*
G36*
G01*
X158075000Y-91587500D02*
X158075000Y-92287500D01*
G75*
G02*
X158012500Y-92350000I-62500J0D01*
G01*
X157887500Y-92350000D01*
G75*
G02*
X157825000Y-92287500I0J62500D01*
G01*
X157825000Y-91587500D01*
G75*
G02*
X157887500Y-91525000I62500J0D01*
G01*
X158012500Y-91525000D01*
G75*
G02*
X158075000Y-91587500I0J-62500D01*
G01*
G37*
G36*
G01*
X158575000Y-91587500D02*
X158575000Y-92287500D01*
G75*
G02*
X158512500Y-92350000I-62500J0D01*
G01*
X158387500Y-92350000D01*
G75*
G02*
X158325000Y-92287500I0J62500D01*
G01*
X158325000Y-91587500D01*
G75*
G02*
X158387500Y-91525000I62500J0D01*
G01*
X158512500Y-91525000D01*
G75*
G02*
X158575000Y-91587500I0J-62500D01*
G01*
G37*
G36*
G01*
X159075000Y-91587500D02*
X159075000Y-92287500D01*
G75*
G02*
X159012500Y-92350000I-62500J0D01*
G01*
X158887500Y-92350000D01*
G75*
G02*
X158825000Y-92287500I0J62500D01*
G01*
X158825000Y-91587500D01*
G75*
G02*
X158887500Y-91525000I62500J0D01*
G01*
X159012500Y-91525000D01*
G75*
G02*
X159075000Y-91587500I0J-62500D01*
G01*
G37*
G36*
G01*
X159575000Y-91587500D02*
X159575000Y-92287500D01*
G75*
G02*
X159512500Y-92350000I-62500J0D01*
G01*
X159387500Y-92350000D01*
G75*
G02*
X159325000Y-92287500I0J62500D01*
G01*
X159325000Y-91587500D01*
G75*
G02*
X159387500Y-91525000I62500J0D01*
G01*
X159512500Y-91525000D01*
G75*
G02*
X159575000Y-91587500I0J-62500D01*
G01*
G37*
G36*
G01*
X160075000Y-91587500D02*
X160075000Y-92287500D01*
G75*
G02*
X160012500Y-92350000I-62500J0D01*
G01*
X159887500Y-92350000D01*
G75*
G02*
X159825000Y-92287500I0J62500D01*
G01*
X159825000Y-91587500D01*
G75*
G02*
X159887500Y-91525000I62500J0D01*
G01*
X160012500Y-91525000D01*
G75*
G02*
X160075000Y-91587500I0J-62500D01*
G01*
G37*
G36*
G01*
X160575000Y-91587500D02*
X160575000Y-92287500D01*
G75*
G02*
X160512500Y-92350000I-62500J0D01*
G01*
X160387500Y-92350000D01*
G75*
G02*
X160325000Y-92287500I0J62500D01*
G01*
X160325000Y-91587500D01*
G75*
G02*
X160387500Y-91525000I62500J0D01*
G01*
X160512500Y-91525000D01*
G75*
G02*
X160575000Y-91587500I0J-62500D01*
G01*
G37*
G36*
G01*
X173025000Y-94925000D02*
X173025000Y-97075000D01*
G75*
G02*
X172775000Y-97325000I-250000J0D01*
G01*
X172025000Y-97325000D01*
G75*
G02*
X171775000Y-97075000I0J250000D01*
G01*
X171775000Y-94925000D01*
G75*
G02*
X172025000Y-94675000I250000J0D01*
G01*
X172775000Y-94675000D01*
G75*
G02*
X173025000Y-94925000I0J-250000D01*
G01*
G37*
G36*
G01*
X175825000Y-94925000D02*
X175825000Y-97075000D01*
G75*
G02*
X175575000Y-97325000I-250000J0D01*
G01*
X174825000Y-97325000D01*
G75*
G02*
X174575000Y-97075000I0J250000D01*
G01*
X174575000Y-94925000D01*
G75*
G02*
X174825000Y-94675000I250000J0D01*
G01*
X175575000Y-94675000D01*
G75*
G02*
X175825000Y-94925000I0J-250000D01*
G01*
G37*
G36*
G01*
X127075000Y-87725000D02*
X124925000Y-87725000D01*
G75*
G02*
X124675000Y-87475000I0J250000D01*
G01*
X124675000Y-86725000D01*
G75*
G02*
X124925000Y-86475000I250000J0D01*
G01*
X127075000Y-86475000D01*
G75*
G02*
X127325000Y-86725000I0J-250000D01*
G01*
X127325000Y-87475000D01*
G75*
G02*
X127075000Y-87725000I-250000J0D01*
G01*
G37*
G36*
G01*
X127075000Y-90525000D02*
X124925000Y-90525000D01*
G75*
G02*
X124675000Y-90275000I0J250000D01*
G01*
X124675000Y-89525000D01*
G75*
G02*
X124925000Y-89275000I250000J0D01*
G01*
X127075000Y-89275000D01*
G75*
G02*
X127325000Y-89525000I0J-250000D01*
G01*
X127325000Y-90275000D01*
G75*
G02*
X127075000Y-90525000I-250000J0D01*
G01*
G37*
G36*
G01*
X127975000Y-95825000D02*
X125825000Y-95825000D01*
G75*
G02*
X125575000Y-95575000I0J250000D01*
G01*
X125575000Y-94825000D01*
G75*
G02*
X125825000Y-94575000I250000J0D01*
G01*
X127975000Y-94575000D01*
G75*
G02*
X128225000Y-94825000I0J-250000D01*
G01*
X128225000Y-95575000D01*
G75*
G02*
X127975000Y-95825000I-250000J0D01*
G01*
G37*
G36*
G01*
X127975000Y-98625000D02*
X125825000Y-98625000D01*
G75*
G02*
X125575000Y-98375000I0J250000D01*
G01*
X125575000Y-97625000D01*
G75*
G02*
X125825000Y-97375000I250000J0D01*
G01*
X127975000Y-97375000D01*
G75*
G02*
X128225000Y-97625000I0J-250000D01*
G01*
X128225000Y-98375000D01*
G75*
G02*
X127975000Y-98625000I-250000J0D01*
G01*
G37*
G36*
G01*
X122075000Y-93375000D02*
X122075000Y-91225000D01*
G75*
G02*
X122325000Y-90975000I250000J0D01*
G01*
X123075000Y-90975000D01*
G75*
G02*
X123325000Y-91225000I0J-250000D01*
G01*
X123325000Y-93375000D01*
G75*
G02*
X123075000Y-93625000I-250000J0D01*
G01*
X122325000Y-93625000D01*
G75*
G02*
X122075000Y-93375000I0J250000D01*
G01*
G37*
G36*
G01*
X119275000Y-93375000D02*
X119275000Y-91225000D01*
G75*
G02*
X119525000Y-90975000I250000J0D01*
G01*
X120275000Y-90975000D01*
G75*
G02*
X120525000Y-91225000I0J-250000D01*
G01*
X120525000Y-93375000D01*
G75*
G02*
X120275000Y-93625000I-250000J0D01*
G01*
X119525000Y-93625000D01*
G75*
G02*
X119275000Y-93375000I0J250000D01*
G01*
G37*
G36*
G01*
X165743750Y-101250000D02*
X166256250Y-101250000D01*
G75*
G02*
X166475000Y-101468750I0J-218750D01*
G01*
X166475000Y-101906250D01*
G75*
G02*
X166256250Y-102125000I-218750J0D01*
G01*
X165743750Y-102125000D01*
G75*
G02*
X165525000Y-101906250I0J218750D01*
G01*
X165525000Y-101468750D01*
G75*
G02*
X165743750Y-101250000I218750J0D01*
G01*
G37*
G36*
G01*
X165743750Y-99675000D02*
X166256250Y-99675000D01*
G75*
G02*
X166475000Y-99893750I0J-218750D01*
G01*
X166475000Y-100331250D01*
G75*
G02*
X166256250Y-100550000I-218750J0D01*
G01*
X165743750Y-100550000D01*
G75*
G02*
X165525000Y-100331250I0J218750D01*
G01*
X165525000Y-99893750D01*
G75*
G02*
X165743750Y-99675000I218750J0D01*
G01*
G37*
G36*
G01*
X129172500Y-97810000D02*
X128827500Y-97810000D01*
G75*
G02*
X128680000Y-97662500I0J147500D01*
G01*
X128680000Y-97367500D01*
G75*
G02*
X128827500Y-97220000I147500J0D01*
G01*
X129172500Y-97220000D01*
G75*
G02*
X129320000Y-97367500I0J-147500D01*
G01*
X129320000Y-97662500D01*
G75*
G02*
X129172500Y-97810000I-147500J0D01*
G01*
G37*
G36*
G01*
X129172500Y-98780000D02*
X128827500Y-98780000D01*
G75*
G02*
X128680000Y-98632500I0J147500D01*
G01*
X128680000Y-98337500D01*
G75*
G02*
X128827500Y-98190000I147500J0D01*
G01*
X129172500Y-98190000D01*
G75*
G02*
X129320000Y-98337500I0J-147500D01*
G01*
X129320000Y-98632500D01*
G75*
G02*
X129172500Y-98780000I-147500J0D01*
G01*
G37*
G36*
G01*
X121090000Y-85872500D02*
X121090000Y-85527500D01*
G75*
G02*
X121237500Y-85380000I147500J0D01*
G01*
X121532500Y-85380000D01*
G75*
G02*
X121680000Y-85527500I0J-147500D01*
G01*
X121680000Y-85872500D01*
G75*
G02*
X121532500Y-86020000I-147500J0D01*
G01*
X121237500Y-86020000D01*
G75*
G02*
X121090000Y-85872500I0J147500D01*
G01*
G37*
G36*
G01*
X120120000Y-85872500D02*
X120120000Y-85527500D01*
G75*
G02*
X120267500Y-85380000I147500J0D01*
G01*
X120562500Y-85380000D01*
G75*
G02*
X120710000Y-85527500I0J-147500D01*
G01*
X120710000Y-85872500D01*
G75*
G02*
X120562500Y-86020000I-147500J0D01*
G01*
X120267500Y-86020000D01*
G75*
G02*
X120120000Y-85872500I0J147500D01*
G01*
G37*
D19*
X120605000Y-89330000D03*
X123555000Y-89330000D03*
X120605000Y-88530000D03*
X123555000Y-88530000D03*
X120605000Y-87730000D03*
X123555000Y-87730000D03*
X120605000Y-86930000D03*
X123555000Y-86930000D03*
D20*
X121530000Y-88130000D03*
X122630000Y-88130000D03*
G36*
G01*
X168690000Y-86772500D02*
X168690000Y-86427500D01*
G75*
G02*
X168837500Y-86280000I147500J0D01*
G01*
X169132500Y-86280000D01*
G75*
G02*
X169280000Y-86427500I0J-147500D01*
G01*
X169280000Y-86772500D01*
G75*
G02*
X169132500Y-86920000I-147500J0D01*
G01*
X168837500Y-86920000D01*
G75*
G02*
X168690000Y-86772500I0J147500D01*
G01*
G37*
G36*
G01*
X167720000Y-86772500D02*
X167720000Y-86427500D01*
G75*
G02*
X167867500Y-86280000I147500J0D01*
G01*
X168162500Y-86280000D01*
G75*
G02*
X168310000Y-86427500I0J-147500D01*
G01*
X168310000Y-86772500D01*
G75*
G02*
X168162500Y-86920000I-147500J0D01*
G01*
X167867500Y-86920000D01*
G75*
G02*
X167720000Y-86772500I0J147500D01*
G01*
G37*
G36*
G01*
X168325000Y-98725000D02*
X168325000Y-100875000D01*
G75*
G02*
X168075000Y-101125000I-250000J0D01*
G01*
X167325000Y-101125000D01*
G75*
G02*
X167075000Y-100875000I0J250000D01*
G01*
X167075000Y-98725000D01*
G75*
G02*
X167325000Y-98475000I250000J0D01*
G01*
X168075000Y-98475000D01*
G75*
G02*
X168325000Y-98725000I0J-250000D01*
G01*
G37*
G36*
G01*
X171125000Y-98725000D02*
X171125000Y-100875000D01*
G75*
G02*
X170875000Y-101125000I-250000J0D01*
G01*
X170125000Y-101125000D01*
G75*
G02*
X169875000Y-100875000I0J250000D01*
G01*
X169875000Y-98725000D01*
G75*
G02*
X170125000Y-98475000I250000J0D01*
G01*
X170875000Y-98475000D01*
G75*
G02*
X171125000Y-98725000I0J-250000D01*
G01*
G37*
G36*
G01*
X165127500Y-97090000D02*
X165472500Y-97090000D01*
G75*
G02*
X165620000Y-97237500I0J-147500D01*
G01*
X165620000Y-97532500D01*
G75*
G02*
X165472500Y-97680000I-147500J0D01*
G01*
X165127500Y-97680000D01*
G75*
G02*
X164980000Y-97532500I0J147500D01*
G01*
X164980000Y-97237500D01*
G75*
G02*
X165127500Y-97090000I147500J0D01*
G01*
G37*
G36*
G01*
X165127500Y-96120000D02*
X165472500Y-96120000D01*
G75*
G02*
X165620000Y-96267500I0J-147500D01*
G01*
X165620000Y-96562500D01*
G75*
G02*
X165472500Y-96710000I-147500J0D01*
G01*
X165127500Y-96710000D01*
G75*
G02*
X164980000Y-96562500I0J147500D01*
G01*
X164980000Y-96267500D01*
G75*
G02*
X165127500Y-96120000I147500J0D01*
G01*
G37*
G36*
G01*
X173025000Y-91725000D02*
X173025000Y-93875000D01*
G75*
G02*
X172775000Y-94125000I-250000J0D01*
G01*
X172025000Y-94125000D01*
G75*
G02*
X171775000Y-93875000I0J250000D01*
G01*
X171775000Y-91725000D01*
G75*
G02*
X172025000Y-91475000I250000J0D01*
G01*
X172775000Y-91475000D01*
G75*
G02*
X173025000Y-91725000I0J-250000D01*
G01*
G37*
G36*
G01*
X175825000Y-91725000D02*
X175825000Y-93875000D01*
G75*
G02*
X175575000Y-94125000I-250000J0D01*
G01*
X174825000Y-94125000D01*
G75*
G02*
X174575000Y-93875000I0J250000D01*
G01*
X174575000Y-91725000D01*
G75*
G02*
X174825000Y-91475000I250000J0D01*
G01*
X175575000Y-91475000D01*
G75*
G02*
X175825000Y-91725000I0J-250000D01*
G01*
G37*
G36*
G01*
X166472500Y-96710000D02*
X166127500Y-96710000D01*
G75*
G02*
X165980000Y-96562500I0J147500D01*
G01*
X165980000Y-96267500D01*
G75*
G02*
X166127500Y-96120000I147500J0D01*
G01*
X166472500Y-96120000D01*
G75*
G02*
X166620000Y-96267500I0J-147500D01*
G01*
X166620000Y-96562500D01*
G75*
G02*
X166472500Y-96710000I-147500J0D01*
G01*
G37*
G36*
G01*
X166472500Y-97680000D02*
X166127500Y-97680000D01*
G75*
G02*
X165980000Y-97532500I0J147500D01*
G01*
X165980000Y-97237500D01*
G75*
G02*
X166127500Y-97090000I147500J0D01*
G01*
X166472500Y-97090000D01*
G75*
G02*
X166620000Y-97237500I0J-147500D01*
G01*
X166620000Y-97532500D01*
G75*
G02*
X166472500Y-97680000I-147500J0D01*
G01*
G37*
G36*
G01*
X165190000Y-95572500D02*
X165190000Y-95227500D01*
G75*
G02*
X165337500Y-95080000I147500J0D01*
G01*
X165632500Y-95080000D01*
G75*
G02*
X165780000Y-95227500I0J-147500D01*
G01*
X165780000Y-95572500D01*
G75*
G02*
X165632500Y-95720000I-147500J0D01*
G01*
X165337500Y-95720000D01*
G75*
G02*
X165190000Y-95572500I0J147500D01*
G01*
G37*
G36*
G01*
X164220000Y-95572500D02*
X164220000Y-95227500D01*
G75*
G02*
X164367500Y-95080000I147500J0D01*
G01*
X164662500Y-95080000D01*
G75*
G02*
X164810000Y-95227500I0J-147500D01*
G01*
X164810000Y-95572500D01*
G75*
G02*
X164662500Y-95720000I-147500J0D01*
G01*
X164367500Y-95720000D01*
G75*
G02*
X164220000Y-95572500I0J147500D01*
G01*
G37*
G36*
G01*
X165495000Y-86427500D02*
X165495000Y-86772500D01*
G75*
G02*
X165347500Y-86920000I-147500J0D01*
G01*
X165052500Y-86920000D01*
G75*
G02*
X164905000Y-86772500I0J147500D01*
G01*
X164905000Y-86427500D01*
G75*
G02*
X165052500Y-86280000I147500J0D01*
G01*
X165347500Y-86280000D01*
G75*
G02*
X165495000Y-86427500I0J-147500D01*
G01*
G37*
G36*
G01*
X166465000Y-86427500D02*
X166465000Y-86772500D01*
G75*
G02*
X166317500Y-86920000I-147500J0D01*
G01*
X166022500Y-86920000D01*
G75*
G02*
X165875000Y-86772500I0J147500D01*
G01*
X165875000Y-86427500D01*
G75*
G02*
X166022500Y-86280000I147500J0D01*
G01*
X166317500Y-86280000D01*
G75*
G02*
X166465000Y-86427500I0J-147500D01*
G01*
G37*
G36*
G01*
X167272500Y-85910000D02*
X166927500Y-85910000D01*
G75*
G02*
X166780000Y-85762500I0J147500D01*
G01*
X166780000Y-85467500D01*
G75*
G02*
X166927500Y-85320000I147500J0D01*
G01*
X167272500Y-85320000D01*
G75*
G02*
X167420000Y-85467500I0J-147500D01*
G01*
X167420000Y-85762500D01*
G75*
G02*
X167272500Y-85910000I-147500J0D01*
G01*
G37*
G36*
G01*
X167272500Y-86880000D02*
X166927500Y-86880000D01*
G75*
G02*
X166780000Y-86732500I0J147500D01*
G01*
X166780000Y-86437500D01*
G75*
G02*
X166927500Y-86290000I147500J0D01*
G01*
X167272500Y-86290000D01*
G75*
G02*
X167420000Y-86437500I0J-147500D01*
G01*
X167420000Y-86732500D01*
G75*
G02*
X167272500Y-86880000I-147500J0D01*
G01*
G37*
M02*
