M48
; DRILL file {KiCad 5.99.0-unknown-dd374e12a~102~ubuntu20.04.1} date Fri Dec  4 17:09:28 2020
; FORMAT={-:-/ absolute / inch / decimal}
; #@! TF.CreationDate,2020-12-04T17:09:28-08:00
; #@! TF.GenerationSoftware,Kicad,Pcbnew,5.99.0-unknown-dd374e12a~102~ubuntu20.04.1
FMAT,2
INCH
T1C0.0150
T2C0.0150
T3C0.0157
T4C0.0390
T5C0.0394
T6C0.0949
T7C0.1378
%
G90
G05
T1
X4.7047Y-3.2874
X4.7559Y-4.1339
X4.7559Y-4.1732
X4.7598Y-4.4134
X4.7598Y-4.4495
X4.7598Y-4.6975
X4.7598Y-4.7376
X4.9055Y-4.5748
X4.9055Y-4.6181
X4.9094Y-4.2953
X4.9094Y-4.3346
X4.9173Y-4.8583
X4.9173Y-4.9016
X4.9213Y-3.2874
X4.9213Y-3.3268
X4.9213Y-3.3661
X4.937Y-4.5748
X4.937Y-4.6181
X4.9409Y-4.2953
X4.9409Y-4.3346
X4.9567Y-4.8583
X4.9567Y-4.9016
X5.0276Y-4.4646
X5.1496Y-3.0039
X5.1496Y-4.3937
X5.1496Y-4.6496
X5.1969Y-3.0039
X5.1969Y-3.1496
X5.2441Y-3.0039
X5.248Y-3.1496
X5.2992Y-4.6102
X5.3819Y-3.689
X5.3976Y-4.8504
X5.5118Y-3.7874
X5.5236Y-3.4803
X5.5236Y-3.5906
X5.5551Y-3.5079
X5.5984Y-3.4016
X5.6063Y-3.8504
X5.622Y-3.689
X5.6299Y-3.7283
X5.6339Y-3.4882
X5.7126Y-3.5276
X5.7677Y-3.5472
X5.7677Y-4.5157
X5.8228Y-3.9409
X5.8465Y-3.685
X5.9331Y-4.7559
X5.9882Y-4.7559
X5.9961Y-3.3976
X6.0039Y-3.2835
X6.1535Y-3.4843
X6.2598Y-3.9685
X6.2795Y-3.4134
X6.2913Y-3.3031
X6.2913Y-3.3425
X6.3228Y-3.4173
X6.3937Y-3.4449
X6.3937Y-3.5551
X6.4394Y-3.7228
X6.4724Y-3.4094
X6.5394Y-3.374
X6.5433Y-3.8701
X6.5512Y-3.7563
X6.5591Y-3.3346
X6.6063Y-4.2205
X6.7126Y-3.7323
X6.7441Y-3.6575
X6.7559Y-3.8976
X6.7559Y-3.9606
X6.7874Y-3.5787
X6.7874Y-3.8504
X6.8189Y-3.9606
X6.9488Y-3.811
T2
X4.7047Y-3.374
X4.7402Y-3.5591
X4.748Y-3.811
X4.8898Y-3.7047
X4.8937Y-3.5906
X4.8937Y-3.6496
X4.8976Y-3.4843
X4.9213Y-3.8701
X4.9488Y-3.5906
X4.9567Y-3.7047
X4.9567Y-3.815
X5.0039Y-3.5906
X5.0276Y-3.7047
X5.0276Y-3.7559
X5.0315Y-3.815
X5.0827Y-4.063
X5.1299Y-5.2047
X5.1299Y-5.2717
X5.1457Y-4.063
X5.185Y-4.4567
X5.189Y-4.5118
X5.2126Y-4.2205
X5.2126Y-4.2953
X5.2165Y-4.7244
X5.2165Y-4.7835
X5.2283Y-4.0394
X5.2638Y-5.2047
X5.2638Y-5.2717
X5.2677Y-4.5295
X5.2874Y-4.6929
X5.2953Y-4.3209
X5.2953Y-4.4016
X5.2992Y-4.437
X5.311Y-4.1693
X5.315Y-3.4606
X5.315Y-3.5
X5.3465Y-4.0394
X5.3504Y-4.8504
X5.3622Y-4.1024
X5.4331Y-4.4094
X5.4331Y-4.6378
X5.4646Y-4.0394
X5.4685Y-4.1024
X5.4685Y-4.1496
X5.4685Y-4.1969
X5.5079Y-3.2717
X5.5118Y-4.4094
X5.5118Y-4.4882
X5.5118Y-4.5669
X5.5118Y-4.6457
X5.5315Y-3.9291
X5.5709Y-3.2008
X5.5709Y-3.9291
X5.5748Y-4.0394
X5.5906Y-4.4094
X5.5906Y-4.4882
X5.5906Y-4.5669
X5.5906Y-4.6457
X5.6004Y-4.1654
X5.6004Y-4.2047
X5.6339Y-4.8465
X5.6339Y-4.8858
X5.6339Y-4.9409
X5.6339Y-4.9921
X5.6417Y-3.8858
X5.6693Y-3.8543
X5.6772Y-4.9921
X5.7008Y-4.7953
X5.7106Y-4.2047
X5.7205Y-4.8386
X5.7205Y-4.8858
X5.7205Y-4.9409
X5.7205Y-4.9921
X5.7283Y-3.8425
X5.7323Y-4.2579
X5.7402Y-4.311
X5.7559Y-3.9409
X5.7795Y-3.2402
X5.7795Y-4.1102
X5.7795Y-4.1772
X5.7913Y-4.311
X5.8465Y-3.8386
X5.8465Y-4.1102
X5.8622Y-4.8425
X5.8707Y-3.2598
X5.9016Y-4.315
X5.91Y-3.2598
X5.9134Y-4.1102
X5.9134Y-4.1772
X5.9213Y-3.8268
X5.9331Y-4.811
X5.9803Y-3.6024
X5.9961Y-3.6732
X5.9961Y-3.752
X5.9961Y-3.7913
X6.0157Y-3.626
X6.0354Y-3.748
X6.126Y-3.5906
X6.1811Y-3.6496
X6.2953Y-4.1142
X6.3307Y-5.2008
X6.3307Y-5.2717
X6.3701Y-4.1142
X6.3701Y-4.2126
X6.3701Y-4.2992
X6.437Y-4.3307
X6.4685Y-3.9685
X6.4764Y-5.2008
X6.4764Y-5.2717
X6.4882Y-3.5354
X6.4882Y-3.5827
X6.4882Y-3.6299
X6.4961Y-4.4291
X6.5157Y-4.4685
X6.5197Y-4.5315
X6.5472Y-4.5945
X6.5472Y-4.6378
X6.5472Y-4.6772
X6.5669Y-3.5354
X6.5669Y-3.5827
X6.5669Y-3.6299
X6.5709Y-4.1181
X6.5984Y-4.5945
X6.5984Y-4.6772
X6.6457Y-3.5354
X6.6457Y-3.5827
X6.6457Y-3.6299
X6.6496Y-4.2205
X6.6496Y-4.5945
X6.6496Y-4.6772
X6.6732Y-4.185
X6.6929Y-4.2205
X6.7008Y-4.5945
X6.7008Y-4.6378
X6.7008Y-4.6772
T3
X4.7846Y-3.4697
X4.828Y-3.4697
T4
X5.0953Y-3.0348
X5.0953Y-3.1148
X5.2953Y-3.0748
T5
X5.4528Y-3.026
X5.4528Y-3.126
X5.5528Y-3.026
X5.5528Y-3.126
X5.6528Y-3.026
X5.6528Y-3.126
X5.7528Y-3.026
X5.7528Y-3.126
X5.8528Y-3.026
X5.8528Y-3.126
X5.9528Y-3.026
X5.9528Y-3.126
X6.0528Y-3.026
X6.0528Y-3.126
X6.1528Y-3.026
X6.1528Y-3.126
T6
X6.8421Y-4.1976
X6.8421Y-4.8394
X5.4756Y-5.1295
X6.1173Y-5.1295
T7
X6.8701Y-5.1575
X4.8228Y-3.1102
X6.8701Y-3.1102
X4.8228Y-5.1575
T0
M30
