G04 #@! TF.GenerationSoftware,KiCad,Pcbnew,5.99.0-unknown-dd374e12a~102~ubuntu20.04.1*
G04 #@! TF.CreationDate,2020-12-04T17:09:40-08:00*
G04 #@! TF.ProjectId,BLDC,424c4443-2e6b-4696-9361-645f70636258,rev?*
G04 #@! TF.SameCoordinates,Original*
G04 #@! TF.FileFunction,AssemblyDrawing,Top*
%FSLAX46Y46*%
G04 Gerber Fmt 4.6, Leading zero omitted, Abs format (unit mm)*
G04 Created by KiCad (PCBNEW 5.99.0-unknown-dd374e12a~102~ubuntu20.04.1) date 2020-12-04 17:09:40*
%MOMM*%
%LPD*%
G01*
G04 APERTURE LIST*
%ADD10C,0.200000*%
%ADD11C,0.150000*%
%ADD12C,0.040000*%
%ADD13C,0.120000*%
%ADD14C,0.060000*%
%ADD15C,0.100000*%
G04 APERTURE END LIST*
D10*
X142000000Y-99000000D02*
G75*
G03*
X142000000Y-99000000I-5000000J0D01*
G01*
X153500000Y-99000000D02*
G75*
G03*
X153500000Y-99000000I-5000000J0D01*
G01*
X165000000Y-99000000D02*
G75*
G03*
X165000000Y-99000000I-5000000J0D01*
G01*
X167600000Y-81700000D02*
G75*
G03*
X167600000Y-81700000I-5000000J0D01*
G01*
X137100000Y-81700000D02*
G75*
G03*
X137100000Y-81700000I-5000000J0D01*
G01*
D11*
X118500000Y-105000000D02*
X178500000Y-105000000D01*
D12*
X162593095Y-93091666D02*
X162474047Y-93175000D01*
X162593095Y-93234523D02*
X162343095Y-93234523D01*
X162343095Y-93139285D01*
X162355000Y-93115476D01*
X162366904Y-93103571D01*
X162390714Y-93091666D01*
X162426428Y-93091666D01*
X162450238Y-93103571D01*
X162462142Y-93115476D01*
X162474047Y-93139285D01*
X162474047Y-93234523D01*
X162343095Y-93008333D02*
X162343095Y-92853571D01*
X162438333Y-92936904D01*
X162438333Y-92901190D01*
X162450238Y-92877380D01*
X162462142Y-92865476D01*
X162485952Y-92853571D01*
X162545476Y-92853571D01*
X162569285Y-92865476D01*
X162581190Y-92877380D01*
X162593095Y-92901190D01*
X162593095Y-92972619D01*
X162581190Y-92996428D01*
X162569285Y-93008333D01*
X163603095Y-93091666D02*
X163484047Y-93175000D01*
X163603095Y-93234523D02*
X163353095Y-93234523D01*
X163353095Y-93139285D01*
X163365000Y-93115476D01*
X163376904Y-93103571D01*
X163400714Y-93091666D01*
X163436428Y-93091666D01*
X163460238Y-93103571D01*
X163472142Y-93115476D01*
X163484047Y-93139285D01*
X163484047Y-93234523D01*
X163603095Y-92853571D02*
X163603095Y-92996428D01*
X163603095Y-92925000D02*
X163353095Y-92925000D01*
X163388809Y-92948809D01*
X163412619Y-92972619D01*
X163424523Y-92996428D01*
D11*
X142109523Y-96161904D02*
X142109523Y-95361904D01*
X142300000Y-95361904D01*
X142414285Y-95400000D01*
X142490476Y-95476190D01*
X142528571Y-95552380D01*
X142566666Y-95704761D01*
X142566666Y-95819047D01*
X142528571Y-95971428D01*
X142490476Y-96047619D01*
X142414285Y-96123809D01*
X142300000Y-96161904D01*
X142109523Y-96161904D01*
X142871428Y-95438095D02*
X142909523Y-95400000D01*
X142985714Y-95361904D01*
X143176190Y-95361904D01*
X143252380Y-95400000D01*
X143290476Y-95438095D01*
X143328571Y-95514285D01*
X143328571Y-95590476D01*
X143290476Y-95704761D01*
X142833333Y-96161904D01*
X143328571Y-96161904D01*
X129861904Y-95790476D02*
X129061904Y-95790476D01*
X129061904Y-95600000D01*
X129100000Y-95485714D01*
X129176190Y-95409523D01*
X129252380Y-95371428D01*
X129404761Y-95333333D01*
X129519047Y-95333333D01*
X129671428Y-95371428D01*
X129747619Y-95409523D01*
X129823809Y-95485714D01*
X129861904Y-95600000D01*
X129861904Y-95790476D01*
X129061904Y-94838095D02*
X129061904Y-94761904D01*
X129100000Y-94685714D01*
X129138095Y-94647619D01*
X129214285Y-94609523D01*
X129366666Y-94571428D01*
X129557142Y-94571428D01*
X129709523Y-94609523D01*
X129785714Y-94647619D01*
X129823809Y-94685714D01*
X129861904Y-94761904D01*
X129861904Y-94838095D01*
X129823809Y-94914285D01*
X129785714Y-94952380D01*
X129709523Y-94990476D01*
X129557142Y-95028571D01*
X129366666Y-95028571D01*
X129214285Y-94990476D01*
X129138095Y-94952380D01*
X129100000Y-94914285D01*
X129061904Y-94838095D01*
X173733333Y-87552380D02*
X173257142Y-87552380D01*
X173257142Y-86552380D01*
X174019047Y-86647619D02*
X174066666Y-86600000D01*
X174161904Y-86552380D01*
X174400000Y-86552380D01*
X174495238Y-86600000D01*
X174542857Y-86647619D01*
X174590476Y-86742857D01*
X174590476Y-86838095D01*
X174542857Y-86980952D01*
X173971428Y-87552380D01*
X174590476Y-87552380D01*
X137285714Y-111514285D02*
X137323809Y-111552380D01*
X137361904Y-111666666D01*
X137361904Y-111742857D01*
X137323809Y-111857142D01*
X137247619Y-111933333D01*
X137171428Y-111971428D01*
X137019047Y-112009523D01*
X136904761Y-112009523D01*
X136752380Y-111971428D01*
X136676190Y-111933333D01*
X136600000Y-111857142D01*
X136561904Y-111742857D01*
X136561904Y-111666666D01*
X136600000Y-111552380D01*
X136638095Y-111514285D01*
X136638095Y-111209523D02*
X136600000Y-111171428D01*
X136561904Y-111095238D01*
X136561904Y-110904761D01*
X136600000Y-110828571D01*
X136638095Y-110790476D01*
X136714285Y-110752380D01*
X136790476Y-110752380D01*
X136904761Y-110790476D01*
X137361904Y-111247619D01*
X137361904Y-110752380D01*
X136638095Y-110447619D02*
X136600000Y-110409523D01*
X136561904Y-110333333D01*
X136561904Y-110142857D01*
X136600000Y-110066666D01*
X136638095Y-110028571D01*
X136714285Y-109990476D01*
X136790476Y-109990476D01*
X136904761Y-110028571D01*
X137361904Y-110485714D01*
X137361904Y-109990476D01*
X148785714Y-111133333D02*
X148823809Y-111171428D01*
X148861904Y-111285714D01*
X148861904Y-111361904D01*
X148823809Y-111476190D01*
X148747619Y-111552380D01*
X148671428Y-111590476D01*
X148519047Y-111628571D01*
X148404761Y-111628571D01*
X148252380Y-111590476D01*
X148176190Y-111552380D01*
X148100000Y-111476190D01*
X148061904Y-111361904D01*
X148061904Y-111285714D01*
X148100000Y-111171428D01*
X148138095Y-111133333D01*
X148861904Y-110752380D02*
X148861904Y-110600000D01*
X148823809Y-110523809D01*
X148785714Y-110485714D01*
X148671428Y-110409523D01*
X148519047Y-110371428D01*
X148214285Y-110371428D01*
X148138095Y-110409523D01*
X148100000Y-110447619D01*
X148061904Y-110523809D01*
X148061904Y-110676190D01*
X148100000Y-110752380D01*
X148138095Y-110790476D01*
X148214285Y-110828571D01*
X148404761Y-110828571D01*
X148480952Y-110790476D01*
X148519047Y-110752380D01*
X148557142Y-110676190D01*
X148557142Y-110523809D01*
X148519047Y-110447619D01*
X148480952Y-110409523D01*
X148404761Y-110371428D01*
X160285714Y-111133333D02*
X160323809Y-111171428D01*
X160361904Y-111285714D01*
X160361904Y-111361904D01*
X160323809Y-111476190D01*
X160247619Y-111552380D01*
X160171428Y-111590476D01*
X160019047Y-111628571D01*
X159904761Y-111628571D01*
X159752380Y-111590476D01*
X159676190Y-111552380D01*
X159600000Y-111476190D01*
X159561904Y-111361904D01*
X159561904Y-111285714D01*
X159600000Y-111171428D01*
X159638095Y-111133333D01*
X159561904Y-110409523D02*
X159561904Y-110790476D01*
X159942857Y-110828571D01*
X159904761Y-110790476D01*
X159866666Y-110714285D01*
X159866666Y-110523809D01*
X159904761Y-110447619D01*
X159942857Y-110409523D01*
X160019047Y-110371428D01*
X160209523Y-110371428D01*
X160285714Y-110409523D01*
X160323809Y-110447619D01*
X160361904Y-110523809D01*
X160361904Y-110714285D01*
X160323809Y-110790476D01*
X160285714Y-110828571D01*
X132285714Y-130764285D02*
X132323809Y-130802380D01*
X132361904Y-130916666D01*
X132361904Y-130992857D01*
X132323809Y-131107142D01*
X132247619Y-131183333D01*
X132171428Y-131221428D01*
X132019047Y-131259523D01*
X131904761Y-131259523D01*
X131752380Y-131221428D01*
X131676190Y-131183333D01*
X131600000Y-131107142D01*
X131561904Y-130992857D01*
X131561904Y-130916666D01*
X131600000Y-130802380D01*
X131638095Y-130764285D01*
X131638095Y-130459523D02*
X131600000Y-130421428D01*
X131561904Y-130345238D01*
X131561904Y-130154761D01*
X131600000Y-130078571D01*
X131638095Y-130040476D01*
X131714285Y-130002380D01*
X131790476Y-130002380D01*
X131904761Y-130040476D01*
X132361904Y-130497619D01*
X132361904Y-130002380D01*
X131561904Y-129278571D02*
X131561904Y-129659523D01*
X131942857Y-129697619D01*
X131904761Y-129659523D01*
X131866666Y-129583333D01*
X131866666Y-129392857D01*
X131904761Y-129316666D01*
X131942857Y-129278571D01*
X132019047Y-129240476D01*
X132209523Y-129240476D01*
X132285714Y-129278571D01*
X132323809Y-129316666D01*
X132361904Y-129392857D01*
X132361904Y-129583333D01*
X132323809Y-129659523D01*
X132285714Y-129697619D01*
X162885714Y-130383333D02*
X162923809Y-130421428D01*
X162961904Y-130535714D01*
X162961904Y-130611904D01*
X162923809Y-130726190D01*
X162847619Y-130802380D01*
X162771428Y-130840476D01*
X162619047Y-130878571D01*
X162504761Y-130878571D01*
X162352380Y-130840476D01*
X162276190Y-130802380D01*
X162200000Y-130726190D01*
X162161904Y-130611904D01*
X162161904Y-130535714D01*
X162200000Y-130421428D01*
X162238095Y-130383333D01*
X162161904Y-130116666D02*
X162161904Y-129621428D01*
X162466666Y-129888095D01*
X162466666Y-129773809D01*
X162504761Y-129697619D01*
X162542857Y-129659523D01*
X162619047Y-129621428D01*
X162809523Y-129621428D01*
X162885714Y-129659523D01*
X162923809Y-129697619D01*
X162961904Y-129773809D01*
X162961904Y-130002380D01*
X162923809Y-130078571D01*
X162885714Y-130116666D01*
X123366666Y-84861904D02*
X123100000Y-84480952D01*
X122909523Y-84861904D02*
X122909523Y-84061904D01*
X123214285Y-84061904D01*
X123290476Y-84100000D01*
X123328571Y-84138095D01*
X123366666Y-84214285D01*
X123366666Y-84328571D01*
X123328571Y-84404761D01*
X123290476Y-84442857D01*
X123214285Y-84480952D01*
X122909523Y-84480952D01*
X123671428Y-84138095D02*
X123709523Y-84100000D01*
X123785714Y-84061904D01*
X123976190Y-84061904D01*
X124052380Y-84100000D01*
X124090476Y-84138095D01*
X124128571Y-84214285D01*
X124128571Y-84290476D01*
X124090476Y-84404761D01*
X123633333Y-84861904D01*
X124128571Y-84861904D01*
X122985714Y-85861904D02*
X122719047Y-85480952D01*
X122528571Y-85861904D02*
X122528571Y-85061904D01*
X122833333Y-85061904D01*
X122909523Y-85100000D01*
X122947619Y-85138095D01*
X122985714Y-85214285D01*
X122985714Y-85328571D01*
X122947619Y-85404761D01*
X122909523Y-85442857D01*
X122833333Y-85480952D01*
X122528571Y-85480952D01*
X123747619Y-85861904D02*
X123290476Y-85861904D01*
X123519047Y-85861904D02*
X123519047Y-85061904D01*
X123442857Y-85176190D01*
X123366666Y-85252380D01*
X123290476Y-85290476D01*
X124242857Y-85061904D02*
X124319047Y-85061904D01*
X124395238Y-85100000D01*
X124433333Y-85138095D01*
X124471428Y-85214285D01*
X124509523Y-85366666D01*
X124509523Y-85557142D01*
X124471428Y-85709523D01*
X124433333Y-85785714D01*
X124395238Y-85823809D01*
X124319047Y-85861904D01*
X124242857Y-85861904D01*
X124166666Y-85823809D01*
X124128571Y-85785714D01*
X124090476Y-85709523D01*
X124052380Y-85557142D01*
X124052380Y-85366666D01*
X124090476Y-85214285D01*
X124128571Y-85138095D01*
X124166666Y-85100000D01*
X124242857Y-85061904D01*
X130361904Y-98514285D02*
X129980952Y-98780952D01*
X130361904Y-98971428D02*
X129561904Y-98971428D01*
X129561904Y-98666666D01*
X129600000Y-98590476D01*
X129638095Y-98552380D01*
X129714285Y-98514285D01*
X129828571Y-98514285D01*
X129904761Y-98552380D01*
X129942857Y-98590476D01*
X129980952Y-98666666D01*
X129980952Y-98971428D01*
X130361904Y-97752380D02*
X130361904Y-98209523D01*
X130361904Y-97980952D02*
X129561904Y-97980952D01*
X129676190Y-98057142D01*
X129752380Y-98133333D01*
X129790476Y-98209523D01*
X130361904Y-97371428D02*
X130361904Y-97219047D01*
X130323809Y-97142857D01*
X130285714Y-97104761D01*
X130171428Y-97028571D01*
X130019047Y-96990476D01*
X129714285Y-96990476D01*
X129638095Y-97028571D01*
X129600000Y-97066666D01*
X129561904Y-97142857D01*
X129561904Y-97295238D01*
X129600000Y-97371428D01*
X129638095Y-97409523D01*
X129714285Y-97447619D01*
X129904761Y-97447619D01*
X129980952Y-97409523D01*
X130019047Y-97371428D01*
X130057142Y-97295238D01*
X130057142Y-97142857D01*
X130019047Y-97066666D01*
X129980952Y-97028571D01*
X129904761Y-96990476D01*
X141961904Y-94614285D02*
X141580952Y-94880952D01*
X141961904Y-95071428D02*
X141161904Y-95071428D01*
X141161904Y-94766666D01*
X141200000Y-94690476D01*
X141238095Y-94652380D01*
X141314285Y-94614285D01*
X141428571Y-94614285D01*
X141504761Y-94652380D01*
X141542857Y-94690476D01*
X141580952Y-94766666D01*
X141580952Y-95071428D01*
X141238095Y-94309523D02*
X141200000Y-94271428D01*
X141161904Y-94195238D01*
X141161904Y-94004761D01*
X141200000Y-93928571D01*
X141238095Y-93890476D01*
X141314285Y-93852380D01*
X141390476Y-93852380D01*
X141504761Y-93890476D01*
X141961904Y-94347619D01*
X141961904Y-93852380D01*
X141961904Y-93090476D02*
X141961904Y-93547619D01*
X141961904Y-93319047D02*
X141161904Y-93319047D01*
X141276190Y-93395238D01*
X141352380Y-93471428D01*
X141390476Y-93547619D01*
X122985714Y-83901624D02*
X122719047Y-83520672D01*
X122528571Y-83901624D02*
X122528571Y-83101624D01*
X122833333Y-83101624D01*
X122909523Y-83139720D01*
X122947619Y-83177815D01*
X122985714Y-83254005D01*
X122985714Y-83368291D01*
X122947619Y-83444481D01*
X122909523Y-83482577D01*
X122833333Y-83520672D01*
X122528571Y-83520672D01*
X123290476Y-83177815D02*
X123328571Y-83139720D01*
X123404761Y-83101624D01*
X123595238Y-83101624D01*
X123671428Y-83139720D01*
X123709523Y-83177815D01*
X123747619Y-83254005D01*
X123747619Y-83330196D01*
X123709523Y-83444481D01*
X123252380Y-83901624D01*
X123747619Y-83901624D01*
X124014285Y-83101624D02*
X124547619Y-83101624D01*
X124204761Y-83901624D01*
X144361904Y-94614285D02*
X143980952Y-94880952D01*
X144361904Y-95071428D02*
X143561904Y-95071428D01*
X143561904Y-94766666D01*
X143600000Y-94690476D01*
X143638095Y-94652380D01*
X143714285Y-94614285D01*
X143828571Y-94614285D01*
X143904761Y-94652380D01*
X143942857Y-94690476D01*
X143980952Y-94766666D01*
X143980952Y-95071428D01*
X143561904Y-93890476D02*
X143561904Y-94271428D01*
X143942857Y-94309523D01*
X143904761Y-94271428D01*
X143866666Y-94195238D01*
X143866666Y-94004761D01*
X143904761Y-93928571D01*
X143942857Y-93890476D01*
X144019047Y-93852380D01*
X144209523Y-93852380D01*
X144285714Y-93890476D01*
X144323809Y-93928571D01*
X144361904Y-94004761D01*
X144361904Y-94195238D01*
X144323809Y-94271428D01*
X144285714Y-94309523D01*
X143561904Y-93357142D02*
X143561904Y-93280952D01*
X143600000Y-93204761D01*
X143638095Y-93166666D01*
X143714285Y-93128571D01*
X143866666Y-93090476D01*
X144057142Y-93090476D01*
X144209523Y-93128571D01*
X144285714Y-93166666D01*
X144323809Y-93204761D01*
X144361904Y-93280952D01*
X144361904Y-93357142D01*
X144323809Y-93433333D01*
X144285714Y-93471428D01*
X144209523Y-93509523D01*
X144057142Y-93547619D01*
X143866666Y-93547619D01*
X143714285Y-93509523D01*
X143638095Y-93471428D01*
X143600000Y-93433333D01*
X143561904Y-93357142D01*
X146485714Y-92361904D02*
X146219047Y-91980952D01*
X146028571Y-92361904D02*
X146028571Y-91561904D01*
X146333333Y-91561904D01*
X146409523Y-91600000D01*
X146447619Y-91638095D01*
X146485714Y-91714285D01*
X146485714Y-91828571D01*
X146447619Y-91904761D01*
X146409523Y-91942857D01*
X146333333Y-91980952D01*
X146028571Y-91980952D01*
X147209523Y-91561904D02*
X146828571Y-91561904D01*
X146790476Y-91942857D01*
X146828571Y-91904761D01*
X146904761Y-91866666D01*
X147095238Y-91866666D01*
X147171428Y-91904761D01*
X147209523Y-91942857D01*
X147247619Y-92019047D01*
X147247619Y-92209523D01*
X147209523Y-92285714D01*
X147171428Y-92323809D01*
X147095238Y-92361904D01*
X146904761Y-92361904D01*
X146828571Y-92323809D01*
X146790476Y-92285714D01*
X147971428Y-91561904D02*
X147590476Y-91561904D01*
X147552380Y-91942857D01*
X147590476Y-91904761D01*
X147666666Y-91866666D01*
X147857142Y-91866666D01*
X147933333Y-91904761D01*
X147971428Y-91942857D01*
X148009523Y-92019047D01*
X148009523Y-92209523D01*
X147971428Y-92285714D01*
X147933333Y-92323809D01*
X147857142Y-92361904D01*
X147666666Y-92361904D01*
X147590476Y-92323809D01*
X147552380Y-92285714D01*
X120885714Y-95533333D02*
X120923809Y-95571428D01*
X120961904Y-95685714D01*
X120961904Y-95761904D01*
X120923809Y-95876190D01*
X120847619Y-95952380D01*
X120771428Y-95990476D01*
X120619047Y-96028571D01*
X120504761Y-96028571D01*
X120352380Y-95990476D01*
X120276190Y-95952380D01*
X120200000Y-95876190D01*
X120161904Y-95761904D01*
X120161904Y-95685714D01*
X120200000Y-95571428D01*
X120238095Y-95533333D01*
X120238095Y-95228571D02*
X120200000Y-95190476D01*
X120161904Y-95114285D01*
X120161904Y-94923809D01*
X120200000Y-94847619D01*
X120238095Y-94809523D01*
X120314285Y-94771428D01*
X120390476Y-94771428D01*
X120504761Y-94809523D01*
X120961904Y-95266666D01*
X120961904Y-94771428D01*
X146485714Y-91306994D02*
X146447619Y-91345089D01*
X146333333Y-91383184D01*
X146257142Y-91383184D01*
X146142857Y-91345089D01*
X146066666Y-91268899D01*
X146028571Y-91192708D01*
X145990476Y-91040327D01*
X145990476Y-90926041D01*
X146028571Y-90773660D01*
X146066666Y-90697470D01*
X146142857Y-90621280D01*
X146257142Y-90583184D01*
X146333333Y-90583184D01*
X146447619Y-90621280D01*
X146485714Y-90659375D01*
X146752380Y-90583184D02*
X147285714Y-90583184D01*
X146942857Y-91383184D01*
X147514285Y-90583184D02*
X148009523Y-90583184D01*
X147742857Y-90887946D01*
X147857142Y-90887946D01*
X147933333Y-90926041D01*
X147971428Y-90964137D01*
X148009523Y-91040327D01*
X148009523Y-91230803D01*
X147971428Y-91306994D01*
X147933333Y-91345089D01*
X147857142Y-91383184D01*
X147628571Y-91383184D01*
X147552380Y-91345089D01*
X147514285Y-91306994D01*
X163114285Y-88385714D02*
X163076190Y-88347619D01*
X163038095Y-88233333D01*
X163038095Y-88157142D01*
X163076190Y-88042857D01*
X163152380Y-87966666D01*
X163228571Y-87928571D01*
X163380952Y-87890476D01*
X163495238Y-87890476D01*
X163647619Y-87928571D01*
X163723809Y-87966666D01*
X163800000Y-88042857D01*
X163838095Y-88157142D01*
X163838095Y-88233333D01*
X163800000Y-88347619D01*
X163761904Y-88385714D01*
X163761904Y-88690476D02*
X163800000Y-88728571D01*
X163838095Y-88804761D01*
X163838095Y-88995238D01*
X163800000Y-89071428D01*
X163761904Y-89109523D01*
X163685714Y-89147619D01*
X163609523Y-89147619D01*
X163495238Y-89109523D01*
X163038095Y-88652380D01*
X163038095Y-89147619D01*
X163838095Y-89642857D02*
X163838095Y-89719047D01*
X163800000Y-89795238D01*
X163761904Y-89833333D01*
X163685714Y-89871428D01*
X163533333Y-89909523D01*
X163342857Y-89909523D01*
X163190476Y-89871428D01*
X163114285Y-89833333D01*
X163076190Y-89795238D01*
X163038095Y-89719047D01*
X163038095Y-89642857D01*
X163076190Y-89566666D01*
X163114285Y-89528571D01*
X163190476Y-89490476D01*
X163342857Y-89452380D01*
X163533333Y-89452380D01*
X163685714Y-89490476D01*
X163761904Y-89528571D01*
X163800000Y-89566666D01*
X163838095Y-89642857D01*
X162114285Y-88385714D02*
X162076190Y-88347619D01*
X162038095Y-88233333D01*
X162038095Y-88157142D01*
X162076190Y-88042857D01*
X162152380Y-87966666D01*
X162228571Y-87928571D01*
X162380952Y-87890476D01*
X162495238Y-87890476D01*
X162647619Y-87928571D01*
X162723809Y-87966666D01*
X162800000Y-88042857D01*
X162838095Y-88157142D01*
X162838095Y-88233333D01*
X162800000Y-88347619D01*
X162761904Y-88385714D01*
X162761904Y-88690476D02*
X162800000Y-88728571D01*
X162838095Y-88804761D01*
X162838095Y-88995238D01*
X162800000Y-89071428D01*
X162761904Y-89109523D01*
X162685714Y-89147619D01*
X162609523Y-89147619D01*
X162495238Y-89109523D01*
X162038095Y-88652380D01*
X162038095Y-89147619D01*
X162038095Y-89909523D02*
X162038095Y-89452380D01*
X162038095Y-89680952D02*
X162838095Y-89680952D01*
X162723809Y-89604761D01*
X162647619Y-89528571D01*
X162609523Y-89452380D01*
X143085714Y-89885714D02*
X143047619Y-89923809D01*
X142933333Y-89961904D01*
X142857142Y-89961904D01*
X142742857Y-89923809D01*
X142666666Y-89847619D01*
X142628571Y-89771428D01*
X142590476Y-89619047D01*
X142590476Y-89504761D01*
X142628571Y-89352380D01*
X142666666Y-89276190D01*
X142742857Y-89200000D01*
X142857142Y-89161904D01*
X142933333Y-89161904D01*
X143047619Y-89200000D01*
X143085714Y-89238095D01*
X143771428Y-89428571D02*
X143771428Y-89961904D01*
X143580952Y-89123809D02*
X143390476Y-89695238D01*
X143885714Y-89695238D01*
X144533333Y-89161904D02*
X144380952Y-89161904D01*
X144304761Y-89200000D01*
X144266666Y-89238095D01*
X144190476Y-89352380D01*
X144152380Y-89504761D01*
X144152380Y-89809523D01*
X144190476Y-89885714D01*
X144228571Y-89923809D01*
X144304761Y-89961904D01*
X144457142Y-89961904D01*
X144533333Y-89923809D01*
X144571428Y-89885714D01*
X144609523Y-89809523D01*
X144609523Y-89619047D01*
X144571428Y-89542857D01*
X144533333Y-89504761D01*
X144457142Y-89466666D01*
X144304761Y-89466666D01*
X144228571Y-89504761D01*
X144190476Y-89542857D01*
X144152380Y-89619047D01*
X122761904Y-96609523D02*
X123409523Y-96609523D01*
X123485714Y-96571428D01*
X123523809Y-96533333D01*
X123561904Y-96457142D01*
X123561904Y-96304761D01*
X123523809Y-96228571D01*
X123485714Y-96190476D01*
X123409523Y-96152380D01*
X122761904Y-96152380D01*
X122761904Y-95847619D02*
X122761904Y-95352380D01*
X123066666Y-95619047D01*
X123066666Y-95504761D01*
X123104761Y-95428571D01*
X123142857Y-95390476D01*
X123219047Y-95352380D01*
X123409523Y-95352380D01*
X123485714Y-95390476D01*
X123523809Y-95428571D01*
X123561904Y-95504761D01*
X123561904Y-95733333D01*
X123523809Y-95809523D01*
X123485714Y-95847619D01*
X119861904Y-89614285D02*
X119480952Y-89880952D01*
X119861904Y-90071428D02*
X119061904Y-90071428D01*
X119061904Y-89766666D01*
X119100000Y-89690476D01*
X119138095Y-89652380D01*
X119214285Y-89614285D01*
X119328571Y-89614285D01*
X119404761Y-89652380D01*
X119442857Y-89690476D01*
X119480952Y-89766666D01*
X119480952Y-90071428D01*
X119861904Y-88852380D02*
X119861904Y-89309523D01*
X119861904Y-89080952D02*
X119061904Y-89080952D01*
X119176190Y-89157142D01*
X119252380Y-89233333D01*
X119290476Y-89309523D01*
X119061904Y-88166666D02*
X119061904Y-88319047D01*
X119100000Y-88395238D01*
X119138095Y-88433333D01*
X119252380Y-88509523D01*
X119404761Y-88547619D01*
X119709523Y-88547619D01*
X119785714Y-88509523D01*
X119823809Y-88471428D01*
X119861904Y-88395238D01*
X119861904Y-88242857D01*
X119823809Y-88166666D01*
X119785714Y-88128571D01*
X119709523Y-88090476D01*
X119519047Y-88090476D01*
X119442857Y-88128571D01*
X119404761Y-88166666D01*
X119366666Y-88242857D01*
X119366666Y-88395238D01*
X119404761Y-88471428D01*
X119442857Y-88509523D01*
X119519047Y-88547619D01*
X119861904Y-87714285D02*
X119480952Y-87980952D01*
X119861904Y-88171428D02*
X119061904Y-88171428D01*
X119061904Y-87866666D01*
X119100000Y-87790476D01*
X119138095Y-87752380D01*
X119214285Y-87714285D01*
X119328571Y-87714285D01*
X119404761Y-87752380D01*
X119442857Y-87790476D01*
X119480952Y-87866666D01*
X119480952Y-88171428D01*
X119861904Y-86952380D02*
X119861904Y-87409523D01*
X119861904Y-87180952D02*
X119061904Y-87180952D01*
X119176190Y-87257142D01*
X119252380Y-87333333D01*
X119290476Y-87409523D01*
X119061904Y-86685714D02*
X119061904Y-86152380D01*
X119861904Y-86495238D01*
X168585714Y-96885714D02*
X168547619Y-96923809D01*
X168433333Y-96961904D01*
X168357142Y-96961904D01*
X168242857Y-96923809D01*
X168166666Y-96847619D01*
X168128571Y-96771428D01*
X168090476Y-96619047D01*
X168090476Y-96504761D01*
X168128571Y-96352380D01*
X168166666Y-96276190D01*
X168242857Y-96200000D01*
X168357142Y-96161904D01*
X168433333Y-96161904D01*
X168547619Y-96200000D01*
X168585714Y-96238095D01*
X169271428Y-96428571D02*
X169271428Y-96961904D01*
X169080952Y-96123809D02*
X168890476Y-96695238D01*
X169385714Y-96695238D01*
X170071428Y-96161904D02*
X169690476Y-96161904D01*
X169652380Y-96542857D01*
X169690476Y-96504761D01*
X169766666Y-96466666D01*
X169957142Y-96466666D01*
X170033333Y-96504761D01*
X170071428Y-96542857D01*
X170109523Y-96619047D01*
X170109523Y-96809523D01*
X170071428Y-96885714D01*
X170033333Y-96923809D01*
X169957142Y-96961904D01*
X169766666Y-96961904D01*
X169690476Y-96923809D01*
X169652380Y-96885714D01*
D13*
X136485714Y-119733333D02*
X136523809Y-119771428D01*
X136561904Y-119885714D01*
X136561904Y-119961904D01*
X136523809Y-120076190D01*
X136447619Y-120152380D01*
X136371428Y-120190476D01*
X136219047Y-120228571D01*
X136104761Y-120228571D01*
X135952380Y-120190476D01*
X135876190Y-120152380D01*
X135800000Y-120076190D01*
X135761904Y-119961904D01*
X135761904Y-119885714D01*
X135800000Y-119771428D01*
X135838095Y-119733333D01*
X136028571Y-119047619D02*
X136561904Y-119047619D01*
X135723809Y-119238095D02*
X136295238Y-119428571D01*
X136295238Y-118933333D01*
X130185714Y-106033333D02*
X130223809Y-106071428D01*
X130261904Y-106185714D01*
X130261904Y-106261904D01*
X130223809Y-106376190D01*
X130147619Y-106452380D01*
X130071428Y-106490476D01*
X129919047Y-106528571D01*
X129804761Y-106528571D01*
X129652380Y-106490476D01*
X129576190Y-106452380D01*
X129500000Y-106376190D01*
X129461904Y-106261904D01*
X129461904Y-106185714D01*
X129500000Y-106071428D01*
X129538095Y-106033333D01*
X129461904Y-105347619D02*
X129461904Y-105500000D01*
X129500000Y-105576190D01*
X129538095Y-105614285D01*
X129652380Y-105690476D01*
X129804761Y-105728571D01*
X130109523Y-105728571D01*
X130185714Y-105690476D01*
X130223809Y-105652380D01*
X130261904Y-105576190D01*
X130261904Y-105423809D01*
X130223809Y-105347619D01*
X130185714Y-105309523D01*
X130109523Y-105271428D01*
X129919047Y-105271428D01*
X129842857Y-105309523D01*
X129804761Y-105347619D01*
X129766666Y-105423809D01*
X129766666Y-105576190D01*
X129804761Y-105652380D01*
X129842857Y-105690476D01*
X129919047Y-105728571D01*
D11*
X158438095Y-89452380D02*
X158438095Y-90261904D01*
X158485714Y-90357142D01*
X158533333Y-90404761D01*
X158628571Y-90452380D01*
X158819047Y-90452380D01*
X158914285Y-90404761D01*
X158961904Y-90357142D01*
X159009523Y-90261904D01*
X159009523Y-89452380D01*
X159438095Y-89547619D02*
X159485714Y-89500000D01*
X159580952Y-89452380D01*
X159819047Y-89452380D01*
X159914285Y-89500000D01*
X159961904Y-89547619D01*
X160009523Y-89642857D01*
X160009523Y-89738095D01*
X159961904Y-89880952D01*
X159390476Y-90452380D01*
X160009523Y-90452380D01*
D13*
X173285714Y-96285714D02*
X173247619Y-96323809D01*
X173133333Y-96361904D01*
X173057142Y-96361904D01*
X172942857Y-96323809D01*
X172866666Y-96247619D01*
X172828571Y-96171428D01*
X172790476Y-96019047D01*
X172790476Y-95904761D01*
X172828571Y-95752380D01*
X172866666Y-95676190D01*
X172942857Y-95600000D01*
X173057142Y-95561904D01*
X173133333Y-95561904D01*
X173247619Y-95600000D01*
X173285714Y-95638095D01*
X174047619Y-96361904D02*
X173590476Y-96361904D01*
X173819047Y-96361904D02*
X173819047Y-95561904D01*
X173742857Y-95676190D01*
X173666666Y-95752380D01*
X173590476Y-95790476D01*
X174352380Y-95638095D02*
X174390476Y-95600000D01*
X174466666Y-95561904D01*
X174657142Y-95561904D01*
X174733333Y-95600000D01*
X174771428Y-95638095D01*
X174809523Y-95714285D01*
X174809523Y-95790476D01*
X174771428Y-95904761D01*
X174314285Y-96361904D01*
X174809523Y-96361904D01*
X126285714Y-89014285D02*
X126323809Y-89052380D01*
X126361904Y-89166666D01*
X126361904Y-89242857D01*
X126323809Y-89357142D01*
X126247619Y-89433333D01*
X126171428Y-89471428D01*
X126019047Y-89509523D01*
X125904761Y-89509523D01*
X125752380Y-89471428D01*
X125676190Y-89433333D01*
X125600000Y-89357142D01*
X125561904Y-89242857D01*
X125561904Y-89166666D01*
X125600000Y-89052380D01*
X125638095Y-89014285D01*
X125561904Y-88747619D02*
X125561904Y-88252380D01*
X125866666Y-88519047D01*
X125866666Y-88404761D01*
X125904761Y-88328571D01*
X125942857Y-88290476D01*
X126019047Y-88252380D01*
X126209523Y-88252380D01*
X126285714Y-88290476D01*
X126323809Y-88328571D01*
X126361904Y-88404761D01*
X126361904Y-88633333D01*
X126323809Y-88709523D01*
X126285714Y-88747619D01*
X126361904Y-87490476D02*
X126361904Y-87947619D01*
X126361904Y-87719047D02*
X125561904Y-87719047D01*
X125676190Y-87795238D01*
X125752380Y-87871428D01*
X125790476Y-87947619D01*
X127185714Y-97114285D02*
X127223809Y-97152380D01*
X127261904Y-97266666D01*
X127261904Y-97342857D01*
X127223809Y-97457142D01*
X127147619Y-97533333D01*
X127071428Y-97571428D01*
X126919047Y-97609523D01*
X126804761Y-97609523D01*
X126652380Y-97571428D01*
X126576190Y-97533333D01*
X126500000Y-97457142D01*
X126461904Y-97342857D01*
X126461904Y-97266666D01*
X126500000Y-97152380D01*
X126538095Y-97114285D01*
X126461904Y-96847619D02*
X126461904Y-96352380D01*
X126766666Y-96619047D01*
X126766666Y-96504761D01*
X126804761Y-96428571D01*
X126842857Y-96390476D01*
X126919047Y-96352380D01*
X127109523Y-96352380D01*
X127185714Y-96390476D01*
X127223809Y-96428571D01*
X127261904Y-96504761D01*
X127261904Y-96733333D01*
X127223809Y-96809523D01*
X127185714Y-96847619D01*
X126461904Y-95628571D02*
X126461904Y-96009523D01*
X126842857Y-96047619D01*
X126804761Y-96009523D01*
X126766666Y-95933333D01*
X126766666Y-95742857D01*
X126804761Y-95666666D01*
X126842857Y-95628571D01*
X126919047Y-95590476D01*
X127109523Y-95590476D01*
X127185714Y-95628571D01*
X127223809Y-95666666D01*
X127261904Y-95742857D01*
X127261904Y-95933333D01*
X127223809Y-96009523D01*
X127185714Y-96047619D01*
X120785714Y-92585714D02*
X120747619Y-92623809D01*
X120633333Y-92661904D01*
X120557142Y-92661904D01*
X120442857Y-92623809D01*
X120366666Y-92547619D01*
X120328571Y-92471428D01*
X120290476Y-92319047D01*
X120290476Y-92204761D01*
X120328571Y-92052380D01*
X120366666Y-91976190D01*
X120442857Y-91900000D01*
X120557142Y-91861904D01*
X120633333Y-91861904D01*
X120747619Y-91900000D01*
X120785714Y-91938095D01*
X121471428Y-92128571D02*
X121471428Y-92661904D01*
X121280952Y-91823809D02*
X121090476Y-92395238D01*
X121585714Y-92395238D01*
X122309523Y-92661904D02*
X121852380Y-92661904D01*
X122080952Y-92661904D02*
X122080952Y-91861904D01*
X122004761Y-91976190D01*
X121928571Y-92052380D01*
X121852380Y-92090476D01*
D14*
X166180952Y-101157142D02*
X165990476Y-101290476D01*
X166180952Y-101385714D02*
X165780952Y-101385714D01*
X165780952Y-101233333D01*
X165800000Y-101195238D01*
X165819047Y-101176190D01*
X165857142Y-101157142D01*
X165914285Y-101157142D01*
X165952380Y-101176190D01*
X165971428Y-101195238D01*
X165990476Y-101233333D01*
X165990476Y-101385714D01*
X166180952Y-100776190D02*
X166180952Y-101004761D01*
X166180952Y-100890476D02*
X165780952Y-100890476D01*
X165838095Y-100928571D01*
X165876190Y-100966666D01*
X165895238Y-101004761D01*
X165780952Y-100414285D02*
X165780952Y-100604761D01*
X165971428Y-100623809D01*
X165952380Y-100604761D01*
X165933333Y-100566666D01*
X165933333Y-100471428D01*
X165952380Y-100433333D01*
X165971428Y-100414285D01*
X166009523Y-100395238D01*
X166104761Y-100395238D01*
X166142857Y-100414285D01*
X166161904Y-100433333D01*
X166180952Y-100471428D01*
X166180952Y-100566666D01*
X166161904Y-100604761D01*
X166142857Y-100623809D01*
D12*
X129113095Y-98041666D02*
X128994047Y-98125000D01*
X129113095Y-98184523D02*
X128863095Y-98184523D01*
X128863095Y-98089285D01*
X128875000Y-98065476D01*
X128886904Y-98053571D01*
X128910714Y-98041666D01*
X128946428Y-98041666D01*
X128970238Y-98053571D01*
X128982142Y-98065476D01*
X128994047Y-98089285D01*
X128994047Y-98184523D01*
X128863095Y-97815476D02*
X128863095Y-97934523D01*
X128982142Y-97946428D01*
X128970238Y-97934523D01*
X128958333Y-97910714D01*
X128958333Y-97851190D01*
X128970238Y-97827380D01*
X128982142Y-97815476D01*
X129005952Y-97803571D01*
X129065476Y-97803571D01*
X129089285Y-97815476D01*
X129101190Y-97827380D01*
X129113095Y-97851190D01*
X129113095Y-97910714D01*
X129101190Y-97934523D01*
X129089285Y-97946428D01*
D11*
X164538095Y-101702380D02*
X165109523Y-101702380D01*
X164823809Y-102702380D02*
X164823809Y-101702380D01*
X165442857Y-102702380D02*
X165442857Y-101702380D01*
X165823809Y-101702380D01*
X165919047Y-101750000D01*
X165966666Y-101797619D01*
X166014285Y-101892857D01*
X166014285Y-102035714D01*
X165966666Y-102130952D01*
X165919047Y-102178571D01*
X165823809Y-102226190D01*
X165442857Y-102226190D01*
X166347619Y-101702380D02*
X167014285Y-101702380D01*
X166585714Y-102702380D01*
X159238095Y-96302380D02*
X159809523Y-96302380D01*
X159523809Y-97302380D02*
X159523809Y-96302380D01*
X160142857Y-97302380D02*
X160142857Y-96302380D01*
X160523809Y-96302380D01*
X160619047Y-96350000D01*
X160666666Y-96397619D01*
X160714285Y-96492857D01*
X160714285Y-96635714D01*
X160666666Y-96730952D01*
X160619047Y-96778571D01*
X160523809Y-96826190D01*
X160142857Y-96826190D01*
X161285714Y-96730952D02*
X161190476Y-96683333D01*
X161142857Y-96635714D01*
X161095238Y-96540476D01*
X161095238Y-96492857D01*
X161142857Y-96397619D01*
X161190476Y-96350000D01*
X161285714Y-96302380D01*
X161476190Y-96302380D01*
X161571428Y-96350000D01*
X161619047Y-96397619D01*
X161666666Y-96492857D01*
X161666666Y-96540476D01*
X161619047Y-96635714D01*
X161571428Y-96683333D01*
X161476190Y-96730952D01*
X161285714Y-96730952D01*
X161190476Y-96778571D01*
X161142857Y-96826190D01*
X161095238Y-96921428D01*
X161095238Y-97111904D01*
X161142857Y-97207142D01*
X161190476Y-97254761D01*
X161285714Y-97302380D01*
X161476190Y-97302380D01*
X161571428Y-97254761D01*
X161619047Y-97207142D01*
X161666666Y-97111904D01*
X161666666Y-96921428D01*
X161619047Y-96826190D01*
X161571428Y-96778571D01*
X161476190Y-96730952D01*
X143238095Y-97702380D02*
X143809523Y-97702380D01*
X143523809Y-98702380D02*
X143523809Y-97702380D01*
X144142857Y-98702380D02*
X144142857Y-97702380D01*
X144523809Y-97702380D01*
X144619047Y-97750000D01*
X144666666Y-97797619D01*
X144714285Y-97892857D01*
X144714285Y-98035714D01*
X144666666Y-98130952D01*
X144619047Y-98178571D01*
X144523809Y-98226190D01*
X144142857Y-98226190D01*
X145190476Y-98702380D02*
X145380952Y-98702380D01*
X145476190Y-98654761D01*
X145523809Y-98607142D01*
X145619047Y-98464285D01*
X145666666Y-98273809D01*
X145666666Y-97892857D01*
X145619047Y-97797619D01*
X145571428Y-97750000D01*
X145476190Y-97702380D01*
X145285714Y-97702380D01*
X145190476Y-97750000D01*
X145142857Y-97797619D01*
X145095238Y-97892857D01*
X145095238Y-98130952D01*
X145142857Y-98226190D01*
X145190476Y-98273809D01*
X145285714Y-98321428D01*
X145476190Y-98321428D01*
X145571428Y-98273809D01*
X145619047Y-98226190D01*
X145666666Y-98130952D01*
X151661904Y-88902380D02*
X152233333Y-88902380D01*
X151947619Y-89902380D02*
X151947619Y-88902380D01*
X152566666Y-89902380D02*
X152566666Y-88902380D01*
X152947619Y-88902380D01*
X153042857Y-88950000D01*
X153090476Y-88997619D01*
X153138095Y-89092857D01*
X153138095Y-89235714D01*
X153090476Y-89330952D01*
X153042857Y-89378571D01*
X152947619Y-89426190D01*
X152566666Y-89426190D01*
X154090476Y-89902380D02*
X153519047Y-89902380D01*
X153804761Y-89902380D02*
X153804761Y-88902380D01*
X153709523Y-89045238D01*
X153614285Y-89140476D01*
X153519047Y-89188095D01*
X154423809Y-88902380D02*
X155042857Y-88902380D01*
X154709523Y-89283333D01*
X154852380Y-89283333D01*
X154947619Y-89330952D01*
X154995238Y-89378571D01*
X155042857Y-89473809D01*
X155042857Y-89711904D01*
X154995238Y-89807142D01*
X154947619Y-89854761D01*
X154852380Y-89902380D01*
X154566666Y-89902380D01*
X154471428Y-89854761D01*
X154423809Y-89807142D01*
X153161904Y-90402380D02*
X153733333Y-90402380D01*
X153447619Y-91402380D02*
X153447619Y-90402380D01*
X154066666Y-91402380D02*
X154066666Y-90402380D01*
X154447619Y-90402380D01*
X154542857Y-90450000D01*
X154590476Y-90497619D01*
X154638095Y-90592857D01*
X154638095Y-90735714D01*
X154590476Y-90830952D01*
X154542857Y-90878571D01*
X154447619Y-90926190D01*
X154066666Y-90926190D01*
X155590476Y-91402380D02*
X155019047Y-91402380D01*
X155304761Y-91402380D02*
X155304761Y-90402380D01*
X155209523Y-90545238D01*
X155114285Y-90640476D01*
X155019047Y-90688095D01*
X156447619Y-90735714D02*
X156447619Y-91402380D01*
X156209523Y-90354761D02*
X155971428Y-91069047D01*
X156590476Y-91069047D01*
D12*
X120739285Y-85789285D02*
X120727380Y-85801190D01*
X120691666Y-85813095D01*
X120667857Y-85813095D01*
X120632142Y-85801190D01*
X120608333Y-85777380D01*
X120596428Y-85753571D01*
X120584523Y-85705952D01*
X120584523Y-85670238D01*
X120596428Y-85622619D01*
X120608333Y-85598809D01*
X120632142Y-85575000D01*
X120667857Y-85563095D01*
X120691666Y-85563095D01*
X120727380Y-85575000D01*
X120739285Y-85586904D01*
X120822619Y-85563095D02*
X120977380Y-85563095D01*
X120894047Y-85658333D01*
X120929761Y-85658333D01*
X120953571Y-85670238D01*
X120965476Y-85682142D01*
X120977380Y-85705952D01*
X120977380Y-85765476D01*
X120965476Y-85789285D01*
X120953571Y-85801190D01*
X120929761Y-85813095D01*
X120858333Y-85813095D01*
X120834523Y-85801190D01*
X120822619Y-85789285D01*
X121191666Y-85646428D02*
X121191666Y-85813095D01*
X121132142Y-85551190D02*
X121072619Y-85729761D01*
X121227380Y-85729761D01*
D11*
X135566666Y-76052380D02*
X135566666Y-76766666D01*
X135519047Y-76909523D01*
X135423809Y-77004761D01*
X135280952Y-77052380D01*
X135185714Y-77052380D01*
X136519047Y-76052380D02*
X136042857Y-76052380D01*
X135995238Y-76528571D01*
X136042857Y-76480952D01*
X136138095Y-76433333D01*
X136376190Y-76433333D01*
X136471428Y-76480952D01*
X136519047Y-76528571D01*
X136566666Y-76623809D01*
X136566666Y-76861904D01*
X136519047Y-76957142D01*
X136471428Y-77004761D01*
X136376190Y-77052380D01*
X136138095Y-77052380D01*
X136042857Y-77004761D01*
X135995238Y-76957142D01*
D12*
X168339285Y-86689285D02*
X168327380Y-86701190D01*
X168291666Y-86713095D01*
X168267857Y-86713095D01*
X168232142Y-86701190D01*
X168208333Y-86677380D01*
X168196428Y-86653571D01*
X168184523Y-86605952D01*
X168184523Y-86570238D01*
X168196428Y-86522619D01*
X168208333Y-86498809D01*
X168232142Y-86475000D01*
X168267857Y-86463095D01*
X168291666Y-86463095D01*
X168327380Y-86475000D01*
X168339285Y-86486904D01*
X168577380Y-86713095D02*
X168434523Y-86713095D01*
X168505952Y-86713095D02*
X168505952Y-86463095D01*
X168482142Y-86498809D01*
X168458333Y-86522619D01*
X168434523Y-86534523D01*
X168660714Y-86463095D02*
X168827380Y-86463095D01*
X168720238Y-86713095D01*
D13*
X168966666Y-100085714D02*
X168928571Y-100123809D01*
X168814285Y-100161904D01*
X168738095Y-100161904D01*
X168623809Y-100123809D01*
X168547619Y-100047619D01*
X168509523Y-99971428D01*
X168471428Y-99819047D01*
X168471428Y-99704761D01*
X168509523Y-99552380D01*
X168547619Y-99476190D01*
X168623809Y-99400000D01*
X168738095Y-99361904D01*
X168814285Y-99361904D01*
X168928571Y-99400000D01*
X168966666Y-99438095D01*
X169233333Y-99361904D02*
X169766666Y-99361904D01*
X169423809Y-100161904D01*
D12*
X165389285Y-97060714D02*
X165401190Y-97072619D01*
X165413095Y-97108333D01*
X165413095Y-97132142D01*
X165401190Y-97167857D01*
X165377380Y-97191666D01*
X165353571Y-97203571D01*
X165305952Y-97215476D01*
X165270238Y-97215476D01*
X165222619Y-97203571D01*
X165198809Y-97191666D01*
X165175000Y-97167857D01*
X165163095Y-97132142D01*
X165163095Y-97108333D01*
X165175000Y-97072619D01*
X165186904Y-97060714D01*
X165413095Y-96822619D02*
X165413095Y-96965476D01*
X165413095Y-96894047D02*
X165163095Y-96894047D01*
X165198809Y-96917857D01*
X165222619Y-96941666D01*
X165234523Y-96965476D01*
X165413095Y-96584523D02*
X165413095Y-96727380D01*
X165413095Y-96655952D02*
X165163095Y-96655952D01*
X165198809Y-96679761D01*
X165222619Y-96703571D01*
X165234523Y-96727380D01*
D13*
X173285714Y-93085714D02*
X173247619Y-93123809D01*
X173133333Y-93161904D01*
X173057142Y-93161904D01*
X172942857Y-93123809D01*
X172866666Y-93047619D01*
X172828571Y-92971428D01*
X172790476Y-92819047D01*
X172790476Y-92704761D01*
X172828571Y-92552380D01*
X172866666Y-92476190D01*
X172942857Y-92400000D01*
X173057142Y-92361904D01*
X173133333Y-92361904D01*
X173247619Y-92400000D01*
X173285714Y-92438095D01*
X173590476Y-92438095D02*
X173628571Y-92400000D01*
X173704761Y-92361904D01*
X173895238Y-92361904D01*
X173971428Y-92400000D01*
X174009523Y-92438095D01*
X174047619Y-92514285D01*
X174047619Y-92590476D01*
X174009523Y-92704761D01*
X173552380Y-93161904D01*
X174047619Y-93161904D01*
X174314285Y-92361904D02*
X174809523Y-92361904D01*
X174542857Y-92666666D01*
X174657142Y-92666666D01*
X174733333Y-92704761D01*
X174771428Y-92742857D01*
X174809523Y-92819047D01*
X174809523Y-93009523D01*
X174771428Y-93085714D01*
X174733333Y-93123809D01*
X174657142Y-93161904D01*
X174428571Y-93161904D01*
X174352380Y-93123809D01*
X174314285Y-93085714D01*
D12*
X166413095Y-96941666D02*
X166294047Y-97025000D01*
X166413095Y-97084523D02*
X166163095Y-97084523D01*
X166163095Y-96989285D01*
X166175000Y-96965476D01*
X166186904Y-96953571D01*
X166210714Y-96941666D01*
X166246428Y-96941666D01*
X166270238Y-96953571D01*
X166282142Y-96965476D01*
X166294047Y-96989285D01*
X166294047Y-97084523D01*
X166270238Y-96798809D02*
X166258333Y-96822619D01*
X166246428Y-96834523D01*
X166222619Y-96846428D01*
X166210714Y-96846428D01*
X166186904Y-96834523D01*
X166175000Y-96822619D01*
X166163095Y-96798809D01*
X166163095Y-96751190D01*
X166175000Y-96727380D01*
X166186904Y-96715476D01*
X166210714Y-96703571D01*
X166222619Y-96703571D01*
X166246428Y-96715476D01*
X166258333Y-96727380D01*
X166270238Y-96751190D01*
X166270238Y-96798809D01*
X166282142Y-96822619D01*
X166294047Y-96834523D01*
X166317857Y-96846428D01*
X166365476Y-96846428D01*
X166389285Y-96834523D01*
X166401190Y-96822619D01*
X166413095Y-96798809D01*
X166413095Y-96751190D01*
X166401190Y-96727380D01*
X166389285Y-96715476D01*
X166365476Y-96703571D01*
X166317857Y-96703571D01*
X166294047Y-96715476D01*
X166282142Y-96727380D01*
X166270238Y-96751190D01*
X164839285Y-95513095D02*
X164755952Y-95394047D01*
X164696428Y-95513095D02*
X164696428Y-95263095D01*
X164791666Y-95263095D01*
X164815476Y-95275000D01*
X164827380Y-95286904D01*
X164839285Y-95310714D01*
X164839285Y-95346428D01*
X164827380Y-95370238D01*
X164815476Y-95382142D01*
X164791666Y-95394047D01*
X164696428Y-95394047D01*
X165077380Y-95513095D02*
X164934523Y-95513095D01*
X165005952Y-95513095D02*
X165005952Y-95263095D01*
X164982142Y-95298809D01*
X164958333Y-95322619D01*
X164934523Y-95334523D01*
X165315476Y-95513095D02*
X165172619Y-95513095D01*
X165244047Y-95513095D02*
X165244047Y-95263095D01*
X165220238Y-95298809D01*
X165196428Y-95322619D01*
X165172619Y-95334523D01*
X165643333Y-86689285D02*
X165631428Y-86701190D01*
X165595714Y-86713095D01*
X165571904Y-86713095D01*
X165536190Y-86701190D01*
X165512380Y-86677380D01*
X165500476Y-86653571D01*
X165488571Y-86605952D01*
X165488571Y-86570238D01*
X165500476Y-86522619D01*
X165512380Y-86498809D01*
X165536190Y-86475000D01*
X165571904Y-86463095D01*
X165595714Y-86463095D01*
X165631428Y-86475000D01*
X165643333Y-86486904D01*
X165786190Y-86570238D02*
X165762380Y-86558333D01*
X165750476Y-86546428D01*
X165738571Y-86522619D01*
X165738571Y-86510714D01*
X165750476Y-86486904D01*
X165762380Y-86475000D01*
X165786190Y-86463095D01*
X165833809Y-86463095D01*
X165857619Y-86475000D01*
X165869523Y-86486904D01*
X165881428Y-86510714D01*
X165881428Y-86522619D01*
X165869523Y-86546428D01*
X165857619Y-86558333D01*
X165833809Y-86570238D01*
X165786190Y-86570238D01*
X165762380Y-86582142D01*
X165750476Y-86594047D01*
X165738571Y-86617857D01*
X165738571Y-86665476D01*
X165750476Y-86689285D01*
X165762380Y-86701190D01*
X165786190Y-86713095D01*
X165833809Y-86713095D01*
X165857619Y-86701190D01*
X165869523Y-86689285D01*
X165881428Y-86665476D01*
X165881428Y-86617857D01*
X165869523Y-86594047D01*
X165857619Y-86582142D01*
X165833809Y-86570238D01*
X167189285Y-86260714D02*
X167201190Y-86272619D01*
X167213095Y-86308333D01*
X167213095Y-86332142D01*
X167201190Y-86367857D01*
X167177380Y-86391666D01*
X167153571Y-86403571D01*
X167105952Y-86415476D01*
X167070238Y-86415476D01*
X167022619Y-86403571D01*
X166998809Y-86391666D01*
X166975000Y-86367857D01*
X166963095Y-86332142D01*
X166963095Y-86308333D01*
X166975000Y-86272619D01*
X166986904Y-86260714D01*
X167213095Y-86022619D02*
X167213095Y-86165476D01*
X167213095Y-86094047D02*
X166963095Y-86094047D01*
X166998809Y-86117857D01*
X167022619Y-86141666D01*
X167034523Y-86165476D01*
X166963095Y-85867857D02*
X166963095Y-85844047D01*
X166975000Y-85820238D01*
X166986904Y-85808333D01*
X167010714Y-85796428D01*
X167058333Y-85784523D01*
X167117857Y-85784523D01*
X167165476Y-85796428D01*
X167189285Y-85808333D01*
X167201190Y-85820238D01*
X167213095Y-85844047D01*
X167213095Y-85867857D01*
X167201190Y-85891666D01*
X167189285Y-85903571D01*
X167165476Y-85915476D01*
X167117857Y-85927380D01*
X167058333Y-85927380D01*
X167010714Y-85915476D01*
X166986904Y-85903571D01*
X166975000Y-85891666D01*
X166963095Y-85867857D01*
D15*
X162230000Y-93550000D02*
X162230000Y-92550000D01*
X162730000Y-93550000D02*
X162230000Y-93550000D01*
X162730000Y-92550000D02*
X162730000Y-93550000D01*
X162230000Y-92550000D02*
X162730000Y-92550000D01*
X163240000Y-92550000D02*
X163740000Y-92550000D01*
X163740000Y-92550000D02*
X163740000Y-93550000D01*
X163740000Y-93550000D02*
X163240000Y-93550000D01*
X163240000Y-93550000D02*
X163240000Y-92550000D01*
X141900000Y-96200000D02*
X143200000Y-96200000D01*
X143200000Y-96200000D02*
X143500000Y-95900000D01*
X143500000Y-95900000D02*
X143500000Y-95400000D01*
X143500000Y-95400000D02*
X141900000Y-95400000D01*
X141900000Y-95400000D02*
X141900000Y-96200000D01*
X129100000Y-94400000D02*
X129100000Y-95700000D01*
X129100000Y-95700000D02*
X129400000Y-96000000D01*
X129400000Y-96000000D02*
X129900000Y-96000000D01*
X129900000Y-96000000D02*
X129900000Y-94400000D01*
X129900000Y-94400000D02*
X129100000Y-94400000D01*
X176190000Y-84810000D02*
G75*
G03*
X171610000Y-84810000I-2290000J-2290000D01*
G01*
X171610000Y-89390000D02*
G75*
G03*
X176190000Y-89390000I2290000J2290000D01*
G01*
X170250000Y-83450000D02*
X177550000Y-83450000D01*
X177550000Y-90750000D02*
X170250000Y-90750000D01*
X170250000Y-83450000D02*
X170250000Y-85700000D01*
X170250000Y-90750000D02*
X170250000Y-88500000D01*
X177550000Y-83450000D02*
X177550000Y-85700000D01*
X177550000Y-90750000D02*
X177550000Y-88500000D01*
X134800000Y-115058325D02*
X135800000Y-115058325D01*
X135300000Y-115558325D02*
X135300000Y-114558325D01*
X141150000Y-116150000D02*
X142150000Y-115150000D01*
X132850000Y-116150000D02*
X131850000Y-115150000D01*
X132850000Y-116150000D02*
X141150000Y-116150000D01*
X142150000Y-115150000D02*
X142150000Y-105850000D01*
X131850000Y-115150000D02*
X131850000Y-105850000D01*
X131850000Y-105850000D02*
X142150000Y-105850000D01*
X142000000Y-111000000D02*
G75*
G03*
X142000000Y-111000000I-5000000J0D01*
G01*
X146300000Y-115058325D02*
X147300000Y-115058325D01*
X146800000Y-115558325D02*
X146800000Y-114558325D01*
X152650000Y-116150000D02*
X153650000Y-115150000D01*
X144350000Y-116150000D02*
X143350000Y-115150000D01*
X144350000Y-116150000D02*
X152650000Y-116150000D01*
X153650000Y-115150000D02*
X153650000Y-105850000D01*
X143350000Y-115150000D02*
X143350000Y-105850000D01*
X143350000Y-105850000D02*
X153650000Y-105850000D01*
X153500000Y-111000000D02*
G75*
G03*
X153500000Y-111000000I-5000000J0D01*
G01*
X157800000Y-115058325D02*
X158800000Y-115058325D01*
X158300000Y-115558325D02*
X158300000Y-114558325D01*
X164150000Y-116150000D02*
X165150000Y-115150000D01*
X155850000Y-116150000D02*
X154850000Y-115150000D01*
X155850000Y-116150000D02*
X164150000Y-116150000D01*
X165150000Y-115150000D02*
X165150000Y-105850000D01*
X154850000Y-115150000D02*
X154850000Y-105850000D01*
X154850000Y-105850000D02*
X165150000Y-105850000D01*
X165000000Y-111000000D02*
G75*
G03*
X165000000Y-111000000I-5000000J0D01*
G01*
X134200000Y-124441675D02*
X133200000Y-124441675D01*
X133700000Y-123941675D02*
X133700000Y-124941675D01*
X127850000Y-123350000D02*
X126850000Y-124350000D01*
X136150000Y-123350000D02*
X137150000Y-124350000D01*
X136150000Y-123350000D02*
X127850000Y-123350000D01*
X126850000Y-124350000D02*
X126850000Y-133650000D01*
X137150000Y-124350000D02*
X137150000Y-133650000D01*
X137150000Y-133650000D02*
X126850000Y-133650000D01*
X137000000Y-128500000D02*
G75*
G03*
X137000000Y-128500000I-5000000J0D01*
G01*
X164800000Y-124441675D02*
X163800000Y-124441675D01*
X164300000Y-123941675D02*
X164300000Y-124941675D01*
X158450000Y-123350000D02*
X157450000Y-124350000D01*
X166750000Y-123350000D02*
X167750000Y-124350000D01*
X166750000Y-123350000D02*
X158450000Y-123350000D01*
X157450000Y-124350000D02*
X157450000Y-133650000D01*
X167750000Y-124350000D02*
X167750000Y-133650000D01*
X167750000Y-133650000D02*
X157450000Y-133650000D01*
X167600000Y-128500000D02*
G75*
G03*
X167600000Y-128500000I-5000000J0D01*
G01*
X124000000Y-84750000D02*
X123000000Y-84750000D01*
X124000000Y-84250000D02*
X124000000Y-84750000D01*
X123000000Y-84250000D02*
X124000000Y-84250000D01*
X123000000Y-84750000D02*
X123000000Y-84250000D01*
X124000000Y-85750000D02*
X123000000Y-85750000D01*
X124000000Y-85250000D02*
X124000000Y-85750000D01*
X123000000Y-85250000D02*
X124000000Y-85250000D01*
X123000000Y-85750000D02*
X123000000Y-85250000D01*
X129750000Y-98500000D02*
X129750000Y-97500000D01*
X130250000Y-98500000D02*
X129750000Y-98500000D01*
X130250000Y-97500000D02*
X130250000Y-98500000D01*
X129750000Y-97500000D02*
X130250000Y-97500000D01*
X141350000Y-94600000D02*
X141350000Y-93600000D01*
X141850000Y-94600000D02*
X141350000Y-94600000D01*
X141850000Y-93600000D02*
X141850000Y-94600000D01*
X141350000Y-93600000D02*
X141850000Y-93600000D01*
X124000000Y-83789720D02*
X123000000Y-83789720D01*
X124000000Y-83289720D02*
X124000000Y-83789720D01*
X123000000Y-83289720D02*
X124000000Y-83289720D01*
X123000000Y-83789720D02*
X123000000Y-83289720D01*
X144250000Y-94600000D02*
X143750000Y-94600000D01*
X143750000Y-94600000D02*
X143750000Y-93600000D01*
X143750000Y-93600000D02*
X144250000Y-93600000D01*
X144250000Y-93600000D02*
X144250000Y-94600000D01*
X146500000Y-91750000D02*
X147500000Y-91750000D01*
X146500000Y-92250000D02*
X146500000Y-91750000D01*
X147500000Y-92250000D02*
X146500000Y-92250000D01*
X147500000Y-91750000D02*
X147500000Y-92250000D01*
X120850000Y-95900000D02*
X120350000Y-95900000D01*
X120350000Y-95900000D02*
X120350000Y-94900000D01*
X120350000Y-94900000D02*
X120850000Y-94900000D01*
X120850000Y-94900000D02*
X120850000Y-95900000D01*
X146500000Y-91271280D02*
X146500000Y-90771280D01*
X146500000Y-90771280D02*
X147500000Y-90771280D01*
X147500000Y-90771280D02*
X147500000Y-91271280D01*
X147500000Y-91271280D02*
X146500000Y-91271280D01*
X163150000Y-88400000D02*
X163650000Y-88400000D01*
X163650000Y-88400000D02*
X163650000Y-89400000D01*
X163650000Y-89400000D02*
X163150000Y-89400000D01*
X163150000Y-89400000D02*
X163150000Y-88400000D01*
X162150000Y-88400000D02*
X162650000Y-88400000D01*
X162650000Y-88400000D02*
X162650000Y-89400000D01*
X162650000Y-89400000D02*
X162150000Y-89400000D01*
X162150000Y-89400000D02*
X162150000Y-88400000D01*
X144100000Y-89350000D02*
X144100000Y-89850000D01*
X144100000Y-89850000D02*
X143100000Y-89850000D01*
X143100000Y-89850000D02*
X143100000Y-89350000D01*
X143100000Y-89350000D02*
X144100000Y-89350000D01*
X124100000Y-94450000D02*
X124100000Y-97550000D01*
X124100000Y-97550000D02*
X122300000Y-97550000D01*
X122300000Y-95100000D02*
X122300000Y-97550000D01*
X124100000Y-94450000D02*
X122950000Y-94450000D01*
X122300000Y-95100000D02*
X122950000Y-94450000D01*
X119750000Y-89600000D02*
X119250000Y-89600000D01*
X119250000Y-89600000D02*
X119250000Y-88600000D01*
X119250000Y-88600000D02*
X119750000Y-88600000D01*
X119750000Y-88600000D02*
X119750000Y-89600000D01*
X119750000Y-87700000D02*
X119250000Y-87700000D01*
X119250000Y-87700000D02*
X119250000Y-86700000D01*
X119250000Y-86700000D02*
X119750000Y-86700000D01*
X119750000Y-86700000D02*
X119750000Y-87700000D01*
X170700000Y-95350000D02*
X170700000Y-97850000D01*
X170700000Y-97850000D02*
X167500000Y-97850000D01*
X167500000Y-97850000D02*
X167500000Y-95350000D01*
X167500000Y-95350000D02*
X170700000Y-95350000D01*
X134950000Y-121200000D02*
X134950000Y-118000000D01*
X137450000Y-121200000D02*
X134950000Y-121200000D01*
X137450000Y-118000000D02*
X137450000Y-121200000D01*
X134950000Y-118000000D02*
X137450000Y-118000000D01*
X128650000Y-107500000D02*
X128650000Y-104300000D01*
X131150000Y-107500000D02*
X128650000Y-107500000D01*
X131150000Y-104300000D02*
X131150000Y-107500000D01*
X128650000Y-104300000D02*
X131150000Y-104300000D01*
X160200000Y-92000000D02*
X157200000Y-92000000D01*
X157200000Y-92000000D02*
X157200000Y-88000000D01*
X157200000Y-88000000D02*
X161200000Y-88000000D01*
X161200000Y-88000000D02*
X161200000Y-91000000D01*
X161200000Y-91000000D02*
X160200000Y-92000000D01*
X175400000Y-94750000D02*
X175400000Y-97250000D01*
X175400000Y-97250000D02*
X172200000Y-97250000D01*
X172200000Y-97250000D02*
X172200000Y-94750000D01*
X172200000Y-94750000D02*
X175400000Y-94750000D01*
X127250000Y-90100000D02*
X124750000Y-90100000D01*
X124750000Y-90100000D02*
X124750000Y-86900000D01*
X124750000Y-86900000D02*
X127250000Y-86900000D01*
X127250000Y-86900000D02*
X127250000Y-90100000D01*
X128150000Y-98200000D02*
X125650000Y-98200000D01*
X125650000Y-98200000D02*
X125650000Y-95000000D01*
X125650000Y-95000000D02*
X128150000Y-95000000D01*
X128150000Y-95000000D02*
X128150000Y-98200000D01*
X122900000Y-93550000D02*
X119700000Y-93550000D01*
X122900000Y-91050000D02*
X122900000Y-93550000D01*
X119700000Y-91050000D02*
X122900000Y-91050000D01*
X119700000Y-93550000D02*
X119700000Y-91050000D01*
X165600000Y-101700000D02*
X165600000Y-100100000D01*
X166400000Y-101700000D02*
X165600000Y-101700000D01*
X166400000Y-100100000D02*
X166400000Y-101700000D01*
X165600000Y-100100000D02*
X166400000Y-100100000D01*
X129250000Y-97500000D02*
X129250000Y-98500000D01*
X128750000Y-97500000D02*
X129250000Y-97500000D01*
X128750000Y-98500000D02*
X128750000Y-97500000D01*
X129250000Y-98500000D02*
X128750000Y-98500000D01*
X120400000Y-85950000D02*
X120400000Y-85450000D01*
X120400000Y-85450000D02*
X121400000Y-85450000D01*
X121400000Y-85450000D02*
X121400000Y-85950000D01*
X121400000Y-85950000D02*
X120400000Y-85950000D01*
X156600000Y-72820000D02*
X156600000Y-66820000D01*
X155960000Y-66820000D02*
X156600000Y-66820000D01*
X155960000Y-72820000D02*
X155960000Y-66820000D01*
X156600000Y-79720000D02*
X156600000Y-75360000D01*
X155960000Y-79720000D02*
X156600000Y-79720000D01*
X155960000Y-79720000D02*
X155960000Y-75360000D01*
X154060000Y-72820000D02*
X154060000Y-66820000D01*
X153420000Y-66820000D02*
X154060000Y-66820000D01*
X153420000Y-72820000D02*
X153420000Y-66820000D01*
X154060000Y-79720000D02*
X154060000Y-75360000D01*
X153420000Y-79720000D02*
X154060000Y-79720000D01*
X153420000Y-79720000D02*
X153420000Y-75360000D01*
X151520000Y-72820000D02*
X151520000Y-66820000D01*
X150880000Y-66820000D02*
X151520000Y-66820000D01*
X150880000Y-72820000D02*
X150880000Y-66820000D01*
X151520000Y-79720000D02*
X151520000Y-75360000D01*
X150880000Y-79720000D02*
X151520000Y-79720000D01*
X150880000Y-79720000D02*
X150880000Y-75360000D01*
X148980000Y-72820000D02*
X148980000Y-66820000D01*
X148340000Y-66820000D02*
X148980000Y-66820000D01*
X148340000Y-72820000D02*
X148340000Y-66820000D01*
X148980000Y-79720000D02*
X148980000Y-75360000D01*
X148340000Y-79720000D02*
X148980000Y-79720000D01*
X148340000Y-79720000D02*
X148340000Y-75360000D01*
X146440000Y-72820000D02*
X146440000Y-66820000D01*
X145800000Y-66820000D02*
X146440000Y-66820000D01*
X145800000Y-72820000D02*
X145800000Y-66820000D01*
X146440000Y-79720000D02*
X146440000Y-75360000D01*
X145800000Y-79720000D02*
X146440000Y-79720000D01*
X145800000Y-79720000D02*
X145800000Y-75360000D01*
X143900000Y-72820000D02*
X143900000Y-66820000D01*
X143260000Y-66820000D02*
X143900000Y-66820000D01*
X143260000Y-72820000D02*
X143260000Y-66820000D01*
X143900000Y-79720000D02*
X143900000Y-75360000D01*
X143260000Y-79720000D02*
X143900000Y-79720000D01*
X143260000Y-79720000D02*
X143260000Y-75360000D01*
X141360000Y-72820000D02*
X141360000Y-66820000D01*
X140720000Y-66820000D02*
X141360000Y-66820000D01*
X140720000Y-72820000D02*
X140720000Y-66820000D01*
X141360000Y-79720000D02*
X141360000Y-75360000D01*
X140720000Y-79720000D02*
X141360000Y-79720000D01*
X140720000Y-79720000D02*
X140720000Y-75360000D01*
X138820000Y-72820000D02*
X138820000Y-66820000D01*
X138180000Y-66820000D02*
X138820000Y-66820000D01*
X138180000Y-72820000D02*
X138180000Y-66820000D01*
X138820000Y-79720000D02*
X138820000Y-75360000D01*
X138180000Y-79720000D02*
X138820000Y-79720000D01*
X138180000Y-79720000D02*
X138180000Y-75360000D01*
X137865000Y-75360000D02*
X137230000Y-74725000D01*
X157550000Y-75360000D02*
X137865000Y-75360000D01*
X157550000Y-72820000D02*
X157550000Y-75360000D01*
X137230000Y-72820000D02*
X157550000Y-72820000D01*
X137230000Y-74725000D02*
X137230000Y-72820000D01*
X169000000Y-86850000D02*
X168000000Y-86850000D01*
X169000000Y-86350000D02*
X169000000Y-86850000D01*
X168000000Y-86350000D02*
X169000000Y-86350000D01*
X168000000Y-86850000D02*
X168000000Y-86350000D01*
X167500000Y-98550000D02*
X170700000Y-98550000D01*
X167500000Y-101050000D02*
X167500000Y-98550000D01*
X170700000Y-101050000D02*
X167500000Y-101050000D01*
X170700000Y-98550000D02*
X170700000Y-101050000D01*
X165050000Y-97400000D02*
X165050000Y-96400000D01*
X165550000Y-97400000D02*
X165050000Y-97400000D01*
X165550000Y-96400000D02*
X165550000Y-97400000D01*
X165050000Y-96400000D02*
X165550000Y-96400000D01*
X172200000Y-91550000D02*
X175400000Y-91550000D01*
X172200000Y-94050000D02*
X172200000Y-91550000D01*
X175400000Y-94050000D02*
X172200000Y-94050000D01*
X175400000Y-91550000D02*
X175400000Y-94050000D01*
X166550000Y-97400000D02*
X166050000Y-97400000D01*
X166050000Y-97400000D02*
X166050000Y-96400000D01*
X166050000Y-96400000D02*
X166550000Y-96400000D01*
X166550000Y-96400000D02*
X166550000Y-97400000D01*
X164500000Y-95650000D02*
X164500000Y-95150000D01*
X164500000Y-95150000D02*
X165500000Y-95150000D01*
X165500000Y-95150000D02*
X165500000Y-95650000D01*
X165500000Y-95650000D02*
X164500000Y-95650000D01*
X165185000Y-86350000D02*
X166185000Y-86350000D01*
X165185000Y-86850000D02*
X165185000Y-86350000D01*
X166185000Y-86850000D02*
X165185000Y-86850000D01*
X166185000Y-86350000D02*
X166185000Y-86850000D01*
X167350000Y-85600000D02*
X167350000Y-86600000D01*
X166850000Y-85600000D02*
X167350000Y-85600000D01*
X166850000Y-86600000D02*
X166850000Y-85600000D01*
X167350000Y-86600000D02*
X166850000Y-86600000D01*
M02*
