G04 #@! TF.GenerationSoftware,KiCad,Pcbnew,5.99.0-unknown-dd374e12a~102~ubuntu20.04.1*
G04 #@! TF.CreationDate,2020-12-05T09:27:28-08:00*
G04 #@! TF.ProjectId,BLDC,424c4443-2e6b-4696-9361-645f70636258,rev?*
G04 #@! TF.SameCoordinates,Original*
G04 #@! TF.FileFunction,Copper,L2,Inr*
G04 #@! TF.FilePolarity,Positive*
%FSLAX46Y46*%
G04 Gerber Fmt 4.6, Leading zero omitted, Abs format (unit mm)*
G04 Created by KiCad (PCBNEW 5.99.0-unknown-dd374e12a~102~ubuntu20.04.1) date 2020-12-05 09:27:28*
%MOMM*%
%LPD*%
G01*
G04 APERTURE LIST*
G04 #@! TA.AperFunction,ComponentPad*
%ADD10C,5.500000*%
G04 #@! TD*
G04 #@! TA.AperFunction,ComponentPad*
%ADD11C,3.000000*%
G04 #@! TD*
G04 #@! TA.AperFunction,ComponentPad*
%ADD12C,0.800000*%
G04 #@! TD*
G04 #@! TA.AperFunction,ComponentPad*
%ADD13C,1.700000*%
G04 #@! TD*
G04 #@! TA.AperFunction,ComponentPad*
%ADD14O,1.700000X1.700000*%
G04 #@! TD*
G04 #@! TA.AperFunction,ComponentPad*
%ADD15C,1.200000*%
G04 #@! TD*
G04 #@! TA.AperFunction,ViaPad*
%ADD16C,0.740000*%
G04 #@! TD*
G04 #@! TA.AperFunction,ViaPad*
%ADD17C,0.736700*%
G04 #@! TD*
G04 APERTURE END LIST*
D10*
X122500000Y-131000000D03*
D11*
X173790000Y-122920000D03*
X173790000Y-106620000D03*
X139080000Y-130290000D03*
X155380000Y-130290000D03*
D12*
X121530000Y-88130000D03*
X122630000Y-88130000D03*
D13*
X138500000Y-79400000D03*
D14*
X138500000Y-76860000D03*
X141040000Y-79400000D03*
X141040000Y-76860000D03*
X143580000Y-79400000D03*
X143580000Y-76860000D03*
X146120000Y-79400000D03*
X146120000Y-76860000D03*
X148660000Y-79400000D03*
X148660000Y-76860000D03*
X151200000Y-79400000D03*
X151200000Y-76860000D03*
X153740000Y-79400000D03*
X153740000Y-76860000D03*
X156280000Y-79400000D03*
X156280000Y-76860000D03*
D15*
X129420000Y-79116000D03*
X134500000Y-78100000D03*
X129420000Y-77084000D03*
D10*
X174500000Y-79000000D03*
X174500000Y-131000000D03*
X122500000Y-79000000D03*
D16*
X140300000Y-91200000D03*
X132000000Y-76300000D03*
X143100000Y-88600000D03*
X141100000Y-89100000D03*
X133300000Y-80000000D03*
X148500000Y-93600000D03*
D17*
X148500000Y-97500000D03*
D16*
X132000000Y-80000000D03*
X125000000Y-84500000D03*
X159800000Y-84900000D03*
X125000000Y-85500000D03*
X125000000Y-83500000D03*
X159800000Y-83900000D03*
X142800000Y-93700000D03*
D17*
X164300000Y-100800000D03*
X152300000Y-93300000D03*
X155600000Y-91200000D03*
X151900000Y-91500000D03*
X152800000Y-92100000D03*
X157000000Y-92700000D03*
X168900000Y-107200000D03*
X143300000Y-98700000D03*
X170000000Y-107200000D03*
X145500000Y-97600000D03*
X169500000Y-106300000D03*
X144000000Y-97900000D03*
D16*
X160600000Y-86800000D03*
D17*
X124400000Y-88500000D03*
X120400000Y-90400000D03*
X140000000Y-112000000D03*
X140000000Y-116000000D03*
X142000000Y-116000000D03*
X142000000Y-112000000D03*
X140000000Y-114000000D03*
X168900000Y-116700000D03*
X130300000Y-133900000D03*
X130300000Y-132200000D03*
X170200000Y-117800000D03*
X143100000Y-124100000D03*
X145300000Y-124100000D03*
X161800000Y-107000000D03*
X160800000Y-132100000D03*
X138900000Y-104200000D03*
X136200000Y-104200000D03*
X138900000Y-105400000D03*
X142250000Y-106800000D03*
X150400000Y-97200000D03*
X166800000Y-92200000D03*
X166800000Y-91000000D03*
X166800000Y-89800000D03*
X148500000Y-104400000D03*
D16*
X130800000Y-111600000D03*
D17*
X119500000Y-85700000D03*
X146800000Y-104400000D03*
D16*
X143000000Y-94700000D03*
D17*
X168900000Y-118800000D03*
X127800000Y-96900000D03*
X161800000Y-109200000D03*
X127100000Y-91200000D03*
X134500000Y-111800000D03*
X161800000Y-104500000D03*
D16*
X172400000Y-97800000D03*
D17*
X130700000Y-103200000D03*
X125700000Y-91200000D03*
X152300000Y-96300000D03*
X167600000Y-118800000D03*
D16*
X130800000Y-76300000D03*
D17*
X166300000Y-118800000D03*
X166300000Y-116700000D03*
X146800000Y-82300000D03*
X164500000Y-133900000D03*
D16*
X173200000Y-100600000D03*
X170500000Y-94800000D03*
D17*
X145300000Y-125500000D03*
D16*
X159500000Y-86700000D03*
X127700000Y-113400000D03*
D17*
X150200000Y-106100000D03*
X134600000Y-112700000D03*
D16*
X130800000Y-118100000D03*
D17*
X160800000Y-133900000D03*
X145300000Y-126800000D03*
D16*
X120800000Y-106000000D03*
D17*
X133700000Y-132200000D03*
X124300000Y-91200000D03*
X165600000Y-115100000D03*
D16*
X171600000Y-100600000D03*
D17*
X144200000Y-126800000D03*
X164800000Y-92200000D03*
X170200000Y-118800000D03*
X146800000Y-106100000D03*
D16*
X120900000Y-120335000D03*
X136700000Y-93700000D03*
D17*
X139900000Y-83100000D03*
X124300000Y-92700000D03*
X120600000Y-96800000D03*
X138900000Y-106600000D03*
X143100000Y-125500000D03*
D16*
X140300000Y-88400000D03*
D17*
X125900000Y-96900000D03*
X150115000Y-82800000D03*
X142000000Y-114000000D03*
X150200000Y-104400000D03*
X143100000Y-126800000D03*
X129100000Y-103200000D03*
D16*
X145100000Y-89600000D03*
X166599999Y-84699999D03*
D17*
X138000000Y-112000000D03*
D16*
X134600000Y-117100000D03*
D17*
X135000000Y-88900000D03*
X133700000Y-133900000D03*
D16*
X162400000Y-87500000D03*
X137100000Y-123200000D03*
D17*
X164800000Y-91000000D03*
X142250000Y-105800000D03*
D16*
X142400000Y-97800000D03*
D17*
X145300000Y-122900000D03*
D16*
X172400000Y-90900000D03*
X152100000Y-120800000D03*
X120900000Y-113017803D03*
D17*
X164500000Y-132100000D03*
X132400000Y-107200000D03*
X140000000Y-118000000D03*
X166300000Y-117800000D03*
D16*
X142200000Y-86400000D03*
X171600000Y-99000000D03*
D17*
X164800000Y-89800000D03*
X132500000Y-121500000D03*
D16*
X146500000Y-114700000D03*
D17*
X141500000Y-99800000D03*
X167600000Y-116700000D03*
D16*
X146500000Y-90100000D03*
D17*
X125000000Y-98300000D03*
X147100000Y-109500000D03*
X170200000Y-116700000D03*
X142000000Y-118000000D03*
D16*
X164400000Y-86600000D03*
X152300000Y-86300000D03*
D17*
X138000000Y-117800000D03*
D16*
X171300000Y-92900000D03*
D17*
X143100000Y-123100000D03*
X131700000Y-113200000D03*
X159900000Y-104500000D03*
X145800000Y-109500000D03*
X153300000Y-95200000D03*
X131800000Y-114600000D03*
X133800000Y-115050000D03*
X132400000Y-109100000D03*
X132500000Y-120000000D03*
X134500000Y-109750000D03*
X134300000Y-119200000D03*
D16*
X176500000Y-96800000D03*
D17*
X144800000Y-121800000D03*
X134900000Y-105900000D03*
X145050000Y-106800000D03*
D16*
X166100000Y-85700000D03*
D17*
X138800000Y-102600000D03*
X135900000Y-123200000D03*
X141600000Y-102600000D03*
X135800000Y-102600000D03*
X132800000Y-102600000D03*
X145600000Y-108150000D03*
D16*
X166200000Y-98300000D03*
D17*
X125900000Y-94100000D03*
D16*
X152500000Y-83400000D03*
D17*
X149115000Y-82800000D03*
X140500000Y-99800000D03*
X127700000Y-95400000D03*
X135000000Y-87900000D03*
D16*
X133200000Y-76300000D03*
X119500000Y-83500000D03*
D17*
X149900000Y-109600000D03*
X141500000Y-81300000D03*
D16*
X120800000Y-105000000D03*
X120900000Y-112100000D03*
X140000000Y-96200000D03*
D17*
X152300000Y-95300000D03*
X163500000Y-110000000D03*
X124200000Y-94100000D03*
D16*
X156300000Y-88500000D03*
D17*
X166900000Y-104600000D03*
D16*
X120900000Y-119317187D03*
D17*
X127700000Y-94100000D03*
D16*
X162400000Y-90300000D03*
D17*
X148900000Y-123000000D03*
X165500000Y-113500000D03*
X150700000Y-122200000D03*
X165000000Y-112500000D03*
X146200000Y-100100000D03*
D16*
X159000000Y-100800000D03*
X150700000Y-120800000D03*
X147900000Y-100100000D03*
X167800000Y-107200000D03*
X125900000Y-124500000D03*
X124900000Y-124500000D03*
X124900000Y-123400000D03*
X125900000Y-123400000D03*
X124600000Y-117300000D03*
X125400000Y-116200000D03*
X124600000Y-116200000D03*
X125400000Y-117300000D03*
X125500000Y-109100000D03*
X124700000Y-110100000D03*
X124700000Y-109100000D03*
X125500000Y-110100000D03*
X166400000Y-95410000D03*
X163560000Y-94560000D03*
G04 #@! TA.AperFunction,Conductor*
G36*
X172720064Y-75318744D02*
G01*
X172738809Y-75363999D01*
X172700841Y-75422465D01*
X172691141Y-75426784D01*
X172691115Y-75426797D01*
X172345202Y-75624102D01*
X172345177Y-75624118D01*
X172020549Y-75854818D01*
X172020539Y-75854825D01*
X171720430Y-76116628D01*
X171720415Y-76116643D01*
X171447796Y-76406953D01*
X171205343Y-76722922D01*
X170995479Y-77061399D01*
X170995475Y-77061405D01*
X170820260Y-77419064D01*
X170681437Y-77792347D01*
X170580374Y-78177577D01*
X170518072Y-78570937D01*
X170518071Y-78570938D01*
X170495146Y-78968544D01*
X170511823Y-79366461D01*
X170567940Y-79760755D01*
X170662938Y-80147518D01*
X170662940Y-80147527D01*
X170795882Y-80522945D01*
X170965460Y-80883315D01*
X171169968Y-81225026D01*
X171169985Y-81225050D01*
X171407432Y-81544773D01*
X171407438Y-81544780D01*
X171675482Y-81839357D01*
X171971430Y-82105829D01*
X171971459Y-82105853D01*
X172292418Y-82341621D01*
X172635225Y-82544357D01*
X172996462Y-82712037D01*
X172996470Y-82712040D01*
X173372579Y-82843016D01*
X173759850Y-82935991D01*
X174154428Y-82990041D01*
X174154432Y-82990042D01*
X174552428Y-83004635D01*
X174949902Y-82979628D01*
X175342944Y-82915264D01*
X175727618Y-82812190D01*
X175727646Y-82812181D01*
X176100169Y-82671417D01*
X176100171Y-82671417D01*
X176456915Y-82494328D01*
X176456917Y-82494327D01*
X176794301Y-82282686D01*
X177108990Y-82038588D01*
X177397871Y-81764451D01*
X177397881Y-81764440D01*
X177658114Y-81462958D01*
X177658116Y-81462956D01*
X177887119Y-81137117D01*
X178080243Y-80794379D01*
X178118790Y-80764155D01*
X178167419Y-80770039D01*
X178200001Y-80825797D01*
X178200000Y-129179546D01*
X178181255Y-129224801D01*
X178136000Y-129243546D01*
X178079756Y-129210084D01*
X177920277Y-128916359D01*
X177920267Y-128916344D01*
X177696417Y-128586959D01*
X177696416Y-128586959D01*
X177440940Y-128281413D01*
X177440934Y-128281407D01*
X177156404Y-128002774D01*
X176845571Y-127753750D01*
X176511564Y-127536843D01*
X176157662Y-127354179D01*
X175787357Y-127207566D01*
X175404335Y-127098458D01*
X175012350Y-127027930D01*
X174615323Y-126996683D01*
X174217137Y-127005023D01*
X173821765Y-127052869D01*
X173433078Y-127139751D01*
X173054965Y-127264800D01*
X173054959Y-127264802D01*
X172691132Y-127426789D01*
X172691115Y-127426797D01*
X172345202Y-127624102D01*
X172345177Y-127624118D01*
X172020549Y-127854818D01*
X172020539Y-127854825D01*
X171720430Y-128116628D01*
X171720415Y-128116643D01*
X171447796Y-128406953D01*
X171205343Y-128722922D01*
X170995479Y-129061399D01*
X170995475Y-129061405D01*
X170820260Y-129419064D01*
X170681437Y-129792347D01*
X170580374Y-130177577D01*
X170518072Y-130570937D01*
X170518071Y-130570938D01*
X170495146Y-130968544D01*
X170511823Y-131366461D01*
X170567940Y-131760755D01*
X170662938Y-132147518D01*
X170662940Y-132147527D01*
X170795882Y-132522945D01*
X170965460Y-132883315D01*
X171169968Y-133225026D01*
X171169985Y-133225050D01*
X171407432Y-133544773D01*
X171407438Y-133544780D01*
X171675482Y-133839357D01*
X171971430Y-134105829D01*
X171971459Y-134105853D01*
X172292418Y-134341621D01*
X172635225Y-134544357D01*
X172707594Y-134577949D01*
X172740750Y-134614006D01*
X172738699Y-134662946D01*
X172680648Y-134700000D01*
X164465592Y-134700000D01*
X164450513Y-134693754D01*
X164428366Y-134700000D01*
X160765592Y-134700000D01*
X160750513Y-134693754D01*
X160728366Y-134700000D01*
X133665592Y-134700000D01*
X133650513Y-134693754D01*
X133628366Y-134700000D01*
X130265592Y-134700000D01*
X130250513Y-134693754D01*
X130228366Y-134700000D01*
X124315457Y-134700000D01*
X124270202Y-134681255D01*
X124251457Y-134636000D01*
X124287000Y-134578674D01*
X124456915Y-134494328D01*
X124456917Y-134494327D01*
X124794301Y-134282686D01*
X125108990Y-134038588D01*
X125260625Y-133894692D01*
X129624122Y-133894692D01*
X129652440Y-134093665D01*
X129738010Y-134275508D01*
X129873267Y-134424155D01*
X129873270Y-134424157D01*
X130046252Y-134526458D01*
X130046258Y-134526461D01*
X130243306Y-134573768D01*
X130248913Y-134577842D01*
X130261573Y-134572126D01*
X130442261Y-134560758D01*
X130442260Y-134560758D01*
X130630257Y-134489720D01*
X130630258Y-134489719D01*
X130789059Y-134366541D01*
X130904622Y-134202111D01*
X130966726Y-134010975D01*
X130966727Y-134010974D01*
X130967639Y-133894692D01*
X133024122Y-133894692D01*
X133052440Y-134093665D01*
X133138010Y-134275508D01*
X133273267Y-134424155D01*
X133273270Y-134424157D01*
X133446252Y-134526458D01*
X133446258Y-134526461D01*
X133643306Y-134573768D01*
X133648913Y-134577842D01*
X133661573Y-134572126D01*
X133842261Y-134560758D01*
X133842260Y-134560758D01*
X134030257Y-134489720D01*
X134030258Y-134489719D01*
X134189059Y-134366541D01*
X134304622Y-134202111D01*
X134366726Y-134010975D01*
X134366727Y-134010974D01*
X134367639Y-133894692D01*
X160124122Y-133894692D01*
X160152440Y-134093665D01*
X160238010Y-134275508D01*
X160373267Y-134424155D01*
X160373270Y-134424157D01*
X160546252Y-134526458D01*
X160546258Y-134526461D01*
X160743306Y-134573768D01*
X160748913Y-134577842D01*
X160761573Y-134572126D01*
X160942261Y-134560758D01*
X160942260Y-134560758D01*
X161130257Y-134489720D01*
X161130258Y-134489719D01*
X161289059Y-134366541D01*
X161404622Y-134202111D01*
X161466726Y-134010975D01*
X161466727Y-134010974D01*
X161467639Y-133894692D01*
X163824122Y-133894692D01*
X163852440Y-134093665D01*
X163938010Y-134275508D01*
X164073267Y-134424155D01*
X164073270Y-134424157D01*
X164246252Y-134526458D01*
X164246258Y-134526461D01*
X164443306Y-134573768D01*
X164448913Y-134577842D01*
X164461573Y-134572126D01*
X164642261Y-134560758D01*
X164642260Y-134560758D01*
X164830257Y-134489720D01*
X164830258Y-134489719D01*
X164989059Y-134366541D01*
X165104622Y-134202111D01*
X165166726Y-134010975D01*
X165166727Y-134010974D01*
X165168387Y-133799515D01*
X165168387Y-133799512D01*
X165109292Y-133607421D01*
X164996330Y-133441201D01*
X164996327Y-133441199D01*
X164839482Y-133315541D01*
X164652621Y-133241558D01*
X164452265Y-133225789D01*
X164256126Y-133269631D01*
X164081558Y-133369204D01*
X164081555Y-133369206D01*
X163943979Y-133515708D01*
X163855561Y-133696192D01*
X163855560Y-133696197D01*
X163824122Y-133894692D01*
X161467639Y-133894692D01*
X161468387Y-133799515D01*
X161468387Y-133799512D01*
X161409292Y-133607421D01*
X161296330Y-133441201D01*
X161296327Y-133441199D01*
X161139482Y-133315541D01*
X160952621Y-133241558D01*
X160752265Y-133225789D01*
X160556126Y-133269631D01*
X160381558Y-133369204D01*
X160381555Y-133369206D01*
X160243979Y-133515708D01*
X160155561Y-133696192D01*
X160155560Y-133696197D01*
X160124122Y-133894692D01*
X134367639Y-133894692D01*
X134368387Y-133799515D01*
X134368387Y-133799512D01*
X134309292Y-133607421D01*
X134196330Y-133441201D01*
X134196327Y-133441199D01*
X134039482Y-133315541D01*
X133852621Y-133241558D01*
X133652265Y-133225789D01*
X133456126Y-133269631D01*
X133281558Y-133369204D01*
X133281555Y-133369206D01*
X133143979Y-133515708D01*
X133055561Y-133696192D01*
X133055560Y-133696197D01*
X133024122Y-133894692D01*
X130967639Y-133894692D01*
X130968387Y-133799515D01*
X130968387Y-133799512D01*
X130909292Y-133607421D01*
X130796330Y-133441201D01*
X130796327Y-133441199D01*
X130639482Y-133315541D01*
X130452621Y-133241558D01*
X130252265Y-133225789D01*
X130056126Y-133269631D01*
X129881558Y-133369204D01*
X129881555Y-133369206D01*
X129743979Y-133515708D01*
X129655561Y-133696192D01*
X129655560Y-133696197D01*
X129624122Y-133894692D01*
X125260625Y-133894692D01*
X125397871Y-133764451D01*
X125397881Y-133764440D01*
X125658114Y-133462958D01*
X125658116Y-133462956D01*
X125887119Y-133137117D01*
X126082632Y-132790139D01*
X126242714Y-132425462D01*
X126317695Y-132194692D01*
X129624122Y-132194692D01*
X129652440Y-132393665D01*
X129738010Y-132575508D01*
X129873267Y-132724155D01*
X129873270Y-132724157D01*
X130046252Y-132826458D01*
X130046258Y-132826461D01*
X130241681Y-132873378D01*
X130442261Y-132860758D01*
X130442260Y-132860758D01*
X130630257Y-132789720D01*
X130630258Y-132789719D01*
X130789059Y-132666541D01*
X130904622Y-132502111D01*
X130966726Y-132310975D01*
X130966727Y-132310974D01*
X130967639Y-132194692D01*
X133024122Y-132194692D01*
X133052440Y-132393665D01*
X133138010Y-132575508D01*
X133273267Y-132724155D01*
X133273270Y-132724157D01*
X133446252Y-132826458D01*
X133446258Y-132826461D01*
X133641681Y-132873378D01*
X133842261Y-132860758D01*
X133842260Y-132860758D01*
X134030257Y-132789720D01*
X134030258Y-132789719D01*
X134189059Y-132666541D01*
X134304622Y-132502111D01*
X134366726Y-132310975D01*
X134366727Y-132310974D01*
X134368387Y-132099515D01*
X134368387Y-132099512D01*
X134366905Y-132094692D01*
X160124122Y-132094692D01*
X160152440Y-132293665D01*
X160238010Y-132475508D01*
X160373267Y-132624155D01*
X160373270Y-132624157D01*
X160546252Y-132726458D01*
X160546258Y-132726461D01*
X160741681Y-132773378D01*
X160942261Y-132760758D01*
X160942260Y-132760758D01*
X161130257Y-132689720D01*
X161130258Y-132689719D01*
X161289059Y-132566541D01*
X161404622Y-132402111D01*
X161466726Y-132210975D01*
X161466727Y-132210974D01*
X161467639Y-132094692D01*
X163824122Y-132094692D01*
X163852440Y-132293665D01*
X163938010Y-132475508D01*
X164073267Y-132624155D01*
X164073270Y-132624157D01*
X164246252Y-132726458D01*
X164246258Y-132726461D01*
X164441681Y-132773378D01*
X164642261Y-132760758D01*
X164642260Y-132760758D01*
X164830257Y-132689720D01*
X164830258Y-132689719D01*
X164989059Y-132566541D01*
X165104622Y-132402111D01*
X165166726Y-132210975D01*
X165166727Y-132210974D01*
X165168387Y-131999515D01*
X165168387Y-131999512D01*
X165109292Y-131807421D01*
X164996330Y-131641201D01*
X164996327Y-131641199D01*
X164839482Y-131515541D01*
X164652621Y-131441558D01*
X164452265Y-131425789D01*
X164256126Y-131469631D01*
X164081558Y-131569204D01*
X164081555Y-131569206D01*
X163943979Y-131715708D01*
X163855561Y-131896192D01*
X163855560Y-131896197D01*
X163824122Y-132094692D01*
X161467639Y-132094692D01*
X161468387Y-131999515D01*
X161468387Y-131999512D01*
X161409292Y-131807421D01*
X161296330Y-131641201D01*
X161296327Y-131641199D01*
X161139482Y-131515541D01*
X160952621Y-131441558D01*
X160752265Y-131425789D01*
X160556126Y-131469631D01*
X160381558Y-131569204D01*
X160381555Y-131569206D01*
X160243979Y-131715708D01*
X160155561Y-131896192D01*
X160155560Y-131896197D01*
X160124122Y-132094692D01*
X134366905Y-132094692D01*
X134309292Y-131907421D01*
X134196330Y-131741201D01*
X134196327Y-131741199D01*
X134039482Y-131615541D01*
X133852621Y-131541558D01*
X133652265Y-131525789D01*
X133456126Y-131569631D01*
X133281558Y-131669204D01*
X133281555Y-131669206D01*
X133143979Y-131815708D01*
X133055561Y-131996192D01*
X133055560Y-131996197D01*
X133024122Y-132194692D01*
X130967639Y-132194692D01*
X130968387Y-132099515D01*
X130968387Y-132099512D01*
X130909292Y-131907421D01*
X130796330Y-131741201D01*
X130796327Y-131741199D01*
X130639482Y-131615541D01*
X130452621Y-131541558D01*
X130252265Y-131525789D01*
X130056126Y-131569631D01*
X129881558Y-131669204D01*
X129881555Y-131669206D01*
X129743979Y-131815708D01*
X129655561Y-131996192D01*
X129655560Y-131996197D01*
X129624122Y-132194692D01*
X126317695Y-132194692D01*
X126365785Y-132046689D01*
X126450627Y-131657562D01*
X126496404Y-131261930D01*
X126500024Y-130800877D01*
X126460468Y-130404569D01*
X126460465Y-130404551D01*
X126454830Y-130376601D01*
X137277032Y-130376601D01*
X137309635Y-130642144D01*
X137309636Y-130642149D01*
X137381130Y-130899948D01*
X137381133Y-130899958D01*
X137489948Y-131144358D01*
X137489953Y-131144368D01*
X137633697Y-131370001D01*
X137633702Y-131370008D01*
X137809219Y-131571916D01*
X137809221Y-131571918D01*
X138012662Y-131745673D01*
X138239547Y-131887445D01*
X138484897Y-131994127D01*
X138743310Y-132063368D01*
X139009141Y-132093655D01*
X139276506Y-132084318D01*
X139276519Y-132084317D01*
X139539563Y-132035565D01*
X139792524Y-131948464D01*
X140029845Y-131824923D01*
X140029847Y-131824922D01*
X140246278Y-131667675D01*
X140246281Y-131667672D01*
X140437100Y-131480156D01*
X140437111Y-131480144D01*
X140598111Y-131266489D01*
X140598118Y-131266479D01*
X140725773Y-131031366D01*
X140817276Y-130779968D01*
X140817279Y-130779958D01*
X140870616Y-130517795D01*
X140870616Y-130517792D01*
X140874312Y-130376601D01*
X153577032Y-130376601D01*
X153609635Y-130642144D01*
X153609636Y-130642149D01*
X153681130Y-130899948D01*
X153681133Y-130899958D01*
X153789948Y-131144358D01*
X153789953Y-131144368D01*
X153933697Y-131370001D01*
X153933702Y-131370008D01*
X154109219Y-131571916D01*
X154109221Y-131571918D01*
X154312662Y-131745673D01*
X154539547Y-131887445D01*
X154784897Y-131994127D01*
X155043310Y-132063368D01*
X155309141Y-132093655D01*
X155576506Y-132084318D01*
X155576519Y-132084317D01*
X155839563Y-132035565D01*
X156092524Y-131948464D01*
X156329845Y-131824923D01*
X156329847Y-131824922D01*
X156546278Y-131667675D01*
X156546281Y-131667672D01*
X156737100Y-131480156D01*
X156737111Y-131480144D01*
X156898111Y-131266489D01*
X156898118Y-131266479D01*
X157025773Y-131031366D01*
X157117276Y-130779968D01*
X157117279Y-130779958D01*
X157170616Y-130517795D01*
X157170616Y-130517792D01*
X157180083Y-130156234D01*
X157180082Y-130156228D01*
X157140539Y-129891630D01*
X157140537Y-129891623D01*
X157062318Y-129635782D01*
X157062318Y-129635781D01*
X156947141Y-129394307D01*
X156947137Y-129394301D01*
X156797540Y-129172514D01*
X156797531Y-129172503D01*
X156616783Y-128975251D01*
X156408881Y-128806896D01*
X156408862Y-128806883D01*
X156178358Y-128671106D01*
X155930294Y-128570882D01*
X155670138Y-128508423D01*
X155403627Y-128485108D01*
X155136591Y-128501440D01*
X155136579Y-128501441D01*
X154874907Y-128557062D01*
X154874887Y-128557068D01*
X154624302Y-128650758D01*
X154624298Y-128650760D01*
X154390305Y-128780465D01*
X154178053Y-128943331D01*
X153992204Y-129135784D01*
X153836848Y-129353584D01*
X153836840Y-129353597D01*
X153715388Y-129591959D01*
X153715386Y-129591964D01*
X153630494Y-129845681D01*
X153584035Y-130109159D01*
X153584035Y-130109161D01*
X153577032Y-130376601D01*
X140874312Y-130376601D01*
X140880083Y-130156234D01*
X140880082Y-130156228D01*
X140840539Y-129891630D01*
X140840537Y-129891623D01*
X140762318Y-129635782D01*
X140762318Y-129635781D01*
X140647141Y-129394307D01*
X140647137Y-129394301D01*
X140497540Y-129172514D01*
X140497531Y-129172503D01*
X140316783Y-128975251D01*
X140108881Y-128806896D01*
X140108862Y-128806883D01*
X139878358Y-128671106D01*
X139630294Y-128570882D01*
X139370138Y-128508423D01*
X139103627Y-128485108D01*
X138836591Y-128501440D01*
X138836579Y-128501441D01*
X138574907Y-128557062D01*
X138574887Y-128557068D01*
X138324302Y-128650758D01*
X138324298Y-128650760D01*
X138090305Y-128780465D01*
X137878053Y-128943331D01*
X137692204Y-129135784D01*
X137536848Y-129353584D01*
X137536840Y-129353597D01*
X137415388Y-129591959D01*
X137415386Y-129591964D01*
X137330494Y-129845681D01*
X137284035Y-130109159D01*
X137284035Y-130109161D01*
X137277032Y-130376601D01*
X126454830Y-130376601D01*
X126381753Y-130014181D01*
X126381748Y-130014160D01*
X126264643Y-129633506D01*
X126264640Y-129633498D01*
X126110307Y-129266352D01*
X125920277Y-128916359D01*
X125920267Y-128916344D01*
X125696417Y-128586959D01*
X125696416Y-128586959D01*
X125440940Y-128281413D01*
X125440934Y-128281407D01*
X125156404Y-128002774D01*
X124845571Y-127753750D01*
X124511564Y-127536843D01*
X124157662Y-127354179D01*
X123787357Y-127207566D01*
X123404335Y-127098458D01*
X123012350Y-127027930D01*
X122615323Y-126996683D01*
X122217137Y-127005023D01*
X121821765Y-127052869D01*
X121433078Y-127139751D01*
X121054965Y-127264800D01*
X121054959Y-127264802D01*
X120691132Y-127426789D01*
X120691115Y-127426797D01*
X120345202Y-127624102D01*
X120345177Y-127624118D01*
X120020549Y-127854818D01*
X120020539Y-127854825D01*
X119720430Y-128116628D01*
X119720415Y-128116643D01*
X119447796Y-128406953D01*
X119205343Y-128722922D01*
X118995479Y-129061399D01*
X118995475Y-129061405D01*
X118921474Y-129212460D01*
X118884731Y-129244853D01*
X118835844Y-129241778D01*
X118800000Y-129184304D01*
X118800000Y-123394679D01*
X124222454Y-123394679D01*
X124250842Y-123594143D01*
X124336624Y-123776435D01*
X124456103Y-123907742D01*
X124472696Y-123953830D01*
X124455421Y-123994626D01*
X124342606Y-124114761D01*
X124253971Y-124295689D01*
X124253970Y-124295693D01*
X124222454Y-124494679D01*
X124250842Y-124694143D01*
X124336622Y-124876433D01*
X124472217Y-125025450D01*
X124645628Y-125128006D01*
X124645632Y-125128007D01*
X124841537Y-125175040D01*
X125042610Y-125162388D01*
X125042618Y-125162387D01*
X125231073Y-125091176D01*
X125231073Y-125091175D01*
X125360752Y-124990586D01*
X125407999Y-124977661D01*
X125447315Y-124998084D01*
X125472214Y-125025448D01*
X125472217Y-125025450D01*
X125645628Y-125128006D01*
X125645632Y-125128007D01*
X125841537Y-125175040D01*
X126042610Y-125162388D01*
X126042618Y-125162387D01*
X126231073Y-125091176D01*
X126231073Y-125091175D01*
X126390266Y-124967692D01*
X126506114Y-124802857D01*
X126568371Y-124611249D01*
X126568372Y-124611247D01*
X126570037Y-124399267D01*
X126570037Y-124399264D01*
X126510795Y-124206699D01*
X126397555Y-124040069D01*
X126397553Y-124040068D01*
X126348009Y-124000376D01*
X126324411Y-123957452D01*
X126348798Y-123899858D01*
X126390266Y-123867692D01*
X126506114Y-123702857D01*
X126568371Y-123511249D01*
X126568372Y-123511247D01*
X126570037Y-123299267D01*
X126570037Y-123299264D01*
X126510795Y-123106699D01*
X126397555Y-122940069D01*
X126397552Y-122940067D01*
X126240320Y-122814099D01*
X126052997Y-122739933D01*
X125852147Y-122724125D01*
X125655523Y-122768076D01*
X125655521Y-122768077D01*
X125480527Y-122867892D01*
X125480522Y-122867896D01*
X125446723Y-122903888D01*
X125402079Y-122924045D01*
X125360053Y-122910024D01*
X125240320Y-122814099D01*
X125052997Y-122739933D01*
X124852147Y-122724125D01*
X124655523Y-122768076D01*
X124655521Y-122768077D01*
X124480527Y-122867892D01*
X124480522Y-122867896D01*
X124342606Y-123014761D01*
X124253971Y-123195689D01*
X124253970Y-123195693D01*
X124222454Y-123394679D01*
X118800000Y-123394679D01*
X118800000Y-120329679D01*
X120222454Y-120329679D01*
X120250842Y-120529143D01*
X120336622Y-120711433D01*
X120472217Y-120860450D01*
X120645628Y-120963006D01*
X120645632Y-120963007D01*
X120841537Y-121010040D01*
X121042610Y-120997388D01*
X121042618Y-120997387D01*
X121231073Y-120926176D01*
X121231073Y-120926175D01*
X121390266Y-120802692D01*
X121506114Y-120637857D01*
X121568371Y-120446249D01*
X121568372Y-120446247D01*
X121570037Y-120234267D01*
X121570037Y-120234264D01*
X121510795Y-120041699D01*
X121397555Y-119875069D01*
X121397552Y-119875067D01*
X121240320Y-119749099D01*
X121052997Y-119674933D01*
X120852147Y-119659125D01*
X120655523Y-119703076D01*
X120655521Y-119703077D01*
X120480527Y-119802892D01*
X120480522Y-119802896D01*
X120342606Y-119949761D01*
X120253971Y-120130689D01*
X120253970Y-120130693D01*
X120222454Y-120329679D01*
X118800000Y-120329679D01*
X118800000Y-116194679D01*
X123922454Y-116194679D01*
X123950842Y-116394143D01*
X124036624Y-116576435D01*
X124156103Y-116707742D01*
X124172696Y-116753830D01*
X124155421Y-116794626D01*
X124042606Y-116914761D01*
X123953971Y-117095689D01*
X123953970Y-117095693D01*
X123922454Y-117294679D01*
X123950842Y-117494143D01*
X124036622Y-117676433D01*
X124172217Y-117825450D01*
X124345628Y-117928006D01*
X124345632Y-117928007D01*
X124541537Y-117975040D01*
X124742610Y-117962388D01*
X124742618Y-117962387D01*
X124931071Y-117891176D01*
X124931072Y-117891175D01*
X124962580Y-117866735D01*
X125009828Y-117853810D01*
X125034385Y-117862217D01*
X125145630Y-117928006D01*
X125145632Y-117928007D01*
X125341537Y-117975040D01*
X125542610Y-117962388D01*
X125542618Y-117962387D01*
X125731073Y-117891176D01*
X125731073Y-117891175D01*
X125890266Y-117767692D01*
X126006114Y-117602857D01*
X126068371Y-117411249D01*
X126068372Y-117411247D01*
X126070037Y-117199267D01*
X126070037Y-117199264D01*
X126010795Y-117006699D01*
X125897555Y-116840069D01*
X125897553Y-116840068D01*
X125848009Y-116800376D01*
X125824411Y-116757452D01*
X125848798Y-116699858D01*
X125890266Y-116667692D01*
X126006114Y-116502857D01*
X126068371Y-116311249D01*
X126068372Y-116311247D01*
X126070037Y-116099267D01*
X126070037Y-116099264D01*
X126010795Y-115906699D01*
X125897555Y-115740069D01*
X125897552Y-115740067D01*
X125740320Y-115614099D01*
X125552997Y-115539933D01*
X125352147Y-115524125D01*
X125155523Y-115568076D01*
X125155521Y-115568077D01*
X125034042Y-115637367D01*
X124985445Y-115643507D01*
X124962318Y-115631723D01*
X124940320Y-115614099D01*
X124752997Y-115539933D01*
X124552147Y-115524125D01*
X124355523Y-115568076D01*
X124355521Y-115568077D01*
X124180527Y-115667892D01*
X124180522Y-115667896D01*
X124042606Y-115814761D01*
X123953971Y-115995689D01*
X123953970Y-115995693D01*
X123922454Y-116194679D01*
X118800000Y-116194679D01*
X118800000Y-113012482D01*
X120222454Y-113012482D01*
X120250842Y-113211946D01*
X120336622Y-113394236D01*
X120472217Y-113543253D01*
X120645628Y-113645809D01*
X120645632Y-113645810D01*
X120841537Y-113692843D01*
X121042610Y-113680191D01*
X121042618Y-113680190D01*
X121231073Y-113608979D01*
X121231073Y-113608978D01*
X121390266Y-113485495D01*
X121454092Y-113394679D01*
X127022454Y-113394679D01*
X127050842Y-113594143D01*
X127136622Y-113776433D01*
X127272217Y-113925450D01*
X127445628Y-114028006D01*
X127445632Y-114028007D01*
X127641537Y-114075040D01*
X127842610Y-114062388D01*
X127842618Y-114062387D01*
X128031073Y-113991176D01*
X128031073Y-113991175D01*
X128190266Y-113867692D01*
X128306114Y-113702857D01*
X128368371Y-113511249D01*
X128368372Y-113511247D01*
X128370037Y-113299267D01*
X128370037Y-113299264D01*
X128310795Y-113106699D01*
X128197555Y-112940069D01*
X128197552Y-112940067D01*
X128040320Y-112814099D01*
X127852997Y-112739933D01*
X127652147Y-112724125D01*
X127455523Y-112768076D01*
X127455521Y-112768077D01*
X127280527Y-112867892D01*
X127280522Y-112867896D01*
X127142606Y-113014761D01*
X127053971Y-113195689D01*
X127053970Y-113195693D01*
X127022454Y-113394679D01*
X121454092Y-113394679D01*
X121506114Y-113320660D01*
X121568371Y-113129052D01*
X121568372Y-113129050D01*
X121570037Y-112917070D01*
X121570037Y-112917067D01*
X121510795Y-112724502D01*
X121397555Y-112557872D01*
X121397552Y-112557870D01*
X121240320Y-112431902D01*
X121052997Y-112357736D01*
X120852147Y-112341928D01*
X120655523Y-112385879D01*
X120655521Y-112385880D01*
X120480527Y-112485695D01*
X120480522Y-112485699D01*
X120342606Y-112632564D01*
X120253971Y-112813492D01*
X120253970Y-112813496D01*
X120222454Y-113012482D01*
X118800000Y-113012482D01*
X118800000Y-109094679D01*
X124022454Y-109094679D01*
X124050842Y-109294143D01*
X124136624Y-109476435D01*
X124209890Y-109556953D01*
X124226483Y-109603040D01*
X124209208Y-109643837D01*
X124142607Y-109714759D01*
X124053971Y-109895689D01*
X124053970Y-109895693D01*
X124022454Y-110094679D01*
X124050842Y-110294143D01*
X124136622Y-110476433D01*
X124272217Y-110625450D01*
X124445628Y-110728006D01*
X124445632Y-110728007D01*
X124641537Y-110775040D01*
X124842610Y-110762388D01*
X124842618Y-110762387D01*
X125031071Y-110691176D01*
X125031072Y-110691175D01*
X125062580Y-110666735D01*
X125109828Y-110653810D01*
X125134385Y-110662217D01*
X125245630Y-110728006D01*
X125245632Y-110728007D01*
X125441537Y-110775040D01*
X125642610Y-110762388D01*
X125642618Y-110762387D01*
X125831073Y-110691176D01*
X125831073Y-110691175D01*
X125990266Y-110567692D01*
X126106114Y-110402857D01*
X126168371Y-110211249D01*
X126168372Y-110211247D01*
X126170037Y-109999267D01*
X126170037Y-109999264D01*
X126110795Y-109806699D01*
X125994864Y-109636110D01*
X125996831Y-109634773D01*
X125982649Y-109596327D01*
X125994238Y-109562042D01*
X126106114Y-109402858D01*
X126168371Y-109211249D01*
X126168372Y-109211247D01*
X126170037Y-108999267D01*
X126170037Y-108999264D01*
X126110795Y-108806699D01*
X125997555Y-108640069D01*
X125997552Y-108640067D01*
X125840320Y-108514099D01*
X125652997Y-108439933D01*
X125452147Y-108424125D01*
X125255523Y-108468076D01*
X125255521Y-108468077D01*
X125134042Y-108537367D01*
X125085445Y-108543507D01*
X125062318Y-108531723D01*
X125040320Y-108514099D01*
X124852997Y-108439933D01*
X124652147Y-108424125D01*
X124455523Y-108468076D01*
X124455521Y-108468077D01*
X124280527Y-108567892D01*
X124280522Y-108567896D01*
X124142606Y-108714761D01*
X124053971Y-108895689D01*
X124053970Y-108895693D01*
X124022454Y-109094679D01*
X118800000Y-109094679D01*
X118800000Y-105994679D01*
X120122454Y-105994679D01*
X120150842Y-106194143D01*
X120236622Y-106376433D01*
X120372217Y-106525450D01*
X120545628Y-106628006D01*
X120545632Y-106628007D01*
X120741537Y-106675040D01*
X120942610Y-106662388D01*
X120942618Y-106662387D01*
X121131073Y-106591176D01*
X121131073Y-106591175D01*
X121290266Y-106467692D01*
X121406114Y-106302857D01*
X121468371Y-106111249D01*
X121468372Y-106111247D01*
X121470037Y-105899267D01*
X121470037Y-105899264D01*
X121410795Y-105706699D01*
X121297555Y-105540069D01*
X121297552Y-105540067D01*
X121140320Y-105414099D01*
X120952997Y-105339933D01*
X120752147Y-105324125D01*
X120555523Y-105368076D01*
X120555521Y-105368077D01*
X120380527Y-105467892D01*
X120380522Y-105467896D01*
X120242606Y-105614761D01*
X120153971Y-105795689D01*
X120153970Y-105795693D01*
X120122454Y-105994679D01*
X118800000Y-105994679D01*
X118800000Y-103194692D01*
X128424122Y-103194692D01*
X128452440Y-103393665D01*
X128538010Y-103575508D01*
X128673267Y-103724155D01*
X128673270Y-103724157D01*
X128846252Y-103826458D01*
X128846258Y-103826461D01*
X129041681Y-103873378D01*
X129242261Y-103860758D01*
X129242260Y-103860758D01*
X129430257Y-103789720D01*
X129430258Y-103789719D01*
X129589059Y-103666541D01*
X129704622Y-103502111D01*
X129766726Y-103310975D01*
X129766727Y-103310974D01*
X129767639Y-103194692D01*
X130024122Y-103194692D01*
X130052440Y-103393665D01*
X130138010Y-103575508D01*
X130273267Y-103724155D01*
X130273270Y-103724157D01*
X130446252Y-103826458D01*
X130446258Y-103826461D01*
X130641681Y-103873378D01*
X130842261Y-103860758D01*
X130842260Y-103860758D01*
X131030257Y-103789720D01*
X131030258Y-103789719D01*
X131189059Y-103666541D01*
X131283638Y-103531968D01*
X131324996Y-103505721D01*
X131372800Y-103516406D01*
X131400000Y-103568768D01*
X131400000Y-111088863D01*
X131381255Y-111134118D01*
X131336000Y-111152863D01*
X131295984Y-111138810D01*
X131140320Y-111014099D01*
X130952997Y-110939933D01*
X130752147Y-110924125D01*
X130555523Y-110968076D01*
X130555521Y-110968077D01*
X130380527Y-111067892D01*
X130380522Y-111067896D01*
X130242606Y-111214761D01*
X130153971Y-111395689D01*
X130153970Y-111395693D01*
X130122454Y-111594679D01*
X130150842Y-111794143D01*
X130236622Y-111976433D01*
X130372217Y-112125450D01*
X130545628Y-112228006D01*
X130545632Y-112228007D01*
X130741537Y-112275040D01*
X130942610Y-112262388D01*
X130942618Y-112262387D01*
X131131073Y-112191176D01*
X131131073Y-112191175D01*
X131294047Y-112064759D01*
X131294977Y-112065959D01*
X131334488Y-112048488D01*
X131380173Y-112066159D01*
X131400000Y-112112470D01*
X131400000Y-112564471D01*
X131367709Y-112620063D01*
X131281560Y-112669202D01*
X131281555Y-112669206D01*
X131143979Y-112815708D01*
X131055561Y-112996192D01*
X131055560Y-112996197D01*
X131024122Y-113194692D01*
X131052440Y-113393665D01*
X131138010Y-113575508D01*
X131273267Y-113724155D01*
X131273270Y-113724157D01*
X131368579Y-113780523D01*
X131400000Y-113835610D01*
X131400000Y-114024224D01*
X131382654Y-114068035D01*
X131243979Y-114215708D01*
X131155561Y-114396192D01*
X131155560Y-114396197D01*
X131124122Y-114594692D01*
X131152440Y-114793665D01*
X131238010Y-114975508D01*
X131373269Y-115124157D01*
X131376406Y-115126711D01*
X131400000Y-115176343D01*
X131400000Y-117588863D01*
X131381255Y-117634118D01*
X131336000Y-117652863D01*
X131295984Y-117638810D01*
X131140320Y-117514099D01*
X130952997Y-117439933D01*
X130752147Y-117424125D01*
X130555523Y-117468076D01*
X130555521Y-117468077D01*
X130380527Y-117567892D01*
X130380522Y-117567896D01*
X130242606Y-117714761D01*
X130153971Y-117895689D01*
X130153970Y-117895693D01*
X130122454Y-118094679D01*
X130150842Y-118294143D01*
X130236622Y-118476433D01*
X130372217Y-118625450D01*
X130545628Y-118728006D01*
X130545632Y-118728007D01*
X130741537Y-118775040D01*
X130942610Y-118762388D01*
X130942618Y-118762387D01*
X131131073Y-118691176D01*
X131131073Y-118691175D01*
X131294047Y-118564759D01*
X131294977Y-118565959D01*
X131334488Y-118548488D01*
X131380173Y-118566159D01*
X131400000Y-118612470D01*
X131400000Y-123799998D01*
X131419577Y-123923604D01*
X131419578Y-123923610D01*
X131476391Y-124035111D01*
X131564889Y-124123609D01*
X131676390Y-124180422D01*
X131676396Y-124180423D01*
X131800002Y-124200000D01*
X142383573Y-124200000D01*
X142428828Y-124218745D01*
X142446935Y-124254982D01*
X142452440Y-124293665D01*
X142538010Y-124475508D01*
X142673267Y-124624155D01*
X142673270Y-124624157D01*
X142846252Y-124726458D01*
X142846257Y-124726461D01*
X142891348Y-124737286D01*
X142930976Y-124766078D01*
X142938639Y-124814459D01*
X142890368Y-124861977D01*
X142856126Y-124869631D01*
X142681558Y-124969204D01*
X142681555Y-124969206D01*
X142543979Y-125115708D01*
X142455561Y-125296192D01*
X142455560Y-125296197D01*
X142424122Y-125494692D01*
X142452440Y-125693665D01*
X142538010Y-125875508D01*
X142673267Y-126024155D01*
X142673268Y-126024156D01*
X142793420Y-126095213D01*
X142822831Y-126134385D01*
X142815930Y-126182879D01*
X142792552Y-126205893D01*
X142681558Y-126269204D01*
X142681555Y-126269206D01*
X142543979Y-126415708D01*
X142455561Y-126596192D01*
X142455560Y-126596197D01*
X142424122Y-126794692D01*
X142452440Y-126993665D01*
X142538010Y-127175508D01*
X142673267Y-127324155D01*
X142673270Y-127324157D01*
X142846252Y-127426458D01*
X142846258Y-127426461D01*
X143041681Y-127473378D01*
X143242261Y-127460758D01*
X143242260Y-127460758D01*
X143430257Y-127389720D01*
X143430258Y-127389719D01*
X143589059Y-127266541D01*
X143600554Y-127250185D01*
X143641912Y-127223938D01*
X143700253Y-127243912D01*
X143773270Y-127324157D01*
X143946252Y-127426458D01*
X143946258Y-127426461D01*
X144141681Y-127473378D01*
X144342261Y-127460758D01*
X144342260Y-127460758D01*
X144530257Y-127389720D01*
X144530258Y-127389719D01*
X144689059Y-127266541D01*
X144700554Y-127250185D01*
X144741912Y-127223938D01*
X144800253Y-127243912D01*
X144873270Y-127324157D01*
X145046252Y-127426458D01*
X145046258Y-127426461D01*
X145241681Y-127473378D01*
X145442261Y-127460758D01*
X145442260Y-127460758D01*
X145630257Y-127389720D01*
X145630258Y-127389719D01*
X145789059Y-127266541D01*
X145904622Y-127102111D01*
X145966726Y-126910975D01*
X145966727Y-126910974D01*
X145968387Y-126699515D01*
X145968387Y-126699512D01*
X145909292Y-126507421D01*
X145796330Y-126341201D01*
X145796327Y-126341199D01*
X145639480Y-126215540D01*
X145626189Y-126210278D01*
X145591011Y-126176191D01*
X145590241Y-126127214D01*
X145627122Y-126090905D01*
X145630257Y-126089720D01*
X145630258Y-126089719D01*
X145789059Y-125966541D01*
X145904622Y-125802111D01*
X145966726Y-125610975D01*
X145966727Y-125610974D01*
X145968387Y-125399515D01*
X145968387Y-125399512D01*
X145909292Y-125207421D01*
X145796330Y-125041201D01*
X145796327Y-125041199D01*
X145639482Y-124915541D01*
X145496954Y-124859111D01*
X145461778Y-124825023D01*
X145461008Y-124776045D01*
X145497891Y-124739737D01*
X145630259Y-124689719D01*
X145630258Y-124689719D01*
X145789059Y-124566541D01*
X145904622Y-124402111D01*
X145956634Y-124242036D01*
X146007494Y-124198600D01*
X146122211Y-124180437D01*
X146233723Y-124123636D01*
X146233726Y-124123634D01*
X146322225Y-124035156D01*
X146322228Y-124035153D01*
X146379055Y-123923655D01*
X146398649Y-123800043D01*
X146398749Y-122994692D01*
X148224122Y-122994692D01*
X148252440Y-123193665D01*
X148338010Y-123375508D01*
X148473267Y-123524155D01*
X148473270Y-123524157D01*
X148646252Y-123626458D01*
X148646258Y-123626461D01*
X148841681Y-123673378D01*
X149042261Y-123660758D01*
X149042260Y-123660758D01*
X149230257Y-123589720D01*
X149230258Y-123589719D01*
X149389059Y-123466541D01*
X149504622Y-123302111D01*
X149566726Y-123110975D01*
X149566727Y-123110974D01*
X149567546Y-123006601D01*
X171987032Y-123006601D01*
X172019635Y-123272144D01*
X172019636Y-123272149D01*
X172091130Y-123529948D01*
X172091133Y-123529958D01*
X172199948Y-123774358D01*
X172199953Y-123774368D01*
X172343697Y-124000001D01*
X172343702Y-124000008D01*
X172519219Y-124201916D01*
X172519221Y-124201918D01*
X172722662Y-124375673D01*
X172949547Y-124517445D01*
X173194897Y-124624127D01*
X173453310Y-124693368D01*
X173719141Y-124723655D01*
X173986506Y-124714318D01*
X173986519Y-124714317D01*
X174249563Y-124665565D01*
X174502524Y-124578464D01*
X174739845Y-124454923D01*
X174739847Y-124454922D01*
X174956278Y-124297675D01*
X174956281Y-124297672D01*
X175147100Y-124110156D01*
X175147111Y-124110144D01*
X175308111Y-123896489D01*
X175308118Y-123896479D01*
X175435773Y-123661366D01*
X175527276Y-123409968D01*
X175527279Y-123409958D01*
X175580616Y-123147795D01*
X175580616Y-123147792D01*
X175590083Y-122786234D01*
X175590082Y-122786228D01*
X175550539Y-122521630D01*
X175550537Y-122521623D01*
X175472318Y-122265782D01*
X175472318Y-122265781D01*
X175357141Y-122024307D01*
X175357137Y-122024301D01*
X175207540Y-121802514D01*
X175207531Y-121802503D01*
X175026783Y-121605251D01*
X174818881Y-121436896D01*
X174818862Y-121436883D01*
X174588358Y-121301106D01*
X174340294Y-121200882D01*
X174080138Y-121138423D01*
X173813627Y-121115108D01*
X173546591Y-121131440D01*
X173546579Y-121131441D01*
X173284907Y-121187062D01*
X173284887Y-121187068D01*
X173034302Y-121280758D01*
X173034298Y-121280760D01*
X172800305Y-121410465D01*
X172588053Y-121573331D01*
X172402204Y-121765784D01*
X172246848Y-121983584D01*
X172246840Y-121983597D01*
X172125388Y-122221959D01*
X172125386Y-122221964D01*
X172040494Y-122475681D01*
X171994035Y-122739159D01*
X171994035Y-122739161D01*
X171987032Y-123006601D01*
X149567546Y-123006601D01*
X149568387Y-122899515D01*
X149568387Y-122899512D01*
X149509292Y-122707421D01*
X149396330Y-122541201D01*
X149396327Y-122541199D01*
X149239482Y-122415541D01*
X149052621Y-122341558D01*
X148852265Y-122325789D01*
X148656126Y-122369631D01*
X148481558Y-122469204D01*
X148481555Y-122469206D01*
X148343979Y-122615708D01*
X148255561Y-122796192D01*
X148255560Y-122796197D01*
X148224122Y-122994692D01*
X146398749Y-122994692D01*
X146399024Y-120794679D01*
X150022454Y-120794679D01*
X150050842Y-120994143D01*
X150136622Y-121176433D01*
X150272217Y-121325450D01*
X150445628Y-121428006D01*
X150445630Y-121428007D01*
X150487688Y-121438104D01*
X150527316Y-121466896D01*
X150534979Y-121515277D01*
X150486708Y-121562795D01*
X150456126Y-121569631D01*
X150281558Y-121669204D01*
X150281555Y-121669206D01*
X150143979Y-121815708D01*
X150055561Y-121996192D01*
X150055560Y-121996197D01*
X150024122Y-122194692D01*
X150052440Y-122393665D01*
X150138010Y-122575508D01*
X150273267Y-122724155D01*
X150273270Y-122724157D01*
X150446252Y-122826458D01*
X150446258Y-122826461D01*
X150641681Y-122873378D01*
X150842261Y-122860758D01*
X150842260Y-122860758D01*
X151030257Y-122789720D01*
X151030258Y-122789719D01*
X151189059Y-122666541D01*
X151304622Y-122502111D01*
X151366726Y-122310975D01*
X151366727Y-122310974D01*
X151368387Y-122099515D01*
X151368387Y-122099512D01*
X151309292Y-121907421D01*
X151196330Y-121741201D01*
X151196327Y-121741199D01*
X151039482Y-121615541D01*
X150899234Y-121560013D01*
X150864058Y-121525924D01*
X150863288Y-121476947D01*
X150900172Y-121440639D01*
X151031072Y-121391176D01*
X151031073Y-121391175D01*
X151190266Y-121267692D01*
X151306114Y-121102857D01*
X151336173Y-121010345D01*
X151367986Y-120973097D01*
X151416818Y-120969254D01*
X151454950Y-121002872D01*
X151536622Y-121176433D01*
X151672217Y-121325450D01*
X151845628Y-121428006D01*
X151845632Y-121428007D01*
X152041537Y-121475040D01*
X152242610Y-121462388D01*
X152242618Y-121462387D01*
X152431073Y-121391176D01*
X152431073Y-121391175D01*
X152590266Y-121267692D01*
X152706114Y-121102857D01*
X152768371Y-120911249D01*
X152768372Y-120911247D01*
X152770037Y-120699267D01*
X152770037Y-120699264D01*
X152710795Y-120506699D01*
X152597555Y-120340069D01*
X152597552Y-120340067D01*
X152440320Y-120214099D01*
X152252997Y-120139933D01*
X152052147Y-120124125D01*
X151855523Y-120168076D01*
X151855521Y-120168077D01*
X151680527Y-120267892D01*
X151680522Y-120267896D01*
X151542606Y-120414761D01*
X151453955Y-120595722D01*
X151417212Y-120628115D01*
X151368325Y-120625040D01*
X151335310Y-120586385D01*
X151310795Y-120506699D01*
X151197555Y-120340069D01*
X151197552Y-120340067D01*
X151040320Y-120214099D01*
X150852997Y-120139933D01*
X150652147Y-120124125D01*
X150455523Y-120168076D01*
X150455521Y-120168077D01*
X150280527Y-120267892D01*
X150280522Y-120267896D01*
X150142606Y-120414761D01*
X150053971Y-120595689D01*
X150053970Y-120595693D01*
X150022454Y-120794679D01*
X146399024Y-120794679D01*
X146399538Y-116694692D01*
X165624122Y-116694692D01*
X165652440Y-116893665D01*
X165738010Y-117075506D01*
X165858350Y-117207760D01*
X165874942Y-117253848D01*
X165857667Y-117294644D01*
X165743979Y-117415708D01*
X165655561Y-117596192D01*
X165655560Y-117596197D01*
X165624122Y-117794692D01*
X165652440Y-117993665D01*
X165738011Y-118175508D01*
X165812136Y-118256971D01*
X165828729Y-118303059D01*
X165811454Y-118343855D01*
X165743979Y-118415708D01*
X165655561Y-118596192D01*
X165655560Y-118596197D01*
X165624122Y-118794692D01*
X165652440Y-118993665D01*
X165738010Y-119175508D01*
X165873267Y-119324155D01*
X165873270Y-119324157D01*
X166046252Y-119426458D01*
X166046258Y-119426461D01*
X166241681Y-119473378D01*
X166442261Y-119460758D01*
X166442260Y-119460758D01*
X166630257Y-119389720D01*
X166630258Y-119389719D01*
X166789059Y-119266540D01*
X166900473Y-119108015D01*
X166941832Y-119081768D01*
X166989635Y-119092453D01*
X167010744Y-119117565D01*
X167038010Y-119175508D01*
X167173267Y-119324155D01*
X167173270Y-119324157D01*
X167346252Y-119426458D01*
X167346258Y-119426461D01*
X167541681Y-119473378D01*
X167742261Y-119460758D01*
X167742260Y-119460758D01*
X167930257Y-119389720D01*
X167930258Y-119389719D01*
X168089059Y-119266540D01*
X168200473Y-119108015D01*
X168241832Y-119081768D01*
X168289635Y-119092453D01*
X168310744Y-119117565D01*
X168338010Y-119175508D01*
X168473267Y-119324155D01*
X168473270Y-119324157D01*
X168646252Y-119426458D01*
X168646258Y-119426461D01*
X168841681Y-119473378D01*
X169042261Y-119460758D01*
X169042260Y-119460758D01*
X169230257Y-119389720D01*
X169230258Y-119389719D01*
X169389059Y-119266540D01*
X169500473Y-119108015D01*
X169541832Y-119081768D01*
X169589635Y-119092453D01*
X169610744Y-119117565D01*
X169638010Y-119175508D01*
X169773267Y-119324155D01*
X169773270Y-119324157D01*
X169946252Y-119426458D01*
X169946258Y-119426461D01*
X170141681Y-119473378D01*
X170342261Y-119460758D01*
X170342260Y-119460758D01*
X170530257Y-119389720D01*
X170530258Y-119389719D01*
X170689059Y-119266541D01*
X170804622Y-119102111D01*
X170866726Y-118910975D01*
X170866727Y-118910974D01*
X170868387Y-118699515D01*
X170868387Y-118699512D01*
X170809292Y-118507421D01*
X170693639Y-118337242D01*
X170695176Y-118336198D01*
X170680522Y-118296496D01*
X170692111Y-118262199D01*
X170804622Y-118102112D01*
X170866726Y-117910975D01*
X170866727Y-117910974D01*
X170868387Y-117699515D01*
X170868387Y-117699512D01*
X170809292Y-117507421D01*
X170696330Y-117341201D01*
X170696328Y-117341200D01*
X170645345Y-117300355D01*
X170621747Y-117257430D01*
X170646134Y-117199837D01*
X170689059Y-117166541D01*
X170804622Y-117002111D01*
X170866726Y-116810975D01*
X170866727Y-116810974D01*
X170868387Y-116599515D01*
X170868387Y-116599512D01*
X170809292Y-116407421D01*
X170696330Y-116241201D01*
X170696327Y-116241199D01*
X170539482Y-116115541D01*
X170352621Y-116041558D01*
X170152265Y-116025789D01*
X169956126Y-116069631D01*
X169781558Y-116169204D01*
X169781555Y-116169206D01*
X169643979Y-116315708D01*
X169609925Y-116385222D01*
X169573182Y-116417615D01*
X169524295Y-116414540D01*
X169499518Y-116393039D01*
X169396330Y-116241201D01*
X169396327Y-116241199D01*
X169239482Y-116115541D01*
X169052621Y-116041558D01*
X168852265Y-116025789D01*
X168656126Y-116069631D01*
X168481558Y-116169204D01*
X168481555Y-116169206D01*
X168343979Y-116315708D01*
X168309925Y-116385222D01*
X168273182Y-116417615D01*
X168224295Y-116414540D01*
X168199518Y-116393039D01*
X168096330Y-116241201D01*
X168096327Y-116241199D01*
X167939482Y-116115541D01*
X167752621Y-116041558D01*
X167552265Y-116025789D01*
X167356126Y-116069631D01*
X167181558Y-116169204D01*
X167181555Y-116169206D01*
X167043979Y-116315708D01*
X167009925Y-116385222D01*
X166973182Y-116417615D01*
X166924295Y-116414540D01*
X166899518Y-116393039D01*
X166796330Y-116241201D01*
X166796327Y-116241199D01*
X166639482Y-116115541D01*
X166452621Y-116041558D01*
X166252265Y-116025789D01*
X166056126Y-116069631D01*
X165881558Y-116169204D01*
X165881555Y-116169206D01*
X165743979Y-116315708D01*
X165655561Y-116496192D01*
X165655560Y-116496197D01*
X165624122Y-116694692D01*
X146399538Y-116694692D01*
X146399696Y-115437764D01*
X146418447Y-115392512D01*
X146459677Y-115373898D01*
X146642610Y-115362388D01*
X146642618Y-115362387D01*
X146831073Y-115291176D01*
X146831073Y-115291175D01*
X146990266Y-115167692D01*
X147041571Y-115094692D01*
X164924122Y-115094692D01*
X164952440Y-115293665D01*
X165038010Y-115475508D01*
X165173267Y-115624155D01*
X165173270Y-115624157D01*
X165346252Y-115726458D01*
X165346258Y-115726461D01*
X165541681Y-115773378D01*
X165742261Y-115760758D01*
X165742260Y-115760758D01*
X165930257Y-115689720D01*
X165930258Y-115689719D01*
X166089059Y-115566541D01*
X166204622Y-115402111D01*
X166266726Y-115210975D01*
X166266727Y-115210974D01*
X166268387Y-114999515D01*
X166268387Y-114999512D01*
X166209292Y-114807421D01*
X166096330Y-114641201D01*
X166096327Y-114641199D01*
X165939482Y-114515541D01*
X165752621Y-114441558D01*
X165552265Y-114425789D01*
X165356126Y-114469631D01*
X165181558Y-114569204D01*
X165181555Y-114569206D01*
X165043979Y-114715708D01*
X164955561Y-114896192D01*
X164955560Y-114896197D01*
X164924122Y-115094692D01*
X147041571Y-115094692D01*
X147106114Y-115002857D01*
X147168371Y-114811249D01*
X147168372Y-114811247D01*
X147170037Y-114599267D01*
X147170037Y-114599264D01*
X147110795Y-114406699D01*
X146997555Y-114240069D01*
X146997552Y-114240067D01*
X146840320Y-114114099D01*
X146652997Y-114039933D01*
X146458859Y-114024654D01*
X146415214Y-114002416D01*
X146399880Y-113960843D01*
X146400063Y-112494692D01*
X164324122Y-112494692D01*
X164352440Y-112693665D01*
X164438010Y-112875508D01*
X164573267Y-113024155D01*
X164573270Y-113024157D01*
X164746252Y-113126458D01*
X164746257Y-113126461D01*
X164840781Y-113149154D01*
X164880409Y-113177946D01*
X164883314Y-113239542D01*
X164855561Y-113296192D01*
X164855560Y-113296197D01*
X164824122Y-113494692D01*
X164852440Y-113693665D01*
X164938010Y-113875508D01*
X165073267Y-114024155D01*
X165073270Y-114024157D01*
X165246252Y-114126458D01*
X165246258Y-114126461D01*
X165441681Y-114173378D01*
X165642261Y-114160758D01*
X165642260Y-114160758D01*
X165830257Y-114089720D01*
X165830258Y-114089719D01*
X165989059Y-113966541D01*
X166104622Y-113802111D01*
X166166726Y-113610975D01*
X166166727Y-113610974D01*
X166168387Y-113399515D01*
X166168387Y-113399512D01*
X166109292Y-113207421D01*
X165996330Y-113041201D01*
X165996327Y-113041199D01*
X165839482Y-112915541D01*
X165654617Y-112842348D01*
X165619441Y-112808259D01*
X165617309Y-112763065D01*
X165666726Y-112610975D01*
X165666727Y-112610974D01*
X165668387Y-112399515D01*
X165668387Y-112399512D01*
X165609292Y-112207421D01*
X165496330Y-112041201D01*
X165496327Y-112041199D01*
X165339482Y-111915541D01*
X165152621Y-111841558D01*
X164952265Y-111825789D01*
X164756126Y-111869631D01*
X164581558Y-111969204D01*
X164581555Y-111969206D01*
X164443979Y-112115708D01*
X164355561Y-112296192D01*
X164355560Y-112296197D01*
X164324122Y-112494692D01*
X146400063Y-112494692D01*
X146400392Y-109869367D01*
X146419143Y-109824115D01*
X146464400Y-109805375D01*
X146522301Y-109842124D01*
X146538011Y-109875509D01*
X146673267Y-110024155D01*
X146673270Y-110024157D01*
X146846252Y-110126458D01*
X146846258Y-110126461D01*
X147041681Y-110173378D01*
X147242261Y-110160758D01*
X147242260Y-110160758D01*
X147430257Y-110089720D01*
X147430258Y-110089719D01*
X147589059Y-109966541D01*
X147704622Y-109802111D01*
X147766726Y-109610975D01*
X147766727Y-109610974D01*
X147768387Y-109399515D01*
X147768387Y-109399512D01*
X147709292Y-109207421D01*
X147700642Y-109194692D01*
X161124122Y-109194692D01*
X161152440Y-109393665D01*
X161238010Y-109575508D01*
X161373267Y-109724155D01*
X161373270Y-109724157D01*
X161546252Y-109826458D01*
X161546258Y-109826461D01*
X161741681Y-109873378D01*
X161942261Y-109860758D01*
X161942260Y-109860758D01*
X162130257Y-109789720D01*
X162130258Y-109789719D01*
X162289059Y-109666541D01*
X162404622Y-109502111D01*
X162466726Y-109310975D01*
X162466727Y-109310974D01*
X162468387Y-109099515D01*
X162468387Y-109099512D01*
X162409292Y-108907421D01*
X162296330Y-108741201D01*
X162296327Y-108741199D01*
X162139482Y-108615541D01*
X161952621Y-108541558D01*
X161752265Y-108525789D01*
X161556126Y-108569631D01*
X161381558Y-108669204D01*
X161381555Y-108669206D01*
X161243979Y-108815708D01*
X161155561Y-108996192D01*
X161155560Y-108996197D01*
X161124122Y-109194692D01*
X147700642Y-109194692D01*
X147596330Y-109041201D01*
X147596327Y-109041199D01*
X147439482Y-108915541D01*
X147252621Y-108841558D01*
X147052265Y-108825789D01*
X146856126Y-108869631D01*
X146681558Y-108969204D01*
X146681555Y-108969206D01*
X146543979Y-109115708D01*
X146521959Y-109160658D01*
X146485216Y-109193051D01*
X146436329Y-109189976D01*
X146400485Y-109132494D01*
X146400751Y-106994692D01*
X161124122Y-106994692D01*
X161152440Y-107193665D01*
X161238010Y-107375508D01*
X161373267Y-107524155D01*
X161373270Y-107524157D01*
X161546252Y-107626458D01*
X161546258Y-107626461D01*
X161741681Y-107673378D01*
X161942261Y-107660758D01*
X161942260Y-107660758D01*
X162130257Y-107589720D01*
X162130258Y-107589719D01*
X162289059Y-107466541D01*
X162404622Y-107302111D01*
X162439528Y-107194679D01*
X167122454Y-107194679D01*
X167150842Y-107394143D01*
X167236622Y-107576433D01*
X167372217Y-107725450D01*
X167545628Y-107828006D01*
X167545632Y-107828007D01*
X167741537Y-107875040D01*
X167942610Y-107862388D01*
X167942618Y-107862387D01*
X168131073Y-107791176D01*
X168131073Y-107791175D01*
X168290267Y-107667691D01*
X168290270Y-107667688D01*
X168301693Y-107651435D01*
X168343051Y-107625189D01*
X168401390Y-107645163D01*
X168473266Y-107724154D01*
X168473270Y-107724157D01*
X168646252Y-107826458D01*
X168646258Y-107826461D01*
X168841681Y-107873378D01*
X169042261Y-107860758D01*
X169042260Y-107860758D01*
X169230257Y-107789720D01*
X169230258Y-107789719D01*
X169389059Y-107666541D01*
X169400554Y-107650185D01*
X169441912Y-107623938D01*
X169500253Y-107643912D01*
X169573270Y-107724157D01*
X169746252Y-107826458D01*
X169746258Y-107826461D01*
X169941681Y-107873378D01*
X170142261Y-107860758D01*
X170142260Y-107860758D01*
X170330257Y-107789720D01*
X170330258Y-107789719D01*
X170489059Y-107666541D01*
X170604622Y-107502111D01*
X170666726Y-107310975D01*
X170666727Y-107310974D01*
X170668387Y-107099515D01*
X170668387Y-107099512D01*
X170609292Y-106907421D01*
X170496330Y-106741201D01*
X170496327Y-106741199D01*
X170453143Y-106706601D01*
X171987032Y-106706601D01*
X172019635Y-106972144D01*
X172019636Y-106972149D01*
X172091130Y-107229948D01*
X172091133Y-107229958D01*
X172199948Y-107474358D01*
X172199953Y-107474368D01*
X172343697Y-107700001D01*
X172343702Y-107700008D01*
X172519219Y-107901916D01*
X172519221Y-107901918D01*
X172722662Y-108075673D01*
X172949547Y-108217445D01*
X173194897Y-108324127D01*
X173453310Y-108393368D01*
X173719141Y-108423655D01*
X173986506Y-108414318D01*
X173986519Y-108414317D01*
X174249563Y-108365565D01*
X174502524Y-108278464D01*
X174739845Y-108154923D01*
X174739847Y-108154922D01*
X174956278Y-107997675D01*
X174956281Y-107997672D01*
X175147100Y-107810156D01*
X175147111Y-107810144D01*
X175308111Y-107596489D01*
X175308118Y-107596479D01*
X175435773Y-107361366D01*
X175527276Y-107109968D01*
X175527279Y-107109958D01*
X175580616Y-106847795D01*
X175580616Y-106847792D01*
X175590083Y-106486234D01*
X175590082Y-106486228D01*
X175550539Y-106221630D01*
X175550537Y-106221623D01*
X175472318Y-105965782D01*
X175472318Y-105965781D01*
X175357141Y-105724307D01*
X175357137Y-105724301D01*
X175207540Y-105502514D01*
X175207531Y-105502503D01*
X175026783Y-105305251D01*
X174818881Y-105136896D01*
X174818862Y-105136883D01*
X174588358Y-105001106D01*
X174340294Y-104900882D01*
X174080138Y-104838423D01*
X173813627Y-104815108D01*
X173546591Y-104831440D01*
X173546579Y-104831441D01*
X173284907Y-104887062D01*
X173284887Y-104887068D01*
X173034302Y-104980758D01*
X173034298Y-104980760D01*
X172800305Y-105110465D01*
X172588053Y-105273331D01*
X172402204Y-105465784D01*
X172246848Y-105683584D01*
X172246840Y-105683597D01*
X172125388Y-105921959D01*
X172125386Y-105921964D01*
X172040494Y-106175681D01*
X171994035Y-106439159D01*
X171994035Y-106439161D01*
X171987032Y-106706601D01*
X170453143Y-106706601D01*
X170339482Y-106615541D01*
X170183406Y-106553746D01*
X170148230Y-106519657D01*
X170146098Y-106474463D01*
X170166726Y-106410975D01*
X170166727Y-106410974D01*
X170168387Y-106199515D01*
X170168387Y-106199512D01*
X170109292Y-106007421D01*
X169996330Y-105841201D01*
X169996327Y-105841199D01*
X169839482Y-105715541D01*
X169652621Y-105641558D01*
X169452265Y-105625789D01*
X169256126Y-105669631D01*
X169081558Y-105769204D01*
X169081555Y-105769206D01*
X168943979Y-105915708D01*
X168855561Y-106096192D01*
X168855560Y-106096197D01*
X168824122Y-106294692D01*
X168848530Y-106466189D01*
X168836348Y-106513634D01*
X168799129Y-106537666D01*
X168656126Y-106569631D01*
X168481558Y-106669204D01*
X168481555Y-106669206D01*
X168401553Y-106754399D01*
X168356909Y-106774556D01*
X168301965Y-106746560D01*
X168297553Y-106740067D01*
X168297552Y-106740067D01*
X168140320Y-106614099D01*
X167952997Y-106539933D01*
X167752147Y-106524125D01*
X167555523Y-106568076D01*
X167555521Y-106568077D01*
X167380527Y-106667892D01*
X167380522Y-106667896D01*
X167242606Y-106814761D01*
X167153971Y-106995689D01*
X167153970Y-106995693D01*
X167122454Y-107194679D01*
X162439528Y-107194679D01*
X162466726Y-107110975D01*
X162466727Y-107110974D01*
X162468387Y-106899515D01*
X162468387Y-106899512D01*
X162409292Y-106707421D01*
X162296330Y-106541201D01*
X162296327Y-106541199D01*
X162139482Y-106415541D01*
X161952621Y-106341558D01*
X161752265Y-106325789D01*
X161556126Y-106369631D01*
X161381558Y-106469204D01*
X161381555Y-106469206D01*
X161243979Y-106615708D01*
X161155561Y-106796192D01*
X161155560Y-106796197D01*
X161124122Y-106994692D01*
X146400751Y-106994692D01*
X146400782Y-106752624D01*
X146419533Y-106707372D01*
X146464790Y-106688632D01*
X146497360Y-106697544D01*
X146546254Y-106726459D01*
X146546258Y-106726461D01*
X146741681Y-106773378D01*
X146942261Y-106760758D01*
X146942260Y-106760758D01*
X147130257Y-106689720D01*
X147130258Y-106689719D01*
X147289059Y-106566541D01*
X147404622Y-106402111D01*
X147466726Y-106210975D01*
X147466727Y-106210974D01*
X147467639Y-106094692D01*
X149524122Y-106094692D01*
X149552440Y-106293665D01*
X149638010Y-106475508D01*
X149773267Y-106624155D01*
X149773270Y-106624157D01*
X149946252Y-106726458D01*
X149946258Y-106726461D01*
X150141681Y-106773378D01*
X150342261Y-106760758D01*
X150342260Y-106760758D01*
X150530257Y-106689720D01*
X150530258Y-106689719D01*
X150689059Y-106566541D01*
X150804622Y-106402111D01*
X150866726Y-106210975D01*
X150866727Y-106210974D01*
X150868387Y-105999515D01*
X150868387Y-105999512D01*
X150809292Y-105807421D01*
X150696330Y-105641201D01*
X150696327Y-105641199D01*
X150539482Y-105515541D01*
X150352621Y-105441558D01*
X150152265Y-105425789D01*
X149956126Y-105469631D01*
X149781558Y-105569204D01*
X149781555Y-105569206D01*
X149643979Y-105715708D01*
X149555561Y-105896192D01*
X149555560Y-105896197D01*
X149524122Y-106094692D01*
X147467639Y-106094692D01*
X147468387Y-105999515D01*
X147468387Y-105999512D01*
X147409292Y-105807421D01*
X147296330Y-105641201D01*
X147296327Y-105641199D01*
X147139482Y-105515541D01*
X146952621Y-105441558D01*
X146752265Y-105425789D01*
X146556126Y-105469631D01*
X146496656Y-105503552D01*
X146448058Y-105509692D01*
X146409354Y-105479670D01*
X146400946Y-105447952D01*
X146400995Y-105052750D01*
X146419746Y-105007498D01*
X146465003Y-104988758D01*
X146497573Y-104997670D01*
X146546254Y-105026459D01*
X146546258Y-105026461D01*
X146741681Y-105073378D01*
X146942261Y-105060758D01*
X146942260Y-105060758D01*
X147130257Y-104989720D01*
X147130258Y-104989719D01*
X147289059Y-104866541D01*
X147404622Y-104702111D01*
X147466726Y-104510975D01*
X147466727Y-104510974D01*
X147467639Y-104394692D01*
X147824122Y-104394692D01*
X147852440Y-104593665D01*
X147938010Y-104775508D01*
X148073267Y-104924155D01*
X148073270Y-104924157D01*
X148246252Y-105026458D01*
X148246258Y-105026461D01*
X148441681Y-105073378D01*
X148642261Y-105060758D01*
X148642260Y-105060758D01*
X148830257Y-104989720D01*
X148830258Y-104989719D01*
X148989059Y-104866541D01*
X149104622Y-104702111D01*
X149166726Y-104510975D01*
X149166727Y-104510974D01*
X149167639Y-104394692D01*
X149524122Y-104394692D01*
X149552440Y-104593665D01*
X149638010Y-104775508D01*
X149773267Y-104924155D01*
X149773270Y-104924157D01*
X149946252Y-105026458D01*
X149946258Y-105026461D01*
X150141681Y-105073378D01*
X150342261Y-105060758D01*
X150342260Y-105060758D01*
X150530257Y-104989720D01*
X150530258Y-104989719D01*
X150689059Y-104866541D01*
X150804622Y-104702111D01*
X150866726Y-104510975D01*
X150866727Y-104510974D01*
X150866854Y-104494692D01*
X159224122Y-104494692D01*
X159252440Y-104693665D01*
X159338010Y-104875508D01*
X159473267Y-105024155D01*
X159473270Y-105024157D01*
X159646252Y-105126458D01*
X159646258Y-105126461D01*
X159841681Y-105173378D01*
X160042261Y-105160758D01*
X160042260Y-105160758D01*
X160230257Y-105089720D01*
X160230258Y-105089719D01*
X160389059Y-104966541D01*
X160504622Y-104802111D01*
X160566726Y-104610975D01*
X160566727Y-104610974D01*
X160567639Y-104494692D01*
X161124122Y-104494692D01*
X161152440Y-104693665D01*
X161238010Y-104875508D01*
X161373267Y-105024155D01*
X161373270Y-105024157D01*
X161546252Y-105126458D01*
X161546258Y-105126461D01*
X161741681Y-105173378D01*
X161942261Y-105160758D01*
X161942260Y-105160758D01*
X162130257Y-105089720D01*
X162130258Y-105089719D01*
X162289059Y-104966541D01*
X162404622Y-104802111D01*
X162466726Y-104610975D01*
X162466727Y-104610974D01*
X162468387Y-104399515D01*
X162468387Y-104399512D01*
X162409292Y-104207421D01*
X162296330Y-104041201D01*
X162296327Y-104041199D01*
X162139482Y-103915541D01*
X161952621Y-103841558D01*
X161752265Y-103825789D01*
X161556126Y-103869631D01*
X161381558Y-103969204D01*
X161381555Y-103969206D01*
X161243979Y-104115708D01*
X161155561Y-104296192D01*
X161155560Y-104296197D01*
X161124122Y-104494692D01*
X160567639Y-104494692D01*
X160568387Y-104399515D01*
X160568387Y-104399512D01*
X160509292Y-104207421D01*
X160396330Y-104041201D01*
X160396327Y-104041199D01*
X160239482Y-103915541D01*
X160052621Y-103841558D01*
X159852265Y-103825789D01*
X159656126Y-103869631D01*
X159481558Y-103969204D01*
X159481555Y-103969206D01*
X159343979Y-104115708D01*
X159255561Y-104296192D01*
X159255560Y-104296197D01*
X159224122Y-104494692D01*
X150866854Y-104494692D01*
X150868387Y-104299515D01*
X150868387Y-104299512D01*
X150809292Y-104107421D01*
X150696330Y-103941201D01*
X150696327Y-103941199D01*
X150539482Y-103815541D01*
X150352621Y-103741558D01*
X150152265Y-103725789D01*
X149956126Y-103769631D01*
X149781558Y-103869204D01*
X149781555Y-103869206D01*
X149643979Y-104015708D01*
X149555561Y-104196192D01*
X149555560Y-104196197D01*
X149524122Y-104394692D01*
X149167639Y-104394692D01*
X149168387Y-104299515D01*
X149168387Y-104299512D01*
X149109292Y-104107421D01*
X148996330Y-103941201D01*
X148996327Y-103941199D01*
X148839482Y-103815541D01*
X148652621Y-103741558D01*
X148452265Y-103725789D01*
X148256126Y-103769631D01*
X148081558Y-103869204D01*
X148081555Y-103869206D01*
X147943979Y-104015708D01*
X147855561Y-104196192D01*
X147855560Y-104196197D01*
X147824122Y-104394692D01*
X147467639Y-104394692D01*
X147468387Y-104299515D01*
X147468387Y-104299512D01*
X147409292Y-104107421D01*
X147296330Y-103941201D01*
X147296327Y-103941199D01*
X147139482Y-103815541D01*
X146952621Y-103741558D01*
X146752265Y-103725789D01*
X146556126Y-103769631D01*
X146496869Y-103803431D01*
X146448272Y-103809571D01*
X146409567Y-103779549D01*
X146401159Y-103747831D01*
X146401352Y-102200051D01*
X146381774Y-102076390D01*
X146324961Y-101964889D01*
X146236463Y-101876391D01*
X146124962Y-101819578D01*
X146124956Y-101819577D01*
X146001350Y-101800000D01*
X131800002Y-101800000D01*
X131676396Y-101819577D01*
X131676390Y-101819578D01*
X131564889Y-101876391D01*
X131476391Y-101964889D01*
X131419578Y-102076390D01*
X131419577Y-102076396D01*
X131400000Y-102200002D01*
X131400000Y-102832859D01*
X131381255Y-102878114D01*
X131336000Y-102896859D01*
X131283067Y-102868832D01*
X131196330Y-102741201D01*
X131196327Y-102741199D01*
X131039482Y-102615541D01*
X130852621Y-102541558D01*
X130652265Y-102525789D01*
X130456126Y-102569631D01*
X130281558Y-102669204D01*
X130281555Y-102669206D01*
X130143979Y-102815708D01*
X130055561Y-102996192D01*
X130055560Y-102996197D01*
X130024122Y-103194692D01*
X129767639Y-103194692D01*
X129768387Y-103099515D01*
X129768387Y-103099512D01*
X129709292Y-102907421D01*
X129596330Y-102741201D01*
X129596327Y-102741199D01*
X129439482Y-102615541D01*
X129252621Y-102541558D01*
X129052265Y-102525789D01*
X128856126Y-102569631D01*
X128681558Y-102669204D01*
X128681555Y-102669206D01*
X128543979Y-102815708D01*
X128455561Y-102996192D01*
X128455560Y-102996197D01*
X128424122Y-103194692D01*
X118800000Y-103194692D01*
X118800000Y-100794679D01*
X158322454Y-100794679D01*
X158350842Y-100994143D01*
X158436622Y-101176433D01*
X158572217Y-101325450D01*
X158745628Y-101428006D01*
X158745632Y-101428007D01*
X158941537Y-101475040D01*
X159142610Y-101462388D01*
X159142618Y-101462387D01*
X159331073Y-101391176D01*
X159331073Y-101391175D01*
X159490266Y-101267692D01*
X159606114Y-101102857D01*
X159668371Y-100911249D01*
X159668372Y-100911247D01*
X159669287Y-100794692D01*
X163624122Y-100794692D01*
X163652440Y-100993665D01*
X163738010Y-101175508D01*
X163873267Y-101324155D01*
X163873270Y-101324157D01*
X164046252Y-101426458D01*
X164046258Y-101426461D01*
X164241681Y-101473378D01*
X164442261Y-101460758D01*
X164442260Y-101460758D01*
X164630257Y-101389720D01*
X164630258Y-101389719D01*
X164789059Y-101266541D01*
X164904622Y-101102111D01*
X164966726Y-100910975D01*
X164966727Y-100910974D01*
X164968387Y-100699515D01*
X164968387Y-100699512D01*
X164936137Y-100594679D01*
X170922454Y-100594679D01*
X170950842Y-100794143D01*
X171036622Y-100976433D01*
X171172217Y-101125450D01*
X171345628Y-101228006D01*
X171345632Y-101228007D01*
X171541537Y-101275040D01*
X171742610Y-101262388D01*
X171742618Y-101262387D01*
X171931073Y-101191176D01*
X171931073Y-101191175D01*
X172090266Y-101067692D01*
X172206114Y-100902857D01*
X172268371Y-100711249D01*
X172268372Y-100711247D01*
X172269287Y-100594679D01*
X172522454Y-100594679D01*
X172550842Y-100794143D01*
X172636622Y-100976433D01*
X172772217Y-101125450D01*
X172945628Y-101228006D01*
X172945632Y-101228007D01*
X173141537Y-101275040D01*
X173342610Y-101262388D01*
X173342618Y-101262387D01*
X173531073Y-101191176D01*
X173531073Y-101191175D01*
X173690266Y-101067692D01*
X173806114Y-100902857D01*
X173868371Y-100711249D01*
X173868372Y-100711247D01*
X173870037Y-100499267D01*
X173870037Y-100499264D01*
X173810795Y-100306699D01*
X173697555Y-100140069D01*
X173697552Y-100140067D01*
X173540320Y-100014099D01*
X173352997Y-99939933D01*
X173152147Y-99924125D01*
X172955523Y-99968076D01*
X172955521Y-99968077D01*
X172780527Y-100067892D01*
X172780522Y-100067896D01*
X172642606Y-100214761D01*
X172553971Y-100395689D01*
X172553970Y-100395693D01*
X172522454Y-100594679D01*
X172269287Y-100594679D01*
X172270037Y-100499267D01*
X172270037Y-100499264D01*
X172210795Y-100306699D01*
X172097555Y-100140069D01*
X172097552Y-100140067D01*
X171940320Y-100014099D01*
X171752997Y-99939933D01*
X171552147Y-99924125D01*
X171355523Y-99968076D01*
X171355521Y-99968077D01*
X171180527Y-100067892D01*
X171180522Y-100067896D01*
X171042606Y-100214761D01*
X170953971Y-100395689D01*
X170953970Y-100395693D01*
X170922454Y-100594679D01*
X164936137Y-100594679D01*
X164909292Y-100507421D01*
X164796330Y-100341201D01*
X164796327Y-100341199D01*
X164639482Y-100215541D01*
X164452621Y-100141558D01*
X164252265Y-100125789D01*
X164056126Y-100169631D01*
X163881558Y-100269204D01*
X163881555Y-100269206D01*
X163743979Y-100415708D01*
X163655561Y-100596192D01*
X163655560Y-100596197D01*
X163624122Y-100794692D01*
X159669287Y-100794692D01*
X159670037Y-100699267D01*
X159670037Y-100699264D01*
X159610795Y-100506699D01*
X159497555Y-100340069D01*
X159497552Y-100340067D01*
X159340320Y-100214099D01*
X159152997Y-100139933D01*
X158952147Y-100124125D01*
X158755523Y-100168076D01*
X158755521Y-100168077D01*
X158580527Y-100267892D01*
X158580522Y-100267896D01*
X158442606Y-100414761D01*
X158353971Y-100595689D01*
X158353970Y-100595693D01*
X158322454Y-100794679D01*
X118800000Y-100794679D01*
X118800000Y-99794692D01*
X140824122Y-99794692D01*
X140852440Y-99993665D01*
X140938010Y-100175508D01*
X141073267Y-100324155D01*
X141073270Y-100324157D01*
X141246252Y-100426458D01*
X141246258Y-100426461D01*
X141441681Y-100473378D01*
X141642261Y-100460758D01*
X141642260Y-100460758D01*
X141830257Y-100389720D01*
X141830258Y-100389719D01*
X141989059Y-100266541D01*
X142104622Y-100102111D01*
X142107032Y-100094692D01*
X145524122Y-100094692D01*
X145552440Y-100293665D01*
X145638010Y-100475508D01*
X145773267Y-100624155D01*
X145773270Y-100624157D01*
X145946252Y-100726458D01*
X145946258Y-100726461D01*
X146141681Y-100773378D01*
X146342261Y-100760758D01*
X146342260Y-100760758D01*
X146530257Y-100689720D01*
X146530258Y-100689719D01*
X146689059Y-100566541D01*
X146804622Y-100402111D01*
X146866726Y-100210975D01*
X146866727Y-100210974D01*
X146867639Y-100094679D01*
X147222454Y-100094679D01*
X147250842Y-100294143D01*
X147336622Y-100476433D01*
X147472217Y-100625450D01*
X147645628Y-100728006D01*
X147645632Y-100728007D01*
X147841537Y-100775040D01*
X148042610Y-100762388D01*
X148042618Y-100762387D01*
X148231073Y-100691176D01*
X148231073Y-100691175D01*
X148390266Y-100567692D01*
X148506114Y-100402857D01*
X148568371Y-100211249D01*
X148568372Y-100211247D01*
X148570037Y-99999267D01*
X148570037Y-99999264D01*
X148510795Y-99806699D01*
X148397555Y-99640069D01*
X148397552Y-99640067D01*
X148240320Y-99514099D01*
X148052997Y-99439933D01*
X147852147Y-99424125D01*
X147655523Y-99468076D01*
X147655521Y-99468077D01*
X147480527Y-99567892D01*
X147480522Y-99567896D01*
X147342606Y-99714761D01*
X147253971Y-99895689D01*
X147253970Y-99895693D01*
X147222454Y-100094679D01*
X146867639Y-100094679D01*
X146868387Y-99999515D01*
X146868387Y-99999512D01*
X146809292Y-99807421D01*
X146696330Y-99641201D01*
X146696327Y-99641199D01*
X146539482Y-99515541D01*
X146352621Y-99441558D01*
X146152265Y-99425789D01*
X145956126Y-99469631D01*
X145781558Y-99569204D01*
X145781555Y-99569206D01*
X145643979Y-99715708D01*
X145555561Y-99896192D01*
X145555560Y-99896197D01*
X145524122Y-100094692D01*
X142107032Y-100094692D01*
X142166726Y-99910975D01*
X142166727Y-99910974D01*
X142168387Y-99699515D01*
X142168387Y-99699512D01*
X142109292Y-99507421D01*
X141996330Y-99341201D01*
X141996327Y-99341199D01*
X141839482Y-99215541D01*
X141652621Y-99141558D01*
X141452265Y-99125789D01*
X141256126Y-99169631D01*
X141081558Y-99269204D01*
X141081555Y-99269206D01*
X140943979Y-99415708D01*
X140855561Y-99596192D01*
X140855560Y-99596197D01*
X140824122Y-99794692D01*
X118800000Y-99794692D01*
X118800000Y-98294692D01*
X124324122Y-98294692D01*
X124352440Y-98493665D01*
X124438010Y-98675508D01*
X124573267Y-98824155D01*
X124573270Y-98824157D01*
X124746252Y-98926458D01*
X124746258Y-98926461D01*
X124941681Y-98973378D01*
X125142261Y-98960758D01*
X125142260Y-98960758D01*
X125330257Y-98889720D01*
X125330258Y-98889719D01*
X125489059Y-98766541D01*
X125604622Y-98602111D01*
X125666726Y-98410975D01*
X125666727Y-98410974D01*
X125668387Y-98199515D01*
X125668387Y-98199512D01*
X125609292Y-98007421D01*
X125496330Y-97841201D01*
X125496327Y-97841199D01*
X125438262Y-97794679D01*
X141722454Y-97794679D01*
X141750842Y-97994143D01*
X141836622Y-98176433D01*
X141972217Y-98325450D01*
X142145628Y-98428006D01*
X142145632Y-98428007D01*
X142341537Y-98475040D01*
X142542610Y-98462388D01*
X142565374Y-98453786D01*
X142614333Y-98455324D01*
X142647865Y-98491031D01*
X142651209Y-98523665D01*
X142624122Y-98694692D01*
X142652440Y-98893665D01*
X142738010Y-99075508D01*
X142873267Y-99224155D01*
X142873270Y-99224157D01*
X143046252Y-99326458D01*
X143046258Y-99326461D01*
X143241681Y-99373378D01*
X143442261Y-99360758D01*
X143442260Y-99360758D01*
X143630257Y-99289720D01*
X143630258Y-99289719D01*
X143789059Y-99166541D01*
X143904622Y-99002111D01*
X143907036Y-98994679D01*
X170922454Y-98994679D01*
X170950842Y-99194143D01*
X171036622Y-99376433D01*
X171172217Y-99525450D01*
X171345628Y-99628006D01*
X171345632Y-99628007D01*
X171541537Y-99675040D01*
X171742610Y-99662388D01*
X171742618Y-99662387D01*
X171931073Y-99591176D01*
X171931073Y-99591175D01*
X172090266Y-99467692D01*
X172206114Y-99302857D01*
X172268371Y-99111249D01*
X172268372Y-99111247D01*
X172270037Y-98899267D01*
X172270037Y-98899264D01*
X172210795Y-98706699D01*
X172097555Y-98540069D01*
X172094306Y-98536555D01*
X172096350Y-98534665D01*
X172077111Y-98499675D01*
X172090774Y-98452636D01*
X172155664Y-98430416D01*
X172341536Y-98475040D01*
X172542610Y-98462388D01*
X172542618Y-98462387D01*
X172731073Y-98391176D01*
X172731073Y-98391175D01*
X172890266Y-98267692D01*
X173006114Y-98102857D01*
X173068371Y-97911249D01*
X173068372Y-97911247D01*
X173070037Y-97699267D01*
X173070037Y-97699264D01*
X173010795Y-97506699D01*
X172897555Y-97340069D01*
X172897552Y-97340067D01*
X172740320Y-97214099D01*
X172552997Y-97139933D01*
X172352147Y-97124125D01*
X172155523Y-97168076D01*
X172155521Y-97168077D01*
X171980527Y-97267892D01*
X171980522Y-97267896D01*
X171842606Y-97414761D01*
X171753971Y-97595689D01*
X171753970Y-97595693D01*
X171722454Y-97794679D01*
X171750842Y-97994143D01*
X171836623Y-98176433D01*
X171930441Y-98279539D01*
X171947033Y-98325627D01*
X171926177Y-98369949D01*
X171859544Y-98382118D01*
X171752997Y-98339933D01*
X171552147Y-98324125D01*
X171355523Y-98368076D01*
X171355521Y-98368077D01*
X171180527Y-98467892D01*
X171180522Y-98467896D01*
X171042606Y-98614761D01*
X170953971Y-98795689D01*
X170953970Y-98795693D01*
X170922454Y-98994679D01*
X143907036Y-98994679D01*
X143966726Y-98810975D01*
X143966727Y-98810973D01*
X143968138Y-98631311D01*
X143987238Y-98586205D01*
X144028117Y-98567940D01*
X144142261Y-98560758D01*
X144142260Y-98560758D01*
X144330257Y-98489720D01*
X144330258Y-98489719D01*
X144489059Y-98366541D01*
X144539564Y-98294679D01*
X165522454Y-98294679D01*
X165550842Y-98494143D01*
X165636622Y-98676433D01*
X165772217Y-98825450D01*
X165945628Y-98928006D01*
X165945632Y-98928007D01*
X166141537Y-98975040D01*
X166342610Y-98962388D01*
X166342618Y-98962387D01*
X166531073Y-98891176D01*
X166531073Y-98891175D01*
X166690266Y-98767692D01*
X166806114Y-98602857D01*
X166868371Y-98411249D01*
X166868372Y-98411247D01*
X166870037Y-98199267D01*
X166870037Y-98199264D01*
X166810795Y-98006699D01*
X166697555Y-97840069D01*
X166697552Y-97840067D01*
X166540320Y-97714099D01*
X166352997Y-97639933D01*
X166152147Y-97624125D01*
X165955523Y-97668076D01*
X165955521Y-97668077D01*
X165780527Y-97767892D01*
X165780522Y-97767896D01*
X165642606Y-97914761D01*
X165553971Y-98095689D01*
X165553970Y-98095693D01*
X165522454Y-98294679D01*
X144539564Y-98294679D01*
X144604622Y-98202111D01*
X144666726Y-98010975D01*
X144666727Y-98010974D01*
X144668387Y-97799515D01*
X144668387Y-97799512D01*
X144609292Y-97607421D01*
X144600642Y-97594692D01*
X144824122Y-97594692D01*
X144852440Y-97793665D01*
X144938010Y-97975508D01*
X145073267Y-98124155D01*
X145073270Y-98124157D01*
X145246252Y-98226458D01*
X145246258Y-98226461D01*
X145441681Y-98273378D01*
X145642261Y-98260758D01*
X145642260Y-98260758D01*
X145830257Y-98189720D01*
X145830258Y-98189719D01*
X145989059Y-98066541D01*
X146104622Y-97902111D01*
X146166726Y-97710975D01*
X146166727Y-97710974D01*
X146168387Y-97499515D01*
X146168387Y-97499512D01*
X146166905Y-97494692D01*
X147824122Y-97494692D01*
X147852440Y-97693665D01*
X147938010Y-97875508D01*
X148073267Y-98024155D01*
X148073270Y-98024157D01*
X148246252Y-98126458D01*
X148246258Y-98126461D01*
X148441681Y-98173378D01*
X148642261Y-98160758D01*
X148642260Y-98160758D01*
X148830257Y-98089720D01*
X148830258Y-98089719D01*
X148989059Y-97966541D01*
X149104622Y-97802111D01*
X149166726Y-97610975D01*
X149166727Y-97610974D01*
X149168387Y-97399515D01*
X149168387Y-97399512D01*
X149109292Y-97207421D01*
X149100642Y-97194692D01*
X149724122Y-97194692D01*
X149752440Y-97393665D01*
X149838010Y-97575508D01*
X149973267Y-97724155D01*
X149973270Y-97724157D01*
X150146252Y-97826458D01*
X150146258Y-97826461D01*
X150341681Y-97873378D01*
X150542261Y-97860758D01*
X150542260Y-97860758D01*
X150730257Y-97789720D01*
X150730258Y-97789719D01*
X150889059Y-97666541D01*
X151004622Y-97502111D01*
X151066726Y-97310975D01*
X151066727Y-97310974D01*
X151068387Y-97099515D01*
X151068387Y-97099512D01*
X151009292Y-96907421D01*
X150896330Y-96741201D01*
X150896327Y-96741199D01*
X150739482Y-96615541D01*
X150552621Y-96541558D01*
X150352265Y-96525789D01*
X150156126Y-96569631D01*
X149981558Y-96669204D01*
X149981555Y-96669206D01*
X149843979Y-96815708D01*
X149755561Y-96996192D01*
X149755560Y-96996197D01*
X149724122Y-97194692D01*
X149100642Y-97194692D01*
X148996330Y-97041201D01*
X148996327Y-97041199D01*
X148839482Y-96915541D01*
X148652621Y-96841558D01*
X148452265Y-96825789D01*
X148256126Y-96869631D01*
X148081558Y-96969204D01*
X148081555Y-96969206D01*
X147943979Y-97115708D01*
X147855561Y-97296192D01*
X147855560Y-97296197D01*
X147824122Y-97494692D01*
X146166905Y-97494692D01*
X146109292Y-97307421D01*
X145996330Y-97141201D01*
X145996327Y-97141199D01*
X145839482Y-97015541D01*
X145652621Y-96941558D01*
X145452265Y-96925789D01*
X145256126Y-96969631D01*
X145081558Y-97069204D01*
X145081555Y-97069206D01*
X144943979Y-97215708D01*
X144855561Y-97396192D01*
X144855560Y-97396197D01*
X144824122Y-97594692D01*
X144600642Y-97594692D01*
X144496330Y-97441201D01*
X144496327Y-97441199D01*
X144339482Y-97315541D01*
X144152621Y-97241558D01*
X143952265Y-97225789D01*
X143756126Y-97269631D01*
X143581558Y-97369204D01*
X143581555Y-97369206D01*
X143443979Y-97515708D01*
X143355561Y-97696192D01*
X143355560Y-97696197D01*
X143324122Y-97894693D01*
X143332549Y-97953906D01*
X143320367Y-98001350D01*
X143264166Y-98026726D01*
X143252265Y-98025789D01*
X143123341Y-98054607D01*
X143075087Y-98046185D01*
X143046921Y-98006109D01*
X143048512Y-97972371D01*
X143068371Y-97911249D01*
X143068372Y-97911247D01*
X143070037Y-97699267D01*
X143070037Y-97699264D01*
X143010795Y-97506699D01*
X142897555Y-97340069D01*
X142897552Y-97340067D01*
X142740320Y-97214099D01*
X142552997Y-97139933D01*
X142352147Y-97124125D01*
X142155523Y-97168076D01*
X142155521Y-97168077D01*
X141980527Y-97267892D01*
X141980522Y-97267896D01*
X141842606Y-97414761D01*
X141753971Y-97595689D01*
X141753970Y-97595693D01*
X141722454Y-97794679D01*
X125438262Y-97794679D01*
X125339482Y-97715541D01*
X125152621Y-97641558D01*
X124952265Y-97625789D01*
X124756126Y-97669631D01*
X124581558Y-97769204D01*
X124581555Y-97769206D01*
X124443979Y-97915708D01*
X124355561Y-98096192D01*
X124355560Y-98096197D01*
X124324122Y-98294692D01*
X118800000Y-98294692D01*
X118800000Y-96794692D01*
X119924122Y-96794692D01*
X119952440Y-96993665D01*
X120038010Y-97175508D01*
X120173267Y-97324155D01*
X120173270Y-97324157D01*
X120346252Y-97426458D01*
X120346258Y-97426461D01*
X120541681Y-97473378D01*
X120742261Y-97460758D01*
X120742260Y-97460758D01*
X120930257Y-97389720D01*
X120930258Y-97389719D01*
X121089059Y-97266541D01*
X121204622Y-97102111D01*
X121266726Y-96910975D01*
X121266727Y-96910974D01*
X121266854Y-96894692D01*
X125224122Y-96894692D01*
X125252440Y-97093665D01*
X125338010Y-97275508D01*
X125473267Y-97424155D01*
X125473270Y-97424157D01*
X125646252Y-97526458D01*
X125646258Y-97526461D01*
X125841681Y-97573378D01*
X126042261Y-97560758D01*
X126042260Y-97560758D01*
X126230257Y-97489720D01*
X126230258Y-97489719D01*
X126389059Y-97366541D01*
X126504622Y-97202111D01*
X126566726Y-97010975D01*
X126566727Y-97010974D01*
X126567639Y-96894692D01*
X127124122Y-96894692D01*
X127152440Y-97093665D01*
X127238010Y-97275508D01*
X127373267Y-97424155D01*
X127373270Y-97424157D01*
X127546252Y-97526458D01*
X127546258Y-97526461D01*
X127741681Y-97573378D01*
X127942261Y-97560758D01*
X127942260Y-97560758D01*
X128130257Y-97489720D01*
X128130258Y-97489719D01*
X128289059Y-97366541D01*
X128404622Y-97202111D01*
X128466726Y-97010975D01*
X128466727Y-97010974D01*
X128468387Y-96799515D01*
X128468387Y-96799512D01*
X128409292Y-96607421D01*
X128296330Y-96441201D01*
X128296327Y-96441199D01*
X128139482Y-96315541D01*
X128086824Y-96294692D01*
X151624122Y-96294692D01*
X151652440Y-96493665D01*
X151738010Y-96675508D01*
X151873267Y-96824155D01*
X151873270Y-96824157D01*
X152046252Y-96926458D01*
X152046258Y-96926461D01*
X152241681Y-96973378D01*
X152442261Y-96960758D01*
X152442260Y-96960758D01*
X152630257Y-96889720D01*
X152630258Y-96889719D01*
X152752783Y-96794679D01*
X175822454Y-96794679D01*
X175850842Y-96994143D01*
X175936622Y-97176433D01*
X176072217Y-97325450D01*
X176245628Y-97428006D01*
X176245632Y-97428007D01*
X176441537Y-97475040D01*
X176642610Y-97462388D01*
X176642618Y-97462387D01*
X176831073Y-97391176D01*
X176831073Y-97391175D01*
X176990266Y-97267692D01*
X177106114Y-97102857D01*
X177168371Y-96911249D01*
X177168372Y-96911247D01*
X177170037Y-96699267D01*
X177170037Y-96699264D01*
X177110795Y-96506699D01*
X176997555Y-96340069D01*
X176997552Y-96340067D01*
X176840320Y-96214099D01*
X176652997Y-96139933D01*
X176452147Y-96124125D01*
X176255523Y-96168076D01*
X176255521Y-96168077D01*
X176080527Y-96267892D01*
X176080522Y-96267896D01*
X175942606Y-96414761D01*
X175853971Y-96595689D01*
X175853970Y-96595693D01*
X175822454Y-96794679D01*
X152752783Y-96794679D01*
X152789059Y-96766541D01*
X152904622Y-96602111D01*
X152966726Y-96410975D01*
X152966727Y-96410974D01*
X152968387Y-96199515D01*
X152968387Y-96199512D01*
X152909292Y-96007421D01*
X152796330Y-95841201D01*
X152796327Y-95841199D01*
X152639482Y-95715541D01*
X152452621Y-95641558D01*
X152252265Y-95625789D01*
X152056126Y-95669631D01*
X151881558Y-95769204D01*
X151881555Y-95769206D01*
X151743979Y-95915708D01*
X151655561Y-96096192D01*
X151655560Y-96096197D01*
X151624122Y-96294692D01*
X128086824Y-96294692D01*
X127952621Y-96241558D01*
X127752265Y-96225789D01*
X127556126Y-96269631D01*
X127381558Y-96369204D01*
X127381555Y-96369206D01*
X127243979Y-96515708D01*
X127155561Y-96696192D01*
X127155560Y-96696197D01*
X127124122Y-96894692D01*
X126567639Y-96894692D01*
X126568387Y-96799515D01*
X126568387Y-96799512D01*
X126509292Y-96607421D01*
X126396330Y-96441201D01*
X126396327Y-96441199D01*
X126239482Y-96315541D01*
X126052621Y-96241558D01*
X125852265Y-96225789D01*
X125656126Y-96269631D01*
X125481558Y-96369204D01*
X125481555Y-96369206D01*
X125343979Y-96515708D01*
X125255561Y-96696192D01*
X125255560Y-96696197D01*
X125224122Y-96894692D01*
X121266854Y-96894692D01*
X121268387Y-96699515D01*
X121268387Y-96699512D01*
X121209292Y-96507421D01*
X121096330Y-96341201D01*
X121096327Y-96341199D01*
X120939482Y-96215541D01*
X120752621Y-96141558D01*
X120552265Y-96125789D01*
X120356126Y-96169631D01*
X120181558Y-96269204D01*
X120181555Y-96269206D01*
X120043979Y-96415708D01*
X119955561Y-96596192D01*
X119955560Y-96596197D01*
X119924122Y-96794692D01*
X118800000Y-96794692D01*
X118800000Y-93694679D01*
X136022454Y-93694679D01*
X136050842Y-93894143D01*
X136136622Y-94076433D01*
X136272217Y-94225450D01*
X136445628Y-94328006D01*
X136445632Y-94328007D01*
X136641537Y-94375040D01*
X136842610Y-94362388D01*
X136842618Y-94362387D01*
X137031073Y-94291176D01*
X137031073Y-94291175D01*
X137190266Y-94167692D01*
X137306114Y-94002857D01*
X137368371Y-93811249D01*
X137368372Y-93811247D01*
X137369287Y-93694679D01*
X142122454Y-93694679D01*
X142150842Y-93894143D01*
X142236622Y-94076433D01*
X142372217Y-94225450D01*
X142372217Y-94225451D01*
X142409796Y-94247675D01*
X142439206Y-94286846D01*
X142434691Y-94330918D01*
X142353971Y-94495689D01*
X142353970Y-94495693D01*
X142322454Y-94694679D01*
X142350842Y-94894143D01*
X142436622Y-95076433D01*
X142572217Y-95225450D01*
X142745628Y-95328006D01*
X142745632Y-95328007D01*
X142941537Y-95375040D01*
X143142610Y-95362388D01*
X143142618Y-95362387D01*
X143331073Y-95291176D01*
X143331073Y-95291175D01*
X143455457Y-95194692D01*
X152624122Y-95194692D01*
X152652440Y-95393665D01*
X152738010Y-95575508D01*
X152873267Y-95724155D01*
X152873270Y-95724157D01*
X153046252Y-95826458D01*
X153046258Y-95826461D01*
X153241681Y-95873378D01*
X153442261Y-95860758D01*
X153442260Y-95860758D01*
X153630257Y-95789720D01*
X153630258Y-95789719D01*
X153789059Y-95666541D01*
X153904622Y-95502111D01*
X153936279Y-95404679D01*
X165722454Y-95404679D01*
X165750842Y-95604143D01*
X165836622Y-95786433D01*
X165972217Y-95935450D01*
X166145628Y-96038006D01*
X166145632Y-96038007D01*
X166341537Y-96085040D01*
X166542610Y-96072388D01*
X166542618Y-96072387D01*
X166731073Y-96001176D01*
X166731073Y-96001175D01*
X166890266Y-95877692D01*
X167006114Y-95712857D01*
X167068371Y-95521249D01*
X167068372Y-95521247D01*
X167070037Y-95309267D01*
X167070037Y-95309264D01*
X167010795Y-95116699D01*
X166897555Y-94950069D01*
X166897552Y-94950067D01*
X166740320Y-94824099D01*
X166666014Y-94794679D01*
X169822454Y-94794679D01*
X169850842Y-94994143D01*
X169936622Y-95176433D01*
X170072217Y-95325450D01*
X170245628Y-95428006D01*
X170245632Y-95428007D01*
X170441537Y-95475040D01*
X170642610Y-95462388D01*
X170642618Y-95462387D01*
X170831073Y-95391176D01*
X170831073Y-95391175D01*
X170990266Y-95267692D01*
X171106114Y-95102857D01*
X171168371Y-94911249D01*
X171168372Y-94911247D01*
X171170037Y-94699267D01*
X171170037Y-94699264D01*
X171110795Y-94506699D01*
X170997555Y-94340069D01*
X170997552Y-94340067D01*
X170840320Y-94214099D01*
X170652997Y-94139933D01*
X170452147Y-94124125D01*
X170255523Y-94168076D01*
X170255521Y-94168077D01*
X170080527Y-94267892D01*
X170080522Y-94267896D01*
X169942606Y-94414761D01*
X169853971Y-94595689D01*
X169853970Y-94595693D01*
X169822454Y-94794679D01*
X166666014Y-94794679D01*
X166552997Y-94749933D01*
X166352147Y-94734125D01*
X166155523Y-94778076D01*
X166155521Y-94778077D01*
X165980527Y-94877892D01*
X165980522Y-94877896D01*
X165842608Y-95024759D01*
X165842607Y-95024761D01*
X165753971Y-95205689D01*
X165753970Y-95205693D01*
X165722454Y-95404679D01*
X153936279Y-95404679D01*
X153966726Y-95310975D01*
X153966727Y-95310974D01*
X153968387Y-95099515D01*
X153968387Y-95099512D01*
X153909292Y-94907421D01*
X153796330Y-94741201D01*
X153796327Y-94741199D01*
X153639482Y-94615541D01*
X153485762Y-94554679D01*
X162882454Y-94554679D01*
X162910842Y-94754143D01*
X162996622Y-94936433D01*
X163132217Y-95085450D01*
X163305628Y-95188006D01*
X163305632Y-95188007D01*
X163501537Y-95235040D01*
X163702610Y-95222388D01*
X163702618Y-95222387D01*
X163891073Y-95151176D01*
X163891073Y-95151175D01*
X164050266Y-95027692D01*
X164166114Y-94862857D01*
X164228371Y-94671249D01*
X164228372Y-94671247D01*
X164230037Y-94459267D01*
X164230037Y-94459264D01*
X164170795Y-94266699D01*
X164057555Y-94100069D01*
X164057552Y-94100067D01*
X163900320Y-93974099D01*
X163712997Y-93899933D01*
X163512147Y-93884125D01*
X163315523Y-93928076D01*
X163315521Y-93928077D01*
X163140527Y-94027892D01*
X163140522Y-94027896D01*
X163002606Y-94174761D01*
X162913971Y-94355689D01*
X162913970Y-94355693D01*
X162882454Y-94554679D01*
X153485762Y-94554679D01*
X153452621Y-94541558D01*
X153252265Y-94525789D01*
X153056126Y-94569631D01*
X152881558Y-94669204D01*
X152881555Y-94669206D01*
X152743979Y-94815708D01*
X152655561Y-94996192D01*
X152655560Y-94996197D01*
X152624122Y-95194692D01*
X143455457Y-95194692D01*
X143490266Y-95167692D01*
X143606114Y-95002857D01*
X143668371Y-94811249D01*
X143668372Y-94811247D01*
X143670037Y-94599267D01*
X143670037Y-94599264D01*
X143610795Y-94406699D01*
X143497555Y-94240069D01*
X143497553Y-94240068D01*
X143379298Y-94145328D01*
X143355700Y-94102403D01*
X143366951Y-94058580D01*
X143406114Y-94002857D01*
X143468371Y-93811249D01*
X143468372Y-93811247D01*
X143470037Y-93599267D01*
X143470037Y-93599264D01*
X143468627Y-93594679D01*
X147822454Y-93594679D01*
X147850842Y-93794143D01*
X147936622Y-93976433D01*
X148072217Y-94125450D01*
X148245628Y-94228006D01*
X148245632Y-94228007D01*
X148441537Y-94275040D01*
X148642610Y-94262388D01*
X148642618Y-94262387D01*
X148831073Y-94191176D01*
X148831073Y-94191175D01*
X148990266Y-94067692D01*
X149106114Y-93902857D01*
X149168371Y-93711249D01*
X149168372Y-93711247D01*
X149170037Y-93499267D01*
X149170037Y-93499264D01*
X149110795Y-93306699D01*
X148997555Y-93140069D01*
X148997552Y-93140067D01*
X148840320Y-93014099D01*
X148652997Y-92939933D01*
X148452147Y-92924125D01*
X148255523Y-92968076D01*
X148255521Y-92968077D01*
X148080527Y-93067892D01*
X148080522Y-93067896D01*
X147942606Y-93214761D01*
X147853971Y-93395689D01*
X147853970Y-93395693D01*
X147822454Y-93594679D01*
X143468627Y-93594679D01*
X143410795Y-93406699D01*
X143297555Y-93240069D01*
X143297552Y-93240067D01*
X143140320Y-93114099D01*
X142952997Y-93039933D01*
X142752147Y-93024125D01*
X142555523Y-93068076D01*
X142555521Y-93068077D01*
X142380527Y-93167892D01*
X142380522Y-93167896D01*
X142242606Y-93314761D01*
X142153971Y-93495689D01*
X142153970Y-93495693D01*
X142122454Y-93694679D01*
X137369287Y-93694679D01*
X137370037Y-93599267D01*
X137370037Y-93599264D01*
X137310795Y-93406699D01*
X137197555Y-93240069D01*
X137197552Y-93240067D01*
X137040320Y-93114099D01*
X136852997Y-93039933D01*
X136652147Y-93024125D01*
X136455523Y-93068076D01*
X136455521Y-93068077D01*
X136280527Y-93167892D01*
X136280522Y-93167896D01*
X136142606Y-93314761D01*
X136053971Y-93495689D01*
X136053970Y-93495693D01*
X136022454Y-93694679D01*
X118800000Y-93694679D01*
X118800000Y-92694692D01*
X123624122Y-92694692D01*
X123652440Y-92893665D01*
X123738010Y-93075508D01*
X123873267Y-93224155D01*
X123873270Y-93224157D01*
X124046252Y-93326458D01*
X124046258Y-93326461D01*
X124241681Y-93373378D01*
X124442261Y-93360758D01*
X124442260Y-93360758D01*
X124630257Y-93289720D01*
X124630258Y-93289719D01*
X124789059Y-93166541D01*
X124904622Y-93002111D01*
X124966726Y-92810975D01*
X124966727Y-92810974D01*
X124968387Y-92599515D01*
X124968387Y-92599512D01*
X124909292Y-92407421D01*
X124796330Y-92241201D01*
X124796327Y-92241199D01*
X124639482Y-92115541D01*
X124452621Y-92041558D01*
X124252265Y-92025789D01*
X124056126Y-92069631D01*
X123881558Y-92169204D01*
X123881555Y-92169206D01*
X123743979Y-92315708D01*
X123655561Y-92496192D01*
X123655560Y-92496197D01*
X123624122Y-92694692D01*
X118800000Y-92694692D01*
X118800000Y-91194692D01*
X123624122Y-91194692D01*
X123652440Y-91393665D01*
X123738010Y-91575508D01*
X123873267Y-91724155D01*
X123873270Y-91724157D01*
X124046252Y-91826458D01*
X124046258Y-91826461D01*
X124241681Y-91873378D01*
X124442261Y-91860758D01*
X124442260Y-91860758D01*
X124630257Y-91789720D01*
X124630258Y-91789719D01*
X124789059Y-91666541D01*
X124904623Y-91502109D01*
X124904624Y-91502108D01*
X124935893Y-91405873D01*
X124967705Y-91368625D01*
X125016537Y-91364783D01*
X125054669Y-91398400D01*
X125138011Y-91575508D01*
X125273267Y-91724155D01*
X125273270Y-91724157D01*
X125446252Y-91826458D01*
X125446258Y-91826461D01*
X125641681Y-91873378D01*
X125842261Y-91860758D01*
X125842260Y-91860758D01*
X126030257Y-91789720D01*
X126030258Y-91789719D01*
X126189059Y-91666541D01*
X126304623Y-91502109D01*
X126304624Y-91502108D01*
X126335893Y-91405873D01*
X126367705Y-91368625D01*
X126416537Y-91364783D01*
X126454669Y-91398400D01*
X126538011Y-91575508D01*
X126673267Y-91724155D01*
X126673270Y-91724157D01*
X126846252Y-91826458D01*
X126846258Y-91826461D01*
X127041681Y-91873378D01*
X127242261Y-91860758D01*
X127242260Y-91860758D01*
X127430257Y-91789720D01*
X127430258Y-91789719D01*
X127589059Y-91666541D01*
X127704622Y-91502111D01*
X127766726Y-91310975D01*
X127766727Y-91310974D01*
X127767639Y-91194679D01*
X139622454Y-91194679D01*
X139650842Y-91394143D01*
X139736622Y-91576433D01*
X139872217Y-91725450D01*
X140045628Y-91828006D01*
X140045632Y-91828007D01*
X140241537Y-91875040D01*
X140442610Y-91862388D01*
X140442618Y-91862387D01*
X140631073Y-91791176D01*
X140631073Y-91791175D01*
X140790266Y-91667692D01*
X140906114Y-91502857D01*
X140908766Y-91494692D01*
X151224122Y-91494692D01*
X151252440Y-91693665D01*
X151338010Y-91875508D01*
X151473267Y-92024155D01*
X151473270Y-92024157D01*
X151646252Y-92126458D01*
X151646258Y-92126461D01*
X151841681Y-92173378D01*
X152042259Y-92160758D01*
X152054140Y-92156269D01*
X152103099Y-92157809D01*
X152140122Y-92207120D01*
X152152439Y-92293659D01*
X152152440Y-92293664D01*
X152238011Y-92475508D01*
X152279897Y-92521541D01*
X152296490Y-92567629D01*
X152275634Y-92611950D01*
X152246522Y-92627073D01*
X152056126Y-92669631D01*
X151881558Y-92769204D01*
X151881555Y-92769206D01*
X151743979Y-92915708D01*
X151655561Y-93096192D01*
X151655560Y-93096197D01*
X151624122Y-93294692D01*
X151652440Y-93493665D01*
X151738010Y-93675508D01*
X151873267Y-93824155D01*
X151873270Y-93824157D01*
X152046252Y-93926458D01*
X152046258Y-93926461D01*
X152241681Y-93973378D01*
X152442261Y-93960758D01*
X152442260Y-93960758D01*
X152630257Y-93889720D01*
X152630258Y-93889719D01*
X152789059Y-93766541D01*
X152904622Y-93602111D01*
X152966726Y-93410975D01*
X152966727Y-93410974D01*
X152968387Y-93199515D01*
X152968387Y-93199512D01*
X152909292Y-93007421D01*
X152812954Y-92865663D01*
X152803021Y-92817697D01*
X152829914Y-92776757D01*
X152861868Y-92765816D01*
X152942261Y-92760758D01*
X152942260Y-92760758D01*
X153117098Y-92694692D01*
X156324122Y-92694692D01*
X156352440Y-92893665D01*
X156438010Y-93075508D01*
X156573267Y-93224155D01*
X156573270Y-93224157D01*
X156746252Y-93326458D01*
X156746258Y-93326461D01*
X156941681Y-93373378D01*
X157142261Y-93360758D01*
X157142260Y-93360758D01*
X157330257Y-93289720D01*
X157330258Y-93289719D01*
X157489059Y-93166541D01*
X157604622Y-93002111D01*
X157639528Y-92894679D01*
X170622454Y-92894679D01*
X170650842Y-93094143D01*
X170736622Y-93276433D01*
X170872217Y-93425450D01*
X171045628Y-93528006D01*
X171045632Y-93528007D01*
X171241537Y-93575040D01*
X171442610Y-93562388D01*
X171442618Y-93562387D01*
X171631073Y-93491176D01*
X171631073Y-93491175D01*
X171790266Y-93367692D01*
X171906114Y-93202857D01*
X171968371Y-93011249D01*
X171968372Y-93011247D01*
X171970037Y-92799267D01*
X171970037Y-92799264D01*
X171910795Y-92606699D01*
X171797555Y-92440069D01*
X171797552Y-92440067D01*
X171640320Y-92314099D01*
X171452997Y-92239933D01*
X171252147Y-92224125D01*
X171055523Y-92268076D01*
X171055521Y-92268077D01*
X170880527Y-92367892D01*
X170880522Y-92367896D01*
X170742606Y-92514761D01*
X170653971Y-92695689D01*
X170653970Y-92695693D01*
X170622454Y-92894679D01*
X157639528Y-92894679D01*
X157666726Y-92810975D01*
X157666727Y-92810974D01*
X157668387Y-92599515D01*
X157668387Y-92599512D01*
X157609292Y-92407421D01*
X157496330Y-92241201D01*
X157496327Y-92241199D01*
X157339482Y-92115541D01*
X157152621Y-92041558D01*
X156952265Y-92025789D01*
X156756126Y-92069631D01*
X156581558Y-92169204D01*
X156581555Y-92169206D01*
X156443979Y-92315708D01*
X156355561Y-92496192D01*
X156355560Y-92496197D01*
X156324122Y-92694692D01*
X153117098Y-92694692D01*
X153130257Y-92689720D01*
X153130258Y-92689719D01*
X153289059Y-92566541D01*
X153404622Y-92402111D01*
X153466726Y-92210975D01*
X153466727Y-92210974D01*
X153468387Y-91999515D01*
X153468387Y-91999512D01*
X153409292Y-91807421D01*
X153296330Y-91641201D01*
X153296327Y-91641199D01*
X153139482Y-91515541D01*
X152952621Y-91441558D01*
X152752265Y-91425789D01*
X152645236Y-91449712D01*
X152596982Y-91441290D01*
X152572418Y-91403410D01*
X152569831Y-91404206D01*
X152509292Y-91207421D01*
X152500642Y-91194692D01*
X154924122Y-91194692D01*
X154952440Y-91393665D01*
X155038010Y-91575508D01*
X155173267Y-91724155D01*
X155173270Y-91724157D01*
X155346252Y-91826458D01*
X155346258Y-91826461D01*
X155541681Y-91873378D01*
X155742261Y-91860758D01*
X155742260Y-91860758D01*
X155930257Y-91789720D01*
X155930258Y-91789719D01*
X156089059Y-91666541D01*
X156204622Y-91502111D01*
X156266726Y-91310975D01*
X156266727Y-91310974D01*
X156268387Y-91099515D01*
X156268387Y-91099512D01*
X156209292Y-90907421D01*
X156096330Y-90741201D01*
X156096327Y-90741199D01*
X155939482Y-90615541D01*
X155752621Y-90541558D01*
X155552265Y-90525789D01*
X155356126Y-90569631D01*
X155181558Y-90669204D01*
X155181555Y-90669206D01*
X155043979Y-90815708D01*
X154955561Y-90996192D01*
X154955560Y-90996197D01*
X154924122Y-91194692D01*
X152500642Y-91194692D01*
X152396330Y-91041201D01*
X152396327Y-91041199D01*
X152239482Y-90915541D01*
X152052621Y-90841558D01*
X151852265Y-90825789D01*
X151656126Y-90869631D01*
X151481558Y-90969204D01*
X151481555Y-90969206D01*
X151343979Y-91115708D01*
X151255561Y-91296192D01*
X151255560Y-91296197D01*
X151224122Y-91494692D01*
X140908766Y-91494692D01*
X140968371Y-91311249D01*
X140968372Y-91311247D01*
X140970037Y-91099267D01*
X140970037Y-91099264D01*
X140910795Y-90906699D01*
X140797555Y-90740069D01*
X140797552Y-90740067D01*
X140640320Y-90614099D01*
X140452997Y-90539933D01*
X140252147Y-90524125D01*
X140055523Y-90568076D01*
X140055521Y-90568077D01*
X139880527Y-90667892D01*
X139880522Y-90667896D01*
X139742606Y-90814761D01*
X139653971Y-90995689D01*
X139653970Y-90995693D01*
X139622454Y-91194679D01*
X127767639Y-91194679D01*
X127768387Y-91099515D01*
X127768387Y-91099512D01*
X127709292Y-90907421D01*
X127596330Y-90741201D01*
X127596327Y-90741199D01*
X127439482Y-90615541D01*
X127252621Y-90541558D01*
X127052265Y-90525789D01*
X126856126Y-90569631D01*
X126681558Y-90669204D01*
X126681555Y-90669206D01*
X126543979Y-90815708D01*
X126453604Y-91000188D01*
X126416861Y-91032581D01*
X126367974Y-91029506D01*
X126334959Y-90990851D01*
X126309292Y-90907421D01*
X126196330Y-90741201D01*
X126196327Y-90741199D01*
X126039482Y-90615541D01*
X125852621Y-90541558D01*
X125652265Y-90525789D01*
X125456126Y-90569631D01*
X125281558Y-90669204D01*
X125281555Y-90669206D01*
X125143979Y-90815708D01*
X125053604Y-91000188D01*
X125016861Y-91032581D01*
X124967974Y-91029506D01*
X124934959Y-90990851D01*
X124909292Y-90907421D01*
X124796330Y-90741201D01*
X124796327Y-90741199D01*
X124639482Y-90615541D01*
X124452621Y-90541558D01*
X124252265Y-90525789D01*
X124056126Y-90569631D01*
X123881558Y-90669204D01*
X123881555Y-90669206D01*
X123743979Y-90815708D01*
X123655561Y-90996192D01*
X123655560Y-90996197D01*
X123624122Y-91194692D01*
X118800000Y-91194692D01*
X118800000Y-90394692D01*
X119724122Y-90394692D01*
X119752440Y-90593665D01*
X119838010Y-90775508D01*
X119973267Y-90924155D01*
X119973270Y-90924157D01*
X120146252Y-91026458D01*
X120146258Y-91026461D01*
X120341681Y-91073378D01*
X120542261Y-91060758D01*
X120542260Y-91060758D01*
X120730257Y-90989720D01*
X120730258Y-90989719D01*
X120889059Y-90866541D01*
X121004622Y-90702111D01*
X121066726Y-90510975D01*
X121066727Y-90510974D01*
X121068387Y-90299515D01*
X121068387Y-90299512D01*
X121009292Y-90107421D01*
X120896330Y-89941201D01*
X120896327Y-89941199D01*
X120739482Y-89815541D01*
X120552621Y-89741558D01*
X120352265Y-89725789D01*
X120156126Y-89769631D01*
X119981558Y-89869204D01*
X119981555Y-89869206D01*
X119843979Y-90015708D01*
X119755561Y-90196192D01*
X119755560Y-90196197D01*
X119724122Y-90394692D01*
X118800000Y-90394692D01*
X118800000Y-88207376D01*
X120829116Y-88207376D01*
X120867806Y-88372329D01*
X120867807Y-88372333D01*
X120944720Y-88523282D01*
X120944724Y-88523289D01*
X121055430Y-88651543D01*
X121055430Y-88651544D01*
X121193534Y-88749688D01*
X121351064Y-88812059D01*
X121518929Y-88835054D01*
X121518931Y-88835054D01*
X121687421Y-88817345D01*
X121687424Y-88817344D01*
X121846829Y-88759954D01*
X121846839Y-88759949D01*
X121987950Y-88666195D01*
X122032240Y-88618030D01*
X122076670Y-88597406D01*
X122127798Y-88619531D01*
X122155430Y-88651543D01*
X122155430Y-88651544D01*
X122293534Y-88749688D01*
X122451064Y-88812059D01*
X122618929Y-88835054D01*
X122618931Y-88835054D01*
X122787421Y-88817345D01*
X122787424Y-88817344D01*
X122946829Y-88759954D01*
X122946839Y-88759949D01*
X123087951Y-88666194D01*
X123087954Y-88666192D01*
X123202629Y-88541483D01*
X123202633Y-88541478D01*
X123228353Y-88494692D01*
X123724122Y-88494692D01*
X123752440Y-88693665D01*
X123838010Y-88875508D01*
X123973267Y-89024155D01*
X123973270Y-89024157D01*
X124146252Y-89126458D01*
X124146258Y-89126461D01*
X124341681Y-89173378D01*
X124542261Y-89160758D01*
X124542260Y-89160758D01*
X124730257Y-89089720D01*
X124730258Y-89089719D01*
X124889059Y-88966541D01*
X124939555Y-88894692D01*
X134324122Y-88894692D01*
X134352440Y-89093665D01*
X134438010Y-89275508D01*
X134573267Y-89424155D01*
X134573270Y-89424157D01*
X134746252Y-89526458D01*
X134746258Y-89526461D01*
X134941681Y-89573378D01*
X135142261Y-89560758D01*
X135142260Y-89560758D01*
X135330257Y-89489720D01*
X135330258Y-89489719D01*
X135489059Y-89366541D01*
X135604622Y-89202111D01*
X135666726Y-89010975D01*
X135666727Y-89010974D01*
X135668387Y-88799515D01*
X135668387Y-88799512D01*
X135609292Y-88607421D01*
X135496330Y-88441201D01*
X135496327Y-88441199D01*
X135438262Y-88394679D01*
X139622454Y-88394679D01*
X139650842Y-88594143D01*
X139736622Y-88776433D01*
X139872217Y-88925450D01*
X140045628Y-89028006D01*
X140045632Y-89028007D01*
X140241537Y-89075040D01*
X140359033Y-89067647D01*
X140405376Y-89083514D01*
X140426413Y-89122503D01*
X140450841Y-89294137D01*
X140450842Y-89294142D01*
X140536622Y-89476433D01*
X140672217Y-89625450D01*
X140845628Y-89728006D01*
X140845632Y-89728007D01*
X141041537Y-89775040D01*
X141242610Y-89762388D01*
X141242618Y-89762387D01*
X141431073Y-89691176D01*
X141431073Y-89691175D01*
X141555474Y-89594679D01*
X144422454Y-89594679D01*
X144450842Y-89794143D01*
X144536622Y-89976433D01*
X144672217Y-90125450D01*
X144845628Y-90228006D01*
X144845632Y-90228007D01*
X145041537Y-90275040D01*
X145242610Y-90262388D01*
X145242618Y-90262387D01*
X145431073Y-90191176D01*
X145431073Y-90191175D01*
X145555474Y-90094679D01*
X145822454Y-90094679D01*
X145850842Y-90294143D01*
X145936622Y-90476433D01*
X146072217Y-90625450D01*
X146245628Y-90728006D01*
X146245632Y-90728007D01*
X146441537Y-90775040D01*
X146642610Y-90762388D01*
X146642618Y-90762387D01*
X146831073Y-90691176D01*
X146831073Y-90691175D01*
X146990266Y-90567692D01*
X147106114Y-90402857D01*
X147168371Y-90211249D01*
X147168372Y-90211247D01*
X147170037Y-89999267D01*
X147170037Y-89999264D01*
X147110795Y-89806699D01*
X147102636Y-89794692D01*
X164124122Y-89794692D01*
X164152440Y-89993665D01*
X164238010Y-90175508D01*
X164373269Y-90324158D01*
X164407346Y-90344311D01*
X164436756Y-90383482D01*
X164429854Y-90431977D01*
X164406476Y-90454991D01*
X164381555Y-90469205D01*
X164381555Y-90469206D01*
X164243979Y-90615708D01*
X164243980Y-90615708D01*
X164155561Y-90796192D01*
X164155560Y-90796197D01*
X164124122Y-90994692D01*
X164152440Y-91193665D01*
X164238010Y-91375508D01*
X164373269Y-91524158D01*
X164407346Y-91544311D01*
X164436756Y-91583482D01*
X164429854Y-91631977D01*
X164406476Y-91654991D01*
X164381555Y-91669205D01*
X164381555Y-91669206D01*
X164243979Y-91815708D01*
X164155561Y-91996192D01*
X164155560Y-91996197D01*
X164124122Y-92194692D01*
X164152440Y-92393665D01*
X164238010Y-92575508D01*
X164373267Y-92724155D01*
X164373270Y-92724157D01*
X164546252Y-92826458D01*
X164546258Y-92826461D01*
X164741681Y-92873378D01*
X164942261Y-92860758D01*
X164942260Y-92860758D01*
X165130257Y-92789720D01*
X165130258Y-92789719D01*
X165289059Y-92666541D01*
X165404622Y-92502111D01*
X165466726Y-92310975D01*
X165466727Y-92310974D01*
X165468387Y-92099515D01*
X165468387Y-92099512D01*
X165409292Y-91907421D01*
X165296330Y-91741202D01*
X165181926Y-91649547D01*
X165158328Y-91606622D01*
X165182716Y-91549029D01*
X165289059Y-91466541D01*
X165404622Y-91302111D01*
X165466726Y-91110975D01*
X165466727Y-91110974D01*
X165468387Y-90899515D01*
X165468387Y-90899512D01*
X165409292Y-90707421D01*
X165296330Y-90541202D01*
X165181926Y-90449547D01*
X165158328Y-90406622D01*
X165182716Y-90349029D01*
X165289059Y-90266541D01*
X165404622Y-90102111D01*
X165466726Y-89910975D01*
X165466727Y-89910974D01*
X165467639Y-89794692D01*
X166124122Y-89794692D01*
X166152440Y-89993665D01*
X166238010Y-90175508D01*
X166373269Y-90324158D01*
X166407346Y-90344311D01*
X166436756Y-90383482D01*
X166429854Y-90431977D01*
X166406476Y-90454991D01*
X166381555Y-90469205D01*
X166381555Y-90469206D01*
X166243979Y-90615708D01*
X166243980Y-90615708D01*
X166155561Y-90796192D01*
X166155560Y-90796197D01*
X166124122Y-90994692D01*
X166152440Y-91193665D01*
X166238010Y-91375508D01*
X166373269Y-91524158D01*
X166407346Y-91544311D01*
X166436756Y-91583482D01*
X166429854Y-91631977D01*
X166406476Y-91654991D01*
X166381555Y-91669205D01*
X166381555Y-91669206D01*
X166243979Y-91815708D01*
X166155561Y-91996192D01*
X166155560Y-91996197D01*
X166124122Y-92194692D01*
X166152440Y-92393665D01*
X166238010Y-92575508D01*
X166373267Y-92724155D01*
X166373270Y-92724157D01*
X166546252Y-92826458D01*
X166546258Y-92826461D01*
X166741681Y-92873378D01*
X166942261Y-92860758D01*
X166942260Y-92860758D01*
X167130257Y-92789720D01*
X167130258Y-92789719D01*
X167289059Y-92666541D01*
X167404622Y-92502111D01*
X167466726Y-92310975D01*
X167466727Y-92310974D01*
X167468387Y-92099515D01*
X167468387Y-92099512D01*
X167409292Y-91907421D01*
X167296330Y-91741202D01*
X167181926Y-91649547D01*
X167158328Y-91606622D01*
X167182716Y-91549029D01*
X167289059Y-91466541D01*
X167404622Y-91302111D01*
X167466726Y-91110975D01*
X167466727Y-91110974D01*
X167468387Y-90899515D01*
X167468387Y-90899512D01*
X167466901Y-90894679D01*
X171722454Y-90894679D01*
X171750842Y-91094143D01*
X171836622Y-91276433D01*
X171972217Y-91425450D01*
X172145628Y-91528006D01*
X172145632Y-91528007D01*
X172341537Y-91575040D01*
X172542610Y-91562388D01*
X172542618Y-91562387D01*
X172731073Y-91491176D01*
X172731073Y-91491175D01*
X172890266Y-91367692D01*
X173006114Y-91202857D01*
X173068371Y-91011249D01*
X173068372Y-91011247D01*
X173070037Y-90799267D01*
X173070037Y-90799264D01*
X173010795Y-90606699D01*
X172897555Y-90440069D01*
X172897552Y-90440067D01*
X172740320Y-90314099D01*
X172552997Y-90239933D01*
X172352147Y-90224125D01*
X172155523Y-90268076D01*
X172155521Y-90268077D01*
X171980527Y-90367892D01*
X171980522Y-90367896D01*
X171842606Y-90514761D01*
X171753971Y-90695689D01*
X171753970Y-90695693D01*
X171722454Y-90894679D01*
X167466901Y-90894679D01*
X167409292Y-90707421D01*
X167296330Y-90541202D01*
X167181926Y-90449547D01*
X167158328Y-90406622D01*
X167182716Y-90349029D01*
X167289059Y-90266541D01*
X167404622Y-90102111D01*
X167466726Y-89910975D01*
X167466727Y-89910974D01*
X167468387Y-89699515D01*
X167468387Y-89699512D01*
X167409292Y-89507421D01*
X167296330Y-89341201D01*
X167296327Y-89341199D01*
X167139482Y-89215541D01*
X166952621Y-89141558D01*
X166752265Y-89125789D01*
X166556126Y-89169631D01*
X166381558Y-89269204D01*
X166381555Y-89269206D01*
X166243979Y-89415708D01*
X166155561Y-89596192D01*
X166155560Y-89596197D01*
X166124122Y-89794692D01*
X165467639Y-89794692D01*
X165468387Y-89699515D01*
X165468387Y-89699512D01*
X165409292Y-89507421D01*
X165296330Y-89341201D01*
X165296327Y-89341199D01*
X165139482Y-89215541D01*
X164952621Y-89141558D01*
X164752265Y-89125789D01*
X164556126Y-89169631D01*
X164381558Y-89269204D01*
X164381555Y-89269206D01*
X164243979Y-89415708D01*
X164155561Y-89596192D01*
X164155560Y-89596197D01*
X164124122Y-89794692D01*
X147102636Y-89794692D01*
X146997555Y-89640069D01*
X146997552Y-89640067D01*
X146840320Y-89514099D01*
X146652997Y-89439933D01*
X146452147Y-89424125D01*
X146255523Y-89468076D01*
X146255521Y-89468077D01*
X146080527Y-89567892D01*
X146080522Y-89567896D01*
X145942606Y-89714761D01*
X145853971Y-89895689D01*
X145853970Y-89895693D01*
X145822454Y-90094679D01*
X145555474Y-90094679D01*
X145590266Y-90067692D01*
X145706114Y-89902857D01*
X145768371Y-89711249D01*
X145768372Y-89711247D01*
X145770037Y-89499267D01*
X145770037Y-89499264D01*
X145710795Y-89306699D01*
X145597555Y-89140069D01*
X145597552Y-89140067D01*
X145440320Y-89014099D01*
X145252997Y-88939933D01*
X145052147Y-88924125D01*
X144855523Y-88968076D01*
X144855521Y-88968077D01*
X144680527Y-89067892D01*
X144680522Y-89067896D01*
X144542606Y-89214761D01*
X144453971Y-89395689D01*
X144453970Y-89395693D01*
X144422454Y-89594679D01*
X141555474Y-89594679D01*
X141590266Y-89567692D01*
X141706114Y-89402857D01*
X141768371Y-89211249D01*
X141768372Y-89211247D01*
X141770037Y-88999267D01*
X141770037Y-88999264D01*
X141710795Y-88806699D01*
X141597555Y-88640069D01*
X141597552Y-88640067D01*
X141540900Y-88594679D01*
X142422454Y-88594679D01*
X142450842Y-88794143D01*
X142536622Y-88976433D01*
X142672217Y-89125450D01*
X142845628Y-89228006D01*
X142845632Y-89228007D01*
X143041537Y-89275040D01*
X143242610Y-89262388D01*
X143242618Y-89262387D01*
X143431073Y-89191176D01*
X143431073Y-89191175D01*
X143590266Y-89067692D01*
X143706114Y-88902857D01*
X143768371Y-88711249D01*
X143768372Y-88711247D01*
X143770037Y-88499267D01*
X143770037Y-88499264D01*
X143710795Y-88306699D01*
X143597555Y-88140069D01*
X143597552Y-88140067D01*
X143440320Y-88014099D01*
X143252997Y-87939933D01*
X143052147Y-87924125D01*
X142855523Y-87968076D01*
X142855521Y-87968077D01*
X142680527Y-88067892D01*
X142680522Y-88067896D01*
X142542606Y-88214761D01*
X142453971Y-88395689D01*
X142453970Y-88395693D01*
X142422454Y-88594679D01*
X141540900Y-88594679D01*
X141440320Y-88514099D01*
X141252997Y-88439933D01*
X141052144Y-88424125D01*
X141052142Y-88424125D01*
X141047499Y-88425163D01*
X140999245Y-88416739D01*
X140969543Y-88362201D01*
X140970037Y-88299267D01*
X140970037Y-88299264D01*
X140910795Y-88106699D01*
X140797555Y-87940069D01*
X140797552Y-87940067D01*
X140640320Y-87814099D01*
X140452997Y-87739933D01*
X140252147Y-87724125D01*
X140055523Y-87768076D01*
X140055521Y-87768077D01*
X139880527Y-87867892D01*
X139880522Y-87867896D01*
X139742606Y-88014761D01*
X139653971Y-88195689D01*
X139653970Y-88195693D01*
X139622454Y-88394679D01*
X135438262Y-88394679D01*
X135339482Y-88315541D01*
X135152621Y-88241558D01*
X134952265Y-88225789D01*
X134756126Y-88269631D01*
X134581558Y-88369204D01*
X134581555Y-88369206D01*
X134443979Y-88515708D01*
X134355561Y-88696192D01*
X134355560Y-88696197D01*
X134324122Y-88894692D01*
X124939555Y-88894692D01*
X125004622Y-88802111D01*
X125066726Y-88610975D01*
X125066727Y-88610974D01*
X125068387Y-88399515D01*
X125068387Y-88399512D01*
X125009292Y-88207421D01*
X124896330Y-88041201D01*
X124896327Y-88041199D01*
X124739482Y-87915541D01*
X124552621Y-87841558D01*
X124352265Y-87825789D01*
X124156126Y-87869631D01*
X123981558Y-87969204D01*
X123981555Y-87969206D01*
X123843979Y-88115708D01*
X123755561Y-88296192D01*
X123755560Y-88296197D01*
X123724122Y-88494692D01*
X123228353Y-88494692D01*
X123284255Y-88393008D01*
X123284258Y-88393000D01*
X123328105Y-88229360D01*
X123328106Y-88229349D01*
X123330035Y-88045296D01*
X123330034Y-88045287D01*
X123289618Y-87880746D01*
X123211123Y-87730601D01*
X123099082Y-87603516D01*
X123099079Y-87603513D01*
X122959958Y-87506822D01*
X122959957Y-87506822D01*
X122928325Y-87494679D01*
X161722454Y-87494679D01*
X161750842Y-87694143D01*
X161836622Y-87876433D01*
X161972217Y-88025450D01*
X162145628Y-88128006D01*
X162145632Y-88128007D01*
X162341537Y-88175040D01*
X162542610Y-88162388D01*
X162542618Y-88162387D01*
X162731073Y-88091176D01*
X162731073Y-88091175D01*
X162890266Y-87967692D01*
X163006114Y-87802857D01*
X163068371Y-87611249D01*
X163068372Y-87611247D01*
X163070037Y-87399267D01*
X163070037Y-87399264D01*
X163010795Y-87206699D01*
X162897555Y-87040069D01*
X162897552Y-87040067D01*
X162740320Y-86914099D01*
X162552997Y-86839933D01*
X162352147Y-86824125D01*
X162155523Y-86868076D01*
X162155521Y-86868077D01*
X161980527Y-86967892D01*
X161980522Y-86967896D01*
X161842606Y-87114761D01*
X161753971Y-87295689D01*
X161753970Y-87295693D01*
X161722454Y-87494679D01*
X122928325Y-87494679D01*
X122801784Y-87446103D01*
X122801779Y-87446102D01*
X122633696Y-87424869D01*
X122465387Y-87444343D01*
X122306587Y-87503400D01*
X122306583Y-87503402D01*
X122166458Y-87598632D01*
X122127778Y-87641591D01*
X122083566Y-87662679D01*
X122032209Y-87641091D01*
X121999082Y-87603516D01*
X121999079Y-87603513D01*
X121859958Y-87506822D01*
X121859957Y-87506822D01*
X121701784Y-87446103D01*
X121701779Y-87446102D01*
X121533696Y-87424869D01*
X121365387Y-87444343D01*
X121206587Y-87503400D01*
X121206583Y-87503402D01*
X121066464Y-87598628D01*
X121066457Y-87598634D01*
X120953087Y-87724543D01*
X120873027Y-87873853D01*
X120873025Y-87873859D01*
X120830893Y-88037955D01*
X120830892Y-88037966D01*
X120829116Y-88207376D01*
X118800000Y-88207376D01*
X118800000Y-86394679D01*
X141522454Y-86394679D01*
X141550842Y-86594143D01*
X141636622Y-86776433D01*
X141772217Y-86925450D01*
X141945628Y-87028006D01*
X141945632Y-87028007D01*
X142141537Y-87075040D01*
X142342610Y-87062388D01*
X142342618Y-87062387D01*
X142531073Y-86991176D01*
X142531073Y-86991175D01*
X142690266Y-86867692D01*
X142806114Y-86702857D01*
X142868371Y-86511249D01*
X142868372Y-86511247D01*
X142870037Y-86299267D01*
X142870037Y-86299264D01*
X142868627Y-86294679D01*
X151622454Y-86294679D01*
X151650842Y-86494143D01*
X151736622Y-86676433D01*
X151872217Y-86825450D01*
X152045628Y-86928006D01*
X152045632Y-86928007D01*
X152241537Y-86975040D01*
X152442610Y-86962388D01*
X152442618Y-86962387D01*
X152631073Y-86891176D01*
X152631073Y-86891175D01*
X152790266Y-86767692D01*
X152841580Y-86694679D01*
X158822454Y-86694679D01*
X158850842Y-86894143D01*
X158936622Y-87076433D01*
X159072217Y-87225450D01*
X159245628Y-87328006D01*
X159245632Y-87328007D01*
X159441537Y-87375040D01*
X159642610Y-87362388D01*
X159642618Y-87362387D01*
X159831073Y-87291176D01*
X159831073Y-87291175D01*
X159966032Y-87186490D01*
X160013279Y-87173565D01*
X160052594Y-87193987D01*
X160172213Y-87325447D01*
X160172217Y-87325450D01*
X160345628Y-87428006D01*
X160345632Y-87428007D01*
X160541537Y-87475040D01*
X160742610Y-87462388D01*
X160742618Y-87462387D01*
X160931073Y-87391176D01*
X160931073Y-87391175D01*
X161090266Y-87267692D01*
X161206114Y-87102857D01*
X161268371Y-86911249D01*
X161268372Y-86911247D01*
X161270037Y-86699267D01*
X161270037Y-86699264D01*
X161237862Y-86594679D01*
X163722454Y-86594679D01*
X163750842Y-86794143D01*
X163836622Y-86976433D01*
X163972217Y-87125450D01*
X164145628Y-87228006D01*
X164145632Y-87228007D01*
X164341537Y-87275040D01*
X164542610Y-87262388D01*
X164542618Y-87262387D01*
X164731073Y-87191176D01*
X164731073Y-87191175D01*
X164890266Y-87067692D01*
X165006114Y-86902857D01*
X165068371Y-86711249D01*
X165068372Y-86711247D01*
X165070037Y-86499267D01*
X165070037Y-86499264D01*
X165010795Y-86306699D01*
X164897555Y-86140069D01*
X164897552Y-86140067D01*
X164740320Y-86014099D01*
X164552997Y-85939933D01*
X164352147Y-85924125D01*
X164155523Y-85968076D01*
X164155521Y-85968077D01*
X163980527Y-86067892D01*
X163980522Y-86067896D01*
X163842606Y-86214761D01*
X163753971Y-86395689D01*
X163753970Y-86395693D01*
X163722454Y-86594679D01*
X161237862Y-86594679D01*
X161210795Y-86506699D01*
X161097555Y-86340069D01*
X161097552Y-86340067D01*
X160940320Y-86214099D01*
X160752997Y-86139933D01*
X160552147Y-86124125D01*
X160355523Y-86168076D01*
X160355521Y-86168077D01*
X160180524Y-86267893D01*
X160180520Y-86267896D01*
X160140029Y-86311015D01*
X160095385Y-86331172D01*
X160040442Y-86303177D01*
X159997555Y-86240069D01*
X159997552Y-86240067D01*
X159840320Y-86114099D01*
X159652997Y-86039933D01*
X159452147Y-86024125D01*
X159255523Y-86068076D01*
X159255521Y-86068077D01*
X159080527Y-86167892D01*
X159080522Y-86167896D01*
X158942606Y-86314761D01*
X158853971Y-86495689D01*
X158853970Y-86495693D01*
X158822454Y-86694679D01*
X152841580Y-86694679D01*
X152906114Y-86602857D01*
X152968371Y-86411249D01*
X152968372Y-86411247D01*
X152970037Y-86199267D01*
X152970037Y-86199264D01*
X152910795Y-86006699D01*
X152797555Y-85840069D01*
X152797552Y-85840067D01*
X152640320Y-85714099D01*
X152591271Y-85694679D01*
X165422454Y-85694679D01*
X165450842Y-85894143D01*
X165536622Y-86076433D01*
X165672217Y-86225450D01*
X165845628Y-86328006D01*
X165845632Y-86328007D01*
X166041537Y-86375040D01*
X166242610Y-86362388D01*
X166242618Y-86362387D01*
X166431073Y-86291176D01*
X166431073Y-86291175D01*
X166590266Y-86167692D01*
X166706114Y-86002857D01*
X166768371Y-85811249D01*
X166768372Y-85811247D01*
X166770037Y-85599267D01*
X166770037Y-85599264D01*
X166719568Y-85435216D01*
X166724178Y-85386450D01*
X166758117Y-85356529D01*
X166931071Y-85291175D01*
X166931072Y-85291174D01*
X167090265Y-85167691D01*
X167206113Y-85002856D01*
X167268370Y-84811248D01*
X167268371Y-84811246D01*
X167270036Y-84599266D01*
X167270036Y-84599263D01*
X167210794Y-84406698D01*
X167097554Y-84240068D01*
X167097551Y-84240066D01*
X166940319Y-84114098D01*
X166752996Y-84039932D01*
X166552146Y-84024124D01*
X166355522Y-84068075D01*
X166355520Y-84068076D01*
X166180526Y-84167891D01*
X166180521Y-84167895D01*
X166042605Y-84314760D01*
X165953970Y-84495688D01*
X165953969Y-84495692D01*
X165922453Y-84694678D01*
X165950841Y-84894142D01*
X165981814Y-84959961D01*
X165984121Y-85008890D01*
X165937866Y-85049670D01*
X165855523Y-85068076D01*
X165855521Y-85068077D01*
X165680527Y-85167892D01*
X165680522Y-85167896D01*
X165542606Y-85314761D01*
X165453971Y-85495689D01*
X165453970Y-85495693D01*
X165422454Y-85694679D01*
X152591271Y-85694679D01*
X152452997Y-85639933D01*
X152252147Y-85624125D01*
X152055523Y-85668076D01*
X152055521Y-85668077D01*
X151880527Y-85767892D01*
X151880522Y-85767896D01*
X151742606Y-85914761D01*
X151653971Y-86095689D01*
X151653970Y-86095693D01*
X151622454Y-86294679D01*
X142868627Y-86294679D01*
X142810795Y-86106699D01*
X142697555Y-85940069D01*
X142697552Y-85940067D01*
X142540320Y-85814099D01*
X142352997Y-85739933D01*
X142152147Y-85724125D01*
X141955523Y-85768076D01*
X141955521Y-85768077D01*
X141780527Y-85867892D01*
X141780522Y-85867896D01*
X141642606Y-86014761D01*
X141553971Y-86195689D01*
X141553970Y-86195693D01*
X141522454Y-86394679D01*
X118800000Y-86394679D01*
X118800000Y-86068541D01*
X118818745Y-86023286D01*
X118864000Y-86004541D01*
X118921909Y-86041291D01*
X118938011Y-86075508D01*
X119073267Y-86224155D01*
X119073270Y-86224157D01*
X119246252Y-86326458D01*
X119246258Y-86326461D01*
X119441681Y-86373378D01*
X119642261Y-86360758D01*
X119642260Y-86360758D01*
X119830257Y-86289720D01*
X119830258Y-86289719D01*
X119989059Y-86166541D01*
X120104622Y-86002111D01*
X120166726Y-85810975D01*
X120166727Y-85810974D01*
X120168387Y-85599515D01*
X120168387Y-85599512D01*
X120109292Y-85407421D01*
X119996330Y-85241201D01*
X119996327Y-85241199D01*
X119839482Y-85115541D01*
X119652621Y-85041558D01*
X119452265Y-85025789D01*
X119256126Y-85069631D01*
X119081558Y-85169204D01*
X119081555Y-85169206D01*
X118943979Y-85315708D01*
X118921474Y-85361647D01*
X118884731Y-85394040D01*
X118835844Y-85390965D01*
X118800000Y-85333491D01*
X118800000Y-83494679D01*
X124322454Y-83494679D01*
X124350842Y-83694143D01*
X124436624Y-83876435D01*
X124509890Y-83956953D01*
X124526483Y-84003040D01*
X124509208Y-84043837D01*
X124442607Y-84114759D01*
X124353971Y-84295689D01*
X124353970Y-84295693D01*
X124322454Y-84494679D01*
X124350842Y-84694143D01*
X124436624Y-84876435D01*
X124509890Y-84956953D01*
X124526483Y-85003040D01*
X124509208Y-85043837D01*
X124442607Y-85114759D01*
X124353971Y-85295689D01*
X124353970Y-85295693D01*
X124322454Y-85494679D01*
X124350842Y-85694143D01*
X124436622Y-85876433D01*
X124572217Y-86025450D01*
X124745628Y-86128006D01*
X124745632Y-86128007D01*
X124941537Y-86175040D01*
X125142610Y-86162388D01*
X125142618Y-86162387D01*
X125331073Y-86091176D01*
X125331073Y-86091175D01*
X125490266Y-85967692D01*
X125606114Y-85802857D01*
X125668371Y-85611249D01*
X125668372Y-85611247D01*
X125670037Y-85399267D01*
X125670037Y-85399264D01*
X125610795Y-85206699D01*
X125494864Y-85036110D01*
X125496831Y-85034773D01*
X125482649Y-84996327D01*
X125494238Y-84962042D01*
X125606114Y-84802858D01*
X125668371Y-84611249D01*
X125668372Y-84611247D01*
X125670037Y-84399267D01*
X125670037Y-84399264D01*
X125610795Y-84206699D01*
X125494864Y-84036110D01*
X125496831Y-84034773D01*
X125482649Y-83996327D01*
X125494238Y-83962042D01*
X125541581Y-83894679D01*
X159122454Y-83894679D01*
X159150842Y-84094143D01*
X159236624Y-84276435D01*
X159309890Y-84356953D01*
X159326483Y-84403040D01*
X159309208Y-84443837D01*
X159242607Y-84514759D01*
X159153971Y-84695689D01*
X159153970Y-84695693D01*
X159122454Y-84894679D01*
X159150842Y-85094143D01*
X159236622Y-85276433D01*
X159372217Y-85425450D01*
X159545628Y-85528006D01*
X159545632Y-85528007D01*
X159741537Y-85575040D01*
X159942610Y-85562388D01*
X159942618Y-85562387D01*
X160131073Y-85491176D01*
X160131073Y-85491175D01*
X160290266Y-85367692D01*
X160406114Y-85202857D01*
X160468371Y-85011249D01*
X160468372Y-85011247D01*
X160470037Y-84799267D01*
X160470037Y-84799264D01*
X160410795Y-84606699D01*
X160294864Y-84436110D01*
X160296831Y-84434773D01*
X160282649Y-84396327D01*
X160294238Y-84362042D01*
X160406114Y-84202858D01*
X160468371Y-84011249D01*
X160468372Y-84011247D01*
X160470037Y-83799267D01*
X160470037Y-83799264D01*
X160410795Y-83606699D01*
X160297555Y-83440069D01*
X160297552Y-83440067D01*
X160140320Y-83314099D01*
X159952997Y-83239933D01*
X159752147Y-83224125D01*
X159555523Y-83268076D01*
X159555521Y-83268077D01*
X159380527Y-83367892D01*
X159380522Y-83367896D01*
X159242606Y-83514761D01*
X159153971Y-83695689D01*
X159153970Y-83695693D01*
X159122454Y-83894679D01*
X125541581Y-83894679D01*
X125606114Y-83802858D01*
X125668371Y-83611249D01*
X125668372Y-83611247D01*
X125670037Y-83399267D01*
X125670037Y-83399264D01*
X125610795Y-83206699D01*
X125534677Y-83094692D01*
X139224122Y-83094692D01*
X139252440Y-83293665D01*
X139338010Y-83475508D01*
X139473267Y-83624155D01*
X139473270Y-83624157D01*
X139646252Y-83726458D01*
X139646258Y-83726461D01*
X139841681Y-83773378D01*
X140042261Y-83760758D01*
X140042260Y-83760758D01*
X140230257Y-83689720D01*
X140230258Y-83689719D01*
X140389059Y-83566541D01*
X140504622Y-83402111D01*
X140566726Y-83210975D01*
X140566727Y-83210974D01*
X140568387Y-82999515D01*
X140568387Y-82999512D01*
X140509292Y-82807421D01*
X140396330Y-82641201D01*
X140396327Y-82641199D01*
X140239482Y-82515541D01*
X140052621Y-82441558D01*
X139852265Y-82425789D01*
X139656126Y-82469631D01*
X139481558Y-82569204D01*
X139481555Y-82569206D01*
X139343979Y-82715708D01*
X139255561Y-82896192D01*
X139255560Y-82896197D01*
X139224122Y-83094692D01*
X125534677Y-83094692D01*
X125497555Y-83040069D01*
X125497552Y-83040067D01*
X125340320Y-82914099D01*
X125152997Y-82839933D01*
X124952147Y-82824125D01*
X124755523Y-82868076D01*
X124755521Y-82868077D01*
X124580527Y-82967892D01*
X124580522Y-82967896D01*
X124442606Y-83114761D01*
X124353971Y-83295689D01*
X124353970Y-83295693D01*
X124322454Y-83494679D01*
X118800000Y-83494679D01*
X118800000Y-80818015D01*
X118818745Y-80772760D01*
X118864000Y-80754015D01*
X118921909Y-80790765D01*
X118965460Y-80883315D01*
X119169968Y-81225026D01*
X119169985Y-81225050D01*
X119407432Y-81544773D01*
X119407438Y-81544780D01*
X119675482Y-81839357D01*
X119971430Y-82105829D01*
X119971459Y-82105853D01*
X120292418Y-82341621D01*
X120635225Y-82544357D01*
X120996462Y-82712037D01*
X120996470Y-82712040D01*
X121372579Y-82843016D01*
X121759850Y-82935991D01*
X122154428Y-82990041D01*
X122154432Y-82990042D01*
X122552428Y-83004635D01*
X122949902Y-82979628D01*
X123342944Y-82915264D01*
X123727618Y-82812190D01*
X123727646Y-82812181D01*
X124100169Y-82671417D01*
X124100171Y-82671417D01*
X124456915Y-82494328D01*
X124456917Y-82494327D01*
X124775161Y-82294692D01*
X146124122Y-82294692D01*
X146152440Y-82493665D01*
X146238010Y-82675508D01*
X146373267Y-82824155D01*
X146373270Y-82824157D01*
X146546252Y-82926458D01*
X146546258Y-82926461D01*
X146741681Y-82973378D01*
X146942261Y-82960758D01*
X146942260Y-82960758D01*
X147130257Y-82889720D01*
X147130258Y-82889719D01*
X147252766Y-82794692D01*
X149439122Y-82794692D01*
X149467440Y-82993665D01*
X149553010Y-83175508D01*
X149688267Y-83324155D01*
X149688270Y-83324157D01*
X149861252Y-83426458D01*
X149861258Y-83426461D01*
X150056681Y-83473378D01*
X150257261Y-83460758D01*
X150257260Y-83460758D01*
X150445257Y-83389720D01*
X150445258Y-83389719D01*
X150604059Y-83266541D01*
X150719622Y-83102111D01*
X150781726Y-82910975D01*
X150781727Y-82910974D01*
X150783387Y-82699515D01*
X150783387Y-82699512D01*
X150724292Y-82507421D01*
X150611330Y-82341201D01*
X150611327Y-82341199D01*
X150454482Y-82215541D01*
X150267621Y-82141558D01*
X150067265Y-82125789D01*
X149871126Y-82169631D01*
X149696558Y-82269204D01*
X149696555Y-82269206D01*
X149558979Y-82415708D01*
X149470561Y-82596192D01*
X149470560Y-82596197D01*
X149439122Y-82794692D01*
X147252766Y-82794692D01*
X147289059Y-82766541D01*
X147404622Y-82602111D01*
X147466726Y-82410975D01*
X147466727Y-82410974D01*
X147468387Y-82199515D01*
X147468387Y-82199512D01*
X147409292Y-82007421D01*
X147296330Y-81841201D01*
X147296327Y-81841199D01*
X147139482Y-81715541D01*
X146952621Y-81641558D01*
X146752265Y-81625789D01*
X146556126Y-81669631D01*
X146381558Y-81769204D01*
X146381555Y-81769206D01*
X146243979Y-81915708D01*
X146155561Y-82096192D01*
X146155560Y-82096197D01*
X146124122Y-82294692D01*
X124775161Y-82294692D01*
X124794301Y-82282686D01*
X125108990Y-82038588D01*
X125397871Y-81764451D01*
X125397881Y-81764440D01*
X125658114Y-81462958D01*
X125658116Y-81462956D01*
X125887119Y-81137117D01*
X126082632Y-80790139D01*
X126242714Y-80425462D01*
X126365785Y-80046689D01*
X126450627Y-79657562D01*
X126496404Y-79261930D01*
X126498292Y-79021408D01*
X128520000Y-79021408D01*
X128520000Y-79210592D01*
X128520001Y-79210601D01*
X128559333Y-79395641D01*
X128559336Y-79395650D01*
X128636285Y-79568481D01*
X128747483Y-79721531D01*
X128747484Y-79721532D01*
X128888080Y-79848126D01*
X129051920Y-79942718D01*
X129231854Y-80001183D01*
X129419996Y-80020957D01*
X129420004Y-80020957D01*
X129608147Y-80001183D01*
X129608146Y-80001183D01*
X129628162Y-79994679D01*
X131322454Y-79994679D01*
X131350842Y-80194143D01*
X131436622Y-80376433D01*
X131572217Y-80525450D01*
X131745628Y-80628006D01*
X131745632Y-80628007D01*
X131941537Y-80675040D01*
X132142610Y-80662388D01*
X132142618Y-80662387D01*
X132331073Y-80591176D01*
X132331073Y-80591175D01*
X132490268Y-80467690D01*
X132490269Y-80467690D01*
X132600191Y-80311287D01*
X132641549Y-80285040D01*
X132689352Y-80295726D01*
X132710461Y-80320837D01*
X132736623Y-80376433D01*
X132872217Y-80525450D01*
X133045628Y-80628006D01*
X133045632Y-80628007D01*
X133241537Y-80675040D01*
X133442610Y-80662388D01*
X133442618Y-80662387D01*
X133631073Y-80591176D01*
X133631073Y-80591175D01*
X133790266Y-80467692D01*
X133906114Y-80302857D01*
X133968371Y-80111249D01*
X133968372Y-80111247D01*
X133970037Y-79899267D01*
X133970037Y-79899264D01*
X133910795Y-79706699D01*
X133797555Y-79540069D01*
X133797552Y-79540067D01*
X133717001Y-79475532D01*
X137347547Y-79475532D01*
X137347547Y-79475537D01*
X137380610Y-79684292D01*
X137451161Y-79883519D01*
X137556840Y-80066562D01*
X137694107Y-80227278D01*
X137858358Y-80360287D01*
X138044100Y-80461136D01*
X138245113Y-80526448D01*
X138245117Y-80526449D01*
X138454660Y-80554036D01*
X138665716Y-80542975D01*
X138665724Y-80542974D01*
X138871237Y-80493635D01*
X139064323Y-80407667D01*
X139238505Y-80287955D01*
X139387955Y-80138505D01*
X139507667Y-79964323D01*
X139593635Y-79771237D01*
X139642974Y-79565724D01*
X139645335Y-79475532D01*
X139887547Y-79475532D01*
X139887547Y-79475537D01*
X139920610Y-79684292D01*
X139991161Y-79883519D01*
X140096840Y-80066562D01*
X140234107Y-80227278D01*
X140398358Y-80360287D01*
X140584100Y-80461136D01*
X140785113Y-80526448D01*
X140785117Y-80526449D01*
X140994660Y-80554036D01*
X141205716Y-80542975D01*
X141205724Y-80542974D01*
X141411237Y-80493635D01*
X141604323Y-80407667D01*
X141778505Y-80287955D01*
X141927955Y-80138505D01*
X142047667Y-79964323D01*
X142133635Y-79771237D01*
X142182974Y-79565724D01*
X142185335Y-79475532D01*
X142427547Y-79475532D01*
X142427547Y-79475537D01*
X142460610Y-79684292D01*
X142531161Y-79883519D01*
X142636840Y-80066562D01*
X142774107Y-80227278D01*
X142938358Y-80360287D01*
X143124100Y-80461136D01*
X143325113Y-80526448D01*
X143325117Y-80526449D01*
X143534660Y-80554036D01*
X143745716Y-80542975D01*
X143745724Y-80542974D01*
X143951237Y-80493635D01*
X144144323Y-80407667D01*
X144318505Y-80287955D01*
X144467955Y-80138505D01*
X144587667Y-79964323D01*
X144673635Y-79771237D01*
X144722974Y-79565724D01*
X144725335Y-79475532D01*
X144967547Y-79475532D01*
X144967547Y-79475537D01*
X145000610Y-79684292D01*
X145071161Y-79883519D01*
X145176840Y-80066562D01*
X145314107Y-80227278D01*
X145478358Y-80360287D01*
X145664100Y-80461136D01*
X145865113Y-80526448D01*
X145865117Y-80526449D01*
X146074660Y-80554036D01*
X146285716Y-80542975D01*
X146285724Y-80542974D01*
X146491237Y-80493635D01*
X146684323Y-80407667D01*
X146858505Y-80287955D01*
X147007955Y-80138505D01*
X147127667Y-79964323D01*
X147213635Y-79771237D01*
X147262974Y-79565724D01*
X147265335Y-79475532D01*
X147507547Y-79475532D01*
X147507547Y-79475537D01*
X147540610Y-79684292D01*
X147611161Y-79883519D01*
X147716840Y-80066562D01*
X147854107Y-80227278D01*
X148018358Y-80360287D01*
X148204100Y-80461136D01*
X148405113Y-80526448D01*
X148405117Y-80526449D01*
X148614660Y-80554036D01*
X148825716Y-80542975D01*
X148825724Y-80542974D01*
X149031237Y-80493635D01*
X149224323Y-80407667D01*
X149398505Y-80287955D01*
X149547955Y-80138505D01*
X149667667Y-79964323D01*
X149753635Y-79771237D01*
X149802974Y-79565724D01*
X149805335Y-79475532D01*
X150047547Y-79475532D01*
X150047547Y-79475537D01*
X150080610Y-79684292D01*
X150151161Y-79883519D01*
X150256840Y-80066562D01*
X150394107Y-80227278D01*
X150558358Y-80360287D01*
X150744100Y-80461136D01*
X150945113Y-80526448D01*
X150945117Y-80526449D01*
X151154660Y-80554036D01*
X151365716Y-80542975D01*
X151365724Y-80542974D01*
X151571237Y-80493635D01*
X151764323Y-80407667D01*
X151938505Y-80287955D01*
X152087955Y-80138505D01*
X152207667Y-79964323D01*
X152293635Y-79771237D01*
X152342974Y-79565724D01*
X152345335Y-79475532D01*
X152587547Y-79475532D01*
X152587547Y-79475537D01*
X152620610Y-79684292D01*
X152691161Y-79883519D01*
X152796840Y-80066562D01*
X152934107Y-80227278D01*
X153098358Y-80360287D01*
X153284100Y-80461136D01*
X153485113Y-80526448D01*
X153485117Y-80526449D01*
X153694660Y-80554036D01*
X153905716Y-80542975D01*
X153905724Y-80542974D01*
X154111237Y-80493635D01*
X154304323Y-80407667D01*
X154478505Y-80287955D01*
X154627955Y-80138505D01*
X154747667Y-79964323D01*
X154833635Y-79771237D01*
X154882974Y-79565724D01*
X154890081Y-79294322D01*
X154890081Y-79294317D01*
X154851567Y-79086511D01*
X154851565Y-79086506D01*
X154775823Y-78889192D01*
X154665389Y-78708979D01*
X154665385Y-78708973D01*
X154523970Y-78551917D01*
X154523969Y-78551915D01*
X154356285Y-78423247D01*
X154356279Y-78423244D01*
X154167980Y-78327300D01*
X154167960Y-78327292D01*
X153965318Y-78267266D01*
X153965313Y-78267265D01*
X153755120Y-78245173D01*
X153544408Y-78261757D01*
X153544405Y-78261758D01*
X153340261Y-78316457D01*
X153340258Y-78316459D01*
X153149493Y-78407449D01*
X153149494Y-78407449D01*
X152978503Y-78531682D01*
X152833016Y-78684994D01*
X152717905Y-78862250D01*
X152717905Y-78862251D01*
X152637026Y-79057509D01*
X152637021Y-79057526D01*
X152593080Y-79264250D01*
X152593079Y-79264255D01*
X152587547Y-79475532D01*
X152345335Y-79475532D01*
X152350081Y-79294322D01*
X152350081Y-79294317D01*
X152311567Y-79086511D01*
X152311565Y-79086506D01*
X152235823Y-78889192D01*
X152125389Y-78708979D01*
X152125385Y-78708973D01*
X151983970Y-78551917D01*
X151983969Y-78551915D01*
X151816285Y-78423247D01*
X151816279Y-78423244D01*
X151627980Y-78327300D01*
X151627960Y-78327292D01*
X151425318Y-78267266D01*
X151425313Y-78267265D01*
X151215121Y-78245173D01*
X151004408Y-78261757D01*
X151004405Y-78261758D01*
X150800261Y-78316457D01*
X150800258Y-78316459D01*
X150609493Y-78407449D01*
X150438503Y-78531682D01*
X150293016Y-78684994D01*
X150177905Y-78862250D01*
X150177905Y-78862251D01*
X150097026Y-79057509D01*
X150097021Y-79057526D01*
X150053080Y-79264250D01*
X150053079Y-79264255D01*
X150047547Y-79475532D01*
X149805335Y-79475532D01*
X149810081Y-79294322D01*
X149810081Y-79294317D01*
X149771567Y-79086511D01*
X149771565Y-79086506D01*
X149695823Y-78889192D01*
X149585389Y-78708979D01*
X149585385Y-78708973D01*
X149443970Y-78551917D01*
X149443969Y-78551915D01*
X149276285Y-78423247D01*
X149276279Y-78423244D01*
X149087980Y-78327300D01*
X149087960Y-78327292D01*
X148885318Y-78267266D01*
X148885313Y-78267265D01*
X148675120Y-78245173D01*
X148464408Y-78261757D01*
X148464405Y-78261758D01*
X148260261Y-78316457D01*
X148260258Y-78316459D01*
X148069493Y-78407449D01*
X148069494Y-78407449D01*
X147898503Y-78531682D01*
X147753016Y-78684994D01*
X147637905Y-78862250D01*
X147637905Y-78862251D01*
X147557026Y-79057509D01*
X147557021Y-79057526D01*
X147513080Y-79264250D01*
X147513079Y-79264255D01*
X147507547Y-79475532D01*
X147265335Y-79475532D01*
X147270081Y-79294322D01*
X147270081Y-79294317D01*
X147231567Y-79086511D01*
X147231565Y-79086506D01*
X147155823Y-78889192D01*
X147045389Y-78708979D01*
X147045385Y-78708973D01*
X146903970Y-78551917D01*
X146903969Y-78551915D01*
X146736285Y-78423247D01*
X146736279Y-78423244D01*
X146547980Y-78327300D01*
X146547960Y-78327292D01*
X146345318Y-78267266D01*
X146345313Y-78267265D01*
X146135120Y-78245173D01*
X145924408Y-78261757D01*
X145924405Y-78261758D01*
X145720261Y-78316457D01*
X145720258Y-78316459D01*
X145529493Y-78407449D01*
X145529494Y-78407449D01*
X145358503Y-78531682D01*
X145213016Y-78684994D01*
X145097905Y-78862250D01*
X145097905Y-78862251D01*
X145017026Y-79057509D01*
X145017021Y-79057526D01*
X144973080Y-79264250D01*
X144973079Y-79264255D01*
X144967547Y-79475532D01*
X144725335Y-79475532D01*
X144730081Y-79294322D01*
X144730081Y-79294317D01*
X144691567Y-79086511D01*
X144691565Y-79086506D01*
X144615823Y-78889192D01*
X144505389Y-78708979D01*
X144505385Y-78708973D01*
X144363970Y-78551917D01*
X144363969Y-78551915D01*
X144196285Y-78423247D01*
X144196279Y-78423244D01*
X144007980Y-78327300D01*
X144007960Y-78327292D01*
X143805318Y-78267266D01*
X143805313Y-78267265D01*
X143595120Y-78245173D01*
X143384408Y-78261757D01*
X143384405Y-78261758D01*
X143180261Y-78316457D01*
X143180258Y-78316459D01*
X142989493Y-78407449D01*
X142989494Y-78407449D01*
X142818503Y-78531682D01*
X142673016Y-78684994D01*
X142557905Y-78862250D01*
X142557905Y-78862251D01*
X142477026Y-79057509D01*
X142477021Y-79057526D01*
X142433080Y-79264250D01*
X142433079Y-79264255D01*
X142427547Y-79475532D01*
X142185335Y-79475532D01*
X142190081Y-79294322D01*
X142190081Y-79294317D01*
X142151567Y-79086511D01*
X142151565Y-79086506D01*
X142075823Y-78889192D01*
X141965389Y-78708979D01*
X141965385Y-78708973D01*
X141823970Y-78551917D01*
X141823969Y-78551915D01*
X141656285Y-78423247D01*
X141656279Y-78423244D01*
X141467980Y-78327300D01*
X141467960Y-78327292D01*
X141265318Y-78267266D01*
X141265313Y-78267265D01*
X141055120Y-78245173D01*
X140844408Y-78261757D01*
X140844405Y-78261758D01*
X140640261Y-78316457D01*
X140640258Y-78316459D01*
X140449493Y-78407449D01*
X140449494Y-78407449D01*
X140278503Y-78531682D01*
X140133016Y-78684994D01*
X140017905Y-78862250D01*
X140017905Y-78862251D01*
X139937026Y-79057509D01*
X139937021Y-79057526D01*
X139893080Y-79264250D01*
X139893079Y-79264255D01*
X139887547Y-79475532D01*
X139645335Y-79475532D01*
X139650081Y-79294322D01*
X139650081Y-79294317D01*
X139611567Y-79086511D01*
X139611565Y-79086506D01*
X139535823Y-78889192D01*
X139425389Y-78708979D01*
X139425385Y-78708973D01*
X139283970Y-78551917D01*
X139283969Y-78551915D01*
X139116285Y-78423247D01*
X139116279Y-78423244D01*
X138927980Y-78327300D01*
X138927960Y-78327292D01*
X138725318Y-78267266D01*
X138725313Y-78267265D01*
X138515120Y-78245173D01*
X138304408Y-78261757D01*
X138304405Y-78261758D01*
X138100261Y-78316457D01*
X138100258Y-78316459D01*
X137909493Y-78407449D01*
X137909494Y-78407449D01*
X137738503Y-78531682D01*
X137593016Y-78684994D01*
X137477905Y-78862250D01*
X137477905Y-78862251D01*
X137397026Y-79057509D01*
X137397021Y-79057526D01*
X137353080Y-79264250D01*
X137353079Y-79264255D01*
X137347547Y-79475532D01*
X133717001Y-79475532D01*
X133640320Y-79414099D01*
X133452997Y-79339933D01*
X133252147Y-79324125D01*
X133055523Y-79368076D01*
X133055521Y-79368077D01*
X132880527Y-79467892D01*
X132880522Y-79467896D01*
X132742606Y-79614761D01*
X132709693Y-79681946D01*
X132672950Y-79714339D01*
X132624063Y-79711264D01*
X132599286Y-79689763D01*
X132497555Y-79540069D01*
X132497552Y-79540067D01*
X132340320Y-79414099D01*
X132152997Y-79339933D01*
X131952147Y-79324125D01*
X131755523Y-79368076D01*
X131755521Y-79368077D01*
X131580527Y-79467892D01*
X131580522Y-79467896D01*
X131442606Y-79614761D01*
X131353971Y-79795689D01*
X131353970Y-79795693D01*
X131322454Y-79994679D01*
X129628162Y-79994679D01*
X129788080Y-79942718D01*
X129951920Y-79848126D01*
X129951921Y-79848126D01*
X130092516Y-79721532D01*
X130092517Y-79721531D01*
X130203715Y-79568481D01*
X130280664Y-79395650D01*
X130280667Y-79395641D01*
X130319999Y-79210601D01*
X130320000Y-79210592D01*
X130320000Y-79021408D01*
X130319999Y-79021399D01*
X130280667Y-78836359D01*
X130280664Y-78836350D01*
X130203715Y-78663519D01*
X130092517Y-78510469D01*
X130092516Y-78510468D01*
X129951921Y-78383874D01*
X129951920Y-78383874D01*
X129788080Y-78289282D01*
X129608146Y-78230817D01*
X129608147Y-78230817D01*
X129420004Y-78211043D01*
X129419996Y-78211043D01*
X129231854Y-78230817D01*
X129051920Y-78289282D01*
X128888080Y-78383874D01*
X128747484Y-78510468D01*
X128747483Y-78510469D01*
X128636285Y-78663519D01*
X128559336Y-78836350D01*
X128559333Y-78836359D01*
X128520001Y-79021399D01*
X128520000Y-79021408D01*
X126498292Y-79021408D01*
X126500024Y-78800877D01*
X126460468Y-78404569D01*
X126460465Y-78404551D01*
X126381753Y-78014181D01*
X126381745Y-78014152D01*
X126379055Y-78005408D01*
X133600000Y-78005408D01*
X133600000Y-78194592D01*
X133600001Y-78194601D01*
X133639333Y-78379641D01*
X133639336Y-78379650D01*
X133716285Y-78552481D01*
X133827483Y-78705531D01*
X133827484Y-78705532D01*
X133968080Y-78832126D01*
X134131920Y-78926718D01*
X134311854Y-78985183D01*
X134499996Y-79004957D01*
X134500004Y-79004957D01*
X134688147Y-78985183D01*
X134688146Y-78985183D01*
X134868080Y-78926718D01*
X135031920Y-78832126D01*
X135031921Y-78832126D01*
X135172516Y-78705532D01*
X135172517Y-78705531D01*
X135283715Y-78552481D01*
X135360664Y-78379650D01*
X135360667Y-78379641D01*
X135399999Y-78194601D01*
X135400000Y-78194592D01*
X135400000Y-78005408D01*
X135399999Y-78005399D01*
X135360667Y-77820359D01*
X135360664Y-77820350D01*
X135283715Y-77647519D01*
X135172517Y-77494469D01*
X135172516Y-77494468D01*
X135031921Y-77367874D01*
X135031920Y-77367874D01*
X134868080Y-77273282D01*
X134688146Y-77214817D01*
X134688147Y-77214817D01*
X134500004Y-77195043D01*
X134499996Y-77195043D01*
X134311854Y-77214817D01*
X134131920Y-77273282D01*
X133968080Y-77367874D01*
X133827484Y-77494468D01*
X133827483Y-77494469D01*
X133716285Y-77647519D01*
X133639336Y-77820350D01*
X133639333Y-77820359D01*
X133600001Y-78005399D01*
X133600000Y-78005408D01*
X126379055Y-78005408D01*
X126264643Y-77633506D01*
X126264640Y-77633498D01*
X126110307Y-77266352D01*
X125959940Y-76989408D01*
X128520000Y-76989408D01*
X128520000Y-77178592D01*
X128520001Y-77178601D01*
X128559333Y-77363641D01*
X128559336Y-77363650D01*
X128636285Y-77536481D01*
X128747483Y-77689531D01*
X128747484Y-77689532D01*
X128888080Y-77816126D01*
X129051920Y-77910718D01*
X129231854Y-77969183D01*
X129419996Y-77988957D01*
X129420004Y-77988957D01*
X129608147Y-77969183D01*
X129608146Y-77969183D01*
X129788080Y-77910718D01*
X129951920Y-77816126D01*
X129951921Y-77816126D01*
X130092516Y-77689532D01*
X130092517Y-77689531D01*
X130203715Y-77536481D01*
X130280664Y-77363650D01*
X130280667Y-77363641D01*
X130319999Y-77178601D01*
X130320000Y-77178592D01*
X130320000Y-76989408D01*
X130319999Y-76989397D01*
X130302945Y-76909165D01*
X130311871Y-76861002D01*
X130352240Y-76833258D01*
X130398125Y-76840772D01*
X130545628Y-76928006D01*
X130545632Y-76928007D01*
X130741537Y-76975040D01*
X130942610Y-76962388D01*
X130942618Y-76962387D01*
X131131073Y-76891176D01*
X131131073Y-76891175D01*
X131290267Y-76767691D01*
X131344300Y-76690811D01*
X131385658Y-76664565D01*
X131443997Y-76684539D01*
X131572213Y-76825447D01*
X131572217Y-76825450D01*
X131745628Y-76928006D01*
X131745632Y-76928007D01*
X131941537Y-76975040D01*
X132142610Y-76962388D01*
X132142618Y-76962387D01*
X132213687Y-76935532D01*
X137347547Y-76935532D01*
X137347547Y-76935537D01*
X137380610Y-77144292D01*
X137451161Y-77343519D01*
X137556840Y-77526562D01*
X137694107Y-77687278D01*
X137858358Y-77820287D01*
X138044100Y-77921136D01*
X138245113Y-77986448D01*
X138245117Y-77986449D01*
X138454660Y-78014036D01*
X138665716Y-78002975D01*
X138665724Y-78002974D01*
X138871237Y-77953635D01*
X139064323Y-77867667D01*
X139238505Y-77747955D01*
X139387955Y-77598505D01*
X139507667Y-77424323D01*
X139593635Y-77231237D01*
X139642974Y-77025724D01*
X139645335Y-76935532D01*
X139887547Y-76935532D01*
X139887547Y-76935537D01*
X139920610Y-77144292D01*
X139991161Y-77343519D01*
X140096840Y-77526562D01*
X140234107Y-77687278D01*
X140398358Y-77820287D01*
X140584100Y-77921136D01*
X140785113Y-77986448D01*
X140785117Y-77986449D01*
X140994660Y-78014036D01*
X141205716Y-78002975D01*
X141205724Y-78002974D01*
X141411237Y-77953635D01*
X141604323Y-77867667D01*
X141778505Y-77747955D01*
X141927955Y-77598505D01*
X142047667Y-77424323D01*
X142133635Y-77231237D01*
X142182974Y-77025724D01*
X142185335Y-76935532D01*
X142427547Y-76935532D01*
X142427547Y-76935537D01*
X142460610Y-77144292D01*
X142531161Y-77343519D01*
X142636840Y-77526562D01*
X142774107Y-77687278D01*
X142938358Y-77820287D01*
X143124100Y-77921136D01*
X143325113Y-77986448D01*
X143325117Y-77986449D01*
X143534660Y-78014036D01*
X143745716Y-78002975D01*
X143745724Y-78002974D01*
X143951237Y-77953635D01*
X144144323Y-77867667D01*
X144318505Y-77747955D01*
X144467955Y-77598505D01*
X144587667Y-77424323D01*
X144673635Y-77231237D01*
X144722974Y-77025724D01*
X144725335Y-76935532D01*
X144967547Y-76935532D01*
X144967547Y-76935537D01*
X145000610Y-77144292D01*
X145071161Y-77343519D01*
X145176840Y-77526562D01*
X145314107Y-77687278D01*
X145478358Y-77820287D01*
X145664100Y-77921136D01*
X145865113Y-77986448D01*
X145865117Y-77986449D01*
X146074660Y-78014036D01*
X146285716Y-78002975D01*
X146285724Y-78002974D01*
X146491237Y-77953635D01*
X146684323Y-77867667D01*
X146858505Y-77747955D01*
X147007955Y-77598505D01*
X147127667Y-77424323D01*
X147213635Y-77231237D01*
X147262974Y-77025724D01*
X147265335Y-76935532D01*
X147507547Y-76935532D01*
X147507547Y-76935537D01*
X147540610Y-77144292D01*
X147611161Y-77343519D01*
X147716840Y-77526562D01*
X147854107Y-77687278D01*
X148018358Y-77820287D01*
X148204100Y-77921136D01*
X148405113Y-77986448D01*
X148405117Y-77986449D01*
X148614660Y-78014036D01*
X148825716Y-78002975D01*
X148825724Y-78002974D01*
X149031237Y-77953635D01*
X149224323Y-77867667D01*
X149398505Y-77747955D01*
X149547955Y-77598505D01*
X149667667Y-77424323D01*
X149753635Y-77231237D01*
X149802974Y-77025724D01*
X149805335Y-76935532D01*
X150047547Y-76935532D01*
X150047547Y-76935537D01*
X150080610Y-77144292D01*
X150151161Y-77343519D01*
X150256840Y-77526562D01*
X150394107Y-77687278D01*
X150558358Y-77820287D01*
X150744100Y-77921136D01*
X150945113Y-77986448D01*
X150945117Y-77986449D01*
X151154660Y-78014036D01*
X151365716Y-78002975D01*
X151365724Y-78002974D01*
X151571237Y-77953635D01*
X151764323Y-77867667D01*
X151938505Y-77747955D01*
X152087955Y-77598505D01*
X152207667Y-77424323D01*
X152293635Y-77231237D01*
X152342974Y-77025724D01*
X152345335Y-76935532D01*
X152587547Y-76935532D01*
X152587547Y-76935537D01*
X152620610Y-77144292D01*
X152691161Y-77343519D01*
X152796840Y-77526562D01*
X152934107Y-77687278D01*
X153098358Y-77820287D01*
X153284100Y-77921136D01*
X153485113Y-77986448D01*
X153485117Y-77986449D01*
X153694660Y-78014036D01*
X153905716Y-78002975D01*
X153905724Y-78002974D01*
X154111237Y-77953635D01*
X154304323Y-77867667D01*
X154478505Y-77747955D01*
X154627955Y-77598505D01*
X154747667Y-77424323D01*
X154833635Y-77231237D01*
X154882974Y-77025724D01*
X154890081Y-76754322D01*
X154890081Y-76754317D01*
X154851567Y-76546511D01*
X154851565Y-76546506D01*
X154775823Y-76349192D01*
X154665389Y-76168979D01*
X154665385Y-76168973D01*
X154523970Y-76011917D01*
X154523969Y-76011915D01*
X154356285Y-75883247D01*
X154356279Y-75883244D01*
X154167980Y-75787300D01*
X154167960Y-75787292D01*
X153965318Y-75727266D01*
X153965313Y-75727265D01*
X153755120Y-75705173D01*
X153544408Y-75721757D01*
X153544405Y-75721758D01*
X153340261Y-75776457D01*
X153340258Y-75776459D01*
X153149493Y-75867449D01*
X153149494Y-75867449D01*
X152978503Y-75991682D01*
X152833016Y-76144994D01*
X152717905Y-76322250D01*
X152717905Y-76322251D01*
X152637026Y-76517509D01*
X152637021Y-76517526D01*
X152593080Y-76724250D01*
X152593079Y-76724255D01*
X152587547Y-76935532D01*
X152345335Y-76935532D01*
X152350081Y-76754322D01*
X152350081Y-76754317D01*
X152311567Y-76546511D01*
X152311565Y-76546506D01*
X152235823Y-76349192D01*
X152125389Y-76168979D01*
X152125385Y-76168973D01*
X151983970Y-76011917D01*
X151983969Y-76011915D01*
X151816285Y-75883247D01*
X151816279Y-75883244D01*
X151627980Y-75787300D01*
X151627960Y-75787292D01*
X151425318Y-75727266D01*
X151425313Y-75727265D01*
X151215121Y-75705173D01*
X151004408Y-75721757D01*
X151004405Y-75721758D01*
X150800261Y-75776457D01*
X150800258Y-75776459D01*
X150609493Y-75867449D01*
X150438503Y-75991682D01*
X150293016Y-76144994D01*
X150177905Y-76322250D01*
X150177905Y-76322251D01*
X150097026Y-76517509D01*
X150097021Y-76517526D01*
X150053080Y-76724250D01*
X150053079Y-76724255D01*
X150047547Y-76935532D01*
X149805335Y-76935532D01*
X149810081Y-76754322D01*
X149810081Y-76754317D01*
X149771567Y-76546511D01*
X149771565Y-76546506D01*
X149695823Y-76349192D01*
X149585389Y-76168979D01*
X149585385Y-76168973D01*
X149443970Y-76011917D01*
X149443969Y-76011915D01*
X149276285Y-75883247D01*
X149276279Y-75883244D01*
X149087980Y-75787300D01*
X149087960Y-75787292D01*
X148885318Y-75727266D01*
X148885313Y-75727265D01*
X148675120Y-75705173D01*
X148464408Y-75721757D01*
X148464405Y-75721758D01*
X148260261Y-75776457D01*
X148260258Y-75776459D01*
X148069493Y-75867449D01*
X148069494Y-75867449D01*
X147898503Y-75991682D01*
X147753016Y-76144994D01*
X147637905Y-76322250D01*
X147637905Y-76322251D01*
X147557026Y-76517509D01*
X147557021Y-76517526D01*
X147513080Y-76724250D01*
X147513079Y-76724255D01*
X147507547Y-76935532D01*
X147265335Y-76935532D01*
X147270081Y-76754322D01*
X147270081Y-76754317D01*
X147231567Y-76546511D01*
X147231565Y-76546506D01*
X147155823Y-76349192D01*
X147045389Y-76168979D01*
X147045385Y-76168973D01*
X146903970Y-76011917D01*
X146903969Y-76011915D01*
X146736285Y-75883247D01*
X146736279Y-75883244D01*
X146547980Y-75787300D01*
X146547960Y-75787292D01*
X146345318Y-75727266D01*
X146345313Y-75727265D01*
X146135120Y-75705173D01*
X145924408Y-75721757D01*
X145924405Y-75721758D01*
X145720261Y-75776457D01*
X145720258Y-75776459D01*
X145529493Y-75867449D01*
X145529494Y-75867449D01*
X145358503Y-75991682D01*
X145213016Y-76144994D01*
X145097905Y-76322250D01*
X145097905Y-76322251D01*
X145017026Y-76517509D01*
X145017021Y-76517526D01*
X144973080Y-76724250D01*
X144973079Y-76724255D01*
X144967547Y-76935532D01*
X144725335Y-76935532D01*
X144730081Y-76754322D01*
X144730081Y-76754317D01*
X144691567Y-76546511D01*
X144691565Y-76546506D01*
X144615823Y-76349192D01*
X144505389Y-76168979D01*
X144505385Y-76168973D01*
X144363970Y-76011917D01*
X144363969Y-76011915D01*
X144196285Y-75883247D01*
X144196279Y-75883244D01*
X144007980Y-75787300D01*
X144007960Y-75787292D01*
X143805318Y-75727266D01*
X143805313Y-75727265D01*
X143595120Y-75705173D01*
X143384408Y-75721757D01*
X143384405Y-75721758D01*
X143180261Y-75776457D01*
X143180258Y-75776459D01*
X142989493Y-75867449D01*
X142989494Y-75867449D01*
X142818503Y-75991682D01*
X142673016Y-76144994D01*
X142557905Y-76322250D01*
X142557905Y-76322251D01*
X142477026Y-76517509D01*
X142477021Y-76517526D01*
X142433080Y-76724250D01*
X142433079Y-76724255D01*
X142427547Y-76935532D01*
X142185335Y-76935532D01*
X142190081Y-76754322D01*
X142190081Y-76754317D01*
X142151567Y-76546511D01*
X142151565Y-76546506D01*
X142075823Y-76349192D01*
X141965389Y-76168979D01*
X141965385Y-76168973D01*
X141823970Y-76011917D01*
X141823969Y-76011915D01*
X141656285Y-75883247D01*
X141656279Y-75883244D01*
X141467980Y-75787300D01*
X141467960Y-75787292D01*
X141265318Y-75727266D01*
X141265313Y-75727265D01*
X141055120Y-75705173D01*
X140844408Y-75721757D01*
X140844405Y-75721758D01*
X140640261Y-75776457D01*
X140640258Y-75776459D01*
X140449493Y-75867449D01*
X140449494Y-75867449D01*
X140278503Y-75991682D01*
X140133016Y-76144994D01*
X140017905Y-76322250D01*
X140017905Y-76322251D01*
X139937026Y-76517509D01*
X139937021Y-76517526D01*
X139893080Y-76724250D01*
X139893079Y-76724255D01*
X139887547Y-76935532D01*
X139645335Y-76935532D01*
X139650081Y-76754322D01*
X139650081Y-76754317D01*
X139611567Y-76546511D01*
X139611565Y-76546506D01*
X139535823Y-76349192D01*
X139425389Y-76168979D01*
X139425385Y-76168973D01*
X139283970Y-76011917D01*
X139283969Y-76011915D01*
X139116285Y-75883247D01*
X139116279Y-75883244D01*
X138927980Y-75787300D01*
X138927960Y-75787292D01*
X138725318Y-75727266D01*
X138725313Y-75727265D01*
X138515120Y-75705173D01*
X138304408Y-75721757D01*
X138304405Y-75721758D01*
X138100261Y-75776457D01*
X138100258Y-75776459D01*
X137909493Y-75867449D01*
X137909494Y-75867449D01*
X137738503Y-75991682D01*
X137593016Y-76144994D01*
X137477905Y-76322250D01*
X137477905Y-76322251D01*
X137397026Y-76517509D01*
X137397021Y-76517526D01*
X137353080Y-76724250D01*
X137353079Y-76724255D01*
X137347547Y-76935532D01*
X132213687Y-76935532D01*
X132331073Y-76891176D01*
X132331073Y-76891175D01*
X132490266Y-76767692D01*
X132606114Y-76602857D01*
X132668371Y-76411249D01*
X132668372Y-76411247D01*
X132670037Y-76199267D01*
X132670037Y-76199264D01*
X132610795Y-76006699D01*
X132497555Y-75840069D01*
X132497552Y-75840067D01*
X132340320Y-75714099D01*
X132152997Y-75639933D01*
X131952147Y-75624125D01*
X131755523Y-75668076D01*
X131755521Y-75668077D01*
X131580527Y-75767892D01*
X131580522Y-75767896D01*
X131442588Y-75914780D01*
X131397944Y-75934937D01*
X131343001Y-75906942D01*
X131297555Y-75840069D01*
X131297552Y-75840067D01*
X131140320Y-75714099D01*
X130952997Y-75639933D01*
X130752147Y-75624125D01*
X130555523Y-75668076D01*
X130555521Y-75668077D01*
X130380527Y-75767892D01*
X130380522Y-75767896D01*
X130242606Y-75914761D01*
X130153971Y-76095689D01*
X130153970Y-76095693D01*
X130122454Y-76294680D01*
X130122454Y-76294684D01*
X130132012Y-76361840D01*
X130119831Y-76409285D01*
X130077669Y-76434219D01*
X130025827Y-76418419D01*
X129951926Y-76351878D01*
X129951920Y-76351874D01*
X129788080Y-76257282D01*
X129608146Y-76198817D01*
X129608147Y-76198817D01*
X129420004Y-76179043D01*
X129419996Y-76179043D01*
X129231854Y-76198817D01*
X129051920Y-76257282D01*
X128888080Y-76351874D01*
X128747484Y-76478468D01*
X128747483Y-76478469D01*
X128636285Y-76631519D01*
X128559336Y-76804350D01*
X128559333Y-76804359D01*
X128520001Y-76989399D01*
X128520000Y-76989408D01*
X125959940Y-76989408D01*
X125920277Y-76916359D01*
X125920267Y-76916344D01*
X125696417Y-76586959D01*
X125696416Y-76586959D01*
X125440940Y-76281413D01*
X125440934Y-76281407D01*
X125156404Y-76002774D01*
X124845571Y-75753750D01*
X124511564Y-75536843D01*
X124286885Y-75420877D01*
X124255269Y-75383464D01*
X124259368Y-75334652D01*
X124316239Y-75300006D01*
X172674809Y-75299999D01*
X172720064Y-75318744D01*
G37*
G04 #@! TD.AperFunction*
G04 #@! TA.AperFunction,Conductor*
G36*
X145982599Y-102218745D02*
G01*
X146001344Y-102264008D01*
X146000541Y-108678758D01*
X145981790Y-108724010D01*
X145927081Y-108742047D01*
X145804742Y-108723763D01*
X145586687Y-108753633D01*
X145586684Y-108753634D01*
X145385783Y-108843501D01*
X145385782Y-108843502D01*
X145218176Y-108986146D01*
X145218173Y-108986150D01*
X145097342Y-109170096D01*
X145097338Y-109170103D01*
X145032991Y-109380573D01*
X145032990Y-109380577D01*
X145030302Y-109600649D01*
X145030302Y-109600652D01*
X145089489Y-109812633D01*
X145089490Y-109812636D01*
X145205790Y-109999478D01*
X145205795Y-109999485D01*
X145369865Y-110146181D01*
X145369866Y-110146182D01*
X145568518Y-110240932D01*
X145785776Y-110276121D01*
X145928425Y-110258353D01*
X145975650Y-110271361D01*
X146000336Y-110321869D01*
X145999889Y-113889569D01*
X145999865Y-114084893D01*
X145977345Y-114133624D01*
X145916925Y-114185045D01*
X145795830Y-114369393D01*
X145795829Y-114369395D01*
X145731344Y-114580317D01*
X145731343Y-114580321D01*
X145728649Y-114800866D01*
X145728649Y-114800869D01*
X145787963Y-115013304D01*
X145787964Y-115013307D01*
X145904514Y-115200551D01*
X145904516Y-115200555D01*
X145978369Y-115266588D01*
X145999710Y-115314306D01*
X145998830Y-122349536D01*
X145980079Y-122394788D01*
X145934822Y-122413528D01*
X145893136Y-122394413D01*
X145891497Y-122396292D01*
X145722209Y-122248613D01*
X145722207Y-122248612D01*
X145522416Y-122156296D01*
X145522411Y-122156295D01*
X145304742Y-122123763D01*
X145086687Y-122153633D01*
X145086684Y-122153634D01*
X144885783Y-122243501D01*
X144885782Y-122243502D01*
X144718176Y-122386146D01*
X144718173Y-122386150D01*
X144597342Y-122570096D01*
X144597338Y-122570103D01*
X144532991Y-122780573D01*
X144532990Y-122780577D01*
X144530302Y-123000649D01*
X144530302Y-123000652D01*
X144589489Y-123212633D01*
X144589490Y-123212636D01*
X144705790Y-123399478D01*
X144705795Y-123399485D01*
X144764100Y-123451616D01*
X144785342Y-123495754D01*
X144762922Y-123548064D01*
X144718177Y-123586146D01*
X144718173Y-123586150D01*
X144596657Y-123771138D01*
X144543166Y-123800000D01*
X143855293Y-123800000D01*
X143801376Y-123770481D01*
X143713669Y-123633337D01*
X143714528Y-123563068D01*
X143798578Y-123438458D01*
X143865493Y-123228786D01*
X143868411Y-122989958D01*
X143868411Y-122989956D01*
X143806640Y-122778713D01*
X143806638Y-122778709D01*
X143688061Y-122593294D01*
X143522209Y-122448613D01*
X143522207Y-122448612D01*
X143322416Y-122356296D01*
X143322411Y-122356295D01*
X143104742Y-122323763D01*
X142886687Y-122353633D01*
X142886684Y-122353634D01*
X142685783Y-122443501D01*
X142685782Y-122443502D01*
X142518176Y-122586146D01*
X142518173Y-122586150D01*
X142397342Y-122770096D01*
X142397338Y-122770103D01*
X142332991Y-122980573D01*
X142332990Y-122980577D01*
X142330302Y-123200649D01*
X142330302Y-123200652D01*
X142389489Y-123412633D01*
X142389490Y-123412636D01*
X142485926Y-123567565D01*
X142485084Y-123636523D01*
X142396658Y-123771138D01*
X142343166Y-123800000D01*
X137744523Y-123800000D01*
X137699268Y-123781255D01*
X137680523Y-123736000D01*
X137691464Y-123700212D01*
X137800079Y-123539182D01*
X137867137Y-123329063D01*
X137870061Y-123089721D01*
X137870061Y-123089719D01*
X137808158Y-122878024D01*
X137808156Y-122878020D01*
X137689323Y-122692205D01*
X137523116Y-122547215D01*
X137523114Y-122547214D01*
X137322894Y-122454699D01*
X137322890Y-122454698D01*
X137104752Y-122422097D01*
X136886229Y-122452030D01*
X136886226Y-122452031D01*
X136684894Y-122542091D01*
X136684893Y-122542092D01*
X136516927Y-122685043D01*
X136395830Y-122869393D01*
X136395829Y-122869395D01*
X136331344Y-123080317D01*
X136331343Y-123080321D01*
X136328649Y-123300866D01*
X136328649Y-123300869D01*
X136387963Y-123513304D01*
X136387964Y-123513307D01*
X136505527Y-123702180D01*
X136513527Y-123750506D01*
X136485013Y-123790334D01*
X136451193Y-123800000D01*
X131864000Y-123800000D01*
X131818745Y-123781255D01*
X131800000Y-123736000D01*
X131800000Y-122047966D01*
X131818745Y-122002711D01*
X131864000Y-121983966D01*
X131906658Y-122000256D01*
X132069865Y-122146181D01*
X132069866Y-122146182D01*
X132268518Y-122240932D01*
X132485776Y-122276121D01*
X132704172Y-122248918D01*
X132704183Y-122248915D01*
X132906161Y-122161513D01*
X132906166Y-122161510D01*
X133075505Y-122020921D01*
X133198579Y-121838455D01*
X133265493Y-121628786D01*
X133268411Y-121389958D01*
X133268411Y-121389956D01*
X133206640Y-121178713D01*
X133206638Y-121178709D01*
X133088061Y-120993294D01*
X132922209Y-120848613D01*
X132922207Y-120848612D01*
X132835230Y-120808423D01*
X132802011Y-120772424D01*
X132803977Y-120723480D01*
X132836658Y-120691589D01*
X132906161Y-120661513D01*
X132906166Y-120661510D01*
X133075505Y-120520921D01*
X133198579Y-120338455D01*
X133265493Y-120128786D01*
X133268411Y-119889958D01*
X133268411Y-119889956D01*
X133206640Y-119678713D01*
X133206638Y-119678709D01*
X133088061Y-119493294D01*
X132922209Y-119348613D01*
X132922207Y-119348612D01*
X132818406Y-119300649D01*
X133530302Y-119300649D01*
X133530302Y-119300652D01*
X133589489Y-119512633D01*
X133589490Y-119512636D01*
X133705790Y-119699478D01*
X133705795Y-119699485D01*
X133869865Y-119846181D01*
X133869866Y-119846182D01*
X134068518Y-119940932D01*
X134285776Y-119976121D01*
X134504172Y-119948918D01*
X134504183Y-119948915D01*
X134706161Y-119861513D01*
X134706166Y-119861510D01*
X134875505Y-119720921D01*
X134998579Y-119538455D01*
X135065493Y-119328786D01*
X135068411Y-119089958D01*
X135068411Y-119089956D01*
X135006640Y-118878713D01*
X135006638Y-118878709D01*
X134888061Y-118693294D01*
X134722209Y-118548613D01*
X134722207Y-118548612D01*
X134522416Y-118456296D01*
X134522411Y-118456295D01*
X134304742Y-118423763D01*
X134086687Y-118453633D01*
X134086684Y-118453634D01*
X133885783Y-118543501D01*
X133885782Y-118543502D01*
X133718176Y-118686146D01*
X133718173Y-118686150D01*
X133597342Y-118870096D01*
X133597338Y-118870103D01*
X133532991Y-119080573D01*
X133532990Y-119080577D01*
X133530302Y-119300649D01*
X132818406Y-119300649D01*
X132722416Y-119256296D01*
X132722411Y-119256295D01*
X132504742Y-119223763D01*
X132286687Y-119253633D01*
X132286684Y-119253634D01*
X132085783Y-119343501D01*
X132085782Y-119343502D01*
X131918176Y-119486146D01*
X131918175Y-119486147D01*
X131917491Y-119487189D01*
X131916902Y-119487589D01*
X131915158Y-119489564D01*
X131914653Y-119489118D01*
X131876977Y-119514721D01*
X131828861Y-119505541D01*
X131800000Y-119452050D01*
X131800000Y-117900649D01*
X137230302Y-117900649D01*
X137230302Y-117900652D01*
X137289489Y-118112633D01*
X137289490Y-118112636D01*
X137405790Y-118299478D01*
X137405795Y-118299485D01*
X137569865Y-118446181D01*
X137569866Y-118446182D01*
X137768518Y-118540932D01*
X137985776Y-118576121D01*
X138204172Y-118548918D01*
X138204183Y-118548915D01*
X138406161Y-118461513D01*
X138406166Y-118461510D01*
X138575505Y-118320921D01*
X138698579Y-118138455D01*
X138710644Y-118100649D01*
X139230302Y-118100649D01*
X139230302Y-118100652D01*
X139289489Y-118312633D01*
X139289490Y-118312636D01*
X139405790Y-118499478D01*
X139405795Y-118499485D01*
X139569865Y-118646181D01*
X139569866Y-118646182D01*
X139768518Y-118740932D01*
X139985776Y-118776121D01*
X140204172Y-118748918D01*
X140204183Y-118748915D01*
X140406161Y-118661513D01*
X140406166Y-118661510D01*
X140575505Y-118520921D01*
X140698579Y-118338455D01*
X140765493Y-118128786D01*
X140765836Y-118100649D01*
X141230302Y-118100649D01*
X141230302Y-118100652D01*
X141289489Y-118312633D01*
X141289490Y-118312636D01*
X141405790Y-118499478D01*
X141405795Y-118499485D01*
X141569865Y-118646181D01*
X141569866Y-118646182D01*
X141768518Y-118740932D01*
X141985776Y-118776121D01*
X142204172Y-118748918D01*
X142204183Y-118748915D01*
X142406161Y-118661513D01*
X142406166Y-118661510D01*
X142575505Y-118520921D01*
X142698579Y-118338455D01*
X142765493Y-118128786D01*
X142768411Y-117889958D01*
X142768411Y-117889956D01*
X142706640Y-117678713D01*
X142706638Y-117678709D01*
X142588061Y-117493294D01*
X142422209Y-117348613D01*
X142422207Y-117348612D01*
X142222416Y-117256296D01*
X142222411Y-117256295D01*
X142004742Y-117223763D01*
X141786687Y-117253633D01*
X141786684Y-117253634D01*
X141585783Y-117343501D01*
X141585782Y-117343502D01*
X141418176Y-117486146D01*
X141418173Y-117486150D01*
X141297342Y-117670096D01*
X141297338Y-117670103D01*
X141232991Y-117880573D01*
X141232990Y-117880577D01*
X141230302Y-118100649D01*
X140765836Y-118100649D01*
X140768411Y-117889958D01*
X140768411Y-117889956D01*
X140706640Y-117678713D01*
X140706638Y-117678709D01*
X140588061Y-117493294D01*
X140422209Y-117348613D01*
X140422207Y-117348612D01*
X140222416Y-117256296D01*
X140222411Y-117256295D01*
X140004742Y-117223763D01*
X139786687Y-117253633D01*
X139786684Y-117253634D01*
X139585783Y-117343501D01*
X139585782Y-117343502D01*
X139418176Y-117486146D01*
X139418173Y-117486150D01*
X139297342Y-117670096D01*
X139297338Y-117670103D01*
X139232991Y-117880573D01*
X139232990Y-117880577D01*
X139230302Y-118100649D01*
X138710644Y-118100649D01*
X138765493Y-117928786D01*
X138768411Y-117689958D01*
X138768411Y-117689956D01*
X138706640Y-117478713D01*
X138706638Y-117478709D01*
X138588061Y-117293294D01*
X138422209Y-117148613D01*
X138422207Y-117148612D01*
X138222416Y-117056296D01*
X138222411Y-117056295D01*
X138004742Y-117023763D01*
X137786687Y-117053633D01*
X137786684Y-117053634D01*
X137585783Y-117143501D01*
X137585782Y-117143502D01*
X137418176Y-117286146D01*
X137418173Y-117286150D01*
X137297342Y-117470096D01*
X137297338Y-117470103D01*
X137232991Y-117680573D01*
X137232990Y-117680577D01*
X137230302Y-117900649D01*
X131800000Y-117900649D01*
X131800000Y-117200866D01*
X133828649Y-117200866D01*
X133828649Y-117200869D01*
X133887963Y-117413304D01*
X133887964Y-117413307D01*
X134004514Y-117600551D01*
X134004519Y-117600558D01*
X134168941Y-117747569D01*
X134168942Y-117747570D01*
X134368020Y-117842523D01*
X134368023Y-117842524D01*
X134585746Y-117877787D01*
X134804611Y-117850526D01*
X134804622Y-117850523D01*
X135007034Y-117762933D01*
X135007043Y-117762927D01*
X135176738Y-117622043D01*
X135176745Y-117622036D01*
X135300078Y-117439185D01*
X135367137Y-117229063D01*
X135370061Y-116989721D01*
X135370061Y-116989719D01*
X135308158Y-116778024D01*
X135308156Y-116778020D01*
X135189323Y-116592205D01*
X135023116Y-116447215D01*
X135023114Y-116447214D01*
X134822894Y-116354699D01*
X134822890Y-116354698D01*
X134604752Y-116322097D01*
X134386229Y-116352030D01*
X134386226Y-116352031D01*
X134184894Y-116442091D01*
X134184893Y-116442092D01*
X134016927Y-116585043D01*
X133895830Y-116769393D01*
X133895829Y-116769395D01*
X133831344Y-116980317D01*
X133831343Y-116980321D01*
X133828649Y-117200866D01*
X131800000Y-117200866D01*
X131800000Y-116100649D01*
X139230302Y-116100649D01*
X139230302Y-116100652D01*
X139289489Y-116312633D01*
X139289490Y-116312636D01*
X139405790Y-116499478D01*
X139405795Y-116499485D01*
X139569865Y-116646181D01*
X139569866Y-116646182D01*
X139768518Y-116740932D01*
X139985776Y-116776121D01*
X140204172Y-116748918D01*
X140204183Y-116748915D01*
X140406161Y-116661513D01*
X140406166Y-116661510D01*
X140575505Y-116520921D01*
X140698579Y-116338455D01*
X140765493Y-116128786D01*
X140765836Y-116100649D01*
X141230302Y-116100649D01*
X141230302Y-116100652D01*
X141289489Y-116312633D01*
X141289490Y-116312636D01*
X141405790Y-116499478D01*
X141405795Y-116499485D01*
X141569865Y-116646181D01*
X141569866Y-116646182D01*
X141768518Y-116740932D01*
X141985776Y-116776121D01*
X142204172Y-116748918D01*
X142204183Y-116748915D01*
X142406161Y-116661513D01*
X142406166Y-116661510D01*
X142575505Y-116520921D01*
X142698579Y-116338455D01*
X142765493Y-116128786D01*
X142768411Y-115889958D01*
X142768411Y-115889956D01*
X142706640Y-115678713D01*
X142706638Y-115678709D01*
X142588061Y-115493294D01*
X142422209Y-115348613D01*
X142422207Y-115348612D01*
X142222416Y-115256296D01*
X142222411Y-115256295D01*
X142004742Y-115223763D01*
X141786687Y-115253633D01*
X141786684Y-115253634D01*
X141585783Y-115343501D01*
X141585782Y-115343502D01*
X141418176Y-115486146D01*
X141418173Y-115486150D01*
X141297342Y-115670096D01*
X141297338Y-115670103D01*
X141232991Y-115880573D01*
X141232990Y-115880577D01*
X141230302Y-116100649D01*
X140765836Y-116100649D01*
X140768411Y-115889958D01*
X140768411Y-115889956D01*
X140706640Y-115678713D01*
X140706638Y-115678709D01*
X140588061Y-115493294D01*
X140422209Y-115348613D01*
X140422207Y-115348612D01*
X140222416Y-115256296D01*
X140222411Y-115256295D01*
X140004742Y-115223763D01*
X139786687Y-115253633D01*
X139786684Y-115253634D01*
X139585783Y-115343501D01*
X139585782Y-115343502D01*
X139418176Y-115486146D01*
X139418173Y-115486150D01*
X139297342Y-115670096D01*
X139297338Y-115670103D01*
X139232991Y-115880573D01*
X139232990Y-115880577D01*
X139230302Y-116100649D01*
X131800000Y-116100649D01*
X131800000Y-115430872D01*
X131818745Y-115385617D01*
X131856089Y-115367363D01*
X132004173Y-115348918D01*
X132004183Y-115348915D01*
X132206161Y-115261513D01*
X132206166Y-115261510D01*
X132339697Y-115150649D01*
X133030302Y-115150649D01*
X133030302Y-115150652D01*
X133089489Y-115362633D01*
X133089490Y-115362636D01*
X133205790Y-115549478D01*
X133205795Y-115549485D01*
X133369865Y-115696181D01*
X133369866Y-115696182D01*
X133568518Y-115790932D01*
X133785776Y-115826121D01*
X134004172Y-115798918D01*
X134004183Y-115798915D01*
X134206161Y-115711513D01*
X134206166Y-115711510D01*
X134375505Y-115570921D01*
X134498579Y-115388455D01*
X134565493Y-115178786D01*
X134568411Y-114939958D01*
X134568411Y-114939956D01*
X134506640Y-114728713D01*
X134506638Y-114728709D01*
X134388061Y-114543294D01*
X134222209Y-114398613D01*
X134222207Y-114398612D01*
X134022416Y-114306296D01*
X134022411Y-114306295D01*
X133804742Y-114273763D01*
X133586687Y-114303633D01*
X133586684Y-114303634D01*
X133385783Y-114393501D01*
X133385782Y-114393502D01*
X133218176Y-114536146D01*
X133218173Y-114536150D01*
X133097342Y-114720096D01*
X133097338Y-114720103D01*
X133032991Y-114930573D01*
X133032990Y-114930577D01*
X133030302Y-115150649D01*
X132339697Y-115150649D01*
X132375505Y-115120921D01*
X132498579Y-114938455D01*
X132565493Y-114728786D01*
X132568411Y-114489958D01*
X132568411Y-114489956D01*
X132506640Y-114278713D01*
X132506638Y-114278709D01*
X132392765Y-114100649D01*
X139230302Y-114100649D01*
X139230302Y-114100652D01*
X139289489Y-114312633D01*
X139289490Y-114312636D01*
X139405790Y-114499478D01*
X139405795Y-114499485D01*
X139569865Y-114646181D01*
X139569866Y-114646182D01*
X139768518Y-114740932D01*
X139985776Y-114776121D01*
X140204172Y-114748918D01*
X140204183Y-114748915D01*
X140406161Y-114661513D01*
X140406166Y-114661510D01*
X140575505Y-114520921D01*
X140698579Y-114338455D01*
X140765493Y-114128786D01*
X140765836Y-114100649D01*
X141230302Y-114100649D01*
X141230302Y-114100652D01*
X141289489Y-114312633D01*
X141289490Y-114312636D01*
X141405790Y-114499478D01*
X141405795Y-114499485D01*
X141569865Y-114646181D01*
X141569866Y-114646182D01*
X141768518Y-114740932D01*
X141985776Y-114776121D01*
X142204172Y-114748918D01*
X142204183Y-114748915D01*
X142406161Y-114661513D01*
X142406166Y-114661510D01*
X142575505Y-114520921D01*
X142698579Y-114338455D01*
X142765493Y-114128786D01*
X142768411Y-113889958D01*
X142768411Y-113889956D01*
X142706640Y-113678713D01*
X142706638Y-113678709D01*
X142588061Y-113493294D01*
X142422209Y-113348613D01*
X142422207Y-113348612D01*
X142222416Y-113256296D01*
X142222411Y-113256295D01*
X142004742Y-113223763D01*
X141786687Y-113253633D01*
X141786684Y-113253634D01*
X141585783Y-113343501D01*
X141585782Y-113343502D01*
X141418176Y-113486146D01*
X141418173Y-113486150D01*
X141297342Y-113670096D01*
X141297338Y-113670103D01*
X141232991Y-113880573D01*
X141232990Y-113880577D01*
X141230302Y-114100649D01*
X140765836Y-114100649D01*
X140768411Y-113889958D01*
X140768411Y-113889956D01*
X140706640Y-113678713D01*
X140706638Y-113678709D01*
X140588061Y-113493294D01*
X140422209Y-113348613D01*
X140422207Y-113348612D01*
X140222416Y-113256296D01*
X140222411Y-113256295D01*
X140004742Y-113223763D01*
X139786687Y-113253633D01*
X139786684Y-113253634D01*
X139585783Y-113343501D01*
X139585782Y-113343502D01*
X139418176Y-113486146D01*
X139418173Y-113486150D01*
X139297342Y-113670096D01*
X139297338Y-113670103D01*
X139232991Y-113880573D01*
X139232990Y-113880577D01*
X139230302Y-114100649D01*
X132392765Y-114100649D01*
X132388061Y-114093294D01*
X132222209Y-113948613D01*
X132222207Y-113948612D01*
X132172335Y-113925568D01*
X132139116Y-113889569D01*
X132141082Y-113840625D01*
X132158299Y-113818228D01*
X132275505Y-113720921D01*
X132398579Y-113538455D01*
X132465493Y-113328786D01*
X132468411Y-113089958D01*
X132468411Y-113089956D01*
X132406640Y-112878713D01*
X132406638Y-112878709D01*
X132288061Y-112693294D01*
X132122209Y-112548613D01*
X132122207Y-112548612D01*
X131922416Y-112456296D01*
X131922411Y-112456295D01*
X131854540Y-112446151D01*
X131812553Y-112420923D01*
X131800000Y-112382854D01*
X131800000Y-111900649D01*
X133730302Y-111900649D01*
X133730302Y-111900652D01*
X133789489Y-112112633D01*
X133789490Y-112112636D01*
X133902620Y-112294386D01*
X133901777Y-112363344D01*
X133897342Y-112370096D01*
X133897338Y-112370103D01*
X133832991Y-112580573D01*
X133832990Y-112580577D01*
X133830302Y-112800649D01*
X133830302Y-112800652D01*
X133889489Y-113012633D01*
X133889490Y-113012636D01*
X134005790Y-113199478D01*
X134005795Y-113199485D01*
X134169865Y-113346181D01*
X134169866Y-113346182D01*
X134368518Y-113440932D01*
X134585776Y-113476121D01*
X134804172Y-113448918D01*
X134804183Y-113448915D01*
X135006161Y-113361513D01*
X135006166Y-113361510D01*
X135175505Y-113220921D01*
X135298579Y-113038455D01*
X135365493Y-112828786D01*
X135368411Y-112589958D01*
X135368411Y-112589956D01*
X135306640Y-112378713D01*
X135306638Y-112378709D01*
X135197827Y-112208567D01*
X135198623Y-112143544D01*
X135196591Y-112142560D01*
X135198578Y-112138459D01*
X135210644Y-112100649D01*
X137230302Y-112100649D01*
X137230302Y-112100652D01*
X137289489Y-112312633D01*
X137289490Y-112312636D01*
X137405790Y-112499478D01*
X137405795Y-112499485D01*
X137569865Y-112646181D01*
X137569866Y-112646182D01*
X137768518Y-112740932D01*
X137985776Y-112776121D01*
X138204172Y-112748918D01*
X138204183Y-112748915D01*
X138406161Y-112661513D01*
X138406166Y-112661510D01*
X138575505Y-112520921D01*
X138698579Y-112338455D01*
X138765493Y-112128786D01*
X138765836Y-112100649D01*
X139230302Y-112100649D01*
X139230302Y-112100652D01*
X139289489Y-112312633D01*
X139289490Y-112312636D01*
X139405790Y-112499478D01*
X139405795Y-112499485D01*
X139569865Y-112646181D01*
X139569866Y-112646182D01*
X139768518Y-112740932D01*
X139985776Y-112776121D01*
X140204172Y-112748918D01*
X140204183Y-112748915D01*
X140406161Y-112661513D01*
X140406166Y-112661510D01*
X140575505Y-112520921D01*
X140698579Y-112338455D01*
X140765493Y-112128786D01*
X140765836Y-112100649D01*
X141230302Y-112100649D01*
X141230302Y-112100652D01*
X141289489Y-112312633D01*
X141289490Y-112312636D01*
X141405790Y-112499478D01*
X141405795Y-112499485D01*
X141569865Y-112646181D01*
X141569866Y-112646182D01*
X141768518Y-112740932D01*
X141985776Y-112776121D01*
X142204172Y-112748918D01*
X142204183Y-112748915D01*
X142406161Y-112661513D01*
X142406166Y-112661510D01*
X142575505Y-112520921D01*
X142698579Y-112338455D01*
X142765493Y-112128786D01*
X142768411Y-111889958D01*
X142768411Y-111889956D01*
X142706640Y-111678713D01*
X142706638Y-111678709D01*
X142588061Y-111493294D01*
X142422209Y-111348613D01*
X142422207Y-111348612D01*
X142222416Y-111256296D01*
X142222411Y-111256295D01*
X142004742Y-111223763D01*
X141786687Y-111253633D01*
X141786684Y-111253634D01*
X141585783Y-111343501D01*
X141585782Y-111343502D01*
X141418176Y-111486146D01*
X141418173Y-111486150D01*
X141297342Y-111670096D01*
X141297338Y-111670103D01*
X141232991Y-111880573D01*
X141232990Y-111880577D01*
X141230302Y-112100649D01*
X140765836Y-112100649D01*
X140768411Y-111889958D01*
X140768411Y-111889956D01*
X140706640Y-111678713D01*
X140706638Y-111678709D01*
X140588061Y-111493294D01*
X140422209Y-111348613D01*
X140422207Y-111348612D01*
X140222416Y-111256296D01*
X140222411Y-111256295D01*
X140004742Y-111223763D01*
X139786687Y-111253633D01*
X139786684Y-111253634D01*
X139585783Y-111343501D01*
X139585782Y-111343502D01*
X139418176Y-111486146D01*
X139418173Y-111486150D01*
X139297342Y-111670096D01*
X139297338Y-111670103D01*
X139232991Y-111880573D01*
X139232990Y-111880577D01*
X139230302Y-112100649D01*
X138765836Y-112100649D01*
X138768411Y-111889958D01*
X138768411Y-111889956D01*
X138706640Y-111678713D01*
X138706638Y-111678709D01*
X138588061Y-111493294D01*
X138422209Y-111348613D01*
X138422207Y-111348612D01*
X138222416Y-111256296D01*
X138222411Y-111256295D01*
X138004742Y-111223763D01*
X137786687Y-111253633D01*
X137786684Y-111253634D01*
X137585783Y-111343501D01*
X137585782Y-111343502D01*
X137418176Y-111486146D01*
X137418173Y-111486150D01*
X137297342Y-111670096D01*
X137297338Y-111670103D01*
X137232991Y-111880573D01*
X137232990Y-111880577D01*
X137230302Y-112100649D01*
X135210644Y-112100649D01*
X135265493Y-111928786D01*
X135268411Y-111689958D01*
X135268411Y-111689956D01*
X135206640Y-111478713D01*
X135206638Y-111478709D01*
X135088061Y-111293294D01*
X134922209Y-111148613D01*
X134922207Y-111148612D01*
X134722416Y-111056296D01*
X134722411Y-111056295D01*
X134504742Y-111023763D01*
X134286687Y-111053633D01*
X134286684Y-111053634D01*
X134085783Y-111143501D01*
X134085782Y-111143502D01*
X133918176Y-111286146D01*
X133918173Y-111286150D01*
X133797342Y-111470096D01*
X133797338Y-111470103D01*
X133732991Y-111680573D01*
X133732990Y-111680577D01*
X133730302Y-111900649D01*
X131800000Y-111900649D01*
X131800000Y-109737377D01*
X131818745Y-109692122D01*
X131864000Y-109673377D01*
X131906658Y-109689667D01*
X131969865Y-109746181D01*
X131969866Y-109746182D01*
X132168518Y-109840932D01*
X132385776Y-109876121D01*
X132590274Y-109850649D01*
X133730302Y-109850649D01*
X133730302Y-109850652D01*
X133789489Y-110062633D01*
X133789490Y-110062636D01*
X133905790Y-110249478D01*
X133905795Y-110249485D01*
X134069865Y-110396181D01*
X134069866Y-110396182D01*
X134268518Y-110490932D01*
X134485776Y-110526121D01*
X134704172Y-110498918D01*
X134704183Y-110498915D01*
X134906161Y-110411513D01*
X134906166Y-110411510D01*
X135075505Y-110270921D01*
X135198579Y-110088455D01*
X135265493Y-109878786D01*
X135268411Y-109639958D01*
X135268411Y-109639956D01*
X135206640Y-109428713D01*
X135206638Y-109428709D01*
X135088061Y-109243294D01*
X134922209Y-109098613D01*
X134922207Y-109098612D01*
X134722416Y-109006296D01*
X134722411Y-109006295D01*
X134504742Y-108973763D01*
X134286687Y-109003633D01*
X134286684Y-109003634D01*
X134085783Y-109093501D01*
X134085782Y-109093502D01*
X133918176Y-109236146D01*
X133918173Y-109236150D01*
X133797342Y-109420096D01*
X133797338Y-109420103D01*
X133732991Y-109630573D01*
X133732990Y-109630577D01*
X133730302Y-109850649D01*
X132590274Y-109850649D01*
X132604172Y-109848918D01*
X132604183Y-109848915D01*
X132806161Y-109761513D01*
X132806166Y-109761510D01*
X132975505Y-109620921D01*
X133098579Y-109438455D01*
X133165493Y-109228786D01*
X133168411Y-108989958D01*
X133168411Y-108989956D01*
X133106640Y-108778713D01*
X133106638Y-108778709D01*
X132988061Y-108593294D01*
X132822209Y-108448613D01*
X132822207Y-108448612D01*
X132622416Y-108356296D01*
X132622411Y-108356295D01*
X132404742Y-108323763D01*
X132186687Y-108353633D01*
X132186684Y-108353634D01*
X131985783Y-108443501D01*
X131985782Y-108443502D01*
X131905480Y-108511845D01*
X131858868Y-108526901D01*
X131815262Y-108504587D01*
X131800000Y-108463107D01*
X131800000Y-107837377D01*
X131818745Y-107792122D01*
X131864000Y-107773377D01*
X131906658Y-107789667D01*
X131969865Y-107846181D01*
X131969866Y-107846182D01*
X132168518Y-107940932D01*
X132385776Y-107976121D01*
X132604172Y-107948918D01*
X132604183Y-107948915D01*
X132806161Y-107861513D01*
X132806166Y-107861510D01*
X132975505Y-107720921D01*
X133098579Y-107538455D01*
X133165493Y-107328786D01*
X133168411Y-107089958D01*
X133168411Y-107089956D01*
X133106640Y-106878713D01*
X133106638Y-106878709D01*
X132988061Y-106693294D01*
X132822209Y-106548613D01*
X132822207Y-106548612D01*
X132622416Y-106456296D01*
X132622411Y-106456295D01*
X132404742Y-106423763D01*
X132186687Y-106453633D01*
X132186684Y-106453634D01*
X131985783Y-106543501D01*
X131985782Y-106543502D01*
X131905480Y-106611845D01*
X131858868Y-106626901D01*
X131815262Y-106604587D01*
X131800000Y-106563107D01*
X131800000Y-104300649D01*
X135430302Y-104300649D01*
X135430302Y-104300652D01*
X135489489Y-104512633D01*
X135489490Y-104512636D01*
X135605790Y-104699478D01*
X135605795Y-104699485D01*
X135769865Y-104846181D01*
X135769866Y-104846182D01*
X135968518Y-104940932D01*
X136185776Y-104976121D01*
X136404172Y-104948918D01*
X136404183Y-104948915D01*
X136606161Y-104861513D01*
X136606166Y-104861510D01*
X136775505Y-104720921D01*
X136898579Y-104538455D01*
X136965493Y-104328786D01*
X136965836Y-104300649D01*
X138130302Y-104300649D01*
X138130302Y-104300652D01*
X138189489Y-104512633D01*
X138189490Y-104512636D01*
X138305790Y-104699478D01*
X138305795Y-104699485D01*
X138364100Y-104751616D01*
X138385342Y-104795754D01*
X138362922Y-104848064D01*
X138318177Y-104886146D01*
X138318173Y-104886150D01*
X138197342Y-105070096D01*
X138197338Y-105070103D01*
X138132991Y-105280573D01*
X138132990Y-105280577D01*
X138130302Y-105500649D01*
X138130302Y-105500652D01*
X138189489Y-105712633D01*
X138189490Y-105712636D01*
X138305790Y-105899478D01*
X138305795Y-105899485D01*
X138364100Y-105951616D01*
X138385342Y-105995754D01*
X138362922Y-106048064D01*
X138318177Y-106086146D01*
X138318173Y-106086150D01*
X138197342Y-106270096D01*
X138197338Y-106270103D01*
X138132991Y-106480573D01*
X138132990Y-106480577D01*
X138130302Y-106700649D01*
X138130302Y-106700652D01*
X138189489Y-106912633D01*
X138189490Y-106912636D01*
X138305790Y-107099478D01*
X138305795Y-107099485D01*
X138469865Y-107246181D01*
X138469866Y-107246182D01*
X138668518Y-107340932D01*
X138885776Y-107376121D01*
X139104172Y-107348918D01*
X139104183Y-107348915D01*
X139306161Y-107261513D01*
X139306166Y-107261510D01*
X139475505Y-107120921D01*
X139598579Y-106938455D01*
X139665493Y-106728786D01*
X139668411Y-106489958D01*
X139668411Y-106489956D01*
X139606640Y-106278713D01*
X139606638Y-106278709D01*
X139488059Y-106093293D01*
X139437364Y-106049068D01*
X139415584Y-106005192D01*
X139438555Y-105951599D01*
X139475502Y-105920925D01*
X139475505Y-105920922D01*
X139489179Y-105900649D01*
X141480302Y-105900649D01*
X141480302Y-105900652D01*
X141539489Y-106112633D01*
X141539490Y-106112636D01*
X141635926Y-106267565D01*
X141635084Y-106336523D01*
X141547339Y-106470101D01*
X141547338Y-106470103D01*
X141482991Y-106680573D01*
X141482990Y-106680577D01*
X141480302Y-106900649D01*
X141480302Y-106900652D01*
X141539489Y-107112633D01*
X141539490Y-107112636D01*
X141655790Y-107299478D01*
X141655795Y-107299485D01*
X141819865Y-107446181D01*
X141819866Y-107446182D01*
X142018518Y-107540932D01*
X142235776Y-107576121D01*
X142454172Y-107548918D01*
X142454183Y-107548915D01*
X142656161Y-107461513D01*
X142656166Y-107461510D01*
X142825505Y-107320921D01*
X142948579Y-107138455D01*
X143015493Y-106928786D01*
X143018411Y-106689958D01*
X143018411Y-106689956D01*
X142956640Y-106478713D01*
X142956638Y-106478709D01*
X142863669Y-106333337D01*
X142864528Y-106263068D01*
X142948578Y-106138458D01*
X143015493Y-105928786D01*
X143018411Y-105689958D01*
X143018411Y-105689956D01*
X142956640Y-105478713D01*
X142956638Y-105478709D01*
X142838061Y-105293294D01*
X142672209Y-105148613D01*
X142672207Y-105148612D01*
X142472416Y-105056296D01*
X142472411Y-105056295D01*
X142254742Y-105023763D01*
X142036687Y-105053633D01*
X142036684Y-105053634D01*
X141835783Y-105143501D01*
X141835782Y-105143502D01*
X141668176Y-105286146D01*
X141668173Y-105286150D01*
X141547342Y-105470096D01*
X141547338Y-105470103D01*
X141482991Y-105680573D01*
X141482990Y-105680577D01*
X141480302Y-105900649D01*
X139489179Y-105900649D01*
X139598579Y-105738455D01*
X139665493Y-105528786D01*
X139668411Y-105289958D01*
X139668411Y-105289956D01*
X139606640Y-105078713D01*
X139606638Y-105078709D01*
X139488059Y-104893293D01*
X139437364Y-104849068D01*
X139415584Y-104805192D01*
X139438555Y-104751599D01*
X139475502Y-104720925D01*
X139475505Y-104720922D01*
X139598579Y-104538455D01*
X139665493Y-104328786D01*
X139668411Y-104089958D01*
X139668411Y-104089956D01*
X139606640Y-103878713D01*
X139606638Y-103878709D01*
X139488061Y-103693294D01*
X139322209Y-103548613D01*
X139322207Y-103548612D01*
X139122416Y-103456296D01*
X139122411Y-103456295D01*
X138904742Y-103423763D01*
X138686687Y-103453633D01*
X138686684Y-103453634D01*
X138485783Y-103543501D01*
X138485782Y-103543502D01*
X138318176Y-103686146D01*
X138318173Y-103686150D01*
X138197342Y-103870096D01*
X138197338Y-103870103D01*
X138132991Y-104080573D01*
X138132990Y-104080577D01*
X138130302Y-104300649D01*
X136965836Y-104300649D01*
X136968411Y-104089958D01*
X136968411Y-104089956D01*
X136906640Y-103878713D01*
X136906638Y-103878709D01*
X136788061Y-103693294D01*
X136622209Y-103548613D01*
X136622207Y-103548612D01*
X136422416Y-103456296D01*
X136422411Y-103456295D01*
X136204742Y-103423763D01*
X135986687Y-103453633D01*
X135986684Y-103453634D01*
X135785783Y-103543501D01*
X135785782Y-103543502D01*
X135618176Y-103686146D01*
X135618173Y-103686150D01*
X135497342Y-103870096D01*
X135497338Y-103870103D01*
X135432991Y-104080573D01*
X135432990Y-104080577D01*
X135430302Y-104300649D01*
X131800000Y-104300649D01*
X131800000Y-102264000D01*
X131818745Y-102218745D01*
X131864000Y-102200000D01*
X145937344Y-102200000D01*
X145982599Y-102218745D01*
G37*
G04 #@! TD.AperFunction*
M02*
