G04 #@! TF.GenerationSoftware,KiCad,Pcbnew,5.99.0-unknown-dd374e12a~102~ubuntu20.04.1*
G04 #@! TF.CreationDate,2020-12-05T09:27:28-08:00*
G04 #@! TF.ProjectId,BLDC,424c4443-2e6b-4696-9361-645f70636258,rev?*
G04 #@! TF.SameCoordinates,Original*
G04 #@! TF.FileFunction,Copper,L1,Top*
G04 #@! TF.FilePolarity,Positive*
%FSLAX46Y46*%
G04 Gerber Fmt 4.6, Leading zero omitted, Abs format (unit mm)*
G04 Created by KiCad (PCBNEW 5.99.0-unknown-dd374e12a~102~ubuntu20.04.1) date 2020-12-05 09:27:28*
%MOMM*%
%LPD*%
G01*
G04 APERTURE LIST*
G04 #@! TA.AperFunction,ComponentPad*
%ADD10C,5.500000*%
G04 #@! TD*
G04 #@! TA.AperFunction,SMDPad,CuDef*
%ADD11R,2.920000X1.270000*%
G04 #@! TD*
G04 #@! TA.AperFunction,SMDPad,CuDef*
%ADD12R,1.650000X3.430000*%
G04 #@! TD*
G04 #@! TA.AperFunction,SMDPad,CuDef*
%ADD13R,1.060000X0.650000*%
G04 #@! TD*
G04 #@! TA.AperFunction,ComponentPad*
%ADD14C,3.000000*%
G04 #@! TD*
G04 #@! TA.AperFunction,SMDPad,CuDef*
%ADD15R,1.270000X2.920000*%
G04 #@! TD*
G04 #@! TA.AperFunction,SMDPad,CuDef*
%ADD16R,0.450000X0.450000*%
G04 #@! TD*
G04 #@! TA.AperFunction,SMDPad,CuDef*
%ADD17R,0.450000X0.400000*%
G04 #@! TD*
G04 #@! TA.AperFunction,SMDPad,CuDef*
%ADD18R,0.800000X1.900000*%
G04 #@! TD*
G04 #@! TA.AperFunction,ComponentPad*
%ADD19C,0.800000*%
G04 #@! TD*
G04 #@! TA.AperFunction,SMDPad,CuDef*
%ADD20R,2.000000X1.700000*%
G04 #@! TD*
G04 #@! TA.AperFunction,SMDPad,CuDef*
%ADD21C,1.000000*%
G04 #@! TD*
G04 #@! TA.AperFunction,SMDPad,CuDef*
%ADD22R,0.800000X1.700000*%
G04 #@! TD*
G04 #@! TA.AperFunction,ComponentPad*
%ADD23C,1.700000*%
G04 #@! TD*
G04 #@! TA.AperFunction,ComponentPad*
%ADD24O,1.700000X1.700000*%
G04 #@! TD*
G04 #@! TA.AperFunction,SMDPad,CuDef*
%ADD25C,0.790000*%
G04 #@! TD*
G04 #@! TA.AperFunction,ComponentPad*
%ADD26C,1.200000*%
G04 #@! TD*
G04 #@! TA.AperFunction,SMDPad,CuDef*
%ADD27R,0.450000X1.500000*%
G04 #@! TD*
G04 #@! TA.AperFunction,SMDPad,CuDef*
%ADD28R,5.000000X3.400000*%
G04 #@! TD*
G04 #@! TA.AperFunction,ViaPad*
%ADD29C,0.740000*%
G04 #@! TD*
G04 #@! TA.AperFunction,ViaPad*
%ADD30C,0.736700*%
G04 #@! TD*
G04 #@! TA.AperFunction,Conductor*
%ADD31C,0.250000*%
G04 #@! TD*
G04 #@! TA.AperFunction,Conductor*
%ADD32C,0.177800*%
G04 #@! TD*
G04 #@! TA.AperFunction,Conductor*
%ADD33C,0.300000*%
G04 #@! TD*
G04 #@! TA.AperFunction,Conductor*
%ADD34C,0.500000*%
G04 #@! TD*
G04 APERTURE END LIST*
G04 #@! TA.AperFunction,SMDPad,CuDef*
G36*
G01*
X147780000Y-91827500D02*
X147780000Y-92172500D01*
G75*
G02*
X147632500Y-92320000I-147500J0D01*
G01*
X147337500Y-92320000D01*
G75*
G02*
X147190000Y-92172500I0J147500D01*
G01*
X147190000Y-91827500D01*
G75*
G02*
X147337500Y-91680000I147500J0D01*
G01*
X147632500Y-91680000D01*
G75*
G02*
X147780000Y-91827500I0J-147500D01*
G01*
G37*
G04 #@! TD.AperFunction*
G04 #@! TA.AperFunction,SMDPad,CuDef*
G36*
G01*
X146810000Y-91827500D02*
X146810000Y-92172500D01*
G75*
G02*
X146662500Y-92320000I-147500J0D01*
G01*
X146367500Y-92320000D01*
G75*
G02*
X146220000Y-92172500I0J147500D01*
G01*
X146220000Y-91827500D01*
G75*
G02*
X146367500Y-91680000I147500J0D01*
G01*
X146662500Y-91680000D01*
G75*
G02*
X146810000Y-91827500I0J-147500D01*
G01*
G37*
G04 #@! TD.AperFunction*
G04 #@! TA.AperFunction,SMDPad,CuDef*
G36*
G01*
X146220000Y-91193780D02*
X146220000Y-90848780D01*
G75*
G02*
X146367500Y-90701280I147500J0D01*
G01*
X146662500Y-90701280D01*
G75*
G02*
X146810000Y-90848780I0J-147500D01*
G01*
X146810000Y-91193780D01*
G75*
G02*
X146662500Y-91341280I-147500J0D01*
G01*
X146367500Y-91341280D01*
G75*
G02*
X146220000Y-91193780I0J147500D01*
G01*
G37*
G04 #@! TD.AperFunction*
G04 #@! TA.AperFunction,SMDPad,CuDef*
G36*
G01*
X147190000Y-91193780D02*
X147190000Y-90848780D01*
G75*
G02*
X147337500Y-90701280I147500J0D01*
G01*
X147632500Y-90701280D01*
G75*
G02*
X147780000Y-90848780I0J-147500D01*
G01*
X147780000Y-91193780D01*
G75*
G02*
X147632500Y-91341280I-147500J0D01*
G01*
X147337500Y-91341280D01*
G75*
G02*
X147190000Y-91193780I0J147500D01*
G01*
G37*
G04 #@! TD.AperFunction*
D10*
X122500000Y-131000000D03*
D11*
X128570000Y-117900000D03*
X128570000Y-114900000D03*
X128570000Y-111900000D03*
D12*
X123100000Y-121785000D03*
X123100000Y-108015000D03*
D13*
X122100000Y-95050000D03*
X122100000Y-96000000D03*
X122100000Y-96950000D03*
X124300000Y-96950000D03*
X124300000Y-95050000D03*
G04 #@! TA.AperFunction,SMDPad,CuDef*
G36*
G01*
X129756250Y-96425000D02*
X129243750Y-96425000D01*
G75*
G02*
X129025000Y-96206250I0J218750D01*
G01*
X129025000Y-95768750D01*
G75*
G02*
X129243750Y-95550000I218750J0D01*
G01*
X129756250Y-95550000D01*
G75*
G02*
X129975000Y-95768750I0J-218750D01*
G01*
X129975000Y-96206250D01*
G75*
G02*
X129756250Y-96425000I-218750J0D01*
G01*
G37*
G04 #@! TD.AperFunction*
G04 #@! TA.AperFunction,SMDPad,CuDef*
G36*
G01*
X129756250Y-94850000D02*
X129243750Y-94850000D01*
G75*
G02*
X129025000Y-94631250I0J218750D01*
G01*
X129025000Y-94193750D01*
G75*
G02*
X129243750Y-93975000I218750J0D01*
G01*
X129756250Y-93975000D01*
G75*
G02*
X129975000Y-94193750I0J-218750D01*
G01*
X129975000Y-94631250D01*
G75*
G02*
X129756250Y-94850000I-218750J0D01*
G01*
G37*
G04 #@! TD.AperFunction*
G04 #@! TA.AperFunction,SMDPad,CuDef*
G36*
G01*
X129827500Y-97220000D02*
X130172500Y-97220000D01*
G75*
G02*
X130320000Y-97367500I0J-147500D01*
G01*
X130320000Y-97662500D01*
G75*
G02*
X130172500Y-97810000I-147500J0D01*
G01*
X129827500Y-97810000D01*
G75*
G02*
X129680000Y-97662500I0J147500D01*
G01*
X129680000Y-97367500D01*
G75*
G02*
X129827500Y-97220000I147500J0D01*
G01*
G37*
G04 #@! TD.AperFunction*
G04 #@! TA.AperFunction,SMDPad,CuDef*
G36*
G01*
X129827500Y-98190000D02*
X130172500Y-98190000D01*
G75*
G02*
X130320000Y-98337500I0J-147500D01*
G01*
X130320000Y-98632500D01*
G75*
G02*
X130172500Y-98780000I-147500J0D01*
G01*
X129827500Y-98780000D01*
G75*
G02*
X129680000Y-98632500I0J147500D01*
G01*
X129680000Y-98337500D01*
G75*
G02*
X129827500Y-98190000I147500J0D01*
G01*
G37*
G04 #@! TD.AperFunction*
G04 #@! TA.AperFunction,SMDPad,CuDef*
G36*
G01*
X131000000Y-122500000D02*
X133000000Y-122500000D01*
G75*
G02*
X133250000Y-122750000I0J-250000D01*
G01*
X133250000Y-126250000D01*
G75*
G02*
X133000000Y-126500000I-250000J0D01*
G01*
X131000000Y-126500000D01*
G75*
G02*
X130750000Y-126250000I0J250000D01*
G01*
X130750000Y-122750000D01*
G75*
G02*
X131000000Y-122500000I250000J0D01*
G01*
G37*
G04 #@! TD.AperFunction*
G04 #@! TA.AperFunction,SMDPad,CuDef*
G36*
G01*
X131000000Y-130500000D02*
X133000000Y-130500000D01*
G75*
G02*
X133250000Y-130750000I0J-250000D01*
G01*
X133250000Y-134250000D01*
G75*
G02*
X133000000Y-134500000I-250000J0D01*
G01*
X131000000Y-134500000D01*
G75*
G02*
X130750000Y-134250000I0J250000D01*
G01*
X130750000Y-130750000D01*
G75*
G02*
X131000000Y-130500000I250000J0D01*
G01*
G37*
G04 #@! TD.AperFunction*
G04 #@! TA.AperFunction,SMDPad,CuDef*
G36*
G01*
X138000000Y-117000000D02*
X136000000Y-117000000D01*
G75*
G02*
X135750000Y-116750000I0J250000D01*
G01*
X135750000Y-113250000D01*
G75*
G02*
X136000000Y-113000000I250000J0D01*
G01*
X138000000Y-113000000D01*
G75*
G02*
X138250000Y-113250000I0J-250000D01*
G01*
X138250000Y-116750000D01*
G75*
G02*
X138000000Y-117000000I-250000J0D01*
G01*
G37*
G04 #@! TD.AperFunction*
G04 #@! TA.AperFunction,SMDPad,CuDef*
G36*
G01*
X138000000Y-109000000D02*
X136000000Y-109000000D01*
G75*
G02*
X135750000Y-108750000I0J250000D01*
G01*
X135750000Y-105250000D01*
G75*
G02*
X136000000Y-105000000I250000J0D01*
G01*
X138000000Y-105000000D01*
G75*
G02*
X138250000Y-105250000I0J-250000D01*
G01*
X138250000Y-108750000D01*
G75*
G02*
X138000000Y-109000000I-250000J0D01*
G01*
G37*
G04 #@! TD.AperFunction*
G04 #@! TA.AperFunction,SMDPad,CuDef*
G36*
G01*
X161000000Y-117000000D02*
X159000000Y-117000000D01*
G75*
G02*
X158750000Y-116750000I0J250000D01*
G01*
X158750000Y-113250000D01*
G75*
G02*
X159000000Y-113000000I250000J0D01*
G01*
X161000000Y-113000000D01*
G75*
G02*
X161250000Y-113250000I0J-250000D01*
G01*
X161250000Y-116750000D01*
G75*
G02*
X161000000Y-117000000I-250000J0D01*
G01*
G37*
G04 #@! TD.AperFunction*
G04 #@! TA.AperFunction,SMDPad,CuDef*
G36*
G01*
X161000000Y-109000000D02*
X159000000Y-109000000D01*
G75*
G02*
X158750000Y-108750000I0J250000D01*
G01*
X158750000Y-105250000D01*
G75*
G02*
X159000000Y-105000000I250000J0D01*
G01*
X161000000Y-105000000D01*
G75*
G02*
X161250000Y-105250000I0J-250000D01*
G01*
X161250000Y-108750000D01*
G75*
G02*
X161000000Y-109000000I-250000J0D01*
G01*
G37*
G04 #@! TD.AperFunction*
D11*
X168320000Y-108770000D03*
X168320000Y-111770000D03*
X168320000Y-114770000D03*
X168320000Y-117770000D03*
X168320000Y-120770000D03*
D14*
X173790000Y-122920000D03*
X173790000Y-106620000D03*
G04 #@! TA.AperFunction,SMDPad,CuDef*
G36*
G01*
X120772500Y-96180000D02*
X120427500Y-96180000D01*
G75*
G02*
X120280000Y-96032500I0J147500D01*
G01*
X120280000Y-95737500D01*
G75*
G02*
X120427500Y-95590000I147500J0D01*
G01*
X120772500Y-95590000D01*
G75*
G02*
X120920000Y-95737500I0J-147500D01*
G01*
X120920000Y-96032500D01*
G75*
G02*
X120772500Y-96180000I-147500J0D01*
G01*
G37*
G04 #@! TD.AperFunction*
G04 #@! TA.AperFunction,SMDPad,CuDef*
G36*
G01*
X120772500Y-95210000D02*
X120427500Y-95210000D01*
G75*
G02*
X120280000Y-95062500I0J147500D01*
G01*
X120280000Y-94767500D01*
G75*
G02*
X120427500Y-94620000I147500J0D01*
G01*
X120772500Y-94620000D01*
G75*
G02*
X120920000Y-94767500I0J-147500D01*
G01*
X120920000Y-95062500D01*
G75*
G02*
X120772500Y-95210000I-147500J0D01*
G01*
G37*
G04 #@! TD.AperFunction*
D15*
X153230000Y-124820000D03*
X150230000Y-124820000D03*
X147230000Y-124820000D03*
X144230000Y-124820000D03*
X141230000Y-124820000D03*
D14*
X139080000Y-130290000D03*
X155380000Y-130290000D03*
G04 #@! TA.AperFunction,SMDPad,CuDef*
G36*
G01*
X161600000Y-122500000D02*
X163600000Y-122500000D01*
G75*
G02*
X163850000Y-122750000I0J-250000D01*
G01*
X163850000Y-126250000D01*
G75*
G02*
X163600000Y-126500000I-250000J0D01*
G01*
X161600000Y-126500000D01*
G75*
G02*
X161350000Y-126250000I0J250000D01*
G01*
X161350000Y-122750000D01*
G75*
G02*
X161600000Y-122500000I250000J0D01*
G01*
G37*
G04 #@! TD.AperFunction*
G04 #@! TA.AperFunction,SMDPad,CuDef*
G36*
G01*
X161600000Y-130500000D02*
X163600000Y-130500000D01*
G75*
G02*
X163850000Y-130750000I0J-250000D01*
G01*
X163850000Y-134250000D01*
G75*
G02*
X163600000Y-134500000I-250000J0D01*
G01*
X161600000Y-134500000D01*
G75*
G02*
X161350000Y-134250000I0J250000D01*
G01*
X161350000Y-130750000D01*
G75*
G02*
X161600000Y-130500000I250000J0D01*
G01*
G37*
G04 #@! TD.AperFunction*
G04 #@! TA.AperFunction,SMDPad,CuDef*
G36*
G01*
X122720000Y-84672500D02*
X122720000Y-84327500D01*
G75*
G02*
X122867500Y-84180000I147500J0D01*
G01*
X123162500Y-84180000D01*
G75*
G02*
X123310000Y-84327500I0J-147500D01*
G01*
X123310000Y-84672500D01*
G75*
G02*
X123162500Y-84820000I-147500J0D01*
G01*
X122867500Y-84820000D01*
G75*
G02*
X122720000Y-84672500I0J147500D01*
G01*
G37*
G04 #@! TD.AperFunction*
G04 #@! TA.AperFunction,SMDPad,CuDef*
G36*
G01*
X123690000Y-84672500D02*
X123690000Y-84327500D01*
G75*
G02*
X123837500Y-84180000I147500J0D01*
G01*
X124132500Y-84180000D01*
G75*
G02*
X124280000Y-84327500I0J-147500D01*
G01*
X124280000Y-84672500D01*
G75*
G02*
X124132500Y-84820000I-147500J0D01*
G01*
X123837500Y-84820000D01*
G75*
G02*
X123690000Y-84672500I0J147500D01*
G01*
G37*
G04 #@! TD.AperFunction*
G04 #@! TA.AperFunction,SMDPad,CuDef*
G36*
G01*
X122720000Y-83712220D02*
X122720000Y-83367220D01*
G75*
G02*
X122867500Y-83219720I147500J0D01*
G01*
X123162500Y-83219720D01*
G75*
G02*
X123310000Y-83367220I0J-147500D01*
G01*
X123310000Y-83712220D01*
G75*
G02*
X123162500Y-83859720I-147500J0D01*
G01*
X122867500Y-83859720D01*
G75*
G02*
X122720000Y-83712220I0J147500D01*
G01*
G37*
G04 #@! TD.AperFunction*
G04 #@! TA.AperFunction,SMDPad,CuDef*
G36*
G01*
X123690000Y-83712220D02*
X123690000Y-83367220D01*
G75*
G02*
X123837500Y-83219720I147500J0D01*
G01*
X124132500Y-83219720D01*
G75*
G02*
X124280000Y-83367220I0J-147500D01*
G01*
X124280000Y-83712220D01*
G75*
G02*
X124132500Y-83859720I-147500J0D01*
G01*
X123837500Y-83859720D01*
G75*
G02*
X123690000Y-83712220I0J147500D01*
G01*
G37*
G04 #@! TD.AperFunction*
G04 #@! TA.AperFunction,SMDPad,CuDef*
G36*
G01*
X122720000Y-85672500D02*
X122720000Y-85327500D01*
G75*
G02*
X122867500Y-85180000I147500J0D01*
G01*
X123162500Y-85180000D01*
G75*
G02*
X123310000Y-85327500I0J-147500D01*
G01*
X123310000Y-85672500D01*
G75*
G02*
X123162500Y-85820000I-147500J0D01*
G01*
X122867500Y-85820000D01*
G75*
G02*
X122720000Y-85672500I0J147500D01*
G01*
G37*
G04 #@! TD.AperFunction*
G04 #@! TA.AperFunction,SMDPad,CuDef*
G36*
G01*
X123690000Y-85672500D02*
X123690000Y-85327500D01*
G75*
G02*
X123837500Y-85180000I147500J0D01*
G01*
X124132500Y-85180000D01*
G75*
G02*
X124280000Y-85327500I0J-147500D01*
G01*
X124280000Y-85672500D01*
G75*
G02*
X124132500Y-85820000I-147500J0D01*
G01*
X123837500Y-85820000D01*
G75*
G02*
X123690000Y-85672500I0J147500D01*
G01*
G37*
G04 #@! TD.AperFunction*
D16*
X120475000Y-83500000D03*
X121325000Y-83500000D03*
X121325000Y-84350000D03*
X120475000Y-84350000D03*
G04 #@! TA.AperFunction,SMDPad,CuDef*
G36*
G01*
X149500000Y-117000000D02*
X147500000Y-117000000D01*
G75*
G02*
X147250000Y-116750000I0J250000D01*
G01*
X147250000Y-113250000D01*
G75*
G02*
X147500000Y-113000000I250000J0D01*
G01*
X149500000Y-113000000D01*
G75*
G02*
X149750000Y-113250000I0J-250000D01*
G01*
X149750000Y-116750000D01*
G75*
G02*
X149500000Y-117000000I-250000J0D01*
G01*
G37*
G04 #@! TD.AperFunction*
G04 #@! TA.AperFunction,SMDPad,CuDef*
G36*
G01*
X149500000Y-109000000D02*
X147500000Y-109000000D01*
G75*
G02*
X147250000Y-108750000I0J250000D01*
G01*
X147250000Y-105250000D01*
G75*
G02*
X147500000Y-105000000I250000J0D01*
G01*
X149500000Y-105000000D01*
G75*
G02*
X149750000Y-105250000I0J-250000D01*
G01*
X149750000Y-108750000D01*
G75*
G02*
X149500000Y-109000000I-250000J0D01*
G01*
G37*
G04 #@! TD.AperFunction*
G04 #@! TA.AperFunction,SMDPad,CuDef*
G36*
G01*
X119672500Y-89880000D02*
X119327500Y-89880000D01*
G75*
G02*
X119180000Y-89732500I0J147500D01*
G01*
X119180000Y-89437500D01*
G75*
G02*
X119327500Y-89290000I147500J0D01*
G01*
X119672500Y-89290000D01*
G75*
G02*
X119820000Y-89437500I0J-147500D01*
G01*
X119820000Y-89732500D01*
G75*
G02*
X119672500Y-89880000I-147500J0D01*
G01*
G37*
G04 #@! TD.AperFunction*
G04 #@! TA.AperFunction,SMDPad,CuDef*
G36*
G01*
X119672500Y-88910000D02*
X119327500Y-88910000D01*
G75*
G02*
X119180000Y-88762500I0J147500D01*
G01*
X119180000Y-88467500D01*
G75*
G02*
X119327500Y-88320000I147500J0D01*
G01*
X119672500Y-88320000D01*
G75*
G02*
X119820000Y-88467500I0J-147500D01*
G01*
X119820000Y-88762500D01*
G75*
G02*
X119672500Y-88910000I-147500J0D01*
G01*
G37*
G04 #@! TD.AperFunction*
G04 #@! TA.AperFunction,SMDPad,CuDef*
G36*
G01*
X120120000Y-85872500D02*
X120120000Y-85527500D01*
G75*
G02*
X120267500Y-85380000I147500J0D01*
G01*
X120562500Y-85380000D01*
G75*
G02*
X120710000Y-85527500I0J-147500D01*
G01*
X120710000Y-85872500D01*
G75*
G02*
X120562500Y-86020000I-147500J0D01*
G01*
X120267500Y-86020000D01*
G75*
G02*
X120120000Y-85872500I0J147500D01*
G01*
G37*
G04 #@! TD.AperFunction*
G04 #@! TA.AperFunction,SMDPad,CuDef*
G36*
G01*
X121090000Y-85872500D02*
X121090000Y-85527500D01*
G75*
G02*
X121237500Y-85380000I147500J0D01*
G01*
X121532500Y-85380000D01*
G75*
G02*
X121680000Y-85527500I0J-147500D01*
G01*
X121680000Y-85872500D01*
G75*
G02*
X121532500Y-86020000I-147500J0D01*
G01*
X121237500Y-86020000D01*
G75*
G02*
X121090000Y-85872500I0J147500D01*
G01*
G37*
G04 #@! TD.AperFunction*
D17*
X120605000Y-86930000D03*
X120605000Y-87730000D03*
X120605000Y-88530000D03*
X120605000Y-89330000D03*
X123555000Y-89330000D03*
X123555000Y-88530000D03*
X123555000Y-87730000D03*
X123555000Y-86930000D03*
D18*
X122630000Y-88130000D03*
D19*
X121530000Y-88130000D03*
D18*
X121530000Y-88130000D03*
D19*
X122630000Y-88130000D03*
G04 #@! TA.AperFunction,SMDPad,CuDef*
G36*
G01*
X119672500Y-87980000D02*
X119327500Y-87980000D01*
G75*
G02*
X119180000Y-87832500I0J147500D01*
G01*
X119180000Y-87537500D01*
G75*
G02*
X119327500Y-87390000I147500J0D01*
G01*
X119672500Y-87390000D01*
G75*
G02*
X119820000Y-87537500I0J-147500D01*
G01*
X119820000Y-87832500D01*
G75*
G02*
X119672500Y-87980000I-147500J0D01*
G01*
G37*
G04 #@! TD.AperFunction*
G04 #@! TA.AperFunction,SMDPad,CuDef*
G36*
G01*
X119672500Y-87010000D02*
X119327500Y-87010000D01*
G75*
G02*
X119180000Y-86862500I0J147500D01*
G01*
X119180000Y-86567500D01*
G75*
G02*
X119327500Y-86420000I147500J0D01*
G01*
X119672500Y-86420000D01*
G75*
G02*
X119820000Y-86567500I0J-147500D01*
G01*
X119820000Y-86862500D01*
G75*
G02*
X119672500Y-87010000I-147500J0D01*
G01*
G37*
G04 #@! TD.AperFunction*
G04 #@! TA.AperFunction,SMDPad,CuDef*
G36*
G01*
X127075000Y-90525000D02*
X124925000Y-90525000D01*
G75*
G02*
X124675000Y-90275000I0J250000D01*
G01*
X124675000Y-89525000D01*
G75*
G02*
X124925000Y-89275000I250000J0D01*
G01*
X127075000Y-89275000D01*
G75*
G02*
X127325000Y-89525000I0J-250000D01*
G01*
X127325000Y-90275000D01*
G75*
G02*
X127075000Y-90525000I-250000J0D01*
G01*
G37*
G04 #@! TD.AperFunction*
G04 #@! TA.AperFunction,SMDPad,CuDef*
G36*
G01*
X127075000Y-87725000D02*
X124925000Y-87725000D01*
G75*
G02*
X124675000Y-87475000I0J250000D01*
G01*
X124675000Y-86725000D01*
G75*
G02*
X124925000Y-86475000I250000J0D01*
G01*
X127075000Y-86475000D01*
G75*
G02*
X127325000Y-86725000I0J-250000D01*
G01*
X127325000Y-87475000D01*
G75*
G02*
X127075000Y-87725000I-250000J0D01*
G01*
G37*
G04 #@! TD.AperFunction*
G04 #@! TA.AperFunction,SMDPad,CuDef*
G36*
G01*
X119275000Y-93375000D02*
X119275000Y-91225000D01*
G75*
G02*
X119525000Y-90975000I250000J0D01*
G01*
X120275000Y-90975000D01*
G75*
G02*
X120525000Y-91225000I0J-250000D01*
G01*
X120525000Y-93375000D01*
G75*
G02*
X120275000Y-93625000I-250000J0D01*
G01*
X119525000Y-93625000D01*
G75*
G02*
X119275000Y-93375000I0J250000D01*
G01*
G37*
G04 #@! TD.AperFunction*
G04 #@! TA.AperFunction,SMDPad,CuDef*
G36*
G01*
X122075000Y-93375000D02*
X122075000Y-91225000D01*
G75*
G02*
X122325000Y-90975000I250000J0D01*
G01*
X123075000Y-90975000D01*
G75*
G02*
X123325000Y-91225000I0J-250000D01*
G01*
X123325000Y-93375000D01*
G75*
G02*
X123075000Y-93625000I-250000J0D01*
G01*
X122325000Y-93625000D01*
G75*
G02*
X122075000Y-93375000I0J250000D01*
G01*
G37*
G04 #@! TD.AperFunction*
G04 #@! TA.AperFunction,SMDPad,CuDef*
G36*
G01*
X175825000Y-94925000D02*
X175825000Y-97075000D01*
G75*
G02*
X175575000Y-97325000I-250000J0D01*
G01*
X174825000Y-97325000D01*
G75*
G02*
X174575000Y-97075000I0J250000D01*
G01*
X174575000Y-94925000D01*
G75*
G02*
X174825000Y-94675000I250000J0D01*
G01*
X175575000Y-94675000D01*
G75*
G02*
X175825000Y-94925000I0J-250000D01*
G01*
G37*
G04 #@! TD.AperFunction*
G04 #@! TA.AperFunction,SMDPad,CuDef*
G36*
G01*
X173025000Y-94925000D02*
X173025000Y-97075000D01*
G75*
G02*
X172775000Y-97325000I-250000J0D01*
G01*
X172025000Y-97325000D01*
G75*
G02*
X171775000Y-97075000I0J250000D01*
G01*
X171775000Y-94925000D01*
G75*
G02*
X172025000Y-94675000I250000J0D01*
G01*
X172775000Y-94675000D01*
G75*
G02*
X173025000Y-94925000I0J-250000D01*
G01*
G37*
G04 #@! TD.AperFunction*
G04 #@! TA.AperFunction,SMDPad,CuDef*
G36*
G01*
X171125000Y-95525000D02*
X171125000Y-97675000D01*
G75*
G02*
X170875000Y-97925000I-250000J0D01*
G01*
X170125000Y-97925000D01*
G75*
G02*
X169875000Y-97675000I0J250000D01*
G01*
X169875000Y-95525000D01*
G75*
G02*
X170125000Y-95275000I250000J0D01*
G01*
X170875000Y-95275000D01*
G75*
G02*
X171125000Y-95525000I0J-250000D01*
G01*
G37*
G04 #@! TD.AperFunction*
G04 #@! TA.AperFunction,SMDPad,CuDef*
G36*
G01*
X168325000Y-95525000D02*
X168325000Y-97675000D01*
G75*
G02*
X168075000Y-97925000I-250000J0D01*
G01*
X167325000Y-97925000D01*
G75*
G02*
X167075000Y-97675000I0J250000D01*
G01*
X167075000Y-95525000D01*
G75*
G02*
X167325000Y-95275000I250000J0D01*
G01*
X168075000Y-95275000D01*
G75*
G02*
X168325000Y-95525000I0J-250000D01*
G01*
G37*
G04 #@! TD.AperFunction*
D20*
X170900000Y-87100000D03*
X176900000Y-87100000D03*
G04 #@! TA.AperFunction,SMDPad,CuDef*
G36*
G01*
X166472500Y-97680000D02*
X166127500Y-97680000D01*
G75*
G02*
X165980000Y-97532500I0J147500D01*
G01*
X165980000Y-97237500D01*
G75*
G02*
X166127500Y-97090000I147500J0D01*
G01*
X166472500Y-97090000D01*
G75*
G02*
X166620000Y-97237500I0J-147500D01*
G01*
X166620000Y-97532500D01*
G75*
G02*
X166472500Y-97680000I-147500J0D01*
G01*
G37*
G04 #@! TD.AperFunction*
G04 #@! TA.AperFunction,SMDPad,CuDef*
G36*
G01*
X166472500Y-96710000D02*
X166127500Y-96710000D01*
G75*
G02*
X165980000Y-96562500I0J147500D01*
G01*
X165980000Y-96267500D01*
G75*
G02*
X166127500Y-96120000I147500J0D01*
G01*
X166472500Y-96120000D01*
G75*
G02*
X166620000Y-96267500I0J-147500D01*
G01*
X166620000Y-96562500D01*
G75*
G02*
X166472500Y-96710000I-147500J0D01*
G01*
G37*
G04 #@! TD.AperFunction*
G04 #@! TA.AperFunction,SMDPad,CuDef*
G36*
G01*
X135125000Y-117575000D02*
X137275000Y-117575000D01*
G75*
G02*
X137525000Y-117825000I0J-250000D01*
G01*
X137525000Y-118575000D01*
G75*
G02*
X137275000Y-118825000I-250000J0D01*
G01*
X135125000Y-118825000D01*
G75*
G02*
X134875000Y-118575000I0J250000D01*
G01*
X134875000Y-117825000D01*
G75*
G02*
X135125000Y-117575000I250000J0D01*
G01*
G37*
G04 #@! TD.AperFunction*
G04 #@! TA.AperFunction,SMDPad,CuDef*
G36*
G01*
X135125000Y-120375000D02*
X137275000Y-120375000D01*
G75*
G02*
X137525000Y-120625000I0J-250000D01*
G01*
X137525000Y-121375000D01*
G75*
G02*
X137275000Y-121625000I-250000J0D01*
G01*
X135125000Y-121625000D01*
G75*
G02*
X134875000Y-121375000I0J250000D01*
G01*
X134875000Y-120625000D01*
G75*
G02*
X135125000Y-120375000I250000J0D01*
G01*
G37*
G04 #@! TD.AperFunction*
G04 #@! TA.AperFunction,SMDPad,CuDef*
G36*
G01*
X161550000Y-91187500D02*
X161550000Y-91312500D01*
G75*
G02*
X161487500Y-91375000I-62500J0D01*
G01*
X160787500Y-91375000D01*
G75*
G02*
X160725000Y-91312500I0J62500D01*
G01*
X160725000Y-91187500D01*
G75*
G02*
X160787500Y-91125000I62500J0D01*
G01*
X161487500Y-91125000D01*
G75*
G02*
X161550000Y-91187500I0J-62500D01*
G01*
G37*
G04 #@! TD.AperFunction*
G04 #@! TA.AperFunction,SMDPad,CuDef*
G36*
G01*
X161550000Y-90687500D02*
X161550000Y-90812500D01*
G75*
G02*
X161487500Y-90875000I-62500J0D01*
G01*
X160787500Y-90875000D01*
G75*
G02*
X160725000Y-90812500I0J62500D01*
G01*
X160725000Y-90687500D01*
G75*
G02*
X160787500Y-90625000I62500J0D01*
G01*
X161487500Y-90625000D01*
G75*
G02*
X161550000Y-90687500I0J-62500D01*
G01*
G37*
G04 #@! TD.AperFunction*
G04 #@! TA.AperFunction,SMDPad,CuDef*
G36*
G01*
X161550000Y-90187500D02*
X161550000Y-90312500D01*
G75*
G02*
X161487500Y-90375000I-62500J0D01*
G01*
X160787500Y-90375000D01*
G75*
G02*
X160725000Y-90312500I0J62500D01*
G01*
X160725000Y-90187500D01*
G75*
G02*
X160787500Y-90125000I62500J0D01*
G01*
X161487500Y-90125000D01*
G75*
G02*
X161550000Y-90187500I0J-62500D01*
G01*
G37*
G04 #@! TD.AperFunction*
G04 #@! TA.AperFunction,SMDPad,CuDef*
G36*
G01*
X161550000Y-89687500D02*
X161550000Y-89812500D01*
G75*
G02*
X161487500Y-89875000I-62500J0D01*
G01*
X160787500Y-89875000D01*
G75*
G02*
X160725000Y-89812500I0J62500D01*
G01*
X160725000Y-89687500D01*
G75*
G02*
X160787500Y-89625000I62500J0D01*
G01*
X161487500Y-89625000D01*
G75*
G02*
X161550000Y-89687500I0J-62500D01*
G01*
G37*
G04 #@! TD.AperFunction*
G04 #@! TA.AperFunction,SMDPad,CuDef*
G36*
G01*
X161550000Y-89187500D02*
X161550000Y-89312500D01*
G75*
G02*
X161487500Y-89375000I-62500J0D01*
G01*
X160787500Y-89375000D01*
G75*
G02*
X160725000Y-89312500I0J62500D01*
G01*
X160725000Y-89187500D01*
G75*
G02*
X160787500Y-89125000I62500J0D01*
G01*
X161487500Y-89125000D01*
G75*
G02*
X161550000Y-89187500I0J-62500D01*
G01*
G37*
G04 #@! TD.AperFunction*
G04 #@! TA.AperFunction,SMDPad,CuDef*
G36*
G01*
X161550000Y-88687500D02*
X161550000Y-88812500D01*
G75*
G02*
X161487500Y-88875000I-62500J0D01*
G01*
X160787500Y-88875000D01*
G75*
G02*
X160725000Y-88812500I0J62500D01*
G01*
X160725000Y-88687500D01*
G75*
G02*
X160787500Y-88625000I62500J0D01*
G01*
X161487500Y-88625000D01*
G75*
G02*
X161550000Y-88687500I0J-62500D01*
G01*
G37*
G04 #@! TD.AperFunction*
G04 #@! TA.AperFunction,SMDPad,CuDef*
G36*
G01*
X160575000Y-87712500D02*
X160575000Y-88412500D01*
G75*
G02*
X160512500Y-88475000I-62500J0D01*
G01*
X160387500Y-88475000D01*
G75*
G02*
X160325000Y-88412500I0J62500D01*
G01*
X160325000Y-87712500D01*
G75*
G02*
X160387500Y-87650000I62500J0D01*
G01*
X160512500Y-87650000D01*
G75*
G02*
X160575000Y-87712500I0J-62500D01*
G01*
G37*
G04 #@! TD.AperFunction*
G04 #@! TA.AperFunction,SMDPad,CuDef*
G36*
G01*
X160075000Y-87712500D02*
X160075000Y-88412500D01*
G75*
G02*
X160012500Y-88475000I-62500J0D01*
G01*
X159887500Y-88475000D01*
G75*
G02*
X159825000Y-88412500I0J62500D01*
G01*
X159825000Y-87712500D01*
G75*
G02*
X159887500Y-87650000I62500J0D01*
G01*
X160012500Y-87650000D01*
G75*
G02*
X160075000Y-87712500I0J-62500D01*
G01*
G37*
G04 #@! TD.AperFunction*
G04 #@! TA.AperFunction,SMDPad,CuDef*
G36*
G01*
X159575000Y-87712500D02*
X159575000Y-88412500D01*
G75*
G02*
X159512500Y-88475000I-62500J0D01*
G01*
X159387500Y-88475000D01*
G75*
G02*
X159325000Y-88412500I0J62500D01*
G01*
X159325000Y-87712500D01*
G75*
G02*
X159387500Y-87650000I62500J0D01*
G01*
X159512500Y-87650000D01*
G75*
G02*
X159575000Y-87712500I0J-62500D01*
G01*
G37*
G04 #@! TD.AperFunction*
G04 #@! TA.AperFunction,SMDPad,CuDef*
G36*
G01*
X159075000Y-87712500D02*
X159075000Y-88412500D01*
G75*
G02*
X159012500Y-88475000I-62500J0D01*
G01*
X158887500Y-88475000D01*
G75*
G02*
X158825000Y-88412500I0J62500D01*
G01*
X158825000Y-87712500D01*
G75*
G02*
X158887500Y-87650000I62500J0D01*
G01*
X159012500Y-87650000D01*
G75*
G02*
X159075000Y-87712500I0J-62500D01*
G01*
G37*
G04 #@! TD.AperFunction*
G04 #@! TA.AperFunction,SMDPad,CuDef*
G36*
G01*
X158575000Y-87712500D02*
X158575000Y-88412500D01*
G75*
G02*
X158512500Y-88475000I-62500J0D01*
G01*
X158387500Y-88475000D01*
G75*
G02*
X158325000Y-88412500I0J62500D01*
G01*
X158325000Y-87712500D01*
G75*
G02*
X158387500Y-87650000I62500J0D01*
G01*
X158512500Y-87650000D01*
G75*
G02*
X158575000Y-87712500I0J-62500D01*
G01*
G37*
G04 #@! TD.AperFunction*
G04 #@! TA.AperFunction,SMDPad,CuDef*
G36*
G01*
X158075000Y-87712500D02*
X158075000Y-88412500D01*
G75*
G02*
X158012500Y-88475000I-62500J0D01*
G01*
X157887500Y-88475000D01*
G75*
G02*
X157825000Y-88412500I0J62500D01*
G01*
X157825000Y-87712500D01*
G75*
G02*
X157887500Y-87650000I62500J0D01*
G01*
X158012500Y-87650000D01*
G75*
G02*
X158075000Y-87712500I0J-62500D01*
G01*
G37*
G04 #@! TD.AperFunction*
G04 #@! TA.AperFunction,SMDPad,CuDef*
G36*
G01*
X157675000Y-88687500D02*
X157675000Y-88812500D01*
G75*
G02*
X157612500Y-88875000I-62500J0D01*
G01*
X156912500Y-88875000D01*
G75*
G02*
X156850000Y-88812500I0J62500D01*
G01*
X156850000Y-88687500D01*
G75*
G02*
X156912500Y-88625000I62500J0D01*
G01*
X157612500Y-88625000D01*
G75*
G02*
X157675000Y-88687500I0J-62500D01*
G01*
G37*
G04 #@! TD.AperFunction*
G04 #@! TA.AperFunction,SMDPad,CuDef*
G36*
G01*
X157675000Y-89187500D02*
X157675000Y-89312500D01*
G75*
G02*
X157612500Y-89375000I-62500J0D01*
G01*
X156912500Y-89375000D01*
G75*
G02*
X156850000Y-89312500I0J62500D01*
G01*
X156850000Y-89187500D01*
G75*
G02*
X156912500Y-89125000I62500J0D01*
G01*
X157612500Y-89125000D01*
G75*
G02*
X157675000Y-89187500I0J-62500D01*
G01*
G37*
G04 #@! TD.AperFunction*
G04 #@! TA.AperFunction,SMDPad,CuDef*
G36*
G01*
X157675000Y-89687500D02*
X157675000Y-89812500D01*
G75*
G02*
X157612500Y-89875000I-62500J0D01*
G01*
X156912500Y-89875000D01*
G75*
G02*
X156850000Y-89812500I0J62500D01*
G01*
X156850000Y-89687500D01*
G75*
G02*
X156912500Y-89625000I62500J0D01*
G01*
X157612500Y-89625000D01*
G75*
G02*
X157675000Y-89687500I0J-62500D01*
G01*
G37*
G04 #@! TD.AperFunction*
G04 #@! TA.AperFunction,SMDPad,CuDef*
G36*
G01*
X157675000Y-90187500D02*
X157675000Y-90312500D01*
G75*
G02*
X157612500Y-90375000I-62500J0D01*
G01*
X156912500Y-90375000D01*
G75*
G02*
X156850000Y-90312500I0J62500D01*
G01*
X156850000Y-90187500D01*
G75*
G02*
X156912500Y-90125000I62500J0D01*
G01*
X157612500Y-90125000D01*
G75*
G02*
X157675000Y-90187500I0J-62500D01*
G01*
G37*
G04 #@! TD.AperFunction*
G04 #@! TA.AperFunction,SMDPad,CuDef*
G36*
G01*
X157675000Y-90687500D02*
X157675000Y-90812500D01*
G75*
G02*
X157612500Y-90875000I-62500J0D01*
G01*
X156912500Y-90875000D01*
G75*
G02*
X156850000Y-90812500I0J62500D01*
G01*
X156850000Y-90687500D01*
G75*
G02*
X156912500Y-90625000I62500J0D01*
G01*
X157612500Y-90625000D01*
G75*
G02*
X157675000Y-90687500I0J-62500D01*
G01*
G37*
G04 #@! TD.AperFunction*
G04 #@! TA.AperFunction,SMDPad,CuDef*
G36*
G01*
X157675000Y-91187500D02*
X157675000Y-91312500D01*
G75*
G02*
X157612500Y-91375000I-62500J0D01*
G01*
X156912500Y-91375000D01*
G75*
G02*
X156850000Y-91312500I0J62500D01*
G01*
X156850000Y-91187500D01*
G75*
G02*
X156912500Y-91125000I62500J0D01*
G01*
X157612500Y-91125000D01*
G75*
G02*
X157675000Y-91187500I0J-62500D01*
G01*
G37*
G04 #@! TD.AperFunction*
G04 #@! TA.AperFunction,SMDPad,CuDef*
G36*
G01*
X158075000Y-91587500D02*
X158075000Y-92287500D01*
G75*
G02*
X158012500Y-92350000I-62500J0D01*
G01*
X157887500Y-92350000D01*
G75*
G02*
X157825000Y-92287500I0J62500D01*
G01*
X157825000Y-91587500D01*
G75*
G02*
X157887500Y-91525000I62500J0D01*
G01*
X158012500Y-91525000D01*
G75*
G02*
X158075000Y-91587500I0J-62500D01*
G01*
G37*
G04 #@! TD.AperFunction*
G04 #@! TA.AperFunction,SMDPad,CuDef*
G36*
G01*
X158575000Y-91587500D02*
X158575000Y-92287500D01*
G75*
G02*
X158512500Y-92350000I-62500J0D01*
G01*
X158387500Y-92350000D01*
G75*
G02*
X158325000Y-92287500I0J62500D01*
G01*
X158325000Y-91587500D01*
G75*
G02*
X158387500Y-91525000I62500J0D01*
G01*
X158512500Y-91525000D01*
G75*
G02*
X158575000Y-91587500I0J-62500D01*
G01*
G37*
G04 #@! TD.AperFunction*
G04 #@! TA.AperFunction,SMDPad,CuDef*
G36*
G01*
X159075000Y-91587500D02*
X159075000Y-92287500D01*
G75*
G02*
X159012500Y-92350000I-62500J0D01*
G01*
X158887500Y-92350000D01*
G75*
G02*
X158825000Y-92287500I0J62500D01*
G01*
X158825000Y-91587500D01*
G75*
G02*
X158887500Y-91525000I62500J0D01*
G01*
X159012500Y-91525000D01*
G75*
G02*
X159075000Y-91587500I0J-62500D01*
G01*
G37*
G04 #@! TD.AperFunction*
G04 #@! TA.AperFunction,SMDPad,CuDef*
G36*
G01*
X159575000Y-91587500D02*
X159575000Y-92287500D01*
G75*
G02*
X159512500Y-92350000I-62500J0D01*
G01*
X159387500Y-92350000D01*
G75*
G02*
X159325000Y-92287500I0J62500D01*
G01*
X159325000Y-91587500D01*
G75*
G02*
X159387500Y-91525000I62500J0D01*
G01*
X159512500Y-91525000D01*
G75*
G02*
X159575000Y-91587500I0J-62500D01*
G01*
G37*
G04 #@! TD.AperFunction*
G04 #@! TA.AperFunction,SMDPad,CuDef*
G36*
G01*
X160075000Y-91587500D02*
X160075000Y-92287500D01*
G75*
G02*
X160012500Y-92350000I-62500J0D01*
G01*
X159887500Y-92350000D01*
G75*
G02*
X159825000Y-92287500I0J62500D01*
G01*
X159825000Y-91587500D01*
G75*
G02*
X159887500Y-91525000I62500J0D01*
G01*
X160012500Y-91525000D01*
G75*
G02*
X160075000Y-91587500I0J-62500D01*
G01*
G37*
G04 #@! TD.AperFunction*
G04 #@! TA.AperFunction,SMDPad,CuDef*
G36*
G01*
X160575000Y-91587500D02*
X160575000Y-92287500D01*
G75*
G02*
X160512500Y-92350000I-62500J0D01*
G01*
X160387500Y-92350000D01*
G75*
G02*
X160325000Y-92287500I0J62500D01*
G01*
X160325000Y-91587500D01*
G75*
G02*
X160387500Y-91525000I62500J0D01*
G01*
X160512500Y-91525000D01*
G75*
G02*
X160575000Y-91587500I0J-62500D01*
G01*
G37*
G04 #@! TD.AperFunction*
G04 #@! TA.AperFunction,SMDPad,CuDef*
G36*
G01*
X160500000Y-88950000D02*
X160500000Y-91050000D01*
G75*
G02*
X160250000Y-91300000I-250000J0D01*
G01*
X158150000Y-91300000D01*
G75*
G02*
X157900000Y-91050000I0J250000D01*
G01*
X157900000Y-88950000D01*
G75*
G02*
X158150000Y-88700000I250000J0D01*
G01*
X160250000Y-88700000D01*
G75*
G02*
X160500000Y-88950000I0J-250000D01*
G01*
G37*
G04 #@! TD.AperFunction*
D21*
X165800000Y-103700000D03*
X144500000Y-99700000D03*
X153400000Y-90900000D03*
X154900000Y-92400000D03*
X160500000Y-98300000D03*
G04 #@! TA.AperFunction,SMDPad,CuDef*
G36*
G01*
X144380000Y-89427500D02*
X144380000Y-89772500D01*
G75*
G02*
X144232500Y-89920000I-147500J0D01*
G01*
X143937500Y-89920000D01*
G75*
G02*
X143790000Y-89772500I0J147500D01*
G01*
X143790000Y-89427500D01*
G75*
G02*
X143937500Y-89280000I147500J0D01*
G01*
X144232500Y-89280000D01*
G75*
G02*
X144380000Y-89427500I0J-147500D01*
G01*
G37*
G04 #@! TD.AperFunction*
G04 #@! TA.AperFunction,SMDPad,CuDef*
G36*
G01*
X143410000Y-89427500D02*
X143410000Y-89772500D01*
G75*
G02*
X143262500Y-89920000I-147500J0D01*
G01*
X142967500Y-89920000D01*
G75*
G02*
X142820000Y-89772500I0J147500D01*
G01*
X142820000Y-89427500D01*
G75*
G02*
X142967500Y-89280000I147500J0D01*
G01*
X143262500Y-89280000D01*
G75*
G02*
X143410000Y-89427500I0J-147500D01*
G01*
G37*
G04 #@! TD.AperFunction*
D22*
X144900000Y-91600000D03*
X141500000Y-91600000D03*
G04 #@! TA.AperFunction,SMDPad,CuDef*
G36*
G01*
X144172500Y-94880000D02*
X143827500Y-94880000D01*
G75*
G02*
X143680000Y-94732500I0J147500D01*
G01*
X143680000Y-94437500D01*
G75*
G02*
X143827500Y-94290000I147500J0D01*
G01*
X144172500Y-94290000D01*
G75*
G02*
X144320000Y-94437500I0J-147500D01*
G01*
X144320000Y-94732500D01*
G75*
G02*
X144172500Y-94880000I-147500J0D01*
G01*
G37*
G04 #@! TD.AperFunction*
G04 #@! TA.AperFunction,SMDPad,CuDef*
G36*
G01*
X144172500Y-93910000D02*
X143827500Y-93910000D01*
G75*
G02*
X143680000Y-93762500I0J147500D01*
G01*
X143680000Y-93467500D01*
G75*
G02*
X143827500Y-93320000I147500J0D01*
G01*
X144172500Y-93320000D01*
G75*
G02*
X144320000Y-93467500I0J-147500D01*
G01*
X144320000Y-93762500D01*
G75*
G02*
X144172500Y-93910000I-147500J0D01*
G01*
G37*
G04 #@! TD.AperFunction*
D23*
X138500000Y-79400000D03*
D24*
X138500000Y-76860000D03*
X141040000Y-79400000D03*
X141040000Y-76860000D03*
X143580000Y-79400000D03*
X143580000Y-76860000D03*
X146120000Y-79400000D03*
X146120000Y-76860000D03*
X148660000Y-79400000D03*
X148660000Y-76860000D03*
X151200000Y-79400000D03*
X151200000Y-76860000D03*
X153740000Y-79400000D03*
X153740000Y-76860000D03*
X156280000Y-79400000D03*
X156280000Y-76860000D03*
G04 #@! TA.AperFunction,SMDPad,CuDef*
G36*
G01*
X141427500Y-93320000D02*
X141772500Y-93320000D01*
G75*
G02*
X141920000Y-93467500I0J-147500D01*
G01*
X141920000Y-93762500D01*
G75*
G02*
X141772500Y-93910000I-147500J0D01*
G01*
X141427500Y-93910000D01*
G75*
G02*
X141280000Y-93762500I0J147500D01*
G01*
X141280000Y-93467500D01*
G75*
G02*
X141427500Y-93320000I147500J0D01*
G01*
G37*
G04 #@! TD.AperFunction*
G04 #@! TA.AperFunction,SMDPad,CuDef*
G36*
G01*
X141427500Y-94290000D02*
X141772500Y-94290000D01*
G75*
G02*
X141920000Y-94437500I0J-147500D01*
G01*
X141920000Y-94732500D01*
G75*
G02*
X141772500Y-94880000I-147500J0D01*
G01*
X141427500Y-94880000D01*
G75*
G02*
X141280000Y-94732500I0J147500D01*
G01*
X141280000Y-94437500D01*
G75*
G02*
X141427500Y-94290000I147500J0D01*
G01*
G37*
G04 #@! TD.AperFunction*
D25*
X133230000Y-77465000D03*
X133230000Y-78735000D03*
X131960000Y-77465000D03*
X131960000Y-78735000D03*
X130690000Y-77465000D03*
X130690000Y-78735000D03*
D26*
X129420000Y-79116000D03*
X134500000Y-78100000D03*
X129420000Y-77084000D03*
G04 #@! TA.AperFunction,SMDPad,CuDef*
G36*
G01*
X143925000Y-95543750D02*
X143925000Y-96056250D01*
G75*
G02*
X143706250Y-96275000I-218750J0D01*
G01*
X143268750Y-96275000D01*
G75*
G02*
X143050000Y-96056250I0J218750D01*
G01*
X143050000Y-95543750D01*
G75*
G02*
X143268750Y-95325000I218750J0D01*
G01*
X143706250Y-95325000D01*
G75*
G02*
X143925000Y-95543750I0J-218750D01*
G01*
G37*
G04 #@! TD.AperFunction*
G04 #@! TA.AperFunction,SMDPad,CuDef*
G36*
G01*
X142350000Y-95543750D02*
X142350000Y-96056250D01*
G75*
G02*
X142131250Y-96275000I-218750J0D01*
G01*
X141693750Y-96275000D01*
G75*
G02*
X141475000Y-96056250I0J218750D01*
G01*
X141475000Y-95543750D01*
G75*
G02*
X141693750Y-95325000I218750J0D01*
G01*
X142131250Y-95325000D01*
G75*
G02*
X142350000Y-95543750I0J-218750D01*
G01*
G37*
G04 #@! TD.AperFunction*
G04 #@! TA.AperFunction,SMDPad,CuDef*
G36*
G01*
X129172500Y-98780000D02*
X128827500Y-98780000D01*
G75*
G02*
X128680000Y-98632500I0J147500D01*
G01*
X128680000Y-98337500D01*
G75*
G02*
X128827500Y-98190000I147500J0D01*
G01*
X129172500Y-98190000D01*
G75*
G02*
X129320000Y-98337500I0J-147500D01*
G01*
X129320000Y-98632500D01*
G75*
G02*
X129172500Y-98780000I-147500J0D01*
G01*
G37*
G04 #@! TD.AperFunction*
G04 #@! TA.AperFunction,SMDPad,CuDef*
G36*
G01*
X129172500Y-97810000D02*
X128827500Y-97810000D01*
G75*
G02*
X128680000Y-97662500I0J147500D01*
G01*
X128680000Y-97367500D01*
G75*
G02*
X128827500Y-97220000I147500J0D01*
G01*
X129172500Y-97220000D01*
G75*
G02*
X129320000Y-97367500I0J-147500D01*
G01*
X129320000Y-97662500D01*
G75*
G02*
X129172500Y-97810000I-147500J0D01*
G01*
G37*
G04 #@! TD.AperFunction*
G04 #@! TA.AperFunction,SMDPad,CuDef*
G36*
G01*
X128825000Y-103875000D02*
X130975000Y-103875000D01*
G75*
G02*
X131225000Y-104125000I0J-250000D01*
G01*
X131225000Y-104875000D01*
G75*
G02*
X130975000Y-105125000I-250000J0D01*
G01*
X128825000Y-105125000D01*
G75*
G02*
X128575000Y-104875000I0J250000D01*
G01*
X128575000Y-104125000D01*
G75*
G02*
X128825000Y-103875000I250000J0D01*
G01*
G37*
G04 #@! TD.AperFunction*
G04 #@! TA.AperFunction,SMDPad,CuDef*
G36*
G01*
X128825000Y-106675000D02*
X130975000Y-106675000D01*
G75*
G02*
X131225000Y-106925000I0J-250000D01*
G01*
X131225000Y-107675000D01*
G75*
G02*
X130975000Y-107925000I-250000J0D01*
G01*
X128825000Y-107925000D01*
G75*
G02*
X128575000Y-107675000I0J250000D01*
G01*
X128575000Y-106925000D01*
G75*
G02*
X128825000Y-106675000I250000J0D01*
G01*
G37*
G04 #@! TD.AperFunction*
G04 #@! TA.AperFunction,SMDPad,CuDef*
G36*
G01*
X171125000Y-98725000D02*
X171125000Y-100875000D01*
G75*
G02*
X170875000Y-101125000I-250000J0D01*
G01*
X170125000Y-101125000D01*
G75*
G02*
X169875000Y-100875000I0J250000D01*
G01*
X169875000Y-98725000D01*
G75*
G02*
X170125000Y-98475000I250000J0D01*
G01*
X170875000Y-98475000D01*
G75*
G02*
X171125000Y-98725000I0J-250000D01*
G01*
G37*
G04 #@! TD.AperFunction*
G04 #@! TA.AperFunction,SMDPad,CuDef*
G36*
G01*
X168325000Y-98725000D02*
X168325000Y-100875000D01*
G75*
G02*
X168075000Y-101125000I-250000J0D01*
G01*
X167325000Y-101125000D01*
G75*
G02*
X167075000Y-100875000I0J250000D01*
G01*
X167075000Y-98725000D01*
G75*
G02*
X167325000Y-98475000I250000J0D01*
G01*
X168075000Y-98475000D01*
G75*
G02*
X168325000Y-98725000I0J-250000D01*
G01*
G37*
G04 #@! TD.AperFunction*
G04 #@! TA.AperFunction,SMDPad,CuDef*
G36*
G01*
X175825000Y-91725000D02*
X175825000Y-93875000D01*
G75*
G02*
X175575000Y-94125000I-250000J0D01*
G01*
X174825000Y-94125000D01*
G75*
G02*
X174575000Y-93875000I0J250000D01*
G01*
X174575000Y-91725000D01*
G75*
G02*
X174825000Y-91475000I250000J0D01*
G01*
X175575000Y-91475000D01*
G75*
G02*
X175825000Y-91725000I0J-250000D01*
G01*
G37*
G04 #@! TD.AperFunction*
G04 #@! TA.AperFunction,SMDPad,CuDef*
G36*
G01*
X173025000Y-91725000D02*
X173025000Y-93875000D01*
G75*
G02*
X172775000Y-94125000I-250000J0D01*
G01*
X172025000Y-94125000D01*
G75*
G02*
X171775000Y-93875000I0J250000D01*
G01*
X171775000Y-91725000D01*
G75*
G02*
X172025000Y-91475000I250000J0D01*
G01*
X172775000Y-91475000D01*
G75*
G02*
X173025000Y-91725000I0J-250000D01*
G01*
G37*
G04 #@! TD.AperFunction*
D27*
X169126329Y-88100000D03*
X168476329Y-88100000D03*
X167826329Y-88100000D03*
X167176329Y-88100000D03*
X166526329Y-88100000D03*
X165876329Y-88100000D03*
X165226329Y-88100000D03*
X164576329Y-88100000D03*
X164576329Y-93900000D03*
X165226329Y-93900000D03*
X165876329Y-93900000D03*
X166526329Y-93900000D03*
X167176329Y-93900000D03*
X167826329Y-93900000D03*
X168476329Y-93900000D03*
X169126329Y-93900000D03*
D28*
X166851329Y-91000000D03*
G04 #@! TA.AperFunction,SMDPad,CuDef*
G36*
G01*
X167720000Y-86772500D02*
X167720000Y-86427500D01*
G75*
G02*
X167867500Y-86280000I147500J0D01*
G01*
X168162500Y-86280000D01*
G75*
G02*
X168310000Y-86427500I0J-147500D01*
G01*
X168310000Y-86772500D01*
G75*
G02*
X168162500Y-86920000I-147500J0D01*
G01*
X167867500Y-86920000D01*
G75*
G02*
X167720000Y-86772500I0J147500D01*
G01*
G37*
G04 #@! TD.AperFunction*
G04 #@! TA.AperFunction,SMDPad,CuDef*
G36*
G01*
X168690000Y-86772500D02*
X168690000Y-86427500D01*
G75*
G02*
X168837500Y-86280000I147500J0D01*
G01*
X169132500Y-86280000D01*
G75*
G02*
X169280000Y-86427500I0J-147500D01*
G01*
X169280000Y-86772500D01*
G75*
G02*
X169132500Y-86920000I-147500J0D01*
G01*
X168837500Y-86920000D01*
G75*
G02*
X168690000Y-86772500I0J147500D01*
G01*
G37*
G04 #@! TD.AperFunction*
G04 #@! TA.AperFunction,SMDPad,CuDef*
G36*
G01*
X164220000Y-95572500D02*
X164220000Y-95227500D01*
G75*
G02*
X164367500Y-95080000I147500J0D01*
G01*
X164662500Y-95080000D01*
G75*
G02*
X164810000Y-95227500I0J-147500D01*
G01*
X164810000Y-95572500D01*
G75*
G02*
X164662500Y-95720000I-147500J0D01*
G01*
X164367500Y-95720000D01*
G75*
G02*
X164220000Y-95572500I0J147500D01*
G01*
G37*
G04 #@! TD.AperFunction*
G04 #@! TA.AperFunction,SMDPad,CuDef*
G36*
G01*
X165190000Y-95572500D02*
X165190000Y-95227500D01*
G75*
G02*
X165337500Y-95080000I147500J0D01*
G01*
X165632500Y-95080000D01*
G75*
G02*
X165780000Y-95227500I0J-147500D01*
G01*
X165780000Y-95572500D01*
G75*
G02*
X165632500Y-95720000I-147500J0D01*
G01*
X165337500Y-95720000D01*
G75*
G02*
X165190000Y-95572500I0J147500D01*
G01*
G37*
G04 #@! TD.AperFunction*
G04 #@! TA.AperFunction,SMDPad,CuDef*
G36*
G01*
X166465000Y-86427500D02*
X166465000Y-86772500D01*
G75*
G02*
X166317500Y-86920000I-147500J0D01*
G01*
X166022500Y-86920000D01*
G75*
G02*
X165875000Y-86772500I0J147500D01*
G01*
X165875000Y-86427500D01*
G75*
G02*
X166022500Y-86280000I147500J0D01*
G01*
X166317500Y-86280000D01*
G75*
G02*
X166465000Y-86427500I0J-147500D01*
G01*
G37*
G04 #@! TD.AperFunction*
G04 #@! TA.AperFunction,SMDPad,CuDef*
G36*
G01*
X165495000Y-86427500D02*
X165495000Y-86772500D01*
G75*
G02*
X165347500Y-86920000I-147500J0D01*
G01*
X165052500Y-86920000D01*
G75*
G02*
X164905000Y-86772500I0J147500D01*
G01*
X164905000Y-86427500D01*
G75*
G02*
X165052500Y-86280000I147500J0D01*
G01*
X165347500Y-86280000D01*
G75*
G02*
X165495000Y-86427500I0J-147500D01*
G01*
G37*
G04 #@! TD.AperFunction*
G04 #@! TA.AperFunction,SMDPad,CuDef*
G36*
G01*
X167272500Y-86880000D02*
X166927500Y-86880000D01*
G75*
G02*
X166780000Y-86732500I0J147500D01*
G01*
X166780000Y-86437500D01*
G75*
G02*
X166927500Y-86290000I147500J0D01*
G01*
X167272500Y-86290000D01*
G75*
G02*
X167420000Y-86437500I0J-147500D01*
G01*
X167420000Y-86732500D01*
G75*
G02*
X167272500Y-86880000I-147500J0D01*
G01*
G37*
G04 #@! TD.AperFunction*
G04 #@! TA.AperFunction,SMDPad,CuDef*
G36*
G01*
X167272500Y-85910000D02*
X166927500Y-85910000D01*
G75*
G02*
X166780000Y-85762500I0J147500D01*
G01*
X166780000Y-85467500D01*
G75*
G02*
X166927500Y-85320000I147500J0D01*
G01*
X167272500Y-85320000D01*
G75*
G02*
X167420000Y-85467500I0J-147500D01*
G01*
X167420000Y-85762500D01*
G75*
G02*
X167272500Y-85910000I-147500J0D01*
G01*
G37*
G04 #@! TD.AperFunction*
G04 #@! TA.AperFunction,SMDPad,CuDef*
G36*
G01*
X165127500Y-96120000D02*
X165472500Y-96120000D01*
G75*
G02*
X165620000Y-96267500I0J-147500D01*
G01*
X165620000Y-96562500D01*
G75*
G02*
X165472500Y-96710000I-147500J0D01*
G01*
X165127500Y-96710000D01*
G75*
G02*
X164980000Y-96562500I0J147500D01*
G01*
X164980000Y-96267500D01*
G75*
G02*
X165127500Y-96120000I147500J0D01*
G01*
G37*
G04 #@! TD.AperFunction*
G04 #@! TA.AperFunction,SMDPad,CuDef*
G36*
G01*
X165127500Y-97090000D02*
X165472500Y-97090000D01*
G75*
G02*
X165620000Y-97237500I0J-147500D01*
G01*
X165620000Y-97532500D01*
G75*
G02*
X165472500Y-97680000I-147500J0D01*
G01*
X165127500Y-97680000D01*
G75*
G02*
X164980000Y-97532500I0J147500D01*
G01*
X164980000Y-97237500D01*
G75*
G02*
X165127500Y-97090000I147500J0D01*
G01*
G37*
G04 #@! TD.AperFunction*
G04 #@! TA.AperFunction,SMDPad,CuDef*
G36*
G01*
X165743750Y-99675000D02*
X166256250Y-99675000D01*
G75*
G02*
X166475000Y-99893750I0J-218750D01*
G01*
X166475000Y-100331250D01*
G75*
G02*
X166256250Y-100550000I-218750J0D01*
G01*
X165743750Y-100550000D01*
G75*
G02*
X165525000Y-100331250I0J218750D01*
G01*
X165525000Y-99893750D01*
G75*
G02*
X165743750Y-99675000I218750J0D01*
G01*
G37*
G04 #@! TD.AperFunction*
G04 #@! TA.AperFunction,SMDPad,CuDef*
G36*
G01*
X165743750Y-101250000D02*
X166256250Y-101250000D01*
G75*
G02*
X166475000Y-101468750I0J-218750D01*
G01*
X166475000Y-101906250D01*
G75*
G02*
X166256250Y-102125000I-218750J0D01*
G01*
X165743750Y-102125000D01*
G75*
G02*
X165525000Y-101906250I0J218750D01*
G01*
X165525000Y-101468750D01*
G75*
G02*
X165743750Y-101250000I218750J0D01*
G01*
G37*
G04 #@! TD.AperFunction*
G04 #@! TA.AperFunction,SMDPad,CuDef*
G36*
G01*
X127975000Y-98625000D02*
X125825000Y-98625000D01*
G75*
G02*
X125575000Y-98375000I0J250000D01*
G01*
X125575000Y-97625000D01*
G75*
G02*
X125825000Y-97375000I250000J0D01*
G01*
X127975000Y-97375000D01*
G75*
G02*
X128225000Y-97625000I0J-250000D01*
G01*
X128225000Y-98375000D01*
G75*
G02*
X127975000Y-98625000I-250000J0D01*
G01*
G37*
G04 #@! TD.AperFunction*
G04 #@! TA.AperFunction,SMDPad,CuDef*
G36*
G01*
X127975000Y-95825000D02*
X125825000Y-95825000D01*
G75*
G02*
X125575000Y-95575000I0J250000D01*
G01*
X125575000Y-94825000D01*
G75*
G02*
X125825000Y-94575000I250000J0D01*
G01*
X127975000Y-94575000D01*
G75*
G02*
X128225000Y-94825000I0J-250000D01*
G01*
X128225000Y-95575000D01*
G75*
G02*
X127975000Y-95825000I-250000J0D01*
G01*
G37*
G04 #@! TD.AperFunction*
G04 #@! TA.AperFunction,SMDPad,CuDef*
G36*
G01*
X162227500Y-88120000D02*
X162572500Y-88120000D01*
G75*
G02*
X162720000Y-88267500I0J-147500D01*
G01*
X162720000Y-88562500D01*
G75*
G02*
X162572500Y-88710000I-147500J0D01*
G01*
X162227500Y-88710000D01*
G75*
G02*
X162080000Y-88562500I0J147500D01*
G01*
X162080000Y-88267500D01*
G75*
G02*
X162227500Y-88120000I147500J0D01*
G01*
G37*
G04 #@! TD.AperFunction*
G04 #@! TA.AperFunction,SMDPad,CuDef*
G36*
G01*
X162227500Y-89090000D02*
X162572500Y-89090000D01*
G75*
G02*
X162720000Y-89237500I0J-147500D01*
G01*
X162720000Y-89532500D01*
G75*
G02*
X162572500Y-89680000I-147500J0D01*
G01*
X162227500Y-89680000D01*
G75*
G02*
X162080000Y-89532500I0J147500D01*
G01*
X162080000Y-89237500D01*
G75*
G02*
X162227500Y-89090000I147500J0D01*
G01*
G37*
G04 #@! TD.AperFunction*
G04 #@! TA.AperFunction,SMDPad,CuDef*
G36*
G01*
X163227500Y-88120000D02*
X163572500Y-88120000D01*
G75*
G02*
X163720000Y-88267500I0J-147500D01*
G01*
X163720000Y-88562500D01*
G75*
G02*
X163572500Y-88710000I-147500J0D01*
G01*
X163227500Y-88710000D01*
G75*
G02*
X163080000Y-88562500I0J147500D01*
G01*
X163080000Y-88267500D01*
G75*
G02*
X163227500Y-88120000I147500J0D01*
G01*
G37*
G04 #@! TD.AperFunction*
G04 #@! TA.AperFunction,SMDPad,CuDef*
G36*
G01*
X163227500Y-89090000D02*
X163572500Y-89090000D01*
G75*
G02*
X163720000Y-89237500I0J-147500D01*
G01*
X163720000Y-89532500D01*
G75*
G02*
X163572500Y-89680000I-147500J0D01*
G01*
X163227500Y-89680000D01*
G75*
G02*
X163080000Y-89532500I0J147500D01*
G01*
X163080000Y-89237500D01*
G75*
G02*
X163227500Y-89090000I147500J0D01*
G01*
G37*
G04 #@! TD.AperFunction*
D10*
X174500000Y-79000000D03*
G04 #@! TA.AperFunction,SMDPad,CuDef*
G36*
G01*
X162307500Y-92270000D02*
X162652500Y-92270000D01*
G75*
G02*
X162800000Y-92417500I0J-147500D01*
G01*
X162800000Y-92712500D01*
G75*
G02*
X162652500Y-92860000I-147500J0D01*
G01*
X162307500Y-92860000D01*
G75*
G02*
X162160000Y-92712500I0J147500D01*
G01*
X162160000Y-92417500D01*
G75*
G02*
X162307500Y-92270000I147500J0D01*
G01*
G37*
G04 #@! TD.AperFunction*
G04 #@! TA.AperFunction,SMDPad,CuDef*
G36*
G01*
X162307500Y-93240000D02*
X162652500Y-93240000D01*
G75*
G02*
X162800000Y-93387500I0J-147500D01*
G01*
X162800000Y-93682500D01*
G75*
G02*
X162652500Y-93830000I-147500J0D01*
G01*
X162307500Y-93830000D01*
G75*
G02*
X162160000Y-93682500I0J147500D01*
G01*
X162160000Y-93387500D01*
G75*
G02*
X162307500Y-93240000I147500J0D01*
G01*
G37*
G04 #@! TD.AperFunction*
G04 #@! TA.AperFunction,SMDPad,CuDef*
G36*
G01*
X163317500Y-92270000D02*
X163662500Y-92270000D01*
G75*
G02*
X163810000Y-92417500I0J-147500D01*
G01*
X163810000Y-92712500D01*
G75*
G02*
X163662500Y-92860000I-147500J0D01*
G01*
X163317500Y-92860000D01*
G75*
G02*
X163170000Y-92712500I0J147500D01*
G01*
X163170000Y-92417500D01*
G75*
G02*
X163317500Y-92270000I147500J0D01*
G01*
G37*
G04 #@! TD.AperFunction*
G04 #@! TA.AperFunction,SMDPad,CuDef*
G36*
G01*
X163317500Y-93240000D02*
X163662500Y-93240000D01*
G75*
G02*
X163810000Y-93387500I0J-147500D01*
G01*
X163810000Y-93682500D01*
G75*
G02*
X163662500Y-93830000I-147500J0D01*
G01*
X163317500Y-93830000D01*
G75*
G02*
X163170000Y-93682500I0J147500D01*
G01*
X163170000Y-93387500D01*
G75*
G02*
X163317500Y-93240000I147500J0D01*
G01*
G37*
G04 #@! TD.AperFunction*
X174500000Y-131000000D03*
X122500000Y-79000000D03*
D29*
X140300000Y-91200000D03*
X132000000Y-76300000D03*
X143100000Y-88600000D03*
X141100000Y-89100000D03*
X133300000Y-80000000D03*
X148500000Y-93600000D03*
D30*
X148500000Y-97500000D03*
D29*
X132000000Y-80000000D03*
X125000000Y-84500000D03*
X159800000Y-84900000D03*
X125000000Y-85500000D03*
X125000000Y-83500000D03*
X159800000Y-83900000D03*
X142800000Y-93700000D03*
D30*
X164300000Y-100800000D03*
X152300000Y-93300000D03*
X155600000Y-91200000D03*
X151900000Y-91500000D03*
X152800000Y-92100000D03*
X157000000Y-92700000D03*
X168900000Y-107200000D03*
X143300000Y-98700000D03*
X170000000Y-107200000D03*
X145500000Y-97600000D03*
X169500000Y-106300000D03*
X144000000Y-97900000D03*
D29*
X160600000Y-86800000D03*
D30*
X124400000Y-88500000D03*
X120400000Y-90400000D03*
X140000000Y-112000000D03*
X140000000Y-116000000D03*
X142000000Y-116000000D03*
X142000000Y-112000000D03*
X140000000Y-114000000D03*
X168900000Y-116700000D03*
X130300000Y-133900000D03*
X130300000Y-132200000D03*
X170200000Y-117800000D03*
X143100000Y-124100000D03*
X145300000Y-124100000D03*
X161800000Y-107000000D03*
X160800000Y-132100000D03*
X138900000Y-104200000D03*
X136200000Y-104200000D03*
X138900000Y-105400000D03*
X142250000Y-106800000D03*
X150400000Y-97200000D03*
X166800000Y-92200000D03*
X166800000Y-91000000D03*
X166800000Y-89800000D03*
X148500000Y-104400000D03*
D29*
X130800000Y-111600000D03*
D30*
X119500000Y-85700000D03*
X146800000Y-104400000D03*
D29*
X143000000Y-94700000D03*
D30*
X168900000Y-118800000D03*
X127800000Y-96900000D03*
X161800000Y-109200000D03*
X127100000Y-91200000D03*
X134500000Y-111800000D03*
X161800000Y-104500000D03*
D29*
X172400000Y-97800000D03*
D30*
X130700000Y-103200000D03*
X125700000Y-91200000D03*
X152300000Y-96300000D03*
X167600000Y-118800000D03*
D29*
X130800000Y-76300000D03*
D30*
X166300000Y-118800000D03*
X166300000Y-116700000D03*
X146800000Y-82300000D03*
X164500000Y-133900000D03*
D29*
X173200000Y-100600000D03*
X170500000Y-94800000D03*
D30*
X145300000Y-125500000D03*
D29*
X159500000Y-86700000D03*
X127700000Y-113400000D03*
D30*
X150200000Y-106100000D03*
X134600000Y-112700000D03*
D29*
X130800000Y-118100000D03*
D30*
X160800000Y-133900000D03*
X145300000Y-126800000D03*
D29*
X120800000Y-106000000D03*
D30*
X133700000Y-132200000D03*
X124300000Y-91200000D03*
X165600000Y-115100000D03*
D29*
X171600000Y-100600000D03*
D30*
X144200000Y-126800000D03*
X164800000Y-92200000D03*
X170200000Y-118800000D03*
X146800000Y-106100000D03*
D29*
X120900000Y-120335000D03*
X136700000Y-93700000D03*
D30*
X139900000Y-83100000D03*
X124300000Y-92700000D03*
X120600000Y-96800000D03*
X138900000Y-106600000D03*
X143100000Y-125500000D03*
D29*
X140300000Y-88400000D03*
D30*
X125900000Y-96900000D03*
X150115000Y-82800000D03*
X142000000Y-114000000D03*
X150200000Y-104400000D03*
X143100000Y-126800000D03*
X129100000Y-103200000D03*
D29*
X145100000Y-89600000D03*
X166599999Y-84699999D03*
D30*
X138000000Y-112000000D03*
D29*
X134600000Y-117100000D03*
D30*
X135000000Y-88900000D03*
X133700000Y-133900000D03*
D29*
X162400000Y-87500000D03*
X137100000Y-123200000D03*
D30*
X164800000Y-91000000D03*
X142250000Y-105800000D03*
D29*
X142400000Y-97800000D03*
D30*
X145300000Y-122900000D03*
D29*
X172400000Y-90900000D03*
X152100000Y-120800000D03*
X120900000Y-113017803D03*
D30*
X164500000Y-132100000D03*
X132400000Y-107200000D03*
X140000000Y-118000000D03*
X166300000Y-117800000D03*
D29*
X142200000Y-86400000D03*
X171600000Y-99000000D03*
D30*
X164800000Y-89800000D03*
X132500000Y-121500000D03*
D29*
X146500000Y-114700000D03*
D30*
X141500000Y-99800000D03*
X167600000Y-116700000D03*
D29*
X146500000Y-90100000D03*
D30*
X125000000Y-98300000D03*
X147100000Y-109500000D03*
X170200000Y-116700000D03*
X142000000Y-118000000D03*
D29*
X164400000Y-86600000D03*
X152300000Y-86300000D03*
D30*
X138000000Y-117800000D03*
D29*
X171300000Y-92900000D03*
D30*
X143100000Y-123100000D03*
X131700000Y-113200000D03*
X159900000Y-104500000D03*
X145800000Y-109500000D03*
X153300000Y-95200000D03*
X131800000Y-114600000D03*
X133800000Y-115050000D03*
X132400000Y-109100000D03*
X132500000Y-120000000D03*
X134500000Y-109750000D03*
X134300000Y-119200000D03*
D29*
X176500000Y-96800000D03*
D30*
X144800000Y-121800000D03*
X134900000Y-105900000D03*
X145050000Y-106800000D03*
D29*
X166100000Y-85700000D03*
D30*
X138800000Y-102600000D03*
X135900000Y-123200000D03*
X141600000Y-102600000D03*
X135800000Y-102600000D03*
X132800000Y-102600000D03*
X145600000Y-108150000D03*
D29*
X166200000Y-98300000D03*
D30*
X125900000Y-94100000D03*
D29*
X152500000Y-83400000D03*
D30*
X149115000Y-82800000D03*
X140500000Y-99800000D03*
X127700000Y-95400000D03*
X135000000Y-87900000D03*
D29*
X133200000Y-76300000D03*
X119500000Y-83500000D03*
D30*
X149900000Y-109600000D03*
X141500000Y-81300000D03*
D29*
X120800000Y-105000000D03*
X120900000Y-112100000D03*
X140000000Y-96200000D03*
D30*
X152300000Y-95300000D03*
X163500000Y-110000000D03*
X124200000Y-94100000D03*
D29*
X156300000Y-88500000D03*
D30*
X166900000Y-104600000D03*
D29*
X120900000Y-119317187D03*
D30*
X127700000Y-94100000D03*
D29*
X162400000Y-90300000D03*
D30*
X148900000Y-123000000D03*
X165500000Y-113500000D03*
X150700000Y-122200000D03*
X165000000Y-112500000D03*
X146200000Y-100100000D03*
D29*
X159000000Y-100800000D03*
X150700000Y-120800000D03*
X147900000Y-100100000D03*
X167800000Y-107200000D03*
X125900000Y-124500000D03*
X124900000Y-124500000D03*
X124900000Y-123400000D03*
X125900000Y-123400000D03*
X124600000Y-117300000D03*
X125400000Y-116200000D03*
X124600000Y-116200000D03*
X125400000Y-117300000D03*
X125500000Y-109100000D03*
X124700000Y-110100000D03*
X124700000Y-109100000D03*
X125500000Y-110100000D03*
X166400000Y-95410000D03*
X163560000Y-94560000D03*
D31*
X122875280Y-83400000D02*
X123015000Y-83539720D01*
X121325000Y-83500000D02*
X122875280Y-83500000D01*
X122865000Y-84350000D02*
X123015000Y-84500000D01*
X121325000Y-84350000D02*
X122865000Y-84350000D01*
X122500000Y-85500000D02*
X123015000Y-85500000D01*
X120900000Y-85000000D02*
X122000000Y-85000000D01*
X120475000Y-84350000D02*
X120475000Y-84575000D01*
X122000000Y-85000000D02*
X122500000Y-85500000D01*
X120475000Y-84575000D02*
X120900000Y-85000000D01*
D32*
X131960000Y-76740000D02*
X131960000Y-76340000D01*
X140300000Y-91450000D02*
X140300000Y-91200000D01*
D31*
X141500000Y-91100000D02*
X141500000Y-91600000D01*
X143000000Y-89600000D02*
X141500000Y-91100000D01*
D32*
X131960000Y-76740000D02*
X131960000Y-77465000D01*
X143100000Y-88600000D02*
X143100000Y-88650000D01*
D31*
X141600000Y-93715000D02*
X141600000Y-91700000D01*
X141600000Y-91700000D02*
X141500000Y-91600000D01*
X143100000Y-88600000D02*
X143100000Y-89585000D01*
X143115000Y-89600000D02*
X143000000Y-89600000D01*
X141100000Y-91200000D02*
X140300000Y-91200000D01*
X143100000Y-89585000D02*
X143115000Y-89600000D01*
X141500000Y-91600000D02*
X141100000Y-91200000D01*
D32*
X131960000Y-76340000D02*
X132000000Y-76300000D01*
D33*
X145600000Y-87700000D02*
X142500000Y-87700000D01*
X142500000Y-87700000D02*
X141100000Y-89100000D01*
X163000000Y-99000000D02*
X158200000Y-94200000D01*
X147485000Y-89585000D02*
X145600000Y-87700000D01*
X151200000Y-94200000D02*
X149000000Y-92000000D01*
X158200000Y-94200000D02*
X151200000Y-94200000D01*
X166000000Y-101687500D02*
X163857196Y-101687500D01*
X147485000Y-91021280D02*
X147485000Y-89585000D01*
X163000000Y-100830304D02*
X163000000Y-99000000D01*
X149000000Y-92000000D02*
X147485000Y-92000000D01*
X163857196Y-101687500D02*
X163000000Y-100830304D01*
X147485000Y-92000000D02*
X147485000Y-91021280D01*
D32*
X133300000Y-80000000D02*
X133230000Y-79930000D01*
X133230000Y-79930000D02*
X133230000Y-78735000D01*
X132000000Y-80000000D02*
X131960000Y-79960000D01*
X131960000Y-79960000D02*
X131960000Y-78735000D01*
X148500000Y-93600000D02*
X148500000Y-97500000D01*
X123985000Y-84500000D02*
X125000000Y-84500000D01*
D31*
X158450000Y-87150000D02*
X158450000Y-86250000D01*
X158450000Y-88062500D02*
X158450000Y-87150000D01*
X158450000Y-86250000D02*
X159800000Y-84900000D01*
D32*
X123985000Y-85500000D02*
X125000000Y-85500000D01*
X123985000Y-83539720D02*
X124960280Y-83539720D01*
X124960280Y-83539720D02*
X125000000Y-83500000D01*
D31*
X155300000Y-88200000D02*
X159600000Y-83900000D01*
X157262500Y-90250000D02*
X156450000Y-90250000D01*
X156450000Y-90250000D02*
X155300000Y-89100000D01*
X155300000Y-89100000D02*
X155300000Y-88200000D01*
X159600000Y-83900000D02*
X159800000Y-83900000D01*
X142815000Y-93715000D02*
X142800000Y-93700000D01*
X144000000Y-93715000D02*
X142815000Y-93715000D01*
D32*
X152300000Y-93300000D02*
X152600000Y-93600000D01*
X158600000Y-93600000D02*
X164300000Y-99300000D01*
X164300000Y-99300000D02*
X164300000Y-100800000D01*
X152600000Y-93600000D02*
X158600000Y-93600000D01*
X155300000Y-90900000D02*
X155600000Y-91200000D01*
X153400000Y-90900000D02*
X155300000Y-90900000D01*
X152500000Y-90900000D02*
X151900000Y-91500000D01*
X153400000Y-90900000D02*
X152500000Y-90900000D01*
X152800000Y-92100000D02*
X153100000Y-92400000D01*
X156700000Y-92400000D02*
X157000000Y-92700000D01*
X154900000Y-92400000D02*
X156700000Y-92400000D01*
X153100000Y-92400000D02*
X154900000Y-92400000D01*
X144900000Y-99300000D02*
X144500000Y-99700000D01*
X143500000Y-98700000D02*
X144500000Y-99700000D01*
X143300000Y-98700000D02*
X143500000Y-98700000D01*
X159400000Y-99300000D02*
X144900000Y-99300000D01*
X168100000Y-106400000D02*
X166500000Y-106400000D01*
X166500000Y-106400000D02*
X159400000Y-99300000D01*
X168900000Y-107200000D02*
X168100000Y-106400000D01*
X160500000Y-99050000D02*
X160500000Y-98600000D01*
X170000000Y-107200000D02*
X170300000Y-106900000D01*
X170300000Y-106000000D02*
X167000000Y-102700000D01*
X164150000Y-102700000D02*
X160500000Y-99050000D01*
X160800000Y-98300000D02*
X146200000Y-98300000D01*
X170300000Y-106900000D02*
X170300000Y-106000000D01*
X167000000Y-102700000D02*
X164150000Y-102700000D01*
X160500000Y-98600000D02*
X160800000Y-98300000D01*
X146200000Y-98300000D02*
X145500000Y-97600000D01*
X159600000Y-98800000D02*
X144900000Y-98800000D01*
X164500000Y-103700000D02*
X159600000Y-98800000D01*
X169500000Y-106300000D02*
X169500000Y-106000000D01*
X169500000Y-106000000D02*
X167200000Y-103700000D01*
X167200000Y-103700000D02*
X164500000Y-103700000D01*
X144900000Y-98800000D02*
X144000000Y-97900000D01*
D31*
X160450000Y-86950000D02*
X160600000Y-86800000D01*
X160450000Y-88062500D02*
X160450000Y-86950000D01*
D32*
X123100000Y-95342200D02*
X122807800Y-95050000D01*
X124370000Y-88530000D02*
X124400000Y-88500000D01*
D33*
X123555000Y-88530000D02*
X124370000Y-88530000D01*
D32*
X122100000Y-96950000D02*
X122807800Y-96950000D01*
X122807800Y-96950000D02*
X123100000Y-96657800D01*
X123100000Y-96657800D02*
X123100000Y-95342200D01*
X122807800Y-95050000D02*
X122100000Y-95050000D01*
D34*
X144100000Y-125100000D02*
X143900000Y-124900000D01*
X132400000Y-106200000D02*
X130700000Y-104500000D01*
D33*
X119500000Y-86715000D02*
X119500000Y-85700000D01*
X165226329Y-95141329D02*
X165485000Y-95400000D01*
X172400000Y-92800000D02*
X172400000Y-90900000D01*
D31*
X144900000Y-91600000D02*
X145100000Y-91400000D01*
D32*
X161137500Y-89750000D02*
X159450000Y-89750000D01*
D34*
X130700000Y-104500000D02*
X129900000Y-104500000D01*
D31*
X159450000Y-88062500D02*
X159450000Y-86750000D01*
D34*
X138900000Y-106600000D02*
X137400000Y-106600000D01*
D32*
X157262500Y-89750000D02*
X158950000Y-89750000D01*
D33*
X146515000Y-91021280D02*
X146515000Y-90115000D01*
D32*
X159450000Y-88062500D02*
X159450000Y-89750000D01*
D31*
X165226329Y-92426329D02*
X165226329Y-93900000D01*
D33*
X170500000Y-99800000D02*
X171300000Y-99000000D01*
D31*
X145100000Y-91400000D02*
X145100000Y-89600000D01*
X159950000Y-87150000D02*
X159500000Y-86700000D01*
D34*
X159000000Y-105400000D02*
X159000000Y-106500000D01*
X144200000Y-124800000D02*
X144300000Y-124900000D01*
D31*
X162400000Y-88415000D02*
X162400000Y-87500000D01*
D33*
X122000000Y-106000000D02*
X123100000Y-107100000D01*
X170500000Y-96600000D02*
X170500000Y-94800000D01*
D31*
X159450000Y-89750000D02*
X159200000Y-90000000D01*
D32*
X119600000Y-85600000D02*
X119500000Y-85700000D01*
D33*
X122235000Y-120335000D02*
X123100000Y-121200000D01*
D32*
X130690000Y-77465000D02*
X130690000Y-76410000D01*
D31*
X162400000Y-88415000D02*
X163400000Y-88415000D01*
D33*
X120715000Y-96000000D02*
X120600000Y-95885000D01*
D31*
X144900000Y-89600000D02*
X145100000Y-89600000D01*
D34*
X159900000Y-104500000D02*
X159000000Y-105400000D01*
D33*
X123100000Y-121200000D02*
X123100000Y-121785000D01*
D34*
X134600000Y-117100000D02*
X135700000Y-118200000D01*
D33*
X127800000Y-96900000D02*
X128385000Y-96900000D01*
D32*
X164435000Y-92565000D02*
X164800000Y-92200000D01*
X130690000Y-76410000D02*
X130800000Y-76300000D01*
D34*
X132400000Y-107200000D02*
X132400000Y-106200000D01*
D33*
X172400000Y-96000000D02*
X172400000Y-97800000D01*
X164615000Y-89615000D02*
X164700000Y-89700000D01*
D34*
X129100000Y-103200000D02*
X129100000Y-104400000D01*
D31*
X164700000Y-92000000D02*
X164800000Y-92000000D01*
D33*
X167100000Y-85615000D02*
X167100000Y-85200000D01*
X120900000Y-120335000D02*
X122235000Y-120335000D01*
X146515000Y-90115000D02*
X146500000Y-90100000D01*
D34*
X130700000Y-103200000D02*
X130700000Y-104300000D01*
D33*
X123100000Y-107100000D02*
X123100000Y-108015000D01*
D32*
X163490000Y-92565000D02*
X164435000Y-92565000D01*
D34*
X148500000Y-104400000D02*
X148500000Y-107000000D01*
X129100000Y-104400000D02*
X129300000Y-104600000D01*
D32*
X161137500Y-88750000D02*
X160450000Y-88750000D01*
D31*
X164800000Y-92000000D02*
X165226329Y-92426329D01*
X158950000Y-87250000D02*
X159500000Y-86700000D01*
X144900000Y-89600000D02*
X144085000Y-89600000D01*
D33*
X135700000Y-118200000D02*
X136200000Y-118200000D01*
D32*
X141485000Y-99815000D02*
X141500000Y-99800000D01*
D34*
X159000000Y-107000000D02*
X159000000Y-107500000D01*
D32*
X120415000Y-85700000D02*
X119600000Y-85700000D01*
D33*
X146515000Y-92000000D02*
X146515000Y-91021280D01*
X172400000Y-96000000D02*
X171300000Y-94900000D01*
D31*
X162065000Y-88750000D02*
X162400000Y-88415000D01*
D33*
X170800000Y-99800000D02*
X171600000Y-100600000D01*
D34*
X144200000Y-123600000D02*
X144200000Y-122900000D01*
X144300000Y-126000000D02*
X144400000Y-125900000D01*
D32*
X158950000Y-89750000D02*
X159200000Y-90000000D01*
D33*
X165226329Y-93900000D02*
X165226329Y-95141329D01*
D34*
X137400000Y-106600000D02*
X137000000Y-107000000D01*
D33*
X171300000Y-99000000D02*
X171600000Y-99000000D01*
X165200000Y-86600000D02*
X164400000Y-86600000D01*
D31*
X159950000Y-89250000D02*
X159200000Y-90000000D01*
D33*
X171300000Y-94900000D02*
X171300000Y-92900000D01*
X128385000Y-96900000D02*
X129000000Y-97515000D01*
X122100000Y-96000000D02*
X120715000Y-96000000D01*
X120600000Y-95885000D02*
X120600000Y-96800000D01*
D31*
X159950000Y-88062500D02*
X159950000Y-87150000D01*
D33*
X167100000Y-85200000D02*
X166599999Y-84699999D01*
D31*
X159450000Y-86750000D02*
X159500000Y-86700000D01*
X165200000Y-86600000D02*
X165876329Y-87276329D01*
D33*
X171600000Y-100600000D02*
X173200000Y-100600000D01*
D32*
X158950000Y-88062500D02*
X158950000Y-89750000D01*
X160450000Y-88750000D02*
X159200000Y-90000000D01*
D34*
X138000000Y-117800000D02*
X137900000Y-117900000D01*
D31*
X165876329Y-87276329D02*
X165876329Y-88100000D01*
D34*
X137900000Y-117900000D02*
X135900000Y-117900000D01*
D32*
X159950000Y-88062500D02*
X159950000Y-89250000D01*
D31*
X161137500Y-88750000D02*
X162065000Y-88750000D01*
X158950000Y-88062500D02*
X158950000Y-87250000D01*
D33*
X123500000Y-91200000D02*
X122700000Y-92000000D01*
X120800000Y-106000000D02*
X122000000Y-106000000D01*
X124300000Y-91200000D02*
X123500000Y-91200000D01*
X146515000Y-91021280D02*
X146515000Y-91015000D01*
D34*
X168430000Y-120500000D02*
X176400002Y-120500000D01*
D32*
X166000000Y-99042318D02*
X166000000Y-100112500D01*
D34*
X133800000Y-120000000D02*
X134500000Y-120700000D01*
D33*
X167387500Y-100112500D02*
X167700000Y-99800000D01*
D34*
X176400002Y-120500000D02*
X177000000Y-120500000D01*
D32*
X162480000Y-95522318D02*
X166000000Y-99042318D01*
D33*
X166000000Y-100112500D02*
X167387500Y-100112500D01*
D32*
X162480000Y-93535000D02*
X162480000Y-95522318D01*
D34*
X134500000Y-120700000D02*
X135900000Y-120700000D01*
D33*
X166300000Y-97385000D02*
X166300000Y-98200000D01*
X166300000Y-97385000D02*
X165300000Y-97385000D01*
D34*
X135800000Y-102600000D02*
X134900000Y-103500000D01*
X134900000Y-103500000D02*
X134900000Y-105379075D01*
X134900000Y-105379075D02*
X134900000Y-105900000D01*
D33*
X166300000Y-98200000D02*
X166200000Y-98300000D01*
D31*
X166170000Y-86600000D02*
X166170000Y-85770000D01*
X166526329Y-88100000D02*
X166526329Y-86956329D01*
X166526329Y-86956329D02*
X166170000Y-86600000D01*
X166170000Y-85770000D02*
X166100000Y-85700000D01*
D34*
X166170000Y-98300000D02*
X166200000Y-98300000D01*
D31*
X157262500Y-88750000D02*
X156550000Y-88750000D01*
X157950000Y-88062500D02*
X157537500Y-88062500D01*
D32*
X133200000Y-77435000D02*
X133230000Y-77465000D01*
D31*
X141912500Y-95800000D02*
X141600000Y-95487500D01*
D32*
X133200000Y-76300000D02*
X133200000Y-77435000D01*
D31*
X157537500Y-88062500D02*
X157262500Y-88337500D01*
X140000000Y-96200000D02*
X140300000Y-95900000D01*
X141600000Y-95487500D02*
X141600000Y-94685000D01*
X162400000Y-89385000D02*
X162400000Y-90300000D01*
X120475000Y-83500000D02*
X119675000Y-83500000D01*
D34*
X124550000Y-94950000D02*
X125937500Y-94950000D01*
D33*
X129187500Y-94100000D02*
X129500000Y-94412500D01*
D31*
X119675000Y-83675000D02*
X119500000Y-83500000D01*
X157000000Y-89250000D02*
X157000000Y-88750000D01*
X162265000Y-89250000D02*
X162400000Y-89385000D01*
X162400000Y-89385000D02*
X163400000Y-89385000D01*
D34*
X125937500Y-94950000D02*
X126300000Y-95312500D01*
D31*
X140300000Y-95900000D02*
X141812500Y-95900000D01*
X157262500Y-88337500D02*
X157262500Y-88750000D01*
D33*
X127700000Y-94100000D02*
X129187500Y-94100000D01*
D31*
X161137500Y-89250000D02*
X162265000Y-89250000D01*
X156550000Y-88750000D02*
X156300000Y-88500000D01*
X141812500Y-95900000D02*
X141912500Y-95800000D01*
D33*
X147230000Y-123870000D02*
X147230000Y-124820000D01*
X148100000Y-123000000D02*
X147230000Y-123870000D01*
X165500000Y-113500000D02*
X166000000Y-113500000D01*
X148900000Y-123000000D02*
X148100000Y-123000000D01*
D32*
X167300000Y-114800000D02*
X168230000Y-114800000D01*
D33*
X166000000Y-113500000D02*
X167300000Y-114800000D01*
D32*
X167100000Y-112000000D02*
X167300000Y-111800000D01*
D33*
X150230000Y-122670000D02*
X150331651Y-122568349D01*
X165000000Y-112500000D02*
X165500000Y-112000000D01*
X150331651Y-122568349D02*
X150700000Y-122200000D01*
X165500000Y-112000000D02*
X167100000Y-112000000D01*
D32*
X167300000Y-111800000D02*
X168230000Y-111800000D01*
D33*
X150230000Y-124820000D02*
X150230000Y-122670000D01*
D32*
X159000000Y-100800000D02*
X146900000Y-100800000D01*
X146900000Y-100800000D02*
X146200000Y-100100000D01*
D33*
X167176329Y-86661329D02*
X167100000Y-86585000D01*
X167176329Y-88100000D02*
X167176329Y-86661329D01*
X170300000Y-87700000D02*
X170900000Y-87100000D01*
X169126329Y-86741329D02*
X168985000Y-86600000D01*
X168476329Y-88100000D02*
X168476329Y-87823671D01*
X167826329Y-86788671D02*
X168015000Y-86600000D01*
X167826329Y-88100000D02*
X167826329Y-86788671D01*
D32*
X121385000Y-85715000D02*
X121385000Y-85600000D01*
X120605000Y-86495000D02*
X121385000Y-85715000D01*
X120605000Y-86930000D02*
X120605000Y-86495000D01*
D33*
X119545000Y-87730000D02*
X119500000Y-87685000D01*
X119500000Y-87685000D02*
X119500000Y-88615000D01*
X120605000Y-87730000D02*
X119545000Y-87730000D01*
X119500000Y-87685000D02*
X119700000Y-87685000D01*
X129000000Y-98485000D02*
X130000000Y-98485000D01*
X150700000Y-120800000D02*
X153230000Y-123330000D01*
X153230000Y-123330000D02*
X153230000Y-124820000D01*
D32*
X148000000Y-100000000D02*
X147900000Y-100100000D01*
X167800000Y-107200000D02*
X166600000Y-107200000D01*
X159400000Y-100000000D02*
X148000000Y-100000000D01*
X168320000Y-108770000D02*
X168070000Y-108770000D01*
X167370000Y-108770000D02*
X168320000Y-108770000D01*
D33*
X167800000Y-108500000D02*
X168070000Y-108770000D01*
X167800000Y-107200000D02*
X167800000Y-108500000D01*
D32*
X166600000Y-107200000D02*
X159400000Y-100000000D01*
X124700000Y-109100000D02*
X124700000Y-110100000D01*
D33*
X164515000Y-95630000D02*
X165300000Y-96415000D01*
X164515000Y-95400000D02*
X164515000Y-95630000D01*
X166300000Y-96415000D02*
X165300000Y-96415000D01*
X164576329Y-93900000D02*
X164576329Y-95338671D01*
D31*
X164615000Y-93938671D02*
X164576329Y-93900000D01*
D33*
X164576329Y-95338671D02*
X164515000Y-95400000D01*
D31*
X164491329Y-93985000D02*
X164576329Y-93900000D01*
D33*
X130000000Y-97515000D02*
X130000000Y-96487500D01*
X130000000Y-96487500D02*
X129500000Y-95987500D01*
D31*
X143487500Y-95800000D02*
X143487500Y-96000000D01*
X144000000Y-95287500D02*
X143487500Y-95800000D01*
X144000000Y-94685000D02*
X144000000Y-95287500D01*
D32*
X162520000Y-92565000D02*
X163490000Y-93535000D01*
X162480000Y-92565000D02*
X162520000Y-92565000D01*
X163490000Y-94490000D02*
X163560000Y-94560000D01*
X166526329Y-93900000D02*
X166526329Y-95283671D01*
X163490000Y-93535000D02*
X163490000Y-94490000D01*
X166526329Y-95283671D02*
X166400000Y-95410000D01*
G04 #@! TA.AperFunction,Conductor*
G36*
X164842121Y-131720002D02*
G01*
X164888614Y-131773658D01*
X164900000Y-131826000D01*
X164900000Y-134574000D01*
X164879998Y-134642121D01*
X164826342Y-134688614D01*
X164774000Y-134700000D01*
X160526000Y-134700000D01*
X160457879Y-134679998D01*
X160411386Y-134626342D01*
X160400000Y-134574000D01*
X160400000Y-131826000D01*
X160420002Y-131757879D01*
X160473658Y-131711386D01*
X160526000Y-131700000D01*
X164774000Y-131700000D01*
X164842121Y-131720002D01*
G37*
G04 #@! TD.AperFunction*
G04 #@! TA.AperFunction,Conductor*
G36*
X134042121Y-131820002D02*
G01*
X134088614Y-131873658D01*
X134100000Y-131926000D01*
X134100000Y-134574000D01*
X134079998Y-134642121D01*
X134026342Y-134688614D01*
X133974000Y-134700000D01*
X130026000Y-134700000D01*
X129957879Y-134679998D01*
X129911386Y-134626342D01*
X129900000Y-134574000D01*
X129900000Y-131926000D01*
X129920002Y-131857879D01*
X129973658Y-131811386D01*
X130026000Y-131800000D01*
X133974000Y-131800000D01*
X134042121Y-131820002D01*
G37*
G04 #@! TD.AperFunction*
G04 #@! TA.AperFunction,Conductor*
G36*
X144190714Y-122418745D02*
G01*
X144266820Y-122494851D01*
X144464835Y-122609174D01*
X144685683Y-122668349D01*
X144914327Y-122668348D01*
X145135167Y-122609173D01*
X145333180Y-122494851D01*
X145409286Y-122418745D01*
X145454541Y-122400000D01*
X145636000Y-122400000D01*
X145681255Y-122418745D01*
X145700000Y-122464000D01*
X145700000Y-127136000D01*
X145681255Y-127181255D01*
X145636000Y-127200000D01*
X142764000Y-127200000D01*
X142718745Y-127181255D01*
X142700000Y-127136000D01*
X142700000Y-122464000D01*
X142718745Y-122418745D01*
X142764000Y-122400000D01*
X144145459Y-122400000D01*
X144190714Y-122418745D01*
G37*
G04 #@! TD.AperFunction*
G04 #@! TA.AperFunction,Conductor*
G36*
X158501676Y-101516881D02*
G01*
X158664195Y-101610711D01*
X158885464Y-101670000D01*
X159114536Y-101670000D01*
X159335811Y-101610708D01*
X159498324Y-101516881D01*
X159561324Y-101500000D01*
X159947810Y-101500000D01*
X160036905Y-101536905D01*
X164463095Y-105963095D01*
X164500000Y-106052190D01*
X164500000Y-109525115D01*
X164479998Y-109593236D01*
X164426342Y-109639729D01*
X164356068Y-109649833D01*
X164291488Y-109620339D01*
X164264881Y-109588115D01*
X164194847Y-109466815D01*
X164033185Y-109305153D01*
X164033175Y-109305146D01*
X163835168Y-109190828D01*
X163614318Y-109131651D01*
X163385682Y-109131651D01*
X163164825Y-109190831D01*
X162966815Y-109305153D01*
X162805153Y-109466815D01*
X162805146Y-109466825D01*
X162690828Y-109664832D01*
X162631651Y-109885682D01*
X162631651Y-110114318D01*
X162690831Y-110335175D01*
X162805153Y-110533185D01*
X162966815Y-110694847D01*
X162966825Y-110694854D01*
X163164832Y-110809172D01*
X163385682Y-110868349D01*
X163614318Y-110868349D01*
X163835175Y-110809169D01*
X164033185Y-110694847D01*
X164194847Y-110533185D01*
X164194854Y-110533175D01*
X164264881Y-110411885D01*
X164316263Y-110362892D01*
X164385977Y-110349456D01*
X164451888Y-110375842D01*
X164493070Y-110433674D01*
X164500000Y-110474885D01*
X164500000Y-111719778D01*
X164463095Y-111808873D01*
X164305153Y-111966815D01*
X164305146Y-111966825D01*
X164190828Y-112164832D01*
X164131651Y-112385682D01*
X164131651Y-112614318D01*
X164190831Y-112835175D01*
X164305153Y-113033185D01*
X164463095Y-113191127D01*
X164500000Y-113280222D01*
X164500000Y-113500000D01*
X164616447Y-113619595D01*
X164647877Y-113674882D01*
X164690827Y-113835168D01*
X164805153Y-114033185D01*
X164966815Y-114194847D01*
X164966825Y-114194854D01*
X165164826Y-114309170D01*
X165297832Y-114344809D01*
X165355493Y-114378614D01*
X166314275Y-115363309D01*
X166350000Y-115451209D01*
X166350000Y-116300000D01*
X170474000Y-116300000D01*
X170542121Y-116320002D01*
X170588614Y-116373658D01*
X170600000Y-116426000D01*
X170600000Y-118874000D01*
X170579998Y-118942121D01*
X170526342Y-118988614D01*
X170474000Y-119000000D01*
X165665352Y-119000000D01*
X165603130Y-118983565D01*
X162013778Y-116945168D01*
X161964420Y-116894135D01*
X161950000Y-116835603D01*
X161950000Y-112750002D01*
X161904816Y-112542292D01*
X161827875Y-112422570D01*
X161720322Y-112329374D01*
X161590859Y-112270253D01*
X161450006Y-112250000D01*
X137314357Y-112250000D01*
X137246236Y-112229998D01*
X137199381Y-112175541D01*
X136011024Y-109524592D01*
X136002702Y-109485682D01*
X149031651Y-109485682D01*
X149031651Y-109714318D01*
X149090831Y-109935175D01*
X149205153Y-110133185D01*
X149366815Y-110294847D01*
X149366825Y-110294854D01*
X149564832Y-110409172D01*
X149785682Y-110468349D01*
X150014318Y-110468349D01*
X150235175Y-110409169D01*
X150433185Y-110294847D01*
X150594847Y-110133185D01*
X150594854Y-110133175D01*
X150709172Y-109935168D01*
X150768349Y-109714318D01*
X150768349Y-109485682D01*
X150709169Y-109264825D01*
X150594847Y-109066815D01*
X150433185Y-108905153D01*
X150433175Y-108905146D01*
X150235168Y-108790828D01*
X150014318Y-108731651D01*
X149785682Y-108731651D01*
X149564825Y-108790831D01*
X149366815Y-108905153D01*
X149205153Y-109066815D01*
X149205146Y-109066825D01*
X149090828Y-109264832D01*
X149031651Y-109485682D01*
X136002702Y-109485682D01*
X136000000Y-109473051D01*
X136000000Y-106685682D01*
X144181651Y-106685682D01*
X144181651Y-106914318D01*
X144240831Y-107135175D01*
X144355153Y-107333185D01*
X144516815Y-107494847D01*
X144516825Y-107494854D01*
X144714831Y-107609172D01*
X144724862Y-107611860D01*
X144785486Y-107648810D01*
X144816508Y-107712670D01*
X144801373Y-107796566D01*
X144790828Y-107814832D01*
X144731651Y-108035682D01*
X144731651Y-108264318D01*
X144790831Y-108485175D01*
X144905153Y-108683185D01*
X145066815Y-108844847D01*
X145066825Y-108844854D01*
X145264832Y-108959172D01*
X145485682Y-109018349D01*
X145714318Y-109018349D01*
X145935175Y-108959169D01*
X146133185Y-108844847D01*
X146294847Y-108683185D01*
X146294854Y-108683175D01*
X146409172Y-108485168D01*
X146468349Y-108264318D01*
X146468349Y-108035682D01*
X146409169Y-107814825D01*
X146294847Y-107616815D01*
X146133185Y-107455153D01*
X146133175Y-107455146D01*
X145935169Y-107340828D01*
X145925138Y-107338140D01*
X145864514Y-107301190D01*
X145833492Y-107237330D01*
X145848627Y-107153434D01*
X145859172Y-107135168D01*
X145918349Y-106914318D01*
X145918349Y-106685682D01*
X145859169Y-106464825D01*
X145744847Y-106266815D01*
X145583185Y-106105153D01*
X145583175Y-106105146D01*
X145385168Y-105990828D01*
X145164318Y-105931651D01*
X144935682Y-105931651D01*
X144714825Y-105990831D01*
X144516815Y-106105153D01*
X144355153Y-106266815D01*
X144355146Y-106266825D01*
X144240828Y-106464832D01*
X144181651Y-106685682D01*
X136000000Y-106685682D01*
X136000000Y-103626000D01*
X136020002Y-103557879D01*
X136073658Y-103511386D01*
X136126000Y-103500000D01*
X142500000Y-103500000D01*
X142500000Y-101626000D01*
X142520002Y-101557879D01*
X142573658Y-101511386D01*
X142626000Y-101500000D01*
X158438676Y-101500000D01*
X158501676Y-101516881D01*
G37*
G04 #@! TD.AperFunction*
G04 #@! TA.AperFunction,Conductor*
G36*
X131218745Y-102718745D02*
G01*
X132781255Y-104281255D01*
X132800000Y-104326510D01*
X132800000Y-107536000D01*
X132781255Y-107581255D01*
X132736000Y-107600000D01*
X132064000Y-107600000D01*
X132018745Y-107581255D01*
X132000000Y-107536000D01*
X132000000Y-106700000D01*
X131200000Y-105300000D01*
X128664000Y-105300000D01*
X128618745Y-105281255D01*
X128600000Y-105236000D01*
X128600000Y-102764000D01*
X128618745Y-102718745D01*
X128664000Y-102700000D01*
X131173490Y-102700000D01*
X131218745Y-102718745D01*
G37*
G04 #@! TD.AperFunction*
G04 #@! TA.AperFunction,Conductor*
G36*
X173542121Y-89320002D02*
G01*
X173588614Y-89373658D01*
X173600000Y-89426000D01*
X173600000Y-100874000D01*
X173579998Y-100942121D01*
X173526342Y-100988614D01*
X173474000Y-101000000D01*
X169652190Y-101000000D01*
X169563095Y-100963095D01*
X169136905Y-100536905D01*
X169100000Y-100447810D01*
X169100000Y-94800000D01*
X168721271Y-94800000D01*
X168653150Y-94779998D01*
X168606565Y-94726139D01*
X168570336Y-94646435D01*
X168559042Y-94594296D01*
X168559042Y-93150002D01*
X168491020Y-92896143D01*
X168377678Y-92761067D01*
X168224976Y-92672906D01*
X168204120Y-92669228D01*
X168140507Y-92637700D01*
X168100000Y-92545142D01*
X168100000Y-89481191D01*
X168120002Y-89413070D01*
X168173658Y-89366577D01*
X168245838Y-89357364D01*
X168245849Y-89357234D01*
X168246446Y-89357286D01*
X168247873Y-89357104D01*
X168251328Y-89357713D01*
X168701329Y-89357713D01*
X168753725Y-89343674D01*
X168808214Y-89341295D01*
X168901330Y-89357713D01*
X169351327Y-89357713D01*
X169550694Y-89304293D01*
X169583305Y-89300000D01*
X173474000Y-89300000D01*
X173542121Y-89320002D01*
G37*
G04 #@! TD.AperFunction*
G04 #@! TA.AperFunction,Conductor*
G36*
X128142121Y-96520002D02*
G01*
X128188614Y-96573658D01*
X128200000Y-96626000D01*
X128200000Y-98674000D01*
X128179998Y-98742121D01*
X128126342Y-98788614D01*
X128074000Y-98800000D01*
X124626000Y-98800000D01*
X124557879Y-98779998D01*
X124511386Y-98726342D01*
X124500000Y-98674000D01*
X124500000Y-97926000D01*
X124520002Y-97857879D01*
X124573658Y-97811386D01*
X124626000Y-97800000D01*
X125000002Y-97799999D01*
X125500000Y-97300000D01*
X125500000Y-96626000D01*
X125520002Y-96557879D01*
X125573658Y-96511386D01*
X125626000Y-96500000D01*
X128074000Y-96500000D01*
X128142121Y-96520002D01*
G37*
G04 #@! TD.AperFunction*
G04 #@! TA.AperFunction,Conductor*
G36*
X122942121Y-86520002D02*
G01*
X122988614Y-86573658D01*
X123000000Y-86626000D01*
X123000000Y-88900000D01*
X123015435Y-88900000D01*
X123083556Y-88920002D01*
X123103172Y-88939277D01*
X123104936Y-88937513D01*
X123113708Y-88946285D01*
X123212947Y-89012593D01*
X123330000Y-89035877D01*
X123780000Y-89035877D01*
X123892203Y-89013558D01*
X123980923Y-89028683D01*
X124146258Y-89126461D01*
X124341685Y-89173378D01*
X124542256Y-89160759D01*
X124730256Y-89089720D01*
X124889059Y-88966541D01*
X124898192Y-88953547D01*
X124953727Y-88909317D01*
X125001277Y-88900000D01*
X127974000Y-88900000D01*
X128042121Y-88920002D01*
X128088614Y-88973658D01*
X128100000Y-89026000D01*
X128100000Y-93174000D01*
X128079998Y-93242121D01*
X128026342Y-93288614D01*
X127974000Y-93300000D01*
X122126000Y-93300000D01*
X122057879Y-93279998D01*
X122011386Y-93226342D01*
X122000000Y-93174000D01*
X122000000Y-90800000D01*
X121142290Y-90037591D01*
X121100000Y-89943417D01*
X121100000Y-89702519D01*
X121109592Y-89654300D01*
X121112593Y-89647056D01*
X121135877Y-89530000D01*
X121135876Y-89129998D01*
X121112593Y-89012944D01*
X121109592Y-89005700D01*
X121100000Y-88957481D01*
X121100000Y-88902519D01*
X121109592Y-88854300D01*
X121112593Y-88847056D01*
X121135877Y-88730000D01*
X121135877Y-88330000D01*
X121112593Y-88212944D01*
X121109592Y-88205700D01*
X121100000Y-88157481D01*
X121100000Y-88102519D01*
X121109592Y-88054300D01*
X121112593Y-88047056D01*
X121135877Y-87930000D01*
X121135877Y-87530000D01*
X121112593Y-87412944D01*
X121109592Y-87405700D01*
X121100000Y-87357481D01*
X121100000Y-87302519D01*
X121109592Y-87254300D01*
X121112593Y-87247056D01*
X121135877Y-87130000D01*
X121135877Y-86730002D01*
X121120079Y-86650582D01*
X121126407Y-86579868D01*
X121169961Y-86523800D01*
X121243658Y-86500000D01*
X122874000Y-86500000D01*
X122942121Y-86520002D01*
G37*
G04 #@! TD.AperFunction*
G04 #@! TA.AperFunction,Conductor*
G36*
X128042121Y-93720002D02*
G01*
X128088614Y-93773658D01*
X128100000Y-93826000D01*
X128100000Y-95674000D01*
X128079998Y-95742121D01*
X128026342Y-95788614D01*
X127974000Y-95800000D01*
X123826000Y-95800000D01*
X123757879Y-95779998D01*
X123711386Y-95726342D01*
X123700000Y-95674000D01*
X123700000Y-93826000D01*
X123720002Y-93757879D01*
X123773658Y-93711386D01*
X123826000Y-93700000D01*
X127974000Y-93700000D01*
X128042121Y-93720002D01*
G37*
G04 #@! TD.AperFunction*
G04 #@! TA.AperFunction,Conductor*
G36*
X167926707Y-93218745D02*
G01*
X167945452Y-93264000D01*
X167945452Y-94650003D01*
X167968736Y-94767053D01*
X167968737Y-94767056D01*
X168035039Y-94866285D01*
X168035044Y-94866290D01*
X168139516Y-94936095D01*
X168138321Y-94937884D01*
X168165547Y-94964203D01*
X168494263Y-95687379D01*
X168500000Y-95713862D01*
X168500000Y-100700000D01*
X169200000Y-101500000D01*
X178136001Y-101500000D01*
X178181256Y-101518745D01*
X178200001Y-101564000D01*
X178200000Y-128735241D01*
X178181255Y-128780496D01*
X178135867Y-128799241D01*
X177892301Y-128798734D01*
X177874066Y-128798696D01*
X177821266Y-128770669D01*
X177696417Y-128586959D01*
X177696416Y-128586959D01*
X177440940Y-128281413D01*
X177440934Y-128281407D01*
X177156404Y-128002774D01*
X176845571Y-127753750D01*
X176511564Y-127536843D01*
X176157662Y-127354179D01*
X175787357Y-127207566D01*
X175404335Y-127098458D01*
X175012350Y-127027930D01*
X174615323Y-126996683D01*
X174217137Y-127005023D01*
X173821765Y-127052869D01*
X173433078Y-127139751D01*
X173054965Y-127264800D01*
X173054959Y-127264802D01*
X172691132Y-127426789D01*
X172691115Y-127426797D01*
X172345202Y-127624102D01*
X172345177Y-127624118D01*
X172020549Y-127854818D01*
X172020539Y-127854825D01*
X171720430Y-128116628D01*
X171720415Y-128116643D01*
X171447796Y-128406953D01*
X171205343Y-128722922D01*
X171185842Y-128754374D01*
X171131317Y-128784649D01*
X161235500Y-128764032D01*
X156336101Y-128753825D01*
X156303751Y-128744969D01*
X156178355Y-128671105D01*
X155930294Y-128570882D01*
X155670138Y-128508423D01*
X155403627Y-128485108D01*
X155136591Y-128501440D01*
X155136579Y-128501441D01*
X154874907Y-128557062D01*
X154874887Y-128557068D01*
X154624302Y-128650758D01*
X154624292Y-128650763D01*
X154460005Y-128741827D01*
X154428845Y-128749851D01*
X139978247Y-128719746D01*
X139945897Y-128710890D01*
X139878355Y-128671105D01*
X139630294Y-128570882D01*
X139370138Y-128508423D01*
X139103627Y-128485108D01*
X138836591Y-128501440D01*
X138836579Y-128501441D01*
X138574907Y-128557062D01*
X138574887Y-128557068D01*
X138324302Y-128650758D01*
X138324298Y-128650760D01*
X138221040Y-128707996D01*
X138189879Y-128716020D01*
X130563867Y-128700133D01*
X130518651Y-128681293D01*
X130500000Y-128636133D01*
X130500000Y-123194692D01*
X135224122Y-123194692D01*
X135252440Y-123393665D01*
X135338010Y-123575508D01*
X135473267Y-123724155D01*
X135473270Y-123724157D01*
X135646252Y-123826458D01*
X135646258Y-123826461D01*
X135841681Y-123873378D01*
X136042261Y-123860758D01*
X136042260Y-123860758D01*
X136230257Y-123789720D01*
X136230258Y-123789719D01*
X136389059Y-123666541D01*
X136443161Y-123589561D01*
X136484519Y-123563314D01*
X136542860Y-123583288D01*
X136672217Y-123725450D01*
X136845628Y-123828006D01*
X136845632Y-123828007D01*
X137041537Y-123875040D01*
X137242610Y-123862388D01*
X137242618Y-123862387D01*
X137431073Y-123791176D01*
X137431073Y-123791175D01*
X137590266Y-123667692D01*
X137706114Y-123502857D01*
X137768371Y-123311249D01*
X137768372Y-123311247D01*
X137770037Y-123099267D01*
X137770037Y-123099264D01*
X137710795Y-122906699D01*
X137597555Y-122740069D01*
X137597552Y-122740067D01*
X137440320Y-122614099D01*
X137252997Y-122539933D01*
X137052147Y-122524125D01*
X136855523Y-122568076D01*
X136855521Y-122568077D01*
X136680527Y-122667892D01*
X136680522Y-122667896D01*
X136541431Y-122816012D01*
X136496787Y-122836169D01*
X136441844Y-122808174D01*
X136396330Y-122741201D01*
X136396327Y-122741199D01*
X136239482Y-122615541D01*
X136052621Y-122541558D01*
X135852265Y-122525789D01*
X135656126Y-122569631D01*
X135481558Y-122669204D01*
X135481555Y-122669206D01*
X135343979Y-122815708D01*
X135255561Y-122996192D01*
X135255560Y-122996197D01*
X135224122Y-123194692D01*
X130500000Y-123194692D01*
X130500000Y-122400003D01*
X142200000Y-122400003D01*
X142200000Y-127199999D01*
X142200001Y-127200008D01*
X142245183Y-127407705D01*
X142245185Y-127407711D01*
X142322124Y-127527429D01*
X142429677Y-127620625D01*
X142429678Y-127620626D01*
X142559132Y-127679745D01*
X142700003Y-127700000D01*
X145699999Y-127700000D01*
X145700008Y-127699999D01*
X145907705Y-127654817D01*
X145907711Y-127654815D01*
X146027429Y-127577876D01*
X146120625Y-127470323D01*
X146120626Y-127470322D01*
X146179745Y-127340868D01*
X146200000Y-127199997D01*
X146200000Y-126439804D01*
X146218745Y-126394549D01*
X146264000Y-126375804D01*
X146317214Y-126404248D01*
X146378710Y-126496285D01*
X146378715Y-126496290D01*
X146477944Y-126562592D01*
X146477947Y-126562593D01*
X146594997Y-126585877D01*
X147865003Y-126585877D01*
X147982053Y-126562593D01*
X147982056Y-126562592D01*
X148081285Y-126496290D01*
X148081290Y-126496285D01*
X148147592Y-126397056D01*
X148147593Y-126397053D01*
X148170877Y-126280003D01*
X148170877Y-123592029D01*
X148189622Y-123546774D01*
X148267651Y-123468745D01*
X148312906Y-123450000D01*
X148377497Y-123450000D01*
X148424833Y-123470927D01*
X148473266Y-123524154D01*
X148473270Y-123524157D01*
X148646252Y-123626458D01*
X148646258Y-123626461D01*
X148841681Y-123673378D01*
X149042261Y-123660758D01*
X149042260Y-123660758D01*
X149202501Y-123600208D01*
X149251460Y-123601746D01*
X149289123Y-123660076D01*
X149289123Y-126280003D01*
X149312407Y-126397053D01*
X149312408Y-126397056D01*
X149378710Y-126496285D01*
X149378715Y-126496290D01*
X149477944Y-126562592D01*
X149477947Y-126562593D01*
X149594997Y-126585877D01*
X150865003Y-126585877D01*
X150982053Y-126562593D01*
X150982056Y-126562592D01*
X151081285Y-126496290D01*
X151081290Y-126496285D01*
X151147592Y-126397056D01*
X151147593Y-126397053D01*
X151170877Y-126280003D01*
X151170877Y-123359997D01*
X151147593Y-123242947D01*
X151147592Y-123242944D01*
X151081290Y-123143715D01*
X151081285Y-123143710D01*
X150982056Y-123077408D01*
X150982053Y-123077407D01*
X150865003Y-123054123D01*
X150744000Y-123054123D01*
X150698745Y-123035378D01*
X150680000Y-122990123D01*
X150680000Y-122931067D01*
X150698745Y-122885812D01*
X150739981Y-122867193D01*
X150842261Y-122860758D01*
X150842260Y-122860758D01*
X151030257Y-122789720D01*
X151030258Y-122789719D01*
X151189059Y-122666541D01*
X151304622Y-122502111D01*
X151366726Y-122310975D01*
X151366727Y-122310974D01*
X151367146Y-122257547D01*
X151386246Y-122212440D01*
X151431646Y-122194051D01*
X151476399Y-122212794D01*
X152353030Y-123089426D01*
X152371775Y-123134681D01*
X152360989Y-123170237D01*
X152312408Y-123242944D01*
X152312407Y-123242947D01*
X152289123Y-123359997D01*
X152289123Y-126280003D01*
X152312407Y-126397053D01*
X152312408Y-126397056D01*
X152378710Y-126496285D01*
X152378715Y-126496290D01*
X152477944Y-126562592D01*
X152477947Y-126562593D01*
X152594997Y-126585877D01*
X153865003Y-126585877D01*
X153982053Y-126562593D01*
X153982056Y-126562592D01*
X154081285Y-126496290D01*
X154081290Y-126496285D01*
X154147592Y-126397056D01*
X154147593Y-126397053D01*
X154170877Y-126280003D01*
X154170877Y-123359997D01*
X154147593Y-123242947D01*
X154147592Y-123242944D01*
X154081290Y-123143715D01*
X154081285Y-123143710D01*
X153982056Y-123077408D01*
X153982053Y-123077407D01*
X153865003Y-123054123D01*
X153624591Y-123054123D01*
X153583453Y-123039150D01*
X153544663Y-123006601D01*
X171987032Y-123006601D01*
X172019635Y-123272144D01*
X172019636Y-123272149D01*
X172091130Y-123529948D01*
X172091133Y-123529958D01*
X172199948Y-123774358D01*
X172199953Y-123774368D01*
X172343697Y-124000001D01*
X172343702Y-124000008D01*
X172519219Y-124201916D01*
X172519221Y-124201918D01*
X172722662Y-124375673D01*
X172949547Y-124517445D01*
X173194897Y-124624127D01*
X173453310Y-124693368D01*
X173719141Y-124723655D01*
X173986506Y-124714318D01*
X173986519Y-124714317D01*
X174249563Y-124665565D01*
X174502524Y-124578464D01*
X174739845Y-124454923D01*
X174739847Y-124454922D01*
X174956278Y-124297675D01*
X174956281Y-124297672D01*
X175147100Y-124110156D01*
X175147111Y-124110144D01*
X175308111Y-123896489D01*
X175308118Y-123896479D01*
X175435773Y-123661366D01*
X175527276Y-123409968D01*
X175527279Y-123409958D01*
X175580616Y-123147795D01*
X175580616Y-123147792D01*
X175590083Y-122786234D01*
X175590082Y-122786228D01*
X175550539Y-122521630D01*
X175550537Y-122521623D01*
X175472318Y-122265782D01*
X175472318Y-122265781D01*
X175357141Y-122024307D01*
X175357137Y-122024301D01*
X175207540Y-121802514D01*
X175207531Y-121802503D01*
X175026783Y-121605251D01*
X174818881Y-121436896D01*
X174818862Y-121436883D01*
X174588358Y-121301106D01*
X174340294Y-121200882D01*
X174080138Y-121138423D01*
X173813627Y-121115108D01*
X173546591Y-121131440D01*
X173546579Y-121131441D01*
X173284907Y-121187062D01*
X173284887Y-121187068D01*
X173034302Y-121280758D01*
X173034298Y-121280760D01*
X172800305Y-121410465D01*
X172588053Y-121573331D01*
X172402204Y-121765784D01*
X172246848Y-121983584D01*
X172246840Y-121983597D01*
X172125388Y-122221959D01*
X172125386Y-122221964D01*
X172040494Y-122475681D01*
X171994035Y-122739159D01*
X171994035Y-122739161D01*
X171987032Y-123006601D01*
X153544663Y-123006601D01*
X153536457Y-122999716D01*
X153532340Y-122995944D01*
X152113445Y-121577050D01*
X152094700Y-121531795D01*
X152113445Y-121486540D01*
X152154681Y-121467921D01*
X152242610Y-121462388D01*
X152242618Y-121462387D01*
X152431073Y-121391176D01*
X152431073Y-121391175D01*
X152590266Y-121267692D01*
X152706114Y-121102857D01*
X152768371Y-120911249D01*
X152768372Y-120911247D01*
X152770037Y-120699267D01*
X152770037Y-120699264D01*
X152710795Y-120506699D01*
X152597555Y-120340069D01*
X152597552Y-120340067D01*
X152440320Y-120214099D01*
X152252997Y-120139933D01*
X152052147Y-120124125D01*
X151855523Y-120168076D01*
X151855521Y-120168077D01*
X151680527Y-120267892D01*
X151680522Y-120267896D01*
X151542606Y-120414761D01*
X151453955Y-120595722D01*
X151417212Y-120628115D01*
X151368325Y-120625040D01*
X151335310Y-120586385D01*
X151310795Y-120506699D01*
X151197555Y-120340069D01*
X151197552Y-120340067D01*
X151040320Y-120214099D01*
X150852997Y-120139933D01*
X150652147Y-120124125D01*
X150455523Y-120168076D01*
X150455521Y-120168077D01*
X150280527Y-120267892D01*
X150280522Y-120267896D01*
X150142606Y-120414761D01*
X150053971Y-120595689D01*
X150053970Y-120595693D01*
X150022454Y-120794679D01*
X150050842Y-120994143D01*
X150136622Y-121176433D01*
X150272217Y-121325450D01*
X150445628Y-121428006D01*
X150445630Y-121428007D01*
X150487688Y-121438104D01*
X150527316Y-121466896D01*
X150534979Y-121515277D01*
X150486708Y-121562795D01*
X150456126Y-121569631D01*
X150281558Y-121669204D01*
X150281555Y-121669206D01*
X150143979Y-121815708D01*
X150055561Y-121996192D01*
X150055560Y-121996197D01*
X150024122Y-122194693D01*
X150024122Y-122194696D01*
X150025196Y-122202241D01*
X150007090Y-122256515D01*
X149927661Y-122335944D01*
X149923544Y-122339716D01*
X149879966Y-122376282D01*
X149851509Y-122425571D01*
X149848508Y-122430281D01*
X149815872Y-122476888D01*
X149815870Y-122476891D01*
X149812847Y-122488173D01*
X149806454Y-122503607D01*
X149800616Y-122513718D01*
X149790737Y-122569753D01*
X149789528Y-122575206D01*
X149774798Y-122630176D01*
X149779757Y-122686857D01*
X149780001Y-122692435D01*
X149780001Y-122990123D01*
X149761256Y-123035378D01*
X149716001Y-123054123D01*
X149631678Y-123054123D01*
X149586423Y-123035378D01*
X149567680Y-122989621D01*
X149568387Y-122899515D01*
X149568387Y-122899512D01*
X149509292Y-122707421D01*
X149396330Y-122541201D01*
X149396327Y-122541199D01*
X149239482Y-122415541D01*
X149052621Y-122341558D01*
X148852265Y-122325789D01*
X148656126Y-122369631D01*
X148481558Y-122469204D01*
X148481555Y-122469206D01*
X148424643Y-122529811D01*
X148377989Y-122550000D01*
X148122423Y-122550000D01*
X148116845Y-122549756D01*
X148060177Y-122544798D01*
X148005219Y-122559524D01*
X147999768Y-122560733D01*
X147943713Y-122570617D01*
X147933602Y-122576455D01*
X147918166Y-122582849D01*
X147906889Y-122585871D01*
X147906887Y-122585872D01*
X147860266Y-122618516D01*
X147855557Y-122621516D01*
X147806283Y-122649964D01*
X147769708Y-122693552D01*
X147765936Y-122697668D01*
X147428226Y-123035378D01*
X147382971Y-123054123D01*
X146594997Y-123054123D01*
X146477947Y-123077407D01*
X146477944Y-123077408D01*
X146378715Y-123143710D01*
X146378710Y-123143715D01*
X146317214Y-123235752D01*
X146276486Y-123262966D01*
X146228444Y-123253410D01*
X146200000Y-123200196D01*
X146200000Y-122400001D01*
X146199999Y-122399992D01*
X146154817Y-122192295D01*
X146154815Y-122192289D01*
X146077876Y-122072571D01*
X145970323Y-121979375D01*
X145970322Y-121979374D01*
X145840868Y-121920255D01*
X145699997Y-121900000D01*
X145531318Y-121900000D01*
X145486063Y-121881255D01*
X145467320Y-121835498D01*
X145468387Y-121699515D01*
X145468387Y-121699512D01*
X145409292Y-121507421D01*
X145296330Y-121341201D01*
X145296327Y-121341199D01*
X145139482Y-121215541D01*
X144952621Y-121141558D01*
X144752265Y-121125789D01*
X144556126Y-121169631D01*
X144381558Y-121269204D01*
X144381555Y-121269206D01*
X144243979Y-121415708D01*
X144155561Y-121596192D01*
X144155560Y-121596197D01*
X144124122Y-121794693D01*
X144124122Y-121794698D01*
X144128717Y-121826982D01*
X144116536Y-121874427D01*
X144065356Y-121900000D01*
X142700001Y-121900000D01*
X142699992Y-121900001D01*
X142492295Y-121945183D01*
X142492289Y-121945185D01*
X142372571Y-122022124D01*
X142279375Y-122129677D01*
X142279374Y-122129678D01*
X142220255Y-122259132D01*
X142200000Y-122400003D01*
X130500000Y-122400003D01*
X130500000Y-121494692D01*
X131824122Y-121494692D01*
X131852440Y-121693665D01*
X131938010Y-121875508D01*
X132073267Y-122024155D01*
X132073270Y-122024157D01*
X132246252Y-122126458D01*
X132246258Y-122126461D01*
X132441681Y-122173378D01*
X132642261Y-122160758D01*
X132642260Y-122160758D01*
X132830257Y-122089720D01*
X132830258Y-122089719D01*
X132989059Y-121966541D01*
X133104622Y-121802111D01*
X133166726Y-121610975D01*
X133166727Y-121610974D01*
X133168387Y-121399515D01*
X133168387Y-121399512D01*
X133109292Y-121207421D01*
X132996330Y-121041201D01*
X132996327Y-121041199D01*
X132839482Y-120915541D01*
X132652621Y-120841558D01*
X132452265Y-120825789D01*
X132256126Y-120869631D01*
X132081558Y-120969204D01*
X132081555Y-120969206D01*
X131943979Y-121115708D01*
X131855561Y-121296192D01*
X131855560Y-121296197D01*
X131824122Y-121494692D01*
X130500000Y-121494692D01*
X130500000Y-118798236D01*
X130518745Y-118752981D01*
X130578940Y-118736004D01*
X130741537Y-118775040D01*
X130942610Y-118762388D01*
X130942618Y-118762387D01*
X131131073Y-118691176D01*
X131131073Y-118691175D01*
X131290266Y-118567692D01*
X131406114Y-118402857D01*
X131468371Y-118211249D01*
X131468372Y-118211247D01*
X131470037Y-117999267D01*
X131470037Y-117999264D01*
X131410795Y-117806699D01*
X131297555Y-117640069D01*
X131297552Y-117640067D01*
X131140320Y-117514099D01*
X130952997Y-117439933D01*
X130752147Y-117424125D01*
X130577961Y-117463061D01*
X130529707Y-117454639D01*
X130500000Y-117400602D01*
X130500000Y-117094679D01*
X133922454Y-117094679D01*
X133950842Y-117294143D01*
X134036622Y-117476433D01*
X134172217Y-117625450D01*
X134345628Y-117728006D01*
X134345630Y-117728007D01*
X134465674Y-117756827D01*
X134495988Y-117773804D01*
X134552107Y-117829923D01*
X134570852Y-117875178D01*
X134570852Y-118633395D01*
X134580440Y-118710318D01*
X134580441Y-118710322D01*
X134655193Y-118880739D01*
X134781233Y-119017656D01*
X134944900Y-119106228D01*
X135082245Y-119129147D01*
X135082257Y-119129148D01*
X137333395Y-119129148D01*
X137410318Y-119119560D01*
X137410322Y-119119559D01*
X137580739Y-119044807D01*
X137717656Y-118918767D01*
X137806228Y-118755100D01*
X137829147Y-118617755D01*
X137829148Y-118617743D01*
X137829148Y-118527545D01*
X137847893Y-118482290D01*
X137908088Y-118465313D01*
X137941680Y-118473378D01*
X138142261Y-118460758D01*
X138142260Y-118460758D01*
X138330257Y-118389720D01*
X138330258Y-118389719D01*
X138489059Y-118266541D01*
X138604622Y-118102111D01*
X138639524Y-117994692D01*
X139324122Y-117994692D01*
X139352440Y-118193665D01*
X139438010Y-118375508D01*
X139573267Y-118524155D01*
X139573270Y-118524157D01*
X139746252Y-118626458D01*
X139746258Y-118626461D01*
X139941681Y-118673378D01*
X140142261Y-118660758D01*
X140142260Y-118660758D01*
X140330257Y-118589720D01*
X140330258Y-118589719D01*
X140489059Y-118466541D01*
X140604622Y-118302111D01*
X140666726Y-118110975D01*
X140666727Y-118110974D01*
X140667639Y-117994692D01*
X141324122Y-117994692D01*
X141352440Y-118193665D01*
X141438010Y-118375508D01*
X141573267Y-118524155D01*
X141573270Y-118524157D01*
X141746252Y-118626458D01*
X141746258Y-118626461D01*
X141941681Y-118673378D01*
X142142261Y-118660758D01*
X142142260Y-118660758D01*
X142330257Y-118589720D01*
X142330258Y-118589719D01*
X142489059Y-118466541D01*
X142604622Y-118302111D01*
X142666726Y-118110975D01*
X142666727Y-118110974D01*
X142668387Y-117899515D01*
X142668387Y-117899512D01*
X142609292Y-117707421D01*
X142496330Y-117541201D01*
X142496327Y-117541199D01*
X142339482Y-117415541D01*
X142152621Y-117341558D01*
X141952265Y-117325789D01*
X141756126Y-117369631D01*
X141581558Y-117469204D01*
X141581555Y-117469206D01*
X141443979Y-117615708D01*
X141355561Y-117796192D01*
X141355560Y-117796197D01*
X141324122Y-117994692D01*
X140667639Y-117994692D01*
X140668387Y-117899515D01*
X140668387Y-117899512D01*
X140609292Y-117707421D01*
X140496330Y-117541201D01*
X140496327Y-117541199D01*
X140339482Y-117415541D01*
X140152621Y-117341558D01*
X139952265Y-117325789D01*
X139756126Y-117369631D01*
X139581558Y-117469204D01*
X139581555Y-117469206D01*
X139443979Y-117615708D01*
X139355561Y-117796192D01*
X139355560Y-117796197D01*
X139324122Y-117994692D01*
X138639524Y-117994692D01*
X138666726Y-117910975D01*
X138666727Y-117910974D01*
X138668387Y-117699515D01*
X138668387Y-117699512D01*
X138609292Y-117507421D01*
X138496330Y-117341201D01*
X138496327Y-117341199D01*
X138339482Y-117215541D01*
X138152621Y-117141558D01*
X137952265Y-117125789D01*
X137756126Y-117169631D01*
X137581558Y-117269204D01*
X137581555Y-117269206D01*
X137557401Y-117294927D01*
X137512757Y-117315084D01*
X137480286Y-117307402D01*
X137455100Y-117293772D01*
X137455101Y-117293772D01*
X137317755Y-117270853D01*
X137317743Y-117270852D01*
X135575179Y-117270852D01*
X135529924Y-117252107D01*
X135278148Y-117000332D01*
X135262232Y-116973896D01*
X135210795Y-116806699D01*
X135097555Y-116640069D01*
X135097552Y-116640067D01*
X134940320Y-116514099D01*
X134752997Y-116439933D01*
X134552147Y-116424125D01*
X134355523Y-116468076D01*
X134355521Y-116468077D01*
X134180527Y-116567892D01*
X134180522Y-116567896D01*
X134042606Y-116714761D01*
X133953971Y-116895689D01*
X133953970Y-116895693D01*
X133922454Y-117094679D01*
X130500000Y-117094679D01*
X130500000Y-115994692D01*
X139324122Y-115994692D01*
X139352440Y-116193665D01*
X139438010Y-116375508D01*
X139573267Y-116524155D01*
X139573270Y-116524157D01*
X139746252Y-116626458D01*
X139746258Y-116626461D01*
X139941681Y-116673378D01*
X140142261Y-116660758D01*
X140142260Y-116660758D01*
X140330257Y-116589720D01*
X140330258Y-116589719D01*
X140489059Y-116466541D01*
X140604622Y-116302111D01*
X140666726Y-116110975D01*
X140666727Y-116110974D01*
X140667639Y-115994692D01*
X141324122Y-115994692D01*
X141352440Y-116193665D01*
X141438010Y-116375508D01*
X141573267Y-116524155D01*
X141573270Y-116524157D01*
X141746252Y-116626458D01*
X141746258Y-116626461D01*
X141941681Y-116673378D01*
X142142261Y-116660758D01*
X142142260Y-116660758D01*
X142330257Y-116589720D01*
X142330258Y-116589719D01*
X142489059Y-116466541D01*
X142604622Y-116302111D01*
X142666726Y-116110975D01*
X142666727Y-116110974D01*
X142668387Y-115899515D01*
X142668387Y-115899512D01*
X142609292Y-115707421D01*
X142496330Y-115541201D01*
X142496327Y-115541199D01*
X142339482Y-115415541D01*
X142152621Y-115341558D01*
X141952265Y-115325789D01*
X141756126Y-115369631D01*
X141581558Y-115469204D01*
X141581555Y-115469206D01*
X141443979Y-115615708D01*
X141355561Y-115796192D01*
X141355560Y-115796197D01*
X141324122Y-115994692D01*
X140667639Y-115994692D01*
X140668387Y-115899515D01*
X140668387Y-115899512D01*
X140609292Y-115707421D01*
X140496330Y-115541201D01*
X140496327Y-115541199D01*
X140339482Y-115415541D01*
X140152621Y-115341558D01*
X139952265Y-115325789D01*
X139756126Y-115369631D01*
X139581558Y-115469204D01*
X139581555Y-115469206D01*
X139443979Y-115615708D01*
X139355561Y-115796192D01*
X139355560Y-115796197D01*
X139324122Y-115994692D01*
X130500000Y-115994692D01*
X130500000Y-114694679D01*
X145822454Y-114694679D01*
X145850842Y-114894143D01*
X145936622Y-115076433D01*
X146072217Y-115225450D01*
X146245628Y-115328006D01*
X146245632Y-115328007D01*
X146441537Y-115375040D01*
X146642610Y-115362388D01*
X146642618Y-115362387D01*
X146831073Y-115291176D01*
X146831073Y-115291175D01*
X146990266Y-115167692D01*
X147106114Y-115002857D01*
X147168371Y-114811249D01*
X147168372Y-114811247D01*
X147170037Y-114599267D01*
X147170037Y-114599264D01*
X147110795Y-114406699D01*
X146997555Y-114240069D01*
X146997552Y-114240067D01*
X146840320Y-114114099D01*
X146652997Y-114039933D01*
X146452147Y-114024125D01*
X146255523Y-114068076D01*
X146255521Y-114068077D01*
X146080527Y-114167892D01*
X146080522Y-114167896D01*
X145942606Y-114314761D01*
X145853971Y-114495689D01*
X145853970Y-114495693D01*
X145822454Y-114694679D01*
X130500000Y-114694679D01*
X130500000Y-113994692D01*
X139324122Y-113994692D01*
X139352440Y-114193665D01*
X139438010Y-114375508D01*
X139573267Y-114524155D01*
X139573270Y-114524157D01*
X139746252Y-114626458D01*
X139746258Y-114626461D01*
X139941681Y-114673378D01*
X140142261Y-114660758D01*
X140142260Y-114660758D01*
X140330257Y-114589720D01*
X140330258Y-114589719D01*
X140489059Y-114466541D01*
X140604622Y-114302111D01*
X140666726Y-114110975D01*
X140666727Y-114110974D01*
X140667639Y-113994692D01*
X141324122Y-113994692D01*
X141352440Y-114193665D01*
X141438010Y-114375508D01*
X141573267Y-114524155D01*
X141573270Y-114524157D01*
X141746252Y-114626458D01*
X141746258Y-114626461D01*
X141941681Y-114673378D01*
X142142261Y-114660758D01*
X142142260Y-114660758D01*
X142330257Y-114589720D01*
X142330258Y-114589719D01*
X142489059Y-114466541D01*
X142604622Y-114302111D01*
X142666726Y-114110975D01*
X142666727Y-114110974D01*
X142668387Y-113899515D01*
X142668387Y-113899512D01*
X142609292Y-113707421D01*
X142496330Y-113541201D01*
X142496327Y-113541199D01*
X142339482Y-113415541D01*
X142152621Y-113341558D01*
X141952265Y-113325789D01*
X141756126Y-113369631D01*
X141581558Y-113469204D01*
X141581555Y-113469206D01*
X141443979Y-113615708D01*
X141355561Y-113796192D01*
X141355560Y-113796197D01*
X141324122Y-113994692D01*
X140667639Y-113994692D01*
X140668387Y-113899515D01*
X140668387Y-113899512D01*
X140609292Y-113707421D01*
X140496330Y-113541201D01*
X140496327Y-113541199D01*
X140339482Y-113415541D01*
X140152621Y-113341558D01*
X139952265Y-113325789D01*
X139756126Y-113369631D01*
X139581558Y-113469204D01*
X139581555Y-113469206D01*
X139443979Y-113615708D01*
X139355561Y-113796192D01*
X139355560Y-113796197D01*
X139324122Y-113994692D01*
X130500000Y-113994692D01*
X130500000Y-113194692D01*
X131024122Y-113194692D01*
X131052440Y-113393665D01*
X131138010Y-113575508D01*
X131273267Y-113724155D01*
X131273270Y-113724157D01*
X131446252Y-113826458D01*
X131446258Y-113826461D01*
X131641681Y-113873378D01*
X131842261Y-113860758D01*
X131842260Y-113860758D01*
X132030257Y-113789720D01*
X132030258Y-113789719D01*
X132189059Y-113666541D01*
X132304622Y-113502111D01*
X132366726Y-113310975D01*
X132366727Y-113310974D01*
X132368387Y-113099515D01*
X132368387Y-113099512D01*
X132309292Y-112907421D01*
X132196330Y-112741201D01*
X132196327Y-112741199D01*
X132039482Y-112615541D01*
X131852621Y-112541558D01*
X131652265Y-112525789D01*
X131456126Y-112569631D01*
X131281558Y-112669204D01*
X131281555Y-112669206D01*
X131143979Y-112815708D01*
X131055561Y-112996192D01*
X131055560Y-112996197D01*
X131024122Y-113194692D01*
X130500000Y-113194692D01*
X130500000Y-112298236D01*
X130518745Y-112252981D01*
X130578940Y-112236004D01*
X130741537Y-112275040D01*
X130942610Y-112262388D01*
X130942618Y-112262387D01*
X131131073Y-112191176D01*
X131131073Y-112191175D01*
X131290266Y-112067692D01*
X131406114Y-111902857D01*
X131441258Y-111794692D01*
X133824122Y-111794692D01*
X133852440Y-111993665D01*
X133938011Y-112175508D01*
X134022267Y-112268105D01*
X134038860Y-112314193D01*
X134032405Y-112339334D01*
X133955561Y-112496192D01*
X133955560Y-112496197D01*
X133924122Y-112694692D01*
X133952440Y-112893665D01*
X134038010Y-113075508D01*
X134173267Y-113224155D01*
X134173270Y-113224157D01*
X134346252Y-113326458D01*
X134346258Y-113326461D01*
X134541681Y-113373378D01*
X134742261Y-113360758D01*
X134742260Y-113360758D01*
X134930257Y-113289720D01*
X134930258Y-113289719D01*
X135089059Y-113166541D01*
X135204622Y-113002111D01*
X135266726Y-112810975D01*
X135266727Y-112810974D01*
X135268387Y-112599515D01*
X135268387Y-112599512D01*
X135209292Y-112407421D01*
X135096330Y-112241201D01*
X135096327Y-112241198D01*
X135085998Y-112232923D01*
X135062400Y-112189998D01*
X135073653Y-112146175D01*
X135104621Y-112102112D01*
X135166726Y-111910975D01*
X135166727Y-111910974D01*
X135168387Y-111699515D01*
X135168387Y-111699512D01*
X135109292Y-111507421D01*
X134996330Y-111341201D01*
X134996327Y-111341199D01*
X134839482Y-111215541D01*
X134652621Y-111141558D01*
X134452265Y-111125789D01*
X134256126Y-111169631D01*
X134081558Y-111269204D01*
X134081555Y-111269206D01*
X133943979Y-111415708D01*
X133855561Y-111596192D01*
X133855560Y-111596197D01*
X133824122Y-111794692D01*
X131441258Y-111794692D01*
X131468371Y-111711249D01*
X131468372Y-111711247D01*
X131470037Y-111499267D01*
X131470037Y-111499264D01*
X131410795Y-111306699D01*
X131297555Y-111140069D01*
X131297552Y-111140067D01*
X131140320Y-111014099D01*
X130952997Y-110939933D01*
X130752147Y-110924125D01*
X130577961Y-110963061D01*
X130529707Y-110954639D01*
X130500000Y-110900602D01*
X130500000Y-110000000D01*
X128690253Y-108519275D01*
X128666782Y-108469428D01*
X128667008Y-108423655D01*
X128669576Y-107901916D01*
X128674687Y-106863685D01*
X128693654Y-106818523D01*
X128738686Y-106800000D01*
X131155172Y-106800000D01*
X131200427Y-106818745D01*
X131215319Y-106842128D01*
X131512064Y-107658176D01*
X131514454Y-107666444D01*
X131545182Y-107807702D01*
X131545185Y-107807709D01*
X131590276Y-107877871D01*
X131596581Y-107890598D01*
X131600000Y-107900000D01*
X131600426Y-107901171D01*
X131614989Y-107916325D01*
X131622125Y-107927430D01*
X131729677Y-108020625D01*
X131729678Y-108020626D01*
X131859132Y-108079745D01*
X132000003Y-108100000D01*
X132799999Y-108100000D01*
X132800008Y-108099999D01*
X133007705Y-108054817D01*
X133007711Y-108054815D01*
X133127429Y-107977875D01*
X133127431Y-107977874D01*
X133152490Y-107948954D01*
X133205114Y-107927008D01*
X134090005Y-107986000D01*
X134266983Y-107997799D01*
X134317292Y-108028213D01*
X134524056Y-108365565D01*
X135247913Y-109546595D01*
X135251642Y-109553624D01*
X136700000Y-112750000D01*
X161386000Y-112750000D01*
X161431255Y-112768745D01*
X161450000Y-112814000D01*
X161450000Y-117200000D01*
X165499999Y-119500000D01*
X171200000Y-119500000D01*
X171200000Y-106706601D01*
X171987032Y-106706601D01*
X172019635Y-106972144D01*
X172019636Y-106972149D01*
X172091130Y-107229948D01*
X172091133Y-107229958D01*
X172199948Y-107474358D01*
X172199953Y-107474368D01*
X172343697Y-107700001D01*
X172343702Y-107700008D01*
X172519219Y-107901916D01*
X172519221Y-107901918D01*
X172722662Y-108075673D01*
X172949547Y-108217445D01*
X173194897Y-108324127D01*
X173453310Y-108393368D01*
X173719141Y-108423655D01*
X173986506Y-108414318D01*
X173986519Y-108414317D01*
X174249563Y-108365565D01*
X174502524Y-108278464D01*
X174739845Y-108154923D01*
X174739847Y-108154922D01*
X174956278Y-107997675D01*
X174956281Y-107997672D01*
X175147100Y-107810156D01*
X175147111Y-107810144D01*
X175308111Y-107596489D01*
X175308118Y-107596479D01*
X175435773Y-107361366D01*
X175527276Y-107109968D01*
X175527279Y-107109958D01*
X175580616Y-106847795D01*
X175580616Y-106847792D01*
X175590083Y-106486234D01*
X175590082Y-106486228D01*
X175550539Y-106221630D01*
X175550537Y-106221623D01*
X175472318Y-105965782D01*
X175472318Y-105965781D01*
X175357141Y-105724307D01*
X175357137Y-105724301D01*
X175207540Y-105502514D01*
X175207531Y-105502503D01*
X175026783Y-105305251D01*
X174818881Y-105136896D01*
X174818862Y-105136883D01*
X174588358Y-105001106D01*
X174340294Y-104900882D01*
X174080138Y-104838423D01*
X173813627Y-104815108D01*
X173546591Y-104831440D01*
X173546579Y-104831441D01*
X173284907Y-104887062D01*
X173284887Y-104887068D01*
X173034302Y-104980758D01*
X173034298Y-104980760D01*
X172800305Y-105110465D01*
X172588053Y-105273331D01*
X172402204Y-105465784D01*
X172246848Y-105683584D01*
X172246840Y-105683597D01*
X172125388Y-105921959D01*
X172125386Y-105921964D01*
X172040494Y-106175681D01*
X171994035Y-106439159D01*
X171994035Y-106439161D01*
X171987032Y-106706601D01*
X171200000Y-106706601D01*
X171200000Y-105899999D01*
X167018745Y-101718745D01*
X167000000Y-101673490D01*
X167000000Y-95740193D01*
X167005323Y-95717632D01*
X167004635Y-95717408D01*
X167068371Y-95521249D01*
X167068372Y-95521247D01*
X167070037Y-95309267D01*
X167070037Y-95309264D01*
X167010795Y-95116699D01*
X167008726Y-95112390D01*
X167009503Y-95112017D01*
X167000000Y-95081126D01*
X167000000Y-94837236D01*
X167010786Y-94801680D01*
X167033921Y-94767056D01*
X167033922Y-94767053D01*
X167057206Y-94650003D01*
X167057206Y-93264000D01*
X167075951Y-93218745D01*
X167121206Y-93200000D01*
X167881452Y-93200000D01*
X167926707Y-93218745D01*
G37*
G04 #@! TD.AperFunction*
G04 #@! TA.AperFunction,Conductor*
G36*
X172506325Y-75320001D02*
G01*
X172552818Y-75373657D01*
X172562922Y-75443931D01*
X172533428Y-75508511D01*
X172500632Y-75535447D01*
X172345175Y-75624118D01*
X172020550Y-75854817D01*
X172020537Y-75854828D01*
X171720426Y-76116632D01*
X171720420Y-76116638D01*
X171447796Y-76406952D01*
X171447787Y-76406963D01*
X171205352Y-76722910D01*
X171205333Y-76722936D01*
X170995484Y-77061389D01*
X170995472Y-77061411D01*
X170820261Y-77419062D01*
X170681438Y-77792345D01*
X170580375Y-78177575D01*
X170518070Y-78570948D01*
X170495146Y-78968551D01*
X170495146Y-78968563D01*
X170511823Y-79366462D01*
X170567940Y-79760762D01*
X170662939Y-80147524D01*
X170795881Y-80522942D01*
X170795888Y-80522959D01*
X170965454Y-80883305D01*
X170965458Y-80883313D01*
X171169976Y-81225038D01*
X171407436Y-81544777D01*
X171675482Y-81839355D01*
X171971443Y-82105840D01*
X172292420Y-82341622D01*
X172292422Y-82341624D01*
X172635217Y-82544352D01*
X172635219Y-82544353D01*
X172996476Y-82712043D01*
X172996487Y-82712047D01*
X173372578Y-82843016D01*
X173759856Y-82935992D01*
X174154420Y-82990041D01*
X174154434Y-82990042D01*
X174552425Y-83004635D01*
X174949882Y-82979630D01*
X174949899Y-82979628D01*
X175342940Y-82915265D01*
X175342938Y-82915265D01*
X175727637Y-82812185D01*
X176100183Y-82671411D01*
X176456911Y-82494330D01*
X176456932Y-82494318D01*
X176794292Y-82282692D01*
X176794314Y-82282678D01*
X177108987Y-82038591D01*
X177397883Y-81764439D01*
X177658113Y-81462959D01*
X177658128Y-81462940D01*
X177887118Y-81137119D01*
X177887122Y-81137111D01*
X177964228Y-81000272D01*
X178015095Y-80950743D01*
X178084664Y-80936578D01*
X178150848Y-80962273D01*
X178192633Y-81019671D01*
X178200001Y-81062126D01*
X178200001Y-97174000D01*
X178179999Y-97242121D01*
X178126343Y-97288614D01*
X178074001Y-97300000D01*
X174226000Y-97300000D01*
X174157879Y-97279998D01*
X174111386Y-97226342D01*
X174100000Y-97174000D01*
X174100000Y-85800000D01*
X174099999Y-85799998D01*
X173600002Y-85300001D01*
X173600000Y-85300000D01*
X167774744Y-85300000D01*
X167706623Y-85279998D01*
X167674194Y-85249932D01*
X167581958Y-85127792D01*
X167573332Y-85119929D01*
X167577086Y-85115811D01*
X167534845Y-85053465D01*
X167533156Y-85054080D01*
X167530712Y-85047365D01*
X167529786Y-85045999D01*
X167529384Y-85043717D01*
X167529383Y-85043716D01*
X167527623Y-85040667D01*
X167515036Y-85010278D01*
X167514127Y-85006887D01*
X167483041Y-84962490D01*
X167477136Y-84953221D01*
X167450036Y-84906284D01*
X167408518Y-84871445D01*
X167400415Y-84864019D01*
X167306304Y-84769908D01*
X167269403Y-84679823D01*
X167270036Y-84599267D01*
X167270036Y-84599264D01*
X167210796Y-84406703D01*
X167210792Y-84406694D01*
X167097555Y-84240070D01*
X167097550Y-84240065D01*
X166940316Y-84114097D01*
X166752994Y-84039931D01*
X166552143Y-84024124D01*
X166355528Y-84068073D01*
X166180520Y-84167895D01*
X166042607Y-84314757D01*
X166042606Y-84314759D01*
X165953971Y-84495686D01*
X165922453Y-84694679D01*
X165950840Y-84894138D01*
X166036621Y-85076432D01*
X166172213Y-85225447D01*
X166345631Y-85328006D01*
X166378216Y-85335829D01*
X166439786Y-85371181D01*
X166474803Y-85458348D01*
X166474803Y-85793471D01*
X166515471Y-85966383D01*
X166558195Y-86022958D01*
X166583285Y-86089374D01*
X166564772Y-86165220D01*
X166498195Y-86272746D01*
X166498194Y-86272748D01*
X166474803Y-86397878D01*
X166474803Y-86763471D01*
X166515471Y-86936382D01*
X166574550Y-87014615D01*
X166600000Y-87090547D01*
X166600000Y-87140963D01*
X166579998Y-87209084D01*
X166526342Y-87255577D01*
X166456068Y-87265681D01*
X166369234Y-87210964D01*
X166317616Y-87133711D01*
X166295324Y-87118816D01*
X166262113Y-87086322D01*
X166238266Y-87052265D01*
X166232360Y-87042994D01*
X166206920Y-86998931D01*
X166206921Y-86998931D01*
X166167949Y-86966230D01*
X166159845Y-86958804D01*
X165837102Y-86636062D01*
X165800197Y-86546966D01*
X165800197Y-86396529D01*
X165759529Y-86223618D01*
X165656959Y-86087794D01*
X165656957Y-86087792D01*
X165512251Y-85998194D01*
X165512252Y-85998194D01*
X165387122Y-85974803D01*
X165021529Y-85974803D01*
X164835821Y-86018481D01*
X164835503Y-86017130D01*
X164779619Y-86025766D01*
X164749854Y-86015603D01*
X164749076Y-86017567D01*
X164552993Y-85939932D01*
X164352144Y-85924125D01*
X164155529Y-85968074D01*
X163980521Y-86067896D01*
X163842608Y-86214758D01*
X163842607Y-86214760D01*
X163753972Y-86395687D01*
X163722454Y-86594680D01*
X163750841Y-86794139D01*
X163836622Y-86976433D01*
X163972215Y-87125449D01*
X164000847Y-87142382D01*
X164049300Y-87194275D01*
X164060288Y-87275418D01*
X164045452Y-87350002D01*
X164045452Y-87802811D01*
X164025450Y-87870932D01*
X163971794Y-87917425D01*
X163901520Y-87927529D01*
X163853121Y-87909938D01*
X163737251Y-87838194D01*
X163737252Y-87838194D01*
X163612122Y-87814803D01*
X163196532Y-87814803D01*
X163189644Y-87815602D01*
X163119672Y-87803583D01*
X163067306Y-87755642D01*
X163049172Y-87687000D01*
X163055292Y-87651504D01*
X163068372Y-87611249D01*
X163070037Y-87399264D01*
X163010796Y-87206702D01*
X163010793Y-87206695D01*
X162897556Y-87040071D01*
X162897551Y-87040066D01*
X162740317Y-86914098D01*
X162552995Y-86839932D01*
X162352144Y-86824125D01*
X162155529Y-86868074D01*
X161980521Y-86967896D01*
X161842608Y-87114758D01*
X161842607Y-87114760D01*
X161753972Y-87295687D01*
X161722454Y-87494680D01*
X161750841Y-87694139D01*
X161836623Y-87876436D01*
X161841856Y-87884267D01*
X161839566Y-87885797D01*
X161864217Y-87936480D01*
X161847099Y-88023766D01*
X161798194Y-88102749D01*
X161798192Y-88102753D01*
X161775872Y-88222153D01*
X161743694Y-88285438D01*
X161652018Y-88325000D01*
X161564629Y-88325000D01*
X161540046Y-88322579D01*
X161522673Y-88319123D01*
X161006877Y-88319123D01*
X160938756Y-88299121D01*
X160892263Y-88245465D01*
X160880877Y-88193123D01*
X160880877Y-87677327D01*
X160877421Y-87659954D01*
X160875000Y-87635371D01*
X160875000Y-87496397D01*
X160895002Y-87428276D01*
X160923773Y-87396838D01*
X161090267Y-87267691D01*
X161090268Y-87267690D01*
X161206115Y-87102857D01*
X161206115Y-87102856D01*
X161268372Y-86911251D01*
X161268372Y-86911250D01*
X161270037Y-86699264D01*
X161210796Y-86506702D01*
X161210793Y-86506695D01*
X161097556Y-86340071D01*
X161097551Y-86340066D01*
X160940317Y-86214098D01*
X160752995Y-86139932D01*
X160552144Y-86124125D01*
X160355529Y-86168074D01*
X160180520Y-86267896D01*
X160179895Y-86268389D01*
X160179087Y-86268713D01*
X160172340Y-86272562D01*
X160171812Y-86271636D01*
X160114014Y-86294851D01*
X160044285Y-86281494D01*
X160004601Y-86246379D01*
X160003946Y-86246984D01*
X159997932Y-86240478D01*
X159997681Y-86240256D01*
X159997554Y-86240069D01*
X159997551Y-86240066D01*
X159840317Y-86114098D01*
X159652995Y-86039932D01*
X159562173Y-86032784D01*
X159495832Y-86007498D01*
X159453692Y-85950360D01*
X159449133Y-85879510D01*
X159482964Y-85818076D01*
X159691292Y-85609749D01*
X159772475Y-85573094D01*
X159942606Y-85562390D01*
X159942609Y-85562389D01*
X160131072Y-85491176D01*
X160290267Y-85367691D01*
X160290268Y-85367690D01*
X160406115Y-85202857D01*
X160406115Y-85202856D01*
X160468372Y-85011251D01*
X160468372Y-85011250D01*
X160470037Y-84799264D01*
X160410796Y-84606702D01*
X160410795Y-84606699D01*
X160317913Y-84470028D01*
X160296167Y-84402443D01*
X160319038Y-84326754D01*
X160406115Y-84202857D01*
X160406115Y-84202856D01*
X160468372Y-84011251D01*
X160468372Y-84011250D01*
X160470037Y-83799264D01*
X160410796Y-83606702D01*
X160410793Y-83606695D01*
X160297556Y-83440071D01*
X160297551Y-83440066D01*
X160140317Y-83314098D01*
X159952995Y-83239932D01*
X159752144Y-83224125D01*
X159555529Y-83268074D01*
X159380521Y-83367896D01*
X159242608Y-83514758D01*
X159242607Y-83514760D01*
X159153972Y-83695688D01*
X159151098Y-83713831D01*
X159115744Y-83783215D01*
X155016494Y-87882466D01*
X155008390Y-87889893D01*
X154969410Y-87922601D01*
X154943968Y-87966668D01*
X154938062Y-87975939D01*
X154908878Y-88017617D01*
X154908259Y-88019929D01*
X154895668Y-88050325D01*
X154894472Y-88052396D01*
X154894471Y-88052400D01*
X154885633Y-88102514D01*
X154883255Y-88113240D01*
X154870088Y-88162384D01*
X154870087Y-88162389D01*
X154874521Y-88213066D01*
X154875001Y-88224049D01*
X154875001Y-88474000D01*
X154854999Y-88542121D01*
X154801343Y-88588614D01*
X154749001Y-88600000D01*
X147188586Y-88600000D01*
X147099491Y-88563095D01*
X145935985Y-87399590D01*
X145928558Y-87391486D01*
X145893716Y-87349963D01*
X145846776Y-87322862D01*
X145837505Y-87316956D01*
X145793111Y-87285871D01*
X145793112Y-87285871D01*
X145789715Y-87284961D01*
X145759332Y-87272376D01*
X145756285Y-87270617D01*
X145756281Y-87270616D01*
X145702910Y-87261205D01*
X145692178Y-87258826D01*
X145639826Y-87244798D01*
X145585839Y-87249521D01*
X145574859Y-87250000D01*
X145502190Y-87250000D01*
X145413096Y-87213096D01*
X145300000Y-87100000D01*
X142758792Y-87100000D01*
X142690671Y-87079998D01*
X142644178Y-87026342D01*
X142634074Y-86956068D01*
X142681564Y-86874442D01*
X142690265Y-86867692D01*
X142690268Y-86867690D01*
X142806115Y-86702857D01*
X142806115Y-86702856D01*
X142868372Y-86511251D01*
X142868372Y-86511250D01*
X142870037Y-86299264D01*
X142868627Y-86294680D01*
X151622454Y-86294680D01*
X151650841Y-86494139D01*
X151736622Y-86676433D01*
X151872214Y-86825448D01*
X152045632Y-86928007D01*
X152241537Y-86975040D01*
X152241541Y-86975040D01*
X152442606Y-86962390D01*
X152442609Y-86962389D01*
X152631072Y-86891176D01*
X152790267Y-86767691D01*
X152790268Y-86767690D01*
X152906115Y-86602857D01*
X152906115Y-86602856D01*
X152968372Y-86411251D01*
X152968372Y-86411250D01*
X152970037Y-86199264D01*
X152910796Y-86006702D01*
X152910793Y-86006695D01*
X152797556Y-85840071D01*
X152797551Y-85840066D01*
X152640317Y-85714098D01*
X152452995Y-85639932D01*
X152252144Y-85624125D01*
X152055529Y-85668074D01*
X151880521Y-85767896D01*
X151742608Y-85914758D01*
X151742607Y-85914760D01*
X151653972Y-86095687D01*
X151622454Y-86294680D01*
X142868627Y-86294680D01*
X142810796Y-86106702D01*
X142810793Y-86106695D01*
X142697556Y-85940071D01*
X142697551Y-85940066D01*
X142540317Y-85814098D01*
X142352995Y-85739932D01*
X142152144Y-85724125D01*
X141955529Y-85768074D01*
X141780521Y-85867896D01*
X141642608Y-86014758D01*
X141642607Y-86014760D01*
X141553972Y-86195687D01*
X141522454Y-86394680D01*
X141550841Y-86594139D01*
X141636622Y-86776433D01*
X141772214Y-86925448D01*
X141945631Y-87028007D01*
X142070677Y-87058028D01*
X142132246Y-87093381D01*
X142164928Y-87156407D01*
X142158347Y-87227098D01*
X142130357Y-87269642D01*
X141148772Y-88251228D01*
X141086460Y-88285253D01*
X141015645Y-88280189D01*
X140958809Y-88237642D01*
X140939247Y-88199182D01*
X140910797Y-88106704D01*
X140910793Y-88106695D01*
X140797556Y-87940071D01*
X140797551Y-87940066D01*
X140640317Y-87814098D01*
X140452995Y-87739932D01*
X140252144Y-87724125D01*
X140055529Y-87768074D01*
X139880521Y-87867896D01*
X139742608Y-88014758D01*
X139742607Y-88014760D01*
X139653972Y-88195687D01*
X139622454Y-88394680D01*
X139650841Y-88594139D01*
X139736622Y-88776433D01*
X139872214Y-88925448D01*
X140045631Y-89028007D01*
X140090038Y-89038668D01*
X140151607Y-89074021D01*
X140184289Y-89137047D01*
X140177708Y-89207738D01*
X140149720Y-89250280D01*
X139500000Y-89900000D01*
X139500000Y-95703756D01*
X139465849Y-95790010D01*
X139442608Y-95814759D01*
X139442607Y-95814760D01*
X139353972Y-95995687D01*
X139322454Y-96194680D01*
X139350841Y-96394139D01*
X139436622Y-96576433D01*
X139467193Y-96610030D01*
X139500000Y-96694830D01*
X139500000Y-100500000D01*
X141874000Y-100500000D01*
X141942121Y-100520002D01*
X141988614Y-100573658D01*
X142000000Y-100626000D01*
X142000000Y-102874000D01*
X141979998Y-102942121D01*
X141926342Y-102988614D01*
X141874000Y-103000000D01*
X135200000Y-103000000D01*
X135200000Y-106374000D01*
X135179998Y-106442121D01*
X135126342Y-106488614D01*
X135074000Y-106500000D01*
X133426000Y-106500000D01*
X133357879Y-106479998D01*
X133311386Y-106426342D01*
X133300000Y-106374000D01*
X133300000Y-104300005D01*
X133299999Y-104299992D01*
X133288573Y-104193718D01*
X133288571Y-104193709D01*
X133238839Y-104060377D01*
X133238839Y-104060376D01*
X133153546Y-103946440D01*
X133153543Y-103946436D01*
X131553555Y-102346449D01*
X131553553Y-102346447D01*
X131470323Y-102279376D01*
X131470317Y-102279372D01*
X131340866Y-102220254D01*
X131340859Y-102220253D01*
X131200006Y-102200000D01*
X128626000Y-102200000D01*
X128557879Y-102179998D01*
X128511386Y-102126342D01*
X128500000Y-102074000D01*
X128500000Y-99182694D01*
X128520002Y-99114573D01*
X128573658Y-99068080D01*
X128650122Y-99065830D01*
X128651275Y-99059661D01*
X128787878Y-99085197D01*
X129203471Y-99085197D01*
X129376381Y-99044529D01*
X129423946Y-99008609D01*
X129490362Y-98983519D01*
X129566209Y-99002032D01*
X129662746Y-99061805D01*
X129662748Y-99061806D01*
X129787878Y-99085197D01*
X130203471Y-99085197D01*
X130376383Y-99044529D01*
X130376382Y-99044529D01*
X130512206Y-98941959D01*
X130512208Y-98941957D01*
X130601806Y-98797252D01*
X130625197Y-98672122D01*
X130625197Y-98306529D01*
X130584529Y-98133619D01*
X130541804Y-98077043D01*
X130516714Y-98010628D01*
X130535227Y-97934779D01*
X130601806Y-97827252D01*
X130625197Y-97702122D01*
X130625197Y-97336529D01*
X130584529Y-97163618D01*
X130475450Y-97019175D01*
X130450000Y-96943243D01*
X130450000Y-96512640D01*
X130450479Y-96501660D01*
X130455202Y-96447674D01*
X130455201Y-96447672D01*
X130441175Y-96395323D01*
X130438797Y-96384595D01*
X130429384Y-96331218D01*
X130427629Y-96328178D01*
X130415037Y-96297778D01*
X130414129Y-96294389D01*
X130383047Y-96249999D01*
X130377142Y-96240729D01*
X130350039Y-96193787D01*
X130350037Y-96193785D01*
X130324636Y-96172470D01*
X130285310Y-96113360D01*
X130279628Y-96075949D01*
X130279628Y-95713690D01*
X130270571Y-95641032D01*
X130270569Y-95641025D01*
X130199953Y-95480038D01*
X130199949Y-95480031D01*
X130080888Y-95350696D01*
X130080887Y-95350695D01*
X130010054Y-95312363D01*
X129959663Y-95262350D01*
X129944311Y-95193033D01*
X129968871Y-95126420D01*
X130019409Y-95086162D01*
X130044962Y-95074953D01*
X130044969Y-95074949D01*
X130174304Y-94955888D01*
X130174305Y-94955887D01*
X130257976Y-94801275D01*
X130279628Y-94671521D01*
X130279628Y-94138690D01*
X130270571Y-94066032D01*
X130270569Y-94066025D01*
X130199953Y-93905038D01*
X130199949Y-93905031D01*
X130080888Y-93775696D01*
X130080887Y-93775695D01*
X129931182Y-93694680D01*
X136022454Y-93694680D01*
X136050841Y-93894139D01*
X136136622Y-94076433D01*
X136272214Y-94225448D01*
X136445632Y-94328007D01*
X136641537Y-94375040D01*
X136641541Y-94375040D01*
X136842606Y-94362390D01*
X136842609Y-94362389D01*
X137031072Y-94291176D01*
X137190267Y-94167691D01*
X137190268Y-94167690D01*
X137306115Y-94002857D01*
X137306115Y-94002856D01*
X137368372Y-93811251D01*
X137368372Y-93811250D01*
X137370037Y-93599264D01*
X137310796Y-93406702D01*
X137310793Y-93406695D01*
X137197556Y-93240071D01*
X137197551Y-93240066D01*
X137040317Y-93114098D01*
X136852995Y-93039932D01*
X136652144Y-93024125D01*
X136455529Y-93068074D01*
X136280521Y-93167896D01*
X136142608Y-93314758D01*
X136142607Y-93314760D01*
X136053972Y-93495687D01*
X136022454Y-93694680D01*
X129931182Y-93694680D01*
X129926274Y-93692024D01*
X129926275Y-93692024D01*
X129796521Y-93670372D01*
X129353423Y-93670372D01*
X129331543Y-93668458D01*
X129290409Y-93661205D01*
X129279678Y-93658826D01*
X129227326Y-93644798D01*
X129173339Y-93649521D01*
X129162359Y-93650000D01*
X128626000Y-93650000D01*
X128557879Y-93629998D01*
X128511386Y-93576342D01*
X128500000Y-93524000D01*
X128500000Y-88099975D01*
X125003010Y-88100009D01*
X124934889Y-88080008D01*
X124898797Y-88044831D01*
X124896331Y-88041203D01*
X124896329Y-88041200D01*
X124739479Y-87915540D01*
X124686828Y-87894694D01*
X134324122Y-87894694D01*
X134352439Y-88093661D01*
X134438009Y-88275506D01*
X134473565Y-88314582D01*
X134504617Y-88378428D01*
X134496221Y-88448926D01*
X134472221Y-88485634D01*
X134443979Y-88515709D01*
X134443978Y-88515710D01*
X134355562Y-88696190D01*
X134324122Y-88894694D01*
X134352439Y-89093661D01*
X134438010Y-89275508D01*
X134438010Y-89275509D01*
X134573267Y-89424155D01*
X134746258Y-89526461D01*
X134941681Y-89573378D01*
X134941685Y-89573378D01*
X135142255Y-89560760D01*
X135142256Y-89560759D01*
X135330257Y-89489720D01*
X135330256Y-89489720D01*
X135489059Y-89366541D01*
X135604621Y-89202114D01*
X135666727Y-89010975D01*
X135668387Y-88799513D01*
X135668387Y-88799509D01*
X135609294Y-88607426D01*
X135515908Y-88470010D01*
X135494163Y-88402426D01*
X135517034Y-88326737D01*
X135604621Y-88202114D01*
X135666727Y-88010975D01*
X135668387Y-87799513D01*
X135668387Y-87799509D01*
X135609294Y-87607425D01*
X135609293Y-87607421D01*
X135496331Y-87441203D01*
X135496329Y-87441200D01*
X135339479Y-87315540D01*
X135152619Y-87241557D01*
X134952265Y-87225789D01*
X134756130Y-87269630D01*
X134581552Y-87369207D01*
X134443979Y-87515708D01*
X134443978Y-87515710D01*
X134355562Y-87696190D01*
X134324122Y-87894694D01*
X124686828Y-87894694D01*
X124552619Y-87841557D01*
X124352265Y-87825789D01*
X124156130Y-87869630D01*
X123981553Y-87969207D01*
X123954238Y-87998295D01*
X123893026Y-88034261D01*
X123837805Y-88035622D01*
X123779998Y-88024123D01*
X123461877Y-88024123D01*
X123393756Y-88004121D01*
X123347263Y-87950465D01*
X123335877Y-87898123D01*
X123335877Y-87180000D01*
X123312593Y-87062944D01*
X123309592Y-87055700D01*
X123300000Y-87007481D01*
X123300000Y-86195735D01*
X123320002Y-86127614D01*
X123357588Y-86094696D01*
X123355892Y-86092450D01*
X123422957Y-86041804D01*
X123489372Y-86016714D01*
X123565221Y-86035227D01*
X123672748Y-86101806D01*
X123797878Y-86125197D01*
X124163471Y-86125197D01*
X124336383Y-86084529D01*
X124336382Y-86084529D01*
X124417522Y-86023255D01*
X124483938Y-85998165D01*
X124562790Y-86022886D01*
X124564109Y-86020655D01*
X124745632Y-86128007D01*
X124941537Y-86175040D01*
X124941541Y-86175040D01*
X125142606Y-86162390D01*
X125142609Y-86162389D01*
X125331072Y-86091176D01*
X125490267Y-85967691D01*
X125490268Y-85967690D01*
X125606115Y-85802857D01*
X125606115Y-85802856D01*
X125668372Y-85611251D01*
X125668372Y-85611250D01*
X125670037Y-85399264D01*
X125610796Y-85206702D01*
X125610795Y-85206699D01*
X125517913Y-85070028D01*
X125496167Y-85002443D01*
X125519038Y-84926754D01*
X125606115Y-84802857D01*
X125606115Y-84802856D01*
X125668372Y-84611251D01*
X125668372Y-84611250D01*
X125670037Y-84399264D01*
X125610796Y-84206702D01*
X125610795Y-84206699D01*
X125517913Y-84070028D01*
X125496167Y-84002443D01*
X125519038Y-83926754D01*
X125606115Y-83802857D01*
X125606115Y-83802856D01*
X125668372Y-83611251D01*
X125668372Y-83611250D01*
X125670037Y-83399264D01*
X125610796Y-83206702D01*
X125610793Y-83206695D01*
X125534678Y-83094694D01*
X139224122Y-83094694D01*
X139252439Y-83293661D01*
X139338010Y-83475508D01*
X139338010Y-83475509D01*
X139473267Y-83624155D01*
X139646258Y-83726461D01*
X139841681Y-83773378D01*
X139841685Y-83773378D01*
X140042255Y-83760760D01*
X140042256Y-83760759D01*
X140230257Y-83689720D01*
X140230256Y-83689720D01*
X140389059Y-83566541D01*
X140504621Y-83402114D01*
X140566727Y-83210975D01*
X140568387Y-82999513D01*
X140568387Y-82999509D01*
X140509294Y-82807425D01*
X140509293Y-82807421D01*
X140396331Y-82641203D01*
X140396329Y-82641200D01*
X140239479Y-82515540D01*
X140052619Y-82441557D01*
X139852265Y-82425789D01*
X139656130Y-82469630D01*
X139481552Y-82569207D01*
X139343979Y-82715708D01*
X139343978Y-82715710D01*
X139255562Y-82896190D01*
X139224122Y-83094694D01*
X125534678Y-83094694D01*
X125497556Y-83040071D01*
X125497551Y-83040066D01*
X125340317Y-82914098D01*
X125152995Y-82839932D01*
X124952144Y-82824125D01*
X124755529Y-82868074D01*
X124580522Y-82967895D01*
X124564727Y-82984715D01*
X124503514Y-83020680D01*
X124406547Y-83005588D01*
X124297251Y-82937914D01*
X124297252Y-82937914D01*
X124172122Y-82914523D01*
X124146717Y-82914523D01*
X124078596Y-82894521D01*
X124032103Y-82840865D01*
X124021999Y-82770591D01*
X124051493Y-82706011D01*
X124097773Y-82673725D01*
X124097310Y-82672664D01*
X124100173Y-82671416D01*
X124456911Y-82494330D01*
X124456932Y-82494318D01*
X124775159Y-82294694D01*
X146124122Y-82294694D01*
X146152439Y-82493661D01*
X146238010Y-82675508D01*
X146238010Y-82675509D01*
X146373267Y-82824155D01*
X146546258Y-82926461D01*
X146741681Y-82973378D01*
X146741685Y-82973378D01*
X146942255Y-82960760D01*
X146942256Y-82960759D01*
X147130257Y-82889720D01*
X147130256Y-82889720D01*
X147252764Y-82794694D01*
X148439122Y-82794694D01*
X148467439Y-82993661D01*
X148553010Y-83175508D01*
X148553010Y-83175509D01*
X148688267Y-83324155D01*
X148861258Y-83426461D01*
X149056681Y-83473378D01*
X149056685Y-83473378D01*
X149257255Y-83460760D01*
X149257256Y-83460759D01*
X149445257Y-83389720D01*
X149531818Y-83322576D01*
X149597904Y-83296629D01*
X149678922Y-83321458D01*
X149680162Y-83319362D01*
X149861258Y-83426461D01*
X150056681Y-83473378D01*
X150056685Y-83473378D01*
X150257255Y-83460760D01*
X150257256Y-83460759D01*
X150432130Y-83394680D01*
X151822454Y-83394680D01*
X151850841Y-83594139D01*
X151936622Y-83776433D01*
X152072214Y-83925448D01*
X152245632Y-84028007D01*
X152441537Y-84075040D01*
X152441541Y-84075040D01*
X152642606Y-84062390D01*
X152642609Y-84062389D01*
X152831072Y-83991176D01*
X152990267Y-83867691D01*
X152990268Y-83867690D01*
X153106115Y-83702857D01*
X153106115Y-83702856D01*
X153168372Y-83511251D01*
X153168372Y-83511250D01*
X153170037Y-83299264D01*
X153110796Y-83106702D01*
X153110793Y-83106695D01*
X152997556Y-82940071D01*
X152997551Y-82940066D01*
X152840317Y-82814098D01*
X152652995Y-82739932D01*
X152452144Y-82724125D01*
X152255529Y-82768074D01*
X152080521Y-82867896D01*
X151942608Y-83014758D01*
X151942607Y-83014760D01*
X151853972Y-83195687D01*
X151822454Y-83394680D01*
X150432130Y-83394680D01*
X150445257Y-83389720D01*
X150445256Y-83389720D01*
X150604059Y-83266541D01*
X150719621Y-83102114D01*
X150781727Y-82910975D01*
X150783387Y-82699513D01*
X150783387Y-82699509D01*
X150724294Y-82507425D01*
X150724293Y-82507421D01*
X150611331Y-82341203D01*
X150611329Y-82341200D01*
X150454479Y-82215540D01*
X150267619Y-82141557D01*
X150067265Y-82125789D01*
X149871130Y-82169630D01*
X149696550Y-82269208D01*
X149689155Y-82275038D01*
X149687183Y-82272537D01*
X149639886Y-82300318D01*
X149568946Y-82297471D01*
X149530484Y-82276430D01*
X149454481Y-82215541D01*
X149267619Y-82141557D01*
X149067265Y-82125789D01*
X148871130Y-82169630D01*
X148696552Y-82269207D01*
X148558979Y-82415708D01*
X148558978Y-82415710D01*
X148470562Y-82596190D01*
X148439122Y-82794694D01*
X147252764Y-82794694D01*
X147289059Y-82766541D01*
X147404621Y-82602114D01*
X147466727Y-82410975D01*
X147468387Y-82199513D01*
X147468387Y-82199509D01*
X147409294Y-82007425D01*
X147409293Y-82007421D01*
X147296331Y-81841203D01*
X147296329Y-81841200D01*
X147139479Y-81715540D01*
X146952619Y-81641557D01*
X146752265Y-81625789D01*
X146556130Y-81669630D01*
X146381552Y-81769207D01*
X146243979Y-81915708D01*
X146243978Y-81915710D01*
X146155562Y-82096190D01*
X146124122Y-82294694D01*
X124775159Y-82294694D01*
X124794292Y-82282692D01*
X124794314Y-82282678D01*
X125108987Y-82038591D01*
X125397883Y-81764439D01*
X125658113Y-81462959D01*
X125658128Y-81462940D01*
X125887118Y-81137119D01*
X125887122Y-81137111D01*
X126082631Y-80790143D01*
X126242719Y-80425450D01*
X126365781Y-80046701D01*
X126365785Y-80046688D01*
X126450628Y-79657556D01*
X126496402Y-79261946D01*
X126496404Y-79261926D01*
X126500024Y-78800879D01*
X126500024Y-78800861D01*
X126460470Y-78404578D01*
X126460468Y-78404561D01*
X126381749Y-78014164D01*
X126264644Y-77633509D01*
X126264642Y-77633505D01*
X126110306Y-77266352D01*
X126110303Y-77266346D01*
X125959940Y-76989410D01*
X128520000Y-76989410D01*
X128520000Y-77178590D01*
X128559335Y-77363647D01*
X128636285Y-77536479D01*
X128747486Y-77689534D01*
X128888082Y-77816127D01*
X129051918Y-77910717D01*
X129051922Y-77910719D01*
X129231850Y-77969182D01*
X129284254Y-77974690D01*
X129349911Y-78001703D01*
X129390541Y-78059924D01*
X129393244Y-78130869D01*
X129357162Y-78192014D01*
X129284254Y-78225310D01*
X129231850Y-78230818D01*
X129051922Y-78289281D01*
X129051918Y-78289283D01*
X128888082Y-78383873D01*
X128747486Y-78510466D01*
X128636285Y-78663521D01*
X128559335Y-78836353D01*
X128520000Y-79021410D01*
X128520000Y-79210590D01*
X128559335Y-79395647D01*
X128636285Y-79568479D01*
X128747486Y-79721534D01*
X128888082Y-79848127D01*
X129051918Y-79942717D01*
X129051922Y-79942719D01*
X129231850Y-80001182D01*
X129420000Y-80020957D01*
X129608150Y-80001182D01*
X129788078Y-79942719D01*
X129788082Y-79942717D01*
X129951918Y-79848127D01*
X130092514Y-79721534D01*
X130203715Y-79568479D01*
X130259978Y-79442111D01*
X130305958Y-79388015D01*
X130373886Y-79367366D01*
X130421469Y-79376208D01*
X130512344Y-79412188D01*
X130679003Y-79435018D01*
X130846298Y-79417434D01*
X131004569Y-79360454D01*
X131144680Y-79267363D01*
X131144682Y-79267361D01*
X131232945Y-79171377D01*
X131293778Y-79134773D01*
X131364744Y-79136868D01*
X131421075Y-79174333D01*
X131488823Y-79252820D01*
X131518089Y-79273618D01*
X131562030Y-79329382D01*
X131571101Y-79376327D01*
X131571100Y-79428043D01*
X131536950Y-79514294D01*
X131442608Y-79614758D01*
X131442607Y-79614760D01*
X131353972Y-79795687D01*
X131322454Y-79994680D01*
X131350841Y-80194139D01*
X131436622Y-80376433D01*
X131572214Y-80525448D01*
X131745632Y-80628007D01*
X131941537Y-80675040D01*
X131941541Y-80675040D01*
X132142606Y-80662390D01*
X132142609Y-80662389D01*
X132331072Y-80591176D01*
X132490267Y-80467691D01*
X132490268Y-80467690D01*
X132543379Y-80392120D01*
X132598914Y-80347889D01*
X132669546Y-80340703D01*
X132739660Y-80379772D01*
X132872214Y-80525448D01*
X133045632Y-80628007D01*
X133241537Y-80675040D01*
X133241541Y-80675040D01*
X133442606Y-80662390D01*
X133442609Y-80662389D01*
X133631072Y-80591176D01*
X133790267Y-80467691D01*
X133790268Y-80467690D01*
X133906115Y-80302857D01*
X133906115Y-80302856D01*
X133968372Y-80111251D01*
X133968372Y-80111250D01*
X133970037Y-79899264D01*
X133910796Y-79706702D01*
X133910793Y-79706695D01*
X133797556Y-79540071D01*
X133797548Y-79540063D01*
X133693425Y-79456645D01*
X133652767Y-79398443D01*
X133650030Y-79327500D01*
X133682312Y-79275504D01*
X133679539Y-79272954D01*
X133798541Y-79143542D01*
X133879583Y-78996127D01*
X133886996Y-78968461D01*
X133923948Y-78907838D01*
X133987808Y-78876817D01*
X134071702Y-78891952D01*
X134131918Y-78926717D01*
X134131922Y-78926719D01*
X134311850Y-78985182D01*
X134500000Y-79004957D01*
X134688150Y-78985182D01*
X134868078Y-78926719D01*
X134868082Y-78926717D01*
X135031918Y-78832127D01*
X135172514Y-78705534D01*
X135283715Y-78552479D01*
X135360665Y-78379647D01*
X135400000Y-78194590D01*
X135400000Y-78005410D01*
X135360665Y-77820353D01*
X135283715Y-77647521D01*
X135172514Y-77494466D01*
X135031918Y-77367873D01*
X134868082Y-77273283D01*
X134868078Y-77273281D01*
X134688150Y-77214818D01*
X134500000Y-77195043D01*
X134311850Y-77214818D01*
X134131922Y-77273281D01*
X134131918Y-77273283D01*
X134072911Y-77307350D01*
X134003916Y-77324087D01*
X133936824Y-77300866D01*
X133887548Y-77228283D01*
X133884906Y-77217528D01*
X133884906Y-77217525D01*
X133806976Y-77068461D01*
X133806969Y-77068451D01*
X133690707Y-76936578D01*
X133691891Y-76935534D01*
X137347547Y-76935534D01*
X137380610Y-77144289D01*
X137380610Y-77144290D01*
X137451160Y-77343517D01*
X137451164Y-77343525D01*
X137556838Y-77526558D01*
X137694107Y-77687279D01*
X137858360Y-77820289D01*
X137858362Y-77820290D01*
X138044096Y-77921134D01*
X138044105Y-77921138D01*
X138245111Y-77986448D01*
X138387527Y-78005198D01*
X138452454Y-78033921D01*
X138491545Y-78093186D01*
X138492390Y-78164178D01*
X138454719Y-78224356D01*
X138380966Y-78255732D01*
X138304411Y-78261757D01*
X138100260Y-78316458D01*
X137909496Y-78407447D01*
X137909496Y-78407448D01*
X137738507Y-78531678D01*
X137738505Y-78531680D01*
X137593018Y-78684991D01*
X137593017Y-78684992D01*
X137477907Y-78862246D01*
X137397023Y-79057518D01*
X137397022Y-79057521D01*
X137353080Y-79264246D01*
X137353079Y-79264254D01*
X137347547Y-79475534D01*
X137380610Y-79684289D01*
X137380610Y-79684290D01*
X137451160Y-79883517D01*
X137451164Y-79883525D01*
X137556838Y-80066558D01*
X137694107Y-80227279D01*
X137858360Y-80360289D01*
X137858362Y-80360290D01*
X138044096Y-80461134D01*
X138044105Y-80461138D01*
X138245111Y-80526448D01*
X138454662Y-80554036D01*
X138665716Y-80542975D01*
X138665721Y-80542974D01*
X138871239Y-80493634D01*
X139064321Y-80407667D01*
X139064324Y-80407666D01*
X139238501Y-80287958D01*
X139238513Y-80287948D01*
X139387948Y-80138513D01*
X139387958Y-80138501D01*
X139507666Y-79964324D01*
X139507667Y-79964321D01*
X139593634Y-79771239D01*
X139642974Y-79565721D01*
X139643804Y-79534015D01*
X139665582Y-79466441D01*
X139720436Y-79421369D01*
X139790951Y-79413108D01*
X139854737Y-79444281D01*
X139894210Y-79517602D01*
X139920611Y-79684290D01*
X139991160Y-79883517D01*
X139991164Y-79883525D01*
X140096838Y-80066558D01*
X140234107Y-80227279D01*
X140398360Y-80360289D01*
X140398362Y-80360290D01*
X140584096Y-80461134D01*
X140584105Y-80461138D01*
X140785111Y-80526448D01*
X140994657Y-80554036D01*
X140997384Y-80554143D01*
X140998611Y-80554556D01*
X141000386Y-80554790D01*
X141000340Y-80555139D01*
X141064666Y-80576806D01*
X141109015Y-80632247D01*
X141116350Y-80702864D01*
X141084283Y-80766299D01*
X140943979Y-80915708D01*
X140943978Y-80915710D01*
X140855562Y-81096190D01*
X140824122Y-81294694D01*
X140852439Y-81493661D01*
X140938010Y-81675508D01*
X140938010Y-81675509D01*
X141073267Y-81824155D01*
X141246258Y-81926461D01*
X141441681Y-81973378D01*
X141441685Y-81973378D01*
X141642255Y-81960760D01*
X141642256Y-81960759D01*
X141830257Y-81889720D01*
X141830256Y-81889720D01*
X141989059Y-81766541D01*
X142104621Y-81602114D01*
X142166727Y-81410975D01*
X142168387Y-81199513D01*
X142168387Y-81199509D01*
X142109294Y-81007425D01*
X142109293Y-81007421D01*
X141996331Y-80841203D01*
X141996329Y-80841200D01*
X141839479Y-80715540D01*
X141652617Y-80641556D01*
X141643440Y-80639429D01*
X141644091Y-80636622D01*
X141591847Y-80616716D01*
X141549702Y-80559582D01*
X141545136Y-80488733D01*
X141601280Y-80413443D01*
X141599560Y-80410940D01*
X141778501Y-80287958D01*
X141778513Y-80287948D01*
X141927948Y-80138513D01*
X141927958Y-80138501D01*
X142047666Y-79964324D01*
X142047667Y-79964321D01*
X142133634Y-79771239D01*
X142182974Y-79565721D01*
X142183804Y-79534015D01*
X142205582Y-79466441D01*
X142260436Y-79421369D01*
X142330951Y-79413108D01*
X142394737Y-79444281D01*
X142434210Y-79517602D01*
X142460611Y-79684290D01*
X142531160Y-79883517D01*
X142531164Y-79883525D01*
X142636838Y-80066558D01*
X142774107Y-80227279D01*
X142938360Y-80360289D01*
X142938362Y-80360290D01*
X143124096Y-80461134D01*
X143124105Y-80461138D01*
X143325111Y-80526448D01*
X143534662Y-80554036D01*
X143745716Y-80542975D01*
X143745721Y-80542974D01*
X143951239Y-80493634D01*
X144144321Y-80407667D01*
X144144324Y-80407666D01*
X144318501Y-80287958D01*
X144318513Y-80287948D01*
X144467948Y-80138513D01*
X144467958Y-80138501D01*
X144587666Y-79964324D01*
X144587667Y-79964321D01*
X144673634Y-79771239D01*
X144722974Y-79565721D01*
X144723804Y-79534015D01*
X144745582Y-79466441D01*
X144800436Y-79421369D01*
X144870951Y-79413108D01*
X144934737Y-79444281D01*
X144974210Y-79517602D01*
X145000611Y-79684290D01*
X145071160Y-79883517D01*
X145071164Y-79883525D01*
X145176838Y-80066558D01*
X145314107Y-80227279D01*
X145478360Y-80360289D01*
X145478362Y-80360290D01*
X145664096Y-80461134D01*
X145664105Y-80461138D01*
X145865111Y-80526448D01*
X146074662Y-80554036D01*
X146285716Y-80542975D01*
X146285721Y-80542974D01*
X146491239Y-80493634D01*
X146684321Y-80407667D01*
X146684324Y-80407666D01*
X146858501Y-80287958D01*
X146858513Y-80287948D01*
X147007948Y-80138513D01*
X147007958Y-80138501D01*
X147127666Y-79964324D01*
X147127667Y-79964321D01*
X147213634Y-79771239D01*
X147262974Y-79565721D01*
X147263804Y-79534015D01*
X147285582Y-79466441D01*
X147340436Y-79421369D01*
X147410951Y-79413108D01*
X147474737Y-79444281D01*
X147514210Y-79517602D01*
X147540611Y-79684290D01*
X147611160Y-79883517D01*
X147611164Y-79883525D01*
X147716838Y-80066558D01*
X147854107Y-80227279D01*
X148018360Y-80360289D01*
X148018362Y-80360290D01*
X148204096Y-80461134D01*
X148204105Y-80461138D01*
X148405111Y-80526448D01*
X148614662Y-80554036D01*
X148825716Y-80542975D01*
X148825721Y-80542974D01*
X149031239Y-80493634D01*
X149224321Y-80407667D01*
X149224324Y-80407666D01*
X149398501Y-80287958D01*
X149398513Y-80287948D01*
X149547948Y-80138513D01*
X149547958Y-80138501D01*
X149667666Y-79964324D01*
X149667667Y-79964321D01*
X149753634Y-79771239D01*
X149802974Y-79565721D01*
X149803804Y-79534015D01*
X149825582Y-79466441D01*
X149880436Y-79421369D01*
X149950951Y-79413108D01*
X150014737Y-79444281D01*
X150054210Y-79517602D01*
X150080611Y-79684290D01*
X150151160Y-79883517D01*
X150151164Y-79883525D01*
X150256838Y-80066558D01*
X150394107Y-80227279D01*
X150558360Y-80360289D01*
X150558362Y-80360290D01*
X150744096Y-80461134D01*
X150744105Y-80461138D01*
X150945111Y-80526448D01*
X151154662Y-80554036D01*
X151365716Y-80542975D01*
X151365721Y-80542974D01*
X151571239Y-80493634D01*
X151764321Y-80407667D01*
X151764324Y-80407666D01*
X151938501Y-80287958D01*
X151938513Y-80287948D01*
X152087948Y-80138513D01*
X152087958Y-80138501D01*
X152207666Y-79964324D01*
X152207667Y-79964321D01*
X152293634Y-79771239D01*
X152342974Y-79565721D01*
X152343804Y-79534015D01*
X152365582Y-79466441D01*
X152420436Y-79421369D01*
X152490951Y-79413108D01*
X152554737Y-79444281D01*
X152594210Y-79517602D01*
X152620611Y-79684290D01*
X152691160Y-79883517D01*
X152691164Y-79883525D01*
X152796838Y-80066558D01*
X152934107Y-80227279D01*
X153098360Y-80360289D01*
X153098362Y-80360290D01*
X153284096Y-80461134D01*
X153284105Y-80461138D01*
X153485111Y-80526448D01*
X153694657Y-80554036D01*
X153694667Y-80554036D01*
X153905716Y-80542975D01*
X153905721Y-80542974D01*
X154111239Y-80493634D01*
X154304321Y-80407667D01*
X154304324Y-80407666D01*
X154478501Y-80287958D01*
X154478513Y-80287948D01*
X154627948Y-80138513D01*
X154627958Y-80138501D01*
X154747666Y-79964324D01*
X154747667Y-79964321D01*
X154833634Y-79771239D01*
X154882974Y-79565721D01*
X154883804Y-79534015D01*
X154905582Y-79466441D01*
X154960436Y-79421369D01*
X155030951Y-79413108D01*
X155094737Y-79444281D01*
X155134210Y-79517602D01*
X155160611Y-79684290D01*
X155231160Y-79883517D01*
X155231164Y-79883525D01*
X155336838Y-80066558D01*
X155474107Y-80227279D01*
X155638360Y-80360289D01*
X155638362Y-80360290D01*
X155824096Y-80461134D01*
X155824105Y-80461138D01*
X156025111Y-80526448D01*
X156234662Y-80554036D01*
X156445716Y-80542975D01*
X156445721Y-80542974D01*
X156651239Y-80493634D01*
X156844321Y-80407667D01*
X156844324Y-80407666D01*
X157018501Y-80287958D01*
X157018513Y-80287948D01*
X157167948Y-80138513D01*
X157167958Y-80138501D01*
X157287666Y-79964324D01*
X157287667Y-79964321D01*
X157373634Y-79771239D01*
X157422974Y-79565721D01*
X157430081Y-79294322D01*
X157430081Y-79294318D01*
X157391565Y-79086509D01*
X157391563Y-79086501D01*
X157315825Y-78889195D01*
X157315822Y-78889190D01*
X157205385Y-78708974D01*
X157063965Y-78551912D01*
X156896284Y-78423247D01*
X156707960Y-78327292D01*
X156505321Y-78267267D01*
X156505313Y-78267266D01*
X156399786Y-78256174D01*
X156334129Y-78229160D01*
X156293500Y-78170938D01*
X156290797Y-78099993D01*
X156326880Y-78038849D01*
X156406363Y-78005037D01*
X156445716Y-78002975D01*
X156445721Y-78002974D01*
X156651239Y-77953634D01*
X156844321Y-77867667D01*
X156844324Y-77867666D01*
X157018501Y-77747958D01*
X157018513Y-77747948D01*
X157167948Y-77598513D01*
X157167958Y-77598501D01*
X157287666Y-77424324D01*
X157287667Y-77424321D01*
X157373634Y-77231239D01*
X157422974Y-77025721D01*
X157430081Y-76754322D01*
X157430081Y-76754318D01*
X157391565Y-76546509D01*
X157391563Y-76546501D01*
X157315825Y-76349195D01*
X157315822Y-76349190D01*
X157205385Y-76168974D01*
X157063965Y-76011912D01*
X156896284Y-75883247D01*
X156707960Y-75787292D01*
X156505321Y-75727267D01*
X156505313Y-75727266D01*
X156295120Y-75705173D01*
X156084411Y-75721757D01*
X155880260Y-75776458D01*
X155689496Y-75867447D01*
X155689496Y-75867448D01*
X155518507Y-75991678D01*
X155518505Y-75991680D01*
X155373018Y-76144991D01*
X155373017Y-76144992D01*
X155257907Y-76322246D01*
X155177023Y-76517518D01*
X155177022Y-76517521D01*
X155131992Y-76729363D01*
X155098264Y-76791836D01*
X155036114Y-76826157D01*
X154965275Y-76821429D01*
X154908238Y-76779153D01*
X154884856Y-76726127D01*
X154851565Y-76546509D01*
X154851563Y-76546501D01*
X154775825Y-76349195D01*
X154775822Y-76349190D01*
X154665385Y-76168974D01*
X154523965Y-76011912D01*
X154356284Y-75883247D01*
X154167960Y-75787292D01*
X153965321Y-75727267D01*
X153965313Y-75727266D01*
X153755120Y-75705173D01*
X153544411Y-75721757D01*
X153340260Y-75776458D01*
X153149496Y-75867447D01*
X153149496Y-75867448D01*
X152978507Y-75991678D01*
X152978505Y-75991680D01*
X152833018Y-76144991D01*
X152833017Y-76144992D01*
X152717907Y-76322246D01*
X152637023Y-76517518D01*
X152637022Y-76517521D01*
X152591992Y-76729363D01*
X152558264Y-76791836D01*
X152496114Y-76826157D01*
X152425275Y-76821429D01*
X152368238Y-76779153D01*
X152344856Y-76726127D01*
X152311565Y-76546509D01*
X152311563Y-76546501D01*
X152235825Y-76349195D01*
X152235822Y-76349190D01*
X152125385Y-76168974D01*
X151983965Y-76011912D01*
X151816284Y-75883247D01*
X151627960Y-75787292D01*
X151425321Y-75727267D01*
X151425313Y-75727266D01*
X151215120Y-75705173D01*
X151004411Y-75721757D01*
X150800260Y-75776458D01*
X150609496Y-75867447D01*
X150609496Y-75867448D01*
X150438507Y-75991678D01*
X150438505Y-75991680D01*
X150293018Y-76144991D01*
X150293017Y-76144992D01*
X150177907Y-76322246D01*
X150097023Y-76517518D01*
X150097022Y-76517521D01*
X150051992Y-76729363D01*
X150018264Y-76791836D01*
X149956114Y-76826157D01*
X149885275Y-76821429D01*
X149828238Y-76779153D01*
X149804856Y-76726127D01*
X149771565Y-76546509D01*
X149771563Y-76546501D01*
X149695825Y-76349195D01*
X149695822Y-76349190D01*
X149585385Y-76168974D01*
X149443965Y-76011912D01*
X149276284Y-75883247D01*
X149087960Y-75787292D01*
X148885321Y-75727267D01*
X148885313Y-75727266D01*
X148675120Y-75705173D01*
X148464411Y-75721757D01*
X148260260Y-75776458D01*
X148069496Y-75867447D01*
X148069496Y-75867448D01*
X147898507Y-75991678D01*
X147898505Y-75991680D01*
X147753018Y-76144991D01*
X147753017Y-76144992D01*
X147637907Y-76322246D01*
X147557023Y-76517518D01*
X147557022Y-76517521D01*
X147511992Y-76729363D01*
X147478264Y-76791836D01*
X147416114Y-76826157D01*
X147345275Y-76821429D01*
X147288238Y-76779153D01*
X147264856Y-76726127D01*
X147231565Y-76546509D01*
X147231563Y-76546501D01*
X147155825Y-76349195D01*
X147155822Y-76349190D01*
X147045385Y-76168974D01*
X146903965Y-76011912D01*
X146736284Y-75883247D01*
X146547960Y-75787292D01*
X146345321Y-75727267D01*
X146345313Y-75727266D01*
X146135120Y-75705173D01*
X145924411Y-75721757D01*
X145720260Y-75776458D01*
X145529496Y-75867447D01*
X145529496Y-75867448D01*
X145358507Y-75991678D01*
X145358505Y-75991680D01*
X145213018Y-76144991D01*
X145213017Y-76144992D01*
X145097907Y-76322246D01*
X145017023Y-76517518D01*
X145017022Y-76517521D01*
X144971992Y-76729363D01*
X144938264Y-76791836D01*
X144876114Y-76826157D01*
X144805275Y-76821429D01*
X144748238Y-76779153D01*
X144724856Y-76726127D01*
X144691565Y-76546509D01*
X144691563Y-76546501D01*
X144615825Y-76349195D01*
X144615822Y-76349190D01*
X144505385Y-76168974D01*
X144363965Y-76011912D01*
X144196284Y-75883247D01*
X144007960Y-75787292D01*
X143805321Y-75727267D01*
X143805313Y-75727266D01*
X143595120Y-75705173D01*
X143384411Y-75721757D01*
X143180260Y-75776458D01*
X142989496Y-75867447D01*
X142989496Y-75867448D01*
X142818507Y-75991678D01*
X142818505Y-75991680D01*
X142673018Y-76144991D01*
X142673017Y-76144992D01*
X142557907Y-76322246D01*
X142477023Y-76517518D01*
X142477022Y-76517521D01*
X142431992Y-76729363D01*
X142398264Y-76791836D01*
X142336114Y-76826157D01*
X142265275Y-76821429D01*
X142208238Y-76779153D01*
X142184856Y-76726127D01*
X142151565Y-76546509D01*
X142151563Y-76546501D01*
X142075825Y-76349195D01*
X142075822Y-76349190D01*
X141965385Y-76168974D01*
X141823965Y-76011912D01*
X141656284Y-75883247D01*
X141467960Y-75787292D01*
X141265321Y-75727267D01*
X141265313Y-75727266D01*
X141055120Y-75705173D01*
X140844411Y-75721757D01*
X140640260Y-75776458D01*
X140449496Y-75867447D01*
X140449496Y-75867448D01*
X140278507Y-75991678D01*
X140278505Y-75991680D01*
X140133018Y-76144991D01*
X140133017Y-76144992D01*
X140017907Y-76322246D01*
X139937023Y-76517518D01*
X139937022Y-76517521D01*
X139891992Y-76729363D01*
X139858264Y-76791836D01*
X139796114Y-76826157D01*
X139725275Y-76821429D01*
X139668238Y-76779153D01*
X139644856Y-76726127D01*
X139611565Y-76546509D01*
X139611563Y-76546501D01*
X139535825Y-76349195D01*
X139535822Y-76349190D01*
X139425385Y-76168974D01*
X139283965Y-76011912D01*
X139116284Y-75883247D01*
X138927960Y-75787292D01*
X138725321Y-75727267D01*
X138725313Y-75727266D01*
X138515120Y-75705173D01*
X138304411Y-75721757D01*
X138100260Y-75776458D01*
X137909496Y-75867447D01*
X137909496Y-75867448D01*
X137738507Y-75991678D01*
X137738505Y-75991680D01*
X137593018Y-76144991D01*
X137593017Y-76144992D01*
X137477907Y-76322246D01*
X137397023Y-76517518D01*
X137397022Y-76517521D01*
X137353080Y-76724246D01*
X137353079Y-76724254D01*
X137347547Y-76935534D01*
X133691891Y-76935534D01*
X133692907Y-76934639D01*
X133662530Y-76885914D01*
X133663504Y-76814924D01*
X133686159Y-76776316D01*
X133684851Y-76775397D01*
X133806115Y-76602857D01*
X133806115Y-76602856D01*
X133868372Y-76411251D01*
X133868372Y-76411250D01*
X133870037Y-76199264D01*
X133810796Y-76006702D01*
X133810793Y-76006695D01*
X133697556Y-75840071D01*
X133697551Y-75840066D01*
X133540317Y-75714098D01*
X133352995Y-75639932D01*
X133152144Y-75624125D01*
X132955529Y-75668074D01*
X132780521Y-75767896D01*
X132695564Y-75858366D01*
X132634352Y-75894331D01*
X132563412Y-75891494D01*
X132504345Y-75846615D01*
X132503946Y-75846984D01*
X132501857Y-75844724D01*
X132499501Y-75842934D01*
X132497554Y-75840069D01*
X132497551Y-75840066D01*
X132340317Y-75714098D01*
X132152995Y-75639932D01*
X131952144Y-75624125D01*
X131755529Y-75668074D01*
X131580521Y-75767896D01*
X131495564Y-75858366D01*
X131434352Y-75894331D01*
X131363412Y-75891494D01*
X131304345Y-75846615D01*
X131303946Y-75846984D01*
X131301857Y-75844724D01*
X131299501Y-75842934D01*
X131297554Y-75840069D01*
X131297551Y-75840066D01*
X131140317Y-75714098D01*
X130952995Y-75639932D01*
X130752144Y-75624125D01*
X130555529Y-75668074D01*
X130380521Y-75767896D01*
X130242608Y-75914758D01*
X130242607Y-75914760D01*
X130153972Y-76095687D01*
X130128546Y-76256217D01*
X130098133Y-76320370D01*
X130037865Y-76357897D01*
X129941097Y-76345625D01*
X129788085Y-76257284D01*
X129788078Y-76257281D01*
X129608150Y-76198818D01*
X129420000Y-76179043D01*
X129231850Y-76198818D01*
X129051922Y-76257281D01*
X129051918Y-76257283D01*
X128888082Y-76351873D01*
X128747486Y-76478466D01*
X128636285Y-76631521D01*
X128559335Y-76804353D01*
X128520000Y-76989410D01*
X125959940Y-76989410D01*
X125920272Y-76916352D01*
X125696414Y-76586957D01*
X125440942Y-76281415D01*
X125156394Y-76002766D01*
X124845576Y-75753753D01*
X124511577Y-75536851D01*
X124508863Y-75535275D01*
X124508942Y-75535140D01*
X124508933Y-75535134D01*
X124509045Y-75534961D01*
X124509601Y-75534004D01*
X124462402Y-75488973D01*
X124445685Y-75419973D01*
X124468925Y-75352888D01*
X124524745Y-75309018D01*
X124571540Y-75300006D01*
X172438204Y-75299999D01*
X172506325Y-75320001D01*
G37*
G04 #@! TD.AperFunction*
G04 #@! TA.AperFunction,Conductor*
G36*
X125930212Y-108718422D02*
G01*
X129939597Y-111163169D01*
X129987345Y-111215711D01*
X130000000Y-111270747D01*
X130000000Y-112374000D01*
X129979998Y-112442121D01*
X129926342Y-112488614D01*
X129874000Y-112500000D01*
X127140378Y-112500000D01*
X127067142Y-112476530D01*
X126923600Y-112374000D01*
X124352763Y-110537688D01*
X124308958Y-110481819D01*
X124300000Y-110435159D01*
X124300000Y-108826000D01*
X124320002Y-108757879D01*
X124373658Y-108711386D01*
X124426000Y-108700000D01*
X125864615Y-108700000D01*
X125930212Y-108718422D01*
G37*
G04 #@! TD.AperFunction*
G04 #@! TA.AperFunction,Conductor*
G36*
X171889310Y-86318449D02*
G01*
X171900000Y-86349000D01*
X171900000Y-87851000D01*
X171881551Y-87889310D01*
X171851000Y-87900000D01*
X168406206Y-87900000D01*
X168367896Y-87881551D01*
X168357206Y-87851000D01*
X168357206Y-87349000D01*
X168375655Y-87310690D01*
X168406206Y-87300000D01*
X168800000Y-87300000D01*
X168800000Y-86349000D01*
X168818449Y-86310690D01*
X168849000Y-86300000D01*
X171851000Y-86300000D01*
X171889310Y-86318449D01*
G37*
G04 #@! TD.AperFunction*
G04 #@! TA.AperFunction,Conductor*
G36*
X119044958Y-89118873D02*
G01*
X119162748Y-89191806D01*
X119287878Y-89215197D01*
X119703471Y-89215197D01*
X119876383Y-89174529D01*
X119876382Y-89174529D01*
X119941373Y-89125450D01*
X120017305Y-89100000D01*
X120674000Y-89100000D01*
X120742121Y-89120002D01*
X120788614Y-89173658D01*
X120800000Y-89226000D01*
X120800000Y-90000002D01*
X120833151Y-90137084D01*
X120873588Y-90189255D01*
X120900000Y-90266444D01*
X120900000Y-92100000D01*
X121663096Y-92863096D01*
X121700000Y-92952190D01*
X121700000Y-93300001D01*
X121731450Y-93433720D01*
X121760831Y-93472627D01*
X121775544Y-93502498D01*
X121776772Y-93501959D01*
X121855193Y-93680738D01*
X121855197Y-93680745D01*
X121981232Y-93817656D01*
X121981233Y-93817657D01*
X122144898Y-93906227D01*
X122282258Y-93929148D01*
X122574000Y-93929148D01*
X122642121Y-93949150D01*
X122688614Y-94002806D01*
X122700000Y-94055148D01*
X122700000Y-95174000D01*
X122679998Y-95242121D01*
X122626342Y-95288614D01*
X122574000Y-95300000D01*
X120905099Y-95300000D01*
X120881947Y-95297855D01*
X120812123Y-95284803D01*
X120396529Y-95284803D01*
X120346147Y-95296653D01*
X120317299Y-95300000D01*
X118926000Y-95300000D01*
X118857879Y-95279998D01*
X118811386Y-95226342D01*
X118800000Y-95174000D01*
X118800000Y-89226000D01*
X118820002Y-89157879D01*
X118873658Y-89111386D01*
X118926000Y-89100000D01*
X118978627Y-89100000D01*
X119044958Y-89118873D01*
G37*
G04 #@! TD.AperFunction*
G04 #@! TA.AperFunction,Conductor*
G36*
X129942121Y-114320002D02*
G01*
X129988614Y-114373658D01*
X130000000Y-114426000D01*
X130000000Y-115674000D01*
X129979998Y-115742121D01*
X129926342Y-115788614D01*
X129874000Y-115800000D01*
X127100000Y-115800000D01*
X126971504Y-115974388D01*
X125737768Y-117648743D01*
X125681256Y-117691719D01*
X125636331Y-117700000D01*
X124226000Y-117700000D01*
X124157879Y-117679998D01*
X124111386Y-117626342D01*
X124100000Y-117574000D01*
X124100000Y-115974388D01*
X124120002Y-115906267D01*
X124165132Y-115864065D01*
X124301887Y-115788614D01*
X126971586Y-114315677D01*
X127032453Y-114300000D01*
X129874000Y-114300000D01*
X129942121Y-114320002D01*
G37*
G04 #@! TD.AperFunction*
G04 #@! TA.AperFunction,Conductor*
G36*
X129942121Y-117320002D02*
G01*
X129988614Y-117373658D01*
X130000000Y-117426000D01*
X130000000Y-118466993D01*
X129983819Y-118528766D01*
X126436128Y-124835773D01*
X126385297Y-124885339D01*
X126326309Y-124900000D01*
X124626000Y-124900000D01*
X124557879Y-124879998D01*
X124511386Y-124826342D01*
X124500000Y-124774000D01*
X124500000Y-123126949D01*
X124511024Y-123075408D01*
X127066622Y-117374459D01*
X127112739Y-117320480D01*
X127181598Y-117300000D01*
X129874000Y-117300000D01*
X129942121Y-117320002D01*
G37*
G04 #@! TD.AperFunction*
M02*
